<svg xmlns="http://www.w3.org/2000/svg" xmlns:xlink="http://www.w3.org/1999/xlink" width="1190.679" height="817.058" viewBox="0 0 1190.679 817.058"><defs><clipPath id="a"><rect width="1190.679" height="817.058" transform="translate(0 0.001)" fill="none"/></clipPath></defs><g transform="translate(6196 11137)"><g transform="translate(-6196 -11137.001)"><path d="M660.35,64.255V8.337L645.429,1H481.282V56.92L496.2,64.255Z" fill="#ffd8e3"/><g clip-path="url(#a)"><path d="M660.35,64.255V8.337L645.429,1H481.282V56.92L496.2,64.255Z" fill="none" stroke="#5c379b" stroke-miterlimit="10" stroke-width="2"/></g><path d="M615.682,161.1V124.345l-7.477-4.822H525.949V156.28l7.477,4.822Z" fill="none" stroke="#5c379b" stroke-miterlimit="10" stroke-width="2"/><text transform="translate(526.262 40.15)" font-size="17" font-family="Roboto-Regular, Roboto"><tspan x="0" y="0">Crip</tspan><tspan y="0" letter-spacing="-0.009em">t</tspan><tspan y="0">og</tspan><tspan y="0" letter-spacing="-0.019em">r</tspan><tspan y="0">afía</tspan></text><path d="M239.2,265.755V209.837L224.281,202.5H60.134V258.42l14.922,7.335Z" fill="#ffd8e3"/><path d="M239.2,265.755V209.837L224.281,202.5H60.134V258.42l14.922,7.335Z" fill="none" stroke="#5c379b" stroke-miterlimit="10" stroke-width="2"/><text transform="translate(101.3 228.706)" font-size="17" font-family="Roboto-Regular, Roboto"><tspan x="0" y="0">de la palab</tspan><tspan y="0" letter-spacing="-0.021em">r</tspan><tspan y="0">a </tspan></text><text transform="translate(95.996 249.106)" font-size="17" font-family="Roboto-Regular, Roboto"><tspan x="0" y="0">griega </tspan><tspan y="0" font-family="Roboto-Italic, Roboto" font-style="italic">k</tspan><tspan y="0" font-family="Roboto-Italic, Roboto" font-style="italic" letter-spacing="0.008em">r</tspan><tspan y="0" font-family="Roboto-Italic, Roboto" font-style="italic">yp</tspan><tspan y="0" font-family="Roboto-Italic, Roboto" font-style="italic" letter-spacing="-0.009em">t</tspan><tspan y="0" font-family="Roboto-Italic, Roboto" font-style="italic">os</tspan></text><path d="M180.068,479.195V423.277l-14.921-7.336H1V471.86l14.922,7.335Z" fill="#ffd8e3"/><g clip-path="url(#a)"><path d="M180.068,479.195V423.277l-14.921-7.336H1V471.86l14.922,7.335Z" fill="none" stroke="#5c379b" stroke-miterlimit="10" stroke-width="2"/></g><text transform="translate(40.39 442.145)" font-size="17" font-family="Roboto-Regular, Roboto"><tspan x="0" y="0">asociado a la </tspan></text><text transform="translate(43.739 462.545)" font-size="17" font-family="Roboto-Regular, Roboto"><tspan x="0" y="0">encriptación</tspan></text><path d="M180.068,642.751V586.833L165.147,579.5H1v55.919l14.922,7.335Z" fill="#ffd8e3"/><g clip-path="url(#a)"><path d="M180.068,642.751V586.833L165.147,579.5H1v55.919l14.922,7.335Z" fill="none" stroke="#5c379b" stroke-miterlimit="10" stroke-width="2"/></g><text transform="translate(15.711 605.702)" font-size="17" font-family="Roboto-Regular, Roboto"><tspan x="0" y="0">el ac</tspan><tspan y="0" letter-spacing="-0.01em">t</tspan><tspan y="0">o de int</tspan><tspan y="0" letter-spacing="-0.011em">r</tspan><tspan y="0">oducir </tspan></text><text transform="translate(35.805 626.102)" font-size="17" font-family="Roboto-Regular, Roboto"><tspan x="0" y="0">tex</tspan><tspan y="0" letter-spacing="-0.01em">t</tspan><tspan y="0">o o</tspan><tspan y="0" letter-spacing="-0.009em">r</tspan><tspan y="0">dinario</tspan></text><path d="M180.068,816.059V756.452l-14.921-7.82H1V808.24l14.922,7.819Z" fill="#ffd8e3"/><g clip-path="url(#a)"><path d="M180.068,816.059V756.452l-14.921-7.82H1V808.24l14.922,7.819Z" fill="none" stroke="#5c379b" stroke-miterlimit="10" stroke-width="2"/></g><text transform="translate(19.264 765.484)" font-size="17" font-family="Roboto-Regular, Roboto"><tspan x="0" y="0">como tex</tspan><tspan y="0" letter-spacing="-0.009em">t</tspan><tspan y="0">o cif</tspan><tspan y="0" letter-spacing="-0.019em">r</tspan><tspan y="0">ado </tspan></text><text transform="translate(10.22 785.884)" font-size="17" font-family="Roboto-Regular, Roboto"><tspan x="0" y="0">y </tspan><tspan y="0" letter-spacing="-0.007em">v</tspan><tspan y="0">ol</tspan><tspan y="0" letter-spacing="-0.006em">v</tspan><tspan y="0">er a int</tspan><tspan y="0" letter-spacing="-0.011em">r</tspan><tspan y="0">oducirlo </tspan></text><text transform="translate(60.846 806.284)" font-size="17" font-family="Roboto-Regular, Roboto"><tspan x="0" y="0">al llegar</tspan></text><path d="M677.08,265.755V209.837L659.966,202.5H471.691V258.42l17.115,7.335Z" fill="#ffd8e3"/><path d="M677.08,265.755V209.837L659.966,202.5H471.691V258.42l17.115,7.335Z" fill="none" stroke="#5c379b" stroke-miterlimit="10" stroke-width="2"/><text transform="translate(480.107 228.706)" font-size="17" font-family="Roboto-Regular, Roboto"><tspan x="0" y="0">el estudio de técnicas de </tspan></text><text transform="translate(488.199 249.106)" font-size="17" font-family="Roboto-Regular, Roboto"><tspan x="0" y="0">comunicación segu</tspan><tspan y="0" letter-spacing="-0.018em">r</tspan><tspan y="0">as </tspan></text><path d="M694.169,484.62V414.253l-19.962-9.232H454.6v70.368l19.963,9.231Z" fill="#ffd8e3"/><path d="M694.169,484.62V414.253l-19.962-9.232H454.6v70.368l19.963,9.231Z" fill="none" stroke="#5c379b" stroke-miterlimit="10" stroke-width="2"/><text transform="translate(480.725 429.452)" font-size="17" font-family="Roboto-Regular, Roboto"><tspan x="0" y="0">que solo el </tspan><tspan y="0" letter-spacing="-0.01em">r</tspan><tspan y="0">emitente y el </tspan></text><text transform="translate(472.429 449.852)" font-size="17" font-family="Roboto-Regular, Roboto"><tspan x="0" y="0">destinatario de un mensaje </tspan></text><text transform="translate(482.067 470.251)" font-size="17" font-family="Roboto-Regular, Roboto"><tspan x="0" y="0">puedan </tspan><tspan y="0" letter-spacing="-0.006em">v</tspan><tspan y="0">er su contenido </tspan></text><path d="M1090.491,273.627V210.858l-16.155-8.234H896.617v62.769l16.155,8.234Z" fill="#ffd8e3"/><path d="M1090.491,273.627V210.858l-16.155-8.234H896.617v62.769l16.155,8.234Z" fill="none" stroke="#5c379b" stroke-miterlimit="10" stroke-width="2"/><text transform="translate(931.378 223.965)" font-size="17" font-family="Roboto-Regular, Roboto"><tspan x="0" y="0">la ofuscación de </tspan></text><text transform="translate(936.716 244.365)" font-size="17" font-family="Roboto-Regular, Roboto"><tspan x="0" y="0">información en </tspan></text><text transform="translate(956.572 264.766)" font-size="17" font-family="Roboto-Regular, Roboto"><tspan x="0" y="0">imágenes </tspan></text><text transform="translate(561.934 146.428)" font-size="17" font-family="Roboto-Regular, Roboto"><tspan x="0" y="0">es</tspan></text><path d="M406.1,161.1V124.345l-7.477-4.822H316.365V156.28l7.477,4.822Z" fill="none" stroke="#5c379b" stroke-miterlimit="10" stroke-width="2"/><text transform="translate(327.333 146.436)" font-size="17" font-family="Roboto-Regular, Roboto"><tspan x="0" y="0">se deri</tspan><tspan y="0" letter-spacing="-0.008em">v</tspan><tspan y="0">a</tspan></text><path d="M173.372,373.446v-40.63l-13.5-5.33H11.345v40.63l13.5,5.33Z" fill="none" stroke="#5c379b" stroke-miterlimit="10" stroke-width="2"/><text transform="translate(17.333 354.294)" font-size="17" font-family="Roboto-Regular, Roboto"><tspan x="0" y="0">está est</tspan><tspan y="0" letter-spacing="-0.011em">r</tspan><tspan y="0">echamente</tspan></text><path d="M148.974,547.337V514.874l-9.435-4.259H35.742v32.463l9.436,4.259Z" fill="none" stroke="#5c379b" stroke-miterlimit="10" stroke-width="2"/><text transform="translate(67.354 532.803)" font-size="17" font-family="Roboto-Regular, Roboto"><tspan x="0" y="0">que es</tspan></text><path d="M176.892,716.682V680.408L162.8,675.649H7.824v36.274l14.089,4.759Z" fill="none" stroke="#5c379b" stroke-miterlimit="10" stroke-width="2"/><text transform="translate(17.15 700.107)" font-size="17" font-family="Roboto-Regular, Roboto"><tspan x="0" y="0">en lo que se conoce</tspan></text><path d="M345.061,373.446v-40.63l-11.463-5.33H207.5v40.63l11.463,5.33Z" fill="none" stroke="#5c379b" stroke-miterlimit="10" stroke-width="2"/><text transform="translate(228.106 354.294)" font-size="17" font-family="Roboto-Regular, Roboto"><tspan x="0" y="0">que significa</tspan></text><path d="M817.61,161.1V124.345l-7.477-4.822H727.877V156.28l7.477,4.822Z" fill="none" stroke="#5c379b" stroke-miterlimit="10" stroke-width="2"/><text transform="translate(746.862 146.436)" font-size="17" font-family="Roboto-Regular, Roboto"><tspan x="0" y="0">aba</tspan><tspan y="0" letter-spacing="-0.009em">r</tspan><tspan y="0">ca</tspan></text><line y2="55.269" transform="translate(573.385 64.255)" fill="none" stroke="#5c379b" stroke-miterlimit="10" stroke-width="2"/><line y2="41.399" transform="translate(573.385 161.102)" fill="none" stroke="#5c379b" stroke-miterlimit="10" stroke-width="2"/><path d="M630.326,364.4V327.639l-9.918-4.822h-109.1v36.757l9.918,4.822Z" fill="none" stroke="#5c379b" stroke-miterlimit="10" stroke-width="2"/><text transform="translate(521.066 349.73)" font-size="17" font-family="Roboto-Regular, Roboto"><tspan x="0" y="0">que permiten</tspan></text><line y2="55.269" transform="translate(573.385 267.548)" fill="none" stroke="#5c379b" stroke-miterlimit="10" stroke-width="2"/><line y2="41.399" transform="translate(573.385 364.396)" fill="none" stroke="#5c379b" stroke-miterlimit="10" stroke-width="2"/><line x2="24.003" y2="61.731" transform="translate(239.202 265.755)" fill="none" stroke="#5c379b" stroke-miterlimit="10" stroke-width="2"/><line x1="0.879" y2="62.581" transform="translate(92.643 265.278)" fill="none" stroke="#5c379b" stroke-miterlimit="10" stroke-width="2"/><line x1="0.148" y2="42.867" transform="translate(91.861 373.074)" fill="none" stroke="#5c379b" stroke-miterlimit="10" stroke-width="2"/><path d="M352.006,457.182V420.421l-10.1-4.822H230.852V452.36l10.1,4.822Z" fill="#ffd8e3"/><path d="M352.006,457.182V420.421l-10.1-4.822H230.852V452.36l10.1,4.822Z" fill="none" stroke="#5c379b" stroke-miterlimit="10" stroke-width="2"/><text transform="translate(252.063 442.145)" font-size="17" font-family="Roboto-Regular, Roboto"><tspan x="0" y="0">escondido</tspan></text><line x1="0.148" y2="42.867" transform="translate(292.756 373.074)" fill="none" stroke="#5c379b" stroke-miterlimit="10" stroke-width="2"/><path d="M985.359,486.084V420.347l17.025-8.624h187.295V477.46l-17.026,8.624Z" fill="#ffd8e3"/><g clip-path="url(#a)"><path d="M985.359,486.084V420.347l17.025-8.624h187.295V477.46l-17.026,8.624Z" fill="none" stroke="#5c379b" stroke-miterlimit="10" stroke-width="2"/></g><path d="M1005.974,373.446v-40.63l13.5-5.33H1168v40.63l-13.5,5.33Z" fill="none" stroke="#5c379b" stroke-miterlimit="10" stroke-width="2"/><text transform="translate(831.921 347.683)" font-size="17" font-family="Roboto-Regular, Roboto"><tspan x="0" y="0">mediante técnicas </tspan></text><text transform="translate(879.775 368.082)" font-size="17" font-family="Roboto-Regular, Roboto"><tspan x="0" y="0">como</tspan></text><path d="M824.011,373.447v-40.63l12.846-5.33H978.179v40.63l-12.847,5.33Z" fill="none" stroke="#5c379b" stroke-miterlimit="10" stroke-width="2"/><text transform="translate(1040.87 354.294)" font-size="17" font-family="Roboto-Regular, Roboto"><tspan x="0" y="0">se sabe que</tspan></text><line x1="20.942" y2="53.859" transform="translate(916.141 273.627)" fill="none" stroke="#5c379b" stroke-miterlimit="10" stroke-width="2"/><line x2="16.871" y2="54.231" transform="translate(1069.831 273.627)" fill="none" stroke="#5c379b" stroke-miterlimit="10" stroke-width="2"/><line x2="0.148" y2="38.648" transform="translate(1087.337 373.074)" fill="none" stroke="#5c379b" stroke-miterlimit="10" stroke-width="2"/><path d="M1018.964,563.312V528.239l11.336-4.6h124.712v35.073l-11.337,4.6Z" fill="none" stroke="#5c379b" stroke-miterlimit="10" stroke-width="2"/><text transform="translate(1038.882 550.582)" font-size="17" font-family="Roboto-Regular, Roboto"><tspan x="0" y="0">y se atribu</tspan><tspan y="0" letter-spacing="-0.007em">y</tspan><tspan y="0">e</tspan></text><line x2="0.148" y2="25.113" transform="translate(1087.337 563.312)" fill="none" stroke="#5c379b" stroke-miterlimit="10" stroke-width="2"/><path d="M1018.964,703.617V668.544l11.336-4.6h124.712v35.073l-11.337,4.6Z" fill="none" stroke="#5c379b" stroke-miterlimit="10" stroke-width="2"/><text transform="translate(1052.275 690.886)" font-size="17" font-family="Roboto-Regular, Roboto"><tspan x="0" y="0">el uso de</tspan></text><line x2="0.148" y2="25.113" transform="translate(1087.337 703.617)" fill="none" stroke="#5c379b" stroke-miterlimit="10" stroke-width="2"/><line x2="0.148" y2="25.113" transform="translate(1087.337 639.75)" fill="none" stroke="#5c379b" stroke-miterlimit="10" stroke-width="2"/><line x2="0.148" y2="38.648" transform="translate(1087.337 486.084)" fill="none" stroke="#5c379b" stroke-miterlimit="10" stroke-width="2"/><path d="M727.2,465.612V428.851l11.2-4.822H861.632V460.79l-11.2,4.822Z" fill="#ffd8e3"/><path d="M727.2,465.612V428.851l11.2-4.822H861.632V460.79l-11.2,4.822Z" fill="none" stroke="#5c379b" stroke-miterlimit="10" stroke-width="2"/><text transform="translate(1007.441 431.86)" font-size="17" font-family="Roboto-Regular, Roboto"><tspan x="0" y="0">los antiguos egipcios </tspan></text><text transform="translate(992.515 452.259)" font-size="17" font-family="Roboto-Regular, Roboto"><tspan x="0" y="0">utilizaban es</tspan><tspan y="0" letter-spacing="-0.012em">t</tspan><tspan y="0">os mé</tspan><tspan y="0" letter-spacing="-0.01em">t</tspan><tspan y="0">odos </tspan></text><text transform="translate(993.076 472.66)" font-size="17" font-family="Roboto-Regular, Roboto"><tspan x="0" y="0">en je</tspan><tspan y="0" letter-spacing="-0.011em">r</tspan><tspan y="0">oglíficos complejos</tspan></text><path d="M985.359,639.75V593.563l17.025-6.059h187.3v46.187l-17.026,6.059Z" fill="#ffd8e3"/><g clip-path="url(#a)"><path d="M985.359,639.75V593.563l17.025-6.059h187.3v46.187l-17.026,6.059Z" fill="none" stroke="#5c379b" stroke-miterlimit="10" stroke-width="2"/></g><text transform="translate(1006.402 607.939)" font-size="17" font-family="Roboto-Regular, Roboto"><tspan x="0" y="0">al empe</tspan><tspan y="0" letter-spacing="-0.02em">r</tspan><tspan y="0">ador </tspan><tspan y="0" letter-spacing="-0.009em">r</tspan><tspan y="0">omano </tspan></text><text transform="translate(1045.248 628.339)" font-size="17" font-family="Roboto-Regular, Roboto"><tspan x="0" y="0">Julio César</tspan></text><path d="M985.359,780.055V733.868l17.025-6.059h187.3V774l-17.026,6.059Z" fill="#ffd8e3"/><g clip-path="url(#a)"><path d="M985.359,780.055V733.868l17.025-6.059h187.3V774l-17.026,6.059Z" fill="none" stroke="#5c379b" stroke-miterlimit="10" stroke-width="2"/></g><text transform="translate(1012.815 748.244)" font-size="17" font-family="Roboto-Regular, Roboto"><tspan x="0" y="0">uno de los prime</tspan><tspan y="0" letter-spacing="-0.011em">r</tspan><tspan y="0">os </tspan></text><text transform="translate(1016.317 768.644)" font-size="17" font-family="Roboto-Regular, Roboto"><tspan x="0" y="0">cif</tspan><tspan y="0" letter-spacing="-0.019em">r</tspan><tspan y="0">ados modernos</tspan></text><line x1="70.037" y2="50.955" transform="translate(816.405 373.074)" fill="none" stroke="#5c379b" stroke-miterlimit="10" stroke-width="2"/><line x2="0.609" y2="98.004" transform="translate(928.429 373.074)" fill="none" stroke="#5c379b" stroke-miterlimit="10" stroke-width="2"/><line x1="0.148" y2="31.54" transform="translate(91.861 479.195)" fill="none" stroke="#5c379b" stroke-miterlimit="10" stroke-width="2"/><line x1="0.148" y2="31.54" transform="translate(91.861 547.337)" fill="none" stroke="#5c379b" stroke-miterlimit="10" stroke-width="2"/><line x1="0.148" y2="31.54" transform="translate(91.861 643.371)" fill="none" stroke="#5c379b" stroke-miterlimit="10" stroke-width="2"/><line x1="0.148" y2="31.54" transform="translate(91.861 717.267)" fill="none" stroke="#5c379b" stroke-miterlimit="10" stroke-width="2"/><line x2="83.61" y2="55.269" transform="translate(660.35 64.255)" fill="none" stroke="#5c379b" stroke-miterlimit="10" stroke-width="2"/><line x2="106.32" y2="51.197" transform="translate(817.61 151.304)" fill="none" stroke="#5c379b" stroke-miterlimit="10" stroke-width="2"/><line x1="106.32" y2="51.197" transform="translate(210.045 151.304)" fill="none" stroke="#5c379b" stroke-miterlimit="10" stroke-width="2"/><line x1="89.966" y2="59.47" transform="translate(401.603 61.976)" fill="none" stroke="#5c379b" stroke-miterlimit="10" stroke-width="2"/><text transform="translate(733.671 448.647)" font-size="17" font-family="Roboto-Regular, Roboto"><tspan x="0" y="0">los mic</tspan><tspan y="0" letter-spacing="-0.009em">r</tspan><tspan y="0">opun</tspan><tspan y="0" letter-spacing="-0.009em">t</tspan><tspan y="0">os </tspan></text><path d="M868.024,512.662V475.9l7.615-4.822h83.768V507.84l-7.615,4.822Z" fill="#ffd8e3"/><path d="M868.024,512.662V475.9l7.615-4.822h83.768V507.84l-7.615,4.822Z" fill="none" stroke="#5c379b" stroke-miterlimit="10" stroke-width="2"/><text transform="translate(880.31 495.696)" font-size="17" font-family="Roboto-Regular, Roboto"><tspan x="0" y="0">la fusión </tspan></text></g></g></svg>