<svg id="Grupo_148931" data-name="Grupo 148931" xmlns="http://www.w3.org/2000/svg" xmlns:xlink="http://www.w3.org/1999/xlink" width="900.512" height="629.815" viewBox="0 0 900.512 629.815">
  <defs>
    <clipPath id="clip-path">
      <rect id="Rectángulo_41071" data-name="Rectángulo 41071" width="900.512" height="629.815" fill="none"/>
    </clipPath>
  </defs>
  <rect id="Rectángulo_41021" data-name="Rectángulo 41021" width="2" height="58.052" transform="translate(407.409 107.167)" fill="#5c379b"/>
  <path id="Trazado_213854" data-name="Trazado 213854" d="M400.229,158.592l1.465-1.364,6.713,7.223,6.715-7.223,1.464,1.364-8.179,8.8Z" fill="#5c379b"/>
  <rect id="Rectángulo_41022" data-name="Rectángulo 41022" width="2" height="76.387" transform="translate(407.409 358.824)" fill="#5c379b"/>
  <path id="Trazado_213855" data-name="Trazado 213855" d="M400.229,428.583l1.465-1.364,6.713,7.223,6.715-7.223,1.464,1.364-8.179,8.8Z" fill="#5c379b"/>
  <rect id="Rectángulo_41023" data-name="Rectángulo 41023" width="90.846" height="2" transform="translate(581.323 546.077)" fill="#5c379b"/>
  <path id="Trazado_213856" data-name="Trazado 213856" d="M587.95,538.9l1.364,1.465-7.223,6.713,7.223,6.715-1.364,1.464-8.8-8.179Z" fill="#5c379b"/>
  <rect id="Rectángulo_41024" data-name="Rectángulo 41024" width="143.598" height="2" transform="translate(125.009 546.077)" fill="#5c379b"/>
  <path id="Trazado_213857" data-name="Trazado 213857" d="M131.637,538.9,133,540.362l-7.223,6.713L133,553.79l-1.364,1.464-8.8-8.179Z" fill="#5c379b"/>
  <rect id="Rectángulo_41025" data-name="Rectángulo 41025" width="143.598" height="2" transform="translate(122.84 52.017)" fill="#5c379b"/>
  <path id="Trazado_213858" data-name="Trazado 213858" d="M259.811,61.2l-1.364-1.465,7.223-6.713L258.447,46.3l1.364-1.464,8.8,8.179Z" fill="#5c379b"/>
  <rect id="Rectángulo_41026" data-name="Rectángulo 41026" width="143.598" height="2" transform="translate(554.481 52.017)" fill="#5c379b"/>
  <path id="Trazado_213859" data-name="Trazado 213859" d="M561.108,44.838l1.364,1.465-7.223,6.713,7.223,6.715-1.364,1.464-8.8-8.179Z" fill="#5c379b"/>
  <path id="Trazado_213860" data-name="Trazado 213860" d="M27.149,120.352H20.181v4.393h8.23v3.408H15.75v-18.38H28.437v3.421H20.181v3.876h6.968Z" fill="#4d4d4d"/>
  <g id="Grupo_148930" data-name="Grupo 148930">
    <g id="Grupo_148929" data-name="Grupo 148929" clip-path="url(#clip-path)">
      <path id="Trazado_213861" data-name="Trazado 213861" d="M37.172,124.315a.984.984,0,0,0-.568-.871,8.7,8.7,0,0,0-2.159-.682,9.825,9.825,0,0,1-2.626-.927,4.4,4.4,0,0,1-1.577-1.395,3.33,3.33,0,0,1-.543-1.881,3.77,3.77,0,0,1,1.553-3.1,6.388,6.388,0,0,1,4.064-1.219,7.09,7.09,0,0,1,4.343,1.224,3.83,3.83,0,0,1,1.64,3.219H37.033q0-1.641-1.73-1.641a1.717,1.717,0,0,0-1.123.373,1.151,1.151,0,0,0-.454.927,1.058,1.058,0,0,0,.555.922,5.225,5.225,0,0,0,1.774.58,15.577,15.577,0,0,1,2.139.543q3.081,1.061,3.081,3.8a3.576,3.576,0,0,1-1.661,3.042,7.275,7.275,0,0,1-4.3,1.175,7.421,7.421,0,0,1-3.13-.632,5.228,5.228,0,0,1-2.146-1.717,3.88,3.88,0,0,1-.77-2.284h3.976a1.643,1.643,0,0,0,.631,1.382,2.6,2.6,0,0,0,1.553.435,2.045,2.045,0,0,0,1.306-.353,1.132,1.132,0,0,0,.436-.922" fill="#4d4d4d"/>
      <path id="Trazado_213862" data-name="Trazado 213862" d="M48.217,111.1v3.4h2.247v2.954H48.217V123.7a1.6,1.6,0,0,0,.278,1.073,1.489,1.489,0,0,0,1.1.3A6.188,6.188,0,0,0,50.654,125v3.043a7.833,7.833,0,0,1-2.4.367,4.456,4.456,0,0,1-3.244-1.036,4.241,4.241,0,0,1-1.048-3.143v-6.779H42.221v-2.954h1.742v-3.4Z" fill="#4d4d4d"/>
      <path id="Trazado_213863" data-name="Trazado 213863" d="M59.831,128.152a4.731,4.731,0,0,1-.4-1.224,3.956,3.956,0,0,1-3.282,1.478,4.842,4.842,0,0,1-3.282-1.168,3.717,3.717,0,0,1-1.351-2.936,3.823,3.823,0,0,1,1.641-3.358,8.372,8.372,0,0,1,4.772-1.134h1.312v-.724q0-1.89-1.628-1.891a1.332,1.332,0,0,0-1.515,1.5H51.84a3.81,3.81,0,0,1,1.685-3.214,7.078,7.078,0,0,1,4.3-1.237,6.209,6.209,0,0,1,4.128,1.276,4.431,4.431,0,0,1,1.552,3.5v6.048a6.19,6.19,0,0,0,.581,2.878v.213Zm-2.664-2.777a2.366,2.366,0,0,0,1.319-.34,2.123,2.123,0,0,0,.751-.769v-2.185H58q-2.221,0-2.221,1.995a1.222,1.222,0,0,0,.391.941,1.423,1.423,0,0,0,1,.358" fill="#4d4d4d"/>
      <path id="Trazado_213864" data-name="Trazado 213864" d="M65.322,121.222a8.345,8.345,0,0,1,1.4-5.112,4.612,4.612,0,0,1,3.913-1.868,3.921,3.921,0,0,1,3.08,1.439v-6.918h4.267v19.39H74.158l-.214-1.464a4.03,4.03,0,0,1-3.333,1.717,4.6,4.6,0,0,1-3.863-1.869,8.607,8.607,0,0,1-1.426-5.315m4.254.266q0,3.636,2.121,3.636a2.094,2.094,0,0,0,2.019-1.187v-5.2a2.037,2.037,0,0,0-1.994-1.212q-1.97,0-2.133,3.181Z" fill="#4d4d4d"/>
      <path id="Trazado_213865" data-name="Trazado 213865" d="M79.864,121.2a8.067,8.067,0,0,1,.795-3.642,5.682,5.682,0,0,1,2.285-2.455,6.873,6.873,0,0,1,3.5-.859,6.277,6.277,0,0,1,4.834,1.9,7.289,7.289,0,0,1,1.768,5.169v.15a7.076,7.076,0,0,1-1.774,5.069,6.3,6.3,0,0,1-4.8,1.875,6.363,6.363,0,0,1-4.683-1.75,6.832,6.832,0,0,1-1.907-4.739Zm4.254.264a5.08,5.08,0,0,0,.593,2.778,1.977,1.977,0,0,0,1.755.884q2.272,0,2.322-3.5V121.2q0-3.673-2.347-3.673-2.135,0-2.31,3.168Z" fill="#4d4d4d"/>
      <path id="Trazado_213866" data-name="Trazado 213866" d="M11.4,609.38H4.431v4.393h8.23v3.408H0V598.8H12.687v3.422H4.431V606.1H11.4Z" fill="#4d4d4d"/>
      <path id="Trazado_213867" data-name="Trazado 213867" d="M21.422,613.343a.983.983,0,0,0-.568-.871,8.7,8.7,0,0,0-2.159-.682,9.893,9.893,0,0,1-2.626-.927,4.4,4.4,0,0,1-1.577-1.395,3.33,3.33,0,0,1-.543-1.881,3.773,3.773,0,0,1,1.553-3.1,6.388,6.388,0,0,1,4.064-1.219,7.09,7.09,0,0,1,4.343,1.224,3.831,3.831,0,0,1,1.64,3.219H21.283q0-1.641-1.73-1.64a1.717,1.717,0,0,0-1.123.373,1.15,1.15,0,0,0-.454.927,1.059,1.059,0,0,0,.555.922,5.27,5.27,0,0,0,1.774.58,15.428,15.428,0,0,1,2.139.543q3.081,1.061,3.081,3.8a3.578,3.578,0,0,1-1.661,3.043,7.274,7.274,0,0,1-4.3,1.174,7.436,7.436,0,0,1-3.13-.631,5.245,5.245,0,0,1-2.146-1.717,3.885,3.885,0,0,1-.77-2.285H17.5a1.647,1.647,0,0,0,.631,1.383,2.6,2.6,0,0,0,1.553.435,2.051,2.051,0,0,0,1.306-.353,1.133,1.133,0,0,0,.436-.922" fill="#4d4d4d"/>
      <path id="Trazado_213868" data-name="Trazado 213868" d="M32.467,600.127v3.4h2.247v2.954H32.467v6.248a1.6,1.6,0,0,0,.278,1.074,1.493,1.493,0,0,0,1.1.3,6.192,6.192,0,0,0,1.061-.077v3.043a7.832,7.832,0,0,1-2.4.366,4.456,4.456,0,0,1-3.244-1.036,4.238,4.238,0,0,1-1.048-3.142v-6.779H26.471v-2.954h1.742v-3.4Z" fill="#4d4d4d"/>
      <path id="Trazado_213869" data-name="Trazado 213869" d="M44.081,617.181a4.732,4.732,0,0,1-.4-1.224,3.958,3.958,0,0,1-3.282,1.476,4.837,4.837,0,0,1-3.282-1.168,3.712,3.712,0,0,1-1.351-2.935,3.821,3.821,0,0,1,1.641-3.358,8.364,8.364,0,0,1,4.772-1.134h1.312v-.725q0-1.89-1.628-1.889a1.33,1.33,0,0,0-1.515,1.5H36.09a3.813,3.813,0,0,1,1.685-3.214,7.078,7.078,0,0,1,4.3-1.237,6.214,6.214,0,0,1,4.128,1.276,4.432,4.432,0,0,1,1.552,3.5v6.047a6.192,6.192,0,0,0,.581,2.879v.214ZM41.417,614.4a2.358,2.358,0,0,0,1.319-.342,2.116,2.116,0,0,0,.751-.769v-2.184H42.25q-2.221,0-2.221,1.994a1.222,1.222,0,0,0,.391.942,1.423,1.423,0,0,0,1,.359" fill="#4d4d4d"/>
      <path id="Trazado_213870" data-name="Trazado 213870" d="M49.572,610.249a8.342,8.342,0,0,1,1.4-5.111,4.611,4.611,0,0,1,3.913-1.869,3.924,3.924,0,0,1,3.08,1.439V597.79h4.267v19.391H58.408l-.214-1.465a4.029,4.029,0,0,1-3.333,1.717A4.6,4.6,0,0,1,51,615.564a8.6,8.6,0,0,1-1.426-5.315m4.254.266q0,3.636,2.121,3.637a2.1,2.1,0,0,0,2.019-1.188v-5.2a2.038,2.038,0,0,0-1.994-1.211q-1.969,0-2.133,3.18Z" fill="#4d4d4d"/>
      <path id="Trazado_213871" data-name="Trazado 213871" d="M64.114,610.226a8.064,8.064,0,0,1,.795-3.642,5.682,5.682,0,0,1,2.285-2.455,6.873,6.873,0,0,1,3.5-.86,6.281,6.281,0,0,1,4.834,1.9,7.293,7.293,0,0,1,1.768,5.17v.15a7.075,7.075,0,0,1-1.774,5.068,6.3,6.3,0,0,1-4.8,1.875,6.366,6.366,0,0,1-4.683-1.748,6.839,6.839,0,0,1-1.907-4.74Zm4.254.264a5.071,5.071,0,0,0,.593,2.777,1.976,1.976,0,0,0,1.755.885q2.272,0,2.322-3.5v-.428q0-3.674-2.347-3.674-2.135,0-2.31,3.168Z" fill="#4d4d4d"/>
      <path id="Trazado_213872" data-name="Trazado 213872" d="M91.381,614.152a1.891,1.891,0,0,0,1.388-.486,1.786,1.786,0,0,0,.48-1.358h3.989a4.721,4.721,0,0,1-1.609,3.686,5.99,5.99,0,0,1-4.147,1.439,6.06,6.06,0,0,1-4.7-1.869,7.356,7.356,0,0,1-1.717-5.174v-.177a8.31,8.31,0,0,1,.764-3.655,5.543,5.543,0,0,1,2.2-2.435,6.557,6.557,0,0,1,3.408-.854,5.9,5.9,0,0,1,4.229,1.479,5.237,5.237,0,0,1,1.565,4H93.249a2.333,2.333,0,0,0-.517-1.627,1.79,1.79,0,0,0-1.389-.569q-1.655,0-1.931,2.108a14.848,14.848,0,0,0-.089,1.844,5.822,5.822,0,0,0,.493,2.851,1.7,1.7,0,0,0,1.565.8" fill="#4d4d4d"/>
      <path id="Trazado_213873" data-name="Trazado 213873" d="M99,599.988a1.911,1.911,0,0,1,.657-1.5,2.77,2.77,0,0,1,3.408,0,2.038,2.038,0,0,1,0,3,2.778,2.778,0,0,1-3.408,0,1.914,1.914,0,0,1-.657-1.5m4.519,17.193H99.257V603.523h4.267Z" fill="#4d4d4d"/>
      <path id="Trazado_213874" data-name="Trazado 213874" d="M107.084,617.181V606.476H105.1v-2.953h1.982v-1.086a4.715,4.715,0,0,1,1.376-3.623,5.429,5.429,0,0,1,3.863-1.287,8.538,8.538,0,0,1,1.994.263l.013,3.131a3.878,3.878,0,0,0-1.048-.113q-1.93,0-1.931,1.666v1.049h2.663v2.953h-2.663v10.705Z" fill="#4d4d4d"/>
      <path id="Trazado_213875" data-name="Trazado 213875" d="M123.772,607.373l-1.4-.1q-2.007,0-2.576,1.262v8.649h-4.253V603.523h3.988l.139,1.754a3.3,3.3,0,0,1,2.992-2.008,4.117,4.117,0,0,1,1.187.153Z" fill="#4d4d4d"/>
      <path id="Trazado_213876" data-name="Trazado 213876" d="M132.621,617.181a4.771,4.771,0,0,1-.4-1.224,3.957,3.957,0,0,1-3.281,1.476,4.833,4.833,0,0,1-3.282-1.168,3.713,3.713,0,0,1-1.352-2.935,3.822,3.822,0,0,1,1.642-3.358,8.36,8.36,0,0,1,4.771-1.134h1.312v-.725q0-1.89-1.628-1.889a1.33,1.33,0,0,0-1.515,1.5h-4.253a3.812,3.812,0,0,1,1.684-3.214,7.079,7.079,0,0,1,4.3-1.237,6.213,6.213,0,0,1,4.127,1.276,4.428,4.428,0,0,1,1.552,3.5v6.047a6.191,6.191,0,0,0,.582,2.879v.214Zm-2.663-2.777a2.354,2.354,0,0,0,1.318-.342,2.108,2.108,0,0,0,.751-.769v-2.184H130.79q-2.221,0-2.22,1.994a1.222,1.222,0,0,0,.39.942,1.424,1.424,0,0,0,1,.359" fill="#4d4d4d"/>
      <path id="Trazado_213877" data-name="Trazado 213877" d="M138.113,610.249a8.342,8.342,0,0,1,1.4-5.111,4.611,4.611,0,0,1,3.913-1.869,3.924,3.924,0,0,1,3.08,1.439V597.79h4.267v19.391h-3.825l-.214-1.465a4.029,4.029,0,0,1-3.333,1.717,4.6,4.6,0,0,1-3.863-1.869,8.6,8.6,0,0,1-1.426-5.315m4.254.266q0,3.636,2.121,3.637a2.1,2.1,0,0,0,2.019-1.188v-5.2a2.038,2.038,0,0,0-1.994-1.211q-1.97,0-2.133,3.18Z" fill="#4d4d4d"/>
      <path id="Trazado_213878" data-name="Trazado 213878" d="M152.655,610.226a8.064,8.064,0,0,1,.795-3.642,5.682,5.682,0,0,1,2.285-2.455,6.873,6.873,0,0,1,3.5-.86,6.281,6.281,0,0,1,4.834,1.9,7.293,7.293,0,0,1,1.768,5.17v.15a7.075,7.075,0,0,1-1.774,5.068,6.3,6.3,0,0,1-4.8,1.875,6.366,6.366,0,0,1-4.683-1.748,6.839,6.839,0,0,1-1.907-4.74Zm4.254.264a5.071,5.071,0,0,0,.593,2.777,1.976,1.976,0,0,0,1.755.885q2.272,0,2.322-3.5v-.428q0-3.674-2.347-3.674-2.134,0-2.31,3.168Z" fill="#4d4d4d"/>
      <path id="Trazado_213879" data-name="Trazado 213879" d="M725.977,121.929a6.719,6.719,0,0,1-1.035,3.39,6.245,6.245,0,0,1-2.657,2.278,9.042,9.042,0,0,1-3.907.809,7.216,7.216,0,0,1-5.706-2.362,9.747,9.747,0,0,1-2.083-6.665v-.909a11.123,11.123,0,0,1,.941-4.727,7.12,7.12,0,0,1,2.707-3.13,7.551,7.551,0,0,1,4.091-1.1,7.921,7.921,0,0,1,5.377,1.761,6.957,6.957,0,0,1,2.31,4.853H721.6a3.3,3.3,0,0,0-.846-2.411,3.482,3.482,0,0,0-2.423-.731,2.647,2.647,0,0,0-2.424,1.236,7.945,7.945,0,0,0-.808,3.951v1.3a8.8,8.8,0,0,0,.738,4.2,2.7,2.7,0,0,0,2.544,1.263,3.4,3.4,0,0,0,2.335-.72,3.056,3.056,0,0,0,.859-2.285Z" fill="#4d4d4d"/>
      <rect id="Rectángulo_41027" data-name="Rectángulo 41027" width="4.267" height="19.39" transform="translate(728.098 108.763)" fill="#4d4d4d"/>
      <path id="Trazado_213880" data-name="Trazado 213880" d="M742.678,128.152a4.732,4.732,0,0,1-.4-1.224,3.956,3.956,0,0,1-3.282,1.478,4.842,4.842,0,0,1-3.282-1.168,3.717,3.717,0,0,1-1.351-2.936A3.823,3.823,0,0,1,736,120.944a8.372,8.372,0,0,1,4.772-1.134h1.312v-.724q0-1.89-1.628-1.891a1.332,1.332,0,0,0-1.515,1.5h-4.254a3.81,3.81,0,0,1,1.685-3.214,7.078,7.078,0,0,1,4.3-1.237,6.209,6.209,0,0,1,4.128,1.276,4.431,4.431,0,0,1,1.552,3.5v6.048a6.19,6.19,0,0,0,.581,2.878v.213Zm-2.664-2.777a2.366,2.366,0,0,0,1.319-.34,2.123,2.123,0,0,0,.751-.769v-2.185h-1.237q-2.221,0-2.221,1.995a1.222,1.222,0,0,0,.391.941,1.423,1.423,0,0,0,1,.358" fill="#4d4d4d"/>
      <path id="Trazado_213881" data-name="Trazado 213881" d="M753.963,123.091l2.158-8.6H760.6l-4.456,13.659H751.8l-4.456-13.659h4.494Z" fill="#4d4d4d"/>
      <path id="Trazado_213882" data-name="Trazado 213882" d="M768.315,128.406a7.02,7.02,0,0,1-5.087-1.875,6.474,6.474,0,0,1-1.944-4.879V121.3a8.384,8.384,0,0,1,.777-3.7,5.676,5.676,0,0,1,2.266-2.48,6.835,6.835,0,0,1,3.534-.878,5.911,5.911,0,0,1,4.544,1.786,7.02,7.02,0,0,1,1.667,4.98v1.654h-8.458a3.071,3.071,0,0,0,1,1.805,2.969,2.969,0,0,0,1.995.657,3.827,3.827,0,0,0,3.156-1.414l1.944,2.3a5.439,5.439,0,0,1-2.254,1.748,7.6,7.6,0,0,1-3.137.651m-.479-10.882q-1.869,0-2.222,2.475h4.292v-.329a2.106,2.106,0,0,0-.518-1.584,2.057,2.057,0,0,0-1.552-.562" fill="#4d4d4d"/>
      <path id="Trazado_213883" data-name="Trazado 213883" d="M782.189,110.96a1.916,1.916,0,0,1,.657-1.5,2.778,2.778,0,0,1,3.408,0,2.041,2.041,0,0,1,0,3,2.778,2.778,0,0,1-3.408,0,1.916,1.916,0,0,1-.657-1.5m4.519,17.193h-4.267V114.5h4.267Z" fill="#4d4d4d"/>
      <path id="Trazado_213884" data-name="Trazado 213884" d="M793.234,114.5l.139,1.6a4.634,4.634,0,0,1,3.9-1.856,3.9,3.9,0,0,1,3.187,1.275,6.065,6.065,0,0,1,1.092,3.837v8.8h-4.267v-8.622a2.3,2.3,0,0,0-.416-1.52,1.925,1.925,0,0,0-1.515-.487,2.029,2.029,0,0,0-1.856.985v9.644h-4.254V114.5Z" fill="#4d4d4d"/>
      <path id="Trazado_213885" data-name="Trazado 213885" d="M803.876,110.96a1.916,1.916,0,0,1,.657-1.5,2.778,2.778,0,0,1,3.408,0,2.041,2.041,0,0,1,0,3,2.778,2.778,0,0,1-3.408,0,1.916,1.916,0,0,1-.657-1.5m4.52,17.193h-4.267V114.5H808.4Z" fill="#4d4d4d"/>
      <path id="Trazado_213886" data-name="Trazado 213886" d="M816.79,125.124a1.891,1.891,0,0,0,1.388-.486,1.784,1.784,0,0,0,.48-1.358h3.989a4.723,4.723,0,0,1-1.609,3.687,5.99,5.99,0,0,1-4.147,1.439,6.06,6.06,0,0,1-4.7-1.869,7.358,7.358,0,0,1-1.717-5.175v-.176a8.314,8.314,0,0,1,.764-3.656,5.553,5.553,0,0,1,2.2-2.435,6.557,6.557,0,0,1,3.408-.853,5.908,5.908,0,0,1,4.229,1.478,5.238,5.238,0,0,1,1.565,4h-3.989a2.338,2.338,0,0,0-.517-1.628,1.789,1.789,0,0,0-1.389-.569q-1.655,0-1.931,2.109a14.839,14.839,0,0,0-.089,1.843,5.827,5.827,0,0,0,.493,2.852,1.7,1.7,0,0,0,1.565.8" fill="#4d4d4d"/>
      <path id="Trazado_213887" data-name="Trazado 213887" d="M824.414,110.96a1.916,1.916,0,0,1,.657-1.5,2.778,2.778,0,0,1,3.408,0,2.041,2.041,0,0,1,0,3,2.778,2.778,0,0,1-3.408,0,1.916,1.916,0,0,1-.657-1.5m4.52,17.193h-4.267V114.5h4.267Z" fill="#4d4d4d"/>
      <path id="Trazado_213888" data-name="Trazado 213888" d="M839.247,128.152a4.73,4.73,0,0,1-.4-1.224,3.956,3.956,0,0,1-3.282,1.478,4.842,4.842,0,0,1-3.282-1.168,3.717,3.717,0,0,1-1.351-2.936,3.823,3.823,0,0,1,1.641-3.358,8.372,8.372,0,0,1,4.772-1.134h1.312v-.724q0-1.89-1.628-1.891a1.332,1.332,0,0,0-1.515,1.5h-4.254a3.81,3.81,0,0,1,1.685-3.214,7.078,7.078,0,0,1,4.3-1.237,6.208,6.208,0,0,1,4.128,1.276,4.431,4.431,0,0,1,1.552,3.5v6.048a6.191,6.191,0,0,0,.581,2.878v.213Zm-2.664-2.777a2.366,2.366,0,0,0,1.319-.34,2.123,2.123,0,0,0,.751-.769v-2.185h-1.237q-2.222,0-2.221,1.995a1.222,1.222,0,0,0,.391.941,1.423,1.423,0,0,0,1,.358" fill="#4d4d4d"/>
      <rect id="Rectángulo_41028" data-name="Rectángulo 41028" width="4.267" height="19.39" transform="translate(845.495 108.763)" fill="#4d4d4d"/>
      <path id="Trazado_213889" data-name="Trazado 213889" d="M697.884,322.345a1.823,1.823,0,0,0-.688-1.515,8.56,8.56,0,0,0-2.417-1.123,22.814,22.814,0,0,1-2.828-1.124q-3.571-1.754-3.572-4.821a4.324,4.324,0,0,1,.89-2.7,5.754,5.754,0,0,1,2.518-1.819,9.827,9.827,0,0,1,3.661-.649,8.56,8.56,0,0,1,3.553.707,5.625,5.625,0,0,1,2.443,2.013,5.254,5.254,0,0,1,.871,2.985H697.9a2.223,2.223,0,0,0-.688-1.741,2.679,2.679,0,0,0-1.862-.619,3.022,3.022,0,0,0-1.875.524,1.541,1.541,0,0,0,.07,2.612,9.477,9.477,0,0,0,2.663,1.187,16.47,16.47,0,0,1,3.131,1.319,5.262,5.262,0,0,1,2.979,4.735,4.489,4.489,0,0,1-1.818,3.787,8.088,8.088,0,0,1-4.986,1.376,9.9,9.9,0,0,1-4.046-.8,6.106,6.106,0,0,1-2.727-2.2,5.727,5.727,0,0,1-.915-3.213h4.444a2.819,2.819,0,0,0,.763,2.177,3.611,3.611,0,0,0,2.481.7,2.857,2.857,0,0,0,1.736-.474,1.561,1.561,0,0,0,.637-1.332" fill="#4d4d4d"/>
      <path id="Trazado_213890" data-name="Trazado 213890" d="M712.527,325.755a4.388,4.388,0,0,1-3.648,1.729,4.3,4.3,0,0,1-3.4-1.306,5.5,5.5,0,0,1-1.155-3.756v-8.849h4.254v8.874a1.529,1.529,0,0,0,1.7,1.755,2.223,2.223,0,0,0,2.083-1.048v-9.581h4.279v13.659h-3.989Z" fill="#4d4d4d"/>
      <path id="Trazado_213891" data-name="Trazado 213891" d="M731.652,320.515a8.324,8.324,0,0,1-1.389,5.164,4.649,4.649,0,0,1-3.913,1.805,4.037,4.037,0,0,1-3.358-1.654l-.177,1.4H719V307.842h4.254v6.829a3.893,3.893,0,0,1,3.067-1.351,4.655,4.655,0,0,1,3.939,1.83,8.37,8.37,0,0,1,1.389,5.151Zm-4.267-.271a5.558,5.558,0,0,0-.524-2.8,1.767,1.767,0,0,0-1.609-.838,2.037,2.037,0,0,0-1.995,1.1v5.419a2.048,2.048,0,0,0,2.02,1.084,1.807,1.807,0,0,0,1.906-1.462,10.477,10.477,0,0,0,.2-2.5" fill="#4d4d4d"/>
      <path id="Trazado_213892" data-name="Trazado 213892" d="M739.3,324.2a1.891,1.891,0,0,0,1.388-.486,1.784,1.784,0,0,0,.48-1.358h3.989a4.723,4.723,0,0,1-1.609,3.687,5.99,5.99,0,0,1-4.147,1.439,6.06,6.06,0,0,1-4.7-1.869,7.358,7.358,0,0,1-1.717-5.175v-.176a8.314,8.314,0,0,1,.764-3.656,5.554,5.554,0,0,1,2.2-2.435,6.557,6.557,0,0,1,3.408-.853,5.908,5.908,0,0,1,4.229,1.478,5.238,5.238,0,0,1,1.565,4h-3.989a2.338,2.338,0,0,0-.517-1.628,1.789,1.789,0,0,0-1.389-.569q-1.655,0-1.931,2.109a14.839,14.839,0,0,0-.089,1.843,5.826,5.826,0,0,0,.493,2.852,1.7,1.7,0,0,0,1.565.8" fill="#4d4d4d"/>
      <rect id="Rectángulo_41029" data-name="Rectángulo 41029" width="4.267" height="19.39" transform="translate(747.178 307.841)" fill="#4d4d4d"/>
      <path id="Trazado_213893" data-name="Trazado 213893" d="M761.759,327.231a4.732,4.732,0,0,1-.4-1.224,3.958,3.958,0,0,1-3.282,1.477,4.842,4.842,0,0,1-3.282-1.168,3.715,3.715,0,0,1-1.351-2.935,3.821,3.821,0,0,1,1.641-3.358,8.363,8.363,0,0,1,4.772-1.135h1.312v-.724q0-1.89-1.628-1.89a1.331,1.331,0,0,0-1.515,1.5h-4.254a3.811,3.811,0,0,1,1.685-3.214,7.078,7.078,0,0,1,4.3-1.237,6.208,6.208,0,0,1,4.128,1.276,4.432,4.432,0,0,1,1.552,3.5v6.047a6.187,6.187,0,0,0,.581,2.878v.214Zm-2.664-2.777a2.366,2.366,0,0,0,1.319-.341,2.123,2.123,0,0,0,.751-.769v-2.185h-1.237q-2.221,0-2.221,1.995a1.22,1.22,0,0,0,.391.941,1.419,1.419,0,0,0,1,.359" fill="#4d4d4d"/>
      <path id="Trazado_213894" data-name="Trazado 213894" d="M773.044,322.169l2.158-8.6h4.482l-4.456,13.659h-4.343l-4.456-13.659h4.494Z" fill="#4d4d4d"/>
      <path id="Trazado_213895" data-name="Trazado 213895" d="M787.4,327.484a7.02,7.02,0,0,1-5.087-1.875,6.474,6.474,0,0,1-1.944-4.879v-.354a8.383,8.383,0,0,1,.777-3.7,5.676,5.676,0,0,1,2.266-2.48,6.836,6.836,0,0,1,3.534-.878,5.911,5.911,0,0,1,4.544,1.786,7.02,7.02,0,0,1,1.667,4.98v1.654H784.7a3.071,3.071,0,0,0,1,1.805,2.969,2.969,0,0,0,1.995.657,3.827,3.827,0,0,0,3.156-1.414l1.944,2.3a5.44,5.44,0,0,1-2.254,1.748,7.6,7.6,0,0,1-3.137.651m-.479-10.882q-1.869,0-2.222,2.475h4.292v-.329a2.106,2.106,0,0,0-.518-1.584,2.057,2.057,0,0,0-1.552-.562" fill="#4d4d4d"/>
      <path id="Trazado_213896" data-name="Trazado 213896" d="M802.015,323.393a.984.984,0,0,0-.568-.871,8.7,8.7,0,0,0-2.159-.682,9.825,9.825,0,0,1-2.626-.927,4.4,4.4,0,0,1-1.577-1.395,3.33,3.33,0,0,1-.543-1.881,3.77,3.77,0,0,1,1.553-3.1,6.388,6.388,0,0,1,4.064-1.219,7.09,7.09,0,0,1,4.343,1.224,3.83,3.83,0,0,1,1.64,3.219h-4.266q0-1.641-1.73-1.641a1.717,1.717,0,0,0-1.123.373,1.151,1.151,0,0,0-.454.927,1.058,1.058,0,0,0,.555.922,5.225,5.225,0,0,0,1.774.58,15.571,15.571,0,0,1,2.139.543q3.081,1.061,3.081,3.8a3.575,3.575,0,0,1-1.661,3.042,7.274,7.274,0,0,1-4.3,1.175,7.421,7.421,0,0,1-3.13-.632,5.228,5.228,0,0,1-2.146-1.717,3.88,3.88,0,0,1-.77-2.284h3.976a1.644,1.644,0,0,0,.631,1.382,2.6,2.6,0,0,0,1.553.435,2.045,2.045,0,0,0,1.306-.353,1.132,1.132,0,0,0,.436-.922" fill="#4d4d4d"/>
      <path id="Trazado_213897" data-name="Trazado 213897" d="M827.3,327.231H814.474v-2.777l5.908-6.211q2.184-2.487,2.183-3.951a2.749,2.749,0,0,0-.517-1.8,1.849,1.849,0,0,0-1.5-.618,1.874,1.874,0,0,0-1.579.826,3.406,3.406,0,0,0-.6,2.064h-4.267a6.039,6.039,0,0,1,.846-3.125,5.938,5.938,0,0,1,2.348-2.24,6.978,6.978,0,0,1,3.358-.808,6.863,6.863,0,0,1,4.588,1.376,4.914,4.914,0,0,1,1.61,3.952,5.744,5.744,0,0,1-.4,2.114,9.309,9.309,0,0,1-1.256,2.158,31.671,31.671,0,0,1-2.746,3.024l-2.373,2.739H827.3Z" fill="#4d4d4d"/>
      <path id="Trazado_213898" data-name="Trazado 213898" d="M832.146,323.1a2.422,2.422,0,0,1,1.679.6,2.092,2.092,0,0,1,0,3.067,2.647,2.647,0,0,1-3.364-.006,2.091,2.091,0,0,1,0-3.055,2.4,2.4,0,0,1,1.685-.606" fill="#4d4d4d"/>
      <path id="Trazado_213899" data-name="Trazado 213899" d="M839.96,323.1a2.421,2.421,0,0,1,1.679.6,2.092,2.092,0,0,1,0,3.067,2.647,2.647,0,0,1-3.364-.006,2.091,2.091,0,0,1,0-3.055,2.4,2.4,0,0,1,1.685-.606" fill="#4d4d4d"/>
      <path id="Trazado_213900" data-name="Trazado 213900" d="M854.5,327.231h-4.267V313.648l-4.191,1.225v-3.232l8.066-2.79h.392Z" fill="#4d4d4d"/>
      <path id="Trazado_213901" data-name="Trazado 213901" d="M872.806,319.72a8.781,8.781,0,0,1-1.672,5.744,6.536,6.536,0,0,1-9.462-.013,8.758,8.758,0,0,1-1.679-5.731v-3.358a8.777,8.777,0,0,1,1.673-5.743,6.535,6.535,0,0,1,9.461.013,8.783,8.783,0,0,1,1.679,5.743Zm-4.254-3.9a6.558,6.558,0,0,0-.518-2.961,1.731,1.731,0,0,0-1.641-.977,1.689,1.689,0,0,0-1.6.908,6.177,6.177,0,0,0-.536,2.752v4.7a6.593,6.593,0,0,0,.518,3.011,1.737,1.737,0,0,0,1.641.953,1.715,1.715,0,0,0,1.6-.928,6.329,6.329,0,0,0,.53-2.91Z" fill="#4d4d4d"/>
      <path id="Trazado_213902" data-name="Trazado 213902" d="M682.082,621.242a1.825,1.825,0,0,0-.688-1.516,8.559,8.559,0,0,0-2.417-1.123,23,23,0,0,1-2.828-1.123q-3.571-1.755-3.572-4.822a4.328,4.328,0,0,1,.89-2.7,5.761,5.761,0,0,1,2.518-1.819,9.848,9.848,0,0,1,3.661-.648,8.544,8.544,0,0,1,3.553.707,5.623,5.623,0,0,1,2.443,2.012,5.258,5.258,0,0,1,.871,2.986h-4.418a2.225,2.225,0,0,0-.688-1.742,2.684,2.684,0,0,0-1.862-.619,3.022,3.022,0,0,0-1.875.525,1.541,1.541,0,0,0,.07,2.611,9.473,9.473,0,0,0,2.663,1.188,16.412,16.412,0,0,1,3.131,1.318,5.262,5.262,0,0,1,2.979,4.735A4.489,4.489,0,0,1,684.7,625a8.081,8.081,0,0,1-4.986,1.377,9.884,9.884,0,0,1-4.046-.8,6.1,6.1,0,0,1-2.727-2.2,5.732,5.732,0,0,1-.915-3.213h4.444a2.82,2.82,0,0,0,.763,2.177,3.61,3.61,0,0,0,2.481.7,2.863,2.863,0,0,0,1.736-.473,1.563,1.563,0,0,0,.637-1.332" fill="#4d4d4d"/>
      <path id="Trazado_213903" data-name="Trazado 213903" d="M696.725,624.65a4.389,4.389,0,0,1-3.648,1.73,4.3,4.3,0,0,1-3.4-1.306,5.5,5.5,0,0,1-1.155-3.756v-8.85h4.254v8.875a1.528,1.528,0,0,0,1.7,1.754,2.225,2.225,0,0,0,2.083-1.047v-9.582h4.279v13.659h-3.989Z" fill="#4d4d4d"/>
      <path id="Trazado_213904" data-name="Trazado 213904" d="M715.85,619.411a8.322,8.322,0,0,1-1.389,5.163,4.647,4.647,0,0,1-3.913,1.806,4.04,4.04,0,0,1-3.358-1.654l-.177,1.4H703.2V606.738h4.254v6.828a3.892,3.892,0,0,1,3.067-1.35,4.653,4.653,0,0,1,3.939,1.83,8.37,8.37,0,0,1,1.389,5.151Zm-4.267-.271a5.559,5.559,0,0,0-.524-2.8,1.767,1.767,0,0,0-1.609-.838,2.036,2.036,0,0,0-1.995,1.1v5.418a2.048,2.048,0,0,0,2.02,1.084,1.806,1.806,0,0,0,1.906-1.461,10.483,10.483,0,0,0,.2-2.5" fill="#4d4d4d"/>
      <path id="Trazado_213905" data-name="Trazado 213905" d="M723.5,623.1a1.889,1.889,0,0,0,1.387-.486,1.783,1.783,0,0,0,.48-1.358h3.99a4.726,4.726,0,0,1-1.61,3.688,5.988,5.988,0,0,1-4.147,1.439,6.061,6.061,0,0,1-4.7-1.869,7.36,7.36,0,0,1-1.716-5.176v-.176a8.317,8.317,0,0,1,.763-3.656,5.57,5.57,0,0,1,2.2-2.435,6.56,6.56,0,0,1,3.409-.852,5.915,5.915,0,0,1,4.229,1.477,5.242,5.242,0,0,1,1.565,4h-3.99a2.342,2.342,0,0,0-.517-1.629,1.788,1.788,0,0,0-1.389-.569q-1.655,0-1.931,2.11a14.807,14.807,0,0,0-.089,1.842,5.817,5.817,0,0,0,.494,2.853,1.7,1.7,0,0,0,1.565.795" fill="#4d4d4d"/>
      <rect id="Rectángulo_41030" data-name="Rectángulo 41030" width="4.267" height="19.389" transform="translate(731.377 606.738)" fill="#4d4d4d"/>
      <path id="Trazado_213906" data-name="Trazado 213906" d="M745.957,626.126a4.732,4.732,0,0,1-.4-1.224,3.959,3.959,0,0,1-3.282,1.478,4.847,4.847,0,0,1-3.282-1.168,3.718,3.718,0,0,1-1.351-2.935,3.821,3.821,0,0,1,1.641-3.358,8.363,8.363,0,0,1,4.772-1.136h1.312v-.723q0-1.89-1.628-1.891a1.332,1.332,0,0,0-1.515,1.5h-4.254a3.81,3.81,0,0,1,1.685-3.214,7.078,7.078,0,0,1,4.3-1.237,6.2,6.2,0,0,1,4.128,1.276,4.432,4.432,0,0,1,1.552,3.5v6.047a6.183,6.183,0,0,0,.581,2.877v.214Zm-2.664-2.777a2.374,2.374,0,0,0,1.319-.34,2.13,2.13,0,0,0,.751-.769v-2.186h-1.237q-2.221,0-2.221,2a1.218,1.218,0,0,0,.391.94,1.414,1.414,0,0,0,1,.359" fill="#4d4d4d"/>
      <path id="Trazado_213907" data-name="Trazado 213907" d="M757.242,621.066l2.158-8.6h4.482l-4.456,13.659h-4.343l-4.456-13.659h4.494Z" fill="#4d4d4d"/>
      <path id="Trazado_213908" data-name="Trazado 213908" d="M771.594,626.381a7.02,7.02,0,0,1-5.087-1.875,6.475,6.475,0,0,1-1.944-4.879v-.354a8.387,8.387,0,0,1,.777-3.7,5.686,5.686,0,0,1,2.266-2.48,6.845,6.845,0,0,1,3.534-.877A5.913,5.913,0,0,1,775.684,614a7.02,7.02,0,0,1,1.667,4.98v1.655h-8.458a3.068,3.068,0,0,0,1,1.8,2.968,2.968,0,0,0,1.995.657,3.824,3.824,0,0,0,3.156-1.414l1.944,2.3a5.447,5.447,0,0,1-2.254,1.748,7.6,7.6,0,0,1-3.137.651m-.479-10.883q-1.869,0-2.222,2.475h4.292v-.329a2.107,2.107,0,0,0-.518-1.584,2.057,2.057,0,0,0-1.552-.562" fill="#4d4d4d"/>
      <path id="Trazado_213909" data-name="Trazado 213909" d="M786.213,622.289a.985.985,0,0,0-.568-.871,8.7,8.7,0,0,0-2.159-.682,9.758,9.758,0,0,1-2.626-.927,4.4,4.4,0,0,1-1.577-1.4,3.33,3.33,0,0,1-.543-1.881,3.77,3.77,0,0,1,1.553-3.1,6.393,6.393,0,0,1,4.064-1.218,7.09,7.09,0,0,1,4.343,1.224,3.829,3.829,0,0,1,1.64,3.219h-4.266q0-1.641-1.73-1.641a1.716,1.716,0,0,0-1.123.372,1.152,1.152,0,0,0-.454.927,1.057,1.057,0,0,0,.555.922,5.181,5.181,0,0,0,1.774.58,15.728,15.728,0,0,1,2.139.543q3.081,1.061,3.081,3.8a3.573,3.573,0,0,1-1.661,3.041,7.275,7.275,0,0,1-4.3,1.176,7.406,7.406,0,0,1-3.13-.633,5.213,5.213,0,0,1-2.146-1.717,3.875,3.875,0,0,1-.77-2.283h3.976a1.64,1.64,0,0,0,.631,1.381,2.591,2.591,0,0,0,1.553.435,2.039,2.039,0,0,0,1.306-.353,1.132,1.132,0,0,0,.436-.922" fill="#4d4d4d"/>
      <path id="Trazado_213910" data-name="Trazado 213910" d="M799.682,626.127V615.422H797.7v-2.953h1.982v-1.086a4.718,4.718,0,0,1,1.376-3.623,5.438,5.438,0,0,1,3.863-1.287,8.441,8.441,0,0,1,1.994.265l.013,3.131a3.88,3.88,0,0,0-1.048-.113q-1.93,0-1.931,1.666v1.047h2.663v2.953h-2.663v10.705Z" fill="#4d4d4d"/>
      <path id="Trazado_213911" data-name="Trazado 213911" d="M808.076,608.933a1.916,1.916,0,0,1,.657-1.5,2.778,2.778,0,0,1,3.408,0,2.041,2.041,0,0,1,0,3,2.778,2.778,0,0,1-3.408,0,1.916,1.916,0,0,1-.657-1.5m4.52,17.194h-4.267V612.469H812.6Z" fill="#4d4d4d"/>
      <path id="Trazado_213912" data-name="Trazado 213912" d="M819.122,612.468l.139,1.6a4.634,4.634,0,0,1,3.9-1.856,3.894,3.894,0,0,1,3.187,1.275,6.064,6.064,0,0,1,1.092,3.836v8.8h-4.267v-8.621a2.3,2.3,0,0,0-.416-1.521,1.925,1.925,0,0,0-1.515-.487,2.029,2.029,0,0,0-1.856.985v9.644h-4.254V612.468Z" fill="#4d4d4d"/>
      <path id="Trazado_213913" data-name="Trazado 213913" d="M837.489,626.126a4.73,4.73,0,0,1-.4-1.224,3.959,3.959,0,0,1-3.282,1.478,4.847,4.847,0,0,1-3.282-1.168,3.718,3.718,0,0,1-1.351-2.935,3.821,3.821,0,0,1,1.641-3.358,8.363,8.363,0,0,1,4.772-1.136H836.9v-.723q0-1.89-1.628-1.891a1.332,1.332,0,0,0-1.515,1.5H829.5a3.81,3.81,0,0,1,1.685-3.214,7.078,7.078,0,0,1,4.3-1.237,6.2,6.2,0,0,1,4.128,1.276,4.431,4.431,0,0,1,1.552,3.5v6.047a6.184,6.184,0,0,0,.581,2.877v.214Zm-2.664-2.777a2.374,2.374,0,0,0,1.319-.34,2.13,2.13,0,0,0,.751-.769v-2.186h-1.237q-2.222,0-2.221,2a1.218,1.218,0,0,0,.391.94,1.414,1.414,0,0,0,1,.359" fill="#4d4d4d"/>
      <rect id="Rectángulo_41031" data-name="Rectángulo 41031" width="4.267" height="19.389" transform="translate(843.737 606.738)" fill="#4d4d4d"/>
      <path id="Trazado_213914" data-name="Trazado 213914" d="M811.67,277.477h-2a1,1,0,0,1,0-2h2a1,1,0,0,1,0,2m-7,0h-2a1,1,0,0,1,0-2h2a1,1,0,0,1,0,2m-7,0h-2a1,1,0,0,1,0-2h2a1,1,0,0,1,0,2m-7,0h-2a1,1,0,0,1,0-2h2a1,1,0,0,1,0,2" fill="#4d4d4d"/>
      <path id="Trazado_213915" data-name="Trazado 213915" d="M550.667,107.167V13.313L527.489,1H272.511V94.855l23.179,12.312Z" fill="#d5fffc"/>
      <path id="Trazado_213916" data-name="Trazado 213916" d="M551.667,108.167H295.44l-23.93-12.71V0H527.738l23.929,12.712Zm-255.728-2H549.667V13.915L527.24,2H273.51V94.254Z" fill="#5bb8b2"/>
      <path id="Trazado_213917" data-name="Trazado 213917" d="M574.494,362.823V188.553l-20.149-17.165H264.266V345.659l20.15,17.164Z" fill="#e7defc"/>
      <path id="Trazado_213918" data-name="Trazado 213918" d="M575.494,363.824H284.048l-20.782-17.7V170.388H554.713l20.781,17.7Zm-290.71-2h288.71V189.015l-19.517-16.627H265.266V345.2Z" fill="#5c379b"/>
      <path id="Trazado_213919" data-name="Trazado 213919" d="M344.5,210.964h-2.162v5.86h-3.993V200.258h6.519a7.281,7.281,0,0,1,4.608,1.308,4.428,4.428,0,0,1,1.661,3.693,5.371,5.371,0,0,1-.7,2.864,4.965,4.965,0,0,1-2.19,1.841l3.459,6.689v.171h-4.278Zm-2.162-3.071h2.526a2.268,2.268,0,0,0,1.712-.6,2.724,2.724,0,0,0-.006-3.353,2.242,2.242,0,0,0-1.706-.61h-2.526Z"/>
      <path id="Trazado_213920" data-name="Trazado 213920" d="M352.889,210.556a7.272,7.272,0,0,1,.717-3.284,5.12,5.12,0,0,1,2.059-2.211,6.188,6.188,0,0,1,3.151-.775A5.659,5.659,0,0,1,363.174,206a6.57,6.57,0,0,1,1.592,4.659v.135a6.375,6.375,0,0,1-1.6,4.569,5.68,5.68,0,0,1-4.329,1.69,5.739,5.739,0,0,1-4.221-1.577A6.161,6.161,0,0,1,352.9,211.2Zm3.834.237a4.577,4.577,0,0,0,.535,2.5,1.78,1.78,0,0,0,1.581.8q2.048,0,2.093-3.153v-.385q0-3.311-2.116-3.311-1.922,0-2.082,2.855Z"/>
      <path id="Trazado_213921" data-name="Trazado 213921" d="M369.977,204.514l.125,1.444a4.175,4.175,0,0,1,3.516-1.672,3.515,3.515,0,0,1,2.873,1.149,5.475,5.475,0,0,1,.984,3.459v7.93h-3.846v-7.771a2.079,2.079,0,0,0-.375-1.371,1.738,1.738,0,0,0-1.365-.438,1.828,1.828,0,0,0-1.673.887v8.693h-3.834v-12.31Z"/>
      <path id="Trazado_213922" data-name="Trazado 213922" d="M379.113,210.578a7.519,7.519,0,0,1,1.263-4.608,4.154,4.154,0,0,1,3.527-1.683,3.529,3.529,0,0,1,2.775,1.3v-6.236h3.846v17.476h-3.447l-.193-1.32a3.632,3.632,0,0,1-3,1.547,4.149,4.149,0,0,1-3.481-1.683,7.755,7.755,0,0,1-1.286-4.79m3.834.239q0,3.277,1.911,3.276a1.885,1.885,0,0,0,1.82-1.069v-4.687a1.834,1.834,0,0,0-1.8-1.092q-1.775,0-1.923,2.866Z"/>
      <path id="Trazado_213923" data-name="Trazado 213923" d="M399.636,216.824a4.34,4.34,0,0,1-.363-1.1,3.565,3.565,0,0,1-2.958,1.331A4.363,4.363,0,0,1,393.357,216a3.348,3.348,0,0,1-1.218-2.645,3.441,3.441,0,0,1,1.479-3.026,7.533,7.533,0,0,1,4.3-1.025H399.1v-.651q0-1.7-1.468-1.7a1.2,1.2,0,0,0-1.365,1.349h-3.834a3.435,3.435,0,0,1,1.519-2.9,6.383,6.383,0,0,1,3.874-1.113,5.6,5.6,0,0,1,3.72,1.148,4,4,0,0,1,1.4,3.152v5.45a5.59,5.59,0,0,0,.524,2.594v.193Zm-2.4-2.5a2.138,2.138,0,0,0,1.189-.308,1.926,1.926,0,0,0,.677-.693v-1.969h-1.115q-2,0-2,1.8a1.1,1.1,0,0,0,.352.848,1.277,1.277,0,0,0,.9.324"/>
      <path id="Trazado_213924" data-name="Trazado 213924" d="M416.828,217.052a6.327,6.327,0,0,1-4.585-1.69,5.831,5.831,0,0,1-1.753-4.4v-.319a7.574,7.574,0,0,1,.7-3.334,5.122,5.122,0,0,1,2.042-2.235,6.167,6.167,0,0,1,3.186-.79,5.331,5.331,0,0,1,4.1,1.609,6.33,6.33,0,0,1,1.5,4.489v1.49h-7.623a2.766,2.766,0,0,0,.9,1.627,2.678,2.678,0,0,0,1.8.592,3.446,3.446,0,0,0,2.845-1.275l1.752,2.071a4.909,4.909,0,0,1-2.031,1.576,6.874,6.874,0,0,1-2.827.586m-.433-9.807q-1.684,0-2,2.229h3.868v-.295a1.9,1.9,0,0,0-.467-1.428,1.853,1.853,0,0,0-1.4-.506"/>
      <path id="Trazado_213925" data-name="Trazado 213925" d="M430,213.365a.888.888,0,0,0-.512-.785,7.838,7.838,0,0,0-1.946-.614,8.855,8.855,0,0,1-2.366-.836,3.96,3.96,0,0,1-1.422-1.257,3,3,0,0,1-.489-1.7,3.4,3.4,0,0,1,1.4-2.793,5.758,5.758,0,0,1,3.663-1.1,6.386,6.386,0,0,1,3.914,1.1,3.452,3.452,0,0,1,1.479,2.9h-3.845q0-1.479-1.559-1.479a1.552,1.552,0,0,0-1.013.336,1.038,1.038,0,0,0-.409.836.953.953,0,0,0,.5.83,4.715,4.715,0,0,0,1.6.524,13.656,13.656,0,0,1,1.928.489q2.776.957,2.776,3.425a3.224,3.224,0,0,1-1.5,2.742,6.561,6.561,0,0,1-3.874,1.058,6.683,6.683,0,0,1-2.821-.57,4.7,4.7,0,0,1-1.934-1.547,3.5,3.5,0,0,1-.694-2.059h3.583a1.487,1.487,0,0,0,.569,1.246,2.341,2.341,0,0,0,1.4.392,1.841,1.841,0,0,0,1.177-.318,1.019,1.019,0,0,0,.393-.831"/>
      <path id="Trazado_213926" data-name="Trazado 213926" d="M439.957,201.454v3.061h2.025v2.662h-2.025v5.631a1.438,1.438,0,0,0,.25.967,1.343,1.343,0,0,0,.99.273,5.566,5.566,0,0,0,.956-.069v2.743a7.106,7.106,0,0,1-2.162.33,4.017,4.017,0,0,1-2.924-.933,3.822,3.822,0,0,1-.944-2.833v-6.109h-1.57v-2.662h1.57v-3.061Z"/>
      <path id="Trazado_213927" data-name="Trazado 213927" d="M450.423,216.824a4.339,4.339,0,0,1-.363-1.1,3.565,3.565,0,0,1-2.958,1.331A4.363,4.363,0,0,1,444.144,216a3.348,3.348,0,0,1-1.218-2.645,3.441,3.441,0,0,1,1.479-3.026,7.533,7.533,0,0,1,4.3-1.025h1.183v-.651q0-1.7-1.468-1.7a1.2,1.2,0,0,0-1.365,1.349h-3.834a3.435,3.435,0,0,1,1.519-2.9,6.383,6.383,0,0,1,3.874-1.113,5.6,5.6,0,0,1,3.72,1.148,4,4,0,0,1,1.4,3.152v5.45a5.59,5.59,0,0,0,.524,2.594v.193Zm-1.444-17.476h4.05l-3.163,3.574-3.129-.006Zm-.956,14.973a2.138,2.138,0,0,0,1.189-.308,1.926,1.926,0,0,0,.677-.693v-1.969h-1.115q-2,0-2,1.8a1.1,1.1,0,0,0,.352.848,1.277,1.277,0,0,0,.9.324"/>
      <path id="Trazado_213928" data-name="Trazado 213928" d="M459.377,204.514l.125,1.444a4.175,4.175,0,0,1,3.516-1.672,3.515,3.515,0,0,1,2.873,1.149,5.475,5.475,0,0,1,.984,3.459v7.93h-3.846v-7.771a2.079,2.079,0,0,0-.375-1.371,1.738,1.738,0,0,0-1.365-.438,1.828,1.828,0,0,0-1.673.887v8.693h-3.834v-12.31Z"/>
      <path id="Trazado_213929" data-name="Trazado 213929" d="M468.514,210.578a7.519,7.519,0,0,1,1.263-4.608,4.154,4.154,0,0,1,3.527-1.683,3.529,3.529,0,0,1,2.775,1.3v-6.236h3.846v17.476h-3.447l-.193-1.32a3.632,3.632,0,0,1-3,1.547,4.149,4.149,0,0,1-3.481-1.683,7.755,7.755,0,0,1-1.286-4.79m3.834.239q0,3.277,1.911,3.276a1.885,1.885,0,0,0,1.82-1.069v-4.687a1.834,1.834,0,0,0-1.8-1.092q-1.775,0-1.923,2.866Z"/>
      <path id="Trazado_213930" data-name="Trazado 213930" d="M489.037,216.824a4.34,4.34,0,0,1-.363-1.1,3.565,3.565,0,0,1-2.958,1.331A4.363,4.363,0,0,1,482.758,216a3.348,3.348,0,0,1-1.218-2.645,3.441,3.441,0,0,1,1.479-3.026,7.533,7.533,0,0,1,4.3-1.025H488.5v-.651q0-1.7-1.468-1.7a1.2,1.2,0,0,0-1.365,1.349h-3.834a3.435,3.435,0,0,1,1.519-2.9,6.383,6.383,0,0,1,3.874-1.113,5.6,5.6,0,0,1,3.72,1.148,4,4,0,0,1,1.4,3.152v5.45a5.59,5.59,0,0,0,.524,2.594v.193Zm-2.4-2.5a2.138,2.138,0,0,0,1.189-.308,1.926,1.926,0,0,0,.677-.693v-1.969h-1.115q-2,0-2,1.8a1.1,1.1,0,0,0,.352.848,1.277,1.277,0,0,0,.9.324"/>
      <path id="Trazado_213931" data-name="Trazado 213931" d="M501.917,207.984l-1.263-.091a2.268,2.268,0,0,0-2.322,1.138v7.793H494.5v-12.31h3.6l.125,1.581a2.969,2.969,0,0,1,2.7-1.808,3.776,3.776,0,0,1,1.069.135Z"/>
      <path id="Trazado_213932" data-name="Trazado 213932" d="M382.645,240.977a2.343,2.343,0,0,0-.381-2.066,6.342,6.342,0,0,0-2.588-1.477,7.568,7.568,0,0,1-3.408-1.985,3.862,3.862,0,0,1-.574-3.408,4.547,4.547,0,0,1,1.9-3.02,6.4,6.4,0,0,1,3.7-1.041,5.087,5.087,0,0,1,3.782,1.359,3.8,3.8,0,0,1,.837,3.715l-.023.057h-2.116a2.772,2.772,0,0,0-.467-2.447,2.916,2.916,0,0,0-2.366-.921,3.235,3.235,0,0,0-2,.654,2.632,2.632,0,0,0-1.063,1.622,2.386,2.386,0,0,0,.295,2.081,6.975,6.975,0,0,0,2.64,1.468,8.165,8.165,0,0,1,3.441,2.043,3.79,3.79,0,0,1,.575,3.35,4.486,4.486,0,0,1-1.957,3.066,6.944,6.944,0,0,1-3.834,1,6.624,6.624,0,0,1-4.09-1.234q-1.644-1.236-1.064-3.818l.023-.068h2.1q-.386,1.87.655,2.613a4.589,4.589,0,0,0,2.724.743,3.628,3.628,0,0,0,2.094-.647,2.6,2.6,0,0,0,1.149-1.635"/>
      <path id="Trazado_213933" data-name="Trazado 213933" d="M393.806,244.784,394,243.1a5.1,5.1,0,0,1-1.655,1.434,4.286,4.286,0,0,1-2.031.489,2.894,2.894,0,0,1-2.611-1.308,5.439,5.439,0,0,1-.313-3.983l1.445-7.258h2.2l-1.456,7.282a4.741,4.741,0,0,0-.046,2.769,1.575,1.575,0,0,0,1.513.678,3.47,3.47,0,0,0,1.838-.5,4.315,4.315,0,0,0,1.394-1.388l1.763-8.84h2.2l-2.458,12.31Z"/>
      <path id="Trazado_213934" data-name="Trazado 213934" d="M409.835,239.323a8.565,8.565,0,0,1-1.922,4.267,4.577,4.577,0,0,1-3.481,1.433,3.1,3.1,0,0,1-1.775-.546,3.851,3.851,0,0,1-1.286-1.491l-.581,1.8h-1.9l3.549-17.748h2.2l-1.308,6.553a4.634,4.634,0,0,1,1.456-1,4.384,4.384,0,0,1,1.752-.347,3.123,3.123,0,0,1,2.953,1.968,7.615,7.615,0,0,1,.392,4.869Zm-2.15-.239a6.751,6.751,0,0,0-.074-3.623,1.969,1.969,0,0,0-2.008-1.394,2.484,2.484,0,0,0-1.519.523,5.065,5.065,0,0,0-1.245,1.4l-1.081,5.439a2.7,2.7,0,0,0,.887,1.291,2.479,2.479,0,0,0,1.582.484,2.723,2.723,0,0,0,2.2-1.03,6.367,6.367,0,0,0,1.218-2.85Z"/>
      <path id="Trazado_213935" data-name="Trazado 213935" d="M411.758,244.783l3.311-16.565h5.1a4.909,4.909,0,0,1,3.481,1.139,3.377,3.377,0,0,1,.774,3.346,4,4,0,0,1-1.047,2.016,4.961,4.961,0,0,1-1.979,1.252,2.683,2.683,0,0,1,1.894,1.473,4.08,4.08,0,0,1,.256,2.666,5.478,5.478,0,0,1-2.059,3.547,6.666,6.666,0,0,1-3.983,1.126Zm3.743-7.758-1.194,6h3.549a3.466,3.466,0,0,0,3.493-2.89,3.385,3.385,0,0,0-.165-2.323,1.915,1.915,0,0,0-1.8-.782Zm.353-1.764h3.356a3,3,0,0,0,1.906-.7,3.111,3.111,0,0,0,1.12-1.9,2.191,2.191,0,0,0-.335-2.048,2.872,2.872,0,0,0-2.088-.626h-2.9Z"/>
      <path id="Trazado_213936" data-name="Trazado 213936" d="M429.837,240.221l.057,1.4.068.012,4.574-9.158h2.446l-7.623,14.2a8.867,8.867,0,0,1-1.707,2.161,3.37,3.37,0,0,1-2.366.922,4.264,4.264,0,0,1-.637-.062c-.266-.042-.47-.082-.614-.119l.58-1.764.33.022c.326.024.527.035.6.035a1.645,1.645,0,0,0,1.188-.683,7.3,7.3,0,0,0,.962-1.365l.751-1.286-1.832-12.059h2.458Z"/>
      <path id="Trazado_213937" data-name="Trazado 213937" d="M442.42,229.505l-.6,2.97h2.127l-.329,1.66h-2.128L440,241.61a1.629,1.629,0,0,0,.057,1.246.955.955,0,0,0,.807.324,4.738,4.738,0,0,0,.632-.051,5.2,5.2,0,0,0,.586-.108l-.012,1.536a3.051,3.051,0,0,1-.939.336,5.7,5.7,0,0,1-1.2.131,2.178,2.178,0,0,1-1.837-.842,3.15,3.15,0,0,1-.29-2.572l1.49-7.475h-1.8l.33-1.66h1.8l.6-2.97Z"/>
      <path id="Trazado_213938" data-name="Trazado 213938" d="M449.178,245.023a3.992,3.992,0,0,1-3.51-1.724,5.914,5.914,0,0,1-.756-4.432l.079-.5a7.7,7.7,0,0,1,2.156-4.425,5.245,5.245,0,0,1,3.726-1.695,3.565,3.565,0,0,1,3.243,1.516,5.619,5.619,0,0,1,.591,4l-.227,1.4h-7.418a4.922,4.922,0,0,0,.347,2.988,2.128,2.128,0,0,0,2.042,1.108,5.224,5.224,0,0,0,1.878-.334,5.3,5.3,0,0,0,1.524-.877l.625,1.459a5.609,5.609,0,0,1-1.774,1.082,6.762,6.762,0,0,1-2.526.434m1.422-11.014a2.561,2.561,0,0,0-1.849.956,5.541,5.541,0,0,0-1.279,2.366l.034.069h5.062l.046-.3a3.443,3.443,0,0,0-.262-2.236,1.827,1.827,0,0,0-1.752-.859"/>
      <path id="Trazado_213939" data-name="Trazado 213939" d="M463.172,241.512a1.376,1.376,0,0,0-.307-1.225,3.889,3.889,0,0,0-1.8-.817,6.841,6.841,0,0,1-2.952-1.331,2.338,2.338,0,0,1-.7-2.275,3.958,3.958,0,0,1,1.6-2.588,5.271,5.271,0,0,1,3.288-1.03,3.889,3.889,0,0,1,2.981,1.115,2.906,2.906,0,0,1,.751,2.673l-.034.069H463.9a1.751,1.751,0,0,0-1.866-2.094,2.51,2.51,0,0,0-1.661.531,2.019,2.019,0,0,0-.751,1.261,1.279,1.279,0,0,0,.268,1.164,4.084,4.084,0,0,0,1.78.742,6.738,6.738,0,0,1,3.026,1.358,2.425,2.425,0,0,1,.694,2.3,3.918,3.918,0,0,1-1.661,2.675,5.757,5.757,0,0,1-3.413.983,4.186,4.186,0,0,1-3.231-1.206,3.006,3.006,0,0,1-.8-2.777l.023-.068h2.1a1.821,1.821,0,0,0,.512,1.738,2.51,2.51,0,0,0,1.661.549,3.02,3.02,0,0,0,1.747-.488,1.847,1.847,0,0,0,.836-1.259"/>
      <path id="Trazado_213940" data-name="Trazado 213940" d="M378.851,268.938a2.343,2.343,0,0,0-.381-2.066,6.343,6.343,0,0,0-2.588-1.477,7.568,7.568,0,0,1-3.408-1.985A3.862,3.862,0,0,1,371.9,260a4.547,4.547,0,0,1,1.9-3.02,6.4,6.4,0,0,1,3.7-1.041,5.088,5.088,0,0,1,3.782,1.359,3.8,3.8,0,0,1,.837,3.715l-.023.057h-2.116a2.773,2.773,0,0,0-.467-2.447,2.916,2.916,0,0,0-2.366-.921,3.235,3.235,0,0,0-2,.654,2.633,2.633,0,0,0-1.063,1.622,2.386,2.386,0,0,0,.295,2.081,6.975,6.975,0,0,0,2.64,1.468,8.166,8.166,0,0,1,3.441,2.043,3.79,3.79,0,0,1,.575,3.35,4.486,4.486,0,0,1-1.957,3.066,6.944,6.944,0,0,1-3.834,1,6.624,6.624,0,0,1-4.09-1.234q-1.644-1.236-1.064-3.818l.023-.068h2.1q-.386,1.87.655,2.613a4.589,4.589,0,0,0,2.724.743,3.628,3.628,0,0,0,2.094-.647,2.6,2.6,0,0,0,1.149-1.635"/>
      <path id="Trazado_213941" data-name="Trazado 213941" d="M386.985,261.925a5.513,5.513,0,0,1,1.689-1.274,4.493,4.493,0,0,1,1.963-.444,2.927,2.927,0,0,1,2.572,1.2,4.7,4.7,0,0,1,.363,3.618l-1.547,7.714h-2.2l1.548-7.736a3.256,3.256,0,0,0-.125-2.3,1.835,1.835,0,0,0-1.662-.682,3.1,3.1,0,0,0-1.547.449,5.2,5.2,0,0,0-1.411,1.2l-1.809,9.067h-2.2L386.177,255h2.2Z"/>
      <path id="Trazado_213942" data-name="Trazado 213942" d="M397.464,272.745h-2.2l2.457-12.31h2.2Zm3.094-15.462h-2.2l.455-2.286h2.2Z"/>
      <path id="Trazado_213943" data-name="Trazado 213943" d="M401.719,272.745l2.127-10.649h-1.774l.33-1.661h1.775l.318-1.559a5.351,5.351,0,0,1,1.564-3.106,4.288,4.288,0,0,1,2.93-1.012,3.8,3.8,0,0,1,.706.068c.242.046.5.1.784.171l-.591,1.706a4.383,4.383,0,0,0-.99-.113,1.89,1.89,0,0,0-1.416.6,3.3,3.3,0,0,0-.791,1.69l-.319,1.559H408.7l-.33,1.661h-2.333l-2.127,10.649Z"/>
      <path id="Trazado_213944" data-name="Trazado 213944" d="M414.359,257.465l-.6,2.97h2.127l-.329,1.66h-2.128l-1.49,7.475a1.629,1.629,0,0,0,.057,1.246.955.955,0,0,0,.807.324,4.739,4.739,0,0,0,.632-.051,5.194,5.194,0,0,0,.586-.108l-.012,1.536a3.05,3.05,0,0,1-.939.336,5.7,5.7,0,0,1-1.2.131,2.178,2.178,0,0,1-1.837-.842,3.15,3.15,0,0,1-.29-2.572l1.49-7.475h-1.8l.33-1.66h1.8l.6-2.97Z"/>
      <path id="Trazado_213945" data-name="Trazado 213945" d="M420.206,265.566l-1.433,7.178h-2.207l3.31-16.553h5.632a4.655,4.655,0,0,1,3.533,1.228,3.74,3.74,0,0,1,.722,3.482,4.955,4.955,0,0,1-1.086,2.3,5.489,5.489,0,0,1-2.122,1.457,2.618,2.618,0,0,1,1.513,1.467,4.249,4.249,0,0,1,.125,2.4l-.307,1.558a5.068,5.068,0,0,0-.125,1.406,1.793,1.793,0,0,0,.353.983l-.057.273h-2.265a1.542,1.542,0,0,1-.307-1.126,10.006,10.006,0,0,1,.205-1.558l.307-1.514a2.841,2.841,0,0,0-.25-2.2,1.945,1.945,0,0,0-1.729-.779Zm.353-1.764h3.208a4.063,4.063,0,0,0,2.555-.744,3.539,3.539,0,0,0,1.257-2.174,2.664,2.664,0,0,0-.273-2.2,2.615,2.615,0,0,0-2.15-.727h-3.425Z"/>
      <path id="Trazado_213946" data-name="Trazado 213946" d="M431.367,266.476a8.323,8.323,0,0,1,2.088-4.557,5.353,5.353,0,0,1,4.033-1.712,3.815,3.815,0,0,1,3.442,1.781,6.251,6.251,0,0,1,.711,4.488l-.034.25a8.325,8.325,0,0,1-2.1,4.556,5.37,5.37,0,0,1-4.033,1.7,3.82,3.82,0,0,1-3.442-1.776,6.2,6.2,0,0,1-.7-4.482Zm2.162.244a5.957,5.957,0,0,0,.2,3.267,2,2,0,0,0,2.02,1.233,2.893,2.893,0,0,0,2.366-1.29,7.066,7.066,0,0,0,1.286-3.21l.034-.25a5.934,5.934,0,0,0-.217-3.25,1.984,1.984,0,0,0-2-1.25,2.886,2.886,0,0,0-2.373,1.3,7.138,7.138,0,0,0-1.28,3.2Z"/>
      <path id="Trazado_213947" data-name="Trazado 213947" d="M447.011,268.262l-.045,1.309.068.022.523-1.331,3.823-7.827h1.752l.717,7.827-.012,1.524.069.012.591-1.536,3.311-7.827h2.184l-5.779,12.309h-1.764l-.66-7.5-.068-2-.068-.011-.853,2.014-3.641,7.5h-1.764l-.864-12.309h2.184Z"/>
      <path id="Trazado_213948" data-name="Trazado 213948" d="M466.966,269.473a1.376,1.376,0,0,0-.307-1.225,3.889,3.889,0,0,0-1.8-.817,6.841,6.841,0,0,1-2.952-1.331,2.338,2.338,0,0,1-.7-2.275,3.958,3.958,0,0,1,1.6-2.588,5.271,5.271,0,0,1,3.288-1.03,3.889,3.889,0,0,1,2.981,1.115,2.906,2.906,0,0,1,.751,2.673l-.034.069h-2.105a1.751,1.751,0,0,0-1.866-2.094,2.51,2.51,0,0,0-1.661.531,2.019,2.019,0,0,0-.751,1.261,1.279,1.279,0,0,0,.268,1.164,4.084,4.084,0,0,0,1.78.742,6.737,6.737,0,0,1,3.026,1.358,2.425,2.425,0,0,1,.694,2.3A3.917,3.917,0,0,1,467.523,272a5.757,5.757,0,0,1-3.413.983,4.186,4.186,0,0,1-3.231-1.206,3.006,3.006,0,0,1-.8-2.777l.023-.068h2.1a1.821,1.821,0,0,0,.512,1.738,2.51,2.51,0,0,0,1.661.549,3.02,3.02,0,0,0,1.747-.488,1.847,1.847,0,0,0,.836-1.259"/>
      <path id="Trazado_213949" data-name="Trazado 213949" d="M365.136,284.139l2.116,13.448.057.012,7.5-13.46h2.8L374.295,300.7h-2.2l1.308-6.552,1.525-6.52-.057-.022-7.5,13.094h-1.457l-2.252-13.06H363.6l-1.081,6.508-1.308,6.552h-2.2l3.311-16.565Z"/>
      <path id="Trazado_213950" data-name="Trazado 213950" d="M380.165,300.7h-2.2l2.457-12.31h2.2Zm3.094-15.462h-2.2l.455-2.286h2.195Z"/>
      <path id="Trazado_213951" data-name="Trazado 213951" d="M388.777,292.934l3.072-4.539h2.56l-4.665,6.086,2.787,6.224h-2.514l-1.7-4.654-3.186,4.654H382.6l4.79-6.224L384.67,288.4H387.2Z"/>
      <path id="Trazado_213952" data-name="Trazado 213952" d="M406.822,295.619l.022.068a8.034,8.034,0,0,1-2.241,3.846,5.78,5.78,0,0,1-4.05,1.411,4.743,4.743,0,0,1-4.016-2.088,6.136,6.136,0,0,1-.922-5.057l.592-2.958a9.762,9.762,0,0,1,2.452-5.114A6,6,0,0,1,403.1,283.9a4.965,4.965,0,0,1,3.868,1.565,4.8,4.8,0,0,1,1.116,4.021l-.023.057h-2.128a4.242,4.242,0,0,0-.648-2.839,2.818,2.818,0,0,0-2.435-1.041,3.55,3.55,0,0,0-2.781,1.461,8.162,8.162,0,0,0-1.656,3.689l-.6,2.978a5.554,5.554,0,0,0,.37,3.883,2.8,2.8,0,0,0,2.611,1.506,3.336,3.336,0,0,0,2.418-.863,6.647,6.647,0,0,0,1.507-2.7Z"/>
      <path id="Trazado_213953" data-name="Trazado 213953" d="M409.028,294.436a8.323,8.323,0,0,1,2.088-4.557,5.353,5.353,0,0,1,4.033-1.712,3.815,3.815,0,0,1,3.442,1.781,6.251,6.251,0,0,1,.711,4.488l-.034.25a8.325,8.325,0,0,1-2.1,4.556,5.37,5.37,0,0,1-4.033,1.7,3.82,3.82,0,0,1-3.442-1.776,6.2,6.2,0,0,1-.7-4.482Zm2.162.244a5.957,5.957,0,0,0,.2,3.267,2,2,0,0,0,2.02,1.233,2.893,2.893,0,0,0,2.366-1.29,7.066,7.066,0,0,0,1.286-3.21l.034-.25a5.934,5.934,0,0,0-.217-3.25,1.984,1.984,0,0,0-2-1.25,2.886,2.886,0,0,0-2.373,1.3,7.137,7.137,0,0,0-1.28,3.2Z"/>
      <path id="Trazado_213954" data-name="Trazado 213954" d="M423.148,300.7h-2.2l3.55-17.748h2.2Z"/>
      <path id="Trazado_213955" data-name="Trazado 213955" d="M433.808,300.7l.193-1.684a5.1,5.1,0,0,1-1.655,1.434,4.286,4.286,0,0,1-2.031.489,2.894,2.894,0,0,1-2.611-1.308,5.439,5.439,0,0,1-.313-3.983l1.445-7.258h2.2l-1.456,7.282a4.742,4.742,0,0,0-.046,2.769,1.575,1.575,0,0,0,1.513.678,3.47,3.47,0,0,0,1.838-.5,4.315,4.315,0,0,0,1.394-1.388l1.763-8.84h2.2l-2.458,12.31Z"/>
      <path id="Trazado_213956" data-name="Trazado 213956" d="M443.171,289.862a4.98,4.98,0,0,1,1.661-1.257,4.89,4.89,0,0,1,2.082-.437,2.558,2.558,0,0,1,2.685,2.217,5.473,5.473,0,0,1,1.73-1.631,4.285,4.285,0,0,1,2.207-.586,2.667,2.667,0,0,1,2.434,1.313,5.419,5.419,0,0,1,.307,3.862L454.81,300.7H452.6l1.479-7.384a4.324,4.324,0,0,0-.023-2.646,1.646,1.646,0,0,0-1.559-.687,2.486,2.486,0,0,0-1.763.824,4.837,4.837,0,0,0-1.206,2.02.076.076,0,0,0-.011.034v.022l-1.559,7.817h-2.207l1.479-7.384a4.166,4.166,0,0,0-.046-2.594,1.608,1.608,0,0,0-1.547-.739,2.8,2.8,0,0,0-1.547.437,3.868,3.868,0,0,0-1.172,1.212L441.1,300.7h-2.2l2.457-12.31h1.957Z"/>
      <path id="Trazado_213957" data-name="Trazado 213957" d="M462.137,290.089a5.374,5.374,0,0,1,1.7-1.428,4.352,4.352,0,0,1,2.042-.494,2.957,2.957,0,0,1,2.583,1.183,4.608,4.608,0,0,1,.364,3.584l-1.559,7.77h-2.2l1.546-7.724a3.364,3.364,0,0,0-.09-2.362,1.914,1.914,0,0,0-1.684-.631,3,3,0,0,0-1.582.484,4.872,4.872,0,0,0-1.376,1.291L460.1,300.7h-2.2l2.457-12.309h1.968Z"/>
      <path id="Trazado_213958" data-name="Trazado 213958" d="M477.7,297.433a1.376,1.376,0,0,0-.307-1.225,3.889,3.889,0,0,0-1.8-.817,6.84,6.84,0,0,1-2.952-1.331,2.338,2.338,0,0,1-.7-2.275,3.958,3.958,0,0,1,1.6-2.588,5.271,5.271,0,0,1,3.288-1.03,3.889,3.889,0,0,1,2.981,1.115,2.906,2.906,0,0,1,.751,2.673l-.034.069h-2.105a1.751,1.751,0,0,0-1.866-2.094,2.51,2.51,0,0,0-1.661.531,2.019,2.019,0,0,0-.751,1.261,1.279,1.279,0,0,0,.268,1.164,4.083,4.083,0,0,0,1.78.742,6.738,6.738,0,0,1,3.026,1.358,2.425,2.425,0,0,1,.694,2.3,3.917,3.917,0,0,1-1.661,2.675,5.757,5.757,0,0,1-3.413.983,4.186,4.186,0,0,1-3.231-1.206,3.006,3.006,0,0,1-.8-2.777l.023-.068h2.1a1.821,1.821,0,0,0,.512,1.738,2.51,2.51,0,0,0,1.661.549,3.02,3.02,0,0,0,1.747-.488,1.846,1.846,0,0,0,.836-1.259"/>
      <path id="Trazado_213959" data-name="Trazado 213959" d="M366.638,324.4h-6.349l-2.309,4.267h-2.23l9.283-16.566H366.9l2.56,16.566h-2.241Zm-5.325-1.877h5.063l-1-7.361-.068-.023Z"/>
      <path id="Trazado_213960" data-name="Trazado 213960" d="M372.121,322.51a10.327,10.327,0,0,1,2.009-4.779,4.477,4.477,0,0,1,3.555-1.6,3.716,3.716,0,0,1,1.712.392,3.331,3.331,0,0,1,1.257,1.109L382,310.917h2.2l-3.55,17.748h-1.889l.08-1.184a4.693,4.693,0,0,1-1.508,1.065,4.429,4.429,0,0,1-1.78.358,3.238,3.238,0,0,1-2.987-1.775,6.193,6.193,0,0,1-.483-4.38Zm2.162.239a5.119,5.119,0,0,0,.148,3.146,2.045,2.045,0,0,0,2.048,1.189,2.467,2.467,0,0,0,1.45-.45,4.5,4.5,0,0,0,1.178-1.28l1.16-5.813a2.609,2.609,0,0,0-.893-1.161,2.467,2.467,0,0,0-1.485-.432,2.688,2.688,0,0,0-2.258,1.235,8.406,8.406,0,0,0-1.3,3.327Z"/>
      <path id="Trazado_213961" data-name="Trazado 213961" d="M384.59,322.51a10.327,10.327,0,0,1,2.009-4.779,4.477,4.477,0,0,1,3.555-1.6,3.716,3.716,0,0,1,1.712.392,3.331,3.331,0,0,1,1.257,1.109l1.343-6.712h2.2l-3.55,17.748h-1.889l.08-1.184a4.694,4.694,0,0,1-1.508,1.065,4.429,4.429,0,0,1-1.78.358,3.238,3.238,0,0,1-2.987-1.775,6.193,6.193,0,0,1-.483-4.38Zm2.162.239a5.119,5.119,0,0,0,.148,3.146,2.045,2.045,0,0,0,2.048,1.189,2.467,2.467,0,0,0,1.45-.45,4.5,4.5,0,0,0,1.178-1.28l1.16-5.813a2.609,2.609,0,0,0-.893-1.161,2.467,2.467,0,0,0-1.485-.432,2.688,2.688,0,0,0-2.258,1.235,8.406,8.406,0,0,0-1.3,3.327Z"/>
      <path id="Trazado_213962" data-name="Trazado 213962" d="M400.347,321.486l-1.433,7.178h-2.207l3.31-16.553h5.632a4.655,4.655,0,0,1,3.533,1.228,3.74,3.74,0,0,1,.722,3.482,4.955,4.955,0,0,1-1.086,2.3,5.489,5.489,0,0,1-2.122,1.457,2.618,2.618,0,0,1,1.513,1.467,4.25,4.25,0,0,1,.125,2.4L408.027,326a5.065,5.065,0,0,0-.125,1.406,1.793,1.793,0,0,0,.353.983l-.057.273h-2.265a1.542,1.542,0,0,1-.307-1.126,10,10,0,0,1,.2-1.558l.307-1.514a2.841,2.841,0,0,0-.25-2.2,1.945,1.945,0,0,0-1.729-.779Zm.353-1.764h3.208a4.063,4.063,0,0,0,2.555-.744,3.539,3.539,0,0,0,1.257-2.174,2.664,2.664,0,0,0-.273-2.2,2.615,2.615,0,0,0-2.15-.727h-3.425Z"/>
      <path id="Trazado_213963" data-name="Trazado 213963" d="M411.508,322.4a8.323,8.323,0,0,1,2.088-4.557,5.353,5.353,0,0,1,4.033-1.712,3.815,3.815,0,0,1,3.442,1.781,6.251,6.251,0,0,1,.711,4.488l-.034.25a8.325,8.325,0,0,1-2.1,4.556,5.37,5.37,0,0,1-4.033,1.7,3.82,3.82,0,0,1-3.442-1.776,6.2,6.2,0,0,1-.7-4.482Zm2.162.244a5.957,5.957,0,0,0,.2,3.267,2,2,0,0,0,2.02,1.233,2.894,2.894,0,0,0,2.366-1.29,7.065,7.065,0,0,0,1.286-3.21l.034-.25a5.934,5.934,0,0,0-.217-3.25,1.984,1.984,0,0,0-2-1.25,2.886,2.886,0,0,0-2.373,1.3,7.137,7.137,0,0,0-1.28,3.2Z"/>
      <path id="Trazado_213964" data-name="Trazado 213964" d="M430.645,328.665l.192-1.684a5.1,5.1,0,0,1-1.655,1.434,4.286,4.286,0,0,1-2.031.489,2.894,2.894,0,0,1-2.611-1.308,5.439,5.439,0,0,1-.313-3.983l1.445-7.258h2.2l-1.456,7.282a4.75,4.75,0,0,0-.046,2.769,1.575,1.575,0,0,0,1.513.678,3.47,3.47,0,0,0,1.838-.5,4.315,4.315,0,0,0,1.394-1.388l1.763-8.84h2.2l-2.458,12.31Z"/>
      <path id="Trazado_213965" data-name="Trazado 213965" d="M439.962,318.049a5.374,5.374,0,0,1,1.7-1.428,4.352,4.352,0,0,1,2.042-.494,2.957,2.957,0,0,1,2.583,1.183,4.608,4.608,0,0,1,.364,3.584l-1.559,7.77H442.9l1.546-7.724a3.364,3.364,0,0,0-.09-2.362,1.914,1.914,0,0,0-1.684-.631,3,3,0,0,0-1.582.484,4.872,4.872,0,0,0-1.376,1.291l-1.787,8.942H435.73l2.457-12.309h1.968Z"/>
      <path id="Trazado_213966" data-name="Trazado 213966" d="M453.456,321.178H452l-1.491,7.486H448.3l3.311-16.565h2.207l-1.445,7.2h1.616l6.087-7.2h2.7l.023.058-7.441,8.259,4.38,8.248h-2.5Z"/>
      <path id="Trazado_213967" data-name="Trazado 213967" d="M465.982,328.9a3.992,3.992,0,0,1-3.51-1.724,5.914,5.914,0,0,1-.756-4.432l.079-.5a7.7,7.7,0,0,1,2.156-4.425,5.245,5.245,0,0,1,3.726-1.695,3.565,3.565,0,0,1,3.243,1.516,5.619,5.619,0,0,1,.591,4l-.227,1.4h-7.418a4.922,4.922,0,0,0,.347,2.988,2.128,2.128,0,0,0,2.042,1.108,5.224,5.224,0,0,0,1.878-.334,5.3,5.3,0,0,0,1.524-.877l.625,1.459a5.609,5.609,0,0,1-1.774,1.082,6.762,6.762,0,0,1-2.526.434M467.4,317.89a2.561,2.561,0,0,0-1.849.956,5.54,5.54,0,0,0-1.279,2.366l.034.069h5.062l.046-.3a3.443,3.443,0,0,0-.262-2.236,1.827,1.827,0,0,0-1.752-.859"/>
      <path id="Trazado_213968" data-name="Trazado 213968" d="M476.95,324.1l.057,1.4.068.012,4.574-9.158H484.1l-7.623,14.2a8.866,8.866,0,0,1-1.707,2.161,3.37,3.37,0,0,1-2.366.922,4.265,4.265,0,0,1-.637-.062c-.266-.042-.47-.082-.614-.119l.58-1.764.33.022c.326.024.527.035.6.035a1.645,1.645,0,0,0,1.188-.683,7.3,7.3,0,0,0,.962-1.365l.751-1.286-1.832-12.059h2.458Z"/>
      <path id="Trazado_213969" data-name="Trazado 213969" d="M574.494,628.815V454.545L554.345,437.38H264.266V611.651l20.15,17.164Z" fill="#fcdbe6"/>
      <path id="Trazado_213970" data-name="Trazado 213970" d="M575.494,629.815H284.048l-20.782-17.7V436.379H554.713l20.781,17.7Zm-290.71-2h288.71V455.006l-19.517-16.627H265.266v172.81Z" fill="#e01650"/>
      <path id="Trazado_213971" data-name="Trazado 213971" d="M367.337,476.954h-2.162v5.86h-3.993V466.249H367.7a7.281,7.281,0,0,1,4.608,1.307,4.429,4.429,0,0,1,1.661,3.693,5.372,5.372,0,0,1-.7,2.865,4.957,4.957,0,0,1-2.19,1.84l3.459,6.69v.17h-4.278Zm-2.162-3.07H367.7a2.268,2.268,0,0,0,1.712-.6,2.314,2.314,0,0,0,.574-1.671,2.342,2.342,0,0,0-.58-1.682,2.246,2.246,0,0,0-1.706-.609h-2.526Z"/>
      <path id="Trazado_213972" data-name="Trazado 213972" d="M375.722,476.547a7.261,7.261,0,0,1,.717-3.283,5.119,5.119,0,0,1,2.059-2.213,6.2,6.2,0,0,1,3.151-.774,5.659,5.659,0,0,1,4.358,1.713,6.565,6.565,0,0,1,1.592,4.658v.137a6.376,6.376,0,0,1-1.6,4.568,5.68,5.68,0,0,1-4.329,1.69,5.743,5.743,0,0,1-4.221-1.576,6.167,6.167,0,0,1-1.718-4.272Zm3.834.238a4.569,4.569,0,0,0,.535,2.5,1.78,1.78,0,0,0,1.581.8q2.047,0,2.093-3.151v-.386q0-3.311-2.116-3.311-1.921,0-2.082,2.856Z"/>
      <path id="Trazado_213973" data-name="Trazado 213973" d="M392.81,470.505l.125,1.443a4.175,4.175,0,0,1,3.516-1.672,3.515,3.515,0,0,1,2.873,1.149,5.479,5.479,0,0,1,.984,3.459v7.93h-3.846v-7.77a2.075,2.075,0,0,0-.375-1.371,1.735,1.735,0,0,0-1.365-.438,1.828,1.828,0,0,0-1.673.887v8.692h-3.834V470.505Z"/>
      <path id="Trazado_213974" data-name="Trazado 213974" d="M401.946,476.568a7.521,7.521,0,0,1,1.263-4.608,4.154,4.154,0,0,1,3.527-1.683,3.529,3.529,0,0,1,2.775,1.3v-6.235h3.846v17.475H409.91l-.193-1.319a3.632,3.632,0,0,1-3,1.547,4.152,4.152,0,0,1-3.481-1.683,7.758,7.758,0,0,1-1.286-4.791m3.834.24q0,3.276,1.911,3.275a1.884,1.884,0,0,0,1.82-1.068v-4.687a1.834,1.834,0,0,0-1.8-1.092q-1.774,0-1.923,2.865Z"/>
      <path id="Trazado_213975" data-name="Trazado 213975" d="M422.47,482.814a4.327,4.327,0,0,1-.363-1.1,3.563,3.563,0,0,1-2.958,1.332,4.368,4.368,0,0,1-2.958-1.052,3.349,3.349,0,0,1-1.218-2.645,3.443,3.443,0,0,1,1.479-3.027,7.541,7.541,0,0,1,4.3-1.024h1.183v-.652q0-1.7-1.468-1.7a1.2,1.2,0,0,0-1.365,1.35h-3.834a3.437,3.437,0,0,1,1.519-2.9,6.383,6.383,0,0,1,3.874-1.113,5.6,5.6,0,0,1,3.72,1.148,4,4,0,0,1,1.4,3.153v5.449a5.587,5.587,0,0,0,.524,2.594v.193Zm-2.4-2.5a2.138,2.138,0,0,0,1.189-.309,1.919,1.919,0,0,0,.677-.693v-1.969h-1.115q-2,0-2,1.8a1.1,1.1,0,0,0,.352.848,1.282,1.282,0,0,0,.9.324"/>
      <path id="Trazado_213976" data-name="Trazado 213976" d="M434.553,482.814v-9.646h-1.786v-2.663h1.786v-.978a4.253,4.253,0,0,1,1.24-3.266,4.9,4.9,0,0,1,3.481-1.16,7.577,7.577,0,0,1,1.8.238l.011,2.823a3.464,3.464,0,0,0-.944-.1q-1.74,0-1.741,1.5v.945h2.4v2.663h-2.4v9.646Z"/>
      <path id="Trazado_213977" data-name="Trazado 213977" d="M442.119,467.318a1.725,1.725,0,0,1,.591-1.35,2.5,2.5,0,0,1,3.072,0,1.836,1.836,0,0,1,0,2.7,2.5,2.5,0,0,1-3.072,0,1.722,1.722,0,0,1-.591-1.351m4.072,15.5h-3.845V470.505h3.845Z"/>
      <path id="Trazado_213978" data-name="Trazado 213978" d="M452.073,470.505l.125,1.443a4.175,4.175,0,0,1,3.516-1.672,3.515,3.515,0,0,1,2.873,1.149,5.479,5.479,0,0,1,.984,3.459v7.93h-3.846v-7.77a2.075,2.075,0,0,0-.375-1.371,1.735,1.735,0,0,0-1.365-.438,1.828,1.828,0,0,0-1.673.887v8.692h-3.834V470.505Z"/>
      <path id="Trazado_213979" data-name="Trazado 213979" d="M468.627,482.814a4.325,4.325,0,0,1-.363-1.1,3.563,3.563,0,0,1-2.958,1.332,4.368,4.368,0,0,1-2.958-1.052,3.349,3.349,0,0,1-1.218-2.645,3.443,3.443,0,0,1,1.479-3.027,7.541,7.541,0,0,1,4.3-1.024h1.183v-.652q0-1.7-1.468-1.7a1.2,1.2,0,0,0-1.365,1.35h-3.834a3.437,3.437,0,0,1,1.519-2.9,6.383,6.383,0,0,1,3.874-1.113,5.6,5.6,0,0,1,3.72,1.148,4,4,0,0,1,1.4,3.153v5.449a5.587,5.587,0,0,0,.524,2.594v.193Zm-2.4-2.5a2.138,2.138,0,0,0,1.189-.309,1.919,1.919,0,0,0,.677-.693v-1.969h-1.115q-2,0-2,1.8a1.1,1.1,0,0,0,.352.848,1.282,1.282,0,0,0,.9.324"/>
      <rect id="Rectángulo_41032" data-name="Rectángulo 41032" width="3.845" height="17.475" transform="translate(474.259 465.339)"/>
      <path id="Trazado_213980" data-name="Trazado 213980" d="M382.645,506.968a2.342,2.342,0,0,0-.381-2.066,6.343,6.343,0,0,0-2.588-1.477,7.568,7.568,0,0,1-3.408-1.986,3.859,3.859,0,0,1-.574-3.407,4.549,4.549,0,0,1,1.9-3.021,6.4,6.4,0,0,1,3.7-1.041,5.087,5.087,0,0,1,3.782,1.359,3.8,3.8,0,0,1,.837,3.715l-.023.057h-2.116a2.77,2.77,0,0,0-.467-2.446,2.913,2.913,0,0,0-2.366-.921,3.235,3.235,0,0,0-2,.654,2.63,2.63,0,0,0-1.063,1.621,2.387,2.387,0,0,0,.295,2.082,6.991,6.991,0,0,0,2.64,1.467,8.175,8.175,0,0,1,3.441,2.043,3.792,3.792,0,0,1,.575,3.351,4.484,4.484,0,0,1-1.957,3.065,6.944,6.944,0,0,1-3.834,1,6.624,6.624,0,0,1-4.09-1.234q-1.644-1.234-1.064-3.817l.023-.068h2.1q-.386,1.869.655,2.613a4.6,4.6,0,0,0,2.724.742,3.627,3.627,0,0,0,2.094-.646,2.6,2.6,0,0,0,1.149-1.635"/>
      <path id="Trazado_213981" data-name="Trazado 213981" d="M393.806,510.775l.193-1.684a5.11,5.11,0,0,1-1.655,1.434,4.285,4.285,0,0,1-2.031.488A2.892,2.892,0,0,1,387.7,509.7a5.438,5.438,0,0,1-.313-3.983l1.445-7.258h2.2l-1.456,7.282a4.741,4.741,0,0,0-.046,2.769,1.573,1.573,0,0,0,1.513.678,3.469,3.469,0,0,0,1.838-.5,4.318,4.318,0,0,0,1.394-1.389l1.763-8.84h2.2l-2.458,12.311Z"/>
      <path id="Trazado_213982" data-name="Trazado 213982" d="M409.835,505.314a8.557,8.557,0,0,1-1.922,4.266,4.577,4.577,0,0,1-3.481,1.433,3.094,3.094,0,0,1-1.775-.546,3.844,3.844,0,0,1-1.286-1.491l-.581,1.8h-1.9l3.549-17.748h2.2l-1.308,6.553a4.654,4.654,0,0,1,1.456-1,4.4,4.4,0,0,1,1.752-.346,3.122,3.122,0,0,1,2.953,1.967,7.615,7.615,0,0,1,.392,4.869Zm-2.15-.24a6.752,6.752,0,0,0-.074-3.623,1.968,1.968,0,0,0-2.008-1.393,2.49,2.49,0,0,0-1.519.522,5.069,5.069,0,0,0-1.245,1.4l-1.081,5.438a2.7,2.7,0,0,0,.887,1.291,2.473,2.473,0,0,0,1.582.484,2.725,2.725,0,0,0,2.2-1.029,6.377,6.377,0,0,0,1.218-2.85Z"/>
      <path id="Trazado_213983" data-name="Trazado 213983" d="M411.758,510.774l3.311-16.566h5.1a4.914,4.914,0,0,1,3.481,1.14,3.379,3.379,0,0,1,.774,3.347,4.008,4.008,0,0,1-1.047,2.016,5,5,0,0,1-1.979,1.252,2.678,2.678,0,0,1,1.894,1.473,4.079,4.079,0,0,1,.256,2.666,5.476,5.476,0,0,1-2.059,3.545,6.659,6.659,0,0,1-3.983,1.127Zm3.743-7.758-1.194,5.995h3.549a3.468,3.468,0,0,0,3.493-2.891,3.378,3.378,0,0,0-.165-2.321,1.913,1.913,0,0,0-1.8-.783Zm.353-1.765h3.356a3,3,0,0,0,1.906-.7,3.113,3.113,0,0,0,1.12-1.907,2.188,2.188,0,0,0-.335-2.046,2.867,2.867,0,0,0-2.088-.627h-2.9Z"/>
      <path id="Trazado_213984" data-name="Trazado 213984" d="M429.837,506.213l.057,1.4.068.012,4.574-9.158h2.446l-7.623,14.2a8.843,8.843,0,0,1-1.707,2.16,3.37,3.37,0,0,1-2.366.922,4.138,4.138,0,0,1-.637-.062c-.266-.041-.47-.082-.614-.119l.58-1.764.33.023c.326.024.527.034.6.034a1.644,1.644,0,0,0,1.188-.682,7.3,7.3,0,0,0,.962-1.365l.751-1.286-1.832-12.06h2.458Z"/>
      <path id="Trazado_213985" data-name="Trazado 213985" d="M442.42,495.5l-.6,2.969h2.127l-.329,1.66h-2.128L440,507.6a1.626,1.626,0,0,0,.057,1.245.955.955,0,0,0,.807.324,4.576,4.576,0,0,0,.632-.051,5.229,5.229,0,0,0,.586-.107l-.012,1.535a3.024,3.024,0,0,1-.939.336,5.637,5.637,0,0,1-1.2.131,2.178,2.178,0,0,1-1.837-.842,3.147,3.147,0,0,1-.29-2.571l1.49-7.476h-1.8l.33-1.66h1.8l.6-2.969Z"/>
      <path id="Trazado_213986" data-name="Trazado 213986" d="M449.178,511.014a3.992,3.992,0,0,1-3.51-1.723,5.915,5.915,0,0,1-.756-4.432l.079-.5a7.7,7.7,0,0,1,2.156-4.425,5.248,5.248,0,0,1,3.726-1.694,3.563,3.563,0,0,1,3.243,1.516,5.617,5.617,0,0,1,.591,4l-.227,1.4h-7.418a4.926,4.926,0,0,0,.347,2.989,2.127,2.127,0,0,0,2.042,1.107,5.322,5.322,0,0,0,3.4-1.211l.625,1.459a5.572,5.572,0,0,1-1.774,1.082,6.762,6.762,0,0,1-2.526.434M450.6,500a2.562,2.562,0,0,0-1.849.957,5.543,5.543,0,0,0-1.279,2.365l.034.069h5.062l.046-.295a3.446,3.446,0,0,0-.262-2.237A1.826,1.826,0,0,0,450.6,500"/>
      <path id="Trazado_213987" data-name="Trazado 213987" d="M463.172,507.5a1.374,1.374,0,0,0-.307-1.225,3.888,3.888,0,0,0-1.8-.818,6.841,6.841,0,0,1-2.952-1.33,2.339,2.339,0,0,1-.7-2.275,3.956,3.956,0,0,1,1.6-2.588,5.265,5.265,0,0,1,3.288-1.03,3.892,3.892,0,0,1,2.981,1.114,2.906,2.906,0,0,1,.751,2.673l-.034.069H463.9A1.752,1.752,0,0,0,462.034,500a2.515,2.515,0,0,0-1.661.531,2.018,2.018,0,0,0-.751,1.262,1.28,1.28,0,0,0,.268,1.164,4.1,4.1,0,0,0,1.78.742,6.727,6.727,0,0,1,3.026,1.358,2.423,2.423,0,0,1,.694,2.3,3.915,3.915,0,0,1-1.661,2.675,5.757,5.757,0,0,1-3.413.983,4.189,4.189,0,0,1-3.231-1.205,3.009,3.009,0,0,1-.8-2.778l.023-.068h2.1a1.82,1.82,0,0,0,.512,1.738,2.505,2.505,0,0,0,1.661.549,3.012,3.012,0,0,0,1.747-.488,1.845,1.845,0,0,0,.836-1.258"/>
      <path id="Trazado_213988" data-name="Trazado 213988" d="M378.851,534.929a2.342,2.342,0,0,0-.381-2.066,6.342,6.342,0,0,0-2.588-1.477,7.569,7.569,0,0,1-3.408-1.986,3.859,3.859,0,0,1-.574-3.407,4.549,4.549,0,0,1,1.9-3.021,6.4,6.4,0,0,1,3.7-1.041,5.087,5.087,0,0,1,3.782,1.359,3.8,3.8,0,0,1,.837,3.715l-.023.057h-2.116a2.77,2.77,0,0,0-.467-2.446,2.913,2.913,0,0,0-2.366-.921,3.236,3.236,0,0,0-2,.654,2.631,2.631,0,0,0-1.063,1.621,2.387,2.387,0,0,0,.295,2.082,6.991,6.991,0,0,0,2.64,1.467,8.175,8.175,0,0,1,3.441,2.043,3.792,3.792,0,0,1,.575,3.351,4.484,4.484,0,0,1-1.957,3.065,6.944,6.944,0,0,1-3.834,1,6.624,6.624,0,0,1-4.09-1.234q-1.644-1.234-1.064-3.817l.023-.068h2.1q-.386,1.869.655,2.613a4.6,4.6,0,0,0,2.724.742,3.627,3.627,0,0,0,2.094-.646,2.6,2.6,0,0,0,1.149-1.635"/>
      <path id="Trazado_213989" data-name="Trazado 213989" d="M386.985,527.916a5.509,5.509,0,0,1,1.689-1.273,4.479,4.479,0,0,1,1.963-.444,2.925,2.925,0,0,1,2.572,1.205,4.7,4.7,0,0,1,.363,3.617l-1.547,7.715h-2.2L391.377,531a3.258,3.258,0,0,0-.125-2.3,1.835,1.835,0,0,0-1.662-.681,3.086,3.086,0,0,0-1.547.449,5.193,5.193,0,0,0-1.411,1.2l-1.809,9.068h-2.2l3.549-17.748h2.2Z"/>
      <path id="Trazado_213990" data-name="Trazado 213990" d="M397.464,538.736h-2.2l2.457-12.311h2.2Zm3.094-15.463h-2.2l.455-2.285h2.2Z"/>
      <path id="Trazado_213991" data-name="Trazado 213991" d="M401.719,538.736l2.127-10.65h-1.774l.33-1.661h1.775l.318-1.558a5.345,5.345,0,0,1,1.564-3.106,4.284,4.284,0,0,1,2.93-1.013,3.884,3.884,0,0,1,.706.068c.242.047.5.1.784.172l-.591,1.705a4.541,4.541,0,0,0-.99-.113,1.888,1.888,0,0,0-1.416.6,3.3,3.3,0,0,0-.791,1.69l-.319,1.558H408.7l-.33,1.661h-2.333l-2.127,10.65Z"/>
      <path id="Trazado_213992" data-name="Trazado 213992" d="M414.359,523.457l-.6,2.969h2.127l-.329,1.66h-2.128l-1.49,7.476a1.626,1.626,0,0,0,.057,1.245.955.955,0,0,0,.807.324,4.579,4.579,0,0,0,.632-.051,5.243,5.243,0,0,0,.586-.107l-.012,1.535a3.025,3.025,0,0,1-.939.336,5.637,5.637,0,0,1-1.2.131,2.178,2.178,0,0,1-1.837-.842,3.147,3.147,0,0,1-.29-2.571l1.49-7.476h-1.8l.33-1.66h1.8l.6-2.969Z"/>
      <path id="Trazado_213993" data-name="Trazado 213993" d="M420.206,531.557l-1.433,7.179h-2.207l3.31-16.554h5.632a4.659,4.659,0,0,1,3.533,1.228,3.742,3.742,0,0,1,.722,3.483,4.955,4.955,0,0,1-1.086,2.3,5.487,5.487,0,0,1-2.122,1.456,2.62,2.62,0,0,1,1.513,1.468,4.249,4.249,0,0,1,.125,2.4l-.307,1.558a5.058,5.058,0,0,0-.125,1.405,1.8,1.8,0,0,0,.353.984l-.057.273h-2.265a1.544,1.544,0,0,1-.307-1.127,10.037,10.037,0,0,1,.205-1.558l.307-1.514a2.841,2.841,0,0,0-.25-2.2,1.945,1.945,0,0,0-1.729-.779Zm.353-1.764h3.208a4.063,4.063,0,0,0,2.555-.744,3.533,3.533,0,0,0,1.257-2.174,2.664,2.664,0,0,0-.273-2.2,2.615,2.615,0,0,0-2.15-.727h-3.425Z"/>
      <path id="Trazado_213994" data-name="Trazado 213994" d="M431.367,532.467a8.327,8.327,0,0,1,2.088-4.557,5.356,5.356,0,0,1,4.033-1.711,3.815,3.815,0,0,1,3.442,1.78,6.252,6.252,0,0,1,.711,4.488l-.034.25a8.322,8.322,0,0,1-2.1,4.556,5.366,5.366,0,0,1-4.033,1.7,3.82,3.82,0,0,1-3.442-1.776,6.2,6.2,0,0,1-.7-4.482Zm2.162.244a5.961,5.961,0,0,0,.2,3.268,1.994,1.994,0,0,0,2.02,1.232,2.9,2.9,0,0,0,2.366-1.289,7.065,7.065,0,0,0,1.286-3.211l.034-.25a5.935,5.935,0,0,0-.217-3.25,1.986,1.986,0,0,0-2-1.25,2.885,2.885,0,0,0-2.373,1.3,7.138,7.138,0,0,0-1.28,3.2Z"/>
      <path id="Trazado_213995" data-name="Trazado 213995" d="M447.011,534.253l-.045,1.309.068.021.523-1.33,3.823-7.828h1.752l.717,7.828-.012,1.523.069.012.591-1.535,3.311-7.828h2.184l-5.779,12.31h-1.764l-.66-7.5-.068-2-.068-.011-.853,2.013-3.641,7.5h-1.764l-.864-12.31h2.184Z"/>
      <path id="Trazado_213996" data-name="Trazado 213996" d="M466.966,535.464a1.374,1.374,0,0,0-.307-1.225,3.888,3.888,0,0,0-1.8-.818,6.841,6.841,0,0,1-2.952-1.33,2.339,2.339,0,0,1-.7-2.275,3.956,3.956,0,0,1,1.6-2.588,5.265,5.265,0,0,1,3.288-1.03,3.892,3.892,0,0,1,2.981,1.114,2.906,2.906,0,0,1,.751,2.673l-.034.069h-2.105a1.752,1.752,0,0,0-1.866-2.094,2.515,2.515,0,0,0-1.661.531,2.018,2.018,0,0,0-.751,1.262,1.28,1.28,0,0,0,.268,1.164,4.1,4.1,0,0,0,1.78.742,6.726,6.726,0,0,1,3.026,1.358,2.423,2.423,0,0,1,.694,2.3,3.916,3.916,0,0,1-1.661,2.675,5.757,5.757,0,0,1-3.413.983,4.189,4.189,0,0,1-3.231-1.205,3.009,3.009,0,0,1-.8-2.778l.023-.068h2.1a1.82,1.82,0,0,0,.512,1.738,2.505,2.505,0,0,0,1.661.549,3.013,3.013,0,0,0,1.747-.488,1.845,1.845,0,0,0,.836-1.258"/>
      <path id="Trazado_213997" data-name="Trazado 213997" d="M366.638,562.429h-6.349L357.98,566.7h-2.23l9.283-16.565H366.9l2.56,16.565h-2.241Zm-5.325-1.877h5.063l-1-7.361-.068-.024Z"/>
      <path id="Trazado_213998" data-name="Trazado 213998" d="M372.121,560.541a10.331,10.331,0,0,1,2.009-4.78,4.481,4.481,0,0,1,3.555-1.6,3.716,3.716,0,0,1,1.712.392,3.334,3.334,0,0,1,1.257,1.11L382,548.947h2.2l-3.55,17.748h-1.889l.08-1.184a4.678,4.678,0,0,1-1.508,1.065,4.429,4.429,0,0,1-1.78.359,3.238,3.238,0,0,1-2.987-1.775,6.2,6.2,0,0,1-.483-4.381Zm2.162.238a5.119,5.119,0,0,0,.148,3.146,2.045,2.045,0,0,0,2.048,1.19,2.461,2.461,0,0,0,1.45-.451,4.482,4.482,0,0,0,1.178-1.28l1.16-5.812a2.607,2.607,0,0,0-.893-1.162,2.473,2.473,0,0,0-1.485-.432,2.691,2.691,0,0,0-2.258,1.235,8.4,8.4,0,0,0-1.3,3.328Z"/>
      <path id="Trazado_213999" data-name="Trazado 213999" d="M384.59,560.541a10.331,10.331,0,0,1,2.009-4.78,4.481,4.481,0,0,1,3.555-1.6,3.716,3.716,0,0,1,1.712.392,3.334,3.334,0,0,1,1.257,1.11l1.343-6.713h2.2l-3.55,17.748h-1.889l.08-1.184a4.678,4.678,0,0,1-1.508,1.065,4.429,4.429,0,0,1-1.78.359,3.238,3.238,0,0,1-2.987-1.775,6.2,6.2,0,0,1-.483-4.381Zm2.162.238a5.119,5.119,0,0,0,.148,3.146,2.045,2.045,0,0,0,2.048,1.19,2.461,2.461,0,0,0,1.45-.451,4.483,4.483,0,0,0,1.178-1.28l1.16-5.812a2.607,2.607,0,0,0-.893-1.162,2.473,2.473,0,0,0-1.485-.432,2.691,2.691,0,0,0-2.258,1.235,8.4,8.4,0,0,0-1.3,3.328Z"/>
      <path id="Trazado_214000" data-name="Trazado 214000" d="M400.347,559.518l-1.433,7.177h-2.207l3.31-16.552h5.632a4.652,4.652,0,0,1,3.533,1.228,3.737,3.737,0,0,1,.722,3.481,4.955,4.955,0,0,1-1.086,2.3,5.491,5.491,0,0,1-2.122,1.458,2.617,2.617,0,0,1,1.513,1.466,4.25,4.25,0,0,1,.125,2.4l-.307,1.558a5.075,5.075,0,0,0-.125,1.407,1.786,1.786,0,0,0,.353.982l-.057.273h-2.265a1.541,1.541,0,0,1-.307-1.125,9.971,9.971,0,0,1,.2-1.558l.307-1.514a2.84,2.84,0,0,0-.25-2.2,1.945,1.945,0,0,0-1.729-.779Zm.353-1.764h3.208a4.063,4.063,0,0,0,2.555-.744,3.544,3.544,0,0,0,1.257-2.174,2.664,2.664,0,0,0-.273-2.2,2.615,2.615,0,0,0-2.15-.727h-3.425Z"/>
      <path id="Trazado_214001" data-name="Trazado 214001" d="M411.508,560.427a8.32,8.32,0,0,1,2.088-4.557,5.351,5.351,0,0,1,4.033-1.713,3.816,3.816,0,0,1,3.442,1.782,6.249,6.249,0,0,1,.711,4.488l-.034.25a8.328,8.328,0,0,1-2.1,4.556,5.373,5.373,0,0,1-4.033,1.7,3.82,3.82,0,0,1-3.442-1.776,6.2,6.2,0,0,1-.7-4.482Zm2.162.244a5.953,5.953,0,0,0,.2,3.266,2,2,0,0,0,2.02,1.234,2.892,2.892,0,0,0,2.366-1.291,7.066,7.066,0,0,0,1.286-3.209l.034-.25a5.933,5.933,0,0,0-.217-3.25,1.983,1.983,0,0,0-2-1.25,2.887,2.887,0,0,0-2.373,1.295,7.136,7.136,0,0,0-1.28,3.205Z"/>
      <path id="Trazado_214002" data-name="Trazado 214002" d="M430.645,566.7l.192-1.684a5.087,5.087,0,0,1-1.655,1.434,4.287,4.287,0,0,1-2.031.49,2.9,2.9,0,0,1-2.611-1.308,5.44,5.44,0,0,1-.313-3.983l1.445-7.258h2.2l-1.456,7.282a4.751,4.751,0,0,0-.046,2.769,1.577,1.577,0,0,0,1.513.678,3.471,3.471,0,0,0,1.838-.5,4.312,4.312,0,0,0,1.394-1.387l1.763-8.84h2.2L432.612,566.7Z"/>
      <path id="Trazado_214003" data-name="Trazado 214003" d="M439.962,556.08a5.374,5.374,0,0,1,1.7-1.428,4.353,4.353,0,0,1,2.042-.494,2.958,2.958,0,0,1,2.583,1.184,4.608,4.608,0,0,1,.364,3.584l-1.559,7.769H442.9l1.546-7.724a3.365,3.365,0,0,0-.09-2.362,1.916,1.916,0,0,0-1.684-.631,3,3,0,0,0-1.582.485,4.857,4.857,0,0,0-1.376,1.291l-1.787,8.941H435.73l2.457-12.308h1.968Z"/>
      <path id="Trazado_214004" data-name="Trazado 214004" d="M453.456,559.209H452l-1.491,7.486H448.3l3.311-16.564h2.207l-1.445,7.2h1.616l6.087-7.2h2.7l.023.057-7.441,8.259,4.38,8.248h-2.5Z"/>
      <path id="Trazado_214005" data-name="Trazado 214005" d="M465.982,566.935a3.991,3.991,0,0,1-3.51-1.725,5.913,5.913,0,0,1-.756-4.432l.079-.5a7.7,7.7,0,0,1,2.156-4.425,5.243,5.243,0,0,1,3.726-1.7,3.567,3.567,0,0,1,3.243,1.516,5.621,5.621,0,0,1,.591,4l-.227,1.4h-7.418a4.918,4.918,0,0,0,.347,2.987,2.129,2.129,0,0,0,2.042,1.109,5.223,5.223,0,0,0,1.878-.334,5.32,5.32,0,0,0,1.524-.877l.625,1.459a5.646,5.646,0,0,1-1.774,1.082,6.762,6.762,0,0,1-2.526.434m1.422-11.014a2.559,2.559,0,0,0-1.849.955,5.539,5.539,0,0,0-1.279,2.367l.034.069h5.062l.046-.3a3.44,3.44,0,0,0-.262-2.235,1.827,1.827,0,0,0-1.752-.859"/>
      <path id="Trazado_214006" data-name="Trazado 214006" d="M476.95,562.132l.057,1.4.068.012,4.574-9.158H484.1l-7.623,14.2a8.891,8.891,0,0,1-1.707,2.162,3.37,3.37,0,0,1-2.366.922,4.4,4.4,0,0,1-.637-.062c-.266-.043-.47-.082-.614-.119l.58-1.764c-.106-.008,0,0,.33.021s.527.035.6.035a1.645,1.645,0,0,0,1.188-.683,7.3,7.3,0,0,0,.962-1.365l.751-1.286-1.832-12.058h2.458Z"/>
      <path id="Trazado_214007" data-name="Trazado 214007" d="M360.818,590.849a2.342,2.342,0,0,0-.381-2.066,6.342,6.342,0,0,0-2.588-1.477,7.569,7.569,0,0,1-3.408-1.986,3.859,3.859,0,0,1-.574-3.407,4.549,4.549,0,0,1,1.9-3.021,6.4,6.4,0,0,1,3.7-1.041,5.088,5.088,0,0,1,3.782,1.359,3.8,3.8,0,0,1,.837,3.715l-.023.057h-2.116a2.77,2.77,0,0,0-.467-2.446,2.913,2.913,0,0,0-2.366-.921,3.236,3.236,0,0,0-2,.654,2.631,2.631,0,0,0-1.063,1.621,2.387,2.387,0,0,0,.3,2.082,6.991,6.991,0,0,0,2.64,1.467,8.175,8.175,0,0,1,3.441,2.043,3.792,3.792,0,0,1,.575,3.351,4.484,4.484,0,0,1-1.957,3.065,6.944,6.944,0,0,1-3.834,1,6.624,6.624,0,0,1-4.09-1.234q-1.644-1.234-1.064-3.817l.023-.068h2.1q-.386,1.869.655,2.613a4.6,4.6,0,0,0,2.724.742,3.627,3.627,0,0,0,2.094-.646,2.6,2.6,0,0,0,1.149-1.635"/>
      <path id="Trazado_214008" data-name="Trazado 214008" d="M371.979,594.656l.193-1.684a5.11,5.11,0,0,1-1.655,1.434,4.285,4.285,0,0,1-2.031.488,2.892,2.892,0,0,1-2.611-1.308,5.438,5.438,0,0,1-.313-3.983l1.445-7.258h2.2l-1.456,7.282a4.741,4.741,0,0,0-.046,2.769,1.573,1.573,0,0,0,1.513.678,3.469,3.469,0,0,0,1.838-.5,4.318,4.318,0,0,0,1.394-1.389l1.763-8.84h2.2l-2.458,12.311Z"/>
      <path id="Trazado_214009" data-name="Trazado 214009" d="M388.009,589.2a8.557,8.557,0,0,1-1.922,4.266,4.578,4.578,0,0,1-3.481,1.433,3.094,3.094,0,0,1-1.775-.546,3.844,3.844,0,0,1-1.286-1.491l-.581,1.8h-1.9l3.549-17.748h2.2l-1.308,6.553a4.653,4.653,0,0,1,1.456-1,4.4,4.4,0,0,1,1.752-.346,3.122,3.122,0,0,1,2.953,1.967,7.615,7.615,0,0,1,.392,4.869Zm-2.15-.24a6.752,6.752,0,0,0-.074-3.623,1.968,1.968,0,0,0-2.008-1.393,2.489,2.489,0,0,0-1.519.522,5.069,5.069,0,0,0-1.245,1.4l-1.081,5.438a2.7,2.7,0,0,0,.887,1.291,2.473,2.473,0,0,0,1.582.484,2.725,2.725,0,0,0,2.2-1.029,6.376,6.376,0,0,0,1.218-2.85Z"/>
      <path id="Trazado_214010" data-name="Trazado 214010" d="M394.653,593.13a3.027,3.027,0,0,0,1.872-.689,2.614,2.614,0,0,0,1.052-1.676h1.969l.022.068a4.315,4.315,0,0,1-1.775,2.861,5.446,5.446,0,0,1-3.413,1.2,3.832,3.832,0,0,1-3.516-1.776,6.194,6.194,0,0,1-.682-4.379l.08-.478a8.133,8.133,0,0,1,2.019-4.432,5.406,5.406,0,0,1,4.136-1.711,3.842,3.842,0,0,1,3.066,1.28,3.561,3.561,0,0,1,.768,3.134l-.023.057h-1.991a2.432,2.432,0,0,0-.387-1.945,2.011,2.011,0,0,0-1.706-.764,2.893,2.893,0,0,0-2.469,1.285,7.1,7.1,0,0,0-1.206,3.09l-.08.479a6.258,6.258,0,0,0,.16,3.175,1.994,1.994,0,0,0,2.1,1.221"/>
      <path id="Trazado_214011" data-name="Trazado 214011" d="M403.551,594.656h-2.2l3.55-17.748h2.2Z"/>
      <path id="Trazado_214012" data-name="Trazado 214012" d="M413.836,594.656c0-.371.007-.678.023-.916s.041-.485.079-.735a7.007,7.007,0,0,1-1.746,1.348,4.06,4.06,0,0,1-1.974.541,2.989,2.989,0,0,1-2.486-1.006,3.115,3.115,0,0,1-.45-2.691,4.094,4.094,0,0,1,1.849-2.817,7.022,7.022,0,0,1,3.806-.937h2.1l.238-1.219a2.068,2.068,0,0,0-.25-1.746,1.92,1.92,0,0,0-1.592-.6,2.874,2.874,0,0,0-1.73.565,2.141,2.141,0,0,0-.921,1.314H408.7l-.023-.068a3.859,3.859,0,0,1,1.706-2.5,5.834,5.834,0,0,1,3.527-1.074,3.868,3.868,0,0,1,2.9,1.085,3.21,3.21,0,0,1,.677,3.043l-1.184,5.928a11.635,11.635,0,0,0-.2,1.285,6.289,6.289,0,0,0,0,1.2Zm-2.913-1.639a3.82,3.82,0,0,0,1.877-.535,4.451,4.451,0,0,0,1.479-1.262l.456-2.265h-2.173a3.23,3.23,0,0,0-2.026.7,2.64,2.64,0,0,0-1.069,1.592,1.576,1.576,0,0,0,.17,1.326,1.558,1.558,0,0,0,1.286.449"/>
      <path id="Trazado_214013" data-name="Trazado 214013" d="M423.37,591.027l.034.727.069.011.284-.738,3.959-8.682h2.241l-6.166,12.311h-1.65l-2.287-12.311h2.253Z"/>
      <path id="Trazado_214014" data-name="Trazado 214014" d="M434.576,594.894a3.992,3.992,0,0,1-3.51-1.723,5.915,5.915,0,0,1-.756-4.432l.079-.5a7.7,7.7,0,0,1,2.156-4.425,5.248,5.248,0,0,1,3.726-1.694,3.563,3.563,0,0,1,3.243,1.516,5.617,5.617,0,0,1,.591,4l-.227,1.4H432.46a4.927,4.927,0,0,0,.347,2.989,2.127,2.127,0,0,0,2.042,1.107,5.321,5.321,0,0,0,3.4-1.211l.625,1.459a5.574,5.574,0,0,1-1.774,1.082,6.761,6.761,0,0,1-2.526.434M436,583.88a2.562,2.562,0,0,0-1.849.957,5.543,5.543,0,0,0-1.279,2.365l.034.069h5.062l.046-.295a3.446,3.446,0,0,0-.262-2.237A1.827,1.827,0,0,0,436,583.88"/>
      <path id="Trazado_214015" data-name="Trazado 214015" d="M447.319,594.656l2.128-10.65h-1.786l.33-1.661h1.786l.273-1.332a5.252,5.252,0,0,1,6.547-4.162,12.828,12.828,0,0,1,1.53.512l-.75,1.82a6,6,0,0,0-1.092-.41,4.732,4.732,0,0,0-1.264-.17,2.733,2.733,0,0,0-1.854.6,3.06,3.06,0,0,0-.921,1.808l-.273,1.332h2.218l-.33,1.661h-2.218l-2.128,10.65Zm8.408,0H453.52l2.457-12.311h2.208Z"/>
      <path id="Trazado_214016" data-name="Trazado 214016" d="M463.224,584.041a5.374,5.374,0,0,1,1.7-1.428,4.353,4.353,0,0,1,2.042-.494,2.957,2.957,0,0,1,2.583,1.182,4.609,4.609,0,0,1,.364,3.584l-1.559,7.771h-2.2l1.546-7.724a3.362,3.362,0,0,0-.09-2.362,1.911,1.911,0,0,0-1.684-.631,3,3,0,0,0-1.582.483,4.887,4.887,0,0,0-1.376,1.291l-1.787,8.943h-2.2l2.457-12.31h1.968Z"/>
      <path id="Trazado_214017" data-name="Trazado 214017" d="M478.47,594.656c0-.371.007-.678.023-.916s.041-.485.079-.735a7.007,7.007,0,0,1-1.746,1.348,4.06,4.06,0,0,1-1.974.541,2.989,2.989,0,0,1-2.486-1.006,3.115,3.115,0,0,1-.45-2.691,4.1,4.1,0,0,1,1.849-2.817,7.022,7.022,0,0,1,3.806-.937h2.1l.238-1.219a2.068,2.068,0,0,0-.25-1.746,1.92,1.92,0,0,0-1.592-.6,2.874,2.874,0,0,0-1.73.565,2.141,2.141,0,0,0-.921,1.314h-2.082l-.023-.068a3.859,3.859,0,0,1,1.706-2.5,5.834,5.834,0,0,1,3.527-1.074,3.868,3.868,0,0,1,2.9,1.085,3.21,3.21,0,0,1,.677,3.043l-1.184,5.928a11.635,11.635,0,0,0-.2,1.285,6.289,6.289,0,0,0,0,1.2Zm-2.913-1.639a3.82,3.82,0,0,0,1.877-.535,4.451,4.451,0,0,0,1.479-1.262l.456-2.265H477.2a3.23,3.23,0,0,0-2.026.7,2.64,2.64,0,0,0-1.069,1.592,1.576,1.576,0,0,0,.17,1.326,1.558,1.558,0,0,0,1.286.449"/>
      <path id="Trazado_214018" data-name="Trazado 214018" d="M485.887,594.656h-2.2l3.55-17.748h2.2Z"/>
      <path id="Trazado_214019" data-name="Trazado 214019" d="M350.716,35.409h-2.162v5.86h-3.993V24.7h6.519a7.281,7.281,0,0,1,4.608,1.308,4.428,4.428,0,0,1,1.661,3.693,5.371,5.371,0,0,1-.7,2.864,4.965,4.965,0,0,1-2.19,1.841l3.459,6.689v.171H353.64Zm-2.162-3.071h2.526a2.268,2.268,0,0,0,1.712-.6,2.724,2.724,0,0,0-.006-3.353,2.242,2.242,0,0,0-1.706-.61h-2.526Z"/>
      <path id="Trazado_214020" data-name="Trazado 214020" d="M359.1,35a7.264,7.264,0,0,1,.717-3.283,5.117,5.117,0,0,1,2.059-2.212,6.2,6.2,0,0,1,3.151-.774,5.658,5.658,0,0,1,4.358,1.712,6.569,6.569,0,0,1,1.592,4.659v.136a6.373,6.373,0,0,1-1.6,4.568,5.676,5.676,0,0,1-4.329,1.69,5.743,5.743,0,0,1-4.221-1.576,6.163,6.163,0,0,1-1.718-4.272Zm3.834.238a4.573,4.573,0,0,0,.535,2.5,1.78,1.78,0,0,0,1.581.8q2.047,0,2.093-3.152V35q0-3.311-2.116-3.311-1.922,0-2.082,2.856Z"/>
      <path id="Trazado_214021" data-name="Trazado 214021" d="M376.189,28.959l.125,1.444a4.173,4.173,0,0,1,3.515-1.672A3.514,3.514,0,0,1,382.7,29.88a5.475,5.475,0,0,1,.984,3.459v7.93H379.84V33.5a2.079,2.079,0,0,0-.375-1.371,1.739,1.739,0,0,0-1.365-.438,1.829,1.829,0,0,0-1.673.887v8.693h-3.833V28.959Z"/>
      <path id="Trazado_214022" data-name="Trazado 214022" d="M385.325,35.022a7.519,7.519,0,0,1,1.263-4.608,4.154,4.154,0,0,1,3.527-1.683,3.529,3.529,0,0,1,2.775,1.3V23.792h3.846V41.268h-3.447l-.193-1.32a3.632,3.632,0,0,1-3,1.547,4.149,4.149,0,0,1-3.481-1.683,7.755,7.755,0,0,1-1.286-4.79m3.834.239q0,3.277,1.911,3.276a1.885,1.885,0,0,0,1.82-1.069V32.781a1.834,1.834,0,0,0-1.8-1.092q-1.774,0-1.923,2.866Z"/>
      <path id="Trazado_214023" data-name="Trazado 214023" d="M405.848,41.268a4.341,4.341,0,0,1-.363-1.1,3.565,3.565,0,0,1-2.958,1.331,4.363,4.363,0,0,1-2.958-1.052,3.348,3.348,0,0,1-1.218-2.645,3.441,3.441,0,0,1,1.479-3.026,7.533,7.533,0,0,1,4.3-1.025h1.183V33.1q0-1.7-1.468-1.7a1.2,1.2,0,0,0-1.365,1.349h-3.834a3.435,3.435,0,0,1,1.519-2.9,6.383,6.383,0,0,1,3.874-1.113,5.6,5.6,0,0,1,3.72,1.148,4,4,0,0,1,1.4,3.152v5.45a5.59,5.59,0,0,0,.524,2.594v.193Zm-2.4-2.5a2.138,2.138,0,0,0,1.189-.308,1.926,1.926,0,0,0,.677-.693V35.795H404.2q-2,0-2,1.8a1.1,1.1,0,0,0,.352.848,1.277,1.277,0,0,0,.9.324"/>
      <rect id="Rectángulo_41033" data-name="Rectángulo 41033" width="3.982" height="16.565" transform="translate(417.533 24.703)"/>
      <path id="Trazado_214024" data-name="Trazado 214024" d="M427.636,28.959l.125,1.444a4.175,4.175,0,0,1,3.516-1.672,3.515,3.515,0,0,1,2.873,1.149,5.475,5.475,0,0,1,.984,3.459v7.93h-3.846V33.5a2.079,2.079,0,0,0-.375-1.371,1.739,1.739,0,0,0-1.365-.438,1.828,1.828,0,0,0-1.673.887v8.693h-3.834V28.959Z"/>
      <path id="Trazado_214025" data-name="Trazado 214025" d="M437.227,25.772a1.73,1.73,0,0,1,.591-1.351,2.506,2.506,0,0,1,3.072,0,1.839,1.839,0,0,1,0,2.7,2.506,2.506,0,0,1-3.072,0,1.731,1.731,0,0,1-.591-1.352m4.073,15.5h-3.845V28.958H441.3Z"/>
      <path id="Trazado_214026" data-name="Trazado 214026" d="M448.866,38.538a1.7,1.7,0,0,0,1.251-.438,1.607,1.607,0,0,0,.433-1.223h3.6a4.257,4.257,0,0,1-1.451,3.322,5.4,5.4,0,0,1-3.737,1.3,5.467,5.467,0,0,1-4.233-1.684,6.637,6.637,0,0,1-1.546-4.665v-.159a7.5,7.5,0,0,1,.688-3.294,5.007,5.007,0,0,1,1.985-2.195,5.921,5.921,0,0,1,3.072-.768,5.328,5.328,0,0,1,3.811,1.331,4.719,4.719,0,0,1,1.411,3.607h-3.6a2.1,2.1,0,0,0-.467-1.468,1.607,1.607,0,0,0-1.251-.512q-1.491,0-1.741,1.9a13.449,13.449,0,0,0-.079,1.661,5.263,5.263,0,0,0,.443,2.571,1.536,1.536,0,0,0,1.411.717"/>
      <path id="Trazado_214027" data-name="Trazado 214027" d="M455.738,25.772a1.73,1.73,0,0,1,.591-1.351,2.506,2.506,0,0,1,3.072,0,1.839,1.839,0,0,1,0,2.7,2.506,2.506,0,0,1-3.072,0,1.73,1.73,0,0,1-.591-1.352m4.073,15.5h-3.845V28.958h3.845Z"/>
      <path id="Trazado_214028" data-name="Trazado 214028" d="M469.105,41.268a4.338,4.338,0,0,1-.363-1.1,3.565,3.565,0,0,1-2.958,1.331,4.363,4.363,0,0,1-2.958-1.052,3.348,3.348,0,0,1-1.218-2.645,3.441,3.441,0,0,1,1.479-3.026,7.533,7.533,0,0,1,4.3-1.025h1.183V33.1q0-1.7-1.468-1.7a1.2,1.2,0,0,0-1.365,1.349H461.9a3.435,3.435,0,0,1,1.519-2.9,6.383,6.383,0,0,1,3.874-1.113,5.6,5.6,0,0,1,3.72,1.148,4,4,0,0,1,1.4,3.152v5.45a5.59,5.59,0,0,0,.524,2.594v.193Zm-2.4-2.5a2.138,2.138,0,0,0,1.189-.308,1.927,1.927,0,0,0,.677-.693V35.795h-1.115q-2,0-2,1.8a1.1,1.1,0,0,0,.352.848,1.277,1.277,0,0,0,.9.324"/>
      <rect id="Rectángulo_41034" data-name="Rectángulo 41034" width="3.845" height="17.476" transform="translate(474.738 23.792)"/>
      <path id="Trazado_214029" data-name="Trazado 214029" d="M352.331,64.961h-6.349l-2.309,4.268h-2.23l9.283-16.567h1.866l2.56,16.567h-2.241Zm-5.325-1.877h5.063l-1-7.36L351,55.7Z"/>
      <path id="Trazado_214030" data-name="Trazado 214030" d="M357.814,63.073a10.326,10.326,0,0,1,2.009-4.779,4.477,4.477,0,0,1,3.555-1.6,3.716,3.716,0,0,1,1.712.392,3.331,3.331,0,0,1,1.257,1.109l1.343-6.712h2.2l-3.55,17.748h-1.889l.08-1.184a4.694,4.694,0,0,1-1.508,1.065,4.429,4.429,0,0,1-1.78.358,3.238,3.238,0,0,1-2.987-1.775,6.193,6.193,0,0,1-.483-4.38Zm2.162.239a5.119,5.119,0,0,0,.148,3.146,2.045,2.045,0,0,0,2.048,1.189,2.467,2.467,0,0,0,1.45-.45,4.5,4.5,0,0,0,1.178-1.28l1.16-5.813a2.609,2.609,0,0,0-.893-1.161,2.467,2.467,0,0,0-1.485-.432,2.688,2.688,0,0,0-2.258,1.235,8.406,8.406,0,0,0-1.3,3.327Z"/>
      <path id="Trazado_214031" data-name="Trazado 214031" d="M370.283,63.073a10.327,10.327,0,0,1,2.009-4.779,4.478,4.478,0,0,1,3.555-1.6,3.716,3.716,0,0,1,1.712.392,3.331,3.331,0,0,1,1.257,1.109l1.343-6.712h2.2L378.8,69.228h-1.889l.08-1.184a4.694,4.694,0,0,1-1.508,1.065,4.429,4.429,0,0,1-1.78.358,3.238,3.238,0,0,1-2.987-1.775,6.193,6.193,0,0,1-.483-4.38Zm2.162.239a5.119,5.119,0,0,0,.148,3.146,2.045,2.045,0,0,0,2.048,1.189,2.467,2.467,0,0,0,1.45-.45,4.5,4.5,0,0,0,1.178-1.28l1.16-5.813a2.609,2.609,0,0,0-.893-1.161,2.467,2.467,0,0,0-1.485-.432,2.688,2.688,0,0,0-2.258,1.235,8.406,8.406,0,0,0-1.3,3.327Z"/>
      <path id="Trazado_214032" data-name="Trazado 214032" d="M386.041,62.05l-1.433,7.178H382.4l3.31-16.553h5.632a4.655,4.655,0,0,1,3.533,1.228,3.74,3.74,0,0,1,.722,3.482,4.955,4.955,0,0,1-1.086,2.3,5.489,5.489,0,0,1-2.122,1.457,2.618,2.618,0,0,1,1.513,1.467,4.25,4.25,0,0,1,.125,2.4l-.307,1.558a5.065,5.065,0,0,0-.125,1.406,1.793,1.793,0,0,0,.353.983l-.057.273h-2.265a1.542,1.542,0,0,1-.307-1.126,10,10,0,0,1,.2-1.558l.307-1.514a2.841,2.841,0,0,0-.25-2.2,1.945,1.945,0,0,0-1.729-.779Zm.353-1.764H389.6a4.063,4.063,0,0,0,2.555-.744,3.539,3.539,0,0,0,1.257-2.174,2.664,2.664,0,0,0-.273-2.2,2.615,2.615,0,0,0-2.15-.727h-3.425Z"/>
      <path id="Trazado_214033" data-name="Trazado 214033" d="M397.2,62.96a8.323,8.323,0,0,1,2.088-4.557,5.353,5.353,0,0,1,4.033-1.712,3.815,3.815,0,0,1,3.442,1.781,6.251,6.251,0,0,1,.711,4.488l-.034.25a8.325,8.325,0,0,1-2.1,4.556,5.37,5.37,0,0,1-4.033,1.7,3.82,3.82,0,0,1-3.442-1.776,6.2,6.2,0,0,1-.7-4.482Zm2.162.244a5.957,5.957,0,0,0,.2,3.267,2,2,0,0,0,2.02,1.233,2.893,2.893,0,0,0,2.366-1.29,7.066,7.066,0,0,0,1.286-3.21l.034-.25a5.934,5.934,0,0,0-.217-3.25,1.984,1.984,0,0,0-2-1.25,2.886,2.886,0,0,0-2.373,1.3,7.137,7.137,0,0,0-1.28,3.2Z"/>
      <path id="Trazado_214034" data-name="Trazado 214034" d="M416.338,69.228l.193-1.684a5.1,5.1,0,0,1-1.655,1.434,4.286,4.286,0,0,1-2.031.489,2.894,2.894,0,0,1-2.611-1.308,5.439,5.439,0,0,1-.313-3.983l1.445-7.258h2.2L412.106,64.2a4.742,4.742,0,0,0-.046,2.769,1.575,1.575,0,0,0,1.513.678,3.47,3.47,0,0,0,1.838-.5,4.315,4.315,0,0,0,1.394-1.388l1.763-8.84h2.2l-2.458,12.31Z"/>
      <path id="Trazado_214035" data-name="Trazado 214035" d="M425.656,58.613a5.374,5.374,0,0,1,1.7-1.428,4.352,4.352,0,0,1,2.042-.494,2.957,2.957,0,0,1,2.583,1.183,4.608,4.608,0,0,1,.364,3.584l-1.559,7.77h-2.195l1.546-7.724a3.364,3.364,0,0,0-.09-2.362,1.914,1.914,0,0,0-1.684-.631,3,3,0,0,0-1.582.484,4.872,4.872,0,0,0-1.376,1.291l-1.787,8.942h-2.195l2.457-12.309h1.968Z"/>
      <path id="Trazado_214036" data-name="Trazado 214036" d="M434.643,63.073a10.326,10.326,0,0,1,2.009-4.779,4.477,4.477,0,0,1,3.555-1.6,3.716,3.716,0,0,1,1.712.392,3.331,3.331,0,0,1,1.257,1.109l1.343-6.712h2.2l-3.55,17.748h-1.889l.08-1.184a4.693,4.693,0,0,1-1.508,1.065,4.429,4.429,0,0,1-1.78.358,3.238,3.238,0,0,1-2.987-1.775,6.193,6.193,0,0,1-.483-4.38Zm2.162.239a5.119,5.119,0,0,0,.148,3.146A2.045,2.045,0,0,0,439,67.647a2.467,2.467,0,0,0,1.45-.45,4.5,4.5,0,0,0,1.178-1.28l1.16-5.813a2.609,2.609,0,0,0-.893-1.161,2.467,2.467,0,0,0-1.485-.432,2.688,2.688,0,0,0-2.258,1.235,8.406,8.406,0,0,0-1.3,3.327Z"/>
      <path id="Trazado_214037" data-name="Trazado 214037" d="M451.618,61.742h-1.456l-1.491,7.486h-2.207l3.311-16.565h2.207l-1.445,7.2h1.616l6.087-7.2h2.7l.023.058-7.441,8.259,4.38,8.248h-2.5Z"/>
      <path id="Trazado_214038" data-name="Trazado 214038" d="M464.144,69.468a3.992,3.992,0,0,1-3.51-1.724,5.914,5.914,0,0,1-.756-4.432l.079-.5a7.7,7.7,0,0,1,2.156-4.425,5.245,5.245,0,0,1,3.726-1.695,3.565,3.565,0,0,1,3.243,1.516,5.619,5.619,0,0,1,.591,4l-.227,1.4h-7.418a4.922,4.922,0,0,0,.347,2.988,2.128,2.128,0,0,0,2.042,1.108,5.224,5.224,0,0,0,1.878-.334,5.3,5.3,0,0,0,1.524-.877l.625,1.459a5.609,5.609,0,0,1-1.774,1.082,6.762,6.762,0,0,1-2.526.434m1.422-11.014a2.56,2.56,0,0,0-1.849.956,5.541,5.541,0,0,0-1.279,2.366l.034.069h5.062l.046-.3a3.443,3.443,0,0,0-.262-2.236,1.827,1.827,0,0,0-1.752-.859"/>
      <path id="Trazado_214039" data-name="Trazado 214039" d="M475.112,64.666l.057,1.4.068.012,4.574-9.158h2.446l-7.623,14.2a8.867,8.867,0,0,1-1.707,2.161,3.37,3.37,0,0,1-2.366.922,4.264,4.264,0,0,1-.637-.062c-.266-.042-.47-.082-.614-.119l.58-1.764.33.022c.326.024.527.035.6.035a1.645,1.645,0,0,0,1.188-.683,7.3,7.3,0,0,0,.962-1.365l.751-1.286-1.832-12.059h2.458Z"/>
      <path id="Trazado_214040" data-name="Trazado 214040" d="M646.513,398.07H408.6v-2H644.513V130.256H441.707v-2H646.513Z" fill="#5c379b"/>
      <path id="Trazado_214041" data-name="Trazado 214041" d="M448.334,121.076l1.364,1.465-7.223,6.713,7.223,6.715-1.364,1.464-8.8-8.179Z" fill="#5c379b"/>
      <path id="Trazado_214042" data-name="Trazado 214042" d="M95.694,89.713H14.286V14.456H95.694Zm-79.408-2H93.694V16.456H16.286Z" fill="gray"/>
      <rect id="Rectángulo_41035" data-name="Rectángulo 41035" width="2" height="73.815" transform="translate(34.79 15.271)" fill="gray"/>
      <rect id="Rectángulo_41036" data-name="Rectángulo 41036" width="2" height="73.144" transform="translate(54.922 15.643)" fill="gray"/>
      <rect id="Rectángulo_41037" data-name="Rectángulo 41037" width="2" height="73.011" transform="translate(73.935 16.016)" fill="gray"/>
      <rect id="Rectángulo_41038" data-name="Rectángulo 41038" width="80.153" height="2" transform="translate(15.286 34.029)" fill="gray"/>
      <rect id="Rectángulo_41039" data-name="Rectángulo 41039" width="77.917" height="2" transform="translate(16.404 49.314)" fill="gray"/>
      <rect id="Rectángulo_41040" data-name="Rectángulo 41040" width="79.035" height="2" transform="translate(16.777 67.582)" fill="gray"/>
      <path id="Trazado_214043" data-name="Trazado 214043" d="M110.792,587.128H29.385V511.872h81.407Zm-79.407-2h77.407V513.872H31.385Z" fill="gray"/>
      <rect id="Rectángulo_41041" data-name="Rectángulo 41041" width="2" height="73.815" transform="translate(49.889 512.687)" fill="gray"/>
      <rect id="Rectángulo_41042" data-name="Rectángulo 41042" width="2" height="72.915" transform="translate(70.02 513.058)" fill="gray"/>
      <rect id="Rectángulo_41043" data-name="Rectángulo 41043" width="2" height="72.542" transform="translate(89.033 513.431)" fill="gray"/>
      <rect id="Rectángulo_41044" data-name="Rectángulo 41044" width="80.153" height="2" transform="translate(30.385 531.445)" fill="gray"/>
      <rect id="Rectángulo_41045" data-name="Rectángulo 41045" width="77.916" height="2" transform="translate(31.503 546.729)" fill="gray"/>
      <rect id="Rectángulo_41046" data-name="Rectángulo 41046" width="79.035" height="2" transform="translate(31.875 564.997)" fill="gray"/>
      <path id="Trazado_214044" data-name="Trazado 214044" d="M781.841,89.713H700.434V14.456h81.407Zm-79.407-2h77.407V16.456H702.434Z" fill="#e01650"/>
      <rect id="Rectángulo_41047" data-name="Rectángulo 41047" width="2" height="73.815" transform="translate(720.938 15.271)" fill="#e01650"/>
      <rect id="Rectángulo_41048" data-name="Rectángulo 41048" width="2" height="74.562" transform="translate(741.07 15.643)" fill="#e01650"/>
      <rect id="Rectángulo_41049" data-name="Rectángulo 41049" width="2" height="70.46" transform="translate(760.083 16.016)" fill="#e01650"/>
      <rect id="Rectángulo_41050" data-name="Rectángulo 41050" width="80.153" height="2" transform="translate(701.434 34.029)" fill="#e01650"/>
      <rect id="Rectángulo_41051" data-name="Rectángulo 41051" width="77.916" height="2" transform="translate(702.553 49.314)" fill="#e01650"/>
      <rect id="Rectángulo_41052" data-name="Rectángulo 41052" width="79.035" height="2" transform="translate(702.925 67.582)" fill="#e01650"/>
      <path id="Trazado_214045" data-name="Trazado 214045" d="M785.569,295.5H704.162V220.246h81.407Zm-79.407-2h77.407V222.246H706.162Z" fill="#e01650"/>
      <rect id="Rectángulo_41053" data-name="Rectángulo 41053" width="2" height="73.815" transform="translate(724.666 221.06)" fill="#e01650"/>
      <rect id="Rectángulo_41054" data-name="Rectángulo 41054" width="2" height="74.561" transform="translate(744.798 221.432)" fill="#e01650"/>
      <rect id="Rectángulo_41055" data-name="Rectángulo 41055" width="2" height="70.461" transform="translate(763.811 221.804)" fill="#e01650"/>
      <rect id="Rectángulo_41056" data-name="Rectángulo 41056" width="80.153" height="2" transform="translate(705.162 239.818)" fill="#e01650"/>
      <rect id="Rectángulo_41057" data-name="Rectángulo 41057" width="77.916" height="2" transform="translate(706.281 255.103)" fill="#e01650"/>
      <rect id="Rectángulo_41058" data-name="Rectángulo 41058" width="79.035" height="2" transform="translate(706.653 273.37)" fill="#e01650"/>
      <path id="Trazado_214046" data-name="Trazado 214046" d="M900.393,295.5H818.986V220.246h81.407Zm-79.407-2h77.407V222.246H820.986Z" fill="#e01650"/>
      <rect id="Rectángulo_41059" data-name="Rectángulo 41059" width="2" height="73.815" transform="translate(839.49 221.06)" fill="#e01650"/>
      <rect id="Rectángulo_41060" data-name="Rectángulo 41060" width="2" height="74.561" transform="translate(859.622 221.432)" fill="#e01650"/>
      <rect id="Rectángulo_41061" data-name="Rectángulo 41061" width="2" height="70.461" transform="translate(878.635 221.804)" fill="#e01650"/>
      <rect id="Rectángulo_41062" data-name="Rectángulo 41062" width="80.153" height="2" transform="translate(819.986 239.818)" fill="#e01650"/>
      <rect id="Rectángulo_41063" data-name="Rectángulo 41063" width="77.916" height="2" transform="translate(821.105 255.103)" fill="#e01650"/>
      <rect id="Rectángulo_41064" data-name="Rectángulo 41064" width="79.035" height="2" transform="translate(821.477 273.37)" fill="#e01650"/>
      <path id="Trazado_214047" data-name="Trazado 214047" d="M753.6,589.086H672.194V513.83H753.6Zm-79.407-2H751.6V515.83H674.194Z" fill="#e01650"/>
      <rect id="Rectángulo_41065" data-name="Rectángulo 41065" width="2" height="73.815" transform="translate(692.698 514.644)" fill="#e01650"/>
      <rect id="Rectángulo_41066" data-name="Rectángulo 41066" width="2" height="74.561" transform="translate(712.83 515.016)" fill="#e01650"/>
      <rect id="Rectángulo_41067" data-name="Rectángulo 41067" width="2" height="70.461" transform="translate(731.843 515.388)" fill="#e01650"/>
      <rect id="Rectángulo_41068" data-name="Rectángulo 41068" width="80.153" height="2" transform="translate(673.194 533.402)" fill="#e01650"/>
      <rect id="Rectángulo_41069" data-name="Rectángulo 41069" width="77.916" height="2" transform="translate(674.313 548.687)" fill="#e01650"/>
      <rect id="Rectángulo_41070" data-name="Rectángulo 41070" width="79.035" height="2" transform="translate(674.685 566.954)" fill="#e01650"/>
    </g>
  </g>
</svg>
