<svg id="Grupo_143819" data-name="Grupo 143819" xmlns="http://www.w3.org/2000/svg" xmlns:xlink="http://www.w3.org/1999/xlink" width="849.355" height="110.773" viewBox="0 0 849.355 110.773">
  <defs>
    <clipPath id="clip-path">
      <rect id="Rectángulo_39855" data-name="Rectángulo 39855" width="849.355" height="110.773" fill="none"/>
    </clipPath>
  </defs>
  <path id="Trazado_192890" data-name="Trazado 192890" d="M333.57,109.343V19.683L316.976,7.92H1V97.582l16.594,11.762Z" transform="translate(-0.199 -1.574)" fill="#ffd8e3"/>
  <g id="Grupo_143816" data-name="Grupo 143816">
    <g id="Grupo_143815" data-name="Grupo 143815" clip-path="url(#clip-path)">
      <path id="Trazado_192891" data-name="Trazado 192891" d="M333.57,109.343V19.683L316.976,7.92H1V97.582l16.594,11.762Z" transform="translate(-0.199 -1.574)" fill="none" stroke="#5c379b" stroke-miterlimit="10" stroke-width="2"/>
    </g>
  </g>
  <path id="Trazado_192892" data-name="Trazado 192892" d="M62.356,29.858h-4l-.776,2.612H54.3l4.385-13.441h1.671v.01l.01-.01h1.671L66.426,32.47H63.14Zm-3.277-2.4h2.557l-1.255-4.172h-.055Z" transform="translate(-10.788 -3.781)"/>
  <rect id="Rectángulo_39856" data-name="Rectángulo 39856" width="3.129" height="14.401" transform="translate(56.553 14.288)"/>
  <g id="Grupo_143818" data-name="Grupo 143818">
    <g id="Grupo_143817" data-name="Grupo 143817" clip-path="url(#clip-path)">
      <path id="Trazado_192893" data-name="Trazado 192893" d="M76.336,28.305a6.351,6.351,0,0,1,1.02-3.767,3.326,3.326,0,0,1,2.875-1.431,2.563,2.563,0,0,1,1.385.374,3.314,3.314,0,0,1,1.034,1.057l.2-1.246H85.6v9.877a3.7,3.7,0,0,1-1.353,3.06,5.8,5.8,0,0,1-3.724,1.085A6.69,6.69,0,0,1,78.9,37.1a9,9,0,0,1-1.625-.573l.536-2.307a7.375,7.375,0,0,0,1.288.438,6.238,6.238,0,0,0,1.408.143,2.311,2.311,0,0,0,1.482-.4,1.529,1.529,0,0,0,.484-1.255v-.776a2.707,2.707,0,0,1-2.261,1.1,3.356,3.356,0,0,1-2.861-1.366,5.907,5.907,0,0,1-1.015-3.61Zm3.111.193a4.148,4.148,0,0,0,.355,1.9,1.25,1.25,0,0,0,1.205.679,2.211,2.211,0,0,0,.873-.157,1.427,1.427,0,0,0,.595-.471v-4.2a1.55,1.55,0,0,0-.591-.549,1.824,1.824,0,0,0-.858-.189,1.255,1.255,0,0,0-1.205.77,4.678,4.678,0,0,0-.373,2.027Z" transform="translate(-15.167 -4.591)"/>
      <path id="Trazado_192894" data-name="Trazado 192894" d="M89.606,28.194a5.274,5.274,0,0,1,1.275-3.669,5.175,5.175,0,0,1,7.116,0,5.278,5.278,0,0,1,1.275,3.669v.194A5.275,5.275,0,0,1,98,32.062a5.187,5.187,0,0,1-7.116,0,5.271,5.271,0,0,1-1.275-3.674Zm3.121.194a4.113,4.113,0,0,0,.393,1.97,1.393,1.393,0,0,0,1.333.716,1.377,1.377,0,0,0,1.31-.721,4.094,4.094,0,0,0,.4-1.966v-.194a4.113,4.113,0,0,0-.4-1.953,1.389,1.389,0,0,0-1.329-.734,1.37,1.37,0,0,0-1.315.739,4.14,4.14,0,0,0-.393,1.948Z" transform="translate(-17.804 -4.591)"/>
      <path id="Trazado_192895" data-name="Trazado 192895" d="M108.905,25.95l-1.015-.009a1.73,1.73,0,0,0-.877.2,1.223,1.223,0,0,0-.507.559V33.28h-3.12V23.292h2.935l.111,1.468a3,3,0,0,1,.83-1.22,1.827,1.827,0,0,1,1.209-.434,2.431,2.431,0,0,1,.379.027,2.907,2.907,0,0,1,.351.084Z" transform="translate(-20.542 -4.591)"/>
      <path id="Trazado_192896" data-name="Trazado 192896" d="M115,19.926h-3.129v-2.1H115Zm0,12.306h-3.129V22.244H115Z" transform="translate(-22.229 -3.543)"/>
      <path id="Trazado_192897" data-name="Trazado 192897" d="M121.516,20.239v2.483h1.579v2.16h-1.579v4.579a1.12,1.12,0,0,0,.217.771.759.759,0,0,0,.586.235,3.032,3.032,0,0,0,.383-.018,3.113,3.113,0,0,0,.365-.075l.212,2.309a7.467,7.467,0,0,1-.849.171,6.874,6.874,0,0,1-.9.051,3.115,3.115,0,0,1-2.34-.822,3.623,3.623,0,0,1-.8-2.6v-4.6H117v-2.16H118.4V20.239Z" transform="translate(-23.247 -4.021)"/>
      <path id="Trazado_192898" data-name="Trazado 192898" d="M129.43,23.292l.111,1.32a3.306,3.306,0,0,1,1.187-1.112,3.35,3.35,0,0,1,1.638-.392,3.054,3.054,0,0,1,1.607.405,2.5,2.5,0,0,1,1.015,1.237,3.336,3.336,0,0,1,1.187-1.213,3.251,3.251,0,0,1,1.693-.429,2.773,2.773,0,0,1,2.294,1.047A5.138,5.138,0,0,1,141,27.382v5.9h-3.13v-5.9a2.6,2.6,0,0,0-.3-1.473,1.052,1.052,0,0,0-.9-.4,1.862,1.862,0,0,0-.8.162,1.673,1.673,0,0,0-.586.447c0,.1,0,.2.009.272s.01.152.01.226v6.665h-3.12v-5.9a2.626,2.626,0,0,0-.3-1.478,1.065,1.065,0,0,0-.913-.4,1.792,1.792,0,0,0-.771.162,1.684,1.684,0,0,0-.587.447v7.164h-3.12V23.292Z" transform="translate(-25.133 -4.591)"/>
      <path id="Trazado_192899" data-name="Trazado 192899" d="M146.3,28.194a5.277,5.277,0,0,1,1.274-3.669,5.176,5.176,0,0,1,7.117,0,5.278,5.278,0,0,1,1.274,3.669v.194a5.275,5.275,0,0,1-1.274,3.674,5.188,5.188,0,0,1-7.117,0,5.275,5.275,0,0,1-1.274-3.674Zm3.12.194a4.122,4.122,0,0,0,.393,1.97,1.4,1.4,0,0,0,1.333.716,1.379,1.379,0,0,0,1.311-.721,4.1,4.1,0,0,0,.4-1.966v-.194a4.113,4.113,0,0,0-.4-1.953,1.391,1.391,0,0,0-1.329-.734,1.37,1.37,0,0,0-1.315.739,4.15,4.15,0,0,0-.393,1.948Z" transform="translate(-29.068 -4.591)"/>
      <path id="Trazado_192900" data-name="Trazado 192900" d="M165.433,27.257a6.351,6.351,0,0,1,1.02-3.767,3.328,3.328,0,0,1,2.876-1.431,2.483,2.483,0,0,1,1.251.319,3.314,3.314,0,0,1,1,.909V17.831H174.7v14.4h-2.732l-.212-1.219a3.367,3.367,0,0,1-1.058,1.048,2.639,2.639,0,0,1-1.389.365,3.355,3.355,0,0,1-2.861-1.366,5.9,5.9,0,0,1-1.016-3.61Zm3.12.193a4.158,4.158,0,0,0,.355,1.9,1.242,1.242,0,0,0,1.2.679,1.966,1.966,0,0,0,.863-.18,1.55,1.55,0,0,0,.614-.531V25.281a1.71,1.71,0,0,0-.61-.61,1.679,1.679,0,0,0-.849-.212,1.245,1.245,0,0,0-1.2.766,4.706,4.706,0,0,0-.369,2.031Z" transform="translate(-32.87 -3.543)"/>
      <path id="Trazado_192901" data-name="Trazado 192901" d="M183.539,33.473a4.638,4.638,0,0,1-3.559-1.375,4.89,4.89,0,0,1-1.288-3.48v-.352a5.585,5.585,0,0,1,1.214-3.729,4.312,4.312,0,0,1,3.512-1.43,4.044,4.044,0,0,1,3.134,1.209,4.709,4.709,0,0,1,1.112,3.313v1.634h-5.723l-.018.056a1.94,1.94,0,0,0,.581,1.269,2.034,2.034,0,0,0,1.459.485,6.325,6.325,0,0,0,1.491-.147,9.425,9.425,0,0,0,1.361-.471l.748,1.9a5.715,5.715,0,0,1-1.736.794,8,8,0,0,1-2.289.323m-.12-7.967a1.285,1.285,0,0,0-1.1.476,2.378,2.378,0,0,0-.411,1.287l.018.046h2.7v-.24a2.082,2.082,0,0,0-.272-1.173,1.045,1.045,0,0,0-.928-.4" transform="translate(-35.505 -4.591)"/>
      <path id="Trazado_192902" data-name="Trazado 192902" d="M197.941,32.184V24.355h-1.45V22.2h1.45v-.481a3.832,3.832,0,0,1,1.228-3.059,5.158,5.158,0,0,1,3.489-1.067,8.6,8.6,0,0,1,1.542.139q.766.138,1.708.4l-.425,2.454q-.793-.2-1.325-.3a7.193,7.193,0,0,0-1.315-.1,1.948,1.948,0,0,0-1.321.4,1.429,1.429,0,0,0-.462,1.139V22.2h1.957v2.16h-1.957v7.829Zm9.4,0h-3.129V22.2h3.129Z" transform="translate(-39.041 -3.495)"/>
      <path id="Trazado_192903" data-name="Trazado 192903" d="M217.933,25.95l-1.015-.009a1.73,1.73,0,0,0-.877.2,1.223,1.223,0,0,0-.507.559V33.28h-3.12V23.292h2.935l.111,1.468a3,3,0,0,1,.83-1.22,1.827,1.827,0,0,1,1.209-.434,2.431,2.431,0,0,1,.379.027,2.907,2.907,0,0,1,.351.084Z" transform="translate(-42.205 -4.591)"/>
      <path id="Trazado_192904" data-name="Trazado 192904" d="M223.666,23.292l.111,1.32a3.306,3.306,0,0,1,1.187-1.112,3.35,3.35,0,0,1,1.638-.392,3.054,3.054,0,0,1,1.607.405,2.5,2.5,0,0,1,1.015,1.237,3.336,3.336,0,0,1,1.187-1.213,3.251,3.251,0,0,1,1.693-.429,2.773,2.773,0,0,1,2.294,1.047,5.138,5.138,0,0,1,.836,3.227v5.9H232.1v-5.9a2.6,2.6,0,0,0-.3-1.473,1.052,1.052,0,0,0-.9-.4,1.862,1.862,0,0,0-.8.162,1.673,1.673,0,0,0-.586.447c0,.1,0,.2.009.272s.01.152.01.226v6.665h-3.12v-5.9a2.626,2.626,0,0,0-.3-1.478,1.065,1.065,0,0,0-.913-.4,1.792,1.792,0,0,0-.771.162,1.684,1.684,0,0,0-.587.447v7.164h-3.12V23.292Z" transform="translate(-43.857 -4.591)"/>
      <path id="Trazado_192905" data-name="Trazado 192905" d="M246.676,33.27a3.751,3.751,0,0,1-.3-.71,5.533,5.533,0,0,1-.189-.831,3.821,3.821,0,0,1-1,1.269,2.419,2.419,0,0,1-1.555.475,3.462,3.462,0,0,1-2.442-.807,2.854,2.854,0,0,1-.873-2.2,2.666,2.666,0,0,1,1.117-2.295,5.791,5.791,0,0,1,3.388-.808H246.1v-.71a1.422,1.422,0,0,0-.3-.979,1.188,1.188,0,0,0-.932-.341,1.124,1.124,0,0,0-.808.254,1.054,1.054,0,0,0-.264.789l-3.027-.01-.018-.055a2.6,2.6,0,0,1,1.14-2.285,5.108,5.108,0,0,1,3.18-.918,4.652,4.652,0,0,1,3,.923,3.19,3.19,0,0,1,1.149,2.64v3.766a7.706,7.706,0,0,0,.134,1.477,8.006,8.006,0,0,0,.4,1.366Zm-2.2-2.021a1.9,1.9,0,0,0,1.01-.268,1.534,1.534,0,0,0,.614-.637v-1.32h-1.256a1.407,1.407,0,0,0-1.079.36,1.293,1.293,0,0,0-.333.913.886.886,0,0,0,.291.688,1.078,1.078,0,0,0,.752.263" transform="translate(-47.749 -4.591)"/>
      <path id="Trazado_192906" data-name="Trazado 192906" d="M258.643,30.474a.815.815,0,0,0-.42-.66,4.549,4.549,0,0,0-1.528-.522,6.022,6.022,0,0,1-2.631-1.057,2.393,2.393,0,0,1-.886-1.971,2.807,2.807,0,0,1,1.108-2.238,4.55,4.55,0,0,1,3-.918,5.162,5.162,0,0,1,3.176.89,2.621,2.621,0,0,1,1.126,2.3l-.018.054h-3.028a1.237,1.237,0,0,0-.3-.9,1.307,1.307,0,0,0-.969-.3,1.27,1.27,0,0,0-.821.268.839.839,0,0,0-.333.684.813.813,0,0,0,.383.674,4.347,4.347,0,0,0,1.547.5,6.214,6.214,0,0,1,2.713,1.075,2.469,2.469,0,0,1,.877,2.027,2.643,2.643,0,0,1-1.2,2.22,5.244,5.244,0,0,1-3.162.873,4.742,4.742,0,0,1-3.226-1.034,2.845,2.845,0,0,1-1.131-2.308l.018-.054h2.825a1.25,1.25,0,0,0,.43,1.024,1.889,1.889,0,0,0,1.168.314,1.558,1.558,0,0,0,.951-.245.822.822,0,0,0,.323-.7" transform="translate(-50.255 -4.591)"/>
      <path id="Trazado_192907" data-name="Trazado 192907" d="M270.994,27.257a6.351,6.351,0,0,1,1.02-3.767,3.328,3.328,0,0,1,2.876-1.431,2.483,2.483,0,0,1,1.251.319,3.314,3.314,0,0,1,1,.909V17.831h3.119v14.4h-2.732l-.212-1.219a3.367,3.367,0,0,1-1.058,1.048,2.639,2.639,0,0,1-1.389.365,3.355,3.355,0,0,1-2.861-1.366,5.9,5.9,0,0,1-1.016-3.61Zm3.12.193a4.158,4.158,0,0,0,.355,1.9,1.242,1.242,0,0,0,1.2.679,1.966,1.966,0,0,0,.863-.18,1.55,1.55,0,0,0,.614-.531V25.281a1.709,1.709,0,0,0-.61-.61,1.679,1.679,0,0,0-.849-.212,1.245,1.245,0,0,0-1.2.766,4.706,4.706,0,0,0-.369,2.031Z" transform="translate(-53.845 -3.543)"/>
      <path id="Trazado_192908" data-name="Trazado 192908" d="M288.074,19.926h-3.129v-2.1h3.129Zm0,12.306h-3.129V22.244h3.129Z" transform="translate(-56.617 -3.543)"/>
      <path id="Trazado_192909" data-name="Trazado 192909" d="M290.7,28.305a6.351,6.351,0,0,1,1.02-3.767,3.326,3.326,0,0,1,2.875-1.431,2.563,2.563,0,0,1,1.385.374,3.315,3.315,0,0,1,1.034,1.057l.2-1.246h2.751v9.877a3.7,3.7,0,0,1-1.353,3.06,5.8,5.8,0,0,1-3.724,1.085,6.69,6.69,0,0,1-1.625-.212,9,9,0,0,1-1.625-.573l.536-2.307a7.376,7.376,0,0,0,1.288.438,6.239,6.239,0,0,0,1.408.143,2.311,2.311,0,0,0,1.482-.4,1.529,1.529,0,0,0,.484-1.255v-.776a2.707,2.707,0,0,1-2.261,1.1,3.356,3.356,0,0,1-2.862-1.366A5.908,5.908,0,0,1,290.7,28.5Zm3.111.193a4.148,4.148,0,0,0,.355,1.9,1.25,1.25,0,0,0,1.205.679,2.211,2.211,0,0,0,.873-.157,1.427,1.427,0,0,0,.595-.471v-4.2a1.549,1.549,0,0,0-.591-.549,1.823,1.823,0,0,0-.858-.189,1.255,1.255,0,0,0-1.205.77,4.678,4.678,0,0,0-.373,2.027Z" transform="translate(-57.761 -4.591)"/>
      <path id="Trazado_192910" data-name="Trazado 192910" d="M307.8,19.926h-3.129v-2.1H307.8Zm0,12.306h-3.129V22.244H307.8Z" transform="translate(-60.535 -3.543)"/>
      <path id="Trazado_192911" data-name="Trazado 192911" d="M314.308,20.239v2.483h1.579v2.16h-1.579v4.579a1.12,1.12,0,0,0,.217.771.759.759,0,0,0,.586.235,3.033,3.033,0,0,0,.383-.018,3.114,3.114,0,0,0,.365-.075l.212,2.309a7.466,7.466,0,0,1-.849.171,6.873,6.873,0,0,1-.9.051,3.115,3.115,0,0,1-2.34-.822,3.623,3.623,0,0,1-.8-2.6v-4.6h-1.393v-2.16h1.393V20.239Z" transform="translate(-61.554 -4.021)"/>
      <path id="Trazado_192912" data-name="Trazado 192912" d="M324.91,33.27a3.752,3.752,0,0,1-.3-.71,5.533,5.533,0,0,1-.189-.831,3.821,3.821,0,0,1-1,1.269,2.419,2.419,0,0,1-1.555.475,3.462,3.462,0,0,1-2.442-.807,2.854,2.854,0,0,1-.873-2.2,2.666,2.666,0,0,1,1.117-2.295,5.791,5.791,0,0,1,3.388-.808h1.283v-.71a1.422,1.422,0,0,0-.3-.979,1.188,1.188,0,0,0-.932-.341,1.124,1.124,0,0,0-.808.254,1.054,1.054,0,0,0-.264.789L319,26.365l-.018-.055a2.6,2.6,0,0,1,1.14-2.285,5.108,5.108,0,0,1,3.18-.918,4.652,4.652,0,0,1,3,.923,3.19,3.19,0,0,1,1.149,2.64v3.766a7.7,7.7,0,0,0,.134,1.477,8,8,0,0,0,.4,1.366Zm-2.2-2.021a1.9,1.9,0,0,0,1.01-.268,1.534,1.534,0,0,0,.614-.637v-1.32h-1.256a1.407,1.407,0,0,0-1.079.36,1.293,1.293,0,0,0-.333.913.887.887,0,0,0,.291.688,1.078,1.078,0,0,0,.752.263" transform="translate(-63.293 -4.591)"/>
      <rect id="Rectángulo_39857" data-name="Rectángulo 39857" width="3.129" height="14.401" transform="translate(266.011 14.288)"/>
      <path id="Trazado_192913" data-name="Trazado 192913" d="M342.589,33.473a4.638,4.638,0,0,1-3.559-1.375,4.89,4.89,0,0,1-1.288-3.48v-.352a5.585,5.585,0,0,1,1.214-3.729,4.312,4.312,0,0,1,3.512-1.43,4.044,4.044,0,0,1,3.134,1.209,4.709,4.709,0,0,1,1.112,3.313v1.634h-5.723l-.018.056a1.94,1.94,0,0,0,.581,1.269,2.034,2.034,0,0,0,1.459.485,6.324,6.324,0,0,0,1.491-.147,9.426,9.426,0,0,0,1.361-.471l.748,1.9a5.715,5.715,0,0,1-1.736.794,8,8,0,0,1-2.289.323m-.12-7.967a1.285,1.285,0,0,0-1.1.476,2.378,2.378,0,0,0-.411,1.287l.018.046h2.7v-.24A2.082,2.082,0,0,0,343.4,25.9a1.045,1.045,0,0,0-.928-.4" transform="translate(-67.107 -4.591)"/>
      <path id="Trazado_192914" data-name="Trazado 192914" d="M355.667,30.474a.815.815,0,0,0-.42-.66,4.55,4.55,0,0,0-1.528-.522,6.022,6.022,0,0,1-2.631-1.057,2.393,2.393,0,0,1-.886-1.971,2.807,2.807,0,0,1,1.108-2.238,4.55,4.55,0,0,1,3-.918,5.162,5.162,0,0,1,3.176.89,2.621,2.621,0,0,1,1.126,2.3l-.018.054h-3.028a1.237,1.237,0,0,0-.3-.9,1.307,1.307,0,0,0-.969-.3,1.27,1.27,0,0,0-.821.268.839.839,0,0,0-.333.684.813.813,0,0,0,.383.674,4.348,4.348,0,0,0,1.547.5,6.214,6.214,0,0,1,2.713,1.075,2.469,2.469,0,0,1,.877,2.027,2.643,2.643,0,0,1-1.2,2.22,5.244,5.244,0,0,1-3.162.873,4.742,4.742,0,0,1-3.226-1.034,2.845,2.845,0,0,1-1.131-2.308l.018-.054H352.8a1.25,1.25,0,0,0,.43,1.024,1.888,1.888,0,0,0,1.167.314,1.558,1.558,0,0,0,.951-.245.822.822,0,0,0,.323-.7" transform="translate(-69.533 -4.591)"/>
      <path id="Trazado_192915" data-name="Trazado 192915" d="M29.437,54.551h-5.52v4.809h6.462v1.422H22.1V47.342h8.179v1.43h-6.36v4.349h5.52Z" transform="translate(-4.391 -9.406)"/>
      <rect id="Rectángulo_39858" data-name="Rectángulo 39858" width="1.819" height="14.401" transform="translate(28.036 36.975)"/>
      <path id="Trazado_192916" data-name="Trazado 192916" d="M46.923,60.782V47.342h4.228a5.527,5.527,0,0,1,5.834,5.806v1.837a5.514,5.514,0,0,1-5.834,5.8Zm1.819-12.01V59.361h2.41a3.708,3.708,0,0,0,2.94-1.228,4.6,4.6,0,0,0,1.075-3.148V53.129A4.579,4.579,0,0,0,54.091,50a3.711,3.711,0,0,0-2.94-1.228Z" transform="translate(-9.323 -9.407)"/>
      <path id="Trazado_192917" data-name="Trazado 192917" d="M69.937,57.347a2.021,2.021,0,0,0-.655-1.533,5.472,5.472,0,0,0-2.308-1.053,7.665,7.665,0,0,1-3.2-1.5,3.133,3.133,0,0,1-1.15-2.482,3.315,3.315,0,0,1,1.237-2.631A4.783,4.783,0,0,1,67.076,47.1a4.689,4.689,0,0,1,3.383,1.205,3.648,3.648,0,0,1,1.224,2.811l-.028.055H69.919a2.479,2.479,0,0,0-.8-1.893,2.87,2.87,0,0,0-2.044-.748,2.8,2.8,0,0,0-1.953.619,2.072,2.072,0,0,0-.678,1.606,1.794,1.794,0,0,0,.743,1.463,6.85,6.85,0,0,0,2.414,1.03A6.85,6.85,0,0,1,70.695,54.8a3.378,3.378,0,0,1,1.062,2.53,3.138,3.138,0,0,1-1.279,2.611,5.3,5.3,0,0,1-3.337.989,5.673,5.673,0,0,1-3.439-1.09,3.319,3.319,0,0,1-1.444-2.917l.018-.056h1.736a2.258,2.258,0,0,0,.96,1.953,3.636,3.636,0,0,0,2.17.688,3.269,3.269,0,0,0,2.045-.581,1.892,1.892,0,0,0,.752-1.579" transform="translate(-12.37 -9.358)"/>
      <path id="Trazado_192918" data-name="Trazado 192918" d="M83.977,57.32H78.918l-1.2,3.462H75.863l4.846-13.441h1.56l4.745,13.441H85.159ZM79.445,55.8H83.46L81.5,50.028h-.055Z" transform="translate(-15.073 -9.406)"/>
      <path id="Trazado_192919" data-name="Trazado 192919" d="M103.526,58.907a1.211,1.211,0,0,0-.458-.978,4.417,4.417,0,0,0-1.731-.665A7.243,7.243,0,0,1,98.629,56.2a2.143,2.143,0,0,1-.946-1.828,2.634,2.634,0,0,1,1.038-2.087,4.581,4.581,0,0,1,5.442.056,2.644,2.644,0,0,1,1.006,2.15l-.018.056h-1.736a1.572,1.572,0,0,0-.568-1.172,2.028,2.028,0,0,0-1.435-.527,2.068,2.068,0,0,0-1.436.434,1.353,1.353,0,0,0-.475,1.034,1.092,1.092,0,0,0,.411.914,4.522,4.522,0,0,0,1.693.591,7.164,7.164,0,0,1,2.788,1.1,2.214,2.214,0,0,1,.951,1.856,2.627,2.627,0,0,1-1.076,2.169,5.138,5.138,0,0,1-5.82-.129,2.766,2.766,0,0,1-1.043-2.261l.018-.056h1.736a1.683,1.683,0,0,0,.72,1.418,2.789,2.789,0,0,0,1.579.447,2.487,2.487,0,0,0,1.518-.41,1.258,1.258,0,0,0,.55-1.048" transform="translate(-19.353 -10.217)"/>
      <path id="Trazado_192920" data-name="Trazado 192920" d="M114.165,61.787a4.225,4.225,0,0,1-3.355-1.375,5.292,5.292,0,0,1-1.2-3.619v-.406a5.181,5.181,0,0,1,1.241-3.559,3.894,3.894,0,0,1,3.032-1.408,3.622,3.622,0,0,1,3,1.247,5.133,5.133,0,0,1,1,3.313v.96H111.5l-.028.046a4.13,4.13,0,0,0,.665,2.442,2.323,2.323,0,0,0,2.031.937,4.574,4.574,0,0,0,1.62-.263,3.632,3.632,0,0,0,1.2-.724l.711,1.181a4.384,4.384,0,0,1-1.412.873,5.643,5.643,0,0,1-2.115.355m-.286-8.936a1.978,1.978,0,0,0-1.574.734,3.484,3.484,0,0,0-.762,1.879l.018.046h4.5v-.147a2.909,2.909,0,0,0-.534-1.8,1.936,1.936,0,0,0-1.653-.712" transform="translate(-21.778 -10.217)"/>
      <path id="Trazado_192921" data-name="Trazado 192921" d="M130.168,51.894a3.682,3.682,0,0,1,1.269-1.121,3.484,3.484,0,0,1,1.667-.4,3.225,3.225,0,0,1,2.487.96,4.223,4.223,0,0,1,.891,2.954v6.259h-1.819V54.267a2.673,2.673,0,0,0-.53-1.828,2.019,2.019,0,0,0-1.583-.591,2.971,2.971,0,0,0-1.413.319,2.569,2.569,0,0,0-.969.891v7.487h-1.819v-14.4h1.819Z" transform="translate(-25.502 -9.168)"/>
      <path id="Trazado_192922" data-name="Trazado 192922" d="M147.813,61.593c-.062-.3-.11-.568-.143-.8a5.631,5.631,0,0,1-.06-.7,4.23,4.23,0,0,1-1.325,1.2,3.39,3.39,0,0,1-1.759.485,3.261,3.261,0,0,1-2.377-.8,2.935,2.935,0,0,1-.817-2.2,2.58,2.58,0,0,1,1.159-2.239,5.41,5.41,0,0,1,3.143-.808h1.976v-.987a1.834,1.834,0,0,0-.535-1.389,2.1,2.1,0,0,0-1.514-.513,2.195,2.195,0,0,0-1.431.444,1.326,1.326,0,0,0-.545,1.061l-1.726.018-.018-.055a2.389,2.389,0,0,1,1.02-1.994,4.225,4.225,0,0,1,2.8-.9,4.125,4.125,0,0,1,2.732.863,3.058,3.058,0,0,1,1.034,2.488V59.58a9.37,9.37,0,0,0,.056,1.034,5.227,5.227,0,0,0,.2.978Zm-3.019-1.329a3.235,3.235,0,0,0,1.782-.508,2.411,2.411,0,0,0,1.034-1.163V56.968h-2.04a2.646,2.646,0,0,0-1.759.554,1.656,1.656,0,0,0-.659,1.3,1.374,1.374,0,0,0,.415,1.053,1.74,1.74,0,0,0,1.228.387" transform="translate(-28.082 -10.217)"/>
      <path id="Trazado_192923" data-name="Trazado 192923" d="M164.459,60.365a2.137,2.137,0,0,0,1.468-.559,1.763,1.763,0,0,0,.627-1.37H168.2l.027.054a2.868,2.868,0,0,1-1.107,2.294,4.232,4.232,0,0,1-5.908-.43,5.524,5.524,0,0,1-1.144-3.563V56.4a5.5,5.5,0,0,1,1.149-3.55,3.92,3.92,0,0,1,3.245-1.435,3.773,3.773,0,0,1,2.737,1.034,3.278,3.278,0,0,1,1.029,2.539l-.018.055h-1.652a2.2,2.2,0,0,0-.6-1.555,1.962,1.962,0,0,0-1.5-.642,2.1,2.1,0,0,0-1.953,1.039,4.863,4.863,0,0,0-.614,2.515v.388a4.953,4.953,0,0,0,.6,2.539,2.1,2.1,0,0,0,1.962,1.034" transform="translate(-31.804 -10.217)"/>
      <path id="Trazado_192924" data-name="Trazado 192924" d="M172.414,56.506a5.5,5.5,0,0,1,1.2-3.652,4.026,4.026,0,0,1,3.258-1.435,4.067,4.067,0,0,1,3.282,1.431,5.484,5.484,0,0,1,1.2,3.656v.2a5.471,5.471,0,0,1-1.2,3.656,4.467,4.467,0,0,1-6.54,0,5.464,5.464,0,0,1-1.2-3.651Zm1.818.2a4.736,4.736,0,0,0,.669,2.621,2.417,2.417,0,0,0,3.965,0,4.71,4.71,0,0,0,.675-2.621v-.2a4.7,4.7,0,0,0-.679-2.612,2.224,2.224,0,0,0-1.99-1.043,2.194,2.194,0,0,0-1.971,1.043,4.745,4.745,0,0,0-.669,2.612Z" transform="translate(-34.257 -10.217)"/>
      <path id="Trazado_192925" data-name="Trazado 192925" d="M187.978,51.6l.13,1.486a3.626,3.626,0,0,1,1.251-1.232,3.34,3.34,0,0,1,1.712-.438,3.26,3.26,0,0,1,2.5.946,4.152,4.152,0,0,1,.886,2.922v6.3H192.64V55.325a2.7,2.7,0,0,0-.522-1.874,2.089,2.089,0,0,0-1.592-.555,2.823,2.823,0,0,0-1.426.337,2.445,2.445,0,0,0-.928.946v7.413h-1.818V51.6Z" transform="translate(-37.027 -10.217)"/>
      <path id="Trazado_192926" data-name="Trazado 192926" d="M202.874,58.694l.157.7h.055l.175-.7,2.3-7.043h1.855l-3.674,9.988h-1.376l-3.72-9.988h1.865Z" transform="translate(-39.47 -10.263)"/>
      <path id="Trazado_192927" data-name="Trazado 192927" d="M215.509,61.787a4.225,4.225,0,0,1-3.355-1.375,5.292,5.292,0,0,1-1.2-3.619v-.406a5.181,5.181,0,0,1,1.241-3.559,3.894,3.894,0,0,1,3.032-1.408,3.622,3.622,0,0,1,3,1.247,5.133,5.133,0,0,1,1,3.313v.96h-6.388l-.028.046a4.13,4.13,0,0,0,.665,2.442,2.323,2.323,0,0,0,2.031.937,4.574,4.574,0,0,0,1.62-.263,3.632,3.632,0,0,0,1.2-.724l.711,1.181a4.385,4.385,0,0,1-1.412.873,5.643,5.643,0,0,1-2.115.355m-.286-8.936a1.978,1.978,0,0,0-1.574.734,3.483,3.483,0,0,0-.762,1.879l.018.046h4.5v-.147a2.909,2.909,0,0,0-.534-1.8,1.936,1.936,0,0,0-1.653-.712" transform="translate(-41.914 -10.217)"/>
      <path id="Trazado_192928" data-name="Trazado 192928" d="M228.555,53.211l-.933-.055a2.083,2.083,0,0,0-1.214.341,2.2,2.2,0,0,0-.761.961v7.136h-1.818V51.6h1.624l.175,1.458a3.468,3.468,0,0,1,1.047-1.209,2.452,2.452,0,0,1,1.436-.434,2.242,2.242,0,0,1,.388.032,2.409,2.409,0,0,1,.3.07Z" transform="translate(-44.473 -10.217)"/>
      <path id="Trazado_192929" data-name="Trazado 192929" d="M234.6,48.643v2.41h1.893V52.4H234.6v6.066a1.357,1.357,0,0,0,.291.987,1.049,1.049,0,0,0,.771.287,1.718,1.718,0,0,0,.351-.042,2.718,2.718,0,0,0,.323-.087l.249,1.245a1.592,1.592,0,0,1-.6.272,3.046,3.046,0,0,1-.785.107,2.352,2.352,0,0,1-1.763-.67,2.9,2.9,0,0,1-.655-2.1V52.4H231.19V51.053h1.588v-2.41Z" transform="translate(-45.936 -9.665)"/>
      <path id="Trazado_192930" data-name="Trazado 192930" d="M242.237,48h-1.819V46.144h1.819Zm0,12.545h-1.819V50.556h1.819Z" transform="translate(-47.769 -9.168)"/>
      <path id="Trazado_192931" data-name="Trazado 192931" d="M245.659,55.735a6.672,6.672,0,0,1,1.03-3.887,3.318,3.318,0,0,1,2.885-1.477,3.572,3.572,0,0,1,1.555.324,3.173,3.173,0,0,1,1.159.942V46.143h1.818v14.4h-1.393l-.276-1.264a3.261,3.261,0,0,1-1.21,1.089,3.614,3.614,0,0,1-1.671.369,3.427,3.427,0,0,1-2.861-1.325,5.508,5.508,0,0,1-1.034-3.485Zm1.819.194a4.231,4.231,0,0,0,.619,2.422,2.158,2.158,0,0,0,1.92.909,2.4,2.4,0,0,0,1.366-.369,2.749,2.749,0,0,0,.9-1.034V53.2a2.8,2.8,0,0,0-.909-.984,2.411,2.411,0,0,0-1.343-.365,2.078,2.078,0,0,0-1.934,1.081,5.567,5.567,0,0,0-.623,2.806Z" transform="translate(-48.811 -9.168)"/>
      <path id="Trazado_192932" data-name="Trazado 192932" d="M259.058,56.506a5.5,5.5,0,0,1,1.2-3.652,4.026,4.026,0,0,1,3.258-1.435A4.067,4.067,0,0,1,266.8,52.85a5.484,5.484,0,0,1,1.2,3.656v.2a5.471,5.471,0,0,1-1.2,3.656,4.467,4.467,0,0,1-6.54,0,5.464,5.464,0,0,1-1.2-3.651Zm1.818.2a4.736,4.736,0,0,0,.669,2.621,2.417,2.417,0,0,0,3.965,0,4.71,4.71,0,0,0,.675-2.621v-.2a4.7,4.7,0,0,0-.679-2.612,2.224,2.224,0,0,0-1.99-1.043,2.194,2.194,0,0,0-1.971,1.043,4.746,4.746,0,0,0-.669,2.612Z" transform="translate(-51.473 -10.217)"/>
      <path id="Trazado_192933" data-name="Trazado 192933" d="M284.916,61.593c-.062-.3-.11-.568-.143-.8a5.626,5.626,0,0,1-.06-.7,4.231,4.231,0,0,1-1.325,1.2,3.39,3.39,0,0,1-1.759.485,3.261,3.261,0,0,1-2.377-.8,2.935,2.935,0,0,1-.817-2.2,2.58,2.58,0,0,1,1.159-2.239,5.41,5.41,0,0,1,3.143-.808h1.976v-.987a1.834,1.834,0,0,0-.535-1.389,2.1,2.1,0,0,0-1.514-.513,2.195,2.195,0,0,0-1.431.444,1.326,1.326,0,0,0-.545,1.061l-1.726.018-.018-.055a2.389,2.389,0,0,1,1.02-1.994,4.225,4.225,0,0,1,2.8-.9,4.124,4.124,0,0,1,2.732.863,3.058,3.058,0,0,1,1.034,2.488V59.58a9.37,9.37,0,0,0,.056,1.034,5.226,5.226,0,0,0,.2.978ZM281.9,60.263a3.235,3.235,0,0,0,1.782-.508,2.412,2.412,0,0,0,1.034-1.163V56.968h-2.04a2.646,2.646,0,0,0-1.759.554,1.656,1.656,0,0,0-.659,1.3,1.374,1.374,0,0,0,.415,1.053,1.74,1.74,0,0,0,1.228.387" transform="translate(-55.323 -10.217)"/>
      <rect id="Rectángulo_39859" data-name="Rectángulo 39859" width="1.819" height="14.401" transform="translate(233.995 36.975)"/>
      <path id="Trazado_192934" data-name="Trazado 192934" d="M307.671,61.787a4.225,4.225,0,0,1-3.355-1.375,5.292,5.292,0,0,1-1.2-3.619v-.406a5.181,5.181,0,0,1,1.241-3.559,3.894,3.894,0,0,1,3.032-1.408,3.622,3.622,0,0,1,3,1.247,5.133,5.133,0,0,1,1,3.313v.96H305l-.028.046a4.129,4.129,0,0,0,.665,2.442,2.323,2.323,0,0,0,2.03.937,4.574,4.574,0,0,0,1.62-.263,3.632,3.632,0,0,0,1.2-.724l.711,1.181a4.385,4.385,0,0,1-1.412.873,5.643,5.643,0,0,1-2.115.355m-.286-8.936a1.978,1.978,0,0,0-1.574.734,3.484,3.484,0,0,0-.762,1.879l.018.046h4.5v-.147a2.909,2.909,0,0,0-.534-1.8,1.936,1.936,0,0,0-1.653-.712" transform="translate(-60.226 -10.217)"/>
      <path id="Trazado_192935" data-name="Trazado 192935" d="M321.719,58.907a1.212,1.212,0,0,0-.457-.978,4.418,4.418,0,0,0-1.731-.665,7.253,7.253,0,0,1-2.709-1.061,2.143,2.143,0,0,1-.946-1.828,2.634,2.634,0,0,1,1.038-2.087,4.059,4.059,0,0,1,2.691-.868,4.017,4.017,0,0,1,2.751.924,2.645,2.645,0,0,1,1.006,2.15l-.018.056h-1.736a1.572,1.572,0,0,0-.568-1.172,2.028,2.028,0,0,0-1.435-.527,2.071,2.071,0,0,0-1.436.434,1.356,1.356,0,0,0-.475,1.034,1.1,1.1,0,0,0,.411.914,4.533,4.533,0,0,0,1.694.591,7.17,7.17,0,0,1,2.788,1.1,2.214,2.214,0,0,1,.951,1.856,2.63,2.63,0,0,1-1.076,2.169,5.138,5.138,0,0,1-5.82-.129,2.766,2.766,0,0,1-1.043-2.261l.018-.056h1.736a1.681,1.681,0,0,0,.72,1.418,2.786,2.786,0,0,0,1.578.447,2.49,2.49,0,0,0,1.518-.41,1.258,1.258,0,0,0,.55-1.048" transform="translate(-62.707 -10.217)"/>
      <path id="Trazado_192936" data-name="Trazado 192936" d="M330.64,48.643v2.41h1.893V52.4H330.64v6.066a1.357,1.357,0,0,0,.291.987,1.049,1.049,0,0,0,.771.287,1.718,1.718,0,0,0,.351-.042,2.72,2.72,0,0,0,.323-.087l.249,1.245a1.592,1.592,0,0,1-.6.272,3.046,3.046,0,0,1-.785.107,2.352,2.352,0,0,1-1.763-.67,2.9,2.9,0,0,1-.655-2.1V52.4h-1.588V51.053h1.588v-2.41Z" transform="translate(-65.019 -9.665)"/>
      <path id="Trazado_192937" data-name="Trazado 192937" d="M342.332,60.588c-.062-.3-.109-.568-.143-.8a5.784,5.784,0,0,1-.061-.7,4.247,4.247,0,0,1-1.324,1.2,3.392,3.392,0,0,1-1.759.485,3.264,3.264,0,0,1-2.377-.8,2.938,2.938,0,0,1-.817-2.2,2.58,2.58,0,0,1,1.159-2.239,5.409,5.409,0,0,1,3.143-.808h1.975v-.987a1.833,1.833,0,0,0-.535-1.39,2.106,2.106,0,0,0-1.514-.512,2.194,2.194,0,0,0-1.43.443,1.329,1.329,0,0,0-.545,1.062l-1.726.018-.018-.055a2.388,2.388,0,0,1,1.02-1.994,4.225,4.225,0,0,1,2.8-.9,4.125,4.125,0,0,1,2.732.863,3.057,3.057,0,0,1,1.034,2.487v4.809A9.374,9.374,0,0,0,344,59.609a5.308,5.308,0,0,0,.2.978Zm-3.019-1.329a3.23,3.23,0,0,0,1.781-.508,2.4,2.4,0,0,0,1.034-1.163V55.962h-2.039a2.645,2.645,0,0,0-1.759.555,1.657,1.657,0,0,0-.66,1.3,1.369,1.369,0,0,0,.416,1.052,1.736,1.736,0,0,0,1.228.388m1.56-12.9H343l.018.055-2.482,2.4h-1.366Z" transform="translate(-66.731 -9.212)"/>
      <path id="Trazado_192938" data-name="Trazado 192938" d="M350.874,51.6,351,53.09a3.626,3.626,0,0,1,1.251-1.232,3.34,3.34,0,0,1,1.712-.438,3.26,3.26,0,0,1,2.5.946,4.152,4.152,0,0,1,.886,2.922v6.3h-1.818V55.325a2.7,2.7,0,0,0-.522-1.874,2.089,2.089,0,0,0-1.592-.555,2.823,2.823,0,0,0-1.426.337,2.445,2.445,0,0,0-.928.946v7.413H349.25V51.6Z" transform="translate(-69.394 -10.217)"/>
      <path id="Trazado_192939" data-name="Trazado 192939" d="M362.14,55.735a6.672,6.672,0,0,1,1.03-3.887,3.318,3.318,0,0,1,2.885-1.477,3.572,3.572,0,0,1,1.555.324,3.173,3.173,0,0,1,1.159.942V46.143h1.818v14.4h-1.393l-.276-1.264a3.261,3.261,0,0,1-1.21,1.089,3.614,3.614,0,0,1-1.671.369,3.427,3.427,0,0,1-2.861-1.325,5.508,5.508,0,0,1-1.034-3.485Zm1.819.194a4.231,4.231,0,0,0,.619,2.422,2.158,2.158,0,0,0,1.92.909,2.4,2.4,0,0,0,1.366-.369,2.749,2.749,0,0,0,.9-1.034V53.2a2.8,2.8,0,0,0-.909-.984,2.411,2.411,0,0,0-1.343-.365,2.078,2.078,0,0,0-1.934,1.081,5.567,5.567,0,0,0-.623,2.806Z" transform="translate(-71.955 -9.168)"/>
      <path id="Trazado_192940" data-name="Trazado 192940" d="M382.123,61.593c-.063-.3-.11-.568-.143-.8a5.631,5.631,0,0,1-.06-.7,4.231,4.231,0,0,1-1.325,1.2,3.39,3.39,0,0,1-1.759.485,3.261,3.261,0,0,1-2.377-.8,2.935,2.935,0,0,1-.817-2.2,2.58,2.58,0,0,1,1.159-2.239,5.41,5.41,0,0,1,3.143-.808h1.976v-.987a1.834,1.834,0,0,0-.535-1.389,2.1,2.1,0,0,0-1.514-.513,2.195,2.195,0,0,0-1.431.444,1.326,1.326,0,0,0-.545,1.061l-1.726.018-.018-.055a2.389,2.389,0,0,1,1.02-1.994,4.225,4.225,0,0,1,2.8-.9,4.124,4.124,0,0,1,2.732.863,3.058,3.058,0,0,1,1.034,2.488V59.58a9.37,9.37,0,0,0,.056,1.034,5.226,5.226,0,0,0,.2.978ZM379.1,60.263a3.235,3.235,0,0,0,1.782-.508,2.411,2.411,0,0,0,1.034-1.163V56.968h-2.04a2.646,2.646,0,0,0-1.759.554,1.656,1.656,0,0,0-.659,1.3,1.374,1.374,0,0,0,.415,1.053,1.74,1.74,0,0,0,1.228.387" transform="translate(-74.637 -10.217)"/>
      <path id="Trazado_192941" data-name="Trazado 192941" d="M393.767,53.211l-.933-.055a2.083,2.083,0,0,0-1.214.341,2.2,2.2,0,0,0-.761.961v7.136h-1.818V51.6h1.624l.175,1.458a3.468,3.468,0,0,1,1.047-1.209,2.452,2.452,0,0,1,1.436-.434,2.242,2.242,0,0,1,.388.032,2.411,2.411,0,0,1,.3.07Z" transform="translate(-77.3 -10.217)"/>
      <path id="Trazado_192942" data-name="Trazado 192942" d="M44.048,83.149H38.38v5.945H36.561V75.654H44.99v1.43H38.38v4.634h5.668Z" transform="translate(-7.264 -15.032)"/>
      <rect id="Rectángulo_39860" data-name="Rectángulo 39860" width="1.828" height="13.44" transform="translate(39.913 60.622)"/>
      <path id="Trazado_192943" data-name="Trazado 192943" d="M58.069,83.7v5.391H56.25V75.654h5.142a4.734,4.734,0,0,1,3.346,1.107,4.168,4.168,0,0,1,0,5.843,4.761,4.761,0,0,1-3.346,1.1Zm0-1.422h3.323A2.439,2.439,0,0,0,64.106,79.7a2.669,2.669,0,0,0-.679-1.865,2.611,2.611,0,0,0-2.035-.748H58.069Z" transform="translate(-11.176 -15.032)"/>
      <path id="Trazado_192944" data-name="Trazado 192944" d="M78.284,85.658a2.021,2.021,0,0,0-.655-1.533,5.471,5.471,0,0,0-2.308-1.053,7.665,7.665,0,0,1-3.2-1.5,3.133,3.133,0,0,1-1.15-2.482,3.315,3.315,0,0,1,1.237-2.631,4.783,4.783,0,0,1,3.212-1.052,4.689,4.689,0,0,1,3.383,1.205,3.648,3.648,0,0,1,1.224,2.811L80,79.482H78.266a2.479,2.479,0,0,0-.8-1.893,2.87,2.87,0,0,0-2.044-.748,2.8,2.8,0,0,0-1.953.619,2.072,2.072,0,0,0-.678,1.606,1.794,1.794,0,0,0,.743,1.463,6.85,6.85,0,0,0,2.414,1.03,6.85,6.85,0,0,1,3.093,1.551A3.378,3.378,0,0,1,80.1,85.64a3.138,3.138,0,0,1-1.279,2.611,5.3,5.3,0,0,1-3.337.989,5.672,5.672,0,0,1-3.439-1.09A3.319,3.319,0,0,1,70.6,85.233l.018-.056h1.736a2.258,2.258,0,0,0,.96,1.953,3.636,3.636,0,0,0,2.17.688,3.269,3.269,0,0,0,2.045-.581,1.892,1.892,0,0,0,.752-1.579" transform="translate(-14.028 -14.984)"/>
      <path id="Trazado_192945" data-name="Trazado 192945" d="M96.579,89.046H94.751V77.285l-2.926.027v-1.4l4.754-.5Z" transform="translate(-18.245 -14.984)"/>
      <path id="Trazado_192946" data-name="Trazado 192946" d="M112.418,79.04a3.032,3.032,0,0,1-.591,1.851,3.576,3.576,0,0,1-1.569,1.2,3.937,3.937,0,0,1,1.837,1.264,3.12,3.12,0,0,1,.692,2,3.548,3.548,0,0,1-1.2,2.871,4.6,4.6,0,0,1-3.07,1.015,4.959,4.959,0,0,1-3.226-1.015,3.487,3.487,0,0,1-1.251-2.871,3.084,3.084,0,0,1,.706-2,4.081,4.081,0,0,1,1.906-1.274,3.539,3.539,0,0,1-1.634-1.186,3,3,0,0,1-.6-1.851,3.291,3.291,0,0,1,1.131-2.695,4.481,4.481,0,0,1,2.95-.933,4.2,4.2,0,0,1,2.821.937,3.337,3.337,0,0,1,1.1,2.691m-1.44,6.277a2.444,2.444,0,0,0-.716-1.809,2.406,2.406,0,0,0-1.768-.711,2.634,2.634,0,0,0-1.892.711,2.387,2.387,0,0,0-.748,1.809,2.349,2.349,0,0,0,.744,1.818,2.717,2.717,0,0,0,1.915.684,2.386,2.386,0,0,0,2.465-2.5m-.378-6.249a2.207,2.207,0,0,0-.6-1.6,2,2,0,0,0-1.5-.627,2.262,2.262,0,0,0-1.624.6,2.126,2.126,0,0,0-.637,1.62,2.2,2.2,0,0,0,2.28,2.3A1.954,1.954,0,0,0,110,80.729a2.335,2.335,0,0,0,.6-1.661" transform="translate(-20.671 -14.984)"/>
      <path id="Trazado_192947" data-name="Trazado 192947" d="M122.374,75.411a7.872,7.872,0,0,1,1.57.157,5.71,5.71,0,0,1,1.283.4l-.388,1.393a6.861,6.861,0,0,0-1.107-.373,5.68,5.68,0,0,0-1.357-.143,2.433,2.433,0,0,0-2.054,1.08,4.508,4.508,0,0,0-.789,2.732V81.7a4.124,4.124,0,0,1,1.334-.886,4.237,4.237,0,0,1,1.657-.323,3.451,3.451,0,0,1,2.746,1.163,4.491,4.491,0,0,1,1.01,3.055,4.689,4.689,0,0,1-1.131,3.3A3.937,3.937,0,0,1,122.1,89.24a4,4,0,0,1-3.12-1.418,5.631,5.631,0,0,1-1.256-3.873V80.857a5.732,5.732,0,0,1,1.343-3.9,4.22,4.22,0,0,1,3.309-1.542m-.434,6.434a2.83,2.83,0,0,0-1.473.365,2.435,2.435,0,0,0-.937.983v.932a4.409,4.409,0,0,0,.743,2.7,2.214,2.214,0,0,0,1.824.992,2.019,2.019,0,0,0,1.749-.863,3.8,3.8,0,0,0,.614-2.248,3.113,3.113,0,0,0-.66-2.087,2.309,2.309,0,0,0-1.86-.775" transform="translate(-23.391 -14.984)"/>
      <path id="Trazado_192948" data-name="Trazado 192948" d="M132.444,91.478,131.059,94.3h-1.08l.646-2.917v-1.5h1.819Z" transform="translate(-25.826 -17.859)"/>
      <rect id="Rectángulo_39861" data-name="Rectángulo 39861" width="1.819" height="14.401" transform="translate(113.605 59.661)"/>
      <rect id="Rectángulo_39862" data-name="Rectángulo 39862" width="1.819" height="14.401" transform="translate(118.369 59.661)"/>
      <path id="Trazado_192949" data-name="Trazado 192949" d="M159.535,89.9c-.063-.3-.11-.568-.143-.8a5.632,5.632,0,0,1-.06-.7,4.23,4.23,0,0,1-1.325,1.2,3.39,3.39,0,0,1-1.759.485,3.261,3.261,0,0,1-2.377-.8,2.935,2.935,0,0,1-.817-2.2,2.58,2.58,0,0,1,1.159-2.239,5.41,5.41,0,0,1,3.143-.808h1.976v-.987a1.834,1.834,0,0,0-.535-1.389,2.1,2.1,0,0,0-1.514-.513,2.2,2.2,0,0,0-1.431.444,1.327,1.327,0,0,0-.545,1.061l-1.726.018-.018-.055a2.389,2.389,0,0,1,1.02-1.994,4.225,4.225,0,0,1,2.8-.9,4.125,4.125,0,0,1,2.732.863,3.058,3.058,0,0,1,1.034,2.488v4.809a9.37,9.37,0,0,0,.056,1.034,5.228,5.228,0,0,0,.2.978Zm-3.019-1.329a3.235,3.235,0,0,0,1.782-.508,2.411,2.411,0,0,0,1.034-1.163V85.28h-2.04a2.646,2.646,0,0,0-1.759.554,1.656,1.656,0,0,0-.659,1.3,1.374,1.374,0,0,0,.415,1.053,1.74,1.74,0,0,0,1.228.387" transform="translate(-30.411 -15.842)"/>
      <path id="Trazado_192950" data-name="Trazado 192950" d="M168.077,79.916l.13,1.311a3.392,3.392,0,0,1,1.241-1.1,3.733,3.733,0,0,1,1.749-.392,3.089,3.089,0,0,1,1.712.462,2.788,2.788,0,0,1,1.075,1.384,3.736,3.736,0,0,1,1.251-1.352,3.271,3.271,0,0,1,1.805-.494,2.988,2.988,0,0,1,2.409,1.047,4.784,4.784,0,0,1,.886,3.152V89.9h-1.818V83.913a3.323,3.323,0,0,0-.508-2.091,1.85,1.85,0,0,0-1.514-.615,1.93,1.93,0,0,0-1.51.647,2.818,2.818,0,0,0-.679,1.634V89.9H172.48V83.913a3.276,3.276,0,0,0-.522-2.054,1.811,1.811,0,0,0-1.5-.651,2.5,2.5,0,0,0-1.365.342,2.206,2.206,0,0,0-.822.96V89.9h-1.818V79.916Z" transform="translate(-33.073 -15.842)"/>
      <path id="Trazado_192951" data-name="Trazado 192951" d="M193.128,89.9c-.062-.3-.11-.568-.143-.8a5.632,5.632,0,0,1-.06-.7,4.23,4.23,0,0,1-1.325,1.2,3.39,3.39,0,0,1-1.759.485,3.261,3.261,0,0,1-2.377-.8,2.935,2.935,0,0,1-.817-2.2,2.58,2.58,0,0,1,1.159-2.239,5.41,5.41,0,0,1,3.143-.808h1.976v-.987a1.834,1.834,0,0,0-.535-1.389,2.1,2.1,0,0,0-1.514-.513,2.195,2.195,0,0,0-1.431.444,1.327,1.327,0,0,0-.545,1.061l-1.726.018-.018-.055a2.389,2.389,0,0,1,1.02-1.994,4.225,4.225,0,0,1,2.8-.9,4.125,4.125,0,0,1,2.732.863,3.058,3.058,0,0,1,1.034,2.488v4.809a9.37,9.37,0,0,0,.056,1.034,5.228,5.228,0,0,0,.2.978Zm-3.019-1.329a3.235,3.235,0,0,0,1.782-.508,2.411,2.411,0,0,0,1.034-1.163V85.28h-2.04a2.646,2.646,0,0,0-1.759.554,1.656,1.656,0,0,0-.659,1.3,1.374,1.374,0,0,0,.415,1.053,1.74,1.74,0,0,0,1.228.387" transform="translate(-37.085 -15.842)"/>
      <path id="Trazado_192952" data-name="Trazado 192952" d="M199.526,84.047a6.672,6.672,0,0,1,1.03-3.887,3.318,3.318,0,0,1,2.885-1.477,3.572,3.572,0,0,1,1.555.324,3.173,3.173,0,0,1,1.159.942V74.455h1.818v14.4h-1.393l-.276-1.264a3.261,3.261,0,0,1-1.21,1.089,3.614,3.614,0,0,1-1.671.369,3.427,3.427,0,0,1-2.861-1.325,5.508,5.508,0,0,1-1.034-3.485Zm1.819.194a4.231,4.231,0,0,0,.619,2.422,2.158,2.158,0,0,0,1.92.909,2.4,2.4,0,0,0,1.366-.369,2.749,2.749,0,0,0,.9-1.034V81.508a2.8,2.8,0,0,0-.909-.984,2.411,2.411,0,0,0-1.343-.365,2.078,2.078,0,0,0-1.934,1.081,5.566,5.566,0,0,0-.623,2.806Z" transform="translate(-39.644 -14.794)"/>
      <path id="Trazado_192953" data-name="Trazado 192953" d="M212.925,84.818a5.5,5.5,0,0,1,1.2-3.652,4.026,4.026,0,0,1,3.258-1.435,4.067,4.067,0,0,1,3.282,1.431,5.484,5.484,0,0,1,1.2,3.656v.2a5.471,5.471,0,0,1-1.2,3.656,4.467,4.467,0,0,1-6.54,0,5.464,5.464,0,0,1-1.2-3.651Zm1.818.2a4.736,4.736,0,0,0,.669,2.621,2.417,2.417,0,0,0,3.965,0,4.71,4.71,0,0,0,.675-2.621v-.2a4.7,4.7,0,0,0-.679-2.612,2.224,2.224,0,0,0-1.99-1.043,2.194,2.194,0,0,0-1.971,1.043,4.745,4.745,0,0,0-.669,2.612Z" transform="translate(-42.307 -15.842)"/>
      <path id="Trazado_192954" data-name="Trazado 192954" d="M236.758,90.1a4.226,4.226,0,0,1-3.355-1.375,5.292,5.292,0,0,1-1.2-3.619V84.7a5.181,5.181,0,0,1,1.241-3.559,3.894,3.894,0,0,1,3.032-1.408,3.622,3.622,0,0,1,3,1.247,5.133,5.133,0,0,1,1,3.313v.96h-6.388l-.028.046a4.13,4.13,0,0,0,.665,2.442,2.323,2.323,0,0,0,2.031.937,4.574,4.574,0,0,0,1.62-.263,3.633,3.633,0,0,0,1.2-.724l.711,1.181a4.384,4.384,0,0,1-1.412.873,5.643,5.643,0,0,1-2.115.355m-.286-8.936a1.978,1.978,0,0,0-1.574.734,3.483,3.483,0,0,0-.762,1.879l.018.046h4.5v-.147a2.909,2.909,0,0,0-.534-1.8,1.936,1.936,0,0,0-1.653-.712" transform="translate(-46.136 -15.842)"/>
      <rect id="Rectángulo_39863" data-name="Rectángulo 39863" width="1.819" height="14.401" transform="translate(196.529 59.661)"/>
      <path id="Trazado_192955" data-name="Trazado 192955" d="M264.536,82.863h-5.52v4.809h6.462v1.422H257.2V75.653h8.179v1.43h-6.36v4.349h5.52Z" transform="translate(-51.103 -15.032)"/>
      <path id="Trazado_192956" data-name="Trazado 192956" d="M275.632,87.218a1.212,1.212,0,0,0-.457-.978,4.417,4.417,0,0,0-1.731-.665,7.253,7.253,0,0,1-2.709-1.061,2.143,2.143,0,0,1-.946-1.828,2.634,2.634,0,0,1,1.039-2.087,4.059,4.059,0,0,1,2.691-.868,4.017,4.017,0,0,1,2.751.924,2.645,2.645,0,0,1,1.006,2.15l-.018.056h-1.736a1.572,1.572,0,0,0-.568-1.172,2.028,2.028,0,0,0-1.435-.527,2.071,2.071,0,0,0-1.436.434,1.356,1.356,0,0,0-.475,1.034,1.1,1.1,0,0,0,.411.914,4.533,4.533,0,0,0,1.694.591,7.169,7.169,0,0,1,2.788,1.1,2.214,2.214,0,0,1,.951,1.856,2.63,2.63,0,0,1-1.076,2.169,5.138,5.138,0,0,1-5.82-.129,2.766,2.766,0,0,1-1.043-2.261l.018-.056h1.736a1.681,1.681,0,0,0,.72,1.418,2.786,2.786,0,0,0,1.578.447,2.49,2.49,0,0,0,1.518-.41,1.258,1.258,0,0,0,.55-1.048" transform="translate(-53.549 -15.842)"/>
      <path id="Trazado_192957" data-name="Trazado 192957" d="M284.553,76.955v2.41h1.893v1.347h-1.893v6.066a1.357,1.357,0,0,0,.291.987,1.05,1.05,0,0,0,.771.287,1.718,1.718,0,0,0,.351-.042,2.717,2.717,0,0,0,.323-.087l.249,1.245a1.592,1.592,0,0,1-.6.272,3.046,3.046,0,0,1-.785.107,2.352,2.352,0,0,1-1.763-.67,2.9,2.9,0,0,1-.655-2.1V80.712h-1.588V79.365h1.588v-2.41Z" transform="translate(-55.862 -15.29)"/>
      <path id="Trazado_192958" data-name="Trazado 192958" d="M296.245,88.9c-.062-.3-.109-.568-.143-.8a5.79,5.79,0,0,1-.061-.7,4.246,4.246,0,0,1-1.324,1.2,3.392,3.392,0,0,1-1.759.485,3.264,3.264,0,0,1-2.377-.8,2.938,2.938,0,0,1-.817-2.2,2.58,2.58,0,0,1,1.159-2.239,5.41,5.41,0,0,1,3.143-.808h1.975V82.06a1.833,1.833,0,0,0-.535-1.39,2.105,2.105,0,0,0-1.514-.512,2.194,2.194,0,0,0-1.43.443,1.329,1.329,0,0,0-.545,1.062l-1.726.018-.018-.055a2.388,2.388,0,0,1,1.02-1.994,4.225,4.225,0,0,1,2.8-.9,4.125,4.125,0,0,1,2.732.863,3.058,3.058,0,0,1,1.034,2.487v4.809a9.374,9.374,0,0,0,.055,1.034,5.308,5.308,0,0,0,.2.978Zm-3.019-1.329a3.231,3.231,0,0,0,1.781-.508,2.4,2.4,0,0,0,1.034-1.163V84.274H294a2.645,2.645,0,0,0-1.759.555,1.657,1.657,0,0,0-.66,1.3A1.369,1.369,0,0,0,292,87.182a1.736,1.736,0,0,0,1.228.388m1.56-12.9h2.123l.018.055-2.482,2.4h-1.366Z" transform="translate(-57.574 -14.837)"/>
      <path id="Trazado_192959" data-name="Trazado 192959" d="M304.787,79.916l.13,1.486a3.626,3.626,0,0,1,1.251-1.232,3.34,3.34,0,0,1,1.712-.438,3.26,3.26,0,0,1,2.5.946,4.152,4.152,0,0,1,.886,2.922v6.3h-1.818V83.637a2.7,2.7,0,0,0-.522-1.874,2.089,2.089,0,0,0-1.592-.555,2.823,2.823,0,0,0-1.426.337,2.445,2.445,0,0,0-.928.946V89.9h-1.818V79.916Z" transform="translate(-60.236 -15.842)"/>
      <path id="Trazado_192960" data-name="Trazado 192960" d="M316.053,84.047a6.672,6.672,0,0,1,1.03-3.887,3.318,3.318,0,0,1,2.885-1.477,3.572,3.572,0,0,1,1.555.324,3.173,3.173,0,0,1,1.159.942V74.455H324.5v14.4h-1.393l-.276-1.264a3.261,3.261,0,0,1-1.21,1.089,3.614,3.614,0,0,1-1.671.369,3.427,3.427,0,0,1-2.861-1.325,5.508,5.508,0,0,1-1.034-3.485Zm1.819.194a4.231,4.231,0,0,0,.619,2.422,2.158,2.158,0,0,0,1.92.909,2.4,2.4,0,0,0,1.366-.369,2.749,2.749,0,0,0,.9-1.034V81.508a2.8,2.8,0,0,0-.909-.984,2.411,2.411,0,0,0-1.343-.365A2.078,2.078,0,0,0,318.5,81.24a5.566,5.566,0,0,0-.623,2.806Z" transform="translate(-62.798 -14.794)"/>
      <path id="Trazado_192961" data-name="Trazado 192961" d="M336.036,89.9c-.063-.3-.11-.568-.143-.8a5.632,5.632,0,0,1-.06-.7,4.231,4.231,0,0,1-1.325,1.2,3.39,3.39,0,0,1-1.759.485,3.261,3.261,0,0,1-2.377-.8,2.935,2.935,0,0,1-.817-2.2,2.58,2.58,0,0,1,1.159-2.239,5.41,5.41,0,0,1,3.143-.808h1.976v-.987a1.834,1.834,0,0,0-.535-1.389,2.1,2.1,0,0,0-1.514-.513,2.195,2.195,0,0,0-1.431.444,1.326,1.326,0,0,0-.545,1.061l-1.726.018-.018-.055a2.389,2.389,0,0,1,1.02-1.994,4.225,4.225,0,0,1,2.8-.9,4.125,4.125,0,0,1,2.732.863,3.058,3.058,0,0,1,1.034,2.488v4.809a9.37,9.37,0,0,0,.056,1.034,5.23,5.23,0,0,0,.2.978Zm-3.019-1.329a3.235,3.235,0,0,0,1.782-.508,2.411,2.411,0,0,0,1.034-1.163V85.28h-2.04a2.646,2.646,0,0,0-1.759.554,1.656,1.656,0,0,0-.659,1.3,1.374,1.374,0,0,0,.415,1.053,1.74,1.74,0,0,0,1.228.387" transform="translate(-65.48 -15.842)"/>
      <path id="Trazado_192962" data-name="Trazado 192962" d="M347.68,81.523l-.933-.055a2.084,2.084,0,0,0-1.214.341,2.2,2.2,0,0,0-.761.961V89.9h-1.818V79.916h1.624l.176,1.458a3.468,3.468,0,0,1,1.047-1.209,2.452,2.452,0,0,1,1.436-.434,2.242,2.242,0,0,1,.388.032,2.412,2.412,0,0,1,.3.07Z" transform="translate(-68.143 -15.842)"/>
      <path id="Trazado_192963" data-name="Trazado 192963" d="M356.559,84.047a6.672,6.672,0,0,1,1.03-3.887,3.318,3.318,0,0,1,2.885-1.477,3.572,3.572,0,0,1,1.555.324,3.173,3.173,0,0,1,1.159.942V74.455h1.818v14.4h-1.393l-.276-1.264a3.261,3.261,0,0,1-1.21,1.089,3.614,3.614,0,0,1-1.671.369,3.427,3.427,0,0,1-2.861-1.325,5.508,5.508,0,0,1-1.034-3.485Zm1.819.194A4.231,4.231,0,0,0,359,86.663a2.158,2.158,0,0,0,1.92.909,2.4,2.4,0,0,0,1.366-.369,2.749,2.749,0,0,0,.9-1.034V81.508a2.8,2.8,0,0,0-.909-.984,2.411,2.411,0,0,0-1.343-.365A2.078,2.078,0,0,0,359,81.24a5.567,5.567,0,0,0-.623,2.806Z" transform="translate(-70.846 -14.794)"/>
      <path id="Trazado_192964" data-name="Trazado 192964" d="M374.517,90.1a4.226,4.226,0,0,1-3.355-1.375,5.292,5.292,0,0,1-1.2-3.619V84.7A5.181,5.181,0,0,1,371.2,81.14a3.894,3.894,0,0,1,3.032-1.408,3.622,3.622,0,0,1,3,1.247,5.133,5.133,0,0,1,1,3.313v.96H371.85l-.028.046a4.129,4.129,0,0,0,.665,2.442,2.323,2.323,0,0,0,2.031.937,4.574,4.574,0,0,0,1.62-.263,3.632,3.632,0,0,0,1.2-.724l.711,1.181a4.385,4.385,0,0,1-1.412.873,5.643,5.643,0,0,1-2.115.355m-.286-8.936a1.978,1.978,0,0,0-1.574.734,3.484,3.484,0,0,0-.762,1.879l.018.046h4.5v-.147a2.909,2.909,0,0,0-.534-1.8,1.936,1.936,0,0,0-1.653-.712" transform="translate(-73.508 -15.842)"/>
      <path id="Trazado_192965" data-name="Trazado 192965" d="M113.665,111.462H108v5.945h-1.819v-13.44h8.428v1.43H108v4.634h5.668Z" transform="translate(-21.097 -20.657)"/>
      <path id="Trazado_192966" data-name="Trazado 192966" d="M120.888,104.623h-1.819v-1.855h1.819Zm0,12.545h-1.819V107.18h1.819Z" transform="translate(-23.658 -20.419)"/>
      <path id="Trazado_192967" data-name="Trazado 192967" d="M129.556,109.835l-.933-.055a2.084,2.084,0,0,0-1.214.341,2.2,2.2,0,0,0-.761.961v7.136H124.83v-9.988h1.624l.175,1.458a3.468,3.468,0,0,1,1.047-1.209,2.452,2.452,0,0,1,1.436-.434,2.242,2.242,0,0,1,.388.032,2.412,2.412,0,0,1,.3.07Z" transform="translate(-24.803 -21.468)"/>
      <path id="Trazado_192968" data-name="Trazado 192968" d="M134.714,108.228l.13,1.311a3.392,3.392,0,0,1,1.241-1.1,3.733,3.733,0,0,1,1.749-.392,3.089,3.089,0,0,1,1.712.462,2.788,2.788,0,0,1,1.075,1.384,3.737,3.737,0,0,1,1.251-1.352,3.271,3.271,0,0,1,1.805-.494,2.988,2.988,0,0,1,2.409,1.047,4.784,4.784,0,0,1,.886,3.152v5.973h-1.818v-5.991a3.323,3.323,0,0,0-.508-2.091,1.85,1.85,0,0,0-1.514-.615,1.93,1.93,0,0,0-1.51.647,2.818,2.818,0,0,0-.679,1.634v6.416h-1.828v-5.991a3.276,3.276,0,0,0-.522-2.054,1.811,1.811,0,0,0-1.5-.651,2.5,2.5,0,0,0-1.365.342,2.206,2.206,0,0,0-.822.96v7.394H133.09v-9.988Z" transform="translate(-26.444 -21.468)"/>
      <path id="Trazado_192969" data-name="Trazado 192969" d="M159.766,118.217c-.063-.3-.11-.568-.143-.8a5.631,5.631,0,0,1-.06-.7,4.231,4.231,0,0,1-1.325,1.2,3.39,3.39,0,0,1-1.759.485,3.261,3.261,0,0,1-2.377-.8,2.935,2.935,0,0,1-.817-2.2,2.58,2.58,0,0,1,1.159-2.239,5.41,5.41,0,0,1,3.143-.808h1.976v-.987a1.834,1.834,0,0,0-.535-1.389,2.1,2.1,0,0,0-1.514-.513,2.195,2.195,0,0,0-1.431.444,1.327,1.327,0,0,0-.545,1.061l-1.726.018-.018-.055a2.389,2.389,0,0,1,1.02-1.994,4.225,4.225,0,0,1,2.8-.9,4.125,4.125,0,0,1,2.732.863,3.058,3.058,0,0,1,1.034,2.488V116.2a9.374,9.374,0,0,0,.056,1.034,5.229,5.229,0,0,0,.2.978Zm-3.019-1.329a3.235,3.235,0,0,0,1.782-.508,2.411,2.411,0,0,0,1.034-1.163v-1.624h-2.04a2.646,2.646,0,0,0-1.759.554,1.656,1.656,0,0,0-.659,1.3,1.374,1.374,0,0,0,.415,1.053,1.74,1.74,0,0,0,1.228.387" transform="translate(-30.457 -21.468)"/>
      <path id="Trazado_192970" data-name="Trazado 192970" d="M172.857,117.406v-13.44h4.228a5.527,5.527,0,0,1,5.834,5.806v1.837a5.514,5.514,0,0,1-5.834,5.8Zm1.819-12.01v10.588h2.41a3.708,3.708,0,0,0,2.94-1.228,4.6,4.6,0,0,0,1.075-3.148v-1.857a4.579,4.579,0,0,0-1.075-3.129,3.711,3.711,0,0,0-2.94-1.228Z" transform="translate(-34.345 -20.657)"/>
      <path id="Trazado_192971" data-name="Trazado 192971" d="M190.528,104.623h-1.819v-1.855h1.819Zm0,12.545h-1.819V107.18h1.819Z" transform="translate(-37.495 -20.419)"/>
      <path id="Trazado_192972" data-name="Trazado 192972" d="M194.065,113.407a6.671,6.671,0,0,1,1.03-3.887,3.308,3.308,0,0,1,2.876-1.477,3.5,3.5,0,0,1,1.671.384,3.355,3.355,0,0,1,1.209,1.1l.222-1.3h1.449v10.044a3.813,3.813,0,0,1-1.117,2.95,4.589,4.589,0,0,1-3.221,1.029,6.769,6.769,0,0,1-1.556-.2,6.115,6.115,0,0,1-1.472-.541l.277-1.412a5.284,5.284,0,0,0,1.269.448,6.521,6.521,0,0,0,1.463.171,2.648,2.648,0,0,0,1.934-.6,2.505,2.505,0,0,0,.605-1.841v-1.135a3.221,3.221,0,0,1-1.173.951,3.66,3.66,0,0,1-1.578.323,3.415,3.415,0,0,1-2.857-1.325,5.526,5.526,0,0,1-1.03-3.485Zm1.819.194a4.24,4.24,0,0,0,.619,2.418,2.146,2.146,0,0,0,1.911.913,2.4,2.4,0,0,0,1.375-.374,2.833,2.833,0,0,0,.914-1.056v-4.6a2.828,2.828,0,0,0-.914-1.011,2.4,2.4,0,0,0-1.357-.374,2.07,2.07,0,0,0-1.925,1.081,5.566,5.566,0,0,0-.623,2.806Z" transform="translate(-38.559 -21.467)"/>
      <path id="Trazado_192973" data-name="Trazado 192973" d="M209.882,104.623h-1.819v-1.855h1.819Zm0,12.545h-1.819V107.18h1.819Z" transform="translate(-41.341 -20.419)"/>
      <path id="Trazado_192974" data-name="Trazado 192974" d="M216.135,105.268v2.41h1.893v1.347h-1.893v6.066a1.357,1.357,0,0,0,.291.987,1.049,1.049,0,0,0,.771.287,1.718,1.718,0,0,0,.351-.042,2.72,2.72,0,0,0,.323-.087l.249,1.245a1.591,1.591,0,0,1-.6.272,3.046,3.046,0,0,1-.785.107,2.352,2.352,0,0,1-1.763-.67,2.9,2.9,0,0,1-.655-2.1v-6.066h-1.588v-1.347h1.588v-2.41Z" transform="translate(-42.268 -20.916)"/>
      <path id="Trazado_192975" data-name="Trazado 192975" d="M227.827,118.217c-.062-.3-.11-.568-.143-.8a5.632,5.632,0,0,1-.06-.7,4.23,4.23,0,0,1-1.325,1.2,3.39,3.39,0,0,1-1.759.485,3.261,3.261,0,0,1-2.377-.8,2.935,2.935,0,0,1-.817-2.2,2.58,2.58,0,0,1,1.159-2.239,5.41,5.41,0,0,1,3.143-.808h1.976v-.987a1.834,1.834,0,0,0-.535-1.389,2.1,2.1,0,0,0-1.514-.513,2.195,2.195,0,0,0-1.431.444,1.326,1.326,0,0,0-.545,1.061l-1.726.018-.018-.055a2.389,2.389,0,0,1,1.02-1.994,4.225,4.225,0,0,1,2.8-.9,4.125,4.125,0,0,1,2.732.863,3.058,3.058,0,0,1,1.034,2.488V116.2a9.374,9.374,0,0,0,.056,1.034,5.228,5.228,0,0,0,.2.978Zm-3.019-1.329a3.235,3.235,0,0,0,1.782-.508,2.411,2.411,0,0,0,1.034-1.163v-1.624h-2.04a2.646,2.646,0,0,0-1.759.554,1.656,1.656,0,0,0-.659,1.3,1.374,1.374,0,0,0,.415,1.053,1.74,1.74,0,0,0,1.228.387" transform="translate(-43.98 -21.468)"/>
      <rect id="Rectángulo_39864" data-name="Rectángulo 39864" width="1.819" height="14.401" transform="translate(188.249 82.348)"/>
      <path id="Trazado_192976" data-name="Trazado 192976" d="M246.425,111.539a12.36,12.36,0,0,1,1.468-6.213,8.486,8.486,0,0,1,3.083-3.434l.055.009.351,1.071a7.857,7.857,0,0,0-2.2,3.166,13.628,13.628,0,0,0-.937,5.382v.119a13.692,13.692,0,0,0,.932,5.382,8.564,8.564,0,0,0,2.207,3.249l-.351,1h-.055a8.5,8.5,0,0,1-3.083-3.43,12.346,12.346,0,0,1-1.468-6.217Z" transform="translate(-48.963 -20.245)"/>
      <path id="Trazado_192977" data-name="Trazado 192977" d="M253.763,117.406l2.013-13.44H260a4.907,4.907,0,0,1,3.942,1.639,4.972,4.972,0,0,1,1.025,4.168l-.277,1.837a6.7,6.7,0,0,1-2.22,4.232,6.623,6.623,0,0,1-4.483,1.565Zm3.619-12.01-1.587,10.588H258.2a4.315,4.315,0,0,0,3.088-1.241,5.3,5.3,0,0,0,1.583-3.134l.277-1.857a4.106,4.106,0,0,0-.591-3.161,3.221,3.221,0,0,0-2.769-1.2Z" transform="translate(-50.421 -20.657)"/>
      <path id="Trazado_192978" data-name="Trazado 192978" d="M277.656,114.276a1.885,1.885,0,0,0-.47-1.671,6.055,6.055,0,0,0-2.364-1.21,7.283,7.283,0,0,1-3.079-1.615,3.073,3.073,0,0,1-.688-2.76,3.407,3.407,0,0,1,1.509-2.433,5.508,5.508,0,0,1,3.153-.863,4.843,4.843,0,0,1,3.378,1.1,3.085,3.085,0,0,1,.877,3.01l-.018.055H278.21a2.218,2.218,0,0,0-.563-1.971,2.862,2.862,0,0,0-2.151-.761,2.955,2.955,0,0,0-1.777.53,1.934,1.934,0,0,0-.845,1.316,1.885,1.885,0,0,0,.393,1.684,6.688,6.688,0,0,0,2.414,1.2,7.909,7.909,0,0,1,3.115,1.656,3,3,0,0,1,.679,2.719,3.379,3.379,0,0,1-1.556,2.465,5.99,5.99,0,0,1-3.273.831,6.287,6.287,0,0,1-3.623-1,2.845,2.845,0,0,1-1.1-3.1l.027-.056h1.736a1.938,1.938,0,0,0,.748,2.105,4.378,4.378,0,0,0,2.428.627,3.344,3.344,0,0,0,1.865-.521,1.933,1.933,0,0,0,.933-1.334" transform="translate(-53.617 -20.609)"/>
      <path id="Trazado_192979" data-name="Trazado 192979" d="M291.976,114.276a1.885,1.885,0,0,0-.47-1.671,6.056,6.056,0,0,0-2.364-1.21,7.283,7.283,0,0,1-3.079-1.615,3.073,3.073,0,0,1-.688-2.76,3.407,3.407,0,0,1,1.509-2.433,5.508,5.508,0,0,1,3.153-.863,4.843,4.843,0,0,1,3.378,1.1,3.085,3.085,0,0,1,.877,3.01l-.018.055H292.53a2.218,2.218,0,0,0-.563-1.971,2.862,2.862,0,0,0-2.151-.761,2.955,2.955,0,0,0-1.777.53,1.934,1.934,0,0,0-.845,1.316,1.885,1.885,0,0,0,.393,1.684,6.688,6.688,0,0,0,2.414,1.2,7.909,7.909,0,0,1,3.115,1.656,3,3,0,0,1,.679,2.719,3.379,3.379,0,0,1-1.556,2.465,5.989,5.989,0,0,1-3.273.831,6.287,6.287,0,0,1-3.623-1,2.845,2.845,0,0,1-1.1-3.1l.027-.056H286a1.938,1.938,0,0,0,.748,2.105,4.378,4.378,0,0,0,2.428.627,3.344,3.344,0,0,0,1.865-.521,1.933,1.933,0,0,0,.933-1.334" transform="translate(-56.462 -20.609)"/>
      <path id="Trazado_192980" data-name="Trazado 192980" d="M302.371,111.621a12.319,12.319,0,0,1-1.472,6.217,8.571,8.571,0,0,1-3.079,3.43h-.056l-.35-1a7.865,7.865,0,0,0,2.192-3.19,13.88,13.88,0,0,0,.946-5.442v-.119a13.409,13.409,0,0,0-.974-5.387,8.889,8.889,0,0,0-2.164-3.244l.35-1h.056a8.562,8.562,0,0,1,3.079,3.434,12.322,12.322,0,0,1,1.472,6.212Z" transform="translate(-59.094 -20.245)"/>
      <rect id="Rectángulo_39865" data-name="Rectángulo 39865" width="1.818" height="1.865" transform="translate(246.093 94.884)"/>
      <path id="Trazado_192981" data-name="Trazado 192981" d="M976.5,109.343V19.683L959.9,7.92H643.928V97.582l16.594,11.762Z" transform="translate(-127.944 -1.574)" fill="#ffd8e3"/>
      <path id="Trazado_192982" data-name="Trazado 192982" d="M976.5,109.343V19.683L959.9,7.92H643.928V97.582l16.594,11.762Z" transform="translate(-127.944 -1.574)" fill="none" stroke="#5c379b" stroke-miterlimit="10" stroke-width="2"/>
      <path id="Trazado_192983" data-name="Trazado 192983" d="M793.5,27.06h-4.921v5.41h-3.12V19.03h8.982v2.4h-5.862V24.66H793.5Z" transform="translate(-156.065 -3.781)"/>
      <path id="Trazado_192984" data-name="Trazado 192984" d="M801.7,19.926h-3.129v-2.1H801.7Zm0,12.306h-3.129V22.244H801.7Z" transform="translate(-158.67 -3.543)"/>
      <path id="Trazado_192985" data-name="Trazado 192985" d="M810.378,25.95l-1.015-.009a1.73,1.73,0,0,0-.877.2,1.223,1.223,0,0,0-.507.559V33.28h-3.12V23.292h2.935l.111,1.468a3,3,0,0,1,.83-1.22,1.827,1.827,0,0,1,1.209-.434,2.429,2.429,0,0,1,.379.027,2.907,2.907,0,0,1,.351.084Z" transform="translate(-159.92 -4.591)"/>
      <path id="Trazado_192986" data-name="Trazado 192986" d="M816.111,23.292l.111,1.32a3.307,3.307,0,0,1,1.187-1.112,3.35,3.35,0,0,1,1.638-.392,3.054,3.054,0,0,1,1.607.405,2.5,2.5,0,0,1,1.015,1.237,3.337,3.337,0,0,1,1.187-1.213,3.251,3.251,0,0,1,1.693-.429,2.773,2.773,0,0,1,2.294,1.047,5.138,5.138,0,0,1,.836,3.227v5.9h-3.13v-5.9a2.6,2.6,0,0,0-.3-1.473,1.052,1.052,0,0,0-.9-.4,1.862,1.862,0,0,0-.8.162,1.672,1.672,0,0,0-.586.447c0,.1,0,.2.009.272s.01.152.01.226v6.665h-3.12v-5.9a2.626,2.626,0,0,0-.3-1.478,1.065,1.065,0,0,0-.913-.4,1.792,1.792,0,0,0-.771.162,1.684,1.684,0,0,0-.587.447v7.164h-3.12V23.292Z" transform="translate(-161.572 -4.591)"/>
      <path id="Trazado_192987" data-name="Trazado 192987" d="M839.121,33.27a3.754,3.754,0,0,1-.3-.71,5.537,5.537,0,0,1-.189-.831,3.82,3.82,0,0,1-1,1.269,2.419,2.419,0,0,1-1.555.475,3.461,3.461,0,0,1-2.442-.807,2.854,2.854,0,0,1-.873-2.2,2.666,2.666,0,0,1,1.117-2.295,5.791,5.791,0,0,1,3.388-.808h1.283v-.71a1.422,1.422,0,0,0-.3-.979,1.188,1.188,0,0,0-.932-.341,1.124,1.124,0,0,0-.808.254,1.054,1.054,0,0,0-.264.789l-3.027-.01-.018-.055a2.6,2.6,0,0,1,1.14-2.285,5.108,5.108,0,0,1,3.18-.918,4.652,4.652,0,0,1,3,.923,3.19,3.19,0,0,1,1.149,2.64v3.766a7.707,7.707,0,0,0,.134,1.477,8.013,8.013,0,0,0,.4,1.366Zm-2.2-2.021a1.9,1.9,0,0,0,1.01-.268,1.534,1.534,0,0,0,.614-.637v-1.32h-1.256a1.407,1.407,0,0,0-1.079.36,1.292,1.292,0,0,0-.333.913.887.887,0,0,0,.291.688,1.078,1.078,0,0,0,.752.263" transform="translate(-165.464 -4.591)"/>
      <path id="Trazado_192988" data-name="Trazado 192988" d="M851.365,27.257a6.351,6.351,0,0,1,1.02-3.767,3.328,3.328,0,0,1,2.876-1.431,2.483,2.483,0,0,1,1.251.319,3.314,3.314,0,0,1,1,.909V17.831h3.12v14.4H857.9l-.212-1.219a3.368,3.368,0,0,1-1.058,1.048,2.639,2.639,0,0,1-1.389.365,3.355,3.355,0,0,1-2.861-1.366,5.9,5.9,0,0,1-1.016-3.61Zm3.12.193a4.157,4.157,0,0,0,.355,1.9,1.242,1.242,0,0,0,1.2.679,1.966,1.966,0,0,0,.863-.18,1.55,1.55,0,0,0,.614-.531V25.281a1.71,1.71,0,0,0-.61-.61,1.678,1.678,0,0,0-.849-.212,1.245,1.245,0,0,0-1.2.766,4.706,4.706,0,0,0-.369,2.031Z" transform="translate(-169.16 -3.543)"/>
      <path id="Trazado_192989" data-name="Trazado 192989" d="M868.446,19.926h-3.129v-2.1h3.129Zm0,12.306h-3.129V22.244h3.129Z" transform="translate(-171.932 -3.543)"/>
      <path id="Trazado_192990" data-name="Trazado 192990" d="M871.077,28.305a6.351,6.351,0,0,1,1.02-3.767,3.326,3.326,0,0,1,2.875-1.431,2.564,2.564,0,0,1,1.385.374,3.315,3.315,0,0,1,1.034,1.057l.2-1.246h2.751v9.877a3.7,3.7,0,0,1-1.353,3.06,5.8,5.8,0,0,1-3.724,1.085,6.69,6.69,0,0,1-1.625-.212,9,9,0,0,1-1.625-.573l.536-2.307a7.375,7.375,0,0,0,1.288.438,6.24,6.24,0,0,0,1.408.143,2.31,2.31,0,0,0,1.482-.4,1.529,1.529,0,0,0,.484-1.255v-.776a2.707,2.707,0,0,1-2.261,1.1,3.356,3.356,0,0,1-2.861-1.366,5.907,5.907,0,0,1-1.015-3.61Zm3.111.193a4.148,4.148,0,0,0,.355,1.9,1.25,1.25,0,0,0,1.205.679,2.211,2.211,0,0,0,.873-.157,1.427,1.427,0,0,0,.594-.471v-4.2a1.549,1.549,0,0,0-.591-.549,1.823,1.823,0,0,0-.858-.189,1.256,1.256,0,0,0-1.205.77,4.679,4.679,0,0,0-.373,2.027Z" transform="translate(-173.077 -4.591)"/>
      <path id="Trazado_192991" data-name="Trazado 192991" d="M888.168,19.926h-3.129v-2.1h3.129Zm0,12.306h-3.129V22.244h3.129Z" transform="translate(-175.851 -3.543)"/>
      <path id="Trazado_192992" data-name="Trazado 192992" d="M894.68,20.239v2.483h1.578v2.16H894.68v4.579a1.12,1.12,0,0,0,.217.771.759.759,0,0,0,.586.235,3.034,3.034,0,0,0,.383-.018,3.114,3.114,0,0,0,.365-.075l.212,2.309a7.472,7.472,0,0,1-.849.171,6.872,6.872,0,0,1-.9.051,3.115,3.115,0,0,1-2.34-.822,3.623,3.623,0,0,1-.8-2.6v-4.6h-1.393v-2.16h1.393V20.239Z" transform="translate(-176.87 -4.021)"/>
      <path id="Trazado_192993" data-name="Trazado 192993" d="M905.282,33.27a3.75,3.75,0,0,1-.3-.71,5.529,5.529,0,0,1-.189-.831,3.82,3.82,0,0,1-1,1.269,2.419,2.419,0,0,1-1.555.475,3.462,3.462,0,0,1-2.442-.807,2.855,2.855,0,0,1-.873-2.2,2.666,2.666,0,0,1,1.117-2.295,5.791,5.791,0,0,1,3.388-.808h1.283v-.71a1.422,1.422,0,0,0-.3-.979,1.188,1.188,0,0,0-.932-.341,1.124,1.124,0,0,0-.808.254,1.054,1.054,0,0,0-.264.789l-3.027-.01-.018-.055a2.6,2.6,0,0,1,1.14-2.285,5.108,5.108,0,0,1,3.18-.918,4.652,4.652,0,0,1,3,.923,3.19,3.19,0,0,1,1.149,2.64v3.766a7.7,7.7,0,0,0,.134,1.477,8.007,8.007,0,0,0,.4,1.366Zm-2.2-2.021a1.9,1.9,0,0,0,1.01-.268,1.535,1.535,0,0,0,.614-.637v-1.32h-1.256a1.407,1.407,0,0,0-1.079.36,1.293,1.293,0,0,0-.333.913.886.886,0,0,0,.291.688,1.078,1.078,0,0,0,.752.263" transform="translate(-178.609 -4.591)"/>
      <rect id="Rectángulo_39866" data-name="Rectángulo 39866" width="3.129" height="14.401" transform="translate(731.067 14.288)"/>
      <path id="Trazado_192994" data-name="Trazado 192994" d="M686.177,54.551h-5.52v4.809h6.462v1.422h-8.281V47.342h8.179v1.43h-6.36v4.349h5.52Z" transform="translate(-134.88 -9.406)"/>
      <path id="Trazado_192995" data-name="Trazado 192995" d="M697.273,58.907a1.212,1.212,0,0,0-.457-.978,4.418,4.418,0,0,0-1.731-.665,7.253,7.253,0,0,1-2.709-1.061,2.143,2.143,0,0,1-.946-1.828,2.635,2.635,0,0,1,1.038-2.087,4.059,4.059,0,0,1,2.691-.868,4.017,4.017,0,0,1,2.751.924,2.645,2.645,0,0,1,1.006,2.15l-.018.056h-1.736a1.572,1.572,0,0,0-.568-1.172,2.028,2.028,0,0,0-1.435-.527,2.071,2.071,0,0,0-1.436.434,1.356,1.356,0,0,0-.475,1.034,1.1,1.1,0,0,0,.411.914,4.533,4.533,0,0,0,1.694.591,7.169,7.169,0,0,1,2.788,1.1,2.214,2.214,0,0,1,.951,1.856,2.63,2.63,0,0,1-1.076,2.169,5.138,5.138,0,0,1-5.82-.129,2.766,2.766,0,0,1-1.043-2.261l.018-.056h1.736a1.681,1.681,0,0,0,.72,1.418,2.786,2.786,0,0,0,1.578.447,2.489,2.489,0,0,0,1.518-.41,1.258,1.258,0,0,0,.55-1.048" transform="translate(-137.327 -10.217)"/>
      <path id="Trazado_192996" data-name="Trazado 192996" d="M713.777,61.787a4.226,4.226,0,0,1-3.355-1.375,5.292,5.292,0,0,1-1.2-3.619v-.406a5.181,5.181,0,0,1,1.241-3.559,3.893,3.893,0,0,1,3.032-1.408,3.622,3.622,0,0,1,3,1.247,5.133,5.133,0,0,1,1,3.313v.96H711.11l-.028.046a4.129,4.129,0,0,0,.665,2.442,2.323,2.323,0,0,0,2.031.937,4.574,4.574,0,0,0,1.62-.263,3.632,3.632,0,0,0,1.2-.724l.711,1.181a4.385,4.385,0,0,1-1.412.873,5.643,5.643,0,0,1-2.115.355m-.286-8.936a1.978,1.978,0,0,0-1.574.734,3.484,3.484,0,0,0-.762,1.879l.018.046h4.505v-.147a2.909,2.909,0,0,0-.534-1.8,1.936,1.936,0,0,0-1.653-.712" transform="translate(-140.917 -10.217)"/>
      <rect id="Rectángulo_39867" data-name="Rectángulo 39867" width="1.819" height="14.401" transform="translate(578.768 36.975)"/>
      <path id="Trazado_192997" data-name="Trazado 192997" d="M742.416,56.977a5.508,5.508,0,0,1-1.034,3.485,3.417,3.417,0,0,1-2.853,1.325,3.964,3.964,0,0,1-1.619-.309,3.093,3.093,0,0,1-1.187-.928v4.883h-1.818V51.6H735.3l.287,1.292a3.3,3.3,0,0,1,1.218-1.1,3.639,3.639,0,0,1,1.7-.378,3.318,3.318,0,0,1,2.885,1.473,6.66,6.66,0,0,1,1.03,3.89Zm-1.819-.194a5.277,5.277,0,0,0-.669-2.793,2.169,2.169,0,0,0-1.971-1.095,2.424,2.424,0,0,0-1.338.357,2.655,2.655,0,0,0-.9.974v4.828a2.585,2.585,0,0,0,.9.965,2.512,2.512,0,0,0,1.357.346,2.236,2.236,0,0,0,1.956-.946,4.148,4.148,0,0,0,.665-2.442Z" transform="translate(-145.822 -10.217)"/>
      <path id="Trazado_192998" data-name="Trazado 192998" d="M752.041,53.211l-.933-.055a2.084,2.084,0,0,0-1.214.341,2.2,2.2,0,0,0-.761.961v7.136h-1.818V51.6h1.624l.175,1.458a3.468,3.468,0,0,1,1.047-1.209,2.452,2.452,0,0,1,1.436-.434,2.242,2.242,0,0,1,.388.032,2.41,2.41,0,0,1,.3.07Z" transform="translate(-148.486 -10.217)"/>
      <path id="Trazado_192999" data-name="Trazado 192999" d="M757.577,48h-1.819V46.144h1.819Zm0,12.545h-1.819V50.556h1.819Z" transform="translate(-150.164 -9.168)"/>
      <path id="Trazado_193000" data-name="Trazado 193000" d="M763.143,51.6l.13,1.311a3.392,3.392,0,0,1,1.241-1.1,3.733,3.733,0,0,1,1.749-.392,3.089,3.089,0,0,1,1.712.462,2.788,2.788,0,0,1,1.075,1.384,3.736,3.736,0,0,1,1.251-1.352,3.271,3.271,0,0,1,1.805-.494,2.988,2.988,0,0,1,2.409,1.047,4.784,4.784,0,0,1,.886,3.152v5.973h-1.818V55.6a3.323,3.323,0,0,0-.508-2.091,1.85,1.85,0,0,0-1.514-.615,1.93,1.93,0,0,0-1.51.647,2.819,2.819,0,0,0-.679,1.634v6.416h-1.828V55.6a3.276,3.276,0,0,0-.522-2.054,1.811,1.811,0,0,0-1.5-.651,2.5,2.5,0,0,0-1.365.342,2.206,2.206,0,0,0-.822.96v7.394h-1.818V51.6Z" transform="translate(-151.308 -10.217)"/>
      <path id="Trazado_193001" data-name="Trazado 193001" d="M786.17,61.787a4.225,4.225,0,0,1-3.355-1.375,5.292,5.292,0,0,1-1.2-3.619v-.406a5.181,5.181,0,0,1,1.241-3.559,3.894,3.894,0,0,1,3.032-1.408,3.621,3.621,0,0,1,3,1.247,5.133,5.133,0,0,1,1,3.313v.96H783.5l-.028.046a4.129,4.129,0,0,0,.665,2.442,2.323,2.323,0,0,0,2.03.937,4.574,4.574,0,0,0,1.62-.263,3.632,3.632,0,0,0,1.2-.724l.711,1.181a4.386,4.386,0,0,1-1.412.873,5.643,5.643,0,0,1-2.115.355m-.286-8.936a1.978,1.978,0,0,0-1.574.734,3.484,3.484,0,0,0-.762,1.879l.018.046h4.5v-.147a2.909,2.909,0,0,0-.534-1.8,1.936,1.936,0,0,0-1.653-.712" transform="translate(-155.301 -10.217)"/>
      <path id="Trazado_193002" data-name="Trazado 193002" d="M799.216,53.211l-.933-.055a2.084,2.084,0,0,0-1.214.341,2.2,2.2,0,0,0-.761.961v7.136H794.49V51.6h1.624l.175,1.458a3.468,3.468,0,0,1,1.047-1.209,2.452,2.452,0,0,1,1.436-.434,2.241,2.241,0,0,1,.388.032,2.41,2.41,0,0,1,.3.07Z" transform="translate(-157.86 -10.217)"/>
      <path id="Trazado_193003" data-name="Trazado 193003" d="M810.925,48.643v2.41h1.893V52.4h-1.893v6.066a1.357,1.357,0,0,0,.291.987,1.05,1.05,0,0,0,.771.287,1.718,1.718,0,0,0,.351-.042,2.714,2.714,0,0,0,.323-.087l.249,1.245a1.591,1.591,0,0,1-.6.272,3.046,3.046,0,0,1-.785.107,2.352,2.352,0,0,1-1.763-.67,2.9,2.9,0,0,1-.655-2.1V52.4h-1.588V51.053h1.588v-2.41Z" transform="translate(-160.448 -9.665)"/>
      <path id="Trazado_193004" data-name="Trazado 193004" d="M820.592,61.787a4.225,4.225,0,0,1-3.355-1.375,5.292,5.292,0,0,1-1.2-3.619v-.406a5.181,5.181,0,0,1,1.241-3.559,3.894,3.894,0,0,1,3.032-1.408,3.622,3.622,0,0,1,3,1.247,5.134,5.134,0,0,1,1,3.313v.96h-6.388l-.028.046a4.129,4.129,0,0,0,.665,2.442,2.323,2.323,0,0,0,2.031.937,4.574,4.574,0,0,0,1.62-.263,3.632,3.632,0,0,0,1.2-.724l.711,1.181a4.385,4.385,0,0,1-1.412.873,5.643,5.643,0,0,1-2.115.355m-.286-8.936a1.978,1.978,0,0,0-1.574.734,3.484,3.484,0,0,0-.762,1.879l.018.046h4.505v-.147a2.909,2.909,0,0,0-.534-1.8,1.936,1.936,0,0,0-1.653-.712" transform="translate(-162.14 -10.217)"/>
      <path id="Trazado_193005" data-name="Trazado 193005" d="M830.537,51.6l.13,1.311a3.386,3.386,0,0,1,1.241-1.1,3.728,3.728,0,0,1,1.748-.392,3.087,3.087,0,0,1,1.712.462,2.794,2.794,0,0,1,1.076,1.384,3.728,3.728,0,0,1,1.25-1.352,3.273,3.273,0,0,1,1.805-.494,2.99,2.99,0,0,1,2.41,1.047,4.788,4.788,0,0,1,.885,3.152v5.973h-1.818V55.6a3.324,3.324,0,0,0-.507-2.091,1.851,1.851,0,0,0-1.514-.615,1.927,1.927,0,0,0-1.509.647,2.813,2.813,0,0,0-.68,1.634v6.416H834.94V55.6a3.281,3.281,0,0,0-.522-2.054,1.813,1.813,0,0,0-1.5-.651,2.5,2.5,0,0,0-1.365.342,2.206,2.206,0,0,0-.822.96v7.394h-1.818V51.6Z" transform="translate(-164.699 -10.217)"/>
      <path id="Trazado_193006" data-name="Trazado 193006" d="M855.588,61.593c-.062-.3-.11-.568-.144-.8a5.637,5.637,0,0,1-.06-.7,4.231,4.231,0,0,1-1.324,1.2,3.391,3.391,0,0,1-1.759.485,3.261,3.261,0,0,1-2.377-.8,2.935,2.935,0,0,1-.817-2.2,2.58,2.58,0,0,1,1.159-2.239,5.41,5.41,0,0,1,3.143-.808h1.976v-.987a1.834,1.834,0,0,0-.535-1.389,2.1,2.1,0,0,0-1.514-.513,2.195,2.195,0,0,0-1.431.444,1.326,1.326,0,0,0-.545,1.061l-1.726.018-.018-.055a2.389,2.389,0,0,1,1.02-1.994,4.226,4.226,0,0,1,2.8-.9,4.125,4.125,0,0,1,2.733.863,3.058,3.058,0,0,1,1.034,2.488V59.58a9.371,9.371,0,0,0,.056,1.034,5.228,5.228,0,0,0,.2.978Zm-3.019-1.329a3.235,3.235,0,0,0,1.782-.508,2.412,2.412,0,0,0,1.034-1.163V56.968h-2.04a2.646,2.646,0,0,0-1.759.554,1.656,1.656,0,0,0-.66,1.3,1.374,1.374,0,0,0,.415,1.053,1.739,1.739,0,0,0,1.228.387" transform="translate(-168.712 -10.217)"/>
      <path id="Trazado_193007" data-name="Trazado 193007" d="M867.85,55.735a6.672,6.672,0,0,1,1.03-3.887,3.318,3.318,0,0,1,2.885-1.477,3.572,3.572,0,0,1,1.555.324,3.172,3.172,0,0,1,1.159.942V46.143H876.3v14.4H874.9l-.276-1.264a3.262,3.262,0,0,1-1.21,1.089,3.614,3.614,0,0,1-1.671.369,3.427,3.427,0,0,1-2.861-1.325,5.508,5.508,0,0,1-1.034-3.485Zm1.819.194a4.23,4.23,0,0,0,.619,2.422,2.158,2.158,0,0,0,1.92.909,2.4,2.4,0,0,0,1.366-.369,2.749,2.749,0,0,0,.9-1.034V53.2a2.8,2.8,0,0,0-.909-.984,2.411,2.411,0,0,0-1.343-.365,2.078,2.078,0,0,0-1.934,1.081,5.567,5.567,0,0,0-.623,2.806Z" transform="translate(-172.436 -9.168)"/>
      <path id="Trazado_193008" data-name="Trazado 193008" d="M885.808,61.787a4.225,4.225,0,0,1-3.355-1.375,5.292,5.292,0,0,1-1.2-3.619v-.406a5.181,5.181,0,0,1,1.241-3.559,3.894,3.894,0,0,1,3.032-1.408,3.621,3.621,0,0,1,3,1.247,5.133,5.133,0,0,1,1,3.313v.96h-6.388l-.028.046a4.13,4.13,0,0,0,.665,2.442,2.323,2.323,0,0,0,2.031.937,4.574,4.574,0,0,0,1.62-.263,3.632,3.632,0,0,0,1.2-.724l.711,1.181a4.385,4.385,0,0,1-1.412.873,5.643,5.643,0,0,1-2.115.355m-.286-8.936a1.978,1.978,0,0,0-1.574.734,3.484,3.484,0,0,0-.762,1.879l.018.046h4.5v-.147a2.909,2.909,0,0,0-.534-1.8,1.936,1.936,0,0,0-1.653-.712" transform="translate(-175.098 -10.217)"/>
      <path id="Trazado_193009" data-name="Trazado 193009" d="M900.237,60.5v-8.64h-1.57V50.508h1.57V49.428a3.4,3.4,0,0,1,.982-2.6,3.829,3.829,0,0,1,2.728-.924,5.235,5.235,0,0,1,1.219.143q.6.143,1.413.42l-.314,1.477a8.278,8.278,0,0,0-1.043-.332,4.671,4.671,0,0,0-1.135-.139,2.123,2.123,0,0,0-1.555.48,2.023,2.023,0,0,0-.475,1.478v1.079h1.985v1.348h-1.985V60.5Zm7.228,0h-1.828V50.508h1.828Z" transform="translate(-178.559 -9.12)"/>
      <path id="Trazado_193010" data-name="Trazado 193010" d="M917.851,53.211l-.933-.055a2.084,2.084,0,0,0-1.214.341,2.2,2.2,0,0,0-.761.961v7.136h-1.818V51.6h1.624l.175,1.458a3.468,3.468,0,0,1,1.047-1.209,2.452,2.452,0,0,1,1.436-.434,2.241,2.241,0,0,1,.388.032,2.407,2.407,0,0,1,.3.07Z" transform="translate(-181.432 -10.217)"/>
      <path id="Trazado_193011" data-name="Trazado 193011" d="M923.01,51.6l.13,1.311a3.392,3.392,0,0,1,1.241-1.1,3.734,3.734,0,0,1,1.749-.392,3.089,3.089,0,0,1,1.712.462,2.788,2.788,0,0,1,1.075,1.384,3.738,3.738,0,0,1,1.251-1.352,3.271,3.271,0,0,1,1.805-.494,2.988,2.988,0,0,1,2.409,1.047,4.784,4.784,0,0,1,.886,3.152v5.973h-1.818V55.6a3.323,3.323,0,0,0-.508-2.091,1.85,1.85,0,0,0-1.514-.615,1.93,1.93,0,0,0-1.51.647,2.818,2.818,0,0,0-.679,1.634v6.416h-1.828V55.6a3.276,3.276,0,0,0-.522-2.054,1.81,1.81,0,0,0-1.5-.651,2.5,2.5,0,0,0-1.365.342,2.205,2.205,0,0,0-.822.96v7.394h-1.818V51.6Z" transform="translate(-183.073 -10.217)"/>
      <path id="Trazado_193012" data-name="Trazado 193012" d="M948.061,61.593c-.062-.3-.11-.568-.143-.8a5.626,5.626,0,0,1-.06-.7,4.23,4.23,0,0,1-1.325,1.2,3.39,3.39,0,0,1-1.759.485,3.261,3.261,0,0,1-2.377-.8,2.935,2.935,0,0,1-.817-2.2,2.58,2.58,0,0,1,1.159-2.239,5.409,5.409,0,0,1,3.143-.808h1.976v-.987a1.834,1.834,0,0,0-.535-1.389,2.1,2.1,0,0,0-1.514-.513,2.2,2.2,0,0,0-1.431.444,1.327,1.327,0,0,0-.545,1.061l-1.726.018-.018-.055a2.389,2.389,0,0,1,1.02-1.994,4.225,4.225,0,0,1,2.8-.9,4.125,4.125,0,0,1,2.732.863,3.058,3.058,0,0,1,1.034,2.488V59.58a9.37,9.37,0,0,0,.056,1.034,5.228,5.228,0,0,0,.2.978Zm-3.019-1.329a3.235,3.235,0,0,0,1.782-.508,2.412,2.412,0,0,0,1.034-1.163V56.968h-2.04a2.646,2.646,0,0,0-1.759.554,1.656,1.656,0,0,0-.659,1.3,1.374,1.374,0,0,0,.415,1.053,1.74,1.74,0,0,0,1.228.387" transform="translate(-187.085 -10.217)"/>
      <path id="Trazado_193013" data-name="Trazado 193013" d="M960.323,55.735a6.672,6.672,0,0,1,1.03-3.887,3.318,3.318,0,0,1,2.885-1.477,3.572,3.572,0,0,1,1.555.324,3.172,3.172,0,0,1,1.159.942V46.143h1.818v14.4h-1.393L967.1,59.28a3.261,3.261,0,0,1-1.21,1.089,3.614,3.614,0,0,1-1.671.369,3.427,3.427,0,0,1-2.862-1.325,5.508,5.508,0,0,1-1.034-3.485Zm1.819.194a4.231,4.231,0,0,0,.619,2.422,2.158,2.158,0,0,0,1.92.909,2.4,2.4,0,0,0,1.366-.369,2.749,2.749,0,0,0,.9-1.034V53.2a2.8,2.8,0,0,0-.91-.984,2.411,2.411,0,0,0-1.343-.365,2.078,2.078,0,0,0-1.934,1.081,5.566,5.566,0,0,0-.623,2.806Z" transform="translate(-190.809 -9.168)"/>
      <path id="Trazado_193014" data-name="Trazado 193014" d="M976.254,48h-1.819V46.144h1.819Zm0,12.545h-1.819V50.556h1.819Z" transform="translate(-193.613 -9.168)"/>
      <path id="Trazado_193015" data-name="Trazado 193015" d="M979.792,56.783a6.672,6.672,0,0,1,1.03-3.887,3.309,3.309,0,0,1,2.876-1.477,3.5,3.5,0,0,1,1.671.384,3.354,3.354,0,0,1,1.209,1.1l.222-1.3h1.449V61.648a3.813,3.813,0,0,1-1.117,2.95,4.588,4.588,0,0,1-3.221,1.029,6.769,6.769,0,0,1-1.556-.2,6.116,6.116,0,0,1-1.472-.541l.277-1.412a5.286,5.286,0,0,0,1.269.448,6.522,6.522,0,0,0,1.463.171,2.647,2.647,0,0,0,1.933-.6,2.505,2.505,0,0,0,.605-1.841V60.512a3.22,3.22,0,0,1-1.173.951,3.66,3.66,0,0,1-1.578.323,3.415,3.415,0,0,1-2.857-1.325,5.526,5.526,0,0,1-1.03-3.485Zm1.819.194a4.241,4.241,0,0,0,.619,2.418,2.146,2.146,0,0,0,1.911.913,2.4,2.4,0,0,0,1.375-.374,2.834,2.834,0,0,0,.914-1.056v-4.6a2.828,2.828,0,0,0-.914-1.011,2.4,2.4,0,0,0-1.357-.374,2.07,2.07,0,0,0-1.925,1.081,5.566,5.566,0,0,0-.623,2.806Z" transform="translate(-194.678 -10.217)"/>
      <path id="Trazado_193016" data-name="Trazado 193016" d="M995.608,48h-1.819V46.144h1.819Zm0,12.545h-1.819V50.556h1.819Z" transform="translate(-197.459 -9.168)"/>
      <path id="Trazado_193017" data-name="Trazado 193017" d="M1001.861,48.643v2.41h1.893V52.4h-1.893v6.066a1.357,1.357,0,0,0,.291.987,1.05,1.05,0,0,0,.771.287,1.718,1.718,0,0,0,.351-.042,2.719,2.719,0,0,0,.323-.087l.249,1.245a1.592,1.592,0,0,1-.6.272,3.046,3.046,0,0,1-.785.107,2.352,2.352,0,0,1-1.763-.67,2.9,2.9,0,0,1-.655-2.1V52.4h-1.588V51.053h1.588v-2.41Z" transform="translate(-198.386 -9.665)"/>
      <path id="Trazado_193018" data-name="Trazado 193018" d="M1013.554,61.593c-.062-.3-.11-.568-.143-.8a5.637,5.637,0,0,1-.06-.7,4.229,4.229,0,0,1-1.325,1.2,3.39,3.39,0,0,1-1.759.485,3.261,3.261,0,0,1-2.377-.8,2.935,2.935,0,0,1-.817-2.2,2.58,2.58,0,0,1,1.159-2.239,5.41,5.41,0,0,1,3.143-.808h1.976v-.987a1.834,1.834,0,0,0-.535-1.389,2.1,2.1,0,0,0-1.514-.513,2.2,2.2,0,0,0-1.431.444,1.326,1.326,0,0,0-.545,1.061l-1.726.018-.018-.055a2.389,2.389,0,0,1,1.02-1.994,4.225,4.225,0,0,1,2.8-.9,4.125,4.125,0,0,1,2.732.863,3.058,3.058,0,0,1,1.034,2.488V59.58a9.386,9.386,0,0,0,.056,1.034,5.228,5.228,0,0,0,.2.978Zm-3.019-1.329a3.235,3.235,0,0,0,1.782-.508,2.412,2.412,0,0,0,1.034-1.163V56.968h-2.04a2.646,2.646,0,0,0-1.759.554,1.656,1.656,0,0,0-.659,1.3,1.374,1.374,0,0,0,.415,1.053,1.739,1.739,0,0,0,1.228.387" transform="translate(-200.098 -10.217)"/>
      <rect id="Rectángulo_39868" data-name="Rectángulo 39868" width="1.819" height="14.401" transform="translate(817.857 36.975)"/>
      <path id="Trazado_193019" data-name="Trazado 193019" d="M692.291,81.523l-.933-.055a2.084,2.084,0,0,0-1.214.341,2.2,2.2,0,0,0-.761.961V89.9h-1.818V79.916h1.624l.175,1.458a3.469,3.469,0,0,1,1.047-1.209,2.452,2.452,0,0,1,1.436-.434,2.241,2.241,0,0,1,.388.032,2.409,2.409,0,0,1,.3.07Z" transform="translate(-136.614 -15.842)"/>
      <path id="Trazado_193020" data-name="Trazado 193020" d="M699.636,90.1a4.226,4.226,0,0,1-3.355-1.375,5.292,5.292,0,0,1-1.2-3.619V84.7a5.181,5.181,0,0,1,1.241-3.559,3.894,3.894,0,0,1,3.032-1.408,3.622,3.622,0,0,1,3,1.247,5.133,5.133,0,0,1,1,3.313v.96h-6.388l-.028.046a4.13,4.13,0,0,0,.665,2.442,2.323,2.323,0,0,0,2.031.937,4.575,4.575,0,0,0,1.62-.263,3.632,3.632,0,0,0,1.2-.724l.711,1.181a4.385,4.385,0,0,1-1.412.873,5.643,5.643,0,0,1-2.115.355m-.286-8.936a1.978,1.978,0,0,0-1.574.734,3.483,3.483,0,0,0-.762,1.879l.018.046h4.5v-.147a2.909,2.909,0,0,0-.534-1.8,1.936,1.936,0,0,0-1.653-.712" transform="translate(-138.107 -15.842)"/>
      <path id="Trazado_193021" data-name="Trazado 193021" d="M711.821,88.676a2.138,2.138,0,0,0,1.468-.559,1.763,1.763,0,0,0,.627-1.37h1.643l.027.054a2.868,2.868,0,0,1-1.107,2.294,4.232,4.232,0,0,1-5.908-.429,5.524,5.524,0,0,1-1.144-3.563v-.388a5.5,5.5,0,0,1,1.149-3.55,3.92,3.92,0,0,1,3.245-1.435,3.773,3.773,0,0,1,2.737,1.034,3.278,3.278,0,0,1,1.029,2.539l-.018.055h-1.652a2.2,2.2,0,0,0-.6-1.555,1.962,1.962,0,0,0-1.5-.642,2.1,2.1,0,0,0-1.953,1.039,4.863,4.863,0,0,0-.614,2.515V85.1a4.954,4.954,0,0,0,.6,2.539,2.1,2.1,0,0,0,1.962,1.034" transform="translate(-140.561 -15.842)"/>
      <path id="Trazado_193022" data-name="Trazado 193022" d="M719.776,84.818a5.5,5.5,0,0,1,1.2-3.652,4.026,4.026,0,0,1,3.258-1.435,4.067,4.067,0,0,1,3.282,1.431,5.484,5.484,0,0,1,1.2,3.656v.2a5.471,5.471,0,0,1-1.2,3.656,4.467,4.467,0,0,1-6.54,0,5.464,5.464,0,0,1-1.2-3.651Zm1.818.2a4.735,4.735,0,0,0,.669,2.621,2.417,2.417,0,0,0,3.965,0,4.71,4.71,0,0,0,.675-2.621v-.2a4.7,4.7,0,0,0-.679-2.612,2.224,2.224,0,0,0-1.99-1.043,2.194,2.194,0,0,0-1.971,1.043,4.745,4.745,0,0,0-.669,2.612Z" transform="translate(-143.014 -15.842)"/>
      <path id="Trazado_193023" data-name="Trazado 193023" d="M735.34,79.916l.13,1.486a3.626,3.626,0,0,1,1.251-1.232,3.34,3.34,0,0,1,1.712-.438,3.26,3.26,0,0,1,2.5.946,4.152,4.152,0,0,1,.886,2.922v6.3H740V83.637a2.7,2.7,0,0,0-.522-1.874,2.089,2.089,0,0,0-1.592-.555,2.823,2.823,0,0,0-1.426.337,2.445,2.445,0,0,0-.928.946V89.9h-1.818V79.916Z" transform="translate(-145.784 -15.842)"/>
      <path id="Trazado_193024" data-name="Trazado 193024" d="M746.595,84.818a5.5,5.5,0,0,1,1.2-3.652,4.026,4.026,0,0,1,3.258-1.435,4.067,4.067,0,0,1,3.282,1.431,5.484,5.484,0,0,1,1.2,3.656v.2a5.471,5.471,0,0,1-1.2,3.656,4.467,4.467,0,0,1-6.54,0,5.464,5.464,0,0,1-1.2-3.651Zm1.818.2a4.736,4.736,0,0,0,.669,2.621,2.417,2.417,0,0,0,3.965,0,4.709,4.709,0,0,0,.675-2.621v-.2a4.7,4.7,0,0,0-.679-2.612,2.224,2.224,0,0,0-1.99-1.043,2.194,2.194,0,0,0-1.971,1.043,4.746,4.746,0,0,0-.669,2.612Z" transform="translate(-148.343 -15.842)"/>
      <path id="Trazado_193025" data-name="Trazado 193025" d="M764.4,88.676a2.137,2.137,0,0,0,1.468-.559,1.763,1.763,0,0,0,.627-1.37h1.643l.027.054a2.868,2.868,0,0,1-1.107,2.294,4.232,4.232,0,0,1-5.908-.429,5.524,5.524,0,0,1-1.144-3.563v-.388a5.5,5.5,0,0,1,1.149-3.55,3.92,3.92,0,0,1,3.244-1.435,3.773,3.773,0,0,1,2.737,1.034,3.278,3.278,0,0,1,1.029,2.539l-.018.055h-1.652a2.2,2.2,0,0,0-.6-1.555,1.962,1.962,0,0,0-1.5-.642,2.1,2.1,0,0,0-1.953,1.039,4.863,4.863,0,0,0-.614,2.515V85.1a4.952,4.952,0,0,0,.605,2.539,2.1,2.1,0,0,0,1.962,1.034" transform="translate(-151.008 -15.842)"/>
      <path id="Trazado_193026" data-name="Trazado 193026" d="M774.887,76.31h-1.819V74.455h1.819Zm0,12.546h-1.819V78.868h1.819Z" transform="translate(-153.603 -14.794)"/>
      <path id="Trazado_193027" data-name="Trazado 193027" d="M778.31,84.047a6.672,6.672,0,0,1,1.03-3.887,3.318,3.318,0,0,1,2.885-1.477,3.572,3.572,0,0,1,1.555.324,3.173,3.173,0,0,1,1.159.942V74.455h1.818v14.4h-1.393l-.276-1.264a3.261,3.261,0,0,1-1.21,1.089,3.614,3.614,0,0,1-1.671.369,3.427,3.427,0,0,1-2.861-1.325,5.508,5.508,0,0,1-1.034-3.485Zm1.819.194a4.231,4.231,0,0,0,.619,2.422,2.158,2.158,0,0,0,1.92.909,2.4,2.4,0,0,0,1.366-.369,2.748,2.748,0,0,0,.9-1.034V81.508a2.8,2.8,0,0,0-.909-.984,2.411,2.411,0,0,0-1.343-.365,2.078,2.078,0,0,0-1.934,1.081,5.567,5.567,0,0,0-.623,2.806Z" transform="translate(-154.645 -14.794)"/>
      <path id="Trazado_193028" data-name="Trazado 193028" d="M791.709,84.818a5.5,5.5,0,0,1,1.2-3.652,4.026,4.026,0,0,1,3.258-1.435,4.067,4.067,0,0,1,3.282,1.431,5.484,5.484,0,0,1,1.2,3.656v.2a5.471,5.471,0,0,1-1.2,3.656,4.467,4.467,0,0,1-6.54,0,5.464,5.464,0,0,1-1.2-3.651Zm1.818.2a4.735,4.735,0,0,0,.669,2.621,2.417,2.417,0,0,0,3.965,0,4.709,4.709,0,0,0,.675-2.621v-.2a4.7,4.7,0,0,0-.679-2.612,2.224,2.224,0,0,0-1.99-1.043,2.194,2.194,0,0,0-1.971,1.043,4.745,4.745,0,0,0-.669,2.612Z" transform="translate(-157.307 -15.842)"/>
      <path id="Trazado_193029" data-name="Trazado 193029" d="M820.023,85.289a5.508,5.508,0,0,1-1.034,3.485,3.418,3.418,0,0,1-2.853,1.325,3.964,3.964,0,0,1-1.619-.309,3.092,3.092,0,0,1-1.187-.928v4.883h-1.818V79.916h1.393l.287,1.292a3.3,3.3,0,0,1,1.218-1.1,3.638,3.638,0,0,1,1.7-.378,3.318,3.318,0,0,1,2.885,1.473,6.66,6.66,0,0,1,1.03,3.89ZM818.2,85.1a5.277,5.277,0,0,0-.669-2.793,2.169,2.169,0,0,0-1.971-1.095,2.424,2.424,0,0,0-1.338.357,2.655,2.655,0,0,0-.9.974v4.828a2.584,2.584,0,0,0,.9.965,2.513,2.513,0,0,0,1.358.346,2.236,2.236,0,0,0,1.956-.946,4.148,4.148,0,0,0,.665-2.442Z" transform="translate(-161.242 -15.842)"/>
      <path id="Trazado_193030" data-name="Trazado 193030" d="M824.392,84.818a5.5,5.5,0,0,1,1.2-3.652,4.026,4.026,0,0,1,3.258-1.435,4.067,4.067,0,0,1,3.282,1.431,5.484,5.484,0,0,1,1.2,3.656v.2a5.471,5.471,0,0,1-1.2,3.656,4.467,4.467,0,0,1-6.54,0,5.464,5.464,0,0,1-1.2-3.651Zm1.818.2a4.736,4.736,0,0,0,.669,2.621,2.417,2.417,0,0,0,3.965,0,4.71,4.71,0,0,0,.675-2.621v-.2a4.7,4.7,0,0,0-.679-2.612,2.224,2.224,0,0,0-1.99-1.043,2.194,2.194,0,0,0-1.971,1.043,4.746,4.746,0,0,0-.669,2.612Z" transform="translate(-163.801 -15.842)"/>
      <path id="Trazado_193031" data-name="Trazado 193031" d="M843.058,81.523l-.933-.055a2.083,2.083,0,0,0-1.214.341,2.2,2.2,0,0,0-.761.961V89.9h-1.818V79.916h1.624l.175,1.458a3.468,3.468,0,0,1,1.047-1.209,2.452,2.452,0,0,1,1.436-.434,2.241,2.241,0,0,1,.388.032,2.411,2.411,0,0,1,.3.07Z" transform="translate(-166.571 -15.842)"/>
      <path id="Trazado_193032" data-name="Trazado 193032" d="M858.51,89.9c-.062-.3-.11-.568-.143-.8a5.638,5.638,0,0,1-.06-.7,4.229,4.229,0,0,1-1.325,1.2,3.39,3.39,0,0,1-1.759.485,3.261,3.261,0,0,1-2.377-.8,2.935,2.935,0,0,1-.817-2.2,2.58,2.58,0,0,1,1.159-2.239,5.41,5.41,0,0,1,3.143-.808h1.976v-.987a1.834,1.834,0,0,0-.535-1.389,2.1,2.1,0,0,0-1.514-.513,2.2,2.2,0,0,0-1.431.444,1.326,1.326,0,0,0-.545,1.061l-1.726.018-.018-.055a2.389,2.389,0,0,1,1.02-1.994,4.226,4.226,0,0,1,2.8-.9,4.125,4.125,0,0,1,2.732.863,3.058,3.058,0,0,1,1.034,2.488v4.809a9.37,9.37,0,0,0,.056,1.034,5.223,5.223,0,0,0,.2.978Zm-3.019-1.329a3.235,3.235,0,0,0,1.782-.508,2.411,2.411,0,0,0,1.034-1.163V85.28h-2.04a2.646,2.646,0,0,0-1.759.554,1.656,1.656,0,0,0-.659,1.3,1.374,1.374,0,0,0,.415,1.053,1.739,1.739,0,0,0,1.228.387" transform="translate(-169.292 -15.842)"/>
      <rect id="Rectángulo_39869" data-name="Rectángulo 39869" width="1.819" height="14.401" transform="translate(693.619 59.661)"/>
      <path id="Trazado_193033" data-name="Trazado 193033" d="M870.967,85.095A6.672,6.672,0,0,1,872,81.208a3.309,3.309,0,0,1,2.876-1.477,3.5,3.5,0,0,1,1.671.384,3.355,3.355,0,0,1,1.209,1.1l.222-1.3h1.449V89.96a3.813,3.813,0,0,1-1.117,2.95,4.588,4.588,0,0,1-3.221,1.029,6.769,6.769,0,0,1-1.556-.2,6.115,6.115,0,0,1-1.472-.541l.277-1.412a5.284,5.284,0,0,0,1.269.448,6.521,6.521,0,0,0,1.463.171A2.648,2.648,0,0,0,877,91.8a2.505,2.505,0,0,0,.6-1.841V88.824a3.221,3.221,0,0,1-1.173.951,3.66,3.66,0,0,1-1.578.323A3.415,3.415,0,0,1,872,88.774a5.526,5.526,0,0,1-1.03-3.485Zm1.819.194a4.24,4.24,0,0,0,.619,2.418,2.146,2.146,0,0,0,1.911.913,2.4,2.4,0,0,0,1.375-.374,2.833,2.833,0,0,0,.914-1.056v-4.6a2.827,2.827,0,0,0-.914-1.011,2.4,2.4,0,0,0-1.357-.374,2.07,2.07,0,0,0-1.925,1.081,5.566,5.566,0,0,0-.623,2.806Z" transform="translate(-173.055 -15.842)"/>
      <path id="Trazado_193034" data-name="Trazado 193034" d="M891.114,87.471a3.375,3.375,0,0,1-1.21,1.236,3.305,3.305,0,0,1-1.708.434,3.211,3.211,0,0,1-2.548-1.043,4.845,4.845,0,0,1-.913-3.249v-5.89h1.818v5.908a3.72,3.72,0,0,0,.471,2.2,1.749,1.749,0,0,0,1.468.6,3,3,0,0,0,1.6-.392,2.452,2.452,0,0,0,.955-1.113v-7.2h1.818v9.988h-1.634Zm-1.431-12.555h2.123l.018.055-2.482,2.4h-1.366Z" transform="translate(-175.791 -14.885)"/>
      <path id="Trazado_193035" data-name="Trazado 193035" d="M899.815,79.916l.13,1.486A3.626,3.626,0,0,1,901.2,80.17a3.34,3.34,0,0,1,1.712-.438,3.26,3.26,0,0,1,2.5.946A4.152,4.152,0,0,1,906.3,83.6v6.3h-1.818V83.637a2.7,2.7,0,0,0-.522-1.874,2.089,2.089,0,0,0-1.592-.555,2.823,2.823,0,0,0-1.426.337,2.445,2.445,0,0,0-.928.946V89.9h-1.818V79.916Z" transform="translate(-178.464 -15.842)"/>
      <path id="Trazado_193036" data-name="Trazado 193036" d="M917.06,85.095a6.672,6.672,0,0,1,1.03-3.887,3.309,3.309,0,0,1,2.876-1.477,3.5,3.5,0,0,1,1.671.384,3.355,3.355,0,0,1,1.209,1.1l.222-1.3h1.449V89.96a3.813,3.813,0,0,1-1.117,2.95,4.589,4.589,0,0,1-3.221,1.029,6.769,6.769,0,0,1-1.556-.2,6.115,6.115,0,0,1-1.472-.541l.277-1.412a5.286,5.286,0,0,0,1.269.448,6.522,6.522,0,0,0,1.463.171,2.648,2.648,0,0,0,1.934-.6,2.505,2.505,0,0,0,.6-1.841V88.824a3.221,3.221,0,0,1-1.173.951,3.66,3.66,0,0,1-1.578.323,3.415,3.415,0,0,1-2.857-1.325,5.526,5.526,0,0,1-1.03-3.485Zm1.819.194a4.24,4.24,0,0,0,.619,2.418,2.146,2.146,0,0,0,1.911.913,2.4,2.4,0,0,0,1.375-.374,2.833,2.833,0,0,0,.914-1.056v-4.6a2.827,2.827,0,0,0-.914-1.011,2.4,2.4,0,0,0-1.357-.374,2.07,2.07,0,0,0-1.925,1.081,5.566,5.566,0,0,0-.623,2.806Z" transform="translate(-182.213 -15.842)"/>
      <path id="Trazado_193037" data-name="Trazado 193037" d="M930.344,84.818a5.5,5.5,0,0,1,1.2-3.652,4.026,4.026,0,0,1,3.258-1.435,4.067,4.067,0,0,1,3.282,1.431,5.484,5.484,0,0,1,1.2,3.656v.2a5.471,5.471,0,0,1-1.2,3.656,4.467,4.467,0,0,1-6.54,0,5.464,5.464,0,0,1-1.2-3.651Zm1.818.2a4.735,4.735,0,0,0,.669,2.621,2.417,2.417,0,0,0,3.965,0,4.71,4.71,0,0,0,.675-2.621v-.2a4.7,4.7,0,0,0-.679-2.612,2.224,2.224,0,0,0-1.99-1.043,2.194,2.194,0,0,0-1.971,1.043,4.745,4.745,0,0,0-.669,2.612Z" transform="translate(-184.853 -15.842)"/>
      <path id="Trazado_193038" data-name="Trazado 193038" d="M952.813,84.241a5.49,5.49,0,0,1-1.038,3.485,3.433,3.433,0,0,1-2.857,1.325,3.614,3.614,0,0,1-1.731-.393,3.213,3.213,0,0,1-1.214-1.158l-.3,1.357h-1.393v-14.4H946.1V80.05a3.152,3.152,0,0,1,1.168-1.016,3.577,3.577,0,0,1,1.629-.35,3.32,3.32,0,0,1,2.88,1.476,6.649,6.649,0,0,1,1.034,3.887Zm-1.819-.194a5.511,5.511,0,0,0-.632-2.8,2.083,2.083,0,0,0-1.925-1.086,2.384,2.384,0,0,0-1.417.411,2.9,2.9,0,0,0-.918,1.1V86a2.962,2.962,0,0,0,.918,1.154,2.364,2.364,0,0,0,1.435.415,2.161,2.161,0,0,0,1.911-.913,4.2,4.2,0,0,0,.627-2.418Z" transform="translate(-187.622 -14.794)"/>
      <path id="Trazado_193039" data-name="Trazado 193039" d="M959.7,76.31h-1.819V74.455H959.7Zm0,12.546h-1.819V78.868H959.7Z" transform="translate(-190.323 -14.794)"/>
      <path id="Trazado_193040" data-name="Trazado 193040" d="M967.667,90.1a4.225,4.225,0,0,1-3.355-1.375,5.291,5.291,0,0,1-1.2-3.619V84.7a5.181,5.181,0,0,1,1.241-3.559,3.894,3.894,0,0,1,3.032-1.408,3.622,3.622,0,0,1,3,1.247,5.133,5.133,0,0,1,1,3.313v.96H965l-.028.046a4.13,4.13,0,0,0,.665,2.442,2.323,2.323,0,0,0,2.031.937,4.574,4.574,0,0,0,1.62-.263,3.633,3.633,0,0,0,1.2-.724l.711,1.181a4.384,4.384,0,0,1-1.412.873,5.643,5.643,0,0,1-2.115.355m-.286-8.936a1.978,1.978,0,0,0-1.574.734,3.484,3.484,0,0,0-.762,1.879l.018.046h4.5v-.147a2.909,2.909,0,0,0-.534-1.8,1.936,1.936,0,0,0-1.653-.712" transform="translate(-191.363 -15.842)"/>
      <path id="Trazado_193041" data-name="Trazado 193041" d="M980.713,81.523l-.933-.055a2.084,2.084,0,0,0-1.214.341,2.2,2.2,0,0,0-.761.961V89.9h-1.818V79.916h1.624l.175,1.458a3.468,3.468,0,0,1,1.047-1.209,2.452,2.452,0,0,1,1.436-.434,2.241,2.241,0,0,1,.388.032,2.409,2.409,0,0,1,.3.07Z" transform="translate(-193.922 -15.842)"/>
      <path id="Trazado_193042" data-name="Trazado 193042" d="M985.871,79.916,986,81.4a3.627,3.627,0,0,1,1.251-1.232,3.34,3.34,0,0,1,1.712-.438,3.26,3.26,0,0,1,2.5.946,4.152,4.152,0,0,1,.886,2.922v6.3h-1.818V83.637a2.7,2.7,0,0,0-.522-1.874,2.089,2.089,0,0,0-1.592-.555,2.823,2.823,0,0,0-1.426.337,2.445,2.445,0,0,0-.928.946V89.9h-1.818V79.916Z" transform="translate(-195.563 -15.842)"/>
      <path id="Trazado_193043" data-name="Trazado 193043" d="M997.127,84.818a5.5,5.5,0,0,1,1.2-3.652,4.026,4.026,0,0,1,3.258-1.435,4.067,4.067,0,0,1,3.282,1.431,5.484,5.484,0,0,1,1.2,3.656v.2a5.471,5.471,0,0,1-1.2,3.656,4.467,4.467,0,0,1-6.54,0,5.464,5.464,0,0,1-1.2-3.651Zm1.818.2a4.735,4.735,0,0,0,.669,2.621,2.417,2.417,0,0,0,3.965,0,4.71,4.71,0,0,0,.675-2.621v-.2a4.7,4.7,0,0,0-.679-2.612,2.224,2.224,0,0,0-1.99-1.043,2.194,2.194,0,0,0-1.971,1.043,4.745,4.745,0,0,0-.669,2.612Z" transform="translate(-198.122 -15.842)"/>
      <rect id="Rectángulo_39870" data-name="Rectángulo 39870" width="1.818" height="1.865" transform="translate(810.341 72.198)"/>
      <path id="Trazado_193044" data-name="Trazado 193044" d="M623.932,52.35l11.3,12.879L623.9,78.032l17.794-12.645Zm-20.776,1.616h6.911l16.738,11.262L611.18,76.491h-8.023L619.15,65.229Z" transform="translate(-119.843 -10.402)" fill="#500c75" fill-rule="evenodd"/>
      <path id="Trazado_193045" data-name="Trazado 193045" d="M593.424,55.47l16.214,10.388L593.424,76.243Z" transform="translate(-117.909 -11.021)" fill="#e01650" fill-rule="evenodd"/>
      <path id="Trazado_193046" data-name="Trazado 193046" d="M427.912,52.35l-11.3,12.879,11.338,12.8L410.153,65.386Zm20.776,1.616h-6.912L425.039,65.229l15.626,11.262h8.023L432.695,65.229Z" transform="translate(-81.494 -10.402)" fill="#500c75" fill-rule="evenodd"/>
      <path id="Trazado_193047" data-name="Trazado 193047" d="M463.955,55.47,447.741,65.858l16.214,10.385Z" transform="translate(-88.963 -11.021)" fill="#e01650" fill-rule="evenodd"/>
      <path id="Trazado_193048" data-name="Trazado 193048" d="M474.848,38.135H562.7a7.639,7.639,0,0,1,7.639,7.64v59.206a5.729,5.729,0,0,1-5.729,5.729H472.938a5.73,5.73,0,0,1-5.73-5.729V45.775a7.64,7.64,0,0,1,7.64-7.64" transform="translate(-92.831 -7.577)" fill="#500c75"/>
      <path id="Trazado_193049" data-name="Trazado 193049" d="M562.362,11.768a7.688,7.688,0,0,0-5.4-2.235H484.382a7.638,7.638,0,0,0-7.64,7.636v89.768H564.6V17.173a7.688,7.688,0,0,0-2.235-5.4" transform="translate(-94.725 -1.894)" fill="#60d1e0"/>
      <rect id="Rectángulo_39871" data-name="Rectángulo 39871" width="3.82" height="3.82" transform="translate(389.656 13.369)" fill="#3fb7c7"/>
      <rect id="Rectángulo_39872" data-name="Rectángulo 39872" width="3.82" height="3.82" transform="translate(397.295 13.369)" fill="#3fb7c7"/>
      <rect id="Rectángulo_39873" data-name="Rectángulo 39873" width="3.82" height="3.82" transform="translate(404.935 13.369)" fill="#3fb7c7"/>
      <rect id="Rectángulo_39874" data-name="Rectángulo 39874" width="47.747" height="3.82" transform="translate(389.656 21.009)" fill="#3fb7c7"/>
      <path id="Trazado_193050" data-name="Trazado 193050" d="M562.362,11.768a7.688,7.688,0,0,0-5.4-2.235H484.382a7.638,7.638,0,0,0-7.64,7.636v89.768H564.6V17.173a7.688,7.688,0,0,0-2.235-5.4" transform="translate(-94.725 -1.894)" fill="#e7defc"/>
      <path id="Trazado_193051" data-name="Trazado 193051" d="M562.362,11.768a7.688,7.688,0,0,0-5.4-2.235H484.382a7.638,7.638,0,0,0-7.64,7.636v89.768H564.6V17.173A7.688,7.688,0,0,0,562.362,11.768Z" transform="translate(-94.725 -1.894)" fill="none" stroke="#5c379b" stroke-miterlimit="10" stroke-width="2"/>
      <rect id="Rectángulo_39875" data-name="Rectángulo 39875" width="3.82" height="3.82" transform="translate(389.656 13.369)" fill="#500c75"/>
      <rect id="Rectángulo_39876" data-name="Rectángulo 39876" width="3.82" height="3.82" transform="translate(397.295 13.369)" fill="#500c75"/>
      <rect id="Rectángulo_39877" data-name="Rectángulo 39877" width="3.82" height="3.82" transform="translate(404.935 13.369)" fill="#500c75"/>
      <rect id="Rectángulo_39878" data-name="Rectángulo 39878" width="47.747" height="3.82" transform="translate(389.656 21.009)" fill="#500c75"/>
      <path id="Trazado_193052" data-name="Trazado 193052" d="M568.385,40.519,495.81,113.094h72.575Z" transform="translate(-98.514 -8.051)" fill="#ddd4f9"/>
      <path id="Trazado_193053" data-name="Trazado 193053" d="M529.287,125.85a6.52,6.52,0,0,1-4.611,1.91h-13.7a6.52,6.52,0,0,1-4.611-1.91,6.522,6.522,0,0,0-4.612-1.91H462.441v5.729a5.73,5.73,0,0,0,5.73,5.729h99.313a5.729,5.729,0,0,0,5.729-5.729V123.94H533.9a6.521,6.521,0,0,0-4.611,1.91" transform="translate(-91.884 -24.626)" fill="#e0e0de"/>
      <path id="Trazado_193054" data-name="Trazado 193054" d="M589.727,123.939v5.729A5.73,5.73,0,0,1,584,135.4h7.639a5.731,5.731,0,0,0,5.73-5.73v-5.729Z" transform="translate(-116.036 -24.626)" fill="#d6d6d4"/>
      <rect id="Rectángulo_39879" data-name="Rectángulo 39879" width="7.64" height="3.82" transform="translate(469.871 51.567)" fill="#b734fd"/>
      <rect id="Rectángulo_39880" data-name="Rectángulo 39880" width="7.64" height="3.82" transform="translate(374.378 84.035)" fill="#7f17b7"/>
      <rect id="Rectángulo_39881" data-name="Rectángulo 39881" width="22.918" height="3.82" transform="translate(446.953 51.567)" fill="#b734fd"/>
      <rect id="Rectángulo_39882" data-name="Rectángulo 39882" width="45.837" height="15.279" transform="translate(382.017 72.575)" fill="#7f17b7"/>
      <path id="Trazado_193055" data-name="Trazado 193055" d="M518.648,43.329l-2.2-3.124a22.892,22.892,0,0,1,26.361,0l-2.2,3.124a19.072,19.072,0,0,0-21.965,0" transform="translate(-102.615 -7.161)" fill="#500c75"/>
      <path id="Trazado_193056" data-name="Trazado 193056" d="M546.468,56.876a29.221,29.221,0,0,0-19.779-7.484h-.268a27.849,27.849,0,0,0-15.714,4.846l-2.147-3.16a31.661,31.661,0,0,1,17.861-5.5h.268a33.036,33.036,0,0,1,22.352,8.48Z" transform="translate(-101.047 -9.055)" fill="#500c75"/>
      <path id="Trazado_193057" data-name="Trazado 193057" d="M550.148,85.915l-3.676-1.039a19.887,19.887,0,0,0,0-10.909,20.3,20.3,0,0,0-2.991-6.3,21.378,21.378,0,0,0-17.557-8.74h-.268a20.643,20.643,0,0,0-16.883,8.9l-.916,1.316-3.135-2.182.915-1.316a24.47,24.47,0,0,1,20.018-10.542h.268A25.2,25.2,0,0,1,546.6,65.463a24.094,24.094,0,0,1,3.548,7.467A23.7,23.7,0,0,1,550.148,85.915Z" transform="translate(-100.285 -10.949)" fill="#500c75"/>
      <path id="Trazado_193058" data-name="Trazado 193058" d="M546.59,113.726l-2.753-2.648A43.719,43.719,0,0,0,552.9,97.112l3.54,1.434a47.539,47.539,0,0,1-9.854,15.18" transform="translate(-108.057 -19.295)" fill="#500c75"/>
      <path id="Trazado_193059" data-name="Trazado 193059" d="M525.708,109.688l-2.7-2.7,7.047-7.047a36.47,36.47,0,0,0,8.983-14.77,12.664,12.664,0,0,0-1.9-11.42,13.01,13.01,0,0,0-10.452-5.29h-.974a13.047,13.047,0,0,0-12.251,8.893,9.816,9.816,0,0,1-2.291,3.672L507.7,84.5,505,81.8l3.457-3.457a6.03,6.03,0,0,0,1.4-2.233,16.862,16.862,0,0,1,15.86-11.466h.976a16.842,16.842,0,0,1,13.533,6.852,16.445,16.445,0,0,1,2.458,14.829,40.3,40.3,0,0,1-9.924,16.319Z" transform="translate(-100.339 -12.844)" fill="#500c75"/>
      <path id="Trazado_193060" data-name="Trazado 193060" d="M519.8,108.736l-2.7-2.7,9.606-9.606a28.386,28.386,0,0,0,7.112-11.66,5.1,5.1,0,0,0-.772-4.591,5.279,5.279,0,0,0-4.3-2.184h-.974a5.356,5.356,0,0,0-5.035,3.741,17.089,17.089,0,0,1-4.12,6.605l-.556.555-2.7-2.7.554-.554A13.5,13.5,0,0,0,518.1,82.78a13.311,13.311,0,0,0,1.025-2.285,9.249,9.249,0,0,1,8.646-6.32h.974a9.064,9.064,0,0,1,7.384,3.748,8.88,8.88,0,0,1,1.332,8,32.6,32.6,0,0,1-8.057,13.211Z" transform="translate(-102.4 -14.738)" fill="#500c75"/>
      <rect id="Rectángulo_39883" data-name="Rectángulo 39883" width="7.013" height="3.82" transform="matrix(0.708, -0.706, 0.706, 0.708, 405.399, 79.006)" fill="#500c75"/>
      <path id="Trazado_193061" data-name="Trazado 193061" d="M513.154,105.4l-2.7-2.7,9.875-9.875a21.1,21.1,0,0,0,5.535-9.7l3.7.942a24.938,24.938,0,0,1-6.535,11.459Z" transform="translate(-101.423 -16.515)" fill="#500c75"/>
      <rect id="Rectángulo_39884" data-name="Rectángulo 39884" width="38.198" height="28.648" transform="translate(443.133 22.918)" fill="#ffb531"/>
      <path id="Trazado_193062" data-name="Trazado 193062" d="M557.78,15.279h7.64a7.639,7.639,0,1,1,15.278,0v7.64h7.64v-7.64a15.279,15.279,0,1,0-30.558,0" transform="translate(-110.827)" fill="gray"/>
      <path id="Trazado_193063" data-name="Trazado 193063" d="M577.834,44.432a3.82,3.82,0,1,0-5.764,0,7.635,7.635,0,0,0-4.757,7.067h15.279a7.633,7.633,0,0,0-4.757-7.067" transform="translate(-112.721 -7.571)" fill="#95573a"/>
      <path id="Trazado_193064" data-name="Trazado 193064" d="M553.013,62.86h38.2a33.3,33.3,0,0,0-38.2,0" transform="translate(-109.88 -11.294)" fill="#ffa912"/>
      <path id="Trazado_193065" data-name="Trazado 193065" d="M591.211,28.6h-38.2a33.3,33.3,0,0,0,38.2,0" transform="translate(-109.88 -5.683)" fill="#ffcb73"/>
      <rect id="Rectángulo_39885" data-name="Rectángulo 39885" width="53.477" height="15.279" transform="translate(370.558 68.755)" fill="#b734fd"/>
      <rect id="Rectángulo_39886" data-name="Rectángulo 39886" width="53.477" height="3.82" transform="translate(370.558 68.755)" fill="#7f17b7"/>
      <rect id="Rectángulo_39887" data-name="Rectángulo 39887" width="3.82" height="3.82" transform="translate(376.287 74.485)" fill="#500c75"/>
      <rect id="Rectángulo_39888" data-name="Rectángulo 39888" width="3.82" height="3.82" transform="translate(383.927 74.485)" fill="#500c75"/>
      <rect id="Rectángulo_39889" data-name="Rectángulo 39889" width="3.82" height="3.82" transform="translate(391.567 74.485)" fill="#500c75"/>
      <rect id="Rectángulo_39890" data-name="Rectángulo 39890" width="3.82" height="3.82" transform="translate(399.206 74.485)" fill="#500c75"/>
    </g>
  </g>
</svg>
