<svg id="Grupo_143753" data-name="Grupo 143753" xmlns="http://www.w3.org/2000/svg" xmlns:xlink="http://www.w3.org/1999/xlink" width="445.86" height="153.148" viewBox="0 0 445.86 153.148">
  <defs>
    <clipPath id="clip-path">
      <rect id="Rectángulo_39782" data-name="Rectángulo 39782" width="445.86" height="153.148" fill="none"/>
    </clipPath>
  </defs>
  <path id="Trazado_192271" data-name="Trazado 192271" d="M186.4,12.847h-2.739V8.085h-4.38v4.762h-2.747V1.015h2.747V5.972h4.38V1.015H186.4Z" fill="#5c379b"/>
  <g id="Grupo_143752" data-name="Grupo 143752">
    <g id="Grupo_143751" data-name="Grupo 143751" clip-path="url(#clip-path)">
      <path id="Trazado_192272" data-name="Trazado 192272" d="M193.206,12.839a3.339,3.339,0,0,1-.263-.626,4.7,4.7,0,0,1-.168-.731,3.344,3.344,0,0,1-.88,1.117,2.133,2.133,0,0,1-1.37.419,3.042,3.042,0,0,1-2.149-.711,2.51,2.51,0,0,1-.769-1.938,2.35,2.35,0,0,1,.983-2.02,5.1,5.1,0,0,1,2.984-.711H192.7V7.012a1.249,1.249,0,0,0-.268-.861,1.046,1.046,0,0,0-.821-.3.988.988,0,0,0-.711.224.932.932,0,0,0-.231.694l-2.666-.008-.015-.049a2.288,2.288,0,0,1,1-2.01,4.5,4.5,0,0,1,2.8-.809,4.093,4.093,0,0,1,2.646.813,2.806,2.806,0,0,1,1.011,2.324v3.315a6.639,6.639,0,0,0,.119,1.3,6.815,6.815,0,0,0,.353,1.2Zm-1.933-1.78a1.678,1.678,0,0,0,.89-.235,1.351,1.351,0,0,0,.539-.561V9.1h-1.1a1.244,1.244,0,0,0-.952.316,1.142,1.142,0,0,0-.292.805.777.777,0,0,0,.257.606.947.947,0,0,0,.662.231" fill="#5c379b"/>
      <path id="Trazado_192273" data-name="Trazado 192273" d="M201.536,10.376a.716.716,0,0,0-.37-.58,3.96,3.96,0,0,0-1.345-.459,5.306,5.306,0,0,1-2.316-.931,2.107,2.107,0,0,1-.78-1.734A2.471,2.471,0,0,1,197.7,4.7a4.007,4.007,0,0,1,2.641-.808,4.528,4.528,0,0,1,2.8.783,2.308,2.308,0,0,1,.992,2.028l-.017.049h-2.665a1.09,1.09,0,0,0-.26-.788,1.152,1.152,0,0,0-.854-.27,1.106,1.106,0,0,0-.723.237.737.737,0,0,0-.293.6.714.714,0,0,0,.338.593,3.785,3.785,0,0,0,1.361.438,5.464,5.464,0,0,1,2.389.948,2.169,2.169,0,0,1,.772,1.784,2.326,2.326,0,0,1-1.052,1.953,4.612,4.612,0,0,1-2.784.77,4.168,4.168,0,0,1-2.84-.912,2.5,2.5,0,0,1-1-2.031l.016-.049h2.487a1.1,1.1,0,0,0,.378.9,1.664,1.664,0,0,0,1.028.276,1.371,1.371,0,0,0,.837-.215.725.725,0,0,0,.284-.615" fill="#5c379b"/>
      <path id="Trazado_192274" data-name="Trazado 192274" d="M208.135,5.143a2.9,2.9,0,0,1,.971-.922,2.486,2.486,0,0,1,1.264-.329,2.623,2.623,0,0,1,2.145.95,4.606,4.606,0,0,1,.78,2.95v5.055h-2.746V7.776a2.646,2.646,0,0,0-.26-1.39A.893.893,0,0,0,209.5,6a2.176,2.176,0,0,0-.8.135,1.451,1.451,0,0,0-.561.377v6.331h-2.747V.169h2.747Z" fill="#5c379b"/>
      <path id="Trazado_192275" data-name="Trazado 192275" d="M219.561,12.847V5.955h-1.268v-1.9h1.268v-.91a2.964,2.964,0,0,1,.91-2.328A3.725,3.725,0,0,1,223.047,0a4.74,4.74,0,0,1,.638.044q.321.046.72.126l-.2,2.024c-.151-.027-.284-.047-.4-.061a3.491,3.491,0,0,0-.414-.02,1.1,1.1,0,0,0-.8.268,1.018,1.018,0,0,0-.276.764v.91h1.739v1.9h-1.739v6.892Z" fill="#5c379b"/>
      <path id="Trazado_192276" data-name="Trazado 192276" d="M230.231,11.531a2.882,2.882,0,0,1-1.012,1.1,2.665,2.665,0,0,1-1.434.386,2.6,2.6,0,0,1-2.141-.959,4.67,4.67,0,0,1-.777-2.966V4.054h2.739V9.109a2.666,2.666,0,0,0,.264,1.414.923.923,0,0,0,.817.382,2.222,2.222,0,0,0,.772-.122,1.494,1.494,0,0,0,.569-.365V4.054h2.747v8.793h-2.211Z" fill="#5c379b"/>
      <path id="Trazado_192277" data-name="Trazado 192277" d="M236.814,4.054l.106,1.235a3.2,3.2,0,0,1,1.064-1.028,2.76,2.76,0,0,1,1.414-.369,2.48,2.48,0,0,1,2.02.877,4.349,4.349,0,0,1,.727,2.788v5.29H239.4v-5.3a2.014,2.014,0,0,0-.268-1.19A.919.919,0,0,0,238.35,6a1.94,1.94,0,0,0-.788.154,1.582,1.582,0,0,0-.585.44v6.249h-2.739V4.054Z" fill="#5c379b"/>
      <path id="Trazado_192278" data-name="Trazado 192278" d="M247.4,10.9a1.074,1.074,0,0,0,.837-.3,1.27,1.27,0,0,0,.276-.882h2.5l.017.049a2.891,2.891,0,0,1-1,2.345,3.835,3.835,0,0,1-2.637.906,3.89,3.89,0,0,1-3.092-1.239,4.727,4.727,0,0,1-1.085-3.23V8.361a4.741,4.741,0,0,1,1.081-3.226,3.86,3.86,0,0,1,3.08-1.243,3.781,3.781,0,0,1,2.677.93,3.214,3.214,0,0,1,.972,2.548l-.017.049h-2.5a1.7,1.7,0,0,0-.284-1.02.975.975,0,0,0-.845-.394,1.129,1.129,0,0,0-1.109.637,3.944,3.944,0,0,0-.313,1.719v.188a3.922,3.922,0,0,0,.313,1.73,1.144,1.144,0,0,0,1.125.626" fill="#5c379b"/>
      <path id="Trazado_192279" data-name="Trazado 192279" d="M255.309,1.869V4.055h1.39v1.9h-1.39V9.987a.989.989,0,0,0,.191.679.667.667,0,0,0,.516.207,2.7,2.7,0,0,0,.337-.017,2.8,2.8,0,0,0,.321-.064l.187,2.031a6.751,6.751,0,0,1-.747.15,6,6,0,0,1-.789.045,2.747,2.747,0,0,1-2.06-.723,3.2,3.2,0,0,1-.7-2.292V5.956h-1.227v-1.9h1.227V1.869Z" fill="#5c379b"/>
      <path id="Trazado_192280" data-name="Trazado 192280" d="M260.909,2.014h-2.755V.169h2.755Zm0,10.833h-2.755V4.054h2.755Z" fill="#5c379b"/>
      <path id="Trazado_192281" data-name="Trazado 192281" d="M262.225,8.37a4.646,4.646,0,0,1,1.122-3.23,4.558,4.558,0,0,1,6.265,0,4.646,4.646,0,0,1,1.122,3.23v.171a4.643,4.643,0,0,1-1.122,3.234,4.566,4.566,0,0,1-6.265,0,4.643,4.643,0,0,1-1.122-3.234Zm2.747.171a3.637,3.637,0,0,0,.345,1.734,1.229,1.229,0,0,0,1.175.63,1.215,1.215,0,0,0,1.154-.634,3.611,3.611,0,0,0,.349-1.73V8.37a3.632,3.632,0,0,0-.349-1.719,1.226,1.226,0,0,0-1.171-.646,1.207,1.207,0,0,0-1.158.65,3.664,3.664,0,0,0-.345,1.715Z" fill="#5c379b"/>
      <path id="Trazado_192282" data-name="Trazado 192282" d="M274.472,4.054l.106,1.235a3.2,3.2,0,0,1,1.064-1.028,2.76,2.76,0,0,1,1.414-.369,2.479,2.479,0,0,1,2.02.877,4.343,4.343,0,0,1,.727,2.788v5.29h-2.747v-5.3a2.014,2.014,0,0,0-.268-1.19.919.919,0,0,0-.78-.354,1.94,1.94,0,0,0-.788.154,1.582,1.582,0,0,0-.585.44v6.249H271.9V4.054Z" fill="#5c379b"/>
      <path id="Trazado_192283" data-name="Trazado 192283" d="M190.725,70.087h-2.739V65.326h-4.38v4.762h-2.747V58.256h2.747v4.957h4.38V58.256h2.739Z" fill="#666"/>
      <path id="Trazado_192284" data-name="Trazado 192284" d="M197.526,70.079a3.274,3.274,0,0,1-.264-.626,4.809,4.809,0,0,1-.167-.731,3.346,3.346,0,0,1-.881,1.117,2.131,2.131,0,0,1-1.37.419,3.044,3.044,0,0,1-2.149-.711,2.513,2.513,0,0,1-.768-1.938,2.348,2.348,0,0,1,.983-2.02,5.1,5.1,0,0,1,2.983-.711h1.129v-.626a1.249,1.249,0,0,0-.268-.861,1.046,1.046,0,0,0-.821-.3.986.986,0,0,0-.711.224.928.928,0,0,0-.231.694L192.325,64l-.016-.049a2.292,2.292,0,0,1,1-2.01,4.5,4.5,0,0,1,2.8-.809,4.1,4.1,0,0,1,2.646.813,2.809,2.809,0,0,1,1.011,2.324v3.315a6.719,6.719,0,0,0,.118,1.3,6.987,6.987,0,0,0,.353,1.2Zm-1.934-1.78a1.673,1.673,0,0,0,.89-.235,1.354,1.354,0,0,0,.54-.561V66.341h-1.1a1.243,1.243,0,0,0-.951.316,1.142,1.142,0,0,0-.292.805.779.779,0,0,0,.256.606.949.949,0,0,0,.662.231" fill="#666"/>
      <path id="Trazado_192285" data-name="Trazado 192285" d="M205.856,67.617a.716.716,0,0,0-.37-.581,3.99,3.99,0,0,0-1.345-.459,5.306,5.306,0,0,1-2.316-.931,2.107,2.107,0,0,1-.78-1.734,2.473,2.473,0,0,1,.975-1.971,4.012,4.012,0,0,1,2.641-.808,4.529,4.529,0,0,1,2.8.784,2.306,2.306,0,0,1,.992,2.027l-.017.049h-2.665a1.09,1.09,0,0,0-.26-.788,1.152,1.152,0,0,0-.854-.269,1.111,1.111,0,0,0-.723.236.738.738,0,0,0-.293.6.716.716,0,0,0,.338.594,3.805,3.805,0,0,0,1.361.438,5.476,5.476,0,0,1,2.389.947,2.17,2.17,0,0,1,.772,1.784,2.329,2.329,0,0,1-1.052,1.954,4.612,4.612,0,0,1-2.784.769,4.173,4.173,0,0,1-2.84-.911,2.51,2.51,0,0,1-1-2.032l.017-.049h2.487a1.1,1.1,0,0,0,.377.9,1.669,1.669,0,0,0,1.029.276,1.371,1.371,0,0,0,.837-.215.725.725,0,0,0,.284-.614" fill="#666"/>
      <path id="Trazado_192286" data-name="Trazado 192286" d="M212.455,62.383a2.9,2.9,0,0,1,.971-.922,2.486,2.486,0,0,1,1.264-.329,2.623,2.623,0,0,1,2.145.95,4.606,4.606,0,0,1,.78,2.95v5.055h-2.746V65.016a2.634,2.634,0,0,0-.261-1.39.89.89,0,0,0-.788-.382,2.176,2.176,0,0,0-.8.135,1.451,1.451,0,0,0-.561.377v6.331h-2.747V57.409h2.747Z" fill="#666"/>
      <path id="Trazado_192287" data-name="Trazado 192287" d="M223.881,70.087V63.195h-1.268v-1.9h1.268v-.91a2.964,2.964,0,0,1,.91-2.328,3.723,3.723,0,0,1,2.576-.817,4.584,4.584,0,0,1,.638.045q.321.045.719.126l-.2,2.023c-.151-.027-.284-.047-.4-.061a3.514,3.514,0,0,0-.414-.019,1.1,1.1,0,0,0-.8.267,1.018,1.018,0,0,0-.276.764v.91h1.739v1.9h-1.739v6.892Z" fill="#666"/>
      <path id="Trazado_192288" data-name="Trazado 192288" d="M234.551,68.771a2.882,2.882,0,0,1-1.012,1.1,2.663,2.663,0,0,1-1.434.386,2.6,2.6,0,0,1-2.141-.959,4.67,4.67,0,0,1-.776-2.966V61.294h2.738v5.055a2.666,2.666,0,0,0,.264,1.414.924.924,0,0,0,.817.382,2.222,2.222,0,0,0,.772-.122,1.494,1.494,0,0,0,.569-.365V61.294H237.1v8.793h-2.211Z" fill="#666"/>
      <path id="Trazado_192289" data-name="Trazado 192289" d="M241.133,61.294l.106,1.235A3.2,3.2,0,0,1,242.3,61.5a2.77,2.77,0,0,1,1.414-.369,2.48,2.48,0,0,1,2.02.877,4.345,4.345,0,0,1,.727,2.789v5.29h-2.747v-5.3a2.014,2.014,0,0,0-.268-1.19.919.919,0,0,0-.78-.354,1.961,1.961,0,0,0-.788.154,1.574,1.574,0,0,0-.585.441v6.249h-2.739V61.294Z" fill="#666"/>
      <path id="Trazado_192290" data-name="Trazado 192290" d="M251.722,68.145a1.074,1.074,0,0,0,.837-.305,1.271,1.271,0,0,0,.277-.882h2.5l.017.049a2.888,2.888,0,0,1-1,2.345,3.835,3.835,0,0,1-2.637.906,3.89,3.89,0,0,1-3.092-1.239,4.726,4.726,0,0,1-1.085-3.23V65.6a4.741,4.741,0,0,1,1.081-3.226,3.861,3.861,0,0,1,3.08-1.243,3.786,3.786,0,0,1,2.678.93,3.214,3.214,0,0,1,.971,2.548l-.017.049h-2.5a1.7,1.7,0,0,0-.285-1.02.974.974,0,0,0-.845-.394,1.129,1.129,0,0,0-1.109.637,3.944,3.944,0,0,0-.313,1.719v.188a3.921,3.921,0,0,0,.313,1.73,1.144,1.144,0,0,0,1.125.626" fill="#666"/>
      <path id="Trazado_192291" data-name="Trazado 192291" d="M259.629,59.109v2.186h1.39v1.9h-1.39v4.031a.984.984,0,0,0,.191.679.667.667,0,0,0,.516.207,2.7,2.7,0,0,0,.337-.017,2.8,2.8,0,0,0,.321-.064l.187,2.031a6.749,6.749,0,0,1-.747.15,6,6,0,0,1-.789.045,2.746,2.746,0,0,1-2.06-.723,3.2,3.2,0,0,1-.7-2.292V63.2h-1.227v-1.9h1.227V59.109Z" fill="#666"/>
      <path id="Trazado_192292" data-name="Trazado 192292" d="M265.229,59.254h-2.755V57.409h2.755Zm0,10.833h-2.755V61.294h2.755Z" fill="#666"/>
      <path id="Trazado_192293" data-name="Trazado 192293" d="M266.545,65.61a4.646,4.646,0,0,1,1.122-3.23,4.558,4.558,0,0,1,6.265,0,4.646,4.646,0,0,1,1.122,3.23v.171a4.643,4.643,0,0,1-1.122,3.234,4.566,4.566,0,0,1-6.265,0,4.643,4.643,0,0,1-1.122-3.234Zm2.747.171a3.637,3.637,0,0,0,.345,1.734,1.229,1.229,0,0,0,1.175.63,1.213,1.213,0,0,0,1.153-.634,3.6,3.6,0,0,0,.35-1.73V65.61a3.619,3.619,0,0,0-.35-1.719,1.225,1.225,0,0,0-1.17-.646,1.207,1.207,0,0,0-1.158.65,3.664,3.664,0,0,0-.345,1.715Z" fill="#666"/>
      <path id="Trazado_192294" data-name="Trazado 192294" d="M278.792,61.294l.106,1.235a3.2,3.2,0,0,1,1.064-1.028,2.77,2.77,0,0,1,1.414-.369,2.479,2.479,0,0,1,2.02.877,4.345,4.345,0,0,1,.727,2.789v5.29h-2.747v-5.3a2.014,2.014,0,0,0-.268-1.19.919.919,0,0,0-.78-.354,1.957,1.957,0,0,0-.788.154,1.574,1.574,0,0,0-.585.441v6.249h-2.739V61.294Z" fill="#666"/>
      <path id="Trazado_192295" data-name="Trazado 192295" d="M30.858,145.712v4.055H28.11V137.935h4.518a4.919,4.919,0,0,1,3.341,1.072,3.833,3.833,0,0,1,0,5.636,4.928,4.928,0,0,1-3.341,1.069Zm0-2.113h1.77a1.8,1.8,0,0,0,1.366-.492,1.749,1.749,0,0,0,.471-1.264A1.828,1.828,0,0,0,34,140.551a1.778,1.778,0,0,0-1.37-.5h-1.77Z" fill="#666"/>
      <rect id="Rectángulo_39781" data-name="Rectángulo 39781" width="2.755" height="12.678" transform="translate(38.683 137.089)" fill="#666"/>
      <path id="Trazado_192296" data-name="Trazado 192296" d="M48.2,149.759a3.273,3.273,0,0,1-.264-.626,4.809,4.809,0,0,1-.167-.731,3.346,3.346,0,0,1-.881,1.117,2.131,2.131,0,0,1-1.37.419,3.044,3.044,0,0,1-2.149-.711,2.513,2.513,0,0,1-.768-1.938,2.348,2.348,0,0,1,.983-2.02,5.1,5.1,0,0,1,2.983-.711h1.129v-.626a1.249,1.249,0,0,0-.268-.861,1.048,1.048,0,0,0-.821-.3.985.985,0,0,0-.711.224.928.928,0,0,0-.232.694L43,143.68l-.016-.049a2.291,2.291,0,0,1,1-2.01,4.5,4.5,0,0,1,2.8-.809,4.092,4.092,0,0,1,2.645.813,2.807,2.807,0,0,1,1.012,2.324v3.315a6.718,6.718,0,0,0,.118,1.3,6.9,6.9,0,0,0,.353,1.2Zm-1.934-1.78a1.676,1.676,0,0,0,.89-.235,1.354,1.354,0,0,0,.54-.561v-1.162h-1.1a1.243,1.243,0,0,0-.951.316,1.142,1.142,0,0,0-.292.8.779.779,0,0,0,.256.606.949.949,0,0,0,.662.231" fill="#666"/>
      <path id="Trazado_192297" data-name="Trazado 192297" d="M54.823,138.934H52.068v-1.845h2.755Zm0,10.833H52.068v-8.793h2.755Z" fill="#666"/>
      <path id="Trazado_192298" data-name="Trazado 192298" d="M59.032,140.974l.106,1.235a3.2,3.2,0,0,1,1.064-1.028,2.76,2.76,0,0,1,1.414-.369,2.48,2.48,0,0,1,2.02.877,4.343,4.343,0,0,1,.727,2.788v5.29H61.616v-5.3a2.014,2.014,0,0,0-.268-1.19.919.919,0,0,0-.78-.354,1.94,1.94,0,0,0-.788.154,1.582,1.582,0,0,0-.585.44v6.249H56.456v-8.793Z" fill="#666"/>
      <path id="Trazado_192299" data-name="Trazado 192299" d="M73.156,138.789v2.186h1.39v1.9h-1.39v4.031a.984.984,0,0,0,.191.679.667.667,0,0,0,.516.207,2.7,2.7,0,0,0,.337-.017,2.8,2.8,0,0,0,.321-.064l.187,2.031a6.717,6.717,0,0,1-.748.15,5.969,5.969,0,0,1-.788.045,2.746,2.746,0,0,1-2.06-.723,3.2,3.2,0,0,1-.7-2.292v-4.047H69.182v-1.9h1.227v-2.186Z" fill="#666"/>
      <path id="Trazado_192300" data-name="Trazado 192300" d="M79.779,149.938a4.084,4.084,0,0,1-3.133-1.211,4.308,4.308,0,0,1-1.134-3.064v-.309a4.927,4.927,0,0,1,1.069-3.284,3.8,3.8,0,0,1,3.092-1.258,3.559,3.559,0,0,1,2.759,1.064,4.143,4.143,0,0,1,.979,2.917v1.439H78.373l-.016.048a1.7,1.7,0,0,0,.512,1.118,1.783,1.783,0,0,0,1.283.426,5.607,5.607,0,0,0,1.313-.129,8.31,8.31,0,0,0,1.2-.415l.658,1.674a5.021,5.021,0,0,1-1.528.7,7.035,7.035,0,0,1-2.015.285m-.106-7.014a1.134,1.134,0,0,0-.971.419,2.1,2.1,0,0,0-.362,1.134l.017.04H80.73v-.211a1.826,1.826,0,0,0-.24-1.032.919.919,0,0,0-.817-.35" fill="#666"/>
      <path id="Trazado_192301" data-name="Trazado 192301" d="M88.052,143.567H88.1l1.113-2.593h3.08l-2.552,4.348,2.641,4.445H89.3l-1.17-2.674h-.049l-1.17,2.674h-3.08l2.641-4.445-2.559-4.348h3.063Z" fill="#666"/>
      <path id="Trazado_192302" data-name="Trazado 192302" d="M96.284,138.789v2.186h1.39v1.9h-1.39v4.031a.989.989,0,0,0,.191.679.667.667,0,0,0,.516.207,2.7,2.7,0,0,0,.337-.017,2.8,2.8,0,0,0,.321-.064l.187,2.031a6.749,6.749,0,0,1-.747.15,6,6,0,0,1-.789.045,2.747,2.747,0,0,1-2.06-.723,3.2,3.2,0,0,1-.7-2.292v-4.047H92.31v-1.9h1.227v-2.186Z" fill="#666"/>
      <path id="Trazado_192303" data-name="Trazado 192303" d="M367.326,145.777l.016.049a3.8,3.8,0,0,1-1.142,3.067,4.838,4.838,0,0,1-3.327,1.045,4.586,4.586,0,0,1-4.852-4.851v-2.471a4.878,4.878,0,0,1,1.28-3.507,4.457,4.457,0,0,1,3.385-1.345,5.217,5.217,0,0,1,3.482,1.049,3.7,3.7,0,0,1,1.2,3.047l-.025.049h-2.673a2.177,2.177,0,0,0-.464-1.561,2.069,2.069,0,0,0-1.519-.47,1.6,1.6,0,0,0-1.422.743,3.51,3.51,0,0,0-.5,1.978v2.488a3.31,3.31,0,0,0,.544,1.991,1.814,1.814,0,0,0,1.561.747,1.735,1.735,0,0,0,1.361-.472,2.36,2.36,0,0,0,.418-1.576Z" fill="#666"/>
      <path id="Trazado_192304" data-name="Trazado 192304" d="M371.576,138.934h-2.755v-1.845h2.755Zm0,10.833h-2.755v-8.793h2.755Z" fill="#666"/>
      <path id="Trazado_192305" data-name="Trazado 192305" d="M381.4,145.557a5.2,5.2,0,0,1-.894,3.182,2.961,2.961,0,0,1-2.52,1.2,2.4,2.4,0,0,1-1.982-.951v4.161h-2.747V140.974h2.592l.082.959a2.654,2.654,0,0,1,.873-.829,2.284,2.284,0,0,1,1.166-.292,2.93,2.93,0,0,1,2.532,1.259,5.6,5.6,0,0,1,.9,3.316Zm-2.739-.17a4.147,4.147,0,0,0-.325-1.788,1.087,1.087,0,0,0-1.04-.675,1.646,1.646,0,0,0-.784.171,1.243,1.243,0,0,0-.508.5v3.673a1.188,1.188,0,0,0,.516.423,2.007,2.007,0,0,0,.792.138,1.081,1.081,0,0,0,1.036-.6,3.65,3.65,0,0,0,.313-1.671Z" fill="#666"/>
      <path id="Trazado_192306" data-name="Trazado 192306" d="M385.278,142.063a2.9,2.9,0,0,1,.971-.922,2.486,2.486,0,0,1,1.264-.329,2.623,2.623,0,0,1,2.145.95,4.606,4.606,0,0,1,.78,2.95v5.055h-2.746V144.7a2.646,2.646,0,0,0-.26-1.39.893.893,0,0,0-.789-.382,2.176,2.176,0,0,0-.8.135,1.451,1.451,0,0,0-.561.377v6.331h-2.747V137.089h2.747Z" fill="#666"/>
      <path id="Trazado_192307" data-name="Trazado 192307" d="M395.867,149.938a4.084,4.084,0,0,1-3.133-1.211,4.308,4.308,0,0,1-1.134-3.064v-.309a4.927,4.927,0,0,1,1.069-3.284,3.8,3.8,0,0,1,3.092-1.258,3.559,3.559,0,0,1,2.759,1.064,4.143,4.143,0,0,1,.979,2.917v1.439h-5.038l-.016.048a1.7,1.7,0,0,0,.512,1.118,1.783,1.783,0,0,0,1.283.426,5.607,5.607,0,0,0,1.313-.129,8.31,8.31,0,0,0,1.2-.415l.658,1.674a5.021,5.021,0,0,1-1.528.7,7.035,7.035,0,0,1-2.015.285m-.106-7.014a1.134,1.134,0,0,0-.971.419,2.1,2.1,0,0,0-.362,1.134l.017.04h2.373v-.211a1.826,1.826,0,0,0-.24-1.032.919.919,0,0,0-.817-.35" fill="#666"/>
      <path id="Trazado_192308" data-name="Trazado 192308" d="M405.521,143.315l-.894-.009a1.526,1.526,0,0,0-.772.175,1.083,1.083,0,0,0-.447.492v5.794h-2.747v-8.793h2.585l.1,1.292a2.656,2.656,0,0,1,.731-1.072,1.606,1.606,0,0,1,1.065-.382,2.064,2.064,0,0,1,.333.024,2.533,2.533,0,0,1,.309.073Z" fill="#666"/>
      <path id="Trazado_192309" data-name="Trazado 192309" d="M413.826,138.789v2.186h1.39v1.9h-1.39v4.031a.984.984,0,0,0,.191.679.667.667,0,0,0,.516.207,2.7,2.7,0,0,0,.337-.017,2.8,2.8,0,0,0,.321-.064l.187,2.031a6.717,6.717,0,0,1-.748.15,5.969,5.969,0,0,1-.788.045,2.746,2.746,0,0,1-2.06-.723,3.2,3.2,0,0,1-.7-2.292v-4.047h-1.227v-1.9h1.227v-2.186Z" fill="#666"/>
      <path id="Trazado_192310" data-name="Trazado 192310" d="M420.45,149.938a4.084,4.084,0,0,1-3.133-1.211,4.308,4.308,0,0,1-1.134-3.064v-.309a4.927,4.927,0,0,1,1.069-3.284,3.8,3.8,0,0,1,3.092-1.258,3.559,3.559,0,0,1,2.759,1.064,4.143,4.143,0,0,1,.979,2.917v1.439h-5.038l-.016.048a1.7,1.7,0,0,0,.512,1.118,1.783,1.783,0,0,0,1.283.426,5.607,5.607,0,0,0,1.313-.129,8.309,8.309,0,0,0,1.2-.415l.658,1.674a5.021,5.021,0,0,1-1.528.7,7.035,7.035,0,0,1-2.015.285m-.106-7.014a1.134,1.134,0,0,0-.971.419,2.1,2.1,0,0,0-.362,1.134l.017.04H421.4v-.211a1.826,1.826,0,0,0-.24-1.032.919.919,0,0,0-.817-.35" fill="#666"/>
      <path id="Trazado_192311" data-name="Trazado 192311" d="M428.722,143.567h.049l1.113-2.593h3.08l-2.552,4.348,2.642,4.445h-3.081l-1.17-2.674h-.049l-1.17,2.674H424.5l2.642-4.445-2.56-4.348h3.063Z" fill="#666"/>
      <path id="Trazado_192312" data-name="Trazado 192312" d="M436.954,138.789v2.186h1.39v1.9h-1.39v4.031a.989.989,0,0,0,.191.679.667.667,0,0,0,.516.207,2.7,2.7,0,0,0,.337-.017,2.8,2.8,0,0,0,.321-.064l.187,2.031a6.749,6.749,0,0,1-.747.15,6,6,0,0,1-.789.045,2.747,2.747,0,0,1-2.06-.723,3.2,3.2,0,0,1-.7-2.292v-4.047H432.98v-1.9h1.227v-2.186Z" fill="#666"/>
      <line id="Línea_361" data-name="Línea 361" x2="197.991" transform="translate(139.68 82.775)" fill="none" stroke="#0071bc" stroke-linecap="round" stroke-linejoin="round" stroke-width="2" stroke-dasharray="2 5"/>
      <path id="Trazado_192313" data-name="Trazado 192313" d="M331.044,90.955,329.68,89.49l7.223-6.713-7.223-6.715,1.364-1.464,8.8,8.179Z" fill="#0071bc"/>
      <path id="Trazado_192314" data-name="Trazado 192314" d="M125.063,117.292A13.35,13.35,0,0,1,114.81,122.1H13.35A13.35,13.35,0,0,1,3.1,117.292l48.967-40.8,5.073,3.471a12.221,12.221,0,0,0,13.884,0L76.1,76.494Z" fill="#b3b3b3"/>
      <path id="Trazado_192315" data-name="Trazado 192315" d="M125.81,42.479,76.1,76.5l-5.073,3.471a12.225,12.225,0,0,1-13.884,0L52.065,76.5,2.35,42.425a13.407,13.407,0,0,1,11-5.767H114.81a13.174,13.174,0,0,1,11,5.821" fill="#e6e6e6"/>
      <path id="Trazado_192316" data-name="Trazado 192316" d="M52.065,76.5,3.1,117.293A13.292,13.292,0,0,1,0,108.749V50.009a13.161,13.161,0,0,1,2.35-7.583Z" fill="#ccc"/>
      <path id="Trazado_192317" data-name="Trazado 192317" d="M128.16,50.008v58.74a13.3,13.3,0,0,1-3.1,8.544L76.1,76.494,125.81,42.479a13.106,13.106,0,0,1,2.35,7.529" fill="#ccc"/>
      <path id="Trazado_192318" data-name="Trazado 192318" d="M420.164,87.68h-7V49.58a16.264,16.264,0,1,0-32.527,0v38.1h-7V49.58a23.264,23.264,0,1,1,46.527,0Z" fill="#263238"/>
      <path id="Trazado_192319" data-name="Trazado 192319" d="M443.507,122.046a10.141,10.141,0,0,1-7.79,3.652H358.624a10.141,10.141,0,0,1-7.79-3.652l37.207-31,3.855,2.637a9.287,9.287,0,0,0,10.549,0l3.855-2.637Z" fill="#b3b3b3"/>
      <path id="Trazado_192320" data-name="Trazado 192320" d="M444.075,65.2,406.3,91.047l-3.855,2.638a9.287,9.287,0,0,1-10.549,0l-3.855-2.638L350.266,65.16a10.189,10.189,0,0,1,8.358-4.382h77.093a10.013,10.013,0,0,1,8.358,4.423" fill="#e6e6e6"/>
      <path id="Trazado_192321" data-name="Trazado 192321" d="M388.041,91.047l-37.207,31a10.1,10.1,0,0,1-2.354-6.492V70.922a10,10,0,0,1,1.786-5.762Z" fill="#ccc"/>
      <path id="Trazado_192322" data-name="Trazado 192322" d="M445.86,70.922v44.632a10.1,10.1,0,0,1-2.353,6.492l-37.208-31L444.075,65.2a9.966,9.966,0,0,1,1.785,5.721" fill="#ccc"/>
    </g>
  </g>
</svg>
