<svg id="Grupo_148855" data-name="Grupo 148855" xmlns="http://www.w3.org/2000/svg" xmlns:xlink="http://www.w3.org/1999/xlink" width="492.09" height="157.66" viewBox="0 0 492.09 157.66">
  <defs>
    <clipPath id="clip-path">
      <rect id="Rectángulo_39800" data-name="Rectángulo 39800" width="492.09" height="157.66" fill="none"/>
    </clipPath>
  </defs>
  <g id="Grupo_143760" data-name="Grupo 143760" clip-path="url(#clip-path)">
    <path id="Trazado_192512" data-name="Trazado 192512" d="M56.66,42.154H4.166A4.179,4.179,0,0,0,0,46.32v82.074a4.178,4.178,0,0,0,4.166,4.166h65.2a4.178,4.178,0,0,0,4.166-4.166V59.027Z" fill="#d2b7ff"/>
    <path id="Trazado_192513" data-name="Trazado 192513" d="M82.907,118.812V50.486L64.992,32.572H13.54a4.177,4.177,0,0,0-4.166,4.166v82.074a4.178,4.178,0,0,0,4.166,4.166h65.2a4.179,4.179,0,0,0,4.166-4.166" fill="#f2f2f2"/>
    <path id="Trazado_192514" data-name="Trazado 192514" d="M64.993,47.361a3.289,3.289,0,0,0,3.332,3.333H82.908L64.993,32.571Z" fill="#cdd6e0"/>
    <path id="Trazado_192515" data-name="Trazado 192515" d="M262.554,42.154H210.06a4.179,4.179,0,0,0-4.166,4.166v82.074a4.178,4.178,0,0,0,4.166,4.166h65.2a4.178,4.178,0,0,0,4.166-4.166V59.027Z" fill="#d2b7ff"/>
    <path id="Trazado_192516" data-name="Trazado 192516" d="M288.8,118.812V50.486L270.887,32.572H219.435a4.177,4.177,0,0,0-4.166,4.166v82.074a4.178,4.178,0,0,0,4.166,4.166h65.2a4.179,4.179,0,0,0,4.167-4.166" fill="#f2f2f2"/>
    <path id="Trazado_192517" data-name="Trazado 192517" d="M270.887,47.361a3.29,3.29,0,0,0,3.333,3.333H288.8L270.887,32.571Z" fill="#cdd6e0"/>
    <path id="Trazado_192518" data-name="Trazado 192518" d="M463.715,42.154H411.221a4.179,4.179,0,0,0-4.166,4.166v82.074a4.178,4.178,0,0,0,4.166,4.166h65.2a4.178,4.178,0,0,0,4.166-4.166V59.027Z" fill="#d2b7ff"/>
    <path id="Trazado_192519" data-name="Trazado 192519" d="M489.962,118.812V50.486L472.047,32.572H420.6a4.177,4.177,0,0,0-4.166,4.166v82.074a4.178,4.178,0,0,0,4.166,4.166h65.2a4.179,4.179,0,0,0,4.166-4.166" fill="#f2f2f2"/>
    <path id="Trazado_192520" data-name="Trazado 192520" d="M472.048,47.361a3.29,3.29,0,0,0,3.333,3.333h14.582L472.048,32.571Z" fill="#cdd6e0"/>
    <line id="Línea_364" data-name="Línea 364" x2="107.188" transform="translate(91.509 84.045)" fill="none" stroke="#0071bc" stroke-linecap="round" stroke-linejoin="round" stroke-width="1" stroke-dasharray="2 5"/>
    <path id="Trazado_192521" data-name="Trazado 192521" d="M195.383,88.135,194.7,87.4l3.612-3.357L194.7,80.689l.682-.733,4.4,4.09Z" fill="#0071bc"/>
    <path id="Trazado_192522" data-name="Trazado 192522" d="M145.011,114.307a1.544,1.544,0,0,0,2.209.008l5.39-5.367a.987.987,0,0,0,.171-.608l.026-23.827a14.228,14.228,0,1,0-13.278-.015l0,2.369a.5.5,0,0,0,.169.367l3.183,2.652a.48.48,0,0,1,0,.734l-2.92,2.42a.49.49,0,0,0-.169.368.484.484,0,0,0,.169.367l2.914,2.427a.48.48,0,0,1,0,.734l-2.92,2.42a.484.484,0,0,0,0,.735l2.919,2.443a.472.472,0,0,1,0,.723l-3.2,2.667a.467.467,0,0,0-.165.362l.031,2.248a.791.791,0,0,0,.229.537Zm-2.617-48.079a3.794,3.794,0,1,1,3.79,3.8,3.792,3.792,0,0,1-3.79-3.8" fill="#f29c1f"/>
    <path id="Trazado_192523" data-name="Trazado 192523" d="M146.255,114.775l.049-44.759a3.785,3.785,0,0,0,.009-7.566l0-4.759c.5.006,1,.039,1.519.095a14.23,14.23,0,0,1,4.97,26.727l-.026,23.827a.987.987,0,0,1-.171.608l-5.39,5.368a1.564,1.564,0,0,1-.965.459" fill="#f0c419"/>
    <path id="Trazado_192524" data-name="Trazado 192524" d="M148.466,84.655a.775.775,0,0,1,1.323.55l-.019,17.072a.775.775,0,1,1-1.55,0l.018-17.073a.774.774,0,0,1,.228-.548" fill="#fff"/>
    <path id="Trazado_192525" data-name="Trazado 192525" d="M148.338,105.589a.775.775,0,1,0,0-1.1.774.774,0,0,0,0,1.1" fill="#fff"/>
    <line id="Línea_365" data-name="Línea 365" x2="107.187" transform="translate(294.445 84.045)" fill="none" stroke="#0071bc" stroke-linecap="round" stroke-linejoin="round" stroke-width="1" stroke-dasharray="2 5"/>
    <path id="Trazado_192526" data-name="Trazado 192526" d="M398.318,88.135l-.682-.732,3.612-3.357-3.612-3.357.682-.733,4.4,4.09Z" fill="#0071bc"/>
    <path id="Trazado_192527" data-name="Trazado 192527" d="M347.947,114.307a1.544,1.544,0,0,0,2.209.008l5.39-5.367a.987.987,0,0,0,.171-.608l.026-23.827a14.228,14.228,0,1,0-13.278-.015l0,2.369a.5.5,0,0,0,.169.367l3.183,2.652a.48.48,0,0,1,0,.734l-2.92,2.42a.49.49,0,0,0-.169.368.484.484,0,0,0,.169.367l2.914,2.427a.48.48,0,0,1,0,.734l-2.92,2.42a.484.484,0,0,0,0,.735l2.919,2.443a.472.472,0,0,1,0,.723l-3.2,2.667a.467.467,0,0,0-.165.362l.031,2.248a.792.792,0,0,0,.229.537ZM345.33,66.228a3.794,3.794,0,1,1,3.79,3.8,3.792,3.792,0,0,1-3.79-3.8" fill="#f29c1f"/>
    <path id="Trazado_192528" data-name="Trazado 192528" d="M349.191,114.775l.049-44.759a3.785,3.785,0,0,0,.009-7.566l.005-4.759c.5.006,1,.039,1.519.095a14.23,14.23,0,0,1,4.97,26.727l-.026,23.827a.987.987,0,0,1-.171.608l-5.39,5.368a1.567,1.567,0,0,1-.965.459" fill="#f0c419"/>
    <path id="Trazado_192529" data-name="Trazado 192529" d="M351.4,84.655a.775.775,0,0,1,1.323.55l-.019,17.072a.775.775,0,1,1-1.55,0l.018-17.073a.774.774,0,0,1,.228-.548" fill="#fff"/>
    <path id="Trazado_192530" data-name="Trazado 192530" d="M351.274,105.589a.775.775,0,1,0,0-1.1.774.774,0,0,0,0,1.1" fill="#fff"/>
    <path id="Trazado_192531" data-name="Trazado 192531" d="M169.655,9.541a1.183,1.183,0,0,0-.414-.972,5.4,5.4,0,0,0-1.5-.718,11.43,11.43,0,0,1-3.271-1.524A2.743,2.743,0,0,1,163.4,4a2.854,2.854,0,0,1,1.243-2.406,5.994,5.994,0,0,1,6.42.028,3.073,3.073,0,0,1,1.195,2.67l-.017.049h-2.665a1.494,1.494,0,0,0-.455-1.215,2.115,2.115,0,0,0-1.374-.378,1.761,1.761,0,0,0-1.178.366,1.137,1.137,0,0,0-.431.9.973.973,0,0,0,.443.833,8.613,8.613,0,0,0,1.654.784,8.81,8.81,0,0,1,3.112,1.487A2.958,2.958,0,0,1,172.4,9.524a2.85,2.85,0,0,1-1.219,2.443,5.4,5.4,0,0,1-3.235.882,5.9,5.9,0,0,1-3.4-.948,3.258,3.258,0,0,1-1.354-2.978l.017-.048h2.673a1.846,1.846,0,0,0,.508,1.467,2.357,2.357,0,0,0,1.556.434,2.025,2.025,0,0,0,1.285-.341,1.1,1.1,0,0,0,.422-.894" fill="#5c379b"/>
    <path id="Trazado_192532" data-name="Trazado 192532" d="M177.139,8.8l.008.064h.049l1.454-4.981h2.926l-3.5,10.1a4.838,4.838,0,0,1-1.049,1.608,2.812,2.812,0,0,1-2.04.635,3.2,3.2,0,0,1-.585-.045c-.151-.03-.39-.086-.715-.167l.333-1.958.171.036a.723.723,0,0,0,.146.013,1.825,1.825,0,0,0,.951-.192,1.124,1.124,0,0,0,.447-.573l.219-.568-3.039-8.891h2.918Z" fill="#5c379b"/>
    <path id="Trazado_192533" data-name="Trazado 192533" d="M184.876,3.885l.1,1.162a2.9,2.9,0,0,1,1.044-.979,2.951,2.951,0,0,1,1.442-.345,2.69,2.69,0,0,1,1.414.357,2.2,2.2,0,0,1,.894,1.089A2.949,2.949,0,0,1,190.812,4.1a2.875,2.875,0,0,1,1.492-.378,2.443,2.443,0,0,1,2.019.922,4.523,4.523,0,0,1,.736,2.841v5.192H192.3V7.486a2.287,2.287,0,0,0-.264-1.3.928.928,0,0,0-.793-.354,1.643,1.643,0,0,0-.7.143,1.5,1.5,0,0,0-.516.393c0,.093,0,.173.008.241s.008.133.008.2v5.867H187.3V7.486a2.314,2.314,0,0,0-.26-1.3.939.939,0,0,0-.8-.35,1.58,1.58,0,0,0-.678.143,1.478,1.478,0,0,0-.516.393v6.307h-2.747V3.885Z" fill="#5c379b"/>
    <path id="Trazado_192534" data-name="Trazado 192534" d="M199.211,3.885l.1,1.162a2.9,2.9,0,0,1,1.044-.979,2.951,2.951,0,0,1,1.442-.345,2.691,2.691,0,0,1,1.414.357,2.2,2.2,0,0,1,.894,1.089A2.949,2.949,0,0,1,205.147,4.1a2.875,2.875,0,0,1,1.492-.378,2.443,2.443,0,0,1,2.019.922,4.523,4.523,0,0,1,.736,2.841v5.192h-2.755V7.486a2.287,2.287,0,0,0-.264-1.3.928.928,0,0,0-.793-.354,1.644,1.644,0,0,0-.7.143,1.5,1.5,0,0,0-.516.393c0,.093,0,.173.008.241s.008.133.008.2v5.867h-2.746V7.486a2.314,2.314,0,0,0-.26-1.3.939.939,0,0,0-.805-.35,1.58,1.58,0,0,0-.678.143,1.478,1.478,0,0,0-.516.393v6.307h-2.747V3.885Z" fill="#5c379b"/>
    <path id="Trazado_192535" data-name="Trazado 192535" d="M214.863,12.849a4.084,4.084,0,0,1-3.133-1.211A4.308,4.308,0,0,1,210.6,8.574V8.265a4.922,4.922,0,0,1,1.069-3.284,3.8,3.8,0,0,1,3.092-1.258,3.559,3.559,0,0,1,2.759,1.064,4.143,4.143,0,0,1,.979,2.917V9.143h-5.038l-.016.048a1.7,1.7,0,0,0,.512,1.118,1.783,1.783,0,0,0,1.283.426,5.607,5.607,0,0,0,1.313-.129,8.309,8.309,0,0,0,1.2-.415l.658,1.674a5.021,5.021,0,0,1-1.528.7,7.035,7.035,0,0,1-2.015.285m-.106-7.014a1.133,1.133,0,0,0-.971.419,2.1,2.1,0,0,0-.362,1.134l.017.04h2.373V7.217a1.826,1.826,0,0,0-.24-1.032.919.919,0,0,0-.817-.35" fill="#5c379b"/>
    <path id="Trazado_192536" data-name="Trazado 192536" d="M222.811,1.7V3.885h1.39v1.9h-1.39V9.817a.989.989,0,0,0,.19.679.667.667,0,0,0,.516.207,2.7,2.7,0,0,0,.337-.017,2.8,2.8,0,0,0,.321-.064l.187,2.031a6.75,6.75,0,0,1-.747.15,6,6,0,0,1-.789.045,2.746,2.746,0,0,1-2.06-.723,3.2,3.2,0,0,1-.7-2.292V5.786h-1.227v-1.9h1.227V1.7Z" fill="#5c379b"/>
    <path id="Trazado_192537" data-name="Trazado 192537" d="M230.393,6.225l-.9-.009a1.52,1.52,0,0,0-.771.175,1.08,1.08,0,0,0-.448.492v5.794h-2.746V3.884h2.584l.1,1.292a2.666,2.666,0,0,1,.731-1.072,1.606,1.606,0,0,1,1.065-.382,2.063,2.063,0,0,1,.333.024,2.531,2.531,0,0,1,.309.073Z" fill="#5c379b"/>
    <path id="Trazado_192538" data-name="Trazado 192538" d="M234.277,1.845h-2.755V0h2.755Zm0,10.833h-2.755V3.885h2.755Z" fill="#5c379b"/>
    <path id="Trazado_192539" data-name="Trazado 192539" d="M239.722,10.735a1.074,1.074,0,0,0,.837-.3,1.271,1.271,0,0,0,.276-.882h2.5l.017.049a2.891,2.891,0,0,1-1,2.345,3.835,3.835,0,0,1-2.637.906,3.89,3.89,0,0,1-3.092-1.239,4.726,4.726,0,0,1-1.085-3.23V8.191a4.741,4.741,0,0,1,1.081-3.226,3.86,3.86,0,0,1,3.08-1.243,3.781,3.781,0,0,1,2.677.93,3.214,3.214,0,0,1,.972,2.548l-.017.049h-2.5a1.7,1.7,0,0,0-.284-1.02.974.974,0,0,0-.845-.394,1.129,1.129,0,0,0-1.109.637,3.944,3.944,0,0,0-.313,1.719v.188a3.921,3.921,0,0,0,.313,1.73,1.144,1.144,0,0,0,1.125.626" fill="#5c379b"/>
    <path id="Trazado_192540" data-name="Trazado 192540" d="M255.7,7.615h-4.169v2.949h5v2.113h-7.745V.845h7.753V2.958h-5.006V5.5H255.7Z" fill="#5c379b"/>
    <path id="Trazado_192541" data-name="Trazado 192541" d="M260.436,3.885l.106,1.235a3.2,3.2,0,0,1,1.064-1.028,2.76,2.76,0,0,1,1.414-.369,2.48,2.48,0,0,1,2.02.877,4.343,4.343,0,0,1,.727,2.788v5.29H263.02v-5.3a2.014,2.014,0,0,0-.268-1.19.919.919,0,0,0-.78-.354,1.94,1.94,0,0,0-.788.154,1.582,1.582,0,0,0-.585.44v6.249H257.86V3.885Z" fill="#5c379b"/>
    <path id="Trazado_192542" data-name="Trazado 192542" d="M271.025,10.735a1.074,1.074,0,0,0,.837-.3,1.271,1.271,0,0,0,.276-.882h2.5l.017.049a2.891,2.891,0,0,1-1,2.345,3.835,3.835,0,0,1-2.637.906,3.89,3.89,0,0,1-3.092-1.239,4.726,4.726,0,0,1-1.085-3.23V8.191a4.741,4.741,0,0,1,1.081-3.226,3.86,3.86,0,0,1,3.08-1.243,3.781,3.781,0,0,1,2.677.93,3.214,3.214,0,0,1,.972,2.548l-.017.049h-2.5a1.7,1.7,0,0,0-.284-1.02.974.974,0,0,0-.845-.394,1.129,1.129,0,0,0-1.109.637,3.944,3.944,0,0,0-.313,1.719v.188a3.922,3.922,0,0,0,.313,1.73,1.144,1.144,0,0,0,1.125.626" fill="#5c379b"/>
    <path id="Trazado_192543" data-name="Trazado 192543" d="M280.639,6.225l-.894-.009a1.526,1.526,0,0,0-.772.175,1.083,1.083,0,0,0-.447.492v5.794h-2.747V3.884h2.585l.1,1.292a2.656,2.656,0,0,1,.731-1.072,1.606,1.606,0,0,1,1.065-.382,2.063,2.063,0,0,1,.333.024,2.532,2.532,0,0,1,.309.073Z" fill="#5c379b"/>
    <path id="Trazado_192544" data-name="Trazado 192544" d="M285.2,8.8l.008.064h.049l1.454-4.981h2.926l-3.5,10.1a4.839,4.839,0,0,1-1.049,1.608,2.812,2.812,0,0,1-2.04.635,3.2,3.2,0,0,1-.585-.045c-.151-.03-.39-.086-.715-.167l.333-1.958c.076.015.133.028.171.036a.723.723,0,0,0,.146.013,1.825,1.825,0,0,0,.951-.192,1.124,1.124,0,0,0,.447-.573l.219-.568-3.039-8.891h2.918Z" fill="#5c379b"/>
    <path id="Trazado_192545" data-name="Trazado 192545" d="M298.493,8.468a5.2,5.2,0,0,1-.894,3.182,2.961,2.961,0,0,1-2.52,1.2A2.4,2.4,0,0,1,293.1,11.9v4.161H290.35V3.885h2.592l.081.959a2.667,2.667,0,0,1,.874-.829,2.284,2.284,0,0,1,1.166-.292A2.93,2.93,0,0,1,297.6,4.982a5.6,5.6,0,0,1,.9,3.316Zm-2.739-.17a4.162,4.162,0,0,0-.325-1.788,1.087,1.087,0,0,0-1.04-.675,1.653,1.653,0,0,0-.785.171,1.247,1.247,0,0,0-.507.5v3.673a1.188,1.188,0,0,0,.516.423,2.007,2.007,0,0,0,.792.138,1.081,1.081,0,0,0,1.036-.6,3.65,3.65,0,0,0,.313-1.671Z" fill="#5c379b"/>
    <path id="Trazado_192546" data-name="Trazado 192546" d="M302.857,1.7V3.885h1.39v1.9h-1.39V9.817a.989.989,0,0,0,.191.679.667.667,0,0,0,.516.207,2.7,2.7,0,0,0,.337-.017,2.8,2.8,0,0,0,.321-.064l.187,2.031a6.75,6.75,0,0,1-.747.15,6,6,0,0,1-.789.045,2.746,2.746,0,0,1-2.06-.723,3.2,3.2,0,0,1-.7-2.292V5.786h-1.227v-1.9h1.227V1.7Z" fill="#5c379b"/>
    <path id="Trazado_192547" data-name="Trazado 192547" d="M308.456,1.845H305.7V0h2.755Zm0,10.833H305.7V3.885h2.755Z" fill="#5c379b"/>
    <path id="Trazado_192548" data-name="Trazado 192548" d="M309.772,8.2a4.646,4.646,0,0,1,1.122-3.23,4.558,4.558,0,0,1,6.265,0,4.646,4.646,0,0,1,1.122,3.23v.171a4.643,4.643,0,0,1-1.122,3.234,4.566,4.566,0,0,1-6.265,0,4.643,4.643,0,0,1-1.122-3.234Zm2.747.171a3.637,3.637,0,0,0,.345,1.734,1.23,1.23,0,0,0,1.175.63,1.214,1.214,0,0,0,1.154-.634,3.611,3.611,0,0,0,.349-1.73V8.2a3.632,3.632,0,0,0-.349-1.719,1.225,1.225,0,0,0-1.171-.646,1.209,1.209,0,0,0-1.158.65,3.664,3.664,0,0,0-.345,1.715Z" fill="#5c379b"/>
    <path id="Trazado_192549" data-name="Trazado 192549" d="M322.019,3.885l.106,1.235a3.2,3.2,0,0,1,1.064-1.028,2.76,2.76,0,0,1,1.414-.369,2.479,2.479,0,0,1,2.02.877,4.343,4.343,0,0,1,.727,2.788v5.29H324.6v-5.3a2.014,2.014,0,0,0-.268-1.19.919.919,0,0,0-.78-.354,1.94,1.94,0,0,0-.788.154,1.582,1.582,0,0,0-.585.44v6.249h-2.739V3.885Z" fill="#5c379b"/>
    <path id="Trazado_192550" data-name="Trazado 192550" d="M115.264,37.987h-4.169v2.949h5v2.113h-7.745V31.217H116.1V33.33h-5.006v2.544h4.169Z" fill="#4d4d4d"/>
    <path id="Trazado_192551" data-name="Trazado 192551" d="M120,34.257l.105,1.235a3.2,3.2,0,0,1,1.065-1.028,2.755,2.755,0,0,1,1.414-.369,2.478,2.478,0,0,1,2.019.877,4.343,4.343,0,0,1,.727,2.788v5.29h-2.746v-5.3a2.013,2.013,0,0,0-.269-1.19.918.918,0,0,0-.78-.354,1.94,1.94,0,0,0-.788.154,1.6,1.6,0,0,0-.585.44V43.05h-2.739V34.257Z" fill="#4d4d4d"/>
    <path id="Trazado_192552" data-name="Trazado 192552" d="M130.59,41.107a1.074,1.074,0,0,0,.837-.305,1.271,1.271,0,0,0,.276-.882h2.5l.017.049a2.891,2.891,0,0,1-1,2.345,3.835,3.835,0,0,1-2.637.906,3.89,3.89,0,0,1-3.092-1.239,4.727,4.727,0,0,1-1.085-3.23v-.188a4.741,4.741,0,0,1,1.081-3.226,3.86,3.86,0,0,1,3.08-1.243,3.781,3.781,0,0,1,2.677.93,3.214,3.214,0,0,1,.972,2.548l-.017.049h-2.5a1.7,1.7,0,0,0-.284-1.02.974.974,0,0,0-.845-.394,1.129,1.129,0,0,0-1.109.637,3.944,3.944,0,0,0-.313,1.719v.188a3.921,3.921,0,0,0,.313,1.73,1.144,1.144,0,0,0,1.125.626" fill="#4d4d4d"/>
    <path id="Trazado_192553" data-name="Trazado 192553" d="M140.2,36.6l-.894-.009a1.526,1.526,0,0,0-.772.175,1.083,1.083,0,0,0-.447.492V43.05h-2.747V34.257h2.585l.1,1.292a2.656,2.656,0,0,1,.731-1.072,1.606,1.606,0,0,1,1.065-.382,2.063,2.063,0,0,1,.333.024,2.531,2.531,0,0,1,.309.073Z" fill="#4d4d4d"/>
    <path id="Trazado_192554" data-name="Trazado 192554" d="M144.763,39.174l.008.064h.049l1.454-4.981H149.2l-3.5,10.1a4.838,4.838,0,0,1-1.049,1.608,2.812,2.812,0,0,1-2.04.635,3.2,3.2,0,0,1-.585-.045c-.151-.03-.39-.086-.715-.167l.333-1.958c.076.015.133.028.171.036a.722.722,0,0,0,.146.013,1.825,1.825,0,0,0,.951-.192,1.124,1.124,0,0,0,.447-.573l.219-.568-3.039-8.891h2.918Z" fill="#4d4d4d"/>
    <path id="Trazado_192555" data-name="Trazado 192555" d="M158.059,38.84a5.2,5.2,0,0,1-.9,3.182,2.959,2.959,0,0,1-2.519,1.2,2.4,2.4,0,0,1-1.983-.951v4.161h-2.747V34.257h2.592l.082.959a2.654,2.654,0,0,1,.873-.829,2.284,2.284,0,0,1,1.166-.292,2.931,2.931,0,0,1,2.532,1.259,5.6,5.6,0,0,1,.9,3.316Zm-2.739-.17a4.161,4.161,0,0,0-.326-1.788,1.087,1.087,0,0,0-1.04-.675,1.653,1.653,0,0,0-.785.171,1.247,1.247,0,0,0-.507.5v3.673a1.188,1.188,0,0,0,.516.423,2.011,2.011,0,0,0,.792.138,1.083,1.083,0,0,0,1.037-.6,3.663,3.663,0,0,0,.313-1.671Z" fill="#4d4d4d"/>
    <path id="Trazado_192556" data-name="Trazado 192556" d="M162.422,32.071v2.186h1.39v1.9h-1.39v4.031a.989.989,0,0,0,.191.679.667.667,0,0,0,.516.207,2.7,2.7,0,0,0,.337-.017,2.8,2.8,0,0,0,.321-.064l.187,2.031a6.75,6.75,0,0,1-.747.15,6,6,0,0,1-.789.045,2.746,2.746,0,0,1-2.06-.723,3.2,3.2,0,0,1-.7-2.292V36.158h-1.227v-1.9h1.227V32.071Z" fill="#4d4d4d"/>
    <path id="Trazado_192557" data-name="Trazado 192557" d="M168.021,32.217h-2.755V30.372h2.755Zm0,10.833h-2.755V34.257h2.755Z" fill="#4d4d4d"/>
    <path id="Trazado_192558" data-name="Trazado 192558" d="M169.337,38.572a4.647,4.647,0,0,1,1.123-3.23,4.558,4.558,0,0,1,6.265,0,4.65,4.65,0,0,1,1.121,3.23v.171a4.647,4.647,0,0,1-1.121,3.234,4.566,4.566,0,0,1-6.265,0,4.643,4.643,0,0,1-1.123-3.234Zm2.748.171a3.638,3.638,0,0,0,.344,1.734,1.23,1.23,0,0,0,1.175.63,1.213,1.213,0,0,0,1.154-.634,3.611,3.611,0,0,0,.349-1.73v-.171a3.631,3.631,0,0,0-.349-1.719,1.225,1.225,0,0,0-1.171-.646,1.209,1.209,0,0,0-1.158.65,3.665,3.665,0,0,0-.344,1.715Z" fill="#4d4d4d"/>
    <path id="Trazado_192559" data-name="Trazado 192559" d="M181.584,34.257l.106,1.235a3.2,3.2,0,0,1,1.064-1.028,2.76,2.76,0,0,1,1.414-.369,2.48,2.48,0,0,1,2.02.877,4.343,4.343,0,0,1,.727,2.788v5.29h-2.747v-5.3a2.014,2.014,0,0,0-.268-1.19.919.919,0,0,0-.78-.354,1.94,1.94,0,0,0-.788.154,1.583,1.583,0,0,0-.585.44V43.05h-2.739V34.257Z" fill="#4d4d4d"/>
    <path id="Trazado_192560" data-name="Trazado 192560" d="M14.506,149.633v4.055H11.759V141.856h4.519a4.92,4.92,0,0,1,3.34,1.072,3.833,3.833,0,0,1,0,5.636,4.929,4.929,0,0,1-3.34,1.069Zm0-2.113h1.772a1.8,1.8,0,0,0,1.365-.492,1.749,1.749,0,0,0,.471-1.264,1.828,1.828,0,0,0-.467-1.292,1.777,1.777,0,0,0-1.369-.5H14.506Z" fill="#4d4d4d"/>
    <rect id="Rectángulo_39793" data-name="Rectángulo 39793" width="2.755" height="12.678" transform="translate(22.332 141.01)" fill="#4d4d4d"/>
    <path id="Trazado_192561" data-name="Trazado 192561" d="M31.848,153.68a3.273,3.273,0,0,1-.264-.626,4.809,4.809,0,0,1-.167-.731,3.346,3.346,0,0,1-.881,1.117,2.131,2.131,0,0,1-1.37.419,3.044,3.044,0,0,1-2.149-.711,2.513,2.513,0,0,1-.768-1.938,2.348,2.348,0,0,1,.983-2.02,5.1,5.1,0,0,1,2.983-.711h1.129v-.626a1.249,1.249,0,0,0-.268-.861,1.046,1.046,0,0,0-.821-.3.986.986,0,0,0-.711.224.928.928,0,0,0-.231.694l-2.666-.008-.016-.049a2.291,2.291,0,0,1,1-2.01,4.5,4.5,0,0,1,2.8-.809,4.092,4.092,0,0,1,2.645.813,2.806,2.806,0,0,1,1.012,2.324v3.315a6.719,6.719,0,0,0,.118,1.3,6.9,6.9,0,0,0,.353,1.2Zm-1.934-1.78a1.676,1.676,0,0,0,.89-.235,1.354,1.354,0,0,0,.54-.561v-1.162h-1.1a1.243,1.243,0,0,0-.951.316,1.142,1.142,0,0,0-.292.805.779.779,0,0,0,.256.606.949.949,0,0,0,.662.231" fill="#4d4d4d"/>
    <path id="Trazado_192562" data-name="Trazado 192562" d="M38.471,142.855H35.716V141.01h2.755Zm0,10.833H35.716V144.9h2.755Z" fill="#4d4d4d"/>
    <path id="Trazado_192563" data-name="Trazado 192563" d="M42.681,144.9l.106,1.235a3.2,3.2,0,0,1,1.064-1.028,2.76,2.76,0,0,1,1.414-.369,2.479,2.479,0,0,1,2.02.877,4.343,4.343,0,0,1,.727,2.788v5.29H45.265v-5.3A2.014,2.014,0,0,0,45,147.2a.919.919,0,0,0-.78-.354,1.94,1.94,0,0,0-.788.154,1.582,1.582,0,0,0-.585.44v6.249H40.1V144.9Z" fill="#4d4d4d"/>
    <path id="Trazado_192564" data-name="Trazado 192564" d="M56.805,142.71V144.9h1.39v1.9h-1.39v4.031a.989.989,0,0,0,.191.679.667.667,0,0,0,.516.207,2.7,2.7,0,0,0,.337-.017,2.808,2.808,0,0,0,.321-.064l.187,2.031a6.752,6.752,0,0,1-.747.15,6,6,0,0,1-.789.045,2.746,2.746,0,0,1-2.06-.723,3.2,3.2,0,0,1-.7-2.292V146.8H52.831v-1.9h1.227V142.71Z" fill="#4d4d4d"/>
    <path id="Trazado_192565" data-name="Trazado 192565" d="M63.428,153.86a4.084,4.084,0,0,1-3.133-1.211,4.308,4.308,0,0,1-1.134-3.064v-.309a4.922,4.922,0,0,1,1.069-3.284,3.8,3.8,0,0,1,3.092-1.258,3.559,3.559,0,0,1,2.759,1.064,4.143,4.143,0,0,1,.979,2.917v1.439H62.022l-.016.048a1.7,1.7,0,0,0,.512,1.118,1.783,1.783,0,0,0,1.283.426,5.607,5.607,0,0,0,1.313-.129,8.31,8.31,0,0,0,1.2-.415l.658,1.674a5.021,5.021,0,0,1-1.528.7,7.035,7.035,0,0,1-2.015.285m-.106-7.014a1.132,1.132,0,0,0-.971.419,2.1,2.1,0,0,0-.362,1.134l.017.04h2.373v-.211a1.826,1.826,0,0,0-.24-1.032.919.919,0,0,0-.817-.35" fill="#4d4d4d"/>
    <path id="Trazado_192566" data-name="Trazado 192566" d="M71.7,147.488h.049l1.113-2.593h3.08l-2.552,4.348,2.641,4.445h-3.08l-1.17-2.674h-.049l-1.17,2.674h-3.08l2.641-4.445L67.565,144.9h3.063Z" fill="#4d4d4d"/>
    <path id="Trazado_192567" data-name="Trazado 192567" d="M79.933,142.71V144.9h1.39v1.9h-1.39v4.031a.989.989,0,0,0,.191.679.667.667,0,0,0,.516.207,2.7,2.7,0,0,0,.337-.017,2.808,2.808,0,0,0,.321-.064l.187,2.031a6.752,6.752,0,0,1-.747.15,6,6,0,0,1-.789.045,2.746,2.746,0,0,1-2.06-.723,3.2,3.2,0,0,1-.7-2.292V146.8H75.959v-1.9h1.227V142.71Z" fill="#4d4d4d"/>
    <path id="Trazado_192568" data-name="Trazado 192568" d="M21.2,67.33V59.586h2.834a3.156,3.156,0,0,1,2.287.891,3.037,3.037,0,0,1,.921,2.285v1.394a3.032,3.032,0,0,1-.921,2.286,3.162,3.162,0,0,1-2.287.888ZM23,60.969v4.979h1.036a1.234,1.234,0,0,0,1.009-.5,2.018,2.018,0,0,0,.4-1.292v-1.4a2,2,0,0,0-.4-1.282,1.234,1.234,0,0,0-1.009-.5Z" fill="#4d4d4d"/>
    <path id="Trazado_192569" data-name="Trazado 192569" d="M30.761,67.441a2.671,2.671,0,0,1-2.05-.792,2.816,2.816,0,0,1-.742-2.005v-.2a3.225,3.225,0,0,1,.7-2.15,2.491,2.491,0,0,1,2.024-.824,2.334,2.334,0,0,1,1.806.7,2.713,2.713,0,0,1,.641,1.91v.941h-3.3l-.011.032a1.116,1.116,0,0,0,.336.731,1.168,1.168,0,0,0,.84.279,3.63,3.63,0,0,0,.859-.085,5.347,5.347,0,0,0,.784-.271L33.08,66.8a3.251,3.251,0,0,1-1,.458,4.616,4.616,0,0,1-1.319.186m-.069-4.59a.742.742,0,0,0-.635.274,1.369,1.369,0,0,0-.237.742l.01.027h1.554v-.139a1.2,1.2,0,0,0-.157-.675.6.6,0,0,0-.535-.229" fill="#4d4d4d"/>
    <path id="Trazado_192570" data-name="Trazado 192570" d="M37.223,67.325a2.169,2.169,0,0,1-.173-.41,3.127,3.127,0,0,1-.109-.479,2.214,2.214,0,0,1-.577.732,1.4,1.4,0,0,1-.9.273,1.989,1.989,0,0,1-1.407-.465,1.644,1.644,0,0,1-.5-1.268,1.535,1.535,0,0,1,.644-1.322,3.337,3.337,0,0,1,1.952-.465h.739v-.409a.817.817,0,0,0-.176-.565.682.682,0,0,0-.537-.2.654.654,0,0,0-.465.145.609.609,0,0,0-.152.455l-1.744,0-.011-.033A1.5,1.5,0,0,1,34.465,62a2.943,2.943,0,0,1,1.832-.529A2.681,2.681,0,0,1,38.029,62a1.837,1.837,0,0,1,.662,1.52v2.171a4.385,4.385,0,0,0,.077.851A4.5,4.5,0,0,0,39,67.33ZM35.957,66.16a1.1,1.1,0,0,0,.582-.154.884.884,0,0,0,.354-.367v-.761H36.17a.813.813,0,0,0-.623.208.745.745,0,0,0-.191.526.512.512,0,0,0,.168.4.624.624,0,0,0,.433.151" fill="#4d4d4d"/>
    <path id="Trazado_192571" data-name="Trazado 192571" d="M42.855,63.107,42.27,63.1a1,1,0,0,0-.505.114.706.706,0,0,0-.293.323V67.33h-1.8V61.575h1.692l.064.845a1.739,1.739,0,0,1,.478-.7,1.05,1.05,0,0,1,.7-.25,1.408,1.408,0,0,1,.218.016,1.771,1.771,0,0,1,.2.048Z" fill="#4d4d4d"/>
    <path id="Trazado_192572" data-name="Trazado 192572" d="M49.4,59.586h1.8v5.261a2.506,2.506,0,0,1-.729,1.89,2.573,2.573,0,0,1-1.867.7,3.169,3.169,0,0,1-2.071-.626,2.16,2.16,0,0,1-.737-1.825l.016-.032h1.755a1.091,1.091,0,0,0,.287.835,1.059,1.059,0,0,0,.75.266.674.674,0,0,0,.575-.322,1.54,1.54,0,0,0,.223-.89Z" fill="#4d4d4d"/>
    <path id="Trazado_192573" data-name="Trazado 192573" d="M52.073,64.4a3.045,3.045,0,0,1,.734-2.115,2.984,2.984,0,0,1,4.1,0,3.045,3.045,0,0,1,.734,2.115v.111a3.04,3.04,0,0,1-.734,2.117,2.99,2.99,0,0,1-4.1,0,3.04,3.04,0,0,1-.734-2.117Zm1.8.111a2.379,2.379,0,0,0,.226,1.136.8.8,0,0,0,.769.412.8.8,0,0,0,.755-.414,2.372,2.372,0,0,0,.229-1.134V64.4a2.374,2.374,0,0,0-.229-1.125.8.8,0,0,0-.766-.423.788.788,0,0,0-.758.426,2.386,2.386,0,0,0-.226,1.122Z" fill="#4d4d4d"/>
    <path id="Trazado_192574" data-name="Trazado 192574" d="M60.179,62.288a1.914,1.914,0,0,1,.636-.6,1.635,1.635,0,0,1,.827-.215,1.722,1.722,0,0,1,1.4.622,3.015,3.015,0,0,1,.51,1.93V67.33h-1.8V64.011a1.722,1.722,0,0,0-.171-.91.582.582,0,0,0-.515-.25,1.447,1.447,0,0,0-.527.088.963.963,0,0,0-.367.247V67.33h-1.8v-8.3h1.8Z" fill="#4d4d4d"/>
    <path id="Trazado_192575" data-name="Trazado 192575" d="M66.21,61.575l.069.809a2.071,2.071,0,0,1,.7-.673,1.8,1.8,0,0,1,.925-.242,1.622,1.622,0,0,1,1.322.574,2.843,2.843,0,0,1,.476,1.824V67.33H67.9V63.862a1.319,1.319,0,0,0-.175-.779.6.6,0,0,0-.511-.232,1.274,1.274,0,0,0-.516.1,1.032,1.032,0,0,0-.383.287v4.09H64.524V61.575Z" fill="#4d4d4d"/>
    <path id="Trazado_192576" data-name="Trazado 192576" d="M22.847,73.216v1.431h.91v1.244h-.91v2.638a.648.648,0,0,0,.125.445.438.438,0,0,0,.338.136,1.8,1.8,0,0,0,.22-.011c.055-.008.125-.022.211-.043l.122,1.33a4.49,4.49,0,0,1-.489.1,4.05,4.05,0,0,1-.516.029,1.8,1.8,0,0,1-1.349-.473,2.091,2.091,0,0,1-.46-1.5V75.891h-.8V74.647h.8V73.216Z" fill="#4d4d4d"/>
    <path id="Trazado_192577" data-name="Trazado 192577" d="M26.373,75.359a1.914,1.914,0,0,1,.636-.6,1.635,1.635,0,0,1,.827-.215,1.722,1.722,0,0,1,1.4.622,3.015,3.015,0,0,1,.51,1.93V80.4h-1.8V77.082a1.722,1.722,0,0,0-.171-.91.582.582,0,0,0-.515-.25,1.447,1.447,0,0,0-.527.088.963.963,0,0,0-.367.247V80.4h-1.8V72.1h1.8Z" fill="#4d4d4d"/>
    <path id="Trazado_192578" data-name="Trazado 192578" d="M32.633,73.311h-1.8V72.1h1.8Zm0,7.09h-1.8V74.646h1.8Z" fill="#4d4d4d"/>
    <path id="Trazado_192579" data-name="Trazado 192579" d="M36.734,78.784a.468.468,0,0,0-.242-.38,2.631,2.631,0,0,0-.88-.3A3.482,3.482,0,0,1,34.1,77.5a1.378,1.378,0,0,1-.511-1.136,1.618,1.618,0,0,1,.639-1.29,2.627,2.627,0,0,1,1.728-.529,2.964,2.964,0,0,1,1.83.514,1.508,1.508,0,0,1,.649,1.327l-.011.031H36.675a.71.71,0,0,0-.17-.516.751.751,0,0,0-.558-.175.732.732,0,0,0-.474.154.485.485,0,0,0-.191.393.467.467,0,0,0,.221.389,2.5,2.5,0,0,0,.891.287,3.586,3.586,0,0,1,1.563.619,1.423,1.423,0,0,1,.506,1.168,1.526,1.526,0,0,1-.689,1.28,3.023,3.023,0,0,1-1.822.5,2.733,2.733,0,0,1-1.859-.6,1.639,1.639,0,0,1-.651-1.329l.01-.033H35.08a.721.721,0,0,0,.247.591,1.093,1.093,0,0,0,.673.181.9.9,0,0,0,.548-.141.474.474,0,0,0,.186-.4" fill="#4d4d4d"/>
    <path id="Trazado_192580" data-name="Trazado 192580" d="M43.9,73.311H42.1V72.1h1.8Zm0,7.09H42.1V74.646h1.8Z" fill="#4d4d4d"/>
    <path id="Trazado_192581" data-name="Trazado 192581" d="M48,78.784a.468.468,0,0,0-.242-.38,2.631,2.631,0,0,0-.88-.3,3.482,3.482,0,0,1-1.516-.608,1.378,1.378,0,0,1-.511-1.136,1.618,1.618,0,0,1,.639-1.29,2.627,2.627,0,0,1,1.728-.529,2.964,2.964,0,0,1,1.83.514,1.508,1.508,0,0,1,.649,1.327l-.011.031H47.945a.71.71,0,0,0-.17-.516.751.751,0,0,0-.558-.175.732.732,0,0,0-.474.154.485.485,0,0,0-.191.393.467.467,0,0,0,.221.389,2.5,2.5,0,0,0,.891.287,3.586,3.586,0,0,1,1.563.619,1.423,1.423,0,0,1,.506,1.168,1.526,1.526,0,0,1-.689,1.28,3.023,3.023,0,0,1-1.822.5,2.733,2.733,0,0,1-1.859-.6,1.639,1.639,0,0,1-.651-1.329l.01-.033H46.35a.721.721,0,0,0,.247.591,1.093,1.093,0,0,0,.673.181.9.9,0,0,0,.548-.141.474.474,0,0,0,.186-.4" fill="#4d4d4d"/>
    <path id="Trazado_192582" data-name="Trazado 192582" d="M54.982,74.646l.064.761a1.909,1.909,0,0,1,.683-.641,1.93,1.93,0,0,1,.944-.226,1.762,1.762,0,0,1,.926.234,1.433,1.433,0,0,1,.585.713,1.929,1.929,0,0,1,.683-.7,1.89,1.89,0,0,1,.976-.247,1.6,1.6,0,0,1,1.322.6A2.96,2.96,0,0,1,61.646,77v3.4h-1.8V77a1.487,1.487,0,0,0-.173-.848.606.606,0,0,0-.518-.232,1.092,1.092,0,0,0-.46.093.983.983,0,0,0-.338.259c0,.059,0,.112.005.156s.006.088.006.131V80.4h-1.8V77a1.518,1.518,0,0,0-.17-.851.616.616,0,0,0-.527-.229,1.053,1.053,0,0,0-.444.093.992.992,0,0,0-.338.259V80.4h-1.8V74.646Z" fill="#4d4d4d"/>
    <path id="Trazado_192583" data-name="Trazado 192583" d="M64.9,77.864l0,.043h.032l.952-3.261h1.915l-2.292,6.612a3.178,3.178,0,0,1-.686,1.052,1.843,1.843,0,0,1-1.335.415,2,2,0,0,1-.383-.029c-.1-.02-.256-.056-.468-.109l.218-1.282.111.024a.423.423,0,0,0,.1.009,1.2,1.2,0,0,0,.622-.125.749.749,0,0,0,.293-.375l.144-.373-1.99-5.819h1.91Z" fill="#4d4d4d"/>
    <path id="Trazado_192584" data-name="Trazado 192584" d="M20.94,91.968h-2.3l-.447,1.5H16.3l2.526-7.744h.963v.005l.005-.005h.963l2.532,7.744H21.392Zm-1.888-1.383h1.473l-.723-2.4H19.77Z" fill="#4d4d4d"/>
    <path id="Trazado_192585" data-name="Trazado 192585" d="M24.881,94.138H23.067l2.644-8.409h1.813Z" fill="#4d4d4d"/>
    <path id="Trazado_192586" data-name="Trazado 192586" d="M34.1,90.861l.011.032a2.489,2.489,0,0,1-.748,2.008,3.171,3.171,0,0,1-2.178.683,3,3,0,0,1-3.175-3.175V88.792a3.189,3.189,0,0,1,.838-2.295,2.915,2.915,0,0,1,2.215-.88,3.416,3.416,0,0,1,2.279.685,2.422,2.422,0,0,1,.785,2l-.016.031h-1.75a1.422,1.422,0,0,0-.3-1.021A1.352,1.352,0,0,0,31.061,87a1.054,1.054,0,0,0-.931.486,2.3,2.3,0,0,0-.324,1.295v1.628a2.172,2.172,0,0,0,.356,1.3,1.188,1.188,0,0,0,1.021.489,1.134,1.134,0,0,0,.891-.309,1.541,1.541,0,0,0,.274-1.031Z" fill="#4d4d4d"/>
    <path id="Trazado_192587" data-name="Trazado 192587" d="M39.364,87.718l.069.809a2.071,2.071,0,0,1,.7-.673,1.8,1.8,0,0,1,.925-.242,1.622,1.622,0,0,1,1.322.574,2.844,2.844,0,0,1,.476,1.824v3.463h-1.8V90a1.319,1.319,0,0,0-.175-.779.6.6,0,0,0-.511-.232,1.274,1.274,0,0,0-.516.1,1.032,1.032,0,0,0-.383.287v4.09H37.678V87.718Z" fill="#4d4d4d"/>
    <path id="Trazado_192588" data-name="Trazado 192588" d="M47.3,92.611a1.9,1.9,0,0,1-.662.721,1.745,1.745,0,0,1-.939.252,1.7,1.7,0,0,1-1.4-.627,3.06,3.06,0,0,1-.508-1.942v-3.3h1.792v3.309a1.744,1.744,0,0,0,.173.925.6.6,0,0,0,.535.25,1.5,1.5,0,0,0,.5-.079,1,1,0,0,0,.372-.24V87.717h1.8v5.755H47.517Z" fill="#4d4d4d"/>
    <path id="Trazado_192589" data-name="Trazado 192589" d="M51.645,87.718l.064.761a1.909,1.909,0,0,1,.683-.641,1.93,1.93,0,0,1,.944-.226,1.762,1.762,0,0,1,.926.234,1.433,1.433,0,0,1,.585.713,1.929,1.929,0,0,1,.683-.7,1.89,1.89,0,0,1,.976-.247,1.6,1.6,0,0,1,1.322.6,2.96,2.96,0,0,1,.481,1.859v3.4h-1.8v-3.4a1.487,1.487,0,0,0-.173-.848.606.606,0,0,0-.518-.232,1.092,1.092,0,0,0-.46.093.983.983,0,0,0-.338.259c0,.059,0,.112.005.156s.006.088.006.131v3.84h-1.8v-3.4a1.518,1.518,0,0,0-.17-.851.616.616,0,0,0-.527-.229,1.053,1.053,0,0,0-.444.093.992.992,0,0,0-.338.259v4.127h-1.8V87.718Z" fill="#4d4d4d"/>
    <path id="Trazado_192590" data-name="Trazado 192590" d="M64.664,90.717a3.49,3.49,0,0,1-.563,2.09,1.932,1.932,0,0,1-1.67.777,1.613,1.613,0,0,1-.819-.2,1.742,1.742,0,0,1-.6-.585l-.108.676H59.335v-8.3h1.8v3.1a1.733,1.733,0,0,1,.556-.492,1.5,1.5,0,0,1,.731-.173,1.912,1.912,0,0,1,1.678.813,3.752,3.752,0,0,1,.566,2.181Zm-1.791-.112a2.967,2.967,0,0,0-.192-1.188.71.71,0,0,0-.713-.423,1.076,1.076,0,0,0-.5.109.82.82,0,0,0-.332.316v2.42a.786.786,0,0,0,.339.272,1.277,1.277,0,0,0,.507.09.714.714,0,0,0,.712-.369,2.625,2.625,0,0,0,.182-1.115Z" fill="#4d4d4d"/>
    <path id="Trazado_192591" data-name="Trazado 192591" d="M68.01,93.584a2.671,2.671,0,0,1-2.05-.792,2.816,2.816,0,0,1-.742-2v-.2a3.225,3.225,0,0,1,.7-2.15,2.491,2.491,0,0,1,2.024-.824,2.334,2.334,0,0,1,1.806.7,2.713,2.713,0,0,1,.641,1.91v.941h-3.3l-.011.032a1.116,1.116,0,0,0,.336.731,1.168,1.168,0,0,0,.84.279,3.63,3.63,0,0,0,.859-.085,5.347,5.347,0,0,0,.784-.271l.431,1.1a3.251,3.251,0,0,1-1,.458,4.616,4.616,0,0,1-1.319.186m-.069-4.59a.742.742,0,0,0-.635.274,1.369,1.369,0,0,0-.237.742l.01.027h1.554V89.9a1.2,1.2,0,0,0-.157-.675.6.6,0,0,0-.535-.229" fill="#4d4d4d"/>
    <path id="Trazado_192592" data-name="Trazado 192592" d="M74.329,89.25l-.585-.006a1,1,0,0,0-.505.114.706.706,0,0,0-.293.323v3.792h-1.8V87.718H72.84l.064.845a1.739,1.739,0,0,1,.478-.7,1.05,1.05,0,0,1,.7-.25,1.407,1.407,0,0,1,.218.016,1.771,1.771,0,0,1,.2.048Z" fill="#4d4d4d"/>
    <path id="Trazado_192593" data-name="Trazado 192593" d="M19.743,100.183a8.979,8.979,0,0,0-1.689,2.588,7.669,7.669,0,0,0-.454,2.758v1.015H15.8v-1.015a7.061,7.061,0,0,1,.564-2.849,9.19,9.19,0,0,1,1.654-2.5H14.142V98.8h5.6Z" fill="#4d4d4d"/>
    <path id="Trazado_192594" data-name="Trazado 192594" d="M23.057,105.272a.987.987,0,0,0,.8-.386,1.643,1.643,0,0,0,.314-1.066v-.447a1.693,1.693,0,0,1-1.346.644,2.055,2.055,0,0,1-1.656-.71,2.845,2.845,0,0,1-.6-1.907,2.675,2.675,0,0,1,.755-1.931,2.6,2.6,0,0,1,1.952-.781,2.517,2.517,0,0,1,1.933.816,3.17,3.17,0,0,1,.758,2.247V103.7a2.8,2.8,0,0,1-2.909,2.957,4.212,4.212,0,0,1-.822-.087,4.625,4.625,0,0,1-.816-.248l.308-1.282a4.054,4.054,0,0,0,.644.178,3.831,3.831,0,0,0,.686.056m.165-2.547a1.245,1.245,0,0,0,.55-.117,1.122,1.122,0,0,0,.4-.32v-.867a1.687,1.687,0,0,0-.253-1,.773.773,0,0,0-.651-.345.75.75,0,0,0-.665.4,1.748,1.748,0,0,0-.245.931,1.836,1.836,0,0,0,.221.96.707.707,0,0,0,.641.365" fill="#4d4d4d"/>
    <path id="Trazado_192595" data-name="Trazado 192595" d="M32.359,100.183a8.979,8.979,0,0,0-1.689,2.588,7.669,7.669,0,0,0-.454,2.758v1.015h-1.8v-1.015a7.061,7.061,0,0,1,.564-2.849,9.19,9.19,0,0,1,1.654-2.5H26.758V98.8h5.6Z" fill="#4d4d4d"/>
    <path id="Trazado_192596" data-name="Trazado 192596" d="M38,103.517h.782v1.394H38v1.632H36.2v-1.632H33.12l-.106-1.107L36.2,98.815V98.8H38Zm-3.441,0H36.2v-2.409l-.031-.006-.2.4Z" fill="#4d4d4d"/>
    <path id="Trazado_192597" data-name="Trazado 192597" d="M42.14,101.922a1.007,1.007,0,0,0,.745-.261.98.98,0,0,0,.26-.722.816.816,0,0,0-.266-.616,1,1,0,0,0-.718-.252.866.866,0,0,0-.577.2.648.648,0,0,0-.236.523H39.6l-.011-.031a1.717,1.717,0,0,1,.726-1.5,2.964,2.964,0,0,1,1.843-.574,3.248,3.248,0,0,1,2.019.577,1.935,1.935,0,0,1,.758,1.635,1.623,1.623,0,0,1-.319.968,2.184,2.184,0,0,1-.867.7,2.025,2.025,0,0,1,.968.688,1.841,1.841,0,0,1,.34,1.12,1.974,1.974,0,0,1-.816,1.673,3.392,3.392,0,0,1-2.083.608,3.214,3.214,0,0,1-1.9-.571,1.844,1.844,0,0,1-.782-1.657l.011-.031h1.75a.833.833,0,0,0,.26.627.921.921,0,0,0,.665.25,1.167,1.167,0,0,0,.8-.269.845.845,0,0,0,.312-.667,1.037,1.037,0,0,0-.3-.822,1.222,1.222,0,0,0-.832-.258h-.851v-1.335Z" fill="#4d4d4d"/>
    <path id="Trazado_192598" data-name="Trazado 192598" d="M48.288,105.272a.987.987,0,0,0,.8-.386,1.643,1.643,0,0,0,.314-1.066v-.447a1.693,1.693,0,0,1-1.346.644,2.055,2.055,0,0,1-1.656-.71,2.845,2.845,0,0,1-.6-1.907,2.675,2.675,0,0,1,.755-1.931,2.6,2.6,0,0,1,1.952-.781,2.517,2.517,0,0,1,1.933.816,3.17,3.17,0,0,1,.758,2.247V103.7a2.8,2.8,0,0,1-2.909,2.957,4.212,4.212,0,0,1-.822-.087,4.625,4.625,0,0,1-.816-.248l.308-1.282a4.054,4.054,0,0,0,.644.178,3.831,3.831,0,0,0,.686.056m.165-2.547a1.245,1.245,0,0,0,.55-.117,1.122,1.122,0,0,0,.4-.32v-.867a1.687,1.687,0,0,0-.253-1,.773.773,0,0,0-.651-.345.75.75,0,0,0-.665.4,1.748,1.748,0,0,0-.245.931,1.836,1.836,0,0,0,.221.96.707.707,0,0,0,.641.365" fill="#4d4d4d"/>
    <path id="Trazado_192599" data-name="Trazado 192599" d="M57.6,106.544H52.22v-1.17l2.382-2.617a5.154,5.154,0,0,0,.7-.968,1.644,1.644,0,0,0,.224-.739,1.153,1.153,0,0,0-.2-.716.768.768,0,0,0-.649-.263.745.745,0,0,0-.652.343,1.537,1.537,0,0,0-.231.875H52.033l-.01-.032a2.41,2.41,0,0,1,.707-1.821,2.606,2.606,0,0,1,1.947-.747,2.824,2.824,0,0,1,1.962.625,2.2,2.2,0,0,1,.692,1.72,2.267,2.267,0,0,1-.383,1.3,16.2,16.2,0,0,1-1.4,1.673l-.942,1.128.011.026H57.6Z" fill="#4d4d4d"/>
    <path id="Trazado_192600" data-name="Trazado 192600" d="M63.728,100.826a1.794,1.794,0,0,1-.282,1,2.027,2.027,0,0,1-.776.7,2.368,2.368,0,0,1,.979.747,1.78,1.78,0,0,1,.361,1.1,2.018,2.018,0,0,1-.776,1.689,3.14,3.14,0,0,1-1.984.6,3.356,3.356,0,0,1-2.066-.606,1.984,1.984,0,0,1-.812-1.686,1.749,1.749,0,0,1,.373-1.1,2.4,2.4,0,0,1,1.021-.747,2.032,2.032,0,0,1-.822-.695,1.742,1.742,0,0,1-.3-1,1.882,1.882,0,0,1,.718-1.582,2.977,2.977,0,0,1,1.872-.555,2.788,2.788,0,0,1,1.8.552,1.918,1.918,0,0,1,.686,1.585m-1.516,3.442a1.046,1.046,0,0,0-.279-.755.92.92,0,0,0-.694-.293,1.05,1.05,0,0,0-.76.293,1,1,0,0,0-.3.755.934.934,0,0,0,.3.731,1.1,1.1,0,0,0,.771.274.94.94,0,0,0,.689-.271.991.991,0,0,0,.273-.734m-.276-3.346a.95.95,0,0,0-.186-.627.63.63,0,0,0-.511-.224.76.76,0,0,0-.577.221.881.881,0,0,0-.21.63.986.986,0,0,0,.215.668.734.734,0,0,0,.583.247.59.59,0,0,0,.5-.247,1.094,1.094,0,0,0,.184-.668" fill="#4d4d4d"/>
    <path id="Trazado_192601" data-name="Trazado 192601" d="M67.372,101.922a1.007,1.007,0,0,0,.745-.261.98.98,0,0,0,.26-.722.816.816,0,0,0-.266-.616,1,1,0,0,0-.718-.252.866.866,0,0,0-.577.2.648.648,0,0,0-.236.523H64.835l-.011-.031a1.717,1.717,0,0,1,.726-1.5,2.964,2.964,0,0,1,1.843-.574,3.248,3.248,0,0,1,2.019.577,1.935,1.935,0,0,1,.758,1.635,1.623,1.623,0,0,1-.319.968,2.184,2.184,0,0,1-.867.7,2.025,2.025,0,0,1,.968.688,1.841,1.841,0,0,1,.34,1.12,1.974,1.974,0,0,1-.816,1.673,3.392,3.392,0,0,1-2.083.608,3.214,3.214,0,0,1-1.9-.571,1.844,1.844,0,0,1-.782-1.657l.011-.031h1.75a.833.833,0,0,0,.26.627.921.921,0,0,0,.665.25,1.167,1.167,0,0,0,.8-.269.845.845,0,0,0,.312-.667,1.037,1.037,0,0,0-.3-.822,1.222,1.222,0,0,0-.832-.258h-.851v-1.335Z" fill="#4d4d4d"/>
    <path id="Trazado_192602" data-name="Trazado 192602" d="M76.456,103.7a3.041,3.041,0,0,1-.739,2.173,2.836,2.836,0,0,1-3.915,0,3.046,3.046,0,0,1-.739-2.173v-2.053a3.059,3.059,0,0,1,.734-2.173,2.832,2.832,0,0,1,3.915,0,3.032,3.032,0,0,1,.744,2.17Zm-1.792-2.175a1.991,1.991,0,0,0-.242-1.08.756.756,0,0,0-.668-.372.741.741,0,0,0-.664.372,2.043,2.043,0,0,0-.234,1.08v2.287a2.056,2.056,0,0,0,.236,1.093.755.755,0,0,0,.673.369.745.745,0,0,0,.662-.369,2.046,2.046,0,0,0,.237-1.093Z" fill="#4d4d4d"/>
    <path id="Trazado_192603" data-name="Trazado 192603" d="M429.436,67.33V59.586h2.835a3.158,3.158,0,0,1,2.287.891,3.04,3.04,0,0,1,.92,2.285v1.394a3.035,3.035,0,0,1-.92,2.286,3.164,3.164,0,0,1-2.287.888Zm1.8-6.361v4.979h1.037a1.233,1.233,0,0,0,1.008-.5,2.018,2.018,0,0,0,.4-1.292v-1.4a2,2,0,0,0-.4-1.282,1.233,1.233,0,0,0-1.008-.5Z" fill="#4d4d4d"/>
    <path id="Trazado_192604" data-name="Trazado 192604" d="M439,67.441a2.671,2.671,0,0,1-2.05-.792,2.816,2.816,0,0,1-.742-2.005v-.2a3.225,3.225,0,0,1,.7-2.15,2.491,2.491,0,0,1,2.024-.824,2.333,2.333,0,0,1,1.806.7,2.713,2.713,0,0,1,.641,1.91v.941h-3.3l-.011.032a1.116,1.116,0,0,0,.336.731,1.168,1.168,0,0,0,.84.279,3.63,3.63,0,0,0,.859-.085,5.348,5.348,0,0,0,.784-.271l.431,1.095a3.251,3.251,0,0,1-1,.458,4.616,4.616,0,0,1-1.319.186m-.069-4.59a.742.742,0,0,0-.635.274,1.369,1.369,0,0,0-.237.742l.01.027h1.554v-.139a1.2,1.2,0,0,0-.157-.675.6.6,0,0,0-.535-.229" fill="#4d4d4d"/>
    <path id="Trazado_192605" data-name="Trazado 192605" d="M445.462,67.325a2.169,2.169,0,0,1-.173-.41,3.126,3.126,0,0,1-.109-.479,2.214,2.214,0,0,1-.577.732,1.4,1.4,0,0,1-.9.273,1.989,1.989,0,0,1-1.407-.465,1.644,1.644,0,0,1-.5-1.268,1.535,1.535,0,0,1,.644-1.322,3.337,3.337,0,0,1,1.952-.465h.739v-.409a.817.817,0,0,0-.176-.565.682.682,0,0,0-.537-.2.654.654,0,0,0-.465.145.609.609,0,0,0-.152.455l-1.744,0-.011-.033A1.5,1.5,0,0,1,442.7,62a2.943,2.943,0,0,1,1.832-.529,2.681,2.681,0,0,1,1.732.532,1.837,1.837,0,0,1,.662,1.52v2.171a4.385,4.385,0,0,0,.077.851,4.505,4.505,0,0,0,.231.787ZM444.2,66.16a1.1,1.1,0,0,0,.582-.154.884.884,0,0,0,.354-.367v-.761h-.723a.813.813,0,0,0-.623.208.745.745,0,0,0-.191.526.512.512,0,0,0,.168.4.624.624,0,0,0,.433.151" fill="#4d4d4d"/>
    <path id="Trazado_192606" data-name="Trazado 192606" d="M451.094,63.107l-.585-.006a1,1,0,0,0-.505.114.706.706,0,0,0-.293.323V67.33h-1.8V61.575h1.692l.064.845a1.739,1.739,0,0,1,.478-.7,1.05,1.05,0,0,1,.7-.25,1.408,1.408,0,0,1,.218.016,1.772,1.772,0,0,1,.2.048Z" fill="#4d4d4d"/>
    <path id="Trazado_192607" data-name="Trazado 192607" d="M457.636,59.586h1.8v5.261a2.506,2.506,0,0,1-.729,1.89,2.573,2.573,0,0,1-1.867.7,3.169,3.169,0,0,1-2.071-.626,2.16,2.16,0,0,1-.737-1.825l.016-.032H455.8a1.091,1.091,0,0,0,.287.835,1.059,1.059,0,0,0,.75.266.674.674,0,0,0,.575-.322,1.539,1.539,0,0,0,.223-.89Z" fill="#4d4d4d"/>
    <path id="Trazado_192608" data-name="Trazado 192608" d="M460.311,64.4a3.045,3.045,0,0,1,.734-2.115,2.984,2.984,0,0,1,4.1,0,3.045,3.045,0,0,1,.734,2.115v.111a3.04,3.04,0,0,1-.734,2.117,2.99,2.99,0,0,1-4.1,0,3.04,3.04,0,0,1-.734-2.117Zm1.8.111a2.379,2.379,0,0,0,.226,1.136.8.8,0,0,0,.769.412.8.8,0,0,0,.755-.414,2.372,2.372,0,0,0,.229-1.134V64.4a2.374,2.374,0,0,0-.229-1.125.8.8,0,0,0-.766-.423.788.788,0,0,0-.758.426,2.386,2.386,0,0,0-.226,1.122Z" fill="#4d4d4d"/>
    <path id="Trazado_192609" data-name="Trazado 192609" d="M468.417,62.288a1.914,1.914,0,0,1,.636-.6,1.635,1.635,0,0,1,.827-.215,1.722,1.722,0,0,1,1.4.622,3.015,3.015,0,0,1,.51,1.93V67.33H470V64.011a1.721,1.721,0,0,0-.171-.91.582.582,0,0,0-.515-.25,1.447,1.447,0,0,0-.527.088.963.963,0,0,0-.367.247V67.33h-1.8v-8.3h1.8Z" fill="#4d4d4d"/>
    <path id="Trazado_192610" data-name="Trazado 192610" d="M474.448,61.575l.069.809a2.071,2.071,0,0,1,.7-.673,1.8,1.8,0,0,1,.925-.242,1.622,1.622,0,0,1,1.322.574,2.843,2.843,0,0,1,.476,1.824V67.33h-1.8V63.862a1.319,1.319,0,0,0-.175-.779.6.6,0,0,0-.511-.232,1.274,1.274,0,0,0-.516.1,1.032,1.032,0,0,0-.383.287v4.09h-1.792V61.575Z" fill="#4d4d4d"/>
    <path id="Trazado_192611" data-name="Trazado 192611" d="M431.085,73.216v1.431h.91v1.244h-.91v2.638a.648.648,0,0,0,.125.445.438.438,0,0,0,.338.136,1.8,1.8,0,0,0,.22-.011c.055-.008.125-.022.211-.043l.122,1.33a4.49,4.49,0,0,1-.489.1,4.05,4.05,0,0,1-.516.029,1.8,1.8,0,0,1-1.349-.473,2.091,2.091,0,0,1-.46-1.5V75.891h-.8V74.647h.8V73.216Z" fill="#4d4d4d"/>
    <path id="Trazado_192612" data-name="Trazado 192612" d="M434.611,75.359a1.914,1.914,0,0,1,.636-.6,1.635,1.635,0,0,1,.827-.215,1.722,1.722,0,0,1,1.4.622,3.015,3.015,0,0,1,.51,1.93V80.4h-1.8V77.082a1.721,1.721,0,0,0-.171-.91.582.582,0,0,0-.515-.25,1.447,1.447,0,0,0-.527.088.963.963,0,0,0-.367.247V80.4h-1.8V72.1h1.8Z" fill="#4d4d4d"/>
    <path id="Trazado_192613" data-name="Trazado 192613" d="M440.871,73.311h-1.8V72.1h1.8Zm0,7.09h-1.8V74.646h1.8Z" fill="#4d4d4d"/>
    <path id="Trazado_192614" data-name="Trazado 192614" d="M444.972,78.784a.468.468,0,0,0-.242-.38,2.631,2.631,0,0,0-.88-.3,3.482,3.482,0,0,1-1.516-.608,1.378,1.378,0,0,1-.511-1.136,1.618,1.618,0,0,1,.639-1.29,2.627,2.627,0,0,1,1.728-.529,2.964,2.964,0,0,1,1.83.514,1.508,1.508,0,0,1,.649,1.327l-.011.031h-1.745a.711.711,0,0,0-.17-.516.751.751,0,0,0-.558-.175.732.732,0,0,0-.474.154.485.485,0,0,0-.191.393.467.467,0,0,0,.221.389,2.5,2.5,0,0,0,.891.287,3.586,3.586,0,0,1,1.563.619,1.423,1.423,0,0,1,.506,1.168,1.526,1.526,0,0,1-.689,1.28,3.023,3.023,0,0,1-1.822.5,2.733,2.733,0,0,1-1.859-.6,1.639,1.639,0,0,1-.651-1.329l.01-.033h1.628a.721.721,0,0,0,.247.591,1.093,1.093,0,0,0,.673.181.9.9,0,0,0,.548-.141.474.474,0,0,0,.186-.4" fill="#4d4d4d"/>
    <path id="Trazado_192615" data-name="Trazado 192615" d="M452.142,73.311h-1.8V72.1h1.8Zm0,7.09h-1.8V74.646h1.8Z" fill="#4d4d4d"/>
    <path id="Trazado_192616" data-name="Trazado 192616" d="M456.242,78.784A.468.468,0,0,0,456,78.4a2.631,2.631,0,0,0-.88-.3A3.482,3.482,0,0,1,453.6,77.5a1.378,1.378,0,0,1-.511-1.136,1.618,1.618,0,0,1,.639-1.29,2.627,2.627,0,0,1,1.728-.529,2.964,2.964,0,0,1,1.83.514,1.508,1.508,0,0,1,.649,1.327l-.011.031h-1.745a.71.71,0,0,0-.17-.516.751.751,0,0,0-.558-.175.732.732,0,0,0-.474.154.485.485,0,0,0-.191.393.467.467,0,0,0,.221.389,2.5,2.5,0,0,0,.891.287,3.586,3.586,0,0,1,1.563.619,1.423,1.423,0,0,1,.506,1.168,1.526,1.526,0,0,1-.689,1.28,3.023,3.023,0,0,1-1.822.5,2.733,2.733,0,0,1-1.859-.6,1.639,1.639,0,0,1-.651-1.329l.01-.033h1.628a.721.721,0,0,0,.247.591,1.093,1.093,0,0,0,.673.181.9.9,0,0,0,.548-.141.474.474,0,0,0,.186-.4" fill="#4d4d4d"/>
    <path id="Trazado_192617" data-name="Trazado 192617" d="M463.22,74.646l.064.761a1.909,1.909,0,0,1,.683-.641,1.93,1.93,0,0,1,.944-.226,1.762,1.762,0,0,1,.926.234,1.433,1.433,0,0,1,.585.713,1.929,1.929,0,0,1,.683-.7,1.89,1.89,0,0,1,.976-.247,1.6,1.6,0,0,1,1.322.6A2.96,2.96,0,0,1,469.884,77v3.4h-1.8V77a1.487,1.487,0,0,0-.173-.848.606.606,0,0,0-.518-.232,1.092,1.092,0,0,0-.46.093.982.982,0,0,0-.338.259c0,.059,0,.112,0,.156s.006.088.006.131V80.4h-1.8V77a1.518,1.518,0,0,0-.17-.851.616.616,0,0,0-.527-.229,1.053,1.053,0,0,0-.444.093.992.992,0,0,0-.338.259V80.4h-1.8V74.646Z" fill="#4d4d4d"/>
    <path id="Trazado_192618" data-name="Trazado 192618" d="M473.14,77.864l0,.043h.032l.952-3.261h1.915l-2.292,6.612a3.178,3.178,0,0,1-.686,1.052,1.843,1.843,0,0,1-1.335.415,2,2,0,0,1-.383-.029c-.1-.02-.256-.056-.468-.109l.218-1.282.111.024a.422.422,0,0,0,.1.009,1.2,1.2,0,0,0,.622-.125.749.749,0,0,0,.293-.375l.144-.373-1.99-5.819h1.91Z" fill="#4d4d4d"/>
    <path id="Trazado_192619" data-name="Trazado 192619" d="M429.178,91.968h-2.3l-.447,1.5h-1.893l2.526-7.744h.963v.005l.005-.005h.963l2.532,7.744H429.63Zm-1.888-1.383h1.473l-.723-2.4h-.032Z" fill="#4d4d4d"/>
    <path id="Trazado_192620" data-name="Trazado 192620" d="M433.119,94.138h-1.814l2.644-8.409h1.813Z" fill="#4d4d4d"/>
    <path id="Trazado_192621" data-name="Trazado 192621" d="M442.337,90.861l.011.032A2.489,2.489,0,0,1,441.6,92.9a3.171,3.171,0,0,1-2.178.683,3,3,0,0,1-3.175-3.175V88.792a3.189,3.189,0,0,1,.838-2.295,2.915,2.915,0,0,1,2.215-.88,3.416,3.416,0,0,1,2.279.685,2.422,2.422,0,0,1,.785,2l-.016.031H440.6a1.423,1.423,0,0,0-.3-1.021,1.352,1.352,0,0,0-1-.308,1.054,1.054,0,0,0-.931.486,2.3,2.3,0,0,0-.324,1.295v1.628a2.172,2.172,0,0,0,.356,1.3,1.188,1.188,0,0,0,1.021.489,1.134,1.134,0,0,0,.891-.309,1.541,1.541,0,0,0,.274-1.031Z" fill="#4d4d4d"/>
    <path id="Trazado_192622" data-name="Trazado 192622" d="M447.6,87.718l.069.809a2.071,2.071,0,0,1,.7-.673,1.8,1.8,0,0,1,.925-.242,1.622,1.622,0,0,1,1.322.574,2.843,2.843,0,0,1,.476,1.824v3.463h-1.8V90a1.319,1.319,0,0,0-.175-.779.6.6,0,0,0-.511-.232,1.274,1.274,0,0,0-.516.1,1.032,1.032,0,0,0-.383.287v4.09h-1.792V87.718Z" fill="#4d4d4d"/>
    <path id="Trazado_192623" data-name="Trazado 192623" d="M455.538,92.611a1.9,1.9,0,0,1-.662.721,1.745,1.745,0,0,1-.939.252,1.7,1.7,0,0,1-1.4-.627,3.06,3.06,0,0,1-.508-1.942v-3.3h1.792v3.309a1.744,1.744,0,0,0,.173.925.6.6,0,0,0,.535.25,1.5,1.5,0,0,0,.5-.079,1,1,0,0,0,.372-.24V87.717h1.8v5.755h-1.447Z" fill="#4d4d4d"/>
    <path id="Trazado_192624" data-name="Trazado 192624" d="M459.883,87.718l.064.761a1.909,1.909,0,0,1,.683-.641,1.93,1.93,0,0,1,.944-.226,1.762,1.762,0,0,1,.926.234,1.433,1.433,0,0,1,.585.713,1.929,1.929,0,0,1,.683-.7,1.89,1.89,0,0,1,.976-.247,1.6,1.6,0,0,1,1.322.6,2.96,2.96,0,0,1,.481,1.859v3.4h-1.8v-3.4a1.487,1.487,0,0,0-.173-.848.606.606,0,0,0-.518-.232,1.092,1.092,0,0,0-.46.093.982.982,0,0,0-.338.259c0,.059,0,.112.005.156s.006.088.006.131v3.84h-1.8v-3.4a1.517,1.517,0,0,0-.17-.851.616.616,0,0,0-.527-.229,1.053,1.053,0,0,0-.444.093.992.992,0,0,0-.338.259v4.127h-1.8V87.718Z" fill="#4d4d4d"/>
    <path id="Trazado_192625" data-name="Trazado 192625" d="M472.9,90.717a3.49,3.49,0,0,1-.563,2.09,1.932,1.932,0,0,1-1.67.777,1.61,1.61,0,0,1-.819-.2,1.753,1.753,0,0,1-.6-.585l-.107.676h-1.569v-8.3h1.8v3.1a1.723,1.723,0,0,1,.556-.492,1.491,1.491,0,0,1,.731-.173,1.913,1.913,0,0,1,1.678.813,3.752,3.752,0,0,1,.566,2.181Zm-1.792-.112a2.97,2.97,0,0,0-.191-1.188.711.711,0,0,0-.713-.423,1.076,1.076,0,0,0-.5.109.808.808,0,0,0-.332.316v2.42a.789.789,0,0,0,.338.272,1.286,1.286,0,0,0,.508.09.714.714,0,0,0,.712-.369,2.643,2.643,0,0,0,.181-1.115Z" fill="#4d4d4d"/>
    <path id="Trazado_192626" data-name="Trazado 192626" d="M476.249,93.584a2.671,2.671,0,0,1-2.05-.792,2.816,2.816,0,0,1-.742-2v-.2a3.225,3.225,0,0,1,.7-2.15,2.491,2.491,0,0,1,2.024-.824,2.333,2.333,0,0,1,1.806.7,2.713,2.713,0,0,1,.641,1.91v.941h-3.3l-.011.032a1.116,1.116,0,0,0,.336.731,1.168,1.168,0,0,0,.84.279,3.63,3.63,0,0,0,.859-.085,5.348,5.348,0,0,0,.784-.271l.431,1.1a3.251,3.251,0,0,1-1,.458,4.616,4.616,0,0,1-1.319.186m-.069-4.59a.742.742,0,0,0-.635.274,1.369,1.369,0,0,0-.237.742l.01.027h1.554V89.9a1.2,1.2,0,0,0-.157-.675.6.6,0,0,0-.535-.229" fill="#4d4d4d"/>
    <path id="Trazado_192627" data-name="Trazado 192627" d="M482.567,89.25l-.585-.006a1,1,0,0,0-.505.114.706.706,0,0,0-.293.323v3.792h-1.8V87.718h1.692l.064.845a1.739,1.739,0,0,1,.478-.7,1.05,1.05,0,0,1,.7-.25,1.408,1.408,0,0,1,.218.016,1.772,1.772,0,0,1,.2.048Z" fill="#4d4d4d"/>
    <path id="Trazado_192628" data-name="Trazado 192628" d="M427.982,100.183a8.964,8.964,0,0,0-1.69,2.588,7.692,7.692,0,0,0-.453,2.758v1.015h-1.8v-1.015a7.061,7.061,0,0,1,.564-2.849,9.19,9.19,0,0,1,1.654-2.5H422.38V98.8h5.6Z" fill="#4d4d4d"/>
    <path id="Trazado_192629" data-name="Trazado 192629" d="M431.3,105.272a.987.987,0,0,0,.8-.386,1.643,1.643,0,0,0,.314-1.066v-.447a1.693,1.693,0,0,1-1.346.644,2.055,2.055,0,0,1-1.656-.71,2.845,2.845,0,0,1-.6-1.907,2.675,2.675,0,0,1,.755-1.931,2.6,2.6,0,0,1,1.952-.781,2.517,2.517,0,0,1,1.933.816,3.17,3.17,0,0,1,.758,2.247V103.7a2.8,2.8,0,0,1-2.909,2.957,4.213,4.213,0,0,1-.822-.087,4.624,4.624,0,0,1-.816-.248l.308-1.282a4.054,4.054,0,0,0,.644.178,3.831,3.831,0,0,0,.686.056m.165-2.547a1.245,1.245,0,0,0,.55-.117,1.122,1.122,0,0,0,.4-.32v-.867a1.687,1.687,0,0,0-.253-1,.773.773,0,0,0-.651-.345.75.75,0,0,0-.665.4,1.748,1.748,0,0,0-.245.931,1.836,1.836,0,0,0,.221.96.707.707,0,0,0,.641.365" fill="#4d4d4d"/>
    <path id="Trazado_192630" data-name="Trazado 192630" d="M440.6,100.183a8.979,8.979,0,0,0-1.689,2.588,7.67,7.67,0,0,0-.454,2.758v1.015h-1.8v-1.015a7.061,7.061,0,0,1,.564-2.849,9.19,9.19,0,0,1,1.654-2.5H435V98.8h5.6Z" fill="#4d4d4d"/>
    <path id="Trazado_192631" data-name="Trazado 192631" d="M446.235,103.517h.782v1.394h-.782v1.632h-1.8v-1.632h-3.079l-.106-1.107,3.185-4.989V98.8h1.8Zm-3.441,0h1.643v-2.409l-.031-.006-.2.4Z" fill="#4d4d4d"/>
    <path id="Trazado_192632" data-name="Trazado 192632" d="M450.379,101.922a1.007,1.007,0,0,0,.745-.261.98.98,0,0,0,.26-.722.816.816,0,0,0-.266-.616,1,1,0,0,0-.718-.252.866.866,0,0,0-.577.2.648.648,0,0,0-.236.523h-1.745l-.011-.031a1.717,1.717,0,0,1,.726-1.5,2.964,2.964,0,0,1,1.843-.574,3.248,3.248,0,0,1,2.019.577,1.935,1.935,0,0,1,.758,1.635,1.623,1.623,0,0,1-.319.968,2.184,2.184,0,0,1-.867.7,2.025,2.025,0,0,1,.968.688,1.841,1.841,0,0,1,.34,1.12,1.974,1.974,0,0,1-.816,1.673,3.392,3.392,0,0,1-2.083.608,3.214,3.214,0,0,1-1.9-.571,1.844,1.844,0,0,1-.782-1.657l.011-.031h1.75a.833.833,0,0,0,.26.627.921.921,0,0,0,.665.25,1.167,1.167,0,0,0,.8-.269.844.844,0,0,0,.312-.667,1.037,1.037,0,0,0-.3-.822,1.222,1.222,0,0,0-.832-.258h-.851v-1.335Z" fill="#4d4d4d"/>
    <path id="Trazado_192633" data-name="Trazado 192633" d="M456.527,105.272a.987.987,0,0,0,.8-.386,1.643,1.643,0,0,0,.314-1.066v-.447a1.693,1.693,0,0,1-1.346.644,2.055,2.055,0,0,1-1.656-.71,2.845,2.845,0,0,1-.6-1.907,2.675,2.675,0,0,1,.755-1.931,2.6,2.6,0,0,1,1.952-.781,2.517,2.517,0,0,1,1.933.816,3.17,3.17,0,0,1,.758,2.247V103.7a2.8,2.8,0,0,1-2.909,2.957,4.213,4.213,0,0,1-.822-.087,4.625,4.625,0,0,1-.816-.248l.308-1.282a4.054,4.054,0,0,0,.644.178,3.831,3.831,0,0,0,.686.056m.165-2.547a1.245,1.245,0,0,0,.55-.117,1.122,1.122,0,0,0,.4-.32v-.867a1.687,1.687,0,0,0-.253-1,.773.773,0,0,0-.651-.345.75.75,0,0,0-.665.4,1.748,1.748,0,0,0-.245.931,1.836,1.836,0,0,0,.221.96.707.707,0,0,0,.641.365" fill="#4d4d4d"/>
    <path id="Trazado_192634" data-name="Trazado 192634" d="M465.84,106.544h-5.382v-1.17l2.382-2.617a5.153,5.153,0,0,0,.7-.968,1.644,1.644,0,0,0,.224-.739,1.153,1.153,0,0,0-.2-.716.768.768,0,0,0-.649-.263.745.745,0,0,0-.652.343,1.537,1.537,0,0,0-.231.875h-1.761l-.01-.032a2.41,2.41,0,0,1,.707-1.821,2.606,2.606,0,0,1,1.947-.747,2.824,2.824,0,0,1,1.962.625,2.2,2.2,0,0,1,.692,1.72,2.267,2.267,0,0,1-.383,1.3,16.2,16.2,0,0,1-1.4,1.673l-.942,1.128.011.026h2.989Z" fill="#4d4d4d"/>
    <path id="Trazado_192635" data-name="Trazado 192635" d="M471.967,100.826a1.794,1.794,0,0,1-.282,1,2.027,2.027,0,0,1-.776.7,2.368,2.368,0,0,1,.979.747,1.78,1.78,0,0,1,.361,1.1,2.018,2.018,0,0,1-.776,1.689,3.14,3.14,0,0,1-1.984.6,3.356,3.356,0,0,1-2.066-.606,1.984,1.984,0,0,1-.812-1.686,1.749,1.749,0,0,1,.373-1.1,2.4,2.4,0,0,1,1.021-.747,2.032,2.032,0,0,1-.822-.695,1.742,1.742,0,0,1-.3-1,1.882,1.882,0,0,1,.718-1.582,2.977,2.977,0,0,1,1.872-.555,2.788,2.788,0,0,1,1.8.552,1.918,1.918,0,0,1,.686,1.585m-1.516,3.442a1.046,1.046,0,0,0-.279-.755.92.92,0,0,0-.694-.293,1.05,1.05,0,0,0-.76.293,1,1,0,0,0-.3.755.934.934,0,0,0,.3.731,1.1,1.1,0,0,0,.771.274.94.94,0,0,0,.689-.271.991.991,0,0,0,.273-.734m-.276-3.346a.95.95,0,0,0-.186-.627.63.63,0,0,0-.511-.224.76.76,0,0,0-.577.221.881.881,0,0,0-.21.63.986.986,0,0,0,.215.668.734.734,0,0,0,.583.247.59.59,0,0,0,.5-.247,1.094,1.094,0,0,0,.184-.668" fill="#4d4d4d"/>
    <path id="Trazado_192636" data-name="Trazado 192636" d="M475.611,101.922a1,1,0,0,0,.744-.261.976.976,0,0,0,.26-.722.816.816,0,0,0-.266-.616,1,1,0,0,0-.717-.252.867.867,0,0,0-.578.2.648.648,0,0,0-.236.523h-1.745l-.01-.031a1.716,1.716,0,0,1,.725-1.5,2.965,2.965,0,0,1,1.844-.574,3.243,3.243,0,0,1,2.018.577,1.935,1.935,0,0,1,.758,1.635,1.623,1.623,0,0,1-.319.968,2.188,2.188,0,0,1-.866.7,2.017,2.017,0,0,1,.967.688,1.834,1.834,0,0,1,.34,1.12,1.974,1.974,0,0,1-.816,1.673,3.391,3.391,0,0,1-2.082.608,3.215,3.215,0,0,1-1.9-.571,1.844,1.844,0,0,1-.782-1.657l.011-.031h1.75a.833.833,0,0,0,.26.627.924.924,0,0,0,.666.25,1.166,1.166,0,0,0,.794-.269.845.845,0,0,0,.312-.667,1.037,1.037,0,0,0-.3-.822,1.221,1.221,0,0,0-.831-.258h-.852v-1.335Z" fill="#4d4d4d"/>
    <path id="Trazado_192637" data-name="Trazado 192637" d="M484.694,103.7a3.041,3.041,0,0,1-.739,2.173,2.836,2.836,0,0,1-3.915,0,3.046,3.046,0,0,1-.739-2.173v-2.053a3.059,3.059,0,0,1,.734-2.173,2.832,2.832,0,0,1,3.915,0,3.032,3.032,0,0,1,.744,2.17Zm-1.792-2.175a1.99,1.99,0,0,0-.242-1.08.756.756,0,0,0-.668-.372.741.741,0,0,0-.664.372,2.043,2.043,0,0,0-.234,1.08v2.287a2.056,2.056,0,0,0,.236,1.093.755.755,0,0,0,.673.369.745.745,0,0,0,.662-.369,2.046,2.046,0,0,0,.237-1.093Z" fill="#4d4d4d"/>
    <path id="Trazado_192638" data-name="Trazado 192638" d="M230.334,66.262a3.247,3.247,0,0,1-1.138.835,4.457,4.457,0,0,1-1.888.346,3.2,3.2,0,0,1-2.341-.883,3.072,3.072,0,0,1-.9-2.292V62.651a3.121,3.121,0,0,1,.875-2.287,3.026,3.026,0,0,1,2.253-.888,3.322,3.322,0,0,1,2.242.662,2.206,2.206,0,0,1,.731,1.811l-.011.032h-1.686a1.091,1.091,0,0,0-.3-.846,1.316,1.316,0,0,0-.915-.276,1.216,1.216,0,0,0-1.01.494,2.046,2.046,0,0,0-.383,1.287v1.628a2.074,2.074,0,0,0,.38,1.3,1.273,1.273,0,0,0,1.067.491,3.07,3.07,0,0,0,.779-.079,1.252,1.252,0,0,0,.449-.213V64.385h-1.372V63.194h3.17Z" fill="#4d4d4d"/>
    <path id="Trazado_192639" data-name="Trazado 192639" d="M234.775,66.47a1.9,1.9,0,0,1-.662.721,1.745,1.745,0,0,1-.939.252,1.7,1.7,0,0,1-1.4-.627,3.06,3.06,0,0,1-.508-1.942v-3.3h1.792v3.309a1.745,1.745,0,0,0,.173.925.6.6,0,0,0,.535.25,1.5,1.5,0,0,0,.505-.079,1,1,0,0,0,.372-.24V61.576h1.8v5.755h-1.447Z" fill="#4d4d4d"/>
    <path id="Trazado_192640" data-name="Trazado 192640" d="M240.9,66.47a1.9,1.9,0,0,1-.662.721,1.745,1.745,0,0,1-.939.252,1.7,1.7,0,0,1-1.4-.627,3.06,3.06,0,0,1-.508-1.942v-3.3h1.792v3.309a1.744,1.744,0,0,0,.173.925.6.6,0,0,0,.535.25,1.5,1.5,0,0,0,.505-.079,1,1,0,0,0,.372-.24V61.576h1.8v5.755h-1.447Z" fill="#4d4d4d"/>
    <path id="Trazado_192641" data-name="Trazado 192641" d="M245.434,60.241h-1.8V59.034h1.8Zm0,7.09h-1.8V61.576h1.8Z" fill="#4d4d4d"/>
    <path id="Trazado_192642" data-name="Trazado 192642" d="M248.279,62.289a1.914,1.914,0,0,1,.636-.6,1.635,1.635,0,0,1,.827-.215,1.722,1.722,0,0,1,1.4.622,3.015,3.015,0,0,1,.51,1.93v3.309h-1.8V64.012a1.722,1.722,0,0,0-.171-.91.582.582,0,0,0-.515-.25,1.447,1.447,0,0,0-.527.088.963.963,0,0,0-.367.247v4.144h-1.8v-8.3h1.8Z" fill="#4d4d4d"/>
    <path id="Trazado_192643" data-name="Trazado 192643" d="M254.539,60.241h-1.8V59.034h1.8Zm0,7.09h-1.8V61.576h1.8Z" fill="#4d4d4d"/>
    <path id="Trazado_192644" data-name="Trazado 192644" d="M256.028,67.331V62.82h-.83V61.576h.83v-.6a1.94,1.94,0,0,1,.6-1.523,2.44,2.44,0,0,1,1.686-.535,3.1,3.1,0,0,1,.417.029c.14.02.3.047.471.083l-.133,1.324c-.1-.017-.186-.031-.261-.04a2.544,2.544,0,0,0-.271-.013.717.717,0,0,0-.521.175.667.667,0,0,0-.181.5v.6h1.138V62.82h-1.138v4.511Z" fill="#4d4d4d"/>
    <path id="Trazado_192645" data-name="Trazado 192645" d="M261.289,62.289a1.9,1.9,0,0,1,.635-.6,1.635,1.635,0,0,1,.827-.215,1.722,1.722,0,0,1,1.4.622,3.015,3.015,0,0,1,.51,1.93v3.309h-1.8V64.012a1.733,1.733,0,0,0-.17-.91.582.582,0,0,0-.516-.25,1.45,1.45,0,0,0-.527.088.959.959,0,0,0-.366.247v4.144h-1.8v-8.3h1.8Z" fill="#4d4d4d"/>
    <path id="Trazado_192646" data-name="Trazado 192646" d="M265.426,64.4a3.045,3.045,0,0,1,.734-2.115,2.984,2.984,0,0,1,4.1,0,3.045,3.045,0,0,1,.734,2.115v.111a3.04,3.04,0,0,1-.734,2.117,2.99,2.99,0,0,1-4.1,0,3.04,3.04,0,0,1-.734-2.117Zm1.8.111a2.379,2.379,0,0,0,.226,1.136.8.8,0,0,0,.769.412.8.8,0,0,0,.755-.414,2.372,2.372,0,0,0,.229-1.134V64.4a2.374,2.374,0,0,0-.229-1.125.8.8,0,0,0-.766-.423.788.788,0,0,0-.758.426,2.386,2.386,0,0,0-.226,1.122Z" fill="#4d4d4d"/>
    <path id="Trazado_192647" data-name="Trazado 192647" d="M272.176,67.331V62.82h-.83V61.576h.83v-.6a1.94,1.94,0,0,1,.6-1.523,2.44,2.44,0,0,1,1.686-.535,3.1,3.1,0,0,1,.417.029c.14.02.3.047.471.083l-.133,1.324c-.1-.017-.186-.031-.261-.04a2.545,2.545,0,0,0-.271-.013.717.717,0,0,0-.521.175.667.667,0,0,0-.181.5v.6h1.138V62.82h-1.138v4.511Z" fill="#4d4d4d"/>
    <path id="Trazado_192648" data-name="Trazado 192648" d="M277.346,61.576l.069.809a2.071,2.071,0,0,1,.7-.673,1.8,1.8,0,0,1,.925-.242,1.622,1.622,0,0,1,1.322.574,2.844,2.844,0,0,1,.476,1.824v3.463h-1.8V63.863a1.319,1.319,0,0,0-.175-.779.6.6,0,0,0-.511-.232,1.274,1.274,0,0,0-.516.1,1.032,1.032,0,0,0-.383.287v4.09H275.66V61.576Z" fill="#4d4d4d"/>
    <path id="Trazado_192649" data-name="Trazado 192649" d="M229.626,78.115H229.3V80.4h-1.8v-8.3h1.8v4.654h.255l1.212-2.112h2.059l-1.771,2.6L233.12,80.4h-2.047Z" fill="#4d4d4d"/>
    <path id="Trazado_192650" data-name="Trazado 192650" d="M238.785,77.647a3.49,3.49,0,0,1-.563,2.09,1.932,1.932,0,0,1-1.67.777,1.61,1.61,0,0,1-.819-.2,1.753,1.753,0,0,1-.6-.585l-.107.676h-1.569v-8.3h1.8v3.1a1.723,1.723,0,0,1,.556-.492,1.491,1.491,0,0,1,.731-.173,1.913,1.913,0,0,1,1.678.813,3.752,3.752,0,0,1,.566,2.181Zm-1.792-.112a2.969,2.969,0,0,0-.191-1.188.711.711,0,0,0-.713-.423,1.076,1.076,0,0,0-.5.109.808.808,0,0,0-.332.316v2.42a.789.789,0,0,0,.338.272,1.286,1.286,0,0,0,.508.09.714.714,0,0,0,.712-.369,2.643,2.643,0,0,0,.181-1.115Z" fill="#4d4d4d"/>
    <path id="Trazado_192651" data-name="Trazado 192651" d="M241.46,73.312h-1.8V72.105h1.8Zm0,7.09h-1.8V74.647h1.8Z" fill="#4d4d4d"/>
    <path id="Trazado_192652" data-name="Trazado 192652" d="M242.95,80.4V75.891h-.83V74.647h.83v-.6a1.94,1.94,0,0,1,.6-1.523,2.44,2.44,0,0,1,1.686-.535,3.1,3.1,0,0,1,.417.029c.14.02.3.047.471.083l-.133,1.324c-.1-.017-.186-.031-.261-.04a2.544,2.544,0,0,0-.271-.013.717.717,0,0,0-.521.175.667.667,0,0,0-.181.5v.6h1.138v1.244h-1.138V80.4Z" fill="#4d4d4d"/>
    <path id="Trazado_192653" data-name="Trazado 192653" d="M248.588,78.115h-.324V80.4h-1.8v-8.3h1.8v4.654h.255l1.212-2.112h2.059l-1.771,2.6,2.063,3.159h-2.047Z" fill="#4d4d4d"/>
    <path id="Trazado_192654" data-name="Trazado 192654" d="M252.8,80.4V75.891h-.83V74.647h.83v-.6a1.94,1.94,0,0,1,.6-1.523,2.44,2.44,0,0,1,1.686-.535,3.1,3.1,0,0,1,.417.029c.14.02.3.047.471.083l-.133,1.324c-.1-.017-.186-.031-.261-.04a2.543,2.543,0,0,0-.271-.013.717.717,0,0,0-.521.175.667.667,0,0,0-.181.5v.6h1.138v1.244h-1.138V80.4Z" fill="#4d4d4d"/>
    <path id="Trazado_192655" data-name="Trazado 192655" d="M257.975,74.647l.069.809a2.071,2.071,0,0,1,.7-.673,1.8,1.8,0,0,1,.925-.242,1.622,1.622,0,0,1,1.322.574,2.844,2.844,0,0,1,.476,1.824V80.4h-1.8V76.934a1.319,1.319,0,0,0-.175-.779.6.6,0,0,0-.511-.232,1.274,1.274,0,0,0-.516.1,1.032,1.032,0,0,0-.383.287V80.4h-1.792V74.647Z" fill="#4d4d4d"/>
    <path id="Trazado_192656" data-name="Trazado 192656" d="M264.1,74.647l.069.809a2.071,2.071,0,0,1,.7-.673,1.8,1.8,0,0,1,.925-.242,1.622,1.622,0,0,1,1.322.574,2.843,2.843,0,0,1,.476,1.824V80.4h-1.8V76.934a1.319,1.319,0,0,0-.175-.779.6.6,0,0,0-.511-.232,1.274,1.274,0,0,0-.516.1,1.032,1.032,0,0,0-.383.287V80.4h-1.792V74.647Z" fill="#4d4d4d"/>
    <path id="Trazado_192657" data-name="Trazado 192657" d="M268.953,80.4V75.891h-.83V74.647h.83v-.6a1.94,1.94,0,0,1,.6-1.523,2.44,2.44,0,0,1,1.686-.535,3.1,3.1,0,0,1,.417.029c.14.02.3.047.471.083l-.133,1.324c-.1-.017-.186-.031-.261-.04a2.544,2.544,0,0,0-.271-.013.717.717,0,0,0-.521.175.667.667,0,0,0-.181.5v.6h1.138v1.244h-1.138V80.4Z" fill="#4d4d4d"/>
    <path id="Trazado_192658" data-name="Trazado 192658" d="M274.591,78.115h-.324V80.4h-1.8v-8.3h1.8v4.654h.255l1.212-2.112h2.059l-1.771,2.6,2.063,3.159h-2.047Z" fill="#4d4d4d"/>
    <path id="Trazado_192659" data-name="Trazado 192659" d="M236.059,93.474h-1.792L231.432,88.6l-.032.011v4.861h-1.8V85.73h1.8l2.835,4.867.032-.011V85.73h1.792Z" fill="#4d4d4d"/>
    <path id="Trazado_192660" data-name="Trazado 192660" d="M239.309,91.186h-.324v2.287h-1.8v-8.3h1.8V89.83h.255l1.212-2.112h2.059l-1.771,2.6,2.063,3.159h-2.047Z" fill="#4d4d4d"/>
    <rect id="Rectángulo_39794" data-name="Rectángulo 39794" width="1.803" height="8.297" transform="translate(243.218 85.176)" fill="#4d4d4d"/>
    <path id="Trazado_192661" data-name="Trazado 192661" d="M248.585,92.2a.7.7,0,0,0,.548-.2.833.833,0,0,0,.181-.577h1.638l.01.032a1.886,1.886,0,0,1-.651,1.534,2.512,2.512,0,0,1-1.726.593,2.546,2.546,0,0,1-2.024-.811,3.094,3.094,0,0,1-.71-2.114v-.122a3.1,3.1,0,0,1,.708-2.112,2.527,2.527,0,0,1,2.015-.814,2.472,2.472,0,0,1,1.753.61,2.1,2.1,0,0,1,.635,1.667l-.01.032h-1.638a1.107,1.107,0,0,0-.187-.668.637.637,0,0,0-.553-.258.741.741,0,0,0-.726.418,2.588,2.588,0,0,0-.2,1.125v.122a2.585,2.585,0,0,0,.2,1.133.75.75,0,0,0,.737.409" fill="#4d4d4d"/>
    <path id="Trazado_192662" data-name="Trazado 192662" d="M253.579,86.384h-1.8V85.177h1.8Zm0,7.089h-1.8V87.718h1.8Z" fill="#4d4d4d"/>
    <path id="Trazado_192663" data-name="Trazado 192663" d="M256.371,87.719l.064.761a1.909,1.909,0,0,1,.683-.641,1.93,1.93,0,0,1,.944-.226,1.762,1.762,0,0,1,.926.234,1.433,1.433,0,0,1,.585.713,1.929,1.929,0,0,1,.683-.7,1.89,1.89,0,0,1,.976-.247,1.6,1.6,0,0,1,1.322.6,2.96,2.96,0,0,1,.481,1.859v3.4h-1.8v-3.4a1.487,1.487,0,0,0-.173-.848.606.606,0,0,0-.518-.232,1.092,1.092,0,0,0-.46.093.982.982,0,0,0-.338.259c0,.059,0,.112,0,.156s.006.088.006.131v3.84h-1.8v-3.4a1.518,1.518,0,0,0-.17-.851.616.616,0,0,0-.527-.229,1.053,1.053,0,0,0-.444.093.992.992,0,0,0-.338.259v4.127h-1.8V87.719Z" fill="#4d4d4d"/>
    <path id="Trazado_192664" data-name="Trazado 192664" d="M265.945,86.384h-1.8V85.177h1.8Zm0,7.089h-1.8V87.718h1.8Z" fill="#4d4d4d"/>
    <path id="Trazado_192665" data-name="Trazado 192665" d="M268.737,87.719l.064.761a1.909,1.909,0,0,1,.683-.641,1.93,1.93,0,0,1,.944-.226,1.762,1.762,0,0,1,.926.234,1.433,1.433,0,0,1,.585.713,1.929,1.929,0,0,1,.683-.7,1.89,1.89,0,0,1,.976-.247,1.6,1.6,0,0,1,1.322.6,2.96,2.96,0,0,1,.481,1.859v3.4h-1.8v-3.4a1.487,1.487,0,0,0-.173-.848.606.606,0,0,0-.518-.232,1.092,1.092,0,0,0-.46.093.982.982,0,0,0-.338.259c0,.059,0,.112.005.156s.006.088.006.131v3.84h-1.8v-3.4a1.517,1.517,0,0,0-.17-.851.616.616,0,0,0-.527-.229,1.053,1.053,0,0,0-.444.093.992.992,0,0,0-.338.259v4.127h-1.8V87.719Z" fill="#4d4d4d"/>
    <path id="Trazado_192666" data-name="Trazado 192666" d="M232.062,104.365h-.857l-.356,2.18h-1.058l.356-2.18h-1.181v-.974h1.341l.234-1.4h-1.176v-.973H230.7l.367-2.213h1.053l-.361,2.213h.856l.367-2.213h1.058l-.367,2.213H234.9v.973h-1.388l-.234,1.4H234.5v.974H233.12l-.356,2.18h-1.059Zm-.7-.974h.856l.234-1.4H231.6Z" fill="#4d4d4d"/>
    <path id="Trazado_192667" data-name="Trazado 192667" d="M239.982,99.768v.117h-1.409l-.729-.67-.723.67h-1.383v-.138l1.6-1.277h1.027Z" fill="#4d4d4d"/>
    <rect id="Rectángulo_39795" data-name="Rectángulo 39795" width="1.798" height="1.51" transform="translate(241.433 102.168)" fill="#4d4d4d"/>
    <path id="Trazado_192668" data-name="Trazado 192668" d="M245.726,102.412a4.217,4.217,0,0,1-.481-.845,2.082,2.082,0,0,1-.157-.788,2.007,2.007,0,0,1,.585-1.547,2.268,2.268,0,0,1,1.606-.542,1.831,1.831,0,0,1,1.9,1.861,2.274,2.274,0,0,1-.194.981,2.076,2.076,0,0,1-.588.732l-.531.372,1.25,1.441a2.839,2.839,0,0,0,.284-.659,2.661,2.661,0,0,0,.1-.745h1.383a5.309,5.309,0,0,1-.181,1.428,3.152,3.152,0,0,1-.58,1.141l1.112,1.277-.011.026h-1.963l-.393-.446a3.785,3.785,0,0,1-.923.422,3.552,3.552,0,0,1-1.013.135,2.69,2.69,0,0,1-1.846-.606,2.013,2.013,0,0,1-.686-1.585,1.793,1.793,0,0,1,.3-1.05,4.8,4.8,0,0,1,.923-.938Zm1.335,2.862a2.3,2.3,0,0,0,.463-.048,1.964,1.964,0,0,0,.452-.149l-1.367-1.553a1.2,1.2,0,0,0-.308.388,1.009,1.009,0,0,0-.091.431.932.932,0,0,0,.248.67.8.8,0,0,0,.6.261m-.42-4.516a.991.991,0,0,0,.09.4,2.194,2.194,0,0,0,.272.439l.239-.15a1.2,1.2,0,0,0,.4-.372.785.785,0,0,0,.1-.4.692.692,0,0,0-.135-.426.468.468,0,0,0-.4-.181.5.5,0,0,0-.417.2.758.758,0,0,0-.157.486" fill="#4d4d4d"/>
    <path id="Trazado_192669" data-name="Trazado 192669" d="M252.066,103.4a7.215,7.215,0,0,1,.787-3.508A3.785,3.785,0,0,1,254.7,98.04h.032l.325.845a3.577,3.577,0,0,0-1.123,1.617,7.957,7.957,0,0,0-.441,2.883v.17a7.952,7.952,0,0,0,.441,2.886,3.583,3.583,0,0,0,1.123,1.614l-.325.846H254.7a3.792,3.792,0,0,1-1.851-1.846,7.214,7.214,0,0,1-.787-3.511Z" fill="#4d4d4d"/>
    <rect id="Rectángulo_39796" data-name="Rectángulo 39796" width="1.798" height="1.51" transform="translate(256.134 102.168)" fill="#4d4d4d"/>
    <path id="Trazado_192670" data-name="Trazado 192670" d="M262.14,103.545a6.95,6.95,0,0,1-.835,3.471,3.911,3.911,0,0,1-1.925,1.885h-.032l-.325-.845a3.689,3.689,0,0,0,1.117-1.62,7.836,7.836,0,0,0,.447-2.88v-.17a7.853,7.853,0,0,0-.447-2.883,3.649,3.649,0,0,0-1.117-1.617l.325-.846h.032a3.917,3.917,0,0,1,1.925,1.889,6.947,6.947,0,0,1,.835,3.468Z" fill="#4d4d4d"/>
    <rect id="Rectángulo_39797" data-name="Rectángulo 39797" width="4.803" height="1.335" transform="translate(262.65 106.545)" fill="#4d4d4d"/>
    <path id="Trazado_192671" data-name="Trazado 192671" d="M268.1,103.4a7.215,7.215,0,0,1,.787-3.508,3.785,3.785,0,0,1,1.851-1.848h.032l.325.845a3.578,3.578,0,0,0-1.123,1.617,7.957,7.957,0,0,0-.441,2.883v.17a7.953,7.953,0,0,0,.441,2.886,3.584,3.584,0,0,0,1.123,1.614l-.325.846h-.032a3.792,3.792,0,0,1-1.851-1.846,7.214,7.214,0,0,1-.787-3.511Z" fill="#4d4d4d"/>
    <rect id="Rectángulo_39798" data-name="Rectángulo 39798" width="4.803" height="1.335" transform="translate(271.325 106.545)" fill="#4d4d4d"/>
    <path id="Trazado_192672" data-name="Trazado 192672" d="M219.1,150.289l.016.049a3.8,3.8,0,0,1-1.142,3.067,4.838,4.838,0,0,1-3.327,1.045A4.586,4.586,0,0,1,209.8,149.6v-2.471a4.878,4.878,0,0,1,1.28-3.507,4.457,4.457,0,0,1,3.385-1.345,5.217,5.217,0,0,1,3.482,1.049,3.7,3.7,0,0,1,1.2,3.047l-.025.049h-2.673a2.177,2.177,0,0,0-.464-1.561,2.069,2.069,0,0,0-1.519-.47,1.6,1.6,0,0,0-1.422.743,3.51,3.51,0,0,0-.5,1.978V149.6a3.31,3.31,0,0,0,.544,1.991,1.814,1.814,0,0,0,1.561.747,1.735,1.735,0,0,0,1.361-.472,2.36,2.36,0,0,0,.418-1.576Z" fill="#4d4d4d"/>
    <path id="Trazado_192673" data-name="Trazado 192673" d="M223.352,143.446H220.6V141.6h2.755Zm0,10.833H220.6v-8.793h2.755Z" fill="#4d4d4d"/>
    <path id="Trazado_192674" data-name="Trazado 192674" d="M233.178,150.069a5.2,5.2,0,0,1-.894,3.182,2.961,2.961,0,0,1-2.52,1.2,2.4,2.4,0,0,1-1.982-.951v4.161h-2.747V145.486h2.592l.081.959a2.667,2.667,0,0,1,.874-.829,2.284,2.284,0,0,1,1.166-.292,2.931,2.931,0,0,1,2.532,1.259,5.6,5.6,0,0,1,.9,3.316Zm-2.739-.17a4.162,4.162,0,0,0-.325-1.788,1.087,1.087,0,0,0-1.04-.675,1.653,1.653,0,0,0-.785.171,1.247,1.247,0,0,0-.507.5v3.673a1.188,1.188,0,0,0,.516.423,2.007,2.007,0,0,0,.792.138,1.081,1.081,0,0,0,1.036-.6,3.65,3.65,0,0,0,.313-1.671Z" fill="#4d4d4d"/>
    <path id="Trazado_192675" data-name="Trazado 192675" d="M237.053,146.575a2.9,2.9,0,0,1,.971-.922,2.486,2.486,0,0,1,1.264-.329,2.623,2.623,0,0,1,2.145.95,4.606,4.606,0,0,1,.78,2.95v5.055h-2.746v-5.071a2.646,2.646,0,0,0-.26-1.39.893.893,0,0,0-.789-.382,2.176,2.176,0,0,0-.8.135,1.451,1.451,0,0,0-.561.377v6.331h-2.747V141.6h2.747Z" fill="#4d4d4d"/>
    <path id="Trazado_192676" data-name="Trazado 192676" d="M247.643,154.45a4.084,4.084,0,0,1-3.133-1.211,4.308,4.308,0,0,1-1.134-3.064v-.309a4.922,4.922,0,0,1,1.069-3.284,3.8,3.8,0,0,1,3.092-1.258,3.559,3.559,0,0,1,2.759,1.064,4.143,4.143,0,0,1,.979,2.917v1.439h-5.038l-.016.048a1.7,1.7,0,0,0,.512,1.118,1.783,1.783,0,0,0,1.283.426,5.607,5.607,0,0,0,1.313-.129,8.311,8.311,0,0,0,1.2-.415l.658,1.674a5.021,5.021,0,0,1-1.528.7,7.035,7.035,0,0,1-2.015.285m-.106-7.014a1.133,1.133,0,0,0-.971.419,2.1,2.1,0,0,0-.362,1.134l.017.04h2.373v-.211a1.826,1.826,0,0,0-.24-1.032.919.919,0,0,0-.817-.35" fill="#4d4d4d"/>
    <path id="Trazado_192677" data-name="Trazado 192677" d="M257.3,147.827l-.894-.009a1.526,1.526,0,0,0-.772.175,1.083,1.083,0,0,0-.447.492v5.794h-2.747v-8.793h2.585l.1,1.292a2.656,2.656,0,0,1,.731-1.072,1.606,1.606,0,0,1,1.065-.382,2.062,2.062,0,0,1,.333.024,2.53,2.53,0,0,1,.309.073Z" fill="#4d4d4d"/>
    <path id="Trazado_192678" data-name="Trazado 192678" d="M265.6,143.3v2.186h1.39v1.9H265.6v4.031a.989.989,0,0,0,.191.679.667.667,0,0,0,.516.207,2.7,2.7,0,0,0,.337-.017,2.8,2.8,0,0,0,.321-.064l.187,2.031a6.752,6.752,0,0,1-.747.15,6,6,0,0,1-.789.045,2.746,2.746,0,0,1-2.06-.723,3.2,3.2,0,0,1-.7-2.292v-4.047h-1.227v-1.9h1.227V143.3Z" fill="#4d4d4d"/>
    <path id="Trazado_192679" data-name="Trazado 192679" d="M272.225,154.45a4.084,4.084,0,0,1-3.133-1.211,4.308,4.308,0,0,1-1.134-3.064v-.309a4.922,4.922,0,0,1,1.069-3.284,3.8,3.8,0,0,1,3.093-1.258,3.558,3.558,0,0,1,2.758,1.064,4.143,4.143,0,0,1,.979,2.917v1.439h-5.038l-.016.048a1.7,1.7,0,0,0,.512,1.118,1.784,1.784,0,0,0,1.283.426,5.6,5.6,0,0,0,1.313-.129,8.36,8.36,0,0,0,1.2-.415l.657,1.674a5.021,5.021,0,0,1-1.528.7,7.025,7.025,0,0,1-2.015.285m-.105-7.014a1.134,1.134,0,0,0-.972.419,2.1,2.1,0,0,0-.362,1.134l.017.04h2.373v-.211a1.826,1.826,0,0,0-.24-1.032.919.919,0,0,0-.816-.35" fill="#4d4d4d"/>
    <path id="Trazado_192680" data-name="Trazado 192680" d="M280.5,148.079h.049l1.113-2.593h3.08l-2.552,4.348,2.641,4.445h-3.08l-1.17-2.674h-.049l-1.17,2.674h-3.08l2.641-4.445-2.559-4.348h3.063Z" fill="#4d4d4d"/>
    <path id="Trazado_192681" data-name="Trazado 192681" d="M288.73,143.3v2.186h1.39v1.9h-1.39v4.031a.989.989,0,0,0,.191.679.667.667,0,0,0,.516.207,2.7,2.7,0,0,0,.337-.017,2.8,2.8,0,0,0,.321-.064l.187,2.031a6.753,6.753,0,0,1-.747.15,6,6,0,0,1-.789.045,2.746,2.746,0,0,1-2.06-.723,3.2,3.2,0,0,1-.7-2.292v-4.047h-1.227v-1.9h1.227V143.3Z" fill="#4d4d4d"/>
    <path id="Trazado_192682" data-name="Trazado 192682" d="M425.111,150.224v4.055h-2.747V142.447h4.519a4.92,4.92,0,0,1,3.34,1.072,3.832,3.832,0,0,1,0,5.636,4.929,4.929,0,0,1-3.34,1.069Zm0-2.113h1.772a1.8,1.8,0,0,0,1.365-.492,1.749,1.749,0,0,0,.471-1.264,1.828,1.828,0,0,0-.467-1.292,1.777,1.777,0,0,0-1.369-.5h-1.772Z" fill="#4d4d4d"/>
    <rect id="Rectángulo_39799" data-name="Rectángulo 39799" width="2.755" height="12.678" transform="translate(432.937 141.601)" fill="#4d4d4d"/>
    <path id="Trazado_192683" data-name="Trazado 192683" d="M442.453,154.271a3.273,3.273,0,0,1-.264-.626,4.809,4.809,0,0,1-.167-.731,3.346,3.346,0,0,1-.881,1.117,2.131,2.131,0,0,1-1.37.419,3.044,3.044,0,0,1-2.149-.711,2.513,2.513,0,0,1-.768-1.938,2.348,2.348,0,0,1,.983-2.02,5.1,5.1,0,0,1,2.983-.711h1.129v-.626a1.249,1.249,0,0,0-.268-.861,1.046,1.046,0,0,0-.821-.3.986.986,0,0,0-.711.224.928.928,0,0,0-.231.694l-2.666-.008-.016-.049a2.292,2.292,0,0,1,1-2.01,4.5,4.5,0,0,1,2.8-.809,4.092,4.092,0,0,1,2.645.813,2.807,2.807,0,0,1,1.012,2.324v3.315a6.718,6.718,0,0,0,.118,1.3,6.9,6.9,0,0,0,.353,1.2Zm-1.934-1.78a1.676,1.676,0,0,0,.89-.235,1.354,1.354,0,0,0,.54-.561v-1.162h-1.105a1.243,1.243,0,0,0-.951.316,1.142,1.142,0,0,0-.292.805.779.779,0,0,0,.256.606.949.949,0,0,0,.662.231" fill="#4d4d4d"/>
    <path id="Trazado_192684" data-name="Trazado 192684" d="M449.076,143.446h-2.755V141.6h2.755Zm0,10.833h-2.755v-8.793h2.755Z" fill="#4d4d4d"/>
    <path id="Trazado_192685" data-name="Trazado 192685" d="M453.286,145.486l.106,1.235a3.2,3.2,0,0,1,1.064-1.028,2.76,2.76,0,0,1,1.414-.369,2.48,2.48,0,0,1,2.02.877,4.343,4.343,0,0,1,.727,2.788v5.29H455.87v-5.3a2.014,2.014,0,0,0-.268-1.19.919.919,0,0,0-.78-.354,1.94,1.94,0,0,0-.788.154,1.582,1.582,0,0,0-.585.44v6.249H450.71v-8.793Z" fill="#4d4d4d"/>
    <path id="Trazado_192686" data-name="Trazado 192686" d="M467.41,143.3v2.186h1.39v1.9h-1.39v4.031a.989.989,0,0,0,.191.679.667.667,0,0,0,.516.207,2.7,2.7,0,0,0,.337-.017,2.8,2.8,0,0,0,.321-.064l.187,2.031a6.751,6.751,0,0,1-.747.15,6,6,0,0,1-.789.045,2.746,2.746,0,0,1-2.06-.723,3.2,3.2,0,0,1-.7-2.292v-4.047h-1.227v-1.9h1.227V143.3Z" fill="#4d4d4d"/>
    <path id="Trazado_192687" data-name="Trazado 192687" d="M474.033,154.45a4.084,4.084,0,0,1-3.133-1.211,4.308,4.308,0,0,1-1.134-3.064v-.309a4.922,4.922,0,0,1,1.069-3.284,3.8,3.8,0,0,1,3.092-1.258,3.559,3.559,0,0,1,2.759,1.064,4.143,4.143,0,0,1,.979,2.917v1.439h-5.038l-.016.048a1.7,1.7,0,0,0,.512,1.118,1.783,1.783,0,0,0,1.283.426,5.607,5.607,0,0,0,1.313-.129,8.312,8.312,0,0,0,1.2-.415l.658,1.674a5.021,5.021,0,0,1-1.528.7,7.035,7.035,0,0,1-2.015.285m-.106-7.014a1.133,1.133,0,0,0-.971.419,2.1,2.1,0,0,0-.362,1.134l.017.04h2.373v-.211a1.826,1.826,0,0,0-.24-1.032.919.919,0,0,0-.817-.35" fill="#4d4d4d"/>
    <path id="Trazado_192688" data-name="Trazado 192688" d="M482.306,148.079h.049l1.113-2.593h3.08L484,149.834l2.641,4.445h-3.08l-1.17-2.674h-.049l-1.17,2.674h-3.08l2.641-4.445-2.559-4.348h3.063Z" fill="#4d4d4d"/>
    <path id="Trazado_192689" data-name="Trazado 192689" d="M490.538,143.3v2.186h1.39v1.9h-1.39v4.031a.989.989,0,0,0,.191.679.667.667,0,0,0,.516.207,2.7,2.7,0,0,0,.337-.017,2.8,2.8,0,0,0,.321-.064l.187,2.031a6.751,6.751,0,0,1-.747.15,6,6,0,0,1-.789.045,2.746,2.746,0,0,1-2.06-.723,3.2,3.2,0,0,1-.7-2.292v-4.047h-1.227v-1.9h1.227V143.3Z" fill="#4d4d4d"/>
    <path id="Trazado_192690" data-name="Trazado 192690" d="M318.118,43.05V31.218h4.332a4.823,4.823,0,0,1,3.494,1.361,4.645,4.645,0,0,1,1.406,3.49V38.2a4.641,4.641,0,0,1-1.406,3.494,4.829,4.829,0,0,1-3.494,1.358Zm2.747-9.72v7.606h1.585a1.88,1.88,0,0,0,1.54-.763A3.085,3.085,0,0,0,324.6,38.2V36.053a3.057,3.057,0,0,0-.605-1.958,1.882,1.882,0,0,0-1.54-.765Z" fill="#4d4d4d"/>
    <path id="Trazado_192691" data-name="Trazado 192691" d="M332.73,43.221A4.084,4.084,0,0,1,329.6,42.01a4.308,4.308,0,0,1-1.134-3.064v-.309a4.922,4.922,0,0,1,1.069-3.284,3.8,3.8,0,0,1,3.092-1.258,3.559,3.559,0,0,1,2.759,1.064,4.143,4.143,0,0,1,.979,2.917v1.439h-5.038l-.016.048a1.7,1.7,0,0,0,.512,1.118,1.783,1.783,0,0,0,1.283.426,5.607,5.607,0,0,0,1.313-.129,8.308,8.308,0,0,0,1.2-.415l.658,1.674a5.021,5.021,0,0,1-1.528.7,7.035,7.035,0,0,1-2.015.285m-.106-7.014a1.132,1.132,0,0,0-.971.419,2.1,2.1,0,0,0-.362,1.134l.017.04h2.373v-.211a1.826,1.826,0,0,0-.24-1.032.919.919,0,0,0-.817-.35" fill="#4d4d4d"/>
    <path id="Trazado_192692" data-name="Trazado 192692" d="M341.287,41.107a1.074,1.074,0,0,0,.837-.305,1.27,1.27,0,0,0,.276-.882h2.5l.017.049a2.891,2.891,0,0,1-1,2.345,3.835,3.835,0,0,1-2.637.906,3.89,3.89,0,0,1-3.092-1.239,4.726,4.726,0,0,1-1.085-3.23v-.188a4.741,4.741,0,0,1,1.081-3.226,3.86,3.86,0,0,1,3.08-1.243,3.781,3.781,0,0,1,2.677.93,3.214,3.214,0,0,1,.972,2.548l-.017.049h-2.5a1.7,1.7,0,0,0-.284-1.02.974.974,0,0,0-.845-.394,1.129,1.129,0,0,0-1.109.637,3.944,3.944,0,0,0-.313,1.719v.188a3.922,3.922,0,0,0,.313,1.73,1.144,1.144,0,0,0,1.125.626" fill="#4d4d4d"/>
    <path id="Trazado_192693" data-name="Trazado 192693" d="M350.9,36.6l-.894-.009a1.526,1.526,0,0,0-.772.175,1.083,1.083,0,0,0-.447.492V43.05H346.04V34.257h2.585l.1,1.292a2.656,2.656,0,0,1,.731-1.072,1.606,1.606,0,0,1,1.065-.382,2.064,2.064,0,0,1,.333.024,2.532,2.532,0,0,1,.309.073Z" fill="#4d4d4d"/>
    <path id="Trazado_192694" data-name="Trazado 192694" d="M355.459,39.174l.008.064h.049l1.454-4.981H359.9l-3.5,10.1a4.839,4.839,0,0,1-1.049,1.608,2.812,2.812,0,0,1-2.04.635,3.2,3.2,0,0,1-.585-.045c-.151-.03-.39-.086-.715-.167l.333-1.958.171.036a.722.722,0,0,0,.146.013,1.825,1.825,0,0,0,.951-.192,1.124,1.124,0,0,0,.447-.573l.219-.568-3.039-8.891h2.918Z" fill="#4d4d4d"/>
    <path id="Trazado_192695" data-name="Trazado 192695" d="M368.755,38.84a5.2,5.2,0,0,1-.894,3.182,2.961,2.961,0,0,1-2.52,1.2,2.4,2.4,0,0,1-1.982-.951v4.161h-2.747V34.257H363.2l.081.959a2.667,2.667,0,0,1,.874-.829,2.284,2.284,0,0,1,1.166-.292,2.93,2.93,0,0,1,2.532,1.259,5.6,5.6,0,0,1,.9,3.316Zm-2.739-.17a4.162,4.162,0,0,0-.325-1.788,1.087,1.087,0,0,0-1.04-.675,1.653,1.653,0,0,0-.785.171,1.247,1.247,0,0,0-.507.5v3.673a1.188,1.188,0,0,0,.516.423,2.007,2.007,0,0,0,.792.138,1.081,1.081,0,0,0,1.036-.6,3.65,3.65,0,0,0,.313-1.671Z" fill="#4d4d4d"/>
    <path id="Trazado_192696" data-name="Trazado 192696" d="M373.118,32.071v2.186h1.39v1.9h-1.39v4.031a.989.989,0,0,0,.191.679.667.667,0,0,0,.516.207,2.7,2.7,0,0,0,.337-.017,2.8,2.8,0,0,0,.321-.064l.187,2.031a6.751,6.751,0,0,1-.747.15,6,6,0,0,1-.789.045,2.746,2.746,0,0,1-2.06-.723,3.2,3.2,0,0,1-.7-2.292V36.158h-1.227v-1.9h1.227V32.071Z" fill="#4d4d4d"/>
    <path id="Trazado_192697" data-name="Trazado 192697" d="M378.717,32.217h-2.755V30.372h2.755Zm0,10.833h-2.755V34.257h2.755Z" fill="#4d4d4d"/>
    <path id="Trazado_192698" data-name="Trazado 192698" d="M380.034,38.572a4.646,4.646,0,0,1,1.122-3.23,4.558,4.558,0,0,1,6.265,0,4.646,4.646,0,0,1,1.122,3.23v.171a4.643,4.643,0,0,1-1.122,3.234,4.566,4.566,0,0,1-6.265,0,4.643,4.643,0,0,1-1.122-3.234Zm2.747.171a3.637,3.637,0,0,0,.345,1.734,1.23,1.23,0,0,0,1.175.63,1.214,1.214,0,0,0,1.154-.634,3.611,3.611,0,0,0,.349-1.73v-.171a3.631,3.631,0,0,0-.349-1.719,1.225,1.225,0,0,0-1.171-.646,1.209,1.209,0,0,0-1.158.65,3.664,3.664,0,0,0-.345,1.715Z" fill="#4d4d4d"/>
    <path id="Trazado_192699" data-name="Trazado 192699" d="M392.28,34.257l.106,1.235a3.2,3.2,0,0,1,1.064-1.028,2.76,2.76,0,0,1,1.414-.369,2.48,2.48,0,0,1,2.02.877,4.343,4.343,0,0,1,.727,2.788v5.29h-2.747v-5.3a2.014,2.014,0,0,0-.268-1.19.919.919,0,0,0-.78-.354,1.94,1.94,0,0,0-.788.154,1.583,1.583,0,0,0-.585.44V43.05H389.7V34.257Z" fill="#4d4d4d"/>
  </g>
</svg>
