<svg xmlns="http://www.w3.org/2000/svg" width="188.368" height="188.367" viewBox="0 0 188.368 188.367">
  <g id="Grupo_147394" data-name="Grupo 147394" transform="translate(2173.522 5800.153)">
    <path id="Trazado_181782" data-name="Trazado 181782" d="M188.154,131.979c-22.737,47.681-57.724,57.982-83.11,57.982A88.915,88.915,0,0,1,32.971,152.4C16.3,128.888,12.331,99.088,21.934,70.612L23.7,66.97c13.465-32.118,46.135-54.34,81.344-54.34a88.915,88.915,0,0,1,72.073,37.563c16.666,23.509,20.64,53.31,11.037,81.785" transform="translate(-2184.381 -5807.266)" fill="#65b1fc"/>
    <path id="Trazado_181783" data-name="Trazado 181783" d="M121.5,131.979c-22.737,47.681-57.724,57.982-83.11,57.982V12.63A88.915,88.915,0,0,1,110.46,50.193C127.126,73.7,131.1,103.5,121.5,131.979" transform="translate(-2117.725 -5807.266)" fill="#1689fc"/>
    <path id="Trazado_181784" data-name="Trazado 181784" d="M186.058,51.161C168.4,26.438,139.812,11.28,109.46,11.28c-37.857,0-72.514,23.767-86.752,58.755L20.832,73.9c-10.134,30.859-6.189,60.087,12.031,85.869,17.659,24.723,46.246,39.881,76.6,39.881,37.416,0,71.631-23.215,86.311-57.43l1.656-3.311c11.033-31.391,7.166-61.542-11.368-87.746M41.913,153.365c-15.673-22.074-19.315-50-10.265-76.819l1.435-2.98a84.115,84.115,0,0,1,47.9-45.951c-13.355,17.439-21.412,51.36-20.419,62.4a3.265,3.265,0,0,0-.221,1.1c-2.87,36.975,5.519,72.661,21.3,92.639a84.243,84.243,0,0,1-39.734-30.389m62.029,34.252c-3.863-1.324-7.726-4.231-11.368-8.094C77.121,162.857,68.623,127.649,71.382,92v-.993c0-.331.11-.773.11-1.1,3.2-34.326,16.666-61.4,32.449-66.591Zm11.037-.11V23.311c17,5.629,31.235,36.9,32.891,74.207,1.545,34.436-7.064,66.775-21.964,82.448-3.532,3.642-7.174,6.328-10.927,7.542m72.294-53.126c-12.362,26.048-29.8,42.088-50,49.263,14.79-18.653,23.178-51.912,21.633-86.568-1.324-29.359-9.6-54.671-21.633-69.9a84.244,84.244,0,0,1,39.734,30.389c15.673,22.074,19.315,50,10.265,76.819" transform="translate(-2188.798 -5811.434)" fill="#96ebe6"/>
    <path id="Trazado_181785" data-name="Trazado 181785" d="M114.985,51.161C97.326,26.438,68.739,11.28,38.387,11.28V199.648c37.416,0,71.631-23.215,86.311-57.43l1.656-3.311c11.033-31.391,7.166-61.542-11.368-87.746M43.906,187.507V23.311c17,5.629,31.235,36.9,32.891,74.207,1.545,34.436-7.064,66.775-21.964,82.448-3.532,3.642-7.174,6.328-10.927,7.542M116.2,134.381c-12.362,26.048-29.8,42.088-50,49.263,14.79-18.653,23.178-51.912,21.633-86.568-1.324-29.359-9.6-54.671-21.633-69.9a84.243,84.243,0,0,1,39.734,30.389c15.673,22.074,19.315,50,10.265,76.819" transform="translate(-2117.725 -5811.434)" fill="#00c8c8"/>
    <path id="Trazado_181786" data-name="Trazado 181786" d="M186.791,24.87H32.271A16.851,16.851,0,0,0,15.347,41.426V85.574A16.851,16.851,0,0,0,32.271,102.13h154.52a16.851,16.851,0,0,0,16.924-16.556V41.426A16.851,16.851,0,0,0,186.791,24.87" transform="translate(-2188.869 -5769.47)" fill="#0053bf"/>
    <path id="Trazado_181787" data-name="Trazado 181787" d="M132.571,41.426V85.574a16.851,16.851,0,0,1-16.924,16.556H38.387V24.87h77.26a16.851,16.851,0,0,1,16.924,16.556" transform="translate(-2117.725 -5769.47)" fill="#05377f"/>
    <path id="Trazado_181788" data-name="Trazado 181788" d="M86.276,38.222,75.239,60.3a5.536,5.536,0,0,1-9.933,0l-6.07-12.141L53.165,60.3c-1.876,3.753-8.057,3.753-9.933,0L32.194,38.222a5.529,5.529,0,0,1,9.933-4.856L48.2,45.506l6.07-12.141a5.733,5.733,0,0,1,9.933,0l6.07,12.141,6.07-12.141a5.529,5.529,0,0,1,9.933,4.856" transform="translate(-2138.572 -5752.802)" fill="#e1f1fa"/>
    <path id="Trazado_181789" data-name="Trazado 181789" d="M83.894,63.378a5.527,5.527,0,0,1-4.938-3.05l-6.1-12.2-6.1,12.2c-1.876,3.74-8,3.74-9.876,0L46.31,39.174a5.3,5.3,0,0,1-1.2-3.021A5.384,5.384,0,0,1,50.091,30.3a6.082,6.082,0,0,1,5.629,3.017l6.1,12.2,6.1-12.2c1.876-3.74,8-3.74,9.876,0l6.1,12.2,6.1-12.2a5.521,5.521,0,0,1,9.876,4.938L88.832,60.329a5.526,5.526,0,0,1-4.938,3.05" transform="translate(-2097.009 -5752.793)" fill="#bfe1ff"/>
    <path id="Trazado_181790" data-name="Trazado 181790" d="M68.162,30.278a5.776,5.776,0,0,0-5.294,3.041l-6.1,12.2-6.1-12.2a5.6,5.6,0,0,0-9.876,0l-6.1,12.2-6.1-12.2a5.52,5.52,0,0,0-9.876,4.934L29.756,60.328a5.523,5.523,0,0,0,9.876,0l6.1-12.2,6.1,12.2a5.523,5.523,0,0,0,9.876,0L72.1,39.537a5.584,5.584,0,0,0-3.941-9.259" transform="translate(-2180.255 -5752.792)" fill="#e1f1fa"/>
    <path id="Trazado_181791" data-name="Trazado 181791" d="M65.428,38.222,54.391,60.3a5.536,5.536,0,0,1-9.933,0l-6.07-12.141V30.5a5.567,5.567,0,0,1,4.967,2.87l6.07,12.141,6.07-12.141a5.529,5.529,0,0,1,9.933,4.856" transform="translate(-2117.725 -5752.802)" fill="#bfe1ff"/>
  </g>
</svg>
