<svg xmlns="http://www.w3.org/2000/svg" xmlns:xlink="http://www.w3.org/1999/xlink" width="470.98" height="64.067" viewBox="0 0 470.98 64.067">
  <defs>
    <clipPath id="clip-path">
      <rect id="Rectángulo_37493" data-name="Rectángulo 37493" width="125.824" height="36.458" fill="none"/>
    </clipPath>
  </defs>
  <g id="Grupo_148952" data-name="Grupo 148952" transform="translate(-180 -2463.042)">
    <path id="Trazado_182697" data-name="Trazado 182697" d="M15.226,2.239v46.2l432.053.06,13.437-46.27Z" transform="translate(164.774 2468.74)" fill="#7142c1"/>
    <g id="Grupo_112921" data-name="Grupo 112921" transform="translate(-78.02 -6510.055)">
      <path id="Trazado_169410" data-name="Trazado 169410" d="M.034,22.292c0-5.125.044-10.25-.034-15.373a1.851,1.851,0,0,1,1.31-2.039A58.155,58.155,0,0,1,17.954.452,61.9,61.9,0,0,1,48.088,4.218c2.887,1.131,2.887,1.131,2.887,4.308,0,9.614.022,19.227-.028,28.839a9.28,9.28,0,0,1-.643,3.284,35.079,35.079,0,0,1-8.962,12.5A67.363,67.363,0,0,1,26.153,63.9a1.388,1.388,0,0,1-1.128.084c-7.774-4.156-14.875-9.246-20.4-16.464A27.169,27.169,0,0,1,.3,39.63a5.033,5.033,0,0,1-.258-1.561C.027,32.81.034,27.551.034,22.292" transform="translate(678.021 8973.097)" fill="#79f5ed"/>
      <path id="Trazado_169411" data-name="Trazado 169411" d="M10.115,21.875c0-1.51.01-3.012,0-4.513A10.865,10.865,0,0,1,13.59,9.016c3.286-3.1,7.1-3.847,11.128-2.082,4.075,1.783,6.334,5.158,6.59,9.848.09,1.674.015,3.356.015,5.056a1.693,1.693,0,0,0,.338.109c2,.148,2.668.858,2.673,2.933q.015,6.754,0,13.51c-.005,1.755-.851,2.634-2.509,2.636q-11.125.008-22.248,0c-1.63,0-2.493-.923-2.5-2.665q-.01-6.754,0-13.51c0-1.988.721-2.759,2.634-2.9a3.868,3.868,0,0,0,.4-.077m16.656.042c0-1.672.025-3.286-.005-4.9a6.228,6.228,0,0,0-5.488-6.152,5.961,5.961,0,0,0-6.46,5.069,45.871,45.871,0,0,0-.049,5.983Zm-6.1,15.934c.65,0,1.3.011,1.952,0,1.007-.019,1.262-.38.977-1.4-.427-1.528-.858-3.056-1.312-4.575a.879.879,0,0,1,.276-1.092,3.21,3.21,0,0,0,.327-4.664,2.935,2.935,0,0,0-4.369.014,3.209,3.209,0,0,0,.354,4.664.807.807,0,0,1,.288,1c-.484,1.6-.933,3.209-1.376,4.821-.221.8.054,1.192.848,1.22.677.025,1.356.005,2.034.007" transform="translate(682.801 8977.645)" fill="#500c75"/>
    </g>
    <g id="Grupo_112924" data-name="Grupo 112924" transform="translate(180 2474.896)">
      <g id="Grupo_112079" data-name="Grupo 112079">
        <g id="Grupo_112078" data-name="Grupo 112078" clip-path="url(#clip-path)">
          <path id="Trazado_169409" data-name="Trazado 169409" d="M147.967,10.9a3.108,3.108,0,0,1-1.456-.374L117.4,40.662H25.381V38.585H63.264L79.95,21.314h30.011v2.077H80.783L66.1,38.585h50.463L145.091,9.061a3.423,3.423,0,0,1-.362-1.509,3.24,3.24,0,1,1,6.475,0,3.294,3.294,0,0,1-3.238,3.35" transform="translate(-25.382 -4.203)" fill="#a7f"/>
        </g>
      </g>
    </g>
    <text id="Estructura_más_común_de_un_informe_de_test" data-name="Estructura más común de un informe de test" transform="translate(196 2484.074)" fill="#fff" font-size="18" font-family="Roboto-Black, Roboto" font-weight="800"><tspan x="0" y="19">Estructura más común de un informe de test</tspan></text>
  </g>
</svg>
