<svg xmlns="http://www.w3.org/2000/svg" xmlns:xlink="http://www.w3.org/1999/xlink" width="1030" height="450.328" viewBox="0 0 1030 450.328">
  <defs>
    <clipPath id="clip-path">
      <rect id="Rectángulo_37770" data-name="Rectángulo 37770" width="1030" height="341.258" fill="none"/>
    </clipPath>
    <clipPath id="clip-path-2">
      <path id="Trazado_177126" data-name="Trazado 177126" d="M39.217,504.267a70.72,70.72,0,1,0,71.881-69.54c-.4-.007-.795-.01-1.194-.01a70.726,70.726,0,0,0-70.688,69.55" transform="translate(-39.208 -434.717)" fill="none"/>
    </clipPath>
    <linearGradient id="linear-gradient" x1="0.064" y1="0.935" x2="0.066" y2="0.935" gradientUnits="objectBoundingBox">
      <stop offset="0" stop-color="#fff"/>
      <stop offset="0.997" stop-color="#d7d6d6"/>
      <stop offset="1" stop-color="#d7d6d6"/>
    </linearGradient>
    <clipPath id="clip-path-4">
      <path id="Trazado_177128" data-name="Trazado 177128" d="M546.486,108.767a70.72,70.72,0,1,0,71.881-69.54c-.4-.007-.795-.01-1.194-.01a70.726,70.726,0,0,0-70.687,69.55" transform="translate(-546.477 -39.217)" fill="none"/>
    </clipPath>
    <linearGradient id="linear-gradient-2" x1="-1.006" y1="1.769" x2="-1.004" y2="1.769" xlink:href="#linear-gradient"/>
    <clipPath id="clip-path-6">
      <path id="Trazado_177130" data-name="Trazado 177130" d="M1053.756,504.267a70.72,70.72,0,1,0,71.881-69.54c-.4-.007-.794-.01-1.194-.01a70.726,70.726,0,0,0-70.687,69.55" transform="translate(-1053.746 -434.717)" fill="none"/>
    </clipPath>
    <linearGradient id="linear-gradient-3" x1="-2.075" y1="0.935" x2="-2.073" y2="0.935" xlink:href="#linear-gradient"/>
    <clipPath id="clip-path-8">
      <path id="Trazado_177132" data-name="Trazado 177132" d="M1561.025,108.767a70.72,70.72,0,1,0,71.881-69.54c-.4-.007-.795-.01-1.194-.01a70.726,70.726,0,0,0-70.687,69.55" transform="translate(-1561.015 -39.217)" fill="none"/>
    </clipPath>
    <linearGradient id="linear-gradient-4" x1="-3.145" y1="1.769" x2="-3.143" y2="1.769" xlink:href="#linear-gradient"/>
    <clipPath id="clip-path-10">
      <path id="Trazado_177134" data-name="Trazado 177134" d="M2068.293,504.267a70.72,70.72,0,1,0,71.881-69.54c-.4-.007-.8-.01-1.194-.01a70.726,70.726,0,0,0-70.687,69.55" transform="translate(-2068.283 -434.717)" fill="none"/>
    </clipPath>
    <linearGradient id="linear-gradient-5" x1="-4.214" y1="0.935" x2="-4.212" y2="0.935" xlink:href="#linear-gradient"/>
    <clipPath id="clip-path-12">
      <rect id="Rectángulo_40696" data-name="Rectángulo 40696" width="83.254" height="83.254" transform="translate(0 0)" fill="#8f52f5"/>
    </clipPath>
    <clipPath id="clip-path-13">
      <rect id="Rectángulo_40697" data-name="Rectángulo 40697" width="83.857" height="83.857" transform="translate(0 0)" fill="#e01650"/>
    </clipPath>
    <clipPath id="clip-path-14">
      <rect id="Rectángulo_40698" data-name="Rectángulo 40698" width="75.537" height="69.636" transform="translate(0 0)" fill="#1acec3"/>
    </clipPath>
    <clipPath id="clip-path-15">
      <rect id="Rectángulo_40699" data-name="Rectángulo 40699" width="75.457" height="75.457" transform="translate(0 0)" fill="#5e8eca"/>
    </clipPath>
    <clipPath id="clip-path-16">
      <rect id="Rectángulo_40700" data-name="Rectángulo 40700" width="68.16" height="76.314" transform="translate(0 0)" fill="#8869a3"/>
    </clipPath>
  </defs>
  <g id="Grupo_148951" data-name="Grupo 148951" transform="translate(-285 -1960.5)">
    <g id="Grupo_142394" data-name="Grupo 142394" transform="translate(0 -7166)">
      <g id="Grupo_112400" data-name="Grupo 112400" transform="translate(285 9182.958)">
        <g id="Grupo_112379" data-name="Grupo 112379">
          <g id="Grupo_112378" data-name="Grupo 112378" clip-path="url(#clip-path)">
            <path id="Trazado_177111" data-name="Trazado 177111" d="M174.062,473.834A87.387,87.387,0,0,0,63.389,398.783q-2.966.844-5.845,1.9A87.266,87.266,0,0,0,87.247,570c.895,0,1.8-.014,2.714-.043.606-.015,1.2-.043,1.789-.073.736-.043,1.472-.086,2.208-.144,2.223-.173,4.416-.419,6.581-.75a87.358,87.358,0,0,0,73.912-82.6,86.224,86.224,0,0,0-.39-12.557" transform="translate(0 -228.747)" fill="#8f52f5"/>
            <path id="Trazado_177112" data-name="Trazado 177112" d="M507.278.014h-.116C506.571,0,505.993,0,505.4,0h-.13c-.592,0-1.169,0-1.761.014H503.4c-45.334,0-85.3,39.746-85.3,85.891-.015.39-.015.765-.015,1.155v.346c0,.376,0,.765.015,1.14,0,.3.014.606.014.909,0,.173,0,.332.014.505v.072c.014.577.043,1.14.072,1.718a4,4,0,0,0,.029.418c.029.39.043.794.072,1.183.029.332.043.664.072,1a.4.4,0,0,0,.014.13c.029.548.072,1.082.145,1.631.029.26.043.534.086.794.029.317.058.635.1.952a1.1,1.1,0,0,0,.014.217,67.536,67.536,0,0,1-3.219,30.266,69.958,69.958,0,0,1-23.122,32.287l-2.7,2.092a67.65,67.65,0,0,1-36.616,14.1,99.152,99.152,0,0,1,28.245,36.126,69.734,69.734,0,0,1,23.093-32.33l2.324-1.818a68.406,68.406,0,0,1,37.078-14.246,72.182,72.182,0,0,1,30.858,4.431,87.854,87.854,0,0,0,29.7,5.513c.318.015.635.015.953.015.361,0,.707,0,1.068-.015,18.892,0,39.333-6.791,56.592-21.751a87.511,87.511,0,0,0,17.479-21.1c.245-.419.476-.823.721-1.241a87.471,87.471,0,0,0,11.4-43V87.06c0-49.281-41.427-87.046-85.314-87.046" transform="translate(-204.213)" fill="#e01650"/>
            <path id="Trazado_177113" data-name="Trazado 177113" d="M1607.134,86.338v-.086c1.6-43.172-37.836-86.238-85.429-86.238C1521.113,0,1520.536,0,1519.944,0h-.058a87.25,87.25,0,0,0-87.262,87.19v.216c0,.159,0,.332.015.491v.736c0,.433.014.866.029,1.313.014.75.058,1.516.1,2.266s.1,1.515.159,2.266.13,1.487.217,2.237a2.379,2.379,0,0,0,.029.332c.029.3.058.592.1.895A68.12,68.12,0,0,1,1430,128.4a69.716,69.716,0,0,1-23.05,32.229l-2.8,2.18a67.474,67.474,0,0,1-36.516,14.029,99.2,99.2,0,0,1,28.274,36.2,69.373,69.373,0,0,1,23.05-32.417l2.309-1.8a68.47,68.47,0,0,1,37.093-14.26A72.039,72.039,0,0,1,1489.23,169a88.177,88.177,0,0,0,28.549,5.485c.246.014.476.014.736.014s.49.014.736.014h1.14c.245,0,.491,0,.722-.014,22.983,0,49.829-10.818,67.59-33.6a86.831,86.831,0,0,0,17.926-44.079,1.04,1.04,0,0,0,.014-.2.4.4,0,0,0,.014-.13.389.389,0,0,0,.015-.13c.014-.13.029-.245.043-.376.058-.548.1-1.082.144-1.631,0-.043.015-.1.015-.144.014-.159.029-.3.043-.462.014-.245.043-.476.043-.722v-.087c.058-.736.087-1.472.115-2.208,0-.1.014-.217.014-.317.015-.332.029-.65.043-.982V89.08c0-.375.014-.75.014-1.126v-.346c0-.433,0-.852-.014-1.27" transform="translate(-791.018 0.001)" fill="#5e8eca"/>
            <path id="Trazado_177114" data-name="Trazado 177114" d="M1996.278,348.043c-22.689,8.6-48.163,5.282-67.3-9.641l-2.7-2.093a68.752,68.752,0,0,1-22.948-32.561,98.426,98.426,0,0,1-12.066,19.932,99.464,99.464,0,0,1-16.266,16.5,71.583,71.583,0,0,1,37.742,14.924l1.53,1.2a69.14,69.14,0,0,1,26.311,62.755,88.237,88.237,0,0,0-.577,14.274c1.848,45.426,39.515,83.451,86.927,83.607.094,0,.186.007.279.007.072,0,.142-.005.214-.005a87.253,87.253,0,0,0,87.046-87.2v-.13c0-59.909-60.5-103.471-118.192-81.561" transform="translate(-1084.47 -175.683)" fill="#8869a3"/>
            <path id="Trazado_177115" data-name="Trazado 177115" d="M1015.425,342.442a87.238,87.238,0,0,0-34.192,5.6c-22.689,8.6-48.163,5.282-67.3-9.641l-2.7-2.093a68.755,68.755,0,0,1-22.948-32.561,98.389,98.389,0,0,1-12.066,19.932,99.467,99.467,0,0,1-16.266,16.5A71.587,71.587,0,0,1,897.695,355.1l1.53,1.2a69.142,69.142,0,0,1,26.311,62.755,88.223,88.223,0,0,0-.577,14.274c.071,1.758.214,3.5.4,5.231,0,.031.006.062.009.094.029.346.069.68.111,1.026l.014.058c.105.964.237,1.921.378,2.875.04.268.082.534.124.8.054.348.1.7.162,1.044.014.058.029.13.043.2.086.505.173,1,.274,1.5.035.23.086.454.133.68.064.324.133.647.2.97.109.527.215,1.055.344,1.583.072.332.145.649.231.967,0,.029.014.043.014.072.05.211.109.422.161.632.066.263.132.525.2.786.005.018.008.035.013.053.025.1.057.189.083.285a87.3,87.3,0,0,0,84.031,64.746c.094,0,.185.007.279.007.072,0,.142-.005.214-.005a87.244,87.244,0,0,0,87.047-87.2v-.13c0-46.861-37.757-85.55-84-87.161" transform="translate(-497.383 -175.683)" fill="#1acec3"/>
            <path id="Trazado_177116" data-name="Trazado 177116" d="M710.358,475.1a1.161,1.161,0,0,0-1.52-.62l-9.662,4.064-9.662-4.064a1.16,1.16,0,0,0-.9,2.139l10.112,4.253a1.16,1.16,0,0,0,.9,0l10.112-4.253a1.16,1.16,0,0,0,.62-1.52" transform="translate(-397.873 -274.378)" fill="#500c75"/>
            <path id="Trazado_177117" data-name="Trazado 177117" d="M707.984,487.758l-9.663,4.064-9.662-4.064a1.16,1.16,0,0,0-.9,2.139l10.112,4.253a1.161,1.161,0,0,0,.9,0l10.112-4.253a1.16,1.16,0,0,0-.9-2.139" transform="translate(-397.379 -282.059)" fill="#500c75"/>
            <path id="Trazado_177118" data-name="Trazado 177118" d="M179.871,325.291a1.161,1.161,0,0,0,1.52.62l9.663-4.064,9.662,4.064a1.16,1.16,0,1,0,.9-2.139L191.5,319.518a1.161,1.161,0,0,0-.9,0l-10.112,4.253a1.16,1.16,0,0,0-.62,1.52" transform="translate(-103.982 -184.752)" fill="#500c75"/>
            <path id="Trazado_177119" data-name="Trazado 177119" d="M182.245,312.631l9.663-4.064,9.662,4.064a1.16,1.16,0,1,0,.9-2.139l-10.112-4.253a1.16,1.16,0,0,0-.9,0l-10.112,4.253a1.16,1.16,0,1,0,.9,2.139" transform="translate(-104.476 -177.071)" fill="#500c75"/>
            <path id="Trazado_177120" data-name="Trazado 177120" d="M1724.9,475.1a1.161,1.161,0,0,0-1.52-.62l-9.663,4.064-9.662-4.064a1.16,1.16,0,1,0-.9,2.139l10.112,4.253a1.16,1.16,0,0,0,.9,0l10.113-4.253a1.161,1.161,0,0,0,.62-1.52" transform="translate(-984.667 -274.378)" fill="#500c75"/>
            <path id="Trazado_177121" data-name="Trazado 177121" d="M1722.522,487.758l-9.663,4.064-9.662-4.064a1.16,1.16,0,1,0-.9,2.139l10.112,4.253a1.16,1.16,0,0,0,.9,0l10.113-4.253a1.16,1.16,0,1,0-.9-2.139" transform="translate(-984.172 -282.059)" fill="#500c75"/>
            <path id="Trazado_177122" data-name="Trazado 177122" d="M1173.616,325.291a1.161,1.161,0,0,0,1.52.62l9.662-4.064,9.662,4.064a1.16,1.16,0,0,0,.9-2.139l-10.112-4.253a1.16,1.16,0,0,0-.9,0l-10.113,4.253a1.16,1.16,0,0,0-.62,1.52" transform="translate(-678.749 -184.752)" fill="#500c75"/>
            <path id="Trazado_177123" data-name="Trazado 177123" d="M1175.99,312.631l9.662-4.064,9.662,4.064a1.16,1.16,0,1,0,.9-2.139l-10.112-4.253a1.16,1.16,0,0,0-.9,0l-10.113,4.253a1.16,1.16,0,1,0,.9,2.139" transform="translate(-679.243 -177.071)" fill="#500c75"/>
            <path id="Trazado_177124" data-name="Trazado 177124" d="M2208.947,325.291a1.161,1.161,0,0,0,1.52.62l9.663-4.064,9.662,4.064a1.16,1.16,0,0,0,.9-2.139l-10.112-4.253a1.161,1.161,0,0,0-.9,0l-10.112,4.253a1.16,1.16,0,0,0-.62,1.52" transform="translate(-1277.569 -184.752)" fill="#500c75"/>
            <path id="Trazado_177125" data-name="Trazado 177125" d="M2211.32,312.631l9.663-4.064,9.662,4.064a1.16,1.16,0,1,0,.9-2.139l-10.112-4.253a1.161,1.161,0,0,0-.9,0l-10.112,4.253a1.16,1.16,0,1,0,.9,2.139" transform="translate(-1278.063 -177.071)" fill="#500c75"/>
          </g>
        </g>
        <g id="Grupo_112381" data-name="Grupo 112381" transform="translate(16.531 183.283)">
          <g id="Grupo_112380" data-name="Grupo 112380" clip-path="url(#clip-path-2)">
            <rect id="Rectángulo_37771" data-name="Rectángulo 37771" width="199.983" height="199.875" transform="matrix(0.787, -0.617, 0.617, 0.787, -69.639, 54.153)" fill="url(#linear-gradient)"/>
          </g>
        </g>
        <g id="Grupo_112383" data-name="Grupo 112383">
          <g id="Grupo_112382" data-name="Grupo 112382" clip-path="url(#clip-path)">
            <path id="Trazado_177127" data-name="Trazado 177127" d="M181.774,509.592A67.693,67.693,0,1,1,114.082,441.9a67.693,67.693,0,0,1,67.692,67.693" transform="translate(-26.831 -255.588)" fill="#fff"/>
          </g>
        </g>
        <g id="Grupo_112385" data-name="Grupo 112385" transform="translate(230.403 16.534)">
          <g id="Grupo_112384" data-name="Grupo 112384" clip-path="url(#clip-path-4)">
            <rect id="Rectángulo_37773" data-name="Rectángulo 37773" width="199.983" height="199.875" transform="translate(-69.639 54.153) rotate(-38.125)" fill="url(#linear-gradient-2)"/>
          </g>
        </g>
        <g id="Grupo_112387" data-name="Grupo 112387">
          <g id="Grupo_112386" data-name="Grupo 112386" clip-path="url(#clip-path)">
            <path id="Trazado_177129" data-name="Trazado 177129" d="M689.042,114.093A67.693,67.693,0,1,1,621.35,46.4a67.693,67.693,0,0,1,67.692,67.693" transform="translate(-320.227 -26.837)" fill="#fff"/>
          </g>
        </g>
        <g id="Grupo_112389" data-name="Grupo 112389" transform="translate(444.275 183.283)">
          <g id="Grupo_112388" data-name="Grupo 112388" clip-path="url(#clip-path-6)">
            <rect id="Rectángulo_37775" data-name="Rectángulo 37775" width="199.983" height="199.875" transform="translate(-69.639 54.153) rotate(-38.125)" fill="url(#linear-gradient-3)"/>
          </g>
        </g>
        <g id="Grupo_112391" data-name="Grupo 112391">
          <g id="Grupo_112390" data-name="Grupo 112390" clip-path="url(#clip-path)">
            <path id="Trazado_177131" data-name="Trazado 177131" d="M1196.311,509.592a67.693,67.693,0,1,1-67.692-67.693,67.693,67.693,0,0,1,67.692,67.693" transform="translate(-613.624 -255.588)" fill="#fff"/>
          </g>
        </g>
        <g id="Grupo_112393" data-name="Grupo 112393" transform="translate(658.147 16.534)">
          <g id="Grupo_112392" data-name="Grupo 112392" clip-path="url(#clip-path-8)">
            <rect id="Rectángulo_37777" data-name="Rectángulo 37777" width="199.982" height="199.875" transform="matrix(0.787, -0.617, 0.617, 0.787, -69.639, 54.153)" fill="url(#linear-gradient-4)"/>
          </g>
        </g>
        <g id="Grupo_112395" data-name="Grupo 112395">
          <g id="Grupo_112394" data-name="Grupo 112394" clip-path="url(#clip-path)">
            <path id="Trazado_177133" data-name="Trazado 177133" d="M1703.581,114.093A67.693,67.693,0,1,1,1635.888,46.4a67.693,67.693,0,0,1,67.693,67.693" transform="translate(-907.021 -26.837)" fill="#fff"/>
          </g>
        </g>
        <g id="Grupo_112397" data-name="Grupo 112397" transform="translate(872.019 183.283)">
          <g id="Grupo_112396" data-name="Grupo 112396" clip-path="url(#clip-path-10)">
            <rect id="Rectángulo_37779" data-name="Rectángulo 37779" width="199.982" height="199.875" transform="translate(-69.639 54.153) rotate(-38.125)" fill="url(#linear-gradient-5)"/>
          </g>
        </g>
        <g id="Grupo_112399" data-name="Grupo 112399">
          <g id="Grupo_112398" data-name="Grupo 112398" clip-path="url(#clip-path)">
            <path id="Trazado_177135" data-name="Trazado 177135" d="M2210.849,509.592a67.693,67.693,0,1,1-67.692-67.693,67.693,67.693,0,0,1,67.692,67.693" transform="translate(-1200.417 -255.588)" fill="#fff"/>
          </g>
        </g>
      </g>
      <g id="Grupo_142390" data-name="Grupo 142390" transform="translate(1600 19108.828) rotate(180)">
        <path id="Trazado_177150" data-name="Trazado 177150" d="M-6501.088-2160.521h-58.629l-17.576,21.221h-418.262l-21.327-21.221h-68.027" transform="translate(7593.097 11700)" fill="none" stroke="#8f52f5" stroke-width="2"/>
        <g id="Elipse_5425" data-name="Elipse 5425" transform="translate(1091 9532)" fill="none" stroke="#8f52f5" stroke-width="2">
          <circle cx="7" cy="7" r="7" stroke="none"/>
          <circle cx="7" cy="7" r="6" fill="none"/>
        </g>
        <g id="Elipse_5426" data-name="Elipse 5426" transform="translate(495 9532)" fill="none" stroke="#8f52f5" stroke-width="2">
          <circle cx="7" cy="7" r="7" stroke="none"/>
          <circle cx="7" cy="7" r="6" fill="none"/>
        </g>
      </g>
    </g>
    <path id="Trazado_192659" data-name="Trazado 192659" d="M.5.5,18,38.7H417.051L435.9.5Z" transform="translate(569 1960)" fill="#500c75"/>
    <g id="Grupo_142373" data-name="Grupo 142373" transform="translate(-188 88.001)">
      <circle id="Elipse_5423" data-name="Elipse 5423" cx="15.5" cy="15.5" r="15.5" transform="translate(549 1986)" fill="#483c8c" opacity="0.17"/>
      <circle id="Elipse_5424" data-name="Elipse 5424" cx="9.5" cy="9.5" r="9.5" transform="translate(555 1992)" fill="#483c8c" opacity="0.69"/>
      <text id="_" data-name="+" transform="translate(559 2008)" fill="#fff" font-size="20" font-family="Roboto-Regular, Roboto"><tspan x="0" y="0">+</tspan></text>
    </g>
    <g id="Grupo_142372" data-name="Grupo 142372" transform="translate(234 88.001)">
      <circle id="Elipse_5423-2" data-name="Elipse 5423" cx="15.5" cy="15.5" r="15.5" transform="translate(549 1986)" fill="#483c8c" opacity="0.17"/>
      <circle id="Elipse_5424-2" data-name="Elipse 5424" cx="9.5" cy="9.5" r="9.5" transform="translate(555 1992)" fill="#483c8c" opacity="0.69"/>
      <text id="_2" data-name="+" transform="translate(559 2008)" fill="#fff" font-size="20" font-family="Roboto-Regular, Roboto"><tspan x="0" y="0">+</tspan></text>
    </g>
    <g id="Grupo_142371" data-name="Grupo 142371" transform="translate(659 77.001)">
      <circle id="Elipse_5423-3" data-name="Elipse 5423" cx="15.5" cy="15.5" r="15.5" transform="translate(549 1986)" fill="#483c8c" opacity="0.17"/>
      <circle id="Elipse_5424-3" data-name="Elipse 5424" cx="9.5" cy="9.5" r="9.5" transform="translate(555 1992)" fill="#483c8c" opacity="0.69"/>
      <text id="_3" data-name="+" transform="translate(559 2008)" fill="#fff" font-size="20" font-family="Roboto-Regular, Roboto"><tspan x="0" y="0">+</tspan></text>
    </g>
    <g id="Grupo_142374" data-name="Grupo 142374" transform="translate(18 300.001)">
      <circle id="Elipse_5423-4" data-name="Elipse 5423" cx="15.5" cy="15.5" r="15.5" transform="translate(549 1986)" fill="#483c8c" opacity="0.17"/>
      <circle id="Elipse_5424-4" data-name="Elipse 5424" cx="9.5" cy="9.5" r="9.5" transform="translate(555 1992)" fill="#483c8c" opacity="0.69"/>
      <text id="_4" data-name="+" transform="translate(559 2008)" fill="#fff" font-size="20" font-family="Roboto-Regular, Roboto"><tspan x="0" y="0">+</tspan></text>
    </g>
    <g id="Grupo_142375" data-name="Grupo 142375" transform="translate(449 300.001)">
      <circle id="Elipse_5423-5" data-name="Elipse 5423" cx="15.5" cy="15.5" r="15.5" transform="translate(549 1986)" fill="#483c8c" opacity="0.17"/>
      <circle id="Elipse_5424-5" data-name="Elipse 5424" cx="9.5" cy="9.5" r="9.5" transform="translate(555 1992)" fill="#483c8c" opacity="0.69"/>
      <text id="_5" data-name="+" transform="translate(559 2008)" fill="#fff" font-size="20" font-family="Roboto-Regular, Roboto"><tspan x="0" y="0">+</tspan></text>
    </g>
    <text id="Elementos_de_un_reporte" data-name="Elementos de un reporte" transform="translate(600 1968)" fill="#fff" font-size="18" font-family="Roboto-Black, Roboto" font-weight="800"><tspan x="84.354" y="19">Elementos de un reporte</tspan></text>
    <text id="Objetivos" transform="translate(326 2118)" fill="#12263f" font-size="18" font-family="Roboto-Black, Roboto" font-weight="800"><tspan x="6.579" y="19">Objetivos</tspan></text>
    <text id="Tiempo" transform="translate(540 2240)" fill="#12263f" font-size="18" font-family="Roboto-Black, Roboto" font-weight="800"><tspan x="14.08" y="19">Tiempo</tspan></text>
    <text id="Público_objetivo" data-name="Público objetivo" transform="translate(729 2116)" fill="#12263f" font-size="18" font-family="Roboto-Black, Roboto" font-weight="800"><tspan x="2.429" y="19">Público objetivo</tspan></text>
    <text id="Distribución_de_informes" data-name="Distribución de informes" transform="translate(1161 2097)" fill="#12263f" font-size="18" font-family="Roboto-Black, Roboto" font-weight="800"><tspan x="6.499" y="19">Distribución de </tspan></text>
    <text id="Clasificación_de_informes" data-name="Clasificación de informes" transform="translate(945 2235)" fill="#12263f" font-size="18" font-family="Roboto-Black, Roboto" font-weight="800"><tspan x="3.102" y="19">Clasificación de </tspan></text>
    <g id="Grupo_148662" data-name="Grupo 148662" transform="translate(330.746 2227.334)">
      <g id="Grupo_148661" data-name="Grupo 148661" clip-path="url(#clip-path-12)">
        <path id="Trazado_210663" data-name="Trazado 210663" d="M47.851,18.966A23.467,23.467,0,1,0,64.288,35.4a2.6,2.6,0,0,1,5.018-1.376,28.67,28.67,0,1,1-20.08-20.08,2.6,2.6,0,0,1,1.915,2.508,2.643,2.643,0,0,1-.092.689,2.6,2.6,0,0,1-3.2,1.822M78.313,28.04a2.6,2.6,0,0,0-1.756,3.233A36.387,36.387,0,1,1,51.98,6.7a2.6,2.6,0,0,0,1.478-4.99A41.584,41.584,0,1,0,81.547,29.8,2.6,2.6,0,0,0,78.313,28.04ZM41.626,31.221a10.764,10.764,0,0,1,1.15.062,2.6,2.6,0,1,0,.566-5.172,15.83,15.83,0,0,0-1.716-.094,15.61,15.61,0,1,0,15.61,15.61,2.6,2.6,0,0,0-5.2,0A10.406,10.406,0,1,1,41.626,31.221ZM54.91,24.664l1.3-13a2.6,2.6,0,0,1,.749-1.582L66.276.762A2.6,2.6,0,0,1,70.71,2.4l.739,9.407,9.406.739a2.6,2.6,0,0,1,1.637,4.433L73.17,26.3a2.591,2.591,0,0,1-1.58.749l-13,1.3L43.466,43.467a2.6,2.6,0,0,1-3.679-3.679Zm5.4-1.721,9.836-.981,4.672-4.673-5.994-.471a2.6,2.6,0,0,1-2.389-2.389l-.472-6-4.673,4.673Z" fill="#8f52f5"/>
      </g>
    </g>
    <g id="Grupo_148664" data-name="Grupo 148664" transform="translate(543.072 2060.285)">
      <g id="Grupo_148663" data-name="Grupo 148663" clip-path="url(#clip-path-13)">
        <path id="Trazado_210664" data-name="Trazado 210664" d="M41.929,83.857A41.929,41.929,0,1,1,83.857,41.928,41.929,41.929,0,0,1,41.929,83.857m0-78.267A36.338,36.338,0,1,0,78.267,41.928,36.339,36.339,0,0,0,41.929,5.59m-11.992,52.3L43.913,43.913a2.8,2.8,0,0,0,.811-1.985V25.157a2.8,2.8,0,0,0-5.591,0V40.782L25.968,53.92a2.794,2.794,0,0,0-.016,3.953l.016.016a2.8,2.8,0,0,0,3.953.016l.016-.016" fill="#e01650"/>
      </g>
    </g>
    <g id="Grupo_148666" data-name="Grupo 148666" transform="translate(762.231 2235)">
      <g id="Grupo_148665" data-name="Grupo 148665" clip-path="url(#clip-path-14)">
        <path id="Trazado_210665" data-name="Trazado 210665" d="M66.538,52.891a2.213,2.213,0,0,0,2.213-2.213V39.613a13.293,13.293,0,0,0-7.332-11.87,7.377,7.377,0,1,0-11.9,0,13.165,13.165,0,0,0-1.688,1.013,13.379,13.379,0,0,0-3.868-3.091,8.114,8.114,0,1,0-12.4,0,13.376,13.376,0,0,0-3.868,3.09,13.277,13.277,0,0,0-1.689-1.011,7.377,7.377,0,1,0-11.894,0,13.293,13.293,0,0,0-7.332,11.87V50.678A2.213,2.213,0,0,0,9,52.891H24.491V55.1A2.213,2.213,0,0,0,26.7,57.317h22.13A2.213,2.213,0,0,0,51.047,55.1V52.891ZM52.522,23.384a2.951,2.951,0,1,1,2.951,2.951,2.954,2.954,0,0,1-2.951-2.951m2.951,7.377a8.862,8.862,0,0,1,8.852,8.852v8.852H51.047V37.4a13.219,13.219,0,0,0-.915-4.845,8.779,8.779,0,0,1,5.341-1.794M34.081,20.434a3.688,3.688,0,1,1,3.688,3.688,3.692,3.692,0,0,1-3.688-3.688m-16.967,2.95a2.951,2.951,0,1,1,2.951,2.951,2.954,2.954,0,0,1-2.951-2.951m-5.9,25.081V39.613a8.85,8.85,0,0,1,14.193-7.057,13.213,13.213,0,0,0-.915,4.844V48.465Zm35.408,4.426h-17.7V37.4a8.852,8.852,0,1,1,17.7,0Z" fill="#1acec3"/>
        <path id="Trazado_210666" data-name="Trazado 210666" d="M73.324,51.784A2.213,2.213,0,0,0,71.111,54V65.21H59.9a2.213,2.213,0,0,0,0,4.426H73.324a2.213,2.213,0,0,0,2.213-2.213V54a2.213,2.213,0,0,0-2.213-2.213" fill="#1acec3"/>
        <path id="Trazado_210667" data-name="Trazado 210667" d="M15.639,65.21H4.425V54A2.213,2.213,0,1,0,0,54V67.423a2.213,2.213,0,0,0,2.213,2.213H15.639a2.213,2.213,0,0,0,0-4.426" fill="#1acec3"/>
        <path id="Trazado_210668" data-name="Trazado 210668" d="M2.213,17.852a2.213,2.213,0,0,0,2.213-2.213V4.426H15.639a2.213,2.213,0,0,0,0-4.426H2.213A2.213,2.213,0,0,0,0,2.213V15.639a2.213,2.213,0,0,0,2.213,2.213" fill="#1acec3"/>
        <path id="Trazado_210669" data-name="Trazado 210669" d="M73.324,0H59.751a2.213,2.213,0,1,0,0,4.426h11.36V15.639a2.213,2.213,0,0,0,4.426,0V2.213A2.213,2.213,0,0,0,73.324,0" fill="#1acec3"/>
      </g>
    </g>
    <g id="Grupo_148668" data-name="Grupo 148668" transform="translate(979.771 2067.543)">
      <g id="Grupo_148667" data-name="Grupo 148667" clip-path="url(#clip-path-15)">
        <path id="Trazado_210670" data-name="Trazado 210670" d="M45.1,47.551a3.406,3.406,0,0,0,2.459-1.037l5.794-5.94a3.435,3.435,0,0,0-4.919-4.8l-3.4,3.485-.6-.579a3.435,3.435,0,0,0-4.789,4.925l3.054,2.97a3.419,3.419,0,0,0,2.4.972M41.17,40.3a1.221,1.221,0,0,1,1.725-.024l1.388,1.35a1.108,1.108,0,0,0,1.565-.021l4.171-4.276a1.22,1.22,0,1,1,1.747,1.7l-5.793,5.94a1.226,1.226,0,0,1-1.724.023l-3.055-2.97A1.221,1.221,0,0,1,41.17,40.3Z" fill="#5e8eca"/>
        <path id="Trazado_210671" data-name="Trazado 210671" d="M36.537,48.305a1.108,1.108,0,0,0-1.769,1.334,14.626,14.626,0,0,0,1.326,1.523,14.408,14.408,0,1,0-3.539-5.8,1.108,1.108,0,1,0,2.11-.674,12.214,12.214,0,1,1,3,4.906A12.388,12.388,0,0,1,36.537,48.305Z" fill="#5e8eca"/>
        <path id="Trazado_210672" data-name="Trazado 210672" d="M73.933,61.2l-6.987-6.987a1.109,1.109,0,0,0-1.567,0l-.043.043-2.689-2.689a19.456,19.456,0,0,0,3.1-9.367,1.108,1.108,0,0,0-2.211-.14A17.261,17.261,0,0,1,46.307,58.234h-.1A17.266,17.266,0,1,1,63.295,37.9a1.108,1.108,0,1,0,2.181-.391A19.512,19.512,0,0,0,55.439,23.757V14.831a1.121,1.121,0,0,0-.325-.783L41.389.324A1.124,1.124,0,0,0,40.606,0H3.323A3.326,3.326,0,0,0,0,3.323v9.308a1.108,1.108,0,1,0,2.215,0V3.323A1.109,1.109,0,0,1,3.324,2.215H39.5v10.4a3.327,3.327,0,0,0,3.323,3.323h10.4v6.815A19.578,19.578,0,0,0,46.5,21.49c-.011,0-.022,0-.033,0H21.739a1.108,1.108,0,0,0,0,2.215H37.247a19.431,19.431,0,0,0-4.418,3.173H21.739a1.108,1.108,0,0,0,0,2.215h9.1A19.286,19.286,0,0,0,27.2,37.007H21.739a1.108,1.108,0,0,0,0,2.215h5.138q-.077.867-.078,1.746,0,.722.052,1.435H21.74a1.108,1.108,0,1,0,0,2.215h5.4a19.288,19.288,0,0,0,3.7,8.234h-9.1a1.108,1.108,0,1,0,0,2.215H32.833a19.418,19.418,0,0,0,4.411,3.167h-15.5a1.108,1.108,0,1,0,0,2.215H46.29a19.577,19.577,0,0,0,6.933-1.267V72.135a1.108,1.108,0,0,1-1.107,1.108H3.323a1.109,1.109,0,0,1-1.107-1.108V17.062a1.108,1.108,0,0,0-2.216,0V72.135a3.327,3.327,0,0,0,3.323,3.322H52.116a3.327,3.327,0,0,0,3.323-3.323V58.178q.741-.393,1.454-.855l2.688,2.688a1.117,1.117,0,0,0-.042,1.609l6.988,6.987A5.237,5.237,0,0,0,73.933,61.2ZM42.821,13.724a1.109,1.109,0,0,1-1.108-1.108V3.781l9.944,9.943ZM58.7,56q.708-.587,1.373-1.248t1.248-1.373l2.449,2.447-2.622,2.622ZM72.367,67.041a3.037,3.037,0,0,1-4.274,0l-6.205-6.2,4.274-4.273,6.2,6.2a3.035,3.035,0,0,1,0,4.273" fill="#5e8eca"/>
        <path id="Trazado_210673" data-name="Trazado 210673" d="M10.052,30.183H14.9a2.48,2.48,0,0,0,2.478-2.477V22.861A2.48,2.48,0,0,0,14.9,20.384H10.052a2.48,2.48,0,0,0-2.477,2.477v4.845a2.48,2.48,0,0,0,2.477,2.477M9.79,22.861a.262.262,0,0,1,.262-.262H14.9a.262.262,0,0,1,.262.262v4.845a.262.262,0,0,1-.262.262H10.052a.262.262,0,0,1-.262-.262Z" fill="#5e8eca"/>
        <path id="Trazado_210674" data-name="Trazado 210674" d="M7.575,43.235a2.48,2.48,0,0,0,2.477,2.477H14.9a2.48,2.48,0,0,0,2.478-2.477V38.39A2.48,2.48,0,0,0,14.9,35.913H10.052A2.48,2.48,0,0,0,7.575,38.39ZM9.79,38.39a.262.262,0,0,1,.262-.262H14.9a.262.262,0,0,1,.262.262v4.845a.262.262,0,0,1-.262.262H10.052a.262.262,0,0,1-.262-.262Z" fill="#5e8eca"/>
        <path id="Trazado_210675" data-name="Trazado 210675" d="M7.575,59.079a2.48,2.48,0,0,0,2.477,2.477H14.9a2.48,2.48,0,0,0,2.478-2.477V54.234A2.48,2.48,0,0,0,14.9,51.757H10.052a2.48,2.48,0,0,0-2.477,2.477ZM9.79,54.234a.262.262,0,0,1,.262-.262H14.9a.262.262,0,0,1,.262.262v4.845a.262.262,0,0,1-.262.262H10.052a.262.262,0,0,1-.262-.262Z" fill="#5e8eca"/>
      </g>
    </g>
    <g id="Grupo_148670" data-name="Grupo 148670" transform="translate(1194.92 2232)">
      <g id="Grupo_148669" data-name="Grupo 148669" clip-path="url(#clip-path-16)">
        <path id="Trazado_210676" data-name="Trazado 210676" d="M52.511,25.388A1.491,1.491,0,0,1,51.02,23.9V13.706a1.49,1.49,0,1,1,2.981,0V23.9a1.49,1.49,0,0,1-1.49,1.491" fill="#8869a3"/>
        <path id="Trazado_210677" data-name="Trazado 210677" d="M52.5,7.419A1.49,1.49,0,1,1,51.013,8.91,1.49,1.49,0,0,1,52.5,7.419" fill="#8869a3"/>
        <path id="Trazado_210678" data-name="Trazado 210678" d="M68.16,15.658A15.648,15.648,0,0,0,43,3.226H5.424A5.43,5.43,0,0,0,0,8.65V62.871a5.43,5.43,0,0,0,5.424,5.424h4.73v2.594a5.43,5.43,0,0,0,5.424,5.424H54.549a5.43,5.43,0,0,0,5.424-5.424V50.215a1.49,1.49,0,0,0-2.981,0V70.889a2.446,2.446,0,0,1-2.443,2.443H15.578a2.446,2.446,0,0,1-2.443-2.443V68.295H44.4a5.431,5.431,0,0,0,5.425-5.424V31.087a15.715,15.715,0,0,0,7.172-.426v6.078a1.49,1.49,0,1,0,2.981,0V29.417A15.673,15.673,0,0,0,68.16,15.658ZM46.839,62.871A2.447,2.447,0,0,1,44.4,65.314H5.424a2.446,2.446,0,0,1-2.443-2.443V8.65A2.446,2.446,0,0,1,5.424,6.207h34.6A15.578,15.578,0,0,0,36.862,15H11.48a1.491,1.491,0,0,0-1.49,1.491v6.3a1.49,1.49,0,0,0,1.49,1.49H38.339a1.478,1.478,0,0,0,.9-.3,15.745,15.745,0,0,0,7.6,6.287ZM36.848,17.978v3.314H12.971V17.978ZM52.5,28.336A12.678,12.678,0,1,1,65.179,15.658,12.691,12.691,0,0,1,52.5,28.336" fill="#8869a3"/>
        <path id="Trazado_210679" data-name="Trazado 210679" d="M58.482,44.941a1.491,1.491,0,1,1,1.452-1.151,1.5,1.5,0,0,1-1.452,1.151" fill="#8869a3"/>
        <path id="Trazado_210680" data-name="Trazado 210680" d="M38.339,32.438H11.48a1.49,1.49,0,0,1,0-2.981H38.339a1.49,1.49,0,0,1,0,2.981" fill="#8869a3"/>
        <path id="Trazado_210681" data-name="Trazado 210681" d="M38.339,39.508H11.48a1.49,1.49,0,0,1,0-2.981H38.339a1.49,1.49,0,0,1,0,2.981" fill="#8869a3"/>
        <path id="Trazado_210682" data-name="Trazado 210682" d="M38.339,46.577H11.48a1.49,1.49,0,0,1,0-2.981H38.339a1.49,1.49,0,0,1,0,2.981" fill="#8869a3"/>
        <path id="Trazado_210683" data-name="Trazado 210683" d="M38.339,53.646H11.48a1.49,1.49,0,0,1,0-2.981H38.339a1.49,1.49,0,0,1,0,2.981" fill="#8869a3"/>
      </g>
    </g>
  </g>
</svg>
