<svg xmlns="http://www.w3.org/2000/svg" xmlns:xlink="http://www.w3.org/1999/xlink" width="925" height="260" viewBox="0 0 925 260">
  <defs>
    <clipPath id="clip-path">
      <rect id="Rectángulo_40963" data-name="Rectángulo 40963" width="166.32" height="166.32" fill="none"/>
    </clipPath>
  </defs>
  <g id="Grupo_148950" data-name="Grupo 148950" transform="translate(-338 -1389)">
    <g id="Grupo_148908" data-name="Grupo 148908" transform="translate(53)">
      <rect id="Rectángulo_37733" data-name="Rectángulo 37733" width="295" height="225" transform="translate(285 1424)" fill="#e9dcfd"/>
      <g id="Grupo_148898" data-name="Grupo 148898" transform="translate(285 1389)">
        <path id="Trazado_213059" data-name="Trazado 213059" d="M208.989,3.159,190.844,34.592l18.15,31.433h55.015l18.143-31.433L264.009,3.159Z" transform="translate(12.848 0.213)" fill="#c7a6ff"/>
        <path id="Trazado_213060" data-name="Trazado 213060" d="M256.817,3.159H201.8L183.66,34.592,201.8,66.025h55.016l18.144-31.433Z" transform="translate(12.364 0.213)" fill="#8f52f5"/>
        <path id="Trazado_213061" data-name="Trazado 213061" d="M18.145,3.159,0,34.592,18.145,66.024H73.158L91.309,34.592,73.165,3.159Z" transform="translate(0 0.213)" fill="#c7a6ff"/>
        <path id="Trazado_213062" data-name="Trazado 213062" d="M25.336,3.159H80.349L98.493,34.592,80.349,66.025H25.332L7.188,34.593Z" transform="translate(0.484 0.213)" fill="#8f52f5"/>
        <path id="Trazado_213063" data-name="Trazado 213063" d="M32.544,0,11.713,34.8l20.831,34.8h228.4l20.83-34.8L260.943,0Z" transform="translate(0.789)" fill="#500c75"/>
      </g>
      <text id="Informe_ejecutivo" data-name="Informe ejecutivo" transform="translate(362 1430)" fill="#fff" font-size="18" font-family="Roboto-Black, Roboto" font-weight="800"><tspan x="0" y="0">Informe ejecutivo</tspan></text>
      <g id="Grupo_148903" data-name="Grupo 148903" transform="translate(350.84 1469)">
        <rect id="Rectángulo_40961" data-name="Rectángulo 40961" width="22.976" height="21.649" transform="translate(71.672 113.787)" fill="#918291"/>
        <rect id="Rectángulo_40962" data-name="Rectángulo 40962" width="8.093" height="21.148" transform="translate(71.672 114.037)" fill="#7a6d79"/>
        <g id="Grupo_148902" data-name="Grupo 148902">
          <g id="Grupo_148901" data-name="Grupo 148901" clip-path="url(#clip-path)">
            <path id="Trazado_213074" data-name="Trazado 213074" d="M145.966,102.254H20.355l-1.275.25v5.791a5.749,5.749,0,0,0,5.742,5.742H141.5a5.749,5.749,0,0,0,5.742-5.742V102.5Z" fill="#a79ba7"/>
            <path id="Trazado_213075" data-name="Trazado 213075" d="M36.6,108.295V102.5H19.08v5.791a5.749,5.749,0,0,0,5.742,5.742H42.344a5.749,5.749,0,0,1-5.742-5.742" fill="#918291"/>
            <path id="Trazado_213076" data-name="Trazado 213076" d="M142.786,33.706h-33.4V89.017a1.04,1.04,0,0,1-1.038,1.038H57.97a1.039,1.039,0,0,1-1.038-1.038V33.706h-33.4A4.454,4.454,0,0,0,19.08,38.16V102.5H147.24V38.16a4.454,4.454,0,0,0-4.454-4.454" fill="#7a6d79"/>
            <path id="Trazado_213077" data-name="Trazado 213077" d="M118.183,147.184H48.137a1.288,1.288,0,0,1-1.288-1.288v-5.558A5.153,5.153,0,0,1,52,135.186h62.317a5.153,5.153,0,0,1,5.153,5.152V145.9A1.29,1.29,0,0,1,118.183,147.184Z" fill="#a79ba7"/>
            <path id="Trazado_213078" data-name="Trazado 213078" d="M60.262,145.9v-5.557a5.153,5.153,0,0,1,5.153-5.153H52a5.153,5.153,0,0,0-5.152,5.153V145.9a1.288,1.288,0,0,0,1.288,1.288H61.55a1.288,1.288,0,0,1-1.288-1.288" fill="#918291"/>
            <path id="Trazado_213079" data-name="Trazado 213079" d="M142.734,37.46H109.387V89.016a1.038,1.038,0,0,1-1.037,1.038H57.97a1.038,1.038,0,0,1-1.038-1.038V37.46H23.585a.751.751,0,0,0-.751.751V98a.751.751,0,0,0,.751.751H142.734a.751.751,0,0,0,.751-.751V38.211a.751.751,0,0,0-.751-.751" fill="#eaf6ff"/>
            <path id="Trazado_213080" data-name="Trazado 213080" d="M23.586,37.46a.751.751,0,0,0-.751.751V98a.751.751,0,0,0,.751.751H35.532V38.159a2.566,2.566,0,0,1,.1-.7Z" fill="#d8ecfe"/>
            <path id="Trazado_213081" data-name="Trazado 213081" d="M108.35,90.305H57.97a1.288,1.288,0,0,1-1.288-1.288V20.425a1.289,1.289,0,0,1,1.288-1.289h50.38a1.289,1.289,0,0,1,1.288,1.289V89.017a1.288,1.288,0,0,1-1.288,1.288" fill="#fff3de"/>
            <path id="Trazado_213082" data-name="Trazado 213082" d="M64.728,89.017V20.425a1.288,1.288,0,0,1,1.288-1.288H57.97a1.288,1.288,0,0,0-1.288,1.288V89.017a1.288,1.288,0,0,0,1.288,1.288h8.046a1.288,1.288,0,0,1-1.288-1.288" fill="#ffe5c2"/>
            <path id="Trazado_213083" data-name="Trazado 213083" d="M133.861,82.1H121.139a1.681,1.681,0,0,1-1.681-1.681V67.692a1.681,1.681,0,0,1,1.681-1.68h12.722a1.681,1.681,0,0,1,1.681,1.68V80.414a1.681,1.681,0,0,1-1.681,1.681" fill="#00c27a"/>
            <path id="Trazado_213084" data-name="Trazado 213084" d="M126.508,80.415V67.693a1.681,1.681,0,0,1,1.681-1.681h-7.05a1.681,1.681,0,0,0-1.68,1.681V80.415a1.681,1.681,0,0,0,1.68,1.681h7.05a1.681,1.681,0,0,1-1.681-1.681" fill="#09a755"/>
            <path id="Trazado_213085" data-name="Trazado 213085" d="M133.665,92.182H121.337a1.877,1.877,0,1,1,0-3.755h12.328a1.877,1.877,0,0,1,0,3.755" fill="#0593fc"/>
            <path id="Trazado_213086" data-name="Trazado 213086" d="M133.861,61.921H121.139a1.68,1.68,0,0,1-1.68-1.681V47.518a1.68,1.68,0,0,1,1.68-1.68h12.722a1.681,1.681,0,0,1,1.681,1.68V60.24a1.681,1.681,0,0,1-1.681,1.681" fill="#fe6c55"/>
            <path id="Trazado_213087" data-name="Trazado 213087" d="M126.508,60.241V47.519a1.681,1.681,0,0,1,1.681-1.681h-7.05a1.681,1.681,0,0,0-1.68,1.681V60.241a1.681,1.681,0,0,0,1.68,1.681h7.05a1.681,1.681,0,0,1-1.681-1.681" fill="#fd544d"/>
            <path id="Trazado_213088" data-name="Trazado 213088" d="M88.624,30.54H77.7a1.878,1.878,0,1,1,0-3.755H88.624a1.878,1.878,0,0,1,0,3.755" fill="#0593fc"/>
            <path id="Trazado_213089" data-name="Trazado 213089" d="M96.049,74.81H70.271a1.877,1.877,0,0,1,0-3.755H96.049a1.877,1.877,0,0,1,0,3.755" fill="#fe6c55"/>
            <path id="Trazado_213090" data-name="Trazado 213090" d="M96.049,82.1H70.271a1.878,1.878,0,0,1,0-3.755H96.049a1.878,1.878,0,0,1,0,3.755" fill="#fe6c55"/>
            <path id="Trazado_213091" data-name="Trazado 213091" d="M83.16,37.348A12.889,12.889,0,1,1,70.271,50.237,12.89,12.89,0,0,1,83.16,37.348" fill="#60b7ff"/>
            <path id="Trazado_213092" data-name="Trazado 213092" d="M75.675,50.237a12.892,12.892,0,0,1,10.187-12.6,12.889,12.889,0,1,0,0,25.206A12.892,12.892,0,0,1,75.675,50.237Z" fill="#26a6fe"/>
            <path id="Trazado_213093" data-name="Trazado 213093" d="M83.16,63.126A12.889,12.889,0,0,0,96.049,50.237H83.16Z" fill="#fed402"/>
            <path id="Trazado_213094" data-name="Trazado 213094" d="M45.824,70.327H31.814a1.878,1.878,0,0,1,0-3.755h14.01a1.878,1.878,0,0,1,0,3.755" fill="#8ac9fe"/>
            <path id="Trazado_213095" data-name="Trazado 213095" d="M45.824,77.612H31.814a1.877,1.877,0,0,1,0-3.755h14.01a1.877,1.877,0,0,1,0,3.755" fill="#8ac9fe"/>
            <path id="Trazado_213096" data-name="Trazado 213096" d="M45.824,84.9H31.814a1.878,1.878,0,0,1,0-3.755h14.01a1.878,1.878,0,0,1,0,3.755" fill="#8ac9fe"/>
            <path id="Trazado_213097" data-name="Trazado 213097" d="M40.01,92.182h-8.2a1.877,1.877,0,0,1,0-3.755h8.2a1.877,1.877,0,0,1,0,3.755" fill="#8ac9fe"/>
            <path id="Trazado_213098" data-name="Trazado 213098" d="M40.01,49.593h-8.2a1.877,1.877,0,0,1,0-3.755h8.2a1.877,1.877,0,0,1,0,3.755" fill="#26a6fe"/>
            <path id="Trazado_213099" data-name="Trazado 213099" d="M45.824,56.878H31.814a1.877,1.877,0,0,1,0-3.755h14.01a1.877,1.877,0,0,1,0,3.755" fill="#26a6fe"/>
            <path id="Trazado_213100" data-name="Trazado 213100" d="M83.16,35.471A14.766,14.766,0,1,0,97.926,50.237,14.783,14.783,0,0,0,83.16,35.471M72.148,50.237a11.011,11.011,0,0,1,21.86-1.877H83.16a1.877,1.877,0,0,0-1.878,1.877V61.085a11.028,11.028,0,0,1-9.134-10.848M85.037,61.085V52.114h8.971a11.036,11.036,0,0,1-8.971,8.971" fill="#0593fc"/>
          </g>
        </g>
      </g>
    </g>
    <g id="Grupo_148909" data-name="Grupo 148909" transform="translate(53)">
      <rect id="Rectángulo_37734" data-name="Rectángulo 37734" width="295" height="224" transform="translate(600 1425)" fill="#e4fdfc"/>
      <g id="Grupo_148899" data-name="Grupo 148899" transform="translate(600 1392)">
        <path id="Trazado_213069" data-name="Trazado 213069" d="M207.844,3.159l-17,29.45,17,29.45h51.545l17-29.45-17-29.45Z" transform="translate(18.607)" fill="#79f5ed"/>
        <path id="Trazado_213070" data-name="Trazado 213070" d="M252.2,3.159H200.66l-17,29.45,17,29.451h51.546l17-29.45Z" transform="translate(18.607)" fill="#1ed1c5"/>
        <path id="Trazado_213071" data-name="Trazado 213071" d="M17,3.159,0,32.609l17,29.45H68.544L85.55,32.609l-17-29.45Z" fill="#79f5ed"/>
        <path id="Trazado_213072" data-name="Trazado 213072" d="M24.191,3.159H75.734l17,29.45-17,29.451H24.188l-17-29.45Z" fill="#1ed1c5"/>
        <path id="Trazado_213073" data-name="Trazado 213073" d="M32.665,0,11.713,32.608,32.665,65.216H262.395l20.951-32.608L262.395,0Z" fill="#27a79f"/>
      </g>
      <text id="Informe_técnico" data-name="Informe técnico" transform="translate(676.887 1431)" fill="#fff" font-size="20" font-family="Roboto-Black, Roboto" font-weight="800"><tspan x="0" y="0">Informe técnico</tspan></text>
      <g id="Grupo_148905" data-name="Grupo 148905" transform="translate(664.227 1469)">
        <g id="Grupo_148904" data-name="Grupo 148904" clip-path="url(#clip-path)">
          <path id="Trazado_213101" data-name="Trazado 213101" d="M116.357,37.438c-.122-.27-.237-.546-.34-.819a1.323,1.323,0,0,0-1.233-.845h-2.449a.807.807,0,0,1-.791-.65,18.119,18.119,0,0,1,0-7.048.808.808,0,0,1,.791-.65h2.449a1.324,1.324,0,0,0,1.233-.845c.1-.274.218-.549.34-.819a1.32,1.32,0,0,0-.273-1.472l-.131-.131H25.812a4.172,4.172,0,0,0-4.172,4.172v9.82l.843.261H116.4a1.31,1.31,0,0,0-.039-.974" fill="#26a6fe"/>
          <path id="Trazado_213102" data-name="Trazado 213102" d="M32.91,28.332a4.173,4.173,0,0,1,4.173-4.173H25.812a4.173,4.173,0,0,0-4.173,4.173v9.82H32.91Z" fill="#0593fc"/>
          <path id="Trazado_213103" data-name="Trazado 213103" d="M30.037,29.2a1.957,1.957,0,1,1-1.957,1.957A1.957,1.957,0,0,1,30.037,29.2" fill="#fed402"/>
          <path id="Trazado_213104" data-name="Trazado 213104" d="M36.757,29.2A1.957,1.957,0,1,1,34.8,31.155,1.957,1.957,0,0,1,36.757,29.2" fill="#fe6c55"/>
          <path id="Trazado_213105" data-name="Trazado 213105" d="M43.478,29.2a1.957,1.957,0,1,1-1.957,1.957A1.957,1.957,0,0,1,43.478,29.2" fill="#00c27a"/>
          <path id="Trazado_213106" data-name="Trazado 213106" d="M80.6,126.8a7.812,7.812,0,0,1,7.8-7.8H90.48V78.731a19.922,19.922,0,0,1,19.9-19.9h12.257a19.778,19.778,0,0,1,9.027,2.174l.137-.23V49.523a18.051,18.051,0,0,1-6.027-.169.809.809,0,0,1-.65-.792V46.114a1.322,1.322,0,0,0-.845-1.233c-.276-.1-.551-.219-.819-.341a1.293,1.293,0,0,0-.537-.115,1.332,1.332,0,0,0-.936.388l-1.732,1.732a.808.808,0,0,1-1.021.1,18.08,18.08,0,0,1-4.98-4.981.808.808,0,0,1,.1-1.02l1.733-1.732a1.323,1.323,0,0,0,.372-.76H21.64v106a2.687,2.687,0,0,0,2.688,2.688H80.337l.261-.436Z" fill="#f3f0f3"/>
          <path id="Trazado_213107" data-name="Trazado 213107" d="M32.91,144.15v-106H21.639v106a2.687,2.687,0,0,0,2.688,2.688H35.6a2.687,2.687,0,0,1-2.688-2.688" fill="#e2dee2"/>
          <path id="Trazado_213108" data-name="Trazado 213108" d="M144.615,118.735h-2.079v.875a2.429,2.429,0,0,1-2.427,2.427h-47.2a2.429,2.429,0,0,1-2.427-2.427v-.875H88.4a8.064,8.064,0,0,0-8.064,8.064v20.04h69.655a2.689,2.689,0,0,0,2.688-2.688V126.8A8.066,8.066,0,0,0,144.615,118.735Z" fill="#ffa799"/>
          <path id="Trazado_213109" data-name="Trazado 213109" d="M92.907,122.3a2.687,2.687,0,0,1-2.688-2.688v-.876H88.4a8.064,8.064,0,0,0-8.064,8.065v20.039H94.922V126.8a8.03,8.03,0,0,1,1.372-4.5Z" fill="#fe8f83"/>
          <path id="Trazado_213110" data-name="Trazado 213110" d="M122.636,58.57H110.379a20.16,20.16,0,0,0-20.16,20.161V119.61a2.687,2.687,0,0,0,2.688,2.688h10.952l12.786-3.119L129.17,122.3h10.939a2.688,2.688,0,0,0,2.688-2.688V78.731A20.161,20.161,0,0,0,122.636,58.57" fill="#7a6d79"/>
          <path id="Trazado_213111" data-name="Trazado 213111" d="M93.031,87.331h4.088v-.758a4.033,4.033,0,0,1,4.032-4.033H103.4V78.731a20.156,20.156,0,0,1,19.7-20.149c-.154,0-.306-.012-.46-.012H110.38A20.161,20.161,0,0,0,90.219,78.731v9.4A5.347,5.347,0,0,1,93.031,87.331Z" fill="#685e68"/>
          <path id="Trazado_213112" data-name="Trazado 213112" d="M104.191,121.517a2.677,2.677,0,0,1-.795-1.907v-7.045a14.768,14.768,0,0,1-6.21-10.692H93.031a5.344,5.344,0,0,1-2.812-.8V119.61a2.687,2.687,0,0,0,2.688,2.688h11.284Z" fill="#685e68"/>
          <path id="Trazado_213113" data-name="Trazado 213113" d="M121.113,115H111.9a14.431,14.431,0,0,1-7.712-2.226v13.748a1.344,1.344,0,0,0,2.18,1.052l9.3-7.386a1.346,1.346,0,0,1,1.672,0l9.3,7.386a1.344,1.344,0,0,0,2.18-1.052V112.774A14.431,14.431,0,0,1,121.113,115Z" fill="#fff"/>
          <path id="Trazado_213114" data-name="Trazado 213114" d="M121.113,115H111.9c-.418,0-.831-.022-1.241-.057L115.252,127a1.344,1.344,0,0,0,2.512,0l4.59-12.062C121.944,114.978,121.531,115,121.113,115Z" fill="#fed2a4"/>
          <path id="Trazado_213115" data-name="Trazado 213115" d="M97.379,100.476V87.33H93.03a5.376,5.376,0,0,0-5.376,5.377V96.5a5.376,5.376,0,0,0,5.376,5.377h4.418c-.044-.46-.069-.926-.069-1.4" fill="#f6a96c"/>
          <path id="Trazado_213116" data-name="Trazado 213116" d="M139.985,87.331h-4.349v13.146c0,.471-.024.936-.068,1.4h4.417a5.376,5.376,0,0,0,5.376-5.376v-3.79a5.376,5.376,0,0,0-5.376-5.376" fill="#ffbd86"/>
          <path id="Trazado_213117" data-name="Trazado 213117" d="M128.95,76.85a3.768,3.768,0,0,1,2.331-.2A6.062,6.062,0,0,1,135.9,82.54v17.936a14.786,14.786,0,0,1-14.785,14.785H111.9a14.785,14.785,0,0,1-14.784-14.785v-13.9a4.032,4.032,0,0,1,4.032-4.032h12.741a6.71,6.71,0,0,0,2.574-.513Z" fill="#fed2a4"/>
          <path id="Trazado_213118" data-name="Trazado 213118" d="M105.637,100.476v-13.9a4.032,4.032,0,0,1,4.032-4.032h-8.518a4.032,4.032,0,0,0-4.032,4.032v13.9A14.785,14.785,0,0,0,111.9,115.261h8.519a14.785,14.785,0,0,1-14.785-14.785" fill="#ffbd86"/>
          <path id="Trazado_213119" data-name="Trazado 213119" d="M107.312,94.093a1.957,1.957,0,0,1-1.957-1.957v-3.07a1.957,1.957,0,1,1,3.914,0v3.07a1.957,1.957,0,0,1-1.957,1.957" fill="#a44f3e"/>
          <path id="Trazado_213120" data-name="Trazado 213120" d="M125.7,94.093a1.957,1.957,0,0,1-1.957-1.957v-3.07a1.957,1.957,0,1,1,3.914,0v3.07a1.957,1.957,0,0,1-1.957,1.957" fill="#a44f3e"/>
          <path id="Trazado_213121" data-name="Trazado 213121" d="M116.507,100.6a1.949,1.949,0,0,1-1.311-.5l-2.45-2.213a1.959,1.959,0,0,1-.471-2.261l2.45-5.4a1.957,1.957,0,1,1,3.565,1.616l-1.86,4.1,1.39,1.255a1.957,1.957,0,0,1-1.313,3.409Z" fill="#a44f3e"/>
          <path id="Trazado_213122" data-name="Trazado 213122" d="M116.508,108.693a9.839,9.839,0,0,1-7.007-2.9,1.957,1.957,0,0,1,2.767-2.767,5.992,5.992,0,0,0,8.48,0,1.957,1.957,0,0,1,2.768,2.768A9.852,9.852,0,0,1,116.508,108.693Z" fill="#a44f3e"/>
          <path id="Trazado_213123" data-name="Trazado 213123" d="M43.711,82.105V71.148a.806.806,0,0,0-.807-.806h-5.61a.806.806,0,0,0-.806.806V82.105Z" fill="#00c27a"/>
          <path id="Trazado_213124" data-name="Trazado 213124" d="M39.954,70.342h-2.66a.806.806,0,0,0-.806.806V82.105h2.66V71.148a.806.806,0,0,1,.806-.806" fill="#09a755"/>
          <path id="Trazado_213125" data-name="Trazado 213125" d="M57.435,82.105V66.021a.807.807,0,0,0-.807-.807h-5.61a.806.806,0,0,0-.806.807V82.105Z" fill="#26a6fe"/>
          <path id="Trazado_213126" data-name="Trazado 213126" d="M53.783,65.214H51.018a.807.807,0,0,0-.807.807V82.105h2.766V66.021a.806.806,0,0,1,.806-.807" fill="#0593fc"/>
          <path id="Trazado_213127" data-name="Trazado 213127" d="M71.159,82.105V60.573a.807.807,0,0,0-.807-.807h-5.61a.807.807,0,0,0-.806.807V82.105Z" fill="#fe6c55"/>
          <path id="Trazado_213128" data-name="Trazado 213128" d="M67.352,59.766h-2.61a.806.806,0,0,0-.806.807V82.105h2.609V60.573a.807.807,0,0,1,.807-.807" fill="#fd544d"/>
          <path id="Trazado_213129" data-name="Trazado 213129" d="M73.181,95.455H34.465a1.957,1.957,0,0,1,0-3.914H73.181a1.957,1.957,0,0,1,0,3.914" fill="#685e68"/>
          <path id="Trazado_213130" data-name="Trazado 213130" d="M73.181,112.966H34.465a1.957,1.957,0,0,1,0-3.914H73.181a1.957,1.957,0,1,1,0,3.914" fill="#a79ba7"/>
          <path id="Trazado_213131" data-name="Trazado 213131" d="M73.181,122.036H34.465a1.957,1.957,0,0,1,0-3.914H73.181a1.957,1.957,0,0,1,0,3.914" fill="#a79ba7"/>
          <path id="Trazado_213132" data-name="Trazado 213132" d="M56.442,131.1H34.465a1.957,1.957,0,1,1,0-3.914H56.442a1.957,1.957,0,1,1,0,3.914" fill="#a79ba7"/>
          <path id="Trazado_213133" data-name="Trazado 213133" d="M43.367,51.709H36.134a1.957,1.957,0,0,1,0-3.914h7.233a1.957,1.957,0,1,1,0,3.914" fill="#a79ba7"/>
          <path id="Trazado_213134" data-name="Trazado 213134" d="M72.02,51.709H50.043a1.957,1.957,0,1,1,0-3.914H72.02a1.957,1.957,0,0,1,0,3.914" fill="#a79ba7"/>
          <path id="Trazado_213135" data-name="Trazado 213135" d="M142.7,24.474l1.732-1.732a1.069,1.069,0,0,0,.131-1.351,18.459,18.459,0,0,0-5.052-5.052,1.069,1.069,0,0,0-1.351.131L136.423,18.2a1.054,1.054,0,0,1-1.18.22q-.411-.186-.834-.347a1.055,1.055,0,0,1-.677-.989V14.638a1.067,1.067,0,0,0-.86-1.047,18.4,18.4,0,0,0-7.149,0,1.069,1.069,0,0,0-.861,1.048v2.448a1.055,1.055,0,0,1-.676.989c-.282.107-.561.223-.834.347a1.058,1.058,0,0,1-1.181-.22l-1.732-1.732a1.068,1.068,0,0,0-1.35-.131,18.446,18.446,0,0,0-5.052,5.052,1.069,1.069,0,0,0,.131,1.351l1.732,1.732a1.055,1.055,0,0,1,.219,1.18q-.186.411-.346.834a1.055,1.055,0,0,1-.989.677h-2.449a1.068,1.068,0,0,0-1.047.86,18.376,18.376,0,0,0,0,7.149,1.068,1.068,0,0,0,1.047.86h2.449a1.056,1.056,0,0,1,.989.677c.107.282.223.561.346.834a1.055,1.055,0,0,1-.219,1.18l-1.732,1.733a1.066,1.066,0,0,0-.131,1.35,18.449,18.449,0,0,0,5.052,5.053,1.07,1.07,0,0,0,1.351-.131L122.172,45a1.054,1.054,0,0,1,1.18-.22q.411.186.834.346a1.056,1.056,0,0,1,.677.989v2.449a1.068,1.068,0,0,0,.86,1.047,18.377,18.377,0,0,0,7.149,0,1.068,1.068,0,0,0,.86-1.047V46.113a1.056,1.056,0,0,1,.677-.989c.282-.107.561-.222.834-.346a1.054,1.054,0,0,1,1.18.22l1.733,1.732a1.069,1.069,0,0,0,1.35.131,18.467,18.467,0,0,0,5.053-5.053,1.07,1.07,0,0,0-.131-1.35L142.7,38.725a1.054,1.054,0,0,1-.22-1.18c.124-.273.239-.552.346-.834a1.057,1.057,0,0,1,.989-.677h2.449a1.068,1.068,0,0,0,1.047-.86,18.377,18.377,0,0,0,0-7.149,1.068,1.068,0,0,0-1.047-.86h-2.449a1.055,1.055,0,0,1-.989-.677c-.107-.282-.223-.56-.346-.834a1.054,1.054,0,0,1,.219-1.18" fill="#a79ba7"/>
          <path id="Trazado_213136" data-name="Trazado 213136" d="M129.3,25.214a6.386,6.386,0,1,1-6.386,6.386,6.386,6.386,0,0,1,6.386-6.386" fill="#7a6d79"/>
          <path id="Trazado_213137" data-name="Trazado 213137" d="M128.556,31.6a6.385,6.385,0,0,1,3.564-5.729,6.386,6.386,0,1,0,0,11.458,6.385,6.385,0,0,1-3.564-5.729" fill="#685e68"/>
          <path id="Trazado_213138" data-name="Trazado 213138" d="M129.3,39.943A8.343,8.343,0,1,1,137.64,31.6a8.352,8.352,0,0,1-8.343,8.343m0-12.772a4.429,4.429,0,1,0,4.429,4.429,4.434,4.434,0,0,0-4.429-4.429" fill="#cbc4cc"/>
          <path id="Trazado_213139" data-name="Trazado 213139" d="M73.181,85.758H34.465a1.957,1.957,0,0,1,0-3.914H73.181a1.957,1.957,0,0,1,0,3.914" fill="#685e68"/>
          <path id="Trazado_213140" data-name="Trazado 213140" d="M120.037,31.413a17.578,17.578,0,0,1,13.634-17.126,1.067,1.067,0,0,0-.8-.7,18.376,18.376,0,0,0-7.149,0,1.069,1.069,0,0,0-.861,1.047v2.449a1.056,1.056,0,0,1-.676.989q-.424.161-.835.346a1.054,1.054,0,0,1-1.18-.22l-1.732-1.732a1.069,1.069,0,0,0-1.35-.131,18.467,18.467,0,0,0-5.053,5.053,1.069,1.069,0,0,0,.131,1.35l1.732,1.732a1.054,1.054,0,0,1,.22,1.18q-.186.411-.346.835a1.057,1.057,0,0,1-.989.676h-2.449a1.069,1.069,0,0,0-1.047.861,18.376,18.376,0,0,0,0,7.149,1.069,1.069,0,0,0,1.047.86h2.449a1.056,1.056,0,0,1,.989.677q.16.423.346.834a1.054,1.054,0,0,1-.22,1.18l-1.732,1.732a1.07,1.07,0,0,0-.131,1.351,18.463,18.463,0,0,0,5.053,5.052,1.068,1.068,0,0,0,1.35-.131L122.171,45a1.056,1.056,0,0,1,1.18-.22q.411.186.835.347a1.055,1.055,0,0,1,.676.989v2.448a1.069,1.069,0,0,0,.861,1.048,18.428,18.428,0,0,0,7.149,0,1.069,1.069,0,0,0,.86-1.048v-.009a17.578,17.578,0,0,1-13.695-17.14" fill="#918291"/>
        </g>
      </g>
    </g>
    <g id="Grupo_148910" data-name="Grupo 148910" transform="translate(53)">
      <rect id="Rectángulo_37735" data-name="Rectángulo 37735" width="295" height="224" transform="translate(915 1425)" fill="#fbdce5"/>
      <g id="Grupo_148900" data-name="Grupo 148900" transform="translate(915 1392)">
        <path id="Trazado_213064" data-name="Trazado 213064" d="M207.844,3.159l-17,29.45,17,29.45h51.545l17-29.45-17-29.45Z" transform="translate(18.607)" fill="#ff94b3"/>
        <path id="Trazado_213065" data-name="Trazado 213065" d="M252.2,3.159H200.66l-17,29.45,17,29.451h51.546l17-29.45Z" transform="translate(18.607)" fill="#ffc5d6"/>
        <path id="Trazado_213066" data-name="Trazado 213066" d="M17,3.159,0,32.609l17,29.45H68.544L85.55,32.609l-17-29.45Z" fill="#ff94b3"/>
        <path id="Trazado_213067" data-name="Trazado 213067" d="M24.191,3.159H75.734l17,29.45-17,29.451H24.188l-17-29.45Z" fill="#ffc5d6"/>
        <path id="Trazado_213068" data-name="Trazado 213068" d="M32.665,0,11.713,32.608,32.665,65.216H262.395l20.951-32.608L262.395,0Z" fill="#e01650"/>
      </g>
      <text id="Plan_de_mitigación" data-name="Plan de mitigación" transform="translate(988 1430)" fill="#fff" font-size="18" font-family="Roboto-Black, Roboto" font-weight="800"><tspan x="0" y="0">Plan de mitigación</tspan></text>
      <g id="Grupo_148907" data-name="Grupo 148907" transform="translate(979.34 1469)">
        <g id="Grupo_148906" data-name="Grupo 148906" clip-path="url(#clip-path)">
          <path id="Trazado_213141" data-name="Trazado 213141" d="M60.168,18.55v131h66.314a16.8,16.8,0,0,0,16.8-16.8V18.55a2.691,2.691,0,0,0-2.69-2.69H62.858a2.691,2.691,0,0,0-2.69,2.69" fill="#e3f4ff"/>
          <path id="Trazado_213142" data-name="Trazado 213142" d="M143.28,18.55V132.758a16.8,16.8,0,0,1-16.8,16.8h-7.724a16.8,16.8,0,0,0,16.8-16.8V18.55a2.692,2.692,0,0,0-2.691-2.69h7.723a2.691,2.691,0,0,1,2.69,2.69" fill="#bddff4"/>
          <path id="Trazado_213143" data-name="Trazado 213143" d="M105.928,125.921a2.69,2.69,0,0,1,2.69,2.69v4.147a16.8,16.8,0,0,0,16.8,16.8H42.3a16.8,16.8,0,0,1-16.8-16.8v-4.146a2.689,2.689,0,0,1,2.689-2.69Z" fill="#9cc6db"/>
          <path id="Trazado_213144" data-name="Trazado 213144" d="M83.389,61.26A4.886,4.886,0,1,1,78.5,56.374a4.886,4.886,0,0,1,4.886,4.886" fill="#f9b200"/>
          <path id="Trazado_213145" data-name="Trazado 213145" d="M101.362,63.71H91.477a2.017,2.017,0,0,1,0-4.034h9.885a2.017,2.017,0,1,1,0,4.034" fill="#9cc6db"/>
          <path id="Trazado_213146" data-name="Trazado 213146" d="M125.937,68.546H91.477a2.017,2.017,0,0,1,0-4.035h34.46a2.017,2.017,0,1,1,0,4.035" fill="#9cc6db"/>
          <path id="Trazado_213147" data-name="Trazado 213147" d="M91.487,58.008a2.018,2.018,0,0,1-.034-4.035h.034a2.018,2.018,0,0,1,.012,4.035Z" fill="#9cc6db"/>
          <path id="Trazado_213148" data-name="Trazado 213148" d="M83.389,82.572A4.886,4.886,0,1,1,78.5,77.686a4.887,4.887,0,0,1,4.886,4.886" fill="#f9b200"/>
          <path id="Trazado_213149" data-name="Trazado 213149" d="M101.362,85.022H91.477a2.017,2.017,0,0,1,0-4.034h9.885a2.017,2.017,0,1,1,0,4.034" fill="#9cc6db"/>
          <path id="Trazado_213150" data-name="Trazado 213150" d="M125.937,89.858H91.477a2.018,2.018,0,0,1,0-4.035h34.46a2.018,2.018,0,1,1,0,4.035" fill="#9cc6db"/>
          <path id="Trazado_213151" data-name="Trazado 213151" d="M91.487,79.32a2.018,2.018,0,0,1-.034-4.035h.034A2.018,2.018,0,0,1,91.5,79.32Z" fill="#9cc6db"/>
          <path id="Trazado_213152" data-name="Trazado 213152" d="M83.389,103.884A4.886,4.886,0,1,1,78.5,99a4.887,4.887,0,0,1,4.886,4.886" fill="#f9b200"/>
          <path id="Trazado_213153" data-name="Trazado 213153" d="M101.362,106.335H91.477a2.017,2.017,0,0,1,0-4.035h9.885a2.017,2.017,0,1,1,0,4.035" fill="#9cc6db"/>
          <path id="Trazado_213154" data-name="Trazado 213154" d="M125.937,111.17H91.477a2.017,2.017,0,1,1,0-4.034h34.46a2.017,2.017,0,1,1,0,4.034" fill="#9cc6db"/>
          <path id="Trazado_213155" data-name="Trazado 213155" d="M91.487,100.632a2.018,2.018,0,0,1-.034-4.035h.034a2.018,2.018,0,0,1,.012,4.035Z" fill="#9cc6db"/>
          <path id="Trazado_213156" data-name="Trazado 213156" d="M126.266,40.281H77.18a2.69,2.69,0,0,1-2.689-2.691V31.269A2.689,2.689,0,0,1,77.18,28.58h49.086a2.689,2.689,0,0,1,2.69,2.689V37.59a2.69,2.69,0,0,1-2.69,2.691" fill="#fd6096"/>
          <path id="Trazado_213157" data-name="Trazado 213157" d="M60.177,90.968l8.662,4.306a1.191,1.191,0,0,0,1.648-1.481L67.132,84.72Z" fill="#4e7693"/>
          <path id="Trazado_213158" data-name="Trazado 213158" d="M58.315,90.437l-34.766-38.7a1.987,1.987,0,0,1,.15-2.805l5.533-4.97a1.986,1.986,0,0,1,2.8.151L66.8,82.812a1.983,1.983,0,0,1-.151,2.805l-5.531,4.97a1.985,1.985,0,0,1-2.805-.15" fill="#d2b7ff"/>
          <path id="Trazado_213159" data-name="Trazado 213159" d="M58.315,90.437l-34.766-38.7a1.987,1.987,0,0,1,.15-2.805l2.766-2.485L63.885,88.1,61.12,90.587a1.985,1.985,0,0,1-2.805-.15" fill="#a7f"/>
          <path id="Trazado_213160" data-name="Trazado 213160" d="M27.315,55.925l-3.766-4.191a1.986,1.986,0,0,1,.151-2.805l5.532-4.97a1.985,1.985,0,0,1,2.8.15L35.8,48.3Z" fill="#fd82ac"/>
        </g>
      </g>
    </g>
  </g>
</svg>
