<svg xmlns="http://www.w3.org/2000/svg" xmlns:xlink="http://www.w3.org/1999/xlink" width="1030" height="450.328" viewBox="0 0 1030 450.328"><defs><clipPath id="a"><rect width="1030" height="341.258" fill="none"/></clipPath><clipPath id="b"><path d="M39.217,504.267a70.72,70.72,0,1,0,71.881-69.54c-.4-.007-.795-.01-1.194-.01a70.726,70.726,0,0,0-70.688,69.55" transform="translate(-39.208 -434.717)" fill="none"/></clipPath><linearGradient id="c" x1="0.064" y1="0.935" x2="0.066" y2="0.935" gradientUnits="objectBoundingBox"><stop offset="0" stop-color="#fff"/><stop offset="0.997" stop-color="#d7d6d6"/><stop offset="1" stop-color="#d7d6d6"/></linearGradient><clipPath id="e"><path d="M546.486,108.767a70.72,70.72,0,1,0,71.881-69.54c-.4-.007-.795-.01-1.194-.01a70.726,70.726,0,0,0-70.687,69.55" transform="translate(-546.477 -39.217)" fill="none"/></clipPath><linearGradient id="f" x1="-1.006" y1="1.769" x2="-1.004" y2="1.769" xlink:href="#c"/><clipPath id="h"><path d="M1053.756,504.267a70.72,70.72,0,1,0,71.881-69.54c-.4-.007-.794-.01-1.194-.01a70.726,70.726,0,0,0-70.687,69.55" transform="translate(-1053.746 -434.717)" fill="none"/></clipPath><linearGradient id="i" x1="-2.075" y1="0.935" x2="-2.073" y2="0.935" xlink:href="#c"/><clipPath id="k"><path d="M1561.025,108.767a70.72,70.72,0,1,0,71.881-69.54c-.4-.007-.795-.01-1.194-.01a70.726,70.726,0,0,0-70.687,69.55" transform="translate(-1561.015 -39.217)" fill="none"/></clipPath><linearGradient id="l" x1="-3.145" y1="1.769" x2="-3.143" y2="1.769" xlink:href="#c"/><clipPath id="n"><path d="M2068.293,504.267a70.72,70.72,0,1,0,71.881-69.54c-.4-.007-.8-.01-1.194-.01a70.726,70.726,0,0,0-70.687,69.55" transform="translate(-2068.283 -434.717)" fill="none"/></clipPath><linearGradient id="o" x1="-4.214" y1="0.935" x2="-4.212" y2="0.935" xlink:href="#c"/><clipPath id="q"><rect width="83.857" height="83.857" transform="translate(0 0)" fill="#e01650"/></clipPath><clipPath id="r"><rect width="75.537" height="69.636" transform="translate(0 0)" fill="#1acec3"/></clipPath><clipPath id="s"><rect width="75.457" height="75.457" transform="translate(0 0)" fill="#5e8eca"/></clipPath><clipPath id="t"><rect width="68.16" height="76.314" transform="translate(0 0)" fill="#8869a3"/></clipPath></defs><g transform="translate(-285 -1960.5)"><g transform="translate(0 -7166)"><g transform="translate(285 9182.958)"><g clip-path="url(#a)"><path d="M174.062,473.834A87.387,87.387,0,0,0,63.389,398.783q-2.966.844-5.845,1.9A87.266,87.266,0,0,0,87.247,570c.895,0,1.8-.014,2.714-.043.606-.015,1.2-.043,1.789-.073.736-.043,1.472-.086,2.208-.144,2.223-.173,4.416-.419,6.581-.75a87.358,87.358,0,0,0,73.912-82.6,86.224,86.224,0,0,0-.39-12.557" transform="translate(0 -228.747)" fill="#8f52f5"/><path d="M507.278.014h-.116C506.571,0,505.993,0,505.4,0h-.13c-.592,0-1.169,0-1.761.014H503.4c-45.334,0-85.3,39.746-85.3,85.891-.015.39-.015.765-.015,1.155v.346c0,.376,0,.765.015,1.14,0,.3.014.606.014.909,0,.173,0,.332.014.505v.072c.014.577.043,1.14.072,1.718a4,4,0,0,0,.029.418c.029.39.043.794.072,1.183.029.332.043.664.072,1a.4.4,0,0,0,.014.13c.029.548.072,1.082.145,1.631.029.26.043.534.086.794.029.317.058.635.1.952a1.1,1.1,0,0,0,.014.217,67.536,67.536,0,0,1-3.219,30.266,69.958,69.958,0,0,1-23.122,32.287l-2.7,2.092a67.65,67.65,0,0,1-36.616,14.1,99.152,99.152,0,0,1,28.245,36.126,69.734,69.734,0,0,1,23.093-32.33l2.324-1.818a68.406,68.406,0,0,1,37.078-14.246,72.182,72.182,0,0,1,30.858,4.431,87.854,87.854,0,0,0,29.7,5.513c.318.015.635.015.953.015.361,0,.707,0,1.068-.015,18.892,0,39.333-6.791,56.592-21.751a87.511,87.511,0,0,0,17.479-21.1c.245-.419.476-.823.721-1.241a87.471,87.471,0,0,0,11.4-43V87.06c0-49.281-41.427-87.046-85.314-87.046" transform="translate(-204.213)" fill="#e01650"/><path d="M1607.134,86.338v-.086c1.6-43.172-37.836-86.238-85.429-86.238C1521.113,0,1520.536,0,1519.944,0h-.058a87.25,87.25,0,0,0-87.262,87.19v.216c0,.159,0,.332.015.491v.736c0,.433.014.866.029,1.313.014.75.058,1.516.1,2.266s.1,1.515.159,2.266.13,1.487.217,2.237a2.379,2.379,0,0,0,.029.332c.029.3.058.592.1.895A68.12,68.12,0,0,1,1430,128.4a69.716,69.716,0,0,1-23.05,32.229l-2.8,2.18a67.474,67.474,0,0,1-36.516,14.029,99.2,99.2,0,0,1,28.274,36.2,69.373,69.373,0,0,1,23.05-32.417l2.309-1.8a68.47,68.47,0,0,1,37.093-14.26A72.039,72.039,0,0,1,1489.23,169a88.177,88.177,0,0,0,28.549,5.485c.246.014.476.014.736.014s.49.014.736.014h1.14c.245,0,.491,0,.722-.014,22.983,0,49.829-10.818,67.59-33.6a86.831,86.831,0,0,0,17.926-44.079,1.04,1.04,0,0,0,.014-.2.4.4,0,0,0,.014-.13.389.389,0,0,0,.015-.13c.014-.13.029-.245.043-.376.058-.548.1-1.082.144-1.631,0-.043.015-.1.015-.144.014-.159.029-.3.043-.462.014-.245.043-.476.043-.722v-.087c.058-.736.087-1.472.115-2.208,0-.1.014-.217.014-.317.015-.332.029-.65.043-.982V89.08c0-.375.014-.75.014-1.126v-.346c0-.433,0-.852-.014-1.27" transform="translate(-791.018 0.001)" fill="#5e8eca"/><path d="M1996.278,348.043c-22.689,8.6-48.163,5.282-67.3-9.641l-2.7-2.093a68.752,68.752,0,0,1-22.948-32.561,98.426,98.426,0,0,1-12.066,19.932,99.464,99.464,0,0,1-16.266,16.5,71.583,71.583,0,0,1,37.742,14.924l1.53,1.2a69.14,69.14,0,0,1,26.311,62.755,88.237,88.237,0,0,0-.577,14.274c1.848,45.426,39.515,83.451,86.927,83.607.094,0,.186.007.279.007.072,0,.142-.005.214-.005a87.253,87.253,0,0,0,87.046-87.2v-.13c0-59.909-60.5-103.471-118.192-81.561" transform="translate(-1084.47 -175.683)" fill="#8869a3"/><path d="M1015.425,342.442a87.238,87.238,0,0,0-34.192,5.6c-22.689,8.6-48.163,5.282-67.3-9.641l-2.7-2.093a68.755,68.755,0,0,1-22.948-32.561,98.389,98.389,0,0,1-12.066,19.932,99.467,99.467,0,0,1-16.266,16.5A71.587,71.587,0,0,1,897.695,355.1l1.53,1.2a69.142,69.142,0,0,1,26.311,62.755,88.223,88.223,0,0,0-.577,14.274c.071,1.758.214,3.5.4,5.231,0,.031.006.062.009.094.029.346.069.68.111,1.026l.014.058c.105.964.237,1.921.378,2.875.04.268.082.534.124.8.054.348.1.7.162,1.044.014.058.029.13.043.2.086.505.173,1,.274,1.5.035.23.086.454.133.68.064.324.133.647.2.97.109.527.215,1.055.344,1.583.072.332.145.649.231.967,0,.029.014.043.014.072.05.211.109.422.161.632.066.263.132.525.2.786.005.018.008.035.013.053.025.1.057.189.083.285a87.3,87.3,0,0,0,84.031,64.746c.094,0,.185.007.279.007.072,0,.142-.005.214-.005a87.244,87.244,0,0,0,87.047-87.2v-.13c0-46.861-37.757-85.55-84-87.161" transform="translate(-497.383 -175.683)" fill="#1acec3"/><path d="M710.358,475.1a1.161,1.161,0,0,0-1.52-.62l-9.662,4.064-9.662-4.064a1.16,1.16,0,0,0-.9,2.139l10.112,4.253a1.16,1.16,0,0,0,.9,0l10.112-4.253a1.16,1.16,0,0,0,.62-1.52" transform="translate(-397.873 -274.378)" fill="#500c75"/><path d="M707.984,487.758l-9.663,4.064-9.662-4.064a1.16,1.16,0,0,0-.9,2.139l10.112,4.253a1.161,1.161,0,0,0,.9,0l10.112-4.253a1.16,1.16,0,0,0-.9-2.139" transform="translate(-397.379 -282.059)" fill="#500c75"/><path d="M179.871,325.291a1.161,1.161,0,0,0,1.52.62l9.663-4.064,9.662,4.064a1.16,1.16,0,1,0,.9-2.139L191.5,319.518a1.161,1.161,0,0,0-.9,0l-10.112,4.253a1.16,1.16,0,0,0-.62,1.52" transform="translate(-103.982 -184.752)" fill="#500c75"/><path d="M182.245,312.631l9.663-4.064,9.662,4.064a1.16,1.16,0,1,0,.9-2.139l-10.112-4.253a1.16,1.16,0,0,0-.9,0l-10.112,4.253a1.16,1.16,0,1,0,.9,2.139" transform="translate(-104.476 -177.071)" fill="#500c75"/><path d="M1724.9,475.1a1.161,1.161,0,0,0-1.52-.62l-9.663,4.064-9.662-4.064a1.16,1.16,0,1,0-.9,2.139l10.112,4.253a1.16,1.16,0,0,0,.9,0l10.113-4.253a1.161,1.161,0,0,0,.62-1.52" transform="translate(-984.667 -274.378)" fill="#500c75"/><path d="M1722.522,487.758l-9.663,4.064-9.662-4.064a1.16,1.16,0,1,0-.9,2.139l10.112,4.253a1.16,1.16,0,0,0,.9,0l10.113-4.253a1.16,1.16,0,1,0-.9-2.139" transform="translate(-984.172 -282.059)" fill="#500c75"/><path d="M1173.616,325.291a1.161,1.161,0,0,0,1.52.62l9.662-4.064,9.662,4.064a1.16,1.16,0,0,0,.9-2.139l-10.112-4.253a1.16,1.16,0,0,0-.9,0l-10.113,4.253a1.16,1.16,0,0,0-.62,1.52" transform="translate(-678.749 -184.752)" fill="#500c75"/><path d="M1175.99,312.631l9.662-4.064,9.662,4.064a1.16,1.16,0,1,0,.9-2.139l-10.112-4.253a1.16,1.16,0,0,0-.9,0l-10.113,4.253a1.16,1.16,0,1,0,.9,2.139" transform="translate(-679.243 -177.071)" fill="#500c75"/><path d="M2208.947,325.291a1.161,1.161,0,0,0,1.52.62l9.663-4.064,9.662,4.064a1.16,1.16,0,0,0,.9-2.139l-10.112-4.253a1.161,1.161,0,0,0-.9,0l-10.112,4.253a1.16,1.16,0,0,0-.62,1.52" transform="translate(-1277.569 -184.752)" fill="#500c75"/><path d="M2211.32,312.631l9.663-4.064,9.662,4.064a1.16,1.16,0,1,0,.9-2.139l-10.112-4.253a1.161,1.161,0,0,0-.9,0l-10.112,4.253a1.16,1.16,0,1,0,.9,2.139" transform="translate(-1278.063 -177.071)" fill="#500c75"/></g><g transform="translate(16.531 183.283)"><g clip-path="url(#b)"><rect width="199.983" height="199.875" transform="matrix(0.787, -0.617, 0.617, 0.787, -69.639, 54.153)" fill="url(#c)"/></g></g><g clip-path="url(#a)"><path d="M181.774,509.592A67.693,67.693,0,1,1,114.082,441.9a67.693,67.693,0,0,1,67.692,67.693" transform="translate(-26.831 -255.588)" fill="#fff"/></g><g transform="translate(230.403 16.534)"><g clip-path="url(#e)"><rect width="199.983" height="199.875" transform="translate(-69.639 54.153) rotate(-38.125)" fill="url(#f)"/></g></g><g clip-path="url(#a)"><path d="M689.042,114.093A67.693,67.693,0,1,1,621.35,46.4a67.693,67.693,0,0,1,67.692,67.693" transform="translate(-320.227 -26.837)" fill="#fff"/></g><g transform="translate(444.275 183.283)"><g clip-path="url(#h)"><rect width="199.983" height="199.875" transform="translate(-69.639 54.153) rotate(-38.125)" fill="url(#i)"/></g></g><g clip-path="url(#a)"><path d="M1196.311,509.592a67.693,67.693,0,1,1-67.692-67.693,67.693,67.693,0,0,1,67.692,67.693" transform="translate(-613.624 -255.588)" fill="#fff"/></g><g transform="translate(658.147 16.534)"><g clip-path="url(#k)"><rect width="199.982" height="199.875" transform="matrix(0.787, -0.617, 0.617, 0.787, -69.639, 54.153)" fill="url(#l)"/></g></g><g clip-path="url(#a)"><path d="M1703.581,114.093A67.693,67.693,0,1,1,1635.888,46.4a67.693,67.693,0,0,1,67.693,67.693" transform="translate(-907.021 -26.837)" fill="#fff"/></g><g transform="translate(872.019 183.283)"><g clip-path="url(#n)"><rect width="199.982" height="199.875" transform="translate(-69.639 54.153) rotate(-38.125)" fill="url(#o)"/></g></g><g clip-path="url(#a)"><path d="M2210.849,509.592a67.693,67.693,0,1,1-67.692-67.693,67.693,67.693,0,0,1,67.692,67.693" transform="translate(-1200.417 -255.588)" fill="#fff"/></g></g><g transform="translate(1600 19108.828) rotate(180)"><path d="M-6501.088-2160.521h-58.629l-17.576,21.221h-418.262l-21.327-21.221h-68.027" transform="translate(7593.097 11700)" fill="none" stroke="#8f52f5" stroke-width="2"/><g transform="translate(1091 9532)" fill="none" stroke="#8f52f5" stroke-width="2"><circle cx="7" cy="7" r="7" stroke="none"/><circle cx="7" cy="7" r="6" fill="none"/></g><g transform="translate(495 9532)" fill="none" stroke="#8f52f5" stroke-width="2"><circle cx="7" cy="7" r="7" stroke="none"/><circle cx="7" cy="7" r="6" fill="none"/></g></g></g><path d="M.5.5,18,38.7H417.051L435.9.5Z" transform="translate(569 1960)" fill="#500c75"/><g transform="translate(234 88.001)"><circle cx="15.5" cy="15.5" r="15.5" transform="translate(549 1986)" fill="#483c8c" opacity="0.17"/><circle cx="9.5" cy="9.5" r="9.5" transform="translate(555 1992)" fill="#483c8c" opacity="0.69"/><text transform="translate(559 2008)" fill="#fff" font-size="20" font-family="Roboto-Regular, Roboto"><tspan x="0" y="0">+</tspan></text></g><g transform="translate(659 77.001)"><circle cx="15.5" cy="15.5" r="15.5" transform="translate(549 1986)" fill="#483c8c" opacity="0.17"/><circle cx="9.5" cy="9.5" r="9.5" transform="translate(555 1992)" fill="#483c8c" opacity="0.69"/><text transform="translate(559 2008)" fill="#fff" font-size="20" font-family="Roboto-Regular, Roboto"><tspan x="0" y="0">+</tspan></text></g><g transform="translate(18 300.001)"><circle cx="15.5" cy="15.5" r="15.5" transform="translate(549 1986)" fill="#483c8c" opacity="0.17"/><circle cx="9.5" cy="9.5" r="9.5" transform="translate(555 1992)" fill="#483c8c" opacity="0.69"/><text transform="translate(559 2008)" fill="#fff" font-size="20" font-family="Roboto-Regular, Roboto"><tspan x="0" y="0">+</tspan></text></g><g transform="translate(449 300.001)"><circle cx="15.5" cy="15.5" r="15.5" transform="translate(549 1986)" fill="#483c8c" opacity="0.17"/><circle cx="9.5" cy="9.5" r="9.5" transform="translate(555 1992)" fill="#483c8c" opacity="0.69"/><text transform="translate(559 2008)" fill="#fff" font-size="20" font-family="Roboto-Regular, Roboto"><tspan x="0" y="0">+</tspan></text></g><path d="M93.257,13.568H88.406v3.059h5.73V19H85.321V6.2h8.833V8.585H88.406v2.7h4.852ZM98.381,19H95.411V5.5h2.971Zm6.425.176a4.889,4.889,0,0,1-3.542-1.305,4.507,4.507,0,0,1-1.354-3.4v-.246a5.84,5.84,0,0,1,.541-2.575,3.955,3.955,0,0,1,1.578-1.727,4.763,4.763,0,0,1,2.461-.611,4.117,4.117,0,0,1,3.164,1.244,4.887,4.887,0,0,1,1.16,3.467v1.151h-5.889a2.135,2.135,0,0,0,.694,1.257,2.066,2.066,0,0,0,1.389.457,2.662,2.662,0,0,0,2.2-.984l1.354,1.6a3.784,3.784,0,0,1-1.569,1.217A5.3,5.3,0,0,1,104.806,19.176Zm-.334-7.576q-1.3,0-1.547,1.723h2.988v-.229a1.467,1.467,0,0,0-.36-1.1A1.434,1.434,0,0,0,104.472,11.6ZM112.8,9.49l.1,1.116a3.27,3.27,0,0,1,2.716-1.292,2.407,2.407,0,0,1,2.435,1.433,3.165,3.165,0,0,1,2.795-1.433q2.892,0,2.971,3.5V19h-2.971V13a1.813,1.813,0,0,0-.246-1.063,1.048,1.048,0,0,0-.9-.334,1.4,1.4,0,0,0-1.31.782l.009.123V19h-2.971V13.015a1.906,1.906,0,0,0-.237-1.081,1.045,1.045,0,0,0-.905-.334,1.42,1.42,0,0,0-1.3.782V19h-2.962V9.49Zm17.306,9.686a4.889,4.889,0,0,1-3.542-1.305,4.507,4.507,0,0,1-1.354-3.4v-.246a5.84,5.84,0,0,1,.541-2.575,3.955,3.955,0,0,1,1.578-1.727,4.763,4.763,0,0,1,2.461-.611,4.117,4.117,0,0,1,3.164,1.244,4.887,4.887,0,0,1,1.16,3.467v1.151h-5.889a2.135,2.135,0,0,0,.694,1.257,2.066,2.066,0,0,0,1.389.457,2.662,2.662,0,0,0,2.2-.984l1.354,1.6a3.784,3.784,0,0,1-1.569,1.217A5.3,5.3,0,0,1,130.11,19.176Zm-.334-7.576q-1.3,0-1.547,1.723h2.988v-.229a1.467,1.467,0,0,0-.36-1.1A1.434,1.434,0,0,0,129.776,11.6Zm8.253-2.109.1,1.116a3.225,3.225,0,0,1,2.716-1.292,2.713,2.713,0,0,1,2.219.888,4.226,4.226,0,0,1,.76,2.672V19H140.85V13a1.6,1.6,0,0,0-.29-1.059,1.342,1.342,0,0,0-1.055-.338,1.413,1.413,0,0,0-1.292.686V19h-2.962V9.49ZM148.91,7.126V9.49h1.564v2.057H148.91V15.9a1.111,1.111,0,0,0,.193.747,1.037,1.037,0,0,0,.765.211,4.345,4.345,0,0,0,.738-.053v2.118a5.466,5.466,0,0,1-1.67.255,3.1,3.1,0,0,1-2.259-.721,2.954,2.954,0,0,1-.729-2.188v-4.72h-1.213V9.49h1.213V7.126ZM151,14.157a5.613,5.613,0,0,1,.554-2.536,3.96,3.96,0,0,1,1.591-1.709,4.791,4.791,0,0,1,2.435-.6,4.373,4.373,0,0,1,3.366,1.323,5.076,5.076,0,0,1,1.23,3.6v.105a4.925,4.925,0,0,1-1.235,3.529,4.384,4.384,0,0,1-3.344,1.305,4.434,4.434,0,0,1-3.261-1.217,4.761,4.761,0,0,1-1.327-3.3Zm2.962.185a3.538,3.538,0,0,0,.413,1.934,1.376,1.376,0,0,0,1.222.615q1.582,0,1.617-2.435v-.3q0-2.558-1.635-2.558-1.485,0-1.608,2.206Zm12.5,1.986a.684.684,0,0,0-.4-.606,6.016,6.016,0,0,0-1.5-.475,6.853,6.853,0,0,1-1.828-.646,3.062,3.062,0,0,1-1.1-.971,2.319,2.319,0,0,1-.378-1.31,2.628,2.628,0,0,1,1.081-2.158,4.453,4.453,0,0,1,2.83-.848,4.934,4.934,0,0,1,3.023.853,2.666,2.666,0,0,1,1.143,2.241h-2.971q0-1.143-1.2-1.143a1.194,1.194,0,0,0-.782.259.8.8,0,0,0-.316.646.737.737,0,0,0,.387.642,3.654,3.654,0,0,0,1.235.4,10.671,10.671,0,0,1,1.49.378,2.706,2.706,0,0,1,2.145,2.646,2.491,2.491,0,0,1-1.156,2.118,5.068,5.068,0,0,1-2.993.817,5.172,5.172,0,0,1-2.18-.439,3.645,3.645,0,0,1-1.494-1.2,2.707,2.707,0,0,1-.536-1.591h2.769a1.145,1.145,0,0,0,.439.962,1.808,1.808,0,0,0,1.081.3,1.422,1.422,0,0,0,.91-.246A.787.787,0,0,0,166.461,16.328Zm8.35-2.153a5.809,5.809,0,0,1,.976-3.56,3.211,3.211,0,0,1,2.725-1.3,2.731,2.731,0,0,1,2.145,1V5.5h2.971V19h-2.663l-.149-1.02a2.8,2.8,0,0,1-2.32,1.2,3.205,3.205,0,0,1-2.689-1.3A5.993,5.993,0,0,1,174.811,14.175Zm2.962.185q0,2.531,1.477,2.531a1.458,1.458,0,0,0,1.406-.826V12.443a1.419,1.419,0,0,0-1.389-.844q-1.371,0-1.485,2.215Zm12.138,4.816a4.889,4.889,0,0,1-3.542-1.305,4.507,4.507,0,0,1-1.354-3.4v-.246a5.84,5.84,0,0,1,.541-2.575,3.955,3.955,0,0,1,1.578-1.727,4.763,4.763,0,0,1,2.461-.611,4.117,4.117,0,0,1,3.164,1.244,4.887,4.887,0,0,1,1.16,3.467v1.151H188.03a2.135,2.135,0,0,0,.694,1.257,2.066,2.066,0,0,0,1.389.457,2.662,2.662,0,0,0,2.2-.984l1.354,1.6a3.784,3.784,0,0,1-1.569,1.217A5.3,5.3,0,0,1,189.911,19.176Zm-.334-7.576q-1.3,0-1.547,1.723h2.988v-.229a1.467,1.467,0,0,0-.36-1.1A1.434,1.434,0,0,0,189.577,11.6Zm15.68,6.372a3.054,3.054,0,0,1-2.54,1.2,3,3,0,0,1-2.369-.91,3.826,3.826,0,0,1-.8-2.615V9.49h2.962v6.179a1.065,1.065,0,0,0,1.187,1.222,1.548,1.548,0,0,0,1.45-.729V9.49h2.979V19h-2.777Zm7.207-8.481.1,1.116a3.225,3.225,0,0,1,2.716-1.292,2.713,2.713,0,0,1,2.219.888,4.226,4.226,0,0,1,.76,2.672V19h-2.971V13a1.6,1.6,0,0,0-.29-1.059,1.342,1.342,0,0,0-1.055-.338,1.413,1.413,0,0,0-1.292.686V19h-2.962V9.49Zm17.666,2.681-.976-.07a1.752,1.752,0,0,0-1.793.879V19H224.4V9.49h2.777l.1,1.222a2.294,2.294,0,0,1,2.083-1.4,2.888,2.888,0,0,1,.826.105Zm5.669,7a4.889,4.889,0,0,1-3.542-1.305,4.507,4.507,0,0,1-1.354-3.4v-.246a5.84,5.84,0,0,1,.541-2.575,3.955,3.955,0,0,1,1.578-1.727,4.763,4.763,0,0,1,2.461-.611,4.117,4.117,0,0,1,3.164,1.244,4.887,4.887,0,0,1,1.16,3.467v1.151h-5.889a2.135,2.135,0,0,0,.694,1.257,2.066,2.066,0,0,0,1.389.457,2.662,2.662,0,0,0,2.2-.984l1.354,1.6a3.784,3.784,0,0,1-1.569,1.217A5.3,5.3,0,0,1,235.8,19.176Zm-.334-7.576q-1.3,0-1.547,1.723h2.988v-.229a1.467,1.467,0,0,0-.36-1.1A1.434,1.434,0,0,0,235.464,11.6Zm14.361,2.716a5.735,5.735,0,0,1-1,3.538,3.2,3.2,0,0,1-2.694,1.323,2.742,2.742,0,0,1-2.153-.958v4.438h-2.962V9.49h2.769l.088.879a2.742,2.742,0,0,1,2.241-1.055,3.224,3.224,0,0,1,2.733,1.3,5.805,5.805,0,0,1,.976,3.564Zm-2.962-.185q0-2.531-1.477-2.531a1.394,1.394,0,0,0-1.406.756V16.1a1.439,1.439,0,0,0,1.424.791q1.415,0,1.459-2.443Zm3.894.026a5.613,5.613,0,0,1,.554-2.536A3.96,3.96,0,0,1,252.9,9.912a4.791,4.791,0,0,1,2.435-.6,4.373,4.373,0,0,1,3.366,1.323,5.076,5.076,0,0,1,1.23,3.6v.105a4.925,4.925,0,0,1-1.235,3.529,4.384,4.384,0,0,1-3.344,1.305,4.434,4.434,0,0,1-3.261-1.217,4.761,4.761,0,0,1-1.327-3.3Zm2.962.185a3.538,3.538,0,0,0,.413,1.934,1.376,1.376,0,0,0,1.222.615q1.582,0,1.617-2.435v-.3q0-2.558-1.635-2.558-1.485,0-1.608,2.206Zm13.271-2.171-.976-.07a1.752,1.752,0,0,0-1.793.879V19H261.26V9.49h2.777l.1,1.222a2.294,2.294,0,0,1,2.083-1.4,2.888,2.888,0,0,1,.826.105Zm4.957-5.045V9.49h1.564v2.057h-1.564V15.9a1.111,1.111,0,0,0,.193.747,1.037,1.037,0,0,0,.765.211,4.345,4.345,0,0,0,.738-.053v2.118a5.466,5.466,0,0,1-1.67.255,3.1,3.1,0,0,1-2.259-.721,2.954,2.954,0,0,1-.729-2.188v-4.72h-1.213V9.49h1.213V7.126Zm7.33,12.05a4.889,4.889,0,0,1-3.542-1.305,4.507,4.507,0,0,1-1.354-3.4v-.246a5.84,5.84,0,0,1,.541-2.575A3.955,3.955,0,0,1,276.5,9.925a4.763,4.763,0,0,1,2.461-.611,4.117,4.117,0,0,1,3.164,1.244,4.887,4.887,0,0,1,1.16,3.467v1.151H277.4a2.135,2.135,0,0,0,.694,1.257,2.066,2.066,0,0,0,1.389.457,2.662,2.662,0,0,0,2.2-.984l1.354,1.6a3.784,3.784,0,0,1-1.569,1.217A5.3,5.3,0,0,1,279.278,19.176Zm-.334-7.576q-1.3,0-1.547,1.723h2.988v-.229a1.467,1.467,0,0,0-.36-1.1A1.434,1.434,0,0,0,278.944,11.6Z" transform="translate(600 1968)" fill="#fff"/><path d="M25.093,8.585H21.252V19H18.167V8.585H14.4V6.2h10.7ZM29.382,19H26.411V9.49h2.971ZM26.235,7.038A1.322,1.322,0,0,1,26.692,6a1.943,1.943,0,0,1,2.373,0,1.322,1.322,0,0,1,.457,1.037,1.322,1.322,0,0,1-.457,1.037,1.943,1.943,0,0,1-2.373,0A1.322,1.322,0,0,1,26.235,7.038Zm9.571,12.138a4.889,4.889,0,0,1-3.542-1.305,4.507,4.507,0,0,1-1.354-3.4v-.246a5.84,5.84,0,0,1,.541-2.575,3.955,3.955,0,0,1,1.578-1.727,4.763,4.763,0,0,1,2.461-.611,4.117,4.117,0,0,1,3.164,1.244,4.887,4.887,0,0,1,1.16,3.467v1.151H33.926a2.135,2.135,0,0,0,.694,1.257,2.066,2.066,0,0,0,1.389.457,2.662,2.662,0,0,0,2.2-.984l1.354,1.6a3.784,3.784,0,0,1-1.569,1.217A5.3,5.3,0,0,1,35.807,19.176ZM35.473,11.6q-1.3,0-1.547,1.723h2.988v-.229a1.467,1.467,0,0,0-.36-1.1A1.434,1.434,0,0,0,35.473,11.6ZM43.8,9.49l.1,1.116a3.27,3.27,0,0,1,2.716-1.292,2.407,2.407,0,0,1,2.435,1.433,3.165,3.165,0,0,1,2.795-1.433q2.892,0,2.971,3.5V19H51.847V13a1.813,1.813,0,0,0-.246-1.063,1.048,1.048,0,0,0-.9-.334,1.4,1.4,0,0,0-1.31.782l.009.123V19H46.433V13.015a1.906,1.906,0,0,0-.237-1.081,1.045,1.045,0,0,0-.905-.334,1.42,1.42,0,0,0-1.3.782V19H41.027V9.49Zm21.533,4.825a5.735,5.735,0,0,1-1,3.538,3.2,3.2,0,0,1-2.694,1.323,2.742,2.742,0,0,1-2.153-.958v4.438H56.531V9.49H59.3l.088.879a2.742,2.742,0,0,1,2.241-1.055,3.224,3.224,0,0,1,2.733,1.3,5.805,5.805,0,0,1,.976,3.564Zm-2.962-.185q0-2.531-1.477-2.531a1.394,1.394,0,0,0-1.406.756V16.1a1.439,1.439,0,0,0,1.424.791q1.415,0,1.459-2.443Zm3.894.026a5.613,5.613,0,0,1,.554-2.536,3.96,3.96,0,0,1,1.591-1.709,4.791,4.791,0,0,1,2.435-.6,4.373,4.373,0,0,1,3.366,1.323,5.076,5.076,0,0,1,1.23,3.6v.105a4.925,4.925,0,0,1-1.235,3.529,4.384,4.384,0,0,1-3.344,1.305,4.434,4.434,0,0,1-3.261-1.217,4.761,4.761,0,0,1-1.327-3.3Zm2.962.185a3.538,3.538,0,0,0,.413,1.934,1.376,1.376,0,0,0,1.222.615q1.582,0,1.617-2.435v-.3q0-2.558-1.635-2.558-1.485,0-1.608,2.206Z" transform="translate(540 2240)" fill="#12263f"/><path d="M6.481,14.658V19H3.4V6.2H8.5a5.948,5.948,0,0,1,2.6.541,4.074,4.074,0,0,1,1.749,1.538,4.2,4.2,0,0,1,.62,2.263,3.7,3.7,0,0,1-1.34,2.993A5.561,5.561,0,0,1,8.45,14.658Zm0-2.382H8.5a1.906,1.906,0,0,0,1.367-.448,1.665,1.665,0,0,0,.47-1.266A2.059,2.059,0,0,0,9.856,9.13a1.712,1.712,0,0,0-1.318-.545H6.481Zm14.159,5.7a3.054,3.054,0,0,1-2.54,1.2,3,3,0,0,1-2.369-.91,3.826,3.826,0,0,1-.8-2.615V9.49h2.962v6.179a1.065,1.065,0,0,0,1.187,1.222,1.548,1.548,0,0,0,1.45-.729V9.49h2.979V19H20.728ZM19.585,5.5h3.129L20.271,8.26l-2.417,0Zm14.37,8.824a5.8,5.8,0,0,1-.967,3.595,3.238,3.238,0,0,1-2.725,1.257,2.81,2.81,0,0,1-2.338-1.151L27.8,19H25.149V5.5h2.962v4.755a2.711,2.711,0,0,1,2.136-.94,3.239,3.239,0,0,1,2.742,1.274,5.826,5.826,0,0,1,.967,3.586Zm-2.971-.189a3.866,3.866,0,0,0-.365-1.952A1.229,1.229,0,0,0,29.5,11.6a1.418,1.418,0,0,0-1.389.763v3.773a1.426,1.426,0,0,0,1.406.755,1.258,1.258,0,0,0,1.327-1.018A7.309,7.309,0,0,0,30.985,14.135ZM38.385,19H35.415V5.5h2.971Zm4.948,0H40.363V9.49h2.971ZM40.187,7.038A1.322,1.322,0,0,1,40.644,6a1.943,1.943,0,0,1,2.373,0,1.322,1.322,0,0,1,.457,1.037,1.322,1.322,0,0,1-.457,1.037,1.943,1.943,0,0,1-2.373,0A1.322,1.322,0,0,1,40.187,7.038Zm8.991,9.853a1.317,1.317,0,0,0,.967-.338,1.241,1.241,0,0,0,.334-.945h2.777a3.288,3.288,0,0,1-1.121,2.566,4.168,4.168,0,0,1-2.887,1,4.22,4.22,0,0,1-3.27-1.3,5.125,5.125,0,0,1-1.2-3.6v-.123a5.792,5.792,0,0,1,.532-2.544,3.872,3.872,0,0,1,1.534-1.7,4.573,4.573,0,0,1,2.373-.593,4.116,4.116,0,0,1,2.944,1.028,3.647,3.647,0,0,1,1.09,2.786H50.479A1.626,1.626,0,0,0,50.119,12a1.244,1.244,0,0,0-.967-.4q-1.151,0-1.345,1.468a10.357,10.357,0,0,0-.062,1.283,4.068,4.068,0,0,0,.343,1.986A1.187,1.187,0,0,0,49.178,16.891Zm4.957-2.733a5.613,5.613,0,0,1,.554-2.536A3.96,3.96,0,0,1,56.28,9.912a4.791,4.791,0,0,1,2.435-.6,4.373,4.373,0,0,1,3.366,1.323,5.076,5.076,0,0,1,1.23,3.6v.105a4.925,4.925,0,0,1-1.235,3.529,4.384,4.384,0,0,1-3.344,1.305,4.434,4.434,0,0,1-3.261-1.217,4.761,4.761,0,0,1-1.327-3.3Zm2.962.185a3.538,3.538,0,0,0,.413,1.934,1.376,1.376,0,0,0,1.222.615q1.582,0,1.617-2.435v-.3q0-2.558-1.635-2.558-1.485,0-1.608,2.206Zm11.628-.185a5.613,5.613,0,0,1,.554-2.536A3.96,3.96,0,0,1,70.87,9.912a4.791,4.791,0,0,1,2.435-.6,4.373,4.373,0,0,1,3.366,1.323,5.076,5.076,0,0,1,1.23,3.6v.105a4.925,4.925,0,0,1-1.235,3.529,4.384,4.384,0,0,1-3.344,1.305,4.434,4.434,0,0,1-3.261-1.217,4.761,4.761,0,0,1-1.327-3.3Zm2.962.185a3.538,3.538,0,0,0,.413,1.934,1.376,1.376,0,0,0,1.222.615q1.582,0,1.617-2.435v-.3q0-2.558-1.635-2.558-1.485,0-1.608,2.206Zm16.348-.018a5.8,5.8,0,0,1-.967,3.595,3.238,3.238,0,0,1-2.725,1.257,2.81,2.81,0,0,1-2.338-1.151L81.882,19H79.228V5.5H82.19v4.755a2.711,2.711,0,0,1,2.136-.94,3.239,3.239,0,0,1,2.742,1.274,5.826,5.826,0,0,1,.967,3.586Zm-2.971-.189a3.866,3.866,0,0,0-.365-1.952,1.229,1.229,0,0,0-1.121-.584,1.418,1.418,0,0,0-1.389.763v3.773a1.426,1.426,0,0,0,1.406.755,1.258,1.258,0,0,0,1.327-1.018A7.309,7.309,0,0,0,85.064,14.135ZM92.526,9.49v9.835a3.452,3.452,0,0,1-.967,2.6,3.714,3.714,0,0,1-2.672.914,6.308,6.308,0,0,1-1.4-.149V20.45a5.667,5.667,0,0,0,.835.079,1.084,1.084,0,0,0,1.23-1.222V9.49Zm-3.19-2.452A1.322,1.322,0,0,1,89.792,6a1.943,1.943,0,0,1,2.373,0,1.322,1.322,0,0,1,.457,1.037,1.322,1.322,0,0,1-.457,1.037,1.943,1.943,0,0,1-2.373,0A1.322,1.322,0,0,1,89.335,7.038ZM98.8,19.176a4.889,4.889,0,0,1-3.542-1.305,4.507,4.507,0,0,1-1.354-3.4v-.246a5.84,5.84,0,0,1,.541-2.575,3.955,3.955,0,0,1,1.578-1.727,4.763,4.763,0,0,1,2.461-.611,4.117,4.117,0,0,1,3.164,1.244,4.887,4.887,0,0,1,1.16,3.467v1.151H96.92a2.135,2.135,0,0,0,.694,1.257A2.066,2.066,0,0,0,99,16.891a2.662,2.662,0,0,0,2.2-.984l1.354,1.6a3.784,3.784,0,0,1-1.569,1.217A5.3,5.3,0,0,1,98.8,19.176ZM98.467,11.6q-1.3,0-1.547,1.723h2.988v-.229a1.467,1.467,0,0,0-.36-1.1A1.434,1.434,0,0,0,98.467,11.6Zm8.982-4.474V9.49h1.564v2.057H107.45V15.9a1.111,1.111,0,0,0,.193.747,1.037,1.037,0,0,0,.765.211,4.345,4.345,0,0,0,.738-.053v2.118a5.466,5.466,0,0,1-1.67.255,3.1,3.1,0,0,1-2.259-.721,2.954,2.954,0,0,1-.729-2.188v-4.72h-1.213V9.49h1.213V7.126ZM113.3,19h-2.971V9.49H113.3ZM110.157,7.038A1.322,1.322,0,0,1,110.614,6a1.943,1.943,0,0,1,2.373,0,1.322,1.322,0,0,1,.457,1.037,1.322,1.322,0,0,1-.457,1.037,1.943,1.943,0,0,1-2.373,0A1.322,1.322,0,0,1,110.157,7.038Zm8.763,8.438,1.5-5.985h3.12L120.44,19h-3.023l-3.1-9.51h3.129Zm5-1.318a5.613,5.613,0,0,1,.554-2.536,3.96,3.96,0,0,1,1.591-1.709,4.791,4.791,0,0,1,2.435-.6,4.373,4.373,0,0,1,3.366,1.323,5.076,5.076,0,0,1,1.23,3.6v.105a4.925,4.925,0,0,1-1.235,3.529,4.384,4.384,0,0,1-3.344,1.305,4.434,4.434,0,0,1-3.261-1.217,4.761,4.761,0,0,1-1.327-3.3Zm2.962.185a3.538,3.538,0,0,0,.413,1.934,1.376,1.376,0,0,0,1.222.615q1.582,0,1.617-2.435v-.3q0-2.558-1.635-2.558-1.485,0-1.608,2.206Z" transform="translate(729 2116)" fill="#12263f"/><path d="M16.465,19V6.2h4.122a6.064,6.064,0,0,1,3.05.769,5.406,5.406,0,0,1,2.114,2.171,6.554,6.554,0,0,1,.769,3.142v.589a6.592,6.592,0,0,1-.743,3.151,5.429,5.429,0,0,1-2.092,2.18,5.93,5.93,0,0,1-3.01.8ZM19.55,8.585v8.042h1.072a2.4,2.4,0,0,0,2.039-.945,4.63,4.63,0,0,0,.712-2.808V12.32a4.592,4.592,0,0,0-.712-2.795,2.442,2.442,0,0,0-2.074-.94ZM31.09,19H28.12V9.49H31.09ZM27.944,7.038A1.322,1.322,0,0,1,28.4,6a1.943,1.943,0,0,1,2.373,0,1.322,1.322,0,0,1,.457,1.037,1.322,1.322,0,0,1-.457,1.037,1.943,1.943,0,0,1-2.373,0A1.322,1.322,0,0,1,27.944,7.038Zm9.949,9.29a.684.684,0,0,0-.4-.606,6.016,6.016,0,0,0-1.5-.475,6.853,6.853,0,0,1-1.828-.646,3.062,3.062,0,0,1-1.1-.971,2.319,2.319,0,0,1-.378-1.31,2.628,2.628,0,0,1,1.081-2.158,4.453,4.453,0,0,1,2.83-.848,4.934,4.934,0,0,1,3.023.853,2.666,2.666,0,0,1,1.143,2.241H37.8q0-1.143-1.2-1.143a1.194,1.194,0,0,0-.782.259.8.8,0,0,0-.316.646.737.737,0,0,0,.387.642,3.654,3.654,0,0,0,1.235.4,10.671,10.671,0,0,1,1.49.378A2.706,2.706,0,0,1,40.75,16.24a2.491,2.491,0,0,1-1.156,2.118,5.068,5.068,0,0,1-2.993.817,5.172,5.172,0,0,1-2.18-.439,3.645,3.645,0,0,1-1.494-1.2,2.707,2.707,0,0,1-.536-1.591H35.16a1.145,1.145,0,0,0,.439.962,1.808,1.808,0,0,0,1.081.3,1.422,1.422,0,0,0,.91-.246A.787.787,0,0,0,37.893,16.328Zm7.69-9.2V9.49h1.564v2.057H45.583V15.9a1.111,1.111,0,0,0,.193.747,1.037,1.037,0,0,0,.765.211,4.345,4.345,0,0,0,.738-.053v2.118a5.466,5.466,0,0,1-1.67.255,3.1,3.1,0,0,1-2.259-.721,2.954,2.954,0,0,1-.729-2.188v-4.72H41.409V9.49h1.213V7.126Zm8.481,5.045-.976-.07a1.752,1.752,0,0,0-1.793.879V19H48.334V9.49h2.777l.1,1.222a2.294,2.294,0,0,1,2.083-1.4,2.888,2.888,0,0,1,.826.105ZM58.257,19H55.287V9.49h2.971ZM55.111,7.038A1.322,1.322,0,0,1,55.568,6a1.943,1.943,0,0,1,2.373,0A1.322,1.322,0,0,1,58.4,7.038a1.322,1.322,0,0,1-.457,1.037,1.943,1.943,0,0,1-2.373,0A1.322,1.322,0,0,1,55.111,7.038Zm13.8,7.286a5.8,5.8,0,0,1-.967,3.595,3.238,3.238,0,0,1-2.725,1.257,2.81,2.81,0,0,1-2.338-1.151L62.757,19H60.1V5.5h2.962v4.755a2.711,2.711,0,0,1,2.136-.94,3.239,3.239,0,0,1,2.742,1.274,5.826,5.826,0,0,1,.967,3.586Zm-2.971-.189a3.866,3.866,0,0,0-.365-1.952,1.229,1.229,0,0,0-1.121-.584,1.418,1.418,0,0,0-1.389.763v3.773a1.426,1.426,0,0,0,1.406.755A1.258,1.258,0,0,0,65.8,15.873,7.309,7.309,0,0,0,65.939,14.135Zm9.94,3.836a3.054,3.054,0,0,1-2.54,1.2,3,3,0,0,1-2.369-.91,3.826,3.826,0,0,1-.8-2.615V9.49h2.962v6.179a1.065,1.065,0,0,0,1.187,1.222,1.548,1.548,0,0,0,1.45-.729V9.49h2.979V19H75.967Zm8.508-1.081a1.317,1.317,0,0,0,.967-.338,1.241,1.241,0,0,0,.334-.945h2.777a3.288,3.288,0,0,1-1.121,2.566,4.168,4.168,0,0,1-2.887,1,4.22,4.22,0,0,1-3.27-1.3,5.125,5.125,0,0,1-1.2-3.6v-.123a5.792,5.792,0,0,1,.532-2.544,3.872,3.872,0,0,1,1.534-1.7,4.573,4.573,0,0,1,2.373-.593,4.116,4.116,0,0,1,2.944,1.028,3.647,3.647,0,0,1,1.09,2.786H85.688A1.626,1.626,0,0,0,85.328,12a1.244,1.244,0,0,0-.967-.4q-1.151,0-1.345,1.468a10.357,10.357,0,0,0-.062,1.283,4.068,4.068,0,0,0,.343,1.986A1.187,1.187,0,0,0,84.387,16.891ZM92.842,19H89.872V9.49h2.971ZM89.7,7.038A1.322,1.322,0,0,1,90.153,6a1.943,1.943,0,0,1,2.373,0,1.322,1.322,0,0,1,.457,1.037,1.322,1.322,0,0,1-.457,1.037,1.943,1.943,0,0,1-2.373,0A1.322,1.322,0,0,1,89.7,7.038Zm4.6,7.119a5.613,5.613,0,0,1,.554-2.536,3.96,3.96,0,0,1,1.591-1.709,4.791,4.791,0,0,1,2.435-.6,4.373,4.373,0,0,1,3.366,1.323,5.076,5.076,0,0,1,1.23,3.6v.105a4.925,4.925,0,0,1-1.235,3.529,4.384,4.384,0,0,1-3.344,1.305,4.434,4.434,0,0,1-3.261-1.217,4.761,4.761,0,0,1-1.327-3.3Zm2.962.185a3.538,3.538,0,0,0,.413,1.934,1.376,1.376,0,0,0,1.222.615q1.582,0,1.617-2.435v-.3q0-2.558-1.635-2.558-1.485,0-1.608,2.206ZM99.276,5.5H102.4L99.961,8.26l-2.417,0Zm8.218,3.99.1,1.116a3.225,3.225,0,0,1,2.716-1.292,2.713,2.713,0,0,1,2.219.888,4.226,4.226,0,0,1,.76,2.672V19h-2.971V13a1.6,1.6,0,0,0-.29-1.059,1.342,1.342,0,0,0-1.055-.338,1.413,1.413,0,0,0-1.292.686V19h-2.962V9.49Zm11.54,4.685a5.809,5.809,0,0,1,.976-3.56,3.211,3.211,0,0,1,2.725-1.3,2.731,2.731,0,0,1,2.145,1V5.5h2.971V19h-2.663l-.149-1.02a2.8,2.8,0,0,1-2.32,1.2,3.205,3.205,0,0,1-2.689-1.3A5.993,5.993,0,0,1,119.034,14.175Zm2.962.185q0,2.531,1.477,2.531a1.458,1.458,0,0,0,1.406-.826V12.443a1.419,1.419,0,0,0-1.389-.844q-1.371,0-1.485,2.215Zm12.138,4.816a4.889,4.889,0,0,1-3.542-1.305,4.507,4.507,0,0,1-1.354-3.4v-.246a5.84,5.84,0,0,1,.541-2.575,3.955,3.955,0,0,1,1.578-1.727,4.763,4.763,0,0,1,2.461-.611,4.117,4.117,0,0,1,3.164,1.244,4.887,4.887,0,0,1,1.16,3.467v1.151h-5.889a2.135,2.135,0,0,0,.694,1.257,2.066,2.066,0,0,0,1.389.457,2.662,2.662,0,0,0,2.2-.984l1.354,1.6a3.784,3.784,0,0,1-1.569,1.217A5.3,5.3,0,0,1,134.133,19.176ZM133.8,11.6q-1.3,0-1.547,1.723h2.988v-.229a1.467,1.467,0,0,0-.36-1.1A1.434,1.434,0,0,0,133.8,11.6ZM44.419,44H41.448V34.49h2.971ZM41.272,32.038A1.322,1.322,0,0,1,41.729,31,1.943,1.943,0,0,1,44.1,31a1.405,1.405,0,0,1,0,2.074,1.943,1.943,0,0,1-2.373,0A1.322,1.322,0,0,1,41.272,32.038Zm7.69,2.452.1,1.116a3.225,3.225,0,0,1,2.716-1.292,2.713,2.713,0,0,1,2.219.888,4.226,4.226,0,0,1,.76,2.672V44H51.784V38a1.6,1.6,0,0,0-.29-1.059,1.342,1.342,0,0,0-1.055-.338,1.413,1.413,0,0,0-1.292.686V44H46.186V34.49ZM57.049,44V36.547h-1.38V34.49h1.38v-.756a3.286,3.286,0,0,1,.958-2.522,3.785,3.785,0,0,1,2.689-.9,5.89,5.89,0,0,1,1.389.185l.009,2.18a2.706,2.706,0,0,0-.729-.079q-1.345,0-1.345,1.16v.729h1.854v2.057H60.02V44Zm5.493-4.843a5.613,5.613,0,0,1,.554-2.536,3.96,3.96,0,0,1,1.591-1.709,4.791,4.791,0,0,1,2.435-.6,4.373,4.373,0,0,1,3.366,1.323,5.076,5.076,0,0,1,1.23,3.6v.105a4.925,4.925,0,0,1-1.235,3.529,4.384,4.384,0,0,1-3.344,1.305,4.434,4.434,0,0,1-3.261-1.217,4.761,4.761,0,0,1-1.327-3.3Zm2.962.185a3.538,3.538,0,0,0,.413,1.934,1.376,1.376,0,0,0,1.222.615q1.582,0,1.617-2.435v-.3q0-2.558-1.635-2.558-1.485,0-1.608,2.206Zm13.271-2.171L77.8,37.1a1.752,1.752,0,0,0-1.793.879V44H73.045V34.49h2.777l.1,1.222A2.294,2.294,0,0,1,78,34.314a2.888,2.888,0,0,1,.826.105Zm3.867-2.681.1,1.116a3.27,3.27,0,0,1,2.716-1.292,2.407,2.407,0,0,1,2.435,1.433,3.165,3.165,0,0,1,2.795-1.433q2.892,0,2.971,3.5V44H90.685V38a1.813,1.813,0,0,0-.246-1.063,1.048,1.048,0,0,0-.9-.334,1.4,1.4,0,0,0-1.31.782l.009.123V44H85.271V38.015a1.906,1.906,0,0,0-.237-1.081,1.045,1.045,0,0,0-.905-.334,1.42,1.42,0,0,0-1.3.782V44H79.865V34.49Zm17.306,9.686a4.889,4.889,0,0,1-3.542-1.305,4.507,4.507,0,0,1-1.354-3.4v-.246a5.84,5.84,0,0,1,.541-2.575,3.955,3.955,0,0,1,1.578-1.727,4.763,4.763,0,0,1,2.461-.611,4.117,4.117,0,0,1,3.164,1.244,4.887,4.887,0,0,1,1.16,3.467v1.151H98.067a2.135,2.135,0,0,0,.694,1.257,2.066,2.066,0,0,0,1.389.457,2.662,2.662,0,0,0,2.2-.984l1.354,1.6a3.784,3.784,0,0,1-1.569,1.217A5.3,5.3,0,0,1,99.948,44.176ZM99.614,36.6q-1.3,0-1.547,1.723h2.988v-.229a1.467,1.467,0,0,0-.36-1.1A1.434,1.434,0,0,0,99.614,36.6Zm10.512,4.729a.684.684,0,0,0-.4-.606,6.016,6.016,0,0,0-1.5-.475A6.853,6.853,0,0,1,106.4,39.6a3.062,3.062,0,0,1-1.1-.971,2.319,2.319,0,0,1-.378-1.31A2.628,2.628,0,0,1,106,35.163a4.453,4.453,0,0,1,2.83-.848,4.934,4.934,0,0,1,3.023.853A2.666,2.666,0,0,1,113,37.408h-2.971q0-1.143-1.2-1.143a1.194,1.194,0,0,0-.782.259.8.8,0,0,0-.316.646.737.737,0,0,0,.387.642,3.654,3.654,0,0,0,1.235.4,10.671,10.671,0,0,1,1.49.378,2.706,2.706,0,0,1,2.145,2.646,2.491,2.491,0,0,1-1.156,2.118,5.068,5.068,0,0,1-2.993.817,5.172,5.172,0,0,1-2.18-.439,3.645,3.645,0,0,1-1.494-1.2,2.707,2.707,0,0,1-.536-1.591h2.769a1.145,1.145,0,0,0,.439.962,1.808,1.808,0,0,0,1.081.3,1.422,1.422,0,0,0,.91-.246A.787.787,0,0,0,110.126,41.328Z" transform="translate(1161 2097)" fill="#12263f"/><path d="M14.422,14.667a4.673,4.673,0,0,1-.721,2.36,4.35,4.35,0,0,1-1.85,1.586,6.3,6.3,0,0,1-2.72.563,5.025,5.025,0,0,1-3.973-1.644,6.786,6.786,0,0,1-1.45-4.641v-.633a7.746,7.746,0,0,1,.655-3.292,4.961,4.961,0,0,1,1.885-2.18A5.26,5.26,0,0,1,9.1,6.019,5.516,5.516,0,0,1,12.84,7.245a4.844,4.844,0,0,1,1.608,3.379H11.372a2.292,2.292,0,0,0-.589-1.679A2.422,2.422,0,0,0,9.1,8.436,1.843,1.843,0,0,0,7.408,9.3a5.536,5.536,0,0,0-.562,2.751v.905A6.125,6.125,0,0,0,7.36,15.88a1.882,1.882,0,0,0,1.771.879,2.369,2.369,0,0,0,1.626-.5,2.126,2.126,0,0,0,.6-1.591ZM18.869,19H15.9V5.5h2.971Zm7.181,0a3.344,3.344,0,0,1-.281-.853,2.754,2.754,0,0,1-2.285,1.028,3.374,3.374,0,0,1-2.285-.813,2.588,2.588,0,0,1-.94-2.043A2.66,2.66,0,0,1,21.4,13.981a5.821,5.821,0,0,1,3.322-.791h.914v-.5q0-1.316-1.134-1.316a.927.927,0,0,0-1.055,1.042H20.486a2.655,2.655,0,0,1,1.173-2.239,4.931,4.931,0,0,1,2.993-.86,4.323,4.323,0,0,1,2.874.888,3.086,3.086,0,0,1,1.081,2.435v4.21a4.311,4.311,0,0,0,.4,2V19ZM24.2,17.066a1.652,1.652,0,0,0,.918-.237,1.487,1.487,0,0,0,.523-.536V14.772h-.861q-1.547,0-1.547,1.389a.848.848,0,0,0,.272.655A.986.986,0,0,0,24.2,17.066Zm11.03-.738a.684.684,0,0,0-.4-.606,6.016,6.016,0,0,0-1.5-.475A6.853,6.853,0,0,1,31.5,14.6a3.062,3.062,0,0,1-1.1-.971,2.319,2.319,0,0,1-.378-1.31A2.628,2.628,0,0,1,31.1,10.163a4.453,4.453,0,0,1,2.83-.848,4.934,4.934,0,0,1,3.023.853A2.666,2.666,0,0,1,38.1,12.408H35.129q0-1.143-1.2-1.143a1.194,1.194,0,0,0-.782.259.8.8,0,0,0-.316.646.737.737,0,0,0,.387.642,3.654,3.654,0,0,0,1.235.4,10.671,10.671,0,0,1,1.49.378,2.706,2.706,0,0,1,2.145,2.646,2.491,2.491,0,0,1-1.156,2.118,5.068,5.068,0,0,1-2.993.817,5.172,5.172,0,0,1-2.18-.439,3.645,3.645,0,0,1-1.494-1.2,2.707,2.707,0,0,1-.536-1.591h2.769a1.145,1.145,0,0,0,.439.962,1.808,1.808,0,0,0,1.081.3,1.422,1.422,0,0,0,.91-.246A.787.787,0,0,0,35.226,16.328ZM42.591,19H39.62V9.49h2.971ZM39.444,7.038A1.322,1.322,0,0,1,39.9,6a1.943,1.943,0,0,1,2.373,0,1.322,1.322,0,0,1,.457,1.037,1.322,1.322,0,0,1-.457,1.037,1.943,1.943,0,0,1-2.373,0A1.322,1.322,0,0,1,39.444,7.038ZM45.1,19V11.547h-1.38V9.49H45.1V9.174a3.631,3.631,0,0,1,1.248-2.909A4.987,4.987,0,0,1,49.6,5.315a11.509,11.509,0,0,1,3.094.51l-.4,2.338-.492-.132a7.832,7.832,0,0,0-2.021-.255q-1.7,0-1.7,1.547V9.49h1.863v2.057H48.075V19Zm8.947,0H51.072V9.49h2.979Zm5.827-2.109a1.317,1.317,0,0,0,.967-.338,1.241,1.241,0,0,0,.334-.945h2.777a3.288,3.288,0,0,1-1.121,2.566,4.168,4.168,0,0,1-2.887,1,4.22,4.22,0,0,1-3.27-1.3,5.125,5.125,0,0,1-1.2-3.6v-.123a5.792,5.792,0,0,1,.532-2.544,3.872,3.872,0,0,1,1.534-1.7,4.573,4.573,0,0,1,2.373-.593,4.116,4.116,0,0,1,2.944,1.028,3.647,3.647,0,0,1,1.09,2.786H61.18A1.626,1.626,0,0,0,60.819,12a1.244,1.244,0,0,0-.967-.4q-1.151,0-1.345,1.468a10.357,10.357,0,0,0-.062,1.283,4.068,4.068,0,0,0,.343,1.986A1.187,1.187,0,0,0,59.879,16.891ZM70.566,19a3.344,3.344,0,0,1-.281-.853A2.754,2.754,0,0,1,68,19.176a3.374,3.374,0,0,1-2.285-.813,2.588,2.588,0,0,1-.94-2.043,2.66,2.66,0,0,1,1.143-2.338,5.821,5.821,0,0,1,3.322-.791h.914v-.5q0-1.316-1.134-1.316a.927.927,0,0,0-1.055,1.042H65a2.655,2.655,0,0,1,1.173-2.239,4.931,4.931,0,0,1,2.993-.86,4.323,4.323,0,0,1,2.874.888,3.086,3.086,0,0,1,1.081,2.435v4.21a4.311,4.311,0,0,0,.4,2V19Zm-1.854-1.934a1.652,1.652,0,0,0,.918-.237,1.487,1.487,0,0,0,.523-.536V14.772h-.861q-1.547,0-1.547,1.389a.848.848,0,0,0,.272.655A.986.986,0,0,0,68.712,17.066Zm10.072-.176a1.317,1.317,0,0,0,.967-.338,1.241,1.241,0,0,0,.334-.945h2.777a3.288,3.288,0,0,1-1.121,2.566,4.168,4.168,0,0,1-2.887,1,4.22,4.22,0,0,1-3.27-1.3,5.125,5.125,0,0,1-1.2-3.6v-.123a5.792,5.792,0,0,1,.532-2.544,3.872,3.872,0,0,1,1.534-1.7,4.573,4.573,0,0,1,2.373-.593,4.116,4.116,0,0,1,2.944,1.028,3.647,3.647,0,0,1,1.09,2.786H80.085A1.626,1.626,0,0,0,79.725,12a1.244,1.244,0,0,0-.967-.4q-1.151,0-1.345,1.468a10.357,10.357,0,0,0-.062,1.283,4.068,4.068,0,0,0,.343,1.986A1.187,1.187,0,0,0,78.784,16.891ZM87.239,19H84.269V9.49h2.971ZM84.093,7.038A1.322,1.322,0,0,1,84.55,6a1.943,1.943,0,0,1,2.373,0,1.322,1.322,0,0,1,.457,1.037,1.322,1.322,0,0,1-.457,1.037,1.943,1.943,0,0,1-2.373,0A1.322,1.322,0,0,1,84.093,7.038Zm4.6,7.119a5.613,5.613,0,0,1,.554-2.536,3.96,3.96,0,0,1,1.591-1.709,4.791,4.791,0,0,1,2.435-.6,4.373,4.373,0,0,1,3.366,1.323,5.076,5.076,0,0,1,1.23,3.6v.105a4.925,4.925,0,0,1-1.235,3.529,4.384,4.384,0,0,1-3.344,1.305,4.434,4.434,0,0,1-3.261-1.217,4.761,4.761,0,0,1-1.327-3.3Zm2.962.185a3.538,3.538,0,0,0,.413,1.934,1.376,1.376,0,0,0,1.222.615q1.582,0,1.617-2.435v-.3q0-2.558-1.635-2.558-1.485,0-1.608,2.206ZM93.673,5.5H96.8L94.358,8.26l-2.417,0Zm8.218,3.99.1,1.116A3.225,3.225,0,0,1,104.7,9.314a2.713,2.713,0,0,1,2.219.888,4.226,4.226,0,0,1,.76,2.672V19h-2.971V13a1.6,1.6,0,0,0-.29-1.059,1.342,1.342,0,0,0-1.055-.338,1.413,1.413,0,0,0-1.292.686V19H99.113V9.49Zm11.54,4.685a5.809,5.809,0,0,1,.976-3.56,3.211,3.211,0,0,1,2.725-1.3,2.731,2.731,0,0,1,2.145,1V5.5h2.971V19h-2.663l-.149-1.02a2.8,2.8,0,0,1-2.32,1.2,3.205,3.205,0,0,1-2.689-1.3A5.993,5.993,0,0,1,113.431,14.175Zm2.962.185q0,2.531,1.477,2.531a1.458,1.458,0,0,0,1.406-.826V12.443a1.419,1.419,0,0,0-1.389-.844q-1.371,0-1.485,2.215Zm12.138,4.816a4.889,4.889,0,0,1-3.542-1.305,4.507,4.507,0,0,1-1.354-3.4v-.246a5.84,5.84,0,0,1,.541-2.575,3.955,3.955,0,0,1,1.578-1.727,4.763,4.763,0,0,1,2.461-.611,4.117,4.117,0,0,1,3.164,1.244,4.887,4.887,0,0,1,1.16,3.467v1.151h-5.889a2.135,2.135,0,0,0,.694,1.257,2.066,2.066,0,0,0,1.389.457,2.662,2.662,0,0,0,2.2-.984l1.354,1.6a3.784,3.784,0,0,1-1.569,1.217A5.3,5.3,0,0,1,128.53,19.176ZM128.2,11.6q-1.3,0-1.547,1.723h2.988v-.229a1.467,1.467,0,0,0-.36-1.1A1.434,1.434,0,0,0,128.2,11.6ZM35.419,44H32.448V34.49h2.971ZM32.272,32.038A1.322,1.322,0,0,1,32.729,31,1.943,1.943,0,0,1,35.1,31a1.405,1.405,0,0,1,0,2.074,1.943,1.943,0,0,1-2.373,0A1.322,1.322,0,0,1,32.272,32.038Zm7.69,2.452.1,1.116a3.225,3.225,0,0,1,2.716-1.292,2.713,2.713,0,0,1,2.219.888,4.226,4.226,0,0,1,.76,2.672V44H42.784V38a1.6,1.6,0,0,0-.29-1.059,1.342,1.342,0,0,0-1.055-.338,1.413,1.413,0,0,0-1.292.686V44H37.186V34.49ZM48.049,44V36.547h-1.38V34.49h1.38v-.756a3.286,3.286,0,0,1,.958-2.522,3.785,3.785,0,0,1,2.689-.9,5.89,5.89,0,0,1,1.389.185l.009,2.18a2.706,2.706,0,0,0-.729-.079q-1.345,0-1.345,1.16v.729h1.854v2.057H51.02V44Zm5.493-4.843a5.613,5.613,0,0,1,.554-2.536,3.96,3.96,0,0,1,1.591-1.709,4.791,4.791,0,0,1,2.435-.6,4.373,4.373,0,0,1,3.366,1.323,5.076,5.076,0,0,1,1.23,3.6v.105a4.925,4.925,0,0,1-1.235,3.529,4.384,4.384,0,0,1-3.344,1.305,4.434,4.434,0,0,1-3.261-1.217,4.761,4.761,0,0,1-1.327-3.3Zm2.962.185a3.538,3.538,0,0,0,.413,1.934,1.376,1.376,0,0,0,1.222.615q1.582,0,1.617-2.435v-.3q0-2.558-1.635-2.558-1.485,0-1.608,2.206Zm13.271-2.171L68.8,37.1a1.752,1.752,0,0,0-1.793.879V44H64.045V34.49h2.777l.1,1.222A2.294,2.294,0,0,1,69,34.314a2.888,2.888,0,0,1,.826.105Zm3.867-2.681.1,1.116a3.27,3.27,0,0,1,2.716-1.292,2.407,2.407,0,0,1,2.435,1.433,3.165,3.165,0,0,1,2.795-1.433q2.892,0,2.971,3.5V44H81.685V38a1.813,1.813,0,0,0-.246-1.063,1.048,1.048,0,0,0-.9-.334,1.4,1.4,0,0,0-1.31.782l.009.123V44H76.271V38.015a1.906,1.906,0,0,0-.237-1.081,1.045,1.045,0,0,0-.905-.334,1.42,1.42,0,0,0-1.3.782V44H70.865V34.49Zm17.306,9.686a4.889,4.889,0,0,1-3.542-1.305,4.507,4.507,0,0,1-1.354-3.4v-.246a5.84,5.84,0,0,1,.541-2.575,3.955,3.955,0,0,1,1.578-1.727,4.763,4.763,0,0,1,2.461-.611A4.117,4.117,0,0,1,93.8,35.558a4.887,4.887,0,0,1,1.16,3.467v1.151H89.067a2.135,2.135,0,0,0,.694,1.257,2.066,2.066,0,0,0,1.389.457,2.662,2.662,0,0,0,2.2-.984l1.354,1.6a3.784,3.784,0,0,1-1.569,1.217A5.3,5.3,0,0,1,90.948,44.176ZM90.614,36.6q-1.3,0-1.547,1.723h2.988v-.229a1.467,1.467,0,0,0-.36-1.1A1.434,1.434,0,0,0,90.614,36.6Zm10.512,4.729a.684.684,0,0,0-.4-.606,6.016,6.016,0,0,0-1.5-.475A6.853,6.853,0,0,1,97.4,39.6a3.062,3.062,0,0,1-1.1-.971,2.319,2.319,0,0,1-.378-1.31A2.628,2.628,0,0,1,97,35.163a4.453,4.453,0,0,1,2.83-.848,4.934,4.934,0,0,1,3.023.853A2.666,2.666,0,0,1,104,37.408h-2.971q0-1.143-1.2-1.143a1.194,1.194,0,0,0-.782.259.8.8,0,0,0-.316.646.737.737,0,0,0,.387.642,3.654,3.654,0,0,0,1.235.4,10.671,10.671,0,0,1,1.49.378,2.706,2.706,0,0,1,2.145,2.646,2.491,2.491,0,0,1-1.156,2.118,5.068,5.068,0,0,1-2.993.817,5.172,5.172,0,0,1-2.18-.439,3.645,3.645,0,0,1-1.494-1.2,2.707,2.707,0,0,1-.536-1.591h2.769a1.145,1.145,0,0,0,.439.962,1.808,1.808,0,0,0,1.081.3,1.422,1.422,0,0,0,.91-.246A.787.787,0,0,0,101.126,41.328Z" transform="translate(945 2235)" fill="#12263f"/><g transform="translate(543.072 2060.285)"><g clip-path="url(#q)"><path d="M41.929,83.857A41.929,41.929,0,1,1,83.857,41.928,41.929,41.929,0,0,1,41.929,83.857m0-78.267A36.338,36.338,0,1,0,78.267,41.928,36.339,36.339,0,0,0,41.929,5.59m-11.992,52.3L43.913,43.913a2.8,2.8,0,0,0,.811-1.985V25.157a2.8,2.8,0,0,0-5.591,0V40.782L25.968,53.92a2.794,2.794,0,0,0-.016,3.953l.016.016a2.8,2.8,0,0,0,3.953.016l.016-.016" fill="#e01650"/></g></g><g transform="translate(762.231 2235)"><g clip-path="url(#r)"><path d="M66.538,52.891a2.213,2.213,0,0,0,2.213-2.213V39.613a13.293,13.293,0,0,0-7.332-11.87,7.377,7.377,0,1,0-11.9,0,13.165,13.165,0,0,0-1.688,1.013,13.379,13.379,0,0,0-3.868-3.091,8.114,8.114,0,1,0-12.4,0,13.376,13.376,0,0,0-3.868,3.09,13.277,13.277,0,0,0-1.689-1.011,7.377,7.377,0,1,0-11.894,0,13.293,13.293,0,0,0-7.332,11.87V50.678A2.213,2.213,0,0,0,9,52.891H24.491V55.1A2.213,2.213,0,0,0,26.7,57.317h22.13A2.213,2.213,0,0,0,51.047,55.1V52.891ZM52.522,23.384a2.951,2.951,0,1,1,2.951,2.951,2.954,2.954,0,0,1-2.951-2.951m2.951,7.377a8.862,8.862,0,0,1,8.852,8.852v8.852H51.047V37.4a13.219,13.219,0,0,0-.915-4.845,8.779,8.779,0,0,1,5.341-1.794M34.081,20.434a3.688,3.688,0,1,1,3.688,3.688,3.692,3.692,0,0,1-3.688-3.688m-16.967,2.95a2.951,2.951,0,1,1,2.951,2.951,2.954,2.954,0,0,1-2.951-2.951m-5.9,25.081V39.613a8.85,8.85,0,0,1,14.193-7.057,13.213,13.213,0,0,0-.915,4.844V48.465Zm35.408,4.426h-17.7V37.4a8.852,8.852,0,1,1,17.7,0Z" fill="#1acec3"/><path d="M73.324,51.784A2.213,2.213,0,0,0,71.111,54V65.21H59.9a2.213,2.213,0,0,0,0,4.426H73.324a2.213,2.213,0,0,0,2.213-2.213V54a2.213,2.213,0,0,0-2.213-2.213" fill="#1acec3"/><path d="M15.639,65.21H4.425V54A2.213,2.213,0,1,0,0,54V67.423a2.213,2.213,0,0,0,2.213,2.213H15.639a2.213,2.213,0,0,0,0-4.426" fill="#1acec3"/><path d="M2.213,17.852a2.213,2.213,0,0,0,2.213-2.213V4.426H15.639a2.213,2.213,0,0,0,0-4.426H2.213A2.213,2.213,0,0,0,0,2.213V15.639a2.213,2.213,0,0,0,2.213,2.213" fill="#1acec3"/><path d="M73.324,0H59.751a2.213,2.213,0,1,0,0,4.426h11.36V15.639a2.213,2.213,0,0,0,4.426,0V2.213A2.213,2.213,0,0,0,73.324,0" fill="#1acec3"/></g></g><g transform="translate(979.771 2067.543)"><g clip-path="url(#s)"><path d="M45.1,47.551a3.406,3.406,0,0,0,2.459-1.037l5.794-5.94a3.435,3.435,0,0,0-4.919-4.8l-3.4,3.485-.6-.579a3.435,3.435,0,0,0-4.789,4.925l3.054,2.97a3.419,3.419,0,0,0,2.4.972M41.17,40.3a1.221,1.221,0,0,1,1.725-.024l1.388,1.35a1.108,1.108,0,0,0,1.565-.021l4.171-4.276a1.22,1.22,0,1,1,1.747,1.7l-5.793,5.94a1.226,1.226,0,0,1-1.724.023l-3.055-2.97A1.221,1.221,0,0,1,41.17,40.3Z" fill="#5e8eca"/><path d="M36.537,48.305a1.108,1.108,0,0,0-1.769,1.334,14.626,14.626,0,0,0,1.326,1.523,14.408,14.408,0,1,0-3.539-5.8,1.108,1.108,0,1,0,2.11-.674,12.214,12.214,0,1,1,3,4.906A12.388,12.388,0,0,1,36.537,48.305Z" fill="#5e8eca"/><path d="M73.933,61.2l-6.987-6.987a1.109,1.109,0,0,0-1.567,0l-.043.043-2.689-2.689a19.456,19.456,0,0,0,3.1-9.367,1.108,1.108,0,0,0-2.211-.14A17.261,17.261,0,0,1,46.307,58.234h-.1A17.266,17.266,0,1,1,63.295,37.9a1.108,1.108,0,1,0,2.181-.391A19.512,19.512,0,0,0,55.439,23.757V14.831a1.121,1.121,0,0,0-.325-.783L41.389.324A1.124,1.124,0,0,0,40.606,0H3.323A3.326,3.326,0,0,0,0,3.323v9.308a1.108,1.108,0,1,0,2.215,0V3.323A1.109,1.109,0,0,1,3.324,2.215H39.5v10.4a3.327,3.327,0,0,0,3.323,3.323h10.4v6.815A19.578,19.578,0,0,0,46.5,21.49c-.011,0-.022,0-.033,0H21.739a1.108,1.108,0,0,0,0,2.215H37.247a19.431,19.431,0,0,0-4.418,3.173H21.739a1.108,1.108,0,0,0,0,2.215h9.1A19.286,19.286,0,0,0,27.2,37.007H21.739a1.108,1.108,0,0,0,0,2.215h5.138q-.077.867-.078,1.746,0,.722.052,1.435H21.74a1.108,1.108,0,1,0,0,2.215h5.4a19.288,19.288,0,0,0,3.7,8.234h-9.1a1.108,1.108,0,1,0,0,2.215H32.833a19.418,19.418,0,0,0,4.411,3.167h-15.5a1.108,1.108,0,1,0,0,2.215H46.29a19.577,19.577,0,0,0,6.933-1.267V72.135a1.108,1.108,0,0,1-1.107,1.108H3.323a1.109,1.109,0,0,1-1.107-1.108V17.062a1.108,1.108,0,0,0-2.216,0V72.135a3.327,3.327,0,0,0,3.323,3.322H52.116a3.327,3.327,0,0,0,3.323-3.323V58.178q.741-.393,1.454-.855l2.688,2.688a1.117,1.117,0,0,0-.042,1.609l6.988,6.987A5.237,5.237,0,0,0,73.933,61.2ZM42.821,13.724a1.109,1.109,0,0,1-1.108-1.108V3.781l9.944,9.943ZM58.7,56q.708-.587,1.373-1.248t1.248-1.373l2.449,2.447-2.622,2.622ZM72.367,67.041a3.037,3.037,0,0,1-4.274,0l-6.205-6.2,4.274-4.273,6.2,6.2a3.035,3.035,0,0,1,0,4.273" fill="#5e8eca"/><path d="M10.052,30.183H14.9a2.48,2.48,0,0,0,2.478-2.477V22.861A2.48,2.48,0,0,0,14.9,20.384H10.052a2.48,2.48,0,0,0-2.477,2.477v4.845a2.48,2.48,0,0,0,2.477,2.477M9.79,22.861a.262.262,0,0,1,.262-.262H14.9a.262.262,0,0,1,.262.262v4.845a.262.262,0,0,1-.262.262H10.052a.262.262,0,0,1-.262-.262Z" fill="#5e8eca"/><path d="M7.575,43.235a2.48,2.48,0,0,0,2.477,2.477H14.9a2.48,2.48,0,0,0,2.478-2.477V38.39A2.48,2.48,0,0,0,14.9,35.913H10.052A2.48,2.48,0,0,0,7.575,38.39ZM9.79,38.39a.262.262,0,0,1,.262-.262H14.9a.262.262,0,0,1,.262.262v4.845a.262.262,0,0,1-.262.262H10.052a.262.262,0,0,1-.262-.262Z" fill="#5e8eca"/><path d="M7.575,59.079a2.48,2.48,0,0,0,2.477,2.477H14.9a2.48,2.48,0,0,0,2.478-2.477V54.234A2.48,2.48,0,0,0,14.9,51.757H10.052a2.48,2.48,0,0,0-2.477,2.477ZM9.79,54.234a.262.262,0,0,1,.262-.262H14.9a.262.262,0,0,1,.262.262v4.845a.262.262,0,0,1-.262.262H10.052a.262.262,0,0,1-.262-.262Z" fill="#5e8eca"/></g></g><g transform="translate(1194.92 2232)"><g clip-path="url(#t)"><path d="M52.511,25.388A1.491,1.491,0,0,1,51.02,23.9V13.706a1.49,1.49,0,1,1,2.981,0V23.9a1.49,1.49,0,0,1-1.49,1.491" fill="#8869a3"/><path d="M52.5,7.419A1.49,1.49,0,1,1,51.013,8.91,1.49,1.49,0,0,1,52.5,7.419" fill="#8869a3"/><path d="M68.16,15.658A15.648,15.648,0,0,0,43,3.226H5.424A5.43,5.43,0,0,0,0,8.65V62.871a5.43,5.43,0,0,0,5.424,5.424h4.73v2.594a5.43,5.43,0,0,0,5.424,5.424H54.549a5.43,5.43,0,0,0,5.424-5.424V50.215a1.49,1.49,0,0,0-2.981,0V70.889a2.446,2.446,0,0,1-2.443,2.443H15.578a2.446,2.446,0,0,1-2.443-2.443V68.295H44.4a5.431,5.431,0,0,0,5.425-5.424V31.087a15.715,15.715,0,0,0,7.172-.426v6.078a1.49,1.49,0,1,0,2.981,0V29.417A15.673,15.673,0,0,0,68.16,15.658ZM46.839,62.871A2.447,2.447,0,0,1,44.4,65.314H5.424a2.446,2.446,0,0,1-2.443-2.443V8.65A2.446,2.446,0,0,1,5.424,6.207h34.6A15.578,15.578,0,0,0,36.862,15H11.48a1.491,1.491,0,0,0-1.49,1.491v6.3a1.49,1.49,0,0,0,1.49,1.49H38.339a1.478,1.478,0,0,0,.9-.3,15.745,15.745,0,0,0,7.6,6.287ZM36.848,17.978v3.314H12.971V17.978ZM52.5,28.336A12.678,12.678,0,1,1,65.179,15.658,12.691,12.691,0,0,1,52.5,28.336" fill="#8869a3"/><path d="M58.482,44.941a1.491,1.491,0,1,1,1.452-1.151,1.5,1.5,0,0,1-1.452,1.151" fill="#8869a3"/><path d="M38.339,32.438H11.48a1.49,1.49,0,0,1,0-2.981H38.339a1.49,1.49,0,0,1,0,2.981" fill="#8869a3"/><path d="M38.339,39.508H11.48a1.49,1.49,0,0,1,0-2.981H38.339a1.49,1.49,0,0,1,0,2.981" fill="#8869a3"/><path d="M38.339,46.577H11.48a1.49,1.49,0,0,1,0-2.981H38.339a1.49,1.49,0,0,1,0,2.981" fill="#8869a3"/><path d="M38.339,53.646H11.48a1.49,1.49,0,0,1,0-2.981H38.339a1.49,1.49,0,0,1,0,2.981" fill="#8869a3"/></g></g></g></svg>