<svg xmlns="http://www.w3.org/2000/svg" xmlns:xlink="http://www.w3.org/1999/xlink" width="883.625" height="302.854" viewBox="0 0 883.625 302.854"><defs><clipPath id="a"><rect width="883.625" height="302.854" fill="none"/></clipPath><clipPath id="c"><rect width="264.657" height="16.417" transform="translate(0 275.028)" fill="none"/></clipPath><clipPath id="d"><path d="M2.268,0H183.889a2.269,2.269,0,0,1,2.269,2.269V233.532a2.268,2.268,0,0,1-2.268,2.268H2.268A2.268,2.268,0,0,1,0,233.532V2.268A2.268,2.268,0,0,1,2.268,0Z" transform="translate(37.214 27.727)" fill="none"/></clipPath><linearGradient id="e" x1="0.011" y1="1.04" x2="0.014" y2="1.04" gradientUnits="objectBoundingBox"><stop offset="0" stop-color="#fff"/><stop offset="1" stop-color="#bae2f0"/></linearGradient><clipPath id="g"><rect width="9.103" height="3.149" transform="translate(215.569 152.67)" fill="none"/></clipPath><clipPath id="h"><rect width="30.283" height="2.162" transform="translate(204.873 205.448)" fill="none"/></clipPath><clipPath id="i"><rect width="108.386" height="46.249" transform="translate(162.694 75.834)" fill="none"/></clipPath></defs><g transform="translate(6198 8352)"><path d="M436.9,104.926V68.169l-4.791-4.822H379.4V100.1l4.792,4.822Z" transform="translate(-6198 -8352)" fill="none" stroke="#5c379b" stroke-miterlimit="10" stroke-width="2"/><path d="M4.889.166a3.924,3.924,0,0,1-2.972-1.2A4.452,4.452,0,0,1,.772-4.242v-.282a5.39,5.39,0,0,1,.51-2.386A3.982,3.982,0,0,1,2.71-8.554,3.59,3.59,0,0,1,4.7-9.147,3.364,3.364,0,0,1,7.421-7.994a5,5,0,0,1,.971,3.3v.639H2.308a3.193,3.193,0,0,0,.776,2.146,2.44,2.44,0,0,0,1.888.818A2.675,2.675,0,0,0,6.35-1.419a3.462,3.462,0,0,0,.988-.88l.938.73A3.772,3.772,0,0,1,4.889.166ZM4.7-7.886a2.048,2.048,0,0,0-1.561.677,3.288,3.288,0,0,0-.78,1.9h4.5v-.116a2.925,2.925,0,0,0-.631-1.814A1.928,1.928,0,0,0,4.7-7.886Zm10.7,5.5a1.131,1.131,0,0,0-.469-.967,4.514,4.514,0,0,0-1.635-.594,7.731,7.731,0,0,1-1.851-.6,2.633,2.633,0,0,1-1.013-.83A1.986,1.986,0,0,1,10.1-6.516a2.33,2.33,0,0,1,.934-1.868,3.647,3.647,0,0,1,2.386-.764,3.753,3.753,0,0,1,2.478.789,2.5,2.5,0,0,1,.95,2.017H15.307a1.386,1.386,0,0,0-.535-1.087,2.006,2.006,0,0,0-1.349-.457,2.1,2.1,0,0,0-1.312.365,1.15,1.15,0,0,0-.473.955.932.932,0,0,0,.44.838,5.413,5.413,0,0,0,1.59.54,8.283,8.283,0,0,1,1.864.614,2.718,2.718,0,0,1,1.058.859,2.112,2.112,0,0,1,.344,1.224,2.3,2.3,0,0,1-.963,1.93,4.039,4.039,0,0,1-2.5.726,4.523,4.523,0,0,1-1.909-.382,3.105,3.105,0,0,1-1.3-1.067,2.571,2.571,0,0,1-.469-1.482h1.536a1.59,1.59,0,0,0,.618,1.224,2.4,2.4,0,0,0,1.523.452,2.476,2.476,0,0,0,1.4-.353A1.084,1.084,0,0,0,15.4-2.382Z" transform="translate(-5798.743 -8261.541)"/><path d="M617.016,32.507l-207.84,1.44.48,27.84" transform="translate(-6198 -8352)" fill="none" stroke="#5c379b" stroke-miterlimit="10" stroke-width="2"/><path d="M542.136,32.507l186.678,1.44.162,19.92" transform="translate(-6198 -8352)" fill="none" stroke="#5c379b" stroke-miterlimit="10" stroke-width="2"/><path d="M687.66,95.208V58.451l9.834-4.822H805.679V90.386l-9.834,4.822Z" transform="translate(-6198 -8352)" fill="none" stroke="#5c379b" stroke-miterlimit="10" stroke-width="2"/><path d="M3.246-11.156v2.175H4.922v1.187H3.246v5.577a1.247,1.247,0,0,0,.224.81.943.943,0,0,0,.764.27,3.718,3.718,0,0,0,.73-.1V0A4.478,4.478,0,0,1,3.785.166,1.912,1.912,0,0,1,2.233-.457,2.675,2.675,0,0,1,1.71-2.225v-5.57H.075V-8.981H1.71v-2.175ZM12.26,0a3.226,3.226,0,0,1-.216-.946A3.426,3.426,0,0,1,9.488.166,3.17,3.17,0,0,1,7.309-.585,2.43,2.43,0,0,1,6.458-2.49,2.539,2.539,0,0,1,7.525-4.669a5.029,5.029,0,0,1,3-.776H12.02v-.706a1.725,1.725,0,0,0-.481-1.282,1.935,1.935,0,0,0-1.419-.477A2.239,2.239,0,0,0,8.741-7.5a1.223,1.223,0,0,0-.556,1H6.641a2.119,2.119,0,0,1,.477-1.3,3.258,3.258,0,0,1,1.295-.992,4.356,4.356,0,0,1,1.8-.365,3.551,3.551,0,0,1,2.432.776,2.8,2.8,0,0,1,.913,2.137V-2.1a5.054,5.054,0,0,0,.315,1.967V0ZM9.712-1.17a2.7,2.7,0,0,0,1.37-.374,2.259,2.259,0,0,0,.938-.971V-4.358h-1.2q-2.822,0-2.822,1.652a1.4,1.4,0,0,0,.481,1.129A1.85,1.85,0,0,0,9.712-1.17Zm7.695-7.811.042,1a3.317,3.317,0,0,1,2.665-1.162A2.568,2.568,0,0,1,22.678-7.7a3.4,3.4,0,0,1,1.166-1.046,3.445,3.445,0,0,1,1.7-.4q2.955,0,3,3.129V0H27.011V-5.927a2.062,2.062,0,0,0-.44-1.44,1.937,1.937,0,0,0-1.478-.477,2.036,2.036,0,0,0-1.419.51,2.071,2.071,0,0,0-.656,1.374V0H21.474V-5.885a1.713,1.713,0,0,0-1.917-1.959A2.055,2.055,0,0,0,17.49-6.558V0H15.954V-8.981Zm21.059,4.59a5.34,5.34,0,0,1-.946,3.308A3.024,3.024,0,0,1,34.979.166a3.131,3.131,0,0,1-2.631-1.2L32.273,0H30.862V-12.75H32.4v4.756a3.113,3.113,0,0,1,2.565-1.154,3.042,3.042,0,0,1,2.569,1.237,5.5,5.5,0,0,1,.934,3.387ZM36.93-4.565a4.15,4.15,0,0,0-.606-2.424,2.006,2.006,0,0,0-1.743-.855A2.255,2.255,0,0,0,32.4-6.433v3.885a2.318,2.318,0,0,0,2.2,1.411,2,2,0,0,0,1.718-.855A4.413,4.413,0,0,0,36.93-4.565ZM42.068,0H40.533V-8.981h1.536Zm-1.66-11.364a.917.917,0,0,1,.228-.631.857.857,0,0,1,.677-.257.87.87,0,0,1,.681.257.907.907,0,0,1,.232.631.877.877,0,0,1-.232.623.886.886,0,0,1-.681.249.872.872,0,0,1-.677-.249A.886.886,0,0,1,40.408-11.364ZM48.252.166a3.924,3.924,0,0,1-2.972-1.2,4.452,4.452,0,0,1-1.146-3.208v-.282a5.39,5.39,0,0,1,.51-2.386,3.982,3.982,0,0,1,1.428-1.644,3.59,3.59,0,0,1,1.988-.594,3.364,3.364,0,0,1,2.723,1.154,5,5,0,0,1,.971,3.3v.639H45.671a3.193,3.193,0,0,0,.776,2.146,2.44,2.44,0,0,0,1.888.818,2.675,2.675,0,0,0,1.378-.332A3.462,3.462,0,0,0,50.7-2.3l.938.73A3.772,3.772,0,0,1,48.252.166Zm-.191-8.052a2.048,2.048,0,0,0-1.561.677,3.288,3.288,0,0,0-.78,1.9h4.5v-.116a2.925,2.925,0,0,0-.631-1.814A1.928,1.928,0,0,0,48.062-7.886Zm.747-4.864h1.859l-2.225,2.44-1.237,0Zm6.176,3.769.05,1.129a3.273,3.273,0,0,1,2.689-1.295q2.847,0,2.872,3.212V0H59.06V-5.943a2.068,2.068,0,0,0-.444-1.436,1.78,1.78,0,0,0-1.357-.465,2.216,2.216,0,0,0-1.312.4,2.706,2.706,0,0,0-.88,1.046V0H53.532V-8.981Z" transform="translate(-5482.549 -8271.262)"/><path d="M0,0V81" transform="translate(-5788.583 -8246.653)" fill="none" stroke="#5c379b" stroke-width="2"/><path d="M651.414,69.347V8.927L636.493,1H472.346V61.421l14.922,7.926Z" transform="translate(-6198 -8352)" fill="#d5fffc"/><g transform="translate(-6198 -8352)"><g clip-path="url(#a)"><path d="M651.414,69.347V8.927L636.493,1H472.346V61.421l14.922,7.926Z" fill="none" stroke="#5bb8b2" stroke-miterlimit="10" stroke-width="2"/></g></g><path d="M10.293-3.835A4.447,4.447,0,0,1,8.878-.876,4.638,4.638,0,0,1,5.711.166,4.259,4.259,0,0,1,2.279-1.37,6.178,6.178,0,0,1,.988-5.479V-6.641A6.886,6.886,0,0,1,1.59-9.6,4.5,4.5,0,0,1,3.3-11.567a4.75,4.75,0,0,1,2.557-.685A4.367,4.367,0,0,1,8.94-11.177,4.5,4.5,0,0,1,10.293-8.2h-1.6a3.472,3.472,0,0,0-.9-2.1,2.725,2.725,0,0,0-1.938-.649,2.851,2.851,0,0,0-2.395,1.13A5.187,5.187,0,0,0,2.59-6.6v1.171A5.332,5.332,0,0,0,3.412-2.3a2.655,2.655,0,0,0,2.3,1.163,3.067,3.067,0,0,0,2.038-.6,3.34,3.34,0,0,0,.942-2.1ZM13.9,0H12.36V-8.981H13.9Zm-1.66-11.364a.917.917,0,0,1,.228-.631.857.857,0,0,1,.677-.257.87.87,0,0,1,.681.257.907.907,0,0,1,.232.631.877.877,0,0,1-.232.623.886.886,0,0,1-.681.249.872.872,0,0,1-.677-.249A.886.886,0,0,1,12.235-11.364ZM17.108,0V-7.794H15.688V-8.981h1.419V-9.9a3.058,3.058,0,0,1,.772-2.233,2.916,2.916,0,0,1,2.183-.789,4.055,4.055,0,0,1,1.054.14l-.083,1.238a4.41,4.41,0,0,0-.83-.075,1.5,1.5,0,0,0-1.154.437,1.773,1.773,0,0,0-.407,1.253v.949h1.917v1.187H18.644V0ZM26.6-7.6a4.6,4.6,0,0,0-.755-.058,2.024,2.024,0,0,0-2.05,1.287V0H22.254V-8.981h1.494l.025,1.038a2.391,2.391,0,0,1,2.142-1.2,1.569,1.569,0,0,1,.681.116ZM33.22,0A3.226,3.226,0,0,1,33-.946,3.426,3.426,0,0,1,30.447.166a3.17,3.17,0,0,1-2.179-.751,2.43,2.43,0,0,1-.851-1.905,2.539,2.539,0,0,1,1.067-2.179,5.029,5.029,0,0,1,3-.776h1.494v-.706A1.725,1.725,0,0,0,32.5-7.433a1.935,1.935,0,0,0-1.419-.477A2.239,2.239,0,0,0,29.7-7.5a1.223,1.223,0,0,0-.556,1H27.6a2.119,2.119,0,0,1,.477-1.3,3.258,3.258,0,0,1,1.295-.992,4.356,4.356,0,0,1,1.8-.365,3.551,3.551,0,0,1,2.432.776,2.8,2.8,0,0,1,.913,2.137V-2.1A5.054,5.054,0,0,0,34.83-.133V0ZM30.671-1.17a2.7,2.7,0,0,0,1.37-.374,2.259,2.259,0,0,0,.938-.971V-4.358h-1.2q-2.822,0-2.822,1.652a1.4,1.4,0,0,0,.481,1.129A1.85,1.85,0,0,0,30.671-1.17Zm5.877-3.4a5.261,5.261,0,0,1,.979-3.324,3.1,3.1,0,0,1,2.565-1.258,3.115,3.115,0,0,1,2.5,1.079V-12.75h1.536V0H42.716l-.075-.963A3.127,3.127,0,0,1,40.076.166a3.068,3.068,0,0,1-2.544-1.278,5.321,5.321,0,0,1-.984-3.337Zm1.536.174A3.984,3.984,0,0,0,38.715-2a2.039,2.039,0,0,0,1.743.863,2.24,2.24,0,0,0,2.133-1.312V-6.574a2.257,2.257,0,0,0-2.117-1.27,2.049,2.049,0,0,0-1.76.872A4.386,4.386,0,0,0,38.084-4.391ZM46.1-4.574a5.3,5.3,0,0,1,.519-2.374,3.87,3.87,0,0,1,1.444-1.627,3.932,3.932,0,0,1,2.113-.573,3.788,3.788,0,0,1,2.968,1.27A4.886,4.886,0,0,1,54.279-4.5v.108a5.351,5.351,0,0,1-.5,2.353A3.813,3.813,0,0,1,52.341-.415a3.977,3.977,0,0,1-2.146.581A3.778,3.778,0,0,1,47.236-1.1,4.861,4.861,0,0,1,46.1-4.466Zm1.544.183a3.842,3.842,0,0,0,.693,2.4,2.218,2.218,0,0,0,1.855.9A2.2,2.2,0,0,0,52.054-2a4.2,4.2,0,0,0,.689-2.569,3.836,3.836,0,0,0-.7-2.395,2.23,2.23,0,0,0-1.864-.917,2.205,2.205,0,0,0-1.834.9A4.17,4.17,0,0,0,47.646-4.391Z" transform="translate(-5663.748 -8309.131)"/><g transform="translate(-6198 -8352)"><g clip-path="url(#a)"><g opacity="0.65" style="mix-blend-mode:multiply;isolation:isolate"><g clip-path="url(#c)"><path d="M264.657,283.237c0,4.533-59.245,8.209-132.328,8.209S0,287.77,0,283.237s59.246-8.209,132.329-8.209,132.328,3.676,132.328,8.209" fill="#c3d5e3"/></g></g><path d="M229.258,280.861H31.329a3.31,3.31,0,0,1-3.31-3.31V19.122a3.31,3.31,0,0,1,3.31-3.31H229.258a3.311,3.311,0,0,1,3.31,3.31V277.551a3.311,3.311,0,0,1-3.31,3.31" fill="#9fd0e6"/></g></g><g transform="translate(-6198 -8352)"><g clip-path="url(#d)"><rect width="266.192" height="291.248" transform="translate(-50.651 67.013) rotate(-24.09)" fill="url(#e)"/></g></g><g transform="translate(-6198 -8352)"><g clip-path="url(#a)"><path d="M138.139,272.634a4.509,4.509,0,1,1-4.509-4.509,4.509,4.509,0,0,1,4.509,4.509" fill="#5dbdd7"/><path d="M59.626,85.046H94.659s.648-21.325-17.517-21.338c-18.216-.014-17.516,21.338-17.516,21.338" fill="#00a9ce"/><path d="M86.378,50.65a9.236,9.236,0,1,1-9.236-9.236,9.236,9.236,0,0,1,9.236,9.236" fill="#00a9ce"/><rect width="78.1" height="2.746" transform="translate(59.623 89.616)" fill="#00a9ce"/><rect width="78.1" height="2.746" transform="translate(59.623 96.291)" fill="#00a9ce"/><rect width="78.1" height="2.746" transform="translate(59.623 103.328)" fill="#00a9ce"/><rect width="78.1" height="2.746" transform="translate(59.623 110.846)" fill="#00a9ce"/><rect width="78.1" height="2.746" transform="translate(124.986 226.099)" fill="#00a9ce"/><rect width="78.1" height="2.746" transform="translate(124.986 232.773)" fill="#00a9ce"/><rect width="78.1" height="2.746" transform="translate(124.986 239.811)" fill="#00a9ce"/><rect width="78.1" height="2.746" transform="translate(124.986 247.329)" fill="#00a9ce"/><path d="M131.173,123.273a64.141,64.141,0,0,1-44.465,8.894s-9.685,63.958,41.921,81.622c0,0,1.7.846,5.088,0,52.914-13.239,41.921-81.622,41.921-81.622a64.141,64.141,0,0,1-44.465-8.894" fill="#00a9ce"/><path d="M131.192,130.755a53.583,53.583,0,0,1-37.145,7.429s-8.091,53.43,35.02,68.186c0,0,1.422.708,4.25,0,44.2-11.059,35.02-68.186,35.02-68.186a53.583,53.583,0,0,1-37.145-7.429" fill="#fff"/><path d="M131.2,134.266a48.629,48.629,0,0,1-33.709,6.742s-7.343,48.488,31.781,61.879a6,6,0,0,0,3.857,0c40.115-10.036,31.781-61.879,31.781-61.879a48.631,48.631,0,0,1-33.71-6.742" fill="#2e8eb1"/><path d="M131.663,200.23a8.481,8.481,0,0,1-1.7-.241c-36.955-8.876-29.743-56.6-29.743-56.6a44.693,44.693,0,0,0,30.923-6.488Z" fill="#00a9ce"/><path d="M145.133,187.06H118.481a1.09,1.09,0,0,1-1.086-1.086V163.419a1.09,1.09,0,0,1,1.086-1.086h26.652a1.09,1.09,0,0,1,1.086,1.086v22.555a1.09,1.09,0,0,1-1.086,1.086" fill="#fff"/><path d="M140.945,163.891s1.984-16.068-8.255-16.517c-5.964-.262-9.133,3.807-9.133,9.378" fill="none" stroke="#fff" stroke-miterlimit="10" stroke-width="0.624"/><path d="M136.037,172.634a4.23,4.23,0,1,0-6.346,3.658v4.7h4.1v-4.618a4.228,4.228,0,0,0,2.249-3.737" fill="#2e8eb1"/><path d="M55.967,213.193l26.556-.051a4.249,4.249,0,0,0,4.17-4.249V187.267l-21.21.115V184.4H55.967v28.792Z" fill="#00a9ce"/><rect width="18.288" height="20.782" transform="translate(60.486 181.935)" fill="#fff"/><path d="M84.579,213.146l-.029-20.82h-22.9v6.249H52.045v14.618" fill="#2e8eb1"/><path d="M86.694,192.326v18.753a2.115,2.115,0,0,1-4.229,0V192.326Z" fill="#00a9ce"/><rect width="15.726" height="0.553" transform="translate(61.767 185.024)" fill="#00a9ce"/><rect width="15.726" height="0.553" transform="translate(61.767 186.369)" fill="#00a9ce"/><rect width="15.726" height="0.553" transform="translate(61.767 187.785)" fill="#00a9ce"/><rect width="7.123" height="0.553" transform="translate(61.767 189.299)" fill="#00a9ce"/><path d="M55.91,252.483l26.556-.051a4.251,4.251,0,0,0,4.171-4.249V226.557l-21.211.115v-2.981H55.91v28.792Z" fill="#00a9ce"/><rect width="18.288" height="20.782" transform="translate(60.43 221.225)" fill="#fff"/><path d="M84.523,252.436l-.029-20.82H61.6v6.249H51.989v14.618" fill="#2e8eb1"/><path d="M86.637,231.616v18.752a2.115,2.115,0,1,1-4.229,0V231.616Z" fill="#00a9ce"/><rect width="15.727" height="0.553" transform="translate(61.71 224.314)" fill="#00a9ce"/><rect width="15.727" height="0.553" transform="translate(61.71 225.658)" fill="#00a9ce"/><rect width="15.727" height="0.553" transform="translate(61.71 227.076)" fill="#00a9ce"/><rect width="7.123" height="0.553" transform="translate(61.711 228.589)" fill="#00a9ce"/><rect width="107.699" height="44.511" transform="translate(104.921 40.359)" fill="none" stroke="#00a9ce" stroke-miterlimit="10" stroke-width="0.109"/><rect width="78.1" height="1.165" transform="translate(119.721 56.661)" fill="#00a9ce"/><rect width="78.1" height="1.165" transform="translate(119.721 61.25)" fill="#00a9ce"/><rect width="78.1" height="1.165" transform="translate(119.721 65.654)" fill="#00a9ce"/><rect width="78.1" height="1.165" transform="translate(119.721 70.026)" fill="#00a9ce"/><path d="M206.559,52.837a7.506,7.506,0,1,1-7.506-7.506,7.506,7.506,0,0,1,7.506,7.506" fill="#e01650"/><path d="M197.133,48.815l1.147,1.729c.3.448.549.864.815,1.313h.05c.265-.482.531-.9.8-1.33l1.13-1.712h1.58l-2.743,3.89,2.826,4.155h-1.663l-1.179-1.812c-.316-.465-.582-.914-.865-1.4h-.033c-.266.482-.549.915-.848,1.4l-1.164,1.812h-1.612l2.859-4.1-2.725-3.94Z" fill="#fff"/><path d="M246.452,173.7l3.593,8.957H239.39l-1.2-2.325s.233-4.411,3.594-6,4.667-.628,4.667-.628" fill="#ffc6b5"/><path d="M193.038,173.7l-3.593,8.957H200.1l1.2-2.325s-.233-4.411-3.594-6-4.667-.628-4.667-.628" fill="#ffc6b5"/><path d="M241.635,243.111a107.691,107.691,0,0,0-6.209-37.663l-8.977.788a123.664,123.664,0,0,1-21.577-.788,107.69,107.69,0,0,0-6.208,37.663c.073,5.04-.793,28.682,2.239,50.543h6.983l.364-3.951a262.823,262.823,0,0,1,7.054-46.6q1.69-6.957,3.748-13.815l1.1-3.651c1.341,4.461,3.533,12.179,4.756,17.093,3.636,15.1,6.616,31.471,7.416,46.977l.364,3.951h6.983c3.033-21.861,1.894-45.5,1.967-50.543" fill="#2e8eb1"/><path d="M239.668,293.653a52.373,52.373,0,0,1,7.364,4.92c.524.465,1.083,1.063.982,1.757-.107.735-.9,1.152-1.627,1.32a12.85,12.85,0,0,1-3.484.162,25.756,25.756,0,0,1-8.284-1.281,3.5,3.5,0,0,1-1.53-.983,4.089,4.089,0,0,1-.564-2.7q.041-1.6.08-3.2" fill="#095e72"/><path d="M200.9,293.653a52.383,52.383,0,0,0-7.365,4.92c-.523.465-1.082,1.063-.981,1.757.107.735.9,1.152,1.627,1.32a12.85,12.85,0,0,0,3.484.162,25.76,25.76,0,0,0,8.284-1.281,3.507,3.507,0,0,0,1.53-.983,4.094,4.094,0,0,0,.564-2.7l-.081-3.2" fill="#095e72"/><path d="M230.937,206.029a10.976,10.976,0,0,0,6.93,8.333c.047.014.023.094-.026.075-3.528-1.188-6.669-4.862-6.9-8.408" fill="#00a9ce"/><path d="M209.628,206.041a10.785,10.785,0,0,1-6.977,8.4.04.04,0,0,1-.027-.075,11.415,11.415,0,0,0,7-8.321" fill="#00a9ce"/><path d="M203.083,175.234s-1.283,4.109-1.766,5.129l-.872-1.072c-1.452-1.669-5.606-4.251-7.389-5.56,5.423-13.506,8.634-12.949,11.619-13.535,1.57-.309,3.409-.626,5-.871,10.042-1.544,25.16.837,25.16.837,2.984.587,6.2.03,11.619,13.536-1.784,1.308-5.938,3.891-7.39,5.559l-.871,1.073c-.483-1.02-1.767-5.129-1.767-5.129l-.021.991c-.21,9.589-.4,18.187-.607,27.776-.013.611-.1,1.341-.641,1.621,0,0-4.787.916-16.1.916,0,0-14.077-.076-14.6-1.29a3,3,0,0,1-.238-1.06l-.3-6.564q-.193-4.279-.388-8.558c-.239-5.3-.453-13.8-.453-13.8" fill="#095e72"/><path d="M224.532,149.714q.312,2.5.626,5a7.705,7.705,0,0,0,.452,2.2c.46.873,4.27,2.3,5.017,2.716,0,0-2.987,2.6-10.68,2.9s-10.273-3.207-10.273-3.207c.747-.418,4.557-1.843,5.017-2.716a7.671,7.671,0,0,0,.452-2.2q.313-2.5.626-5" fill="#ffc6b5"/><path d="M228.205,135.482c.615,3.332-.26,10.039-.975,12.69a8.3,8.3,0,0,1-1.3,3.064,7.172,7.172,0,0,1-9.5,1.966,6.99,6.99,0,0,1-2.66-3.14,22.479,22.479,0,0,1-1.643-10.564s-.4-9.356,9.17-9.356c0,0,5.875-.225,6.9,5.34" fill="#ffc6b5"/><path d="M212.307,144.953a.69.69,0,0,1-.965.064,1.553,1.553,0,0,1-.479-.948,4.5,4.5,0,0,1-.078-1.056A1.156,1.156,0,0,1,211,142.3a.655.655,0,0,1,1.148.35Z" fill="#ffc6b5"/><path d="M227.846,142.846c.078-.24.236-.715.478-.789a1.061,1.061,0,0,1,.887.227,1.148,1.148,0,0,1,.216.714,4.5,4.5,0,0,1-.079,1.056,1.552,1.552,0,0,1-.478.948.691.691,0,0,1-.965-.064,3.175,3.175,0,0,1-.059-2.092" fill="#ffc6b5"/><path d="M214.941,134.95a6.519,6.519,0,0,1-.094,3.841,9.473,9.473,0,0,1-1.968,3.337c-.238.27-.607.551-.921.376a.781.781,0,0,1-.3-.427,6.933,6.933,0,0,1,.62-6.191,6.224,6.224,0,0,1,1.448-4.259,6.019,6.019,0,0,1,4-1.874,13.716,13.716,0,0,1,2.134-.275,15.393,15.393,0,0,0,1.734.265,18.035,18.035,0,0,0,1.8-.339,3.1,3.1,0,0,1,2.756,1.141,2.208,2.208,0,0,0,1.669,1.235,2.673,2.673,0,0,1,1.945,2.488v.29c0,4.408-4.347,3.587-5.755,3.089a23.474,23.474,0,0,1-4.29-2.031c-.2.167-.076.488-.131.74a.7.7,0,0,1-.564.484,2.033,2.033,0,0,1-.779-.049,8.145,8.145,0,0,1-1.948-.545,2.475,2.475,0,0,1-1.355-1.3" fill="#393938"/><g style="mix-blend-mode:multiply;isolation:isolate"><g clip-path="url(#g)"><path d="M224.672,152.67a7.023,7.023,0,0,1-9.1,0s.583,3.119,4.662,3.148c3.935.029,4.441-3.148,4.441-3.148" fill="#ffc6b5"/></g></g><path d="M227.4,137.512a7.1,7.1,0,0,0,.762,4.318c.082.154.193.321.365.346a.4.4,0,0,0,.37-.2,1.152,1.152,0,0,0,.133-.422,7.84,7.84,0,0,0-.083-4.518.748.748,0,0,0-.183-.281.579.579,0,0,0-.366-.117,1.033,1.033,0,0,0-1.012,1.026" fill="#393938"/><g opacity="0.48" style="mix-blend-mode:multiply;isolation:isolate"><g clip-path="url(#h)"><path d="M235.156,205.589a129.806,129.806,0,0,1-15.4.916c-5.98-.206-13.039-.21-14.883-1.057a54.8,54.8,0,0,0,30.284.141" fill="#2e8eb1"/></g></g><path d="M216.656,144.419a.794.794,0,1,1-.794-.794.795.795,0,0,1,.794.794" fill="#393938"/><path d="M223.318,144.406a.794.794,0,1,0,.794-.794.794.794,0,0,0-.794.794" fill="#393938"/><path d="M219.957,144a17.325,17.325,0,0,0-.32,2.084,6.9,6.9,0,0,0-.071,1.043c.059.463.624.381.82.52-.309.056-.87-.1-.92-.5a7.051,7.051,0,0,1,.085-1.068,17.118,17.118,0,0,1,.353-2.1.029.029,0,1,1,.053.025" fill="#f4816b"/><path d="M222.026,148.574a2.819,2.819,0,0,1-2.626,1.171,3.5,3.5,0,0,0,2.573-1.212.034.034,0,0,1,.053.041" fill="#f4816b"/><path d="M218.01,143.536a1.154,1.154,0,0,0-.215-1.23l-.1.1-.247-.258-.122.078a3.824,3.824,0,0,0-2.167-.826,1.248,1.248,0,0,0-.949.257.429.429,0,0,0,.252.133,5.955,5.955,0,0,1,3.43,1.773s.082.047.113-.029" fill="#393938"/><path d="M221.733,143.543a1.152,1.152,0,0,1,.215-1.23l.1.1.247-.258.122.078a3.814,3.814,0,0,1,2.167-.826,1.248,1.248,0,0,1,.949.257.429.429,0,0,1-.252.133,5.949,5.949,0,0,0-3.43,1.773s-.082.047-.113-.029" fill="#393938"/><path d="M255.868,224.578H184.16a1.09,1.09,0,0,1-1.086-1.086V183.741a1.089,1.089,0,0,1,1.086-1.086h71.708a1.089,1.089,0,0,1,1.086,1.086v39.751a1.09,1.09,0,0,1-1.086,1.086" fill="#e01650"/><rect width="73.881" height="7.762" transform="translate(183.073 188.976)" fill="#2e8eb1"/><rect width="22.772" height="4.462" transform="translate(184.922 199.154)" fill="#fff"/><rect width="10.863" height="4.462" transform="translate(210.781 199.154)" fill="#fff"/><path d="M258.576,208.529l.012,0-1.633-7.145v6.867h0v1c-.868-.295-1.837-.732-2.705-1.027-.423-.144-.984-.247-1.239.12-.282.406.112.938.51,1.231a6.354,6.354,0,0,0,1.367.767l-1.983-.355a.69.69,0,0,0-.49.034c-.319.2-.108.705.172.958a3.207,3.207,0,0,0,1.687.788,7.891,7.891,0,0,0-1.529.013,1.044,1.044,0,0,0-.512.154c-.382.276-.239.928.148,1.2a2.235,2.235,0,0,0,1.363.252c-.368.16-.79.144-1.169.275s-.732.531-.581.9a.96.96,0,0,0,.732.456,11.81,11.81,0,0,0,2.285.3,3.823,3.823,0,0,0,2.036-.374,3.658,3.658,0,0,0,1.507-2.285,8.071,8.071,0,0,0,.019-4.132" fill="#ffc6b5"/><path d="M187.446,213.736c-.378-.132-.8-.115-1.168-.275a2.236,2.236,0,0,0,1.363-.252c.387-.268.529-.92.148-1.2a1.034,1.034,0,0,0-.513-.154,7.89,7.89,0,0,0-1.529-.013,3.2,3.2,0,0,0,1.687-.788c.281-.253.492-.757.173-.958a.691.691,0,0,0-.49-.034l-1.984.355a6.362,6.362,0,0,0,1.368-.767c.4-.293.791-.825.51-1.231-.255-.368-.816-.264-1.24-.12-.868.3-1.836.732-2.7,1.027v-1h0v-6.867l-1.633,7.145.011,0a8.06,8.06,0,0,0,.02,4.132,3.654,3.654,0,0,0,1.506,2.284,3.818,3.818,0,0,0,2.036.375,11.888,11.888,0,0,0,2.286-.3.958.958,0,0,0,.732-.457c.151-.371-.2-.77-.582-.9" fill="#ffc6b5"/><path d="M229.333,171.893c3.287.786,1.8,4.416,1.8,4.416a1.041,1.041,0,0,1-1.176,1.392.641.641,0,0,0-.36.84,3.641,3.641,0,0,1-1.152.168,4.557,4.557,0,0,1-1.232-.168.641.641,0,0,0-.36-.84,1.04,1.04,0,0,1-1.176-1.392s-1.44-3.456,1.8-4.416a3.557,3.557,0,0,1,1.856,0" fill="#fff"/><path d="M228.828,175a.581.581,0,0,1,.387-.272,1.277,1.277,0,0,1,.488.026,4.97,4.97,0,0,1,.564.147.743.743,0,0,1,.374.219.648.648,0,0,1,.1.432,1.184,1.184,0,0,1-.139.529.709.709,0,0,1-.417.339,1.05,1.05,0,0,1-.9-.325,1.229,1.229,0,0,1-.509-.8,1.01,1.01,0,0,1,.047-.3" fill="#095e72"/><path d="M228.1,175.148a.58.58,0,0,0-.318-.35,1.289,1.289,0,0,0-.482-.081,4.734,4.734,0,0,0-.583.021.743.743,0,0,0-.413.132.654.654,0,0,0-.193.4,1.175,1.175,0,0,0,.02.547.71.71,0,0,0,.333.421,1.047,1.047,0,0,0,.947-.121,1.226,1.226,0,0,0,.67-.668,1.023,1.023,0,0,0,.019-.3" fill="#095e72"/><path d="M228.471,175.878a.318.318,0,0,1,.1.084,1.588,1.588,0,0,1,.263.591.245.245,0,0,1-.021.217.118.118,0,0,1-.132.013.53.53,0,0,0-.131-.051.33.33,0,0,0-.151.037.215.215,0,0,1-.234-.017.276.276,0,0,1-.065-.2.744.744,0,0,1,.053-.216,2.586,2.586,0,0,1,.171-.36s.091-.126.151-.1" fill="#095e72"/><g style="mix-blend-mode:multiply;isolation:isolate"><g clip-path="url(#i)"><path d="M264.136,75.834h-94.5a6.943,6.943,0,0,0-6.943,6.944v32.361a6.943,6.943,0,0,0,6.943,6.944h94.5a6.943,6.943,0,0,0,6.944-6.944V82.778a6.943,6.943,0,0,0-6.944-6.944" fill="#c3d5e3"/></g></g><path d="M268.53,87.026V81.092a6.944,6.944,0,0,0-6.944-6.944h-94.5a6.944,6.944,0,0,0-6.944,6.944v5.934Z" fill="#00a9ce"/><path d="M160.144,87.026v26.426a6.945,6.945,0,0,0,6.944,6.945h94.5a6.945,6.945,0,0,0,6.944-6.945V87.026Z" fill="#fff"/><path d="M186.56,99.928h1.9l-.285,3.236,2.679-2.039.96,1.648-3.046,1.493,3.046,1.576-.96,1.66-2.679-2.11.285,3.294h-1.9l.356-3.353-2.691,2.086-.948-1.66,2.963-1.493-3.034-1.41.96-1.647,2.738,1.99Z" fill="#00a9ce"/><path d="M200.365,99.928h1.9l-.285,3.236,2.679-2.039.96,1.648-3.046,1.493,3.046,1.576-.96,1.66-2.679-2.11.285,3.294h-1.9l.356-3.353-2.691,2.086-.947-1.66,2.962-1.493-3.034-1.41.96-1.647,2.738,1.99Z" fill="#00a9ce"/><path d="M214.169,99.928h1.9l-.285,3.236,2.679-2.039.96,1.648-3.046,1.493,3.046,1.576-.96,1.66-2.679-2.11.285,3.294h-1.9l.356-3.353-2.691,2.086-.948-1.66,2.963-1.493-3.034-1.41.96-1.647,2.738,1.99Z" fill="#00a9ce"/><path d="M227.974,99.928h1.9l-.285,3.236,2.679-2.039.96,1.648-3.046,1.493,3.046,1.576-.96,1.66-2.679-2.11.285,3.294h-1.9l.356-3.353-2.691,2.086-.947-1.66,2.962-1.493-3.034-1.41.96-1.647,2.738,1.99Z" fill="#00a9ce"/><path d="M241.779,99.928h1.9l-.285,3.236,2.679-2.039.96,1.648-3.046,1.493,3.046,1.576-.96,1.66-2.679-2.11.285,3.294h-1.9l.356-3.353-2.691,2.086-.948-1.66,2.963-1.493-3.035-1.41.961-1.647,2.737,1.99Z" fill="#00a9ce"/><path d="M528.59,251.094V195.176l-14.921-7.336H298.854v55.919l14.922,7.335Z" fill="#e7defc"/><path d="M528.59,251.094V195.176l-14.921-7.336H298.854v55.919l14.922,7.335Z" fill="none" stroke="#5c379b" stroke-miterlimit="10" stroke-width="2"/></g></g><path d="M9.082-3.384A3.923,3.923,0,0,1,7.833-.773,4.093,4.093,0,0,1,5.039.146,3.758,3.758,0,0,1,2.01-1.208,5.451,5.451,0,0,1,.872-4.834V-5.859A6.076,6.076,0,0,1,1.4-8.474a3.966,3.966,0,0,1,1.505-1.732,4.191,4.191,0,0,1,2.256-.6,3.853,3.853,0,0,1,2.725.948A3.971,3.971,0,0,1,9.082-7.236H7.668a3.064,3.064,0,0,0-.795-1.851,2.4,2.4,0,0,0-1.71-.573,2.516,2.516,0,0,0-2.113,1,4.577,4.577,0,0,0-.765,2.837v1.034A4.7,4.7,0,0,0,3.01-2.03,2.343,2.343,0,0,0,5.039-1a2.706,2.706,0,0,0,1.8-.531,2.947,2.947,0,0,0,.831-1.849Zm6.6,2.6a2.878,2.878,0,0,1-2.322.93,2.464,2.464,0,0,1-1.93-.736,3.186,3.186,0,0,1-.67-2.179V-7.925h1.355v5.12q0,1.8,1.465,1.8a2.028,2.028,0,0,0,2.065-1.157V-7.925H17V0H15.71ZM23.95,0a2.846,2.846,0,0,1-.19-.835A3.023,3.023,0,0,1,21.5.146a2.8,2.8,0,0,1-1.923-.663A2.145,2.145,0,0,1,18.831-2.2a2.24,2.24,0,0,1,.941-1.923A4.437,4.437,0,0,1,22.419-4.8h1.318v-.623a1.522,1.522,0,0,0-.425-1.132,1.707,1.707,0,0,0-1.252-.421,1.976,1.976,0,0,0-1.216.366,1.079,1.079,0,0,0-.491.886H18.992a1.87,1.87,0,0,1,.421-1.146,2.874,2.874,0,0,1,1.143-.875,3.844,3.844,0,0,1,1.586-.322,3.133,3.133,0,0,1,2.146.685A2.47,2.47,0,0,1,25.093-5.5v3.647a4.459,4.459,0,0,0,.278,1.736V0ZM21.7-1.033a2.381,2.381,0,0,0,1.208-.33,1.994,1.994,0,0,0,.828-.857V-3.845H22.676q-2.49,0-2.49,1.458a1.234,1.234,0,0,0,.425,1A1.633,1.633,0,0,0,21.7-1.033ZM28.689,0H27.334V-11.25h1.355Zm1.838-4.028a4.651,4.651,0,0,1,.857-2.955,2.777,2.777,0,0,1,2.3-1.088,2.775,2.775,0,0,1,2.219.945l.059-.8h1.245V3.047H35.852V-.732a2.844,2.844,0,0,1-2.183.879A2.733,2.733,0,0,1,31.381-.97a4.755,4.755,0,0,1-.853-2.963Zm1.355.154a3.526,3.526,0,0,0,.575,2.139,1.829,1.829,0,0,0,1.549.776,2.029,2.029,0,0,0,1.846-1.069V-5.911a2.035,2.035,0,0,0-1.831-1.047,1.843,1.843,0,0,0-1.56.78A3.838,3.838,0,0,0,31.882-3.875ZM44.275-.784a2.878,2.878,0,0,1-2.322.93,2.464,2.464,0,0,1-1.93-.736,3.186,3.186,0,0,1-.67-2.179V-7.925h1.355v5.12q0,1.8,1.465,1.8a2.028,2.028,0,0,0,2.065-1.157V-7.925h1.355V0H44.3ZM49.124,0H47.769V-7.925h1.355ZM47.659-10.027a.809.809,0,0,1,.2-.557.756.756,0,0,1,.6-.227.768.768,0,0,1,.6.227.8.8,0,0,1,.205.557.774.774,0,0,1-.205.549.782.782,0,0,1-.6.22.77.77,0,0,1-.6-.22A.782.782,0,0,1,47.659-10.027ZM54.58.146A3.463,3.463,0,0,1,51.958-.912a3.928,3.928,0,0,1-1.011-2.831v-.249A4.756,4.756,0,0,1,51.4-6.1a3.514,3.514,0,0,1,1.26-1.45,3.167,3.167,0,0,1,1.754-.524,2.968,2.968,0,0,1,2.4,1.018,4.408,4.408,0,0,1,.857,2.915v.564H52.3a2.817,2.817,0,0,0,.685,1.893,2.153,2.153,0,0,0,1.666.721,2.36,2.36,0,0,0,1.216-.293,3.055,3.055,0,0,0,.872-.776l.828.645A3.328,3.328,0,0,1,54.58.146Zm-.168-7.1a1.807,1.807,0,0,0-1.377.6,2.9,2.9,0,0,0-.688,1.674h3.97v-.1a2.581,2.581,0,0,0-.557-1.6A1.7,1.7,0,0,0,54.412-6.958Zm8.657.249A4.061,4.061,0,0,0,62.4-6.76a1.786,1.786,0,0,0-1.809,1.135V0H59.238V-7.925h1.318l.022.916a2.11,2.11,0,0,1,1.89-1.062,1.384,1.384,0,0,1,.6.1ZM69.3-7.925l.037.879a2.927,2.927,0,0,1,2.351-1.025A2.266,2.266,0,0,1,73.953-6.8a3,3,0,0,1,1.029-.923,3.039,3.039,0,0,1,1.5-.352q2.607,0,2.651,2.761V0H77.776V-5.229A1.82,1.82,0,0,0,77.388-6.5a1.71,1.71,0,0,0-1.3-.421,1.8,1.8,0,0,0-1.252.45,1.827,1.827,0,0,0-.579,1.212V0H72.891V-5.193A1.512,1.512,0,0,0,71.2-6.921a1.813,1.813,0,0,0-1.824,1.135V0H68.02V-7.925ZM84.463.146A3.463,3.463,0,0,1,81.841-.912,3.928,3.928,0,0,1,80.83-3.743v-.249a4.756,4.756,0,0,1,.45-2.106,3.514,3.514,0,0,1,1.26-1.45,3.167,3.167,0,0,1,1.754-.524,2.968,2.968,0,0,1,2.4,1.018,4.408,4.408,0,0,1,.857,2.915v.564H82.185a2.817,2.817,0,0,0,.685,1.893,2.153,2.153,0,0,0,1.666.721,2.36,2.36,0,0,0,1.216-.293,3.055,3.055,0,0,0,.872-.776l.828.645A3.328,3.328,0,0,1,84.463.146Zm-.168-7.1a1.807,1.807,0,0,0-1.377.6,2.9,2.9,0,0,0-.688,1.674H86.2v-.1a2.581,2.581,0,0,0-.557-1.6A1.7,1.7,0,0,0,84.294-6.958Zm.659-4.292h1.641L84.631-9.1l-1.091,0Zm6.006,1.406v1.919h1.479v1.047H90.959v4.921a1.1,1.1,0,0,0,.2.715A.832.832,0,0,0,91.831-1a3.281,3.281,0,0,0,.645-.088V0a3.951,3.951,0,0,1-1.04.146A1.687,1.687,0,0,1,90.066-.4a2.36,2.36,0,0,1-.461-1.56V-6.877H88.162V-7.925H89.6V-9.844Zm2.556,5.808a4.681,4.681,0,0,1,.458-2.095,3.415,3.415,0,0,1,1.274-1.436,3.469,3.469,0,0,1,1.864-.505A3.342,3.342,0,0,1,99.73-6.951a4.311,4.311,0,0,1,1,2.981v.1a4.722,4.722,0,0,1-.443,2.076A3.365,3.365,0,0,1,99.02-.366a3.509,3.509,0,0,1-1.893.513A3.334,3.334,0,0,1,94.515-.974a4.29,4.29,0,0,1-1-2.966Zm1.362.161a3.39,3.39,0,0,0,.612,2.117,1.957,1.957,0,0,0,1.637.8,1.945,1.945,0,0,0,1.641-.809,3.707,3.707,0,0,0,.608-2.267,3.384,3.384,0,0,0-.619-2.113,1.968,1.968,0,0,0-1.644-.809,1.946,1.946,0,0,0-1.619.8A3.68,3.68,0,0,0,94.878-3.875Zm7.222-.154a4.642,4.642,0,0,1,.864-2.933,2.733,2.733,0,0,1,2.263-1.11,2.748,2.748,0,0,1,2.2.952V-11.25h1.355V0h-1.245l-.066-.85a2.759,2.759,0,0,1-2.263,1,2.707,2.707,0,0,1-2.245-1.128,4.7,4.7,0,0,1-.868-2.944Zm1.355.154a3.515,3.515,0,0,0,.557,2.109A1.8,1.8,0,0,0,105.549-1a1.977,1.977,0,0,0,1.882-1.157V-5.8a1.992,1.992,0,0,0-1.868-1.121,1.808,1.808,0,0,0-1.553.769A3.87,3.87,0,0,0,103.455-3.875Zm7.075-.161a4.681,4.681,0,0,1,.458-2.095,3.415,3.415,0,0,1,1.274-1.436,3.469,3.469,0,0,1,1.864-.505,3.342,3.342,0,0,1,2.618,1.121,4.311,4.311,0,0,1,1,2.981v.1A4.722,4.722,0,0,1,117.3-1.8a3.365,3.365,0,0,1-1.267,1.432,3.509,3.509,0,0,1-1.893.513A3.334,3.334,0,0,1,111.53-.974a4.29,4.29,0,0,1-1-2.966Zm1.362.161a3.39,3.39,0,0,0,.612,2.117,1.957,1.957,0,0,0,1.637.8,1.945,1.945,0,0,0,1.641-.809,3.707,3.707,0,0,0,.608-2.267,3.384,3.384,0,0,0-.619-2.113,1.968,1.968,0,0,0-1.644-.809,1.946,1.946,0,0,0-1.619.8A3.68,3.68,0,0,0,111.892-3.875Zm10.935-.154a4.642,4.642,0,0,1,.864-2.933,2.733,2.733,0,0,1,2.263-1.11,2.748,2.748,0,0,1,2.2.952V-11.25h1.355V0h-1.245L128.2-.85a2.759,2.759,0,0,1-2.263,1A2.707,2.707,0,0,1,123.7-.981a4.7,4.7,0,0,1-.868-2.944Zm1.355.154a3.515,3.515,0,0,0,.557,2.109A1.8,1.8,0,0,0,126.277-1a1.977,1.977,0,0,0,1.882-1.157V-5.8a1.992,1.992,0,0,0-1.868-1.121,1.808,1.808,0,0,0-1.553.769A3.87,3.87,0,0,0,124.182-3.875ZM134.9.146a3.463,3.463,0,0,1-2.622-1.058,3.928,3.928,0,0,1-1.011-2.831v-.249a4.756,4.756,0,0,1,.45-2.106,3.514,3.514,0,0,1,1.26-1.45,3.167,3.167,0,0,1,1.754-.524,2.968,2.968,0,0,1,2.4,1.018A4.408,4.408,0,0,1,138-4.138v.564h-5.369a2.817,2.817,0,0,0,.685,1.893,2.153,2.153,0,0,0,1.666.721,2.36,2.36,0,0,0,1.216-.293,3.055,3.055,0,0,0,.872-.776l.828.645A3.328,3.328,0,0,1,134.9.146Zm-.168-7.1a1.807,1.807,0,0,0-1.377.6,2.9,2.9,0,0,0-.688,1.674h3.97v-.1a2.581,2.581,0,0,0-.557-1.6A1.7,1.7,0,0,0,134.736-6.958Z" transform="translate(-5852.064 -8146.48)"/><path d="M2.864-9.844v1.919H4.343v1.047H2.864v4.921a1.1,1.1,0,0,0,.2.715A.832.832,0,0,0,3.735-1a3.281,3.281,0,0,0,.645-.088V0A3.951,3.951,0,0,1,3.34.146,1.687,1.687,0,0,1,1.97-.4a2.36,2.36,0,0,1-.461-1.56V-6.877H.066V-7.925H1.509V-9.844ZM9.756-6.709a4.061,4.061,0,0,0-.667-.051A1.786,1.786,0,0,0,7.28-5.625V0H5.925V-7.925H7.244l.022.916a2.11,2.11,0,0,1,1.89-1.062,1.384,1.384,0,0,1,.6.1ZM15.6,0a2.846,2.846,0,0,1-.19-.835,3.023,3.023,0,0,1-2.256.981,2.8,2.8,0,0,1-1.923-.663A2.145,2.145,0,0,1,10.481-2.2a2.24,2.24,0,0,1,.941-1.923A4.437,4.437,0,0,1,14.07-4.8h1.318v-.623a1.522,1.522,0,0,0-.425-1.132,1.707,1.707,0,0,0-1.252-.421,1.976,1.976,0,0,0-1.216.366A1.079,1.079,0,0,0,12-5.728H10.642a1.87,1.87,0,0,1,.421-1.146,2.874,2.874,0,0,1,1.143-.875,3.844,3.844,0,0,1,1.586-.322,3.133,3.133,0,0,1,2.146.685A2.47,2.47,0,0,1,16.743-5.5v3.647a4.459,4.459,0,0,0,.278,1.736V0ZM13.352-1.033a2.381,2.381,0,0,0,1.208-.33,1.994,1.994,0,0,0,.828-.857V-3.845H14.326q-2.49,0-2.49,1.458a1.234,1.234,0,0,0,.425,1A1.633,1.633,0,0,0,13.352-1.033Zm6.8-6.892.044,1a2.888,2.888,0,0,1,2.373-1.143q2.512,0,2.534,2.834V0H23.745V-5.244a1.824,1.824,0,0,0-.392-1.267,1.57,1.57,0,0,0-1.2-.41A1.956,1.956,0,0,0,21-6.57a2.387,2.387,0,0,0-.776.923V0H18.867V-7.925ZM31.758-2.1a1,1,0,0,0-.414-.853A3.983,3.983,0,0,0,29.9-3.479a6.822,6.822,0,0,1-1.633-.527,2.324,2.324,0,0,1-.894-.732,1.752,1.752,0,0,1-.289-1.011A2.056,2.056,0,0,1,27.909-7.4a3.218,3.218,0,0,1,2.106-.674,3.311,3.311,0,0,1,2.186.7A2.21,2.21,0,0,1,33.04-5.6H31.677a1.223,1.223,0,0,0-.472-.959,1.77,1.77,0,0,0-1.19-.4,1.852,1.852,0,0,0-1.157.322,1.014,1.014,0,0,0-.417.842.822.822,0,0,0,.388.74,4.776,4.776,0,0,0,1.4.476,7.308,7.308,0,0,1,1.644.542,2.4,2.4,0,0,1,.934.758,1.864,1.864,0,0,1,.3,1.08,2.028,2.028,0,0,1-.85,1.7,3.564,3.564,0,0,1-2.2.641A3.991,3.991,0,0,1,28.374-.19a2.74,2.74,0,0,1-1.146-.941,2.268,2.268,0,0,1-.414-1.307h1.355a1.4,1.4,0,0,0,.546,1.08,2.117,2.117,0,0,0,1.344.4,2.185,2.185,0,0,0,1.234-.311A.956.956,0,0,0,31.758-2.1ZM35.544,0V-6.877H34.292V-7.925h1.252v-.813a2.7,2.7,0,0,1,.681-1.97,2.573,2.573,0,0,1,1.926-.7,3.578,3.578,0,0,1,.93.124l-.073,1.092a3.892,3.892,0,0,0-.732-.066,1.322,1.322,0,0,0-1.018.386A1.564,1.564,0,0,0,36.9-8.762v.838h1.692v1.047H36.9V0Zm4.182-4.036a4.681,4.681,0,0,1,.458-2.095,3.415,3.415,0,0,1,1.274-1.436,3.469,3.469,0,0,1,1.864-.505,3.342,3.342,0,0,1,2.618,1.121,4.311,4.311,0,0,1,1,2.981v.1A4.722,4.722,0,0,1,46.5-1.8,3.365,3.365,0,0,1,45.231-.366a3.509,3.509,0,0,1-1.893.513A3.334,3.334,0,0,1,40.726-.974a4.29,4.29,0,0,1-1-2.966Zm1.362.161A3.39,3.39,0,0,0,41.7-1.758a1.957,1.957,0,0,0,1.637.8,1.945,1.945,0,0,0,1.641-.809,3.707,3.707,0,0,0,.608-2.267,3.384,3.384,0,0,0-.619-2.113,1.968,1.968,0,0,0-1.644-.809,1.946,1.946,0,0,0-1.619.8A3.68,3.68,0,0,0,41.089-3.875ZM52.471-6.709A4.061,4.061,0,0,0,51.8-6.76,1.786,1.786,0,0,0,50-5.625V0H48.64V-7.925h1.318l.022.916a2.11,2.11,0,0,1,1.89-1.062,1.384,1.384,0,0,1,.6.1Zm2.52-1.216.037.879a2.927,2.927,0,0,1,2.351-1.025A2.266,2.266,0,0,1,59.641-6.8,3,3,0,0,1,60.67-7.72a3.039,3.039,0,0,1,1.5-.352q2.607,0,2.651,2.761V0H63.464V-5.229A1.82,1.82,0,0,0,63.076-6.5a1.71,1.71,0,0,0-1.3-.421,1.8,1.8,0,0,0-1.252.45,1.827,1.827,0,0,0-.579,1.212V0H58.579V-5.193a1.512,1.512,0,0,0-1.692-1.729,1.813,1.813,0,0,0-1.824,1.135V0H53.708V-7.925ZM71.755,0a2.846,2.846,0,0,1-.19-.835,3.023,3.023,0,0,1-2.256.981,2.8,2.8,0,0,1-1.923-.663A2.145,2.145,0,0,1,66.636-2.2a2.24,2.24,0,0,1,.941-1.923A4.437,4.437,0,0,1,70.225-4.8h1.318v-.623a1.522,1.522,0,0,0-.425-1.132,1.707,1.707,0,0,0-1.252-.421,1.976,1.976,0,0,0-1.216.366,1.079,1.079,0,0,0-.491.886H66.8a1.87,1.87,0,0,1,.421-1.146,2.874,2.874,0,0,1,1.143-.875,3.844,3.844,0,0,1,1.586-.322,3.133,3.133,0,0,1,2.146.685A2.47,2.47,0,0,1,72.9-5.5v3.647a4.459,4.459,0,0,0,.278,1.736V0ZM69.507-1.033a2.381,2.381,0,0,0,1.208-.33,1.994,1.994,0,0,0,.828-.857V-3.845H70.481q-2.49,0-2.49,1.458a1.234,1.234,0,0,0,.425,1A1.633,1.633,0,0,0,69.507-1.033ZM78.2-.959A1.952,1.952,0,0,0,79.468-1.4a1.546,1.546,0,0,0,.6-1.1H81.35a2.457,2.457,0,0,1-.469,1.3,3.087,3.087,0,0,1-1.154.981A3.329,3.329,0,0,1,78.2.146a3.265,3.265,0,0,1-2.574-1.08,4.3,4.3,0,0,1-.956-2.955v-.227A4.771,4.771,0,0,1,75.1-6.174a3.236,3.236,0,0,1,1.219-1.4,3.464,3.464,0,0,1,1.879-.5,3.178,3.178,0,0,1,2.216.8A2.853,2.853,0,0,1,81.35-5.2H80.068a1.867,1.867,0,0,0-.582-1.263,1.811,1.811,0,0,0-1.293-.494,1.9,1.9,0,0,0-1.6.743,3.491,3.491,0,0,0-.568,2.15v.256A3.422,3.422,0,0,0,76.589-1.7,1.906,1.906,0,0,0,78.2-.959ZM84.346,0H82.991V-7.925h1.355ZM82.881-10.027a.809.809,0,0,1,.2-.557.756.756,0,0,1,.6-.227.768.768,0,0,1,.6.227.8.8,0,0,1,.205.557.774.774,0,0,1-.205.549.782.782,0,0,1-.6.22.77.77,0,0,1-.6-.22A.782.782,0,0,1,82.881-10.027Zm3.274,5.991a4.681,4.681,0,0,1,.458-2.095,3.415,3.415,0,0,1,1.274-1.436,3.469,3.469,0,0,1,1.864-.505,3.342,3.342,0,0,1,2.618,1.121,4.311,4.311,0,0,1,1,2.981v.1A4.722,4.722,0,0,1,92.926-1.8,3.365,3.365,0,0,1,91.659-.366a3.509,3.509,0,0,1-1.893.513A3.334,3.334,0,0,1,87.155-.974a4.29,4.29,0,0,1-1-2.966Zm1.362.161a3.39,3.39,0,0,0,.612,2.117,1.957,1.957,0,0,0,1.637.8,1.945,1.945,0,0,0,1.641-.809,3.707,3.707,0,0,0,.608-2.267A3.384,3.384,0,0,0,91.4-6.149a1.968,1.968,0,0,0-1.644-.809,1.946,1.946,0,0,0-1.619.8A3.68,3.68,0,0,0,87.517-3.875Zm2.849-7.375h1.641L90.044-9.1l-1.091,0ZM96.35-7.925l.044,1a2.888,2.888,0,0,1,2.373-1.143q2.512,0,2.534,2.834V0H99.946V-5.244a1.824,1.824,0,0,0-.392-1.267,1.57,1.57,0,0,0-1.2-.41A1.956,1.956,0,0,0,97.2-6.57a2.387,2.387,0,0,0-.776.923V0H95.068V-7.925Zm10.378,3.9a4.642,4.642,0,0,1,.864-2.933,2.733,2.733,0,0,1,2.263-1.11,2.748,2.748,0,0,1,2.2.952V-11.25h1.355V0H112.17L112.1-.85a2.759,2.759,0,0,1-2.263,1A2.707,2.707,0,0,1,107.6-.981a4.7,4.7,0,0,1-.868-2.944Zm1.355.154a3.515,3.515,0,0,0,.557,2.109A1.8,1.8,0,0,0,110.178-1a1.977,1.977,0,0,0,1.882-1.157V-5.8a1.992,1.992,0,0,0-1.868-1.121,1.808,1.808,0,0,0-1.553.769A3.87,3.87,0,0,0,108.083-3.875ZM118.806.146a3.463,3.463,0,0,1-2.622-1.058,3.928,3.928,0,0,1-1.011-2.831v-.249a4.756,4.756,0,0,1,.45-2.106,3.514,3.514,0,0,1,1.26-1.45,3.167,3.167,0,0,1,1.754-.524,2.968,2.968,0,0,1,2.4,1.018,4.408,4.408,0,0,1,.857,2.915v.564h-5.369a2.817,2.817,0,0,0,.685,1.893,2.153,2.153,0,0,0,1.666.721,2.36,2.36,0,0,0,1.216-.293,3.055,3.055,0,0,0,.872-.776l.828.645A3.328,3.328,0,0,1,118.806.146Zm-.168-7.1a1.807,1.807,0,0,0-1.377.6,2.9,2.9,0,0,0-.688,1.674h3.97v-.1a2.581,2.581,0,0,0-.557-1.6A1.7,1.7,0,0,0,118.638-6.958ZM132.07-.784a2.878,2.878,0,0,1-2.322.93,2.464,2.464,0,0,1-1.93-.736,3.186,3.186,0,0,1-.67-2.179V-7.925H128.5v5.12q0,1.8,1.465,1.8a2.028,2.028,0,0,0,2.065-1.157V-7.925h1.355V0H132.1Zm4.658-7.141.044,1a2.888,2.888,0,0,1,2.373-1.143q2.512,0,2.534,2.834V0h-1.355V-5.244a1.824,1.824,0,0,0-.392-1.267,1.57,1.57,0,0,0-1.2-.41,1.956,1.956,0,0,0-1.157.352,2.387,2.387,0,0,0-.776.923V0h-1.355V-7.925Zm11.982,0,.037.879A2.927,2.927,0,0,1,151.1-8.071,2.266,2.266,0,0,1,153.362-6.8a3,3,0,0,1,1.029-.923,3.039,3.039,0,0,1,1.5-.352q2.607,0,2.651,2.761V0h-1.355V-5.229A1.82,1.82,0,0,0,156.8-6.5a1.71,1.71,0,0,0-1.3-.421,1.8,1.8,0,0,0-1.252.45,1.827,1.827,0,0,0-.579,1.212V0H152.3V-5.193a1.512,1.512,0,0,0-1.692-1.729,1.813,1.813,0,0,0-1.824,1.135V0h-1.355V-7.925ZM163.872.146A3.463,3.463,0,0,1,161.25-.912a3.928,3.928,0,0,1-1.011-2.831v-.249a4.756,4.756,0,0,1,.45-2.106,3.514,3.514,0,0,1,1.26-1.45,3.167,3.167,0,0,1,1.754-.524,2.968,2.968,0,0,1,2.4,1.018,4.408,4.408,0,0,1,.857,2.915v.564h-5.369a2.817,2.817,0,0,0,.685,1.893,2.153,2.153,0,0,0,1.666.721,2.36,2.36,0,0,0,1.216-.293,3.055,3.055,0,0,0,.872-.776l.828.645A3.328,3.328,0,0,1,163.872.146Zm-.168-7.1a1.807,1.807,0,0,0-1.377.6,2.9,2.9,0,0,0-.688,1.674h3.97v-.1a2.581,2.581,0,0,0-.557-1.6A1.7,1.7,0,0,0,163.7-6.958Zm6.108-.967.044,1a2.888,2.888,0,0,1,2.373-1.143q2.512,0,2.534,2.834V0h-1.355V-5.244a1.824,1.824,0,0,0-.392-1.267,1.57,1.57,0,0,0-1.2-.41,1.956,1.956,0,0,0-1.157.352,2.387,2.387,0,0,0-.776.923V0H168.53V-7.925ZM181.421-2.1a1,1,0,0,0-.414-.853,3.983,3.983,0,0,0-1.443-.524,6.822,6.822,0,0,1-1.633-.527,2.324,2.324,0,0,1-.894-.732,1.752,1.752,0,0,1-.289-1.011,2.056,2.056,0,0,1,.824-1.648,3.218,3.218,0,0,1,2.106-.674,3.311,3.311,0,0,1,2.186.7A2.21,2.21,0,0,1,182.7-5.6H181.34a1.223,1.223,0,0,0-.472-.959,1.77,1.77,0,0,0-1.19-.4,1.852,1.852,0,0,0-1.157.322,1.014,1.014,0,0,0-.417.842.822.822,0,0,0,.388.74,4.776,4.776,0,0,0,1.4.476,7.308,7.308,0,0,1,1.644.542,2.4,2.4,0,0,1,.934.758,1.864,1.864,0,0,1,.3,1.08,2.028,2.028,0,0,1-.85,1.7,3.564,3.564,0,0,1-2.2.641,3.991,3.991,0,0,1-1.685-.337,2.74,2.74,0,0,1-1.146-.941,2.268,2.268,0,0,1-.414-1.307h1.355a1.4,1.4,0,0,0,.546,1.08,2.117,2.117,0,0,0,1.344.4,2.185,2.185,0,0,0,1.234-.311A.956.956,0,0,0,181.421-2.1ZM189.434,0a2.846,2.846,0,0,1-.19-.835,3.023,3.023,0,0,1-2.256.981,2.8,2.8,0,0,1-1.923-.663,2.145,2.145,0,0,1-.751-1.681,2.24,2.24,0,0,1,.941-1.923A4.437,4.437,0,0,1,187.9-4.8h1.318v-.623a1.522,1.522,0,0,0-.425-1.132,1.707,1.707,0,0,0-1.252-.421,1.976,1.976,0,0,0-1.216.366,1.079,1.079,0,0,0-.491.886h-1.362a1.87,1.87,0,0,1,.421-1.146,2.874,2.874,0,0,1,1.143-.875,3.844,3.844,0,0,1,1.586-.322,3.133,3.133,0,0,1,2.146.685,2.47,2.47,0,0,1,.806,1.886v3.647a4.459,4.459,0,0,0,.278,1.736V0Zm-2.249-1.033a2.381,2.381,0,0,0,1.208-.33,1.994,1.994,0,0,0,.828-.857V-3.845h-1.062q-2.49,0-2.49,1.458a1.234,1.234,0,0,0,.425,1A1.633,1.633,0,0,0,187.185-1.033ZM194.1-7.925V.916q0,2.285-2.073,2.285a2.528,2.528,0,0,1-.828-.131V1.992a2.62,2.62,0,0,0,.615.059.921.921,0,0,0,.692-.246,1.214,1.214,0,0,0,.238-.854V-7.925Zm-1.494-2.1a.812.812,0,0,1,.2-.553.741.741,0,0,1,.59-.231.768.768,0,0,1,.6.227.8.8,0,0,1,.205.557.774.774,0,0,1-.205.549.782.782,0,0,1-.6.22.758.758,0,0,1-.593-.22A.791.791,0,0,1,192.6-10.027ZM199.57.146a3.463,3.463,0,0,1-2.622-1.058,3.928,3.928,0,0,1-1.011-2.831v-.249a4.756,4.756,0,0,1,.45-2.106,3.514,3.514,0,0,1,1.26-1.45,3.167,3.167,0,0,1,1.754-.524,2.968,2.968,0,0,1,2.4,1.018,4.408,4.408,0,0,1,.857,2.915v.564h-5.369a2.817,2.817,0,0,0,.685,1.893,2.153,2.153,0,0,0,1.666.721,2.36,2.36,0,0,0,1.216-.293,3.055,3.055,0,0,0,.872-.776l.828.645A3.328,3.328,0,0,1,199.57.146Zm-.168-7.1a1.807,1.807,0,0,0-1.377.6,2.9,2.9,0,0,0-.688,1.674h3.97v-.1a2.581,2.581,0,0,0-.557-1.6A1.7,1.7,0,0,0,199.4-6.958Z" transform="translate(-5885.979 -8128.48)"/><path d="M7.72-3.875A4.745,4.745,0,0,1,6.892-.959,2.653,2.653,0,0,1,4.651.146,2.906,2.906,0,0,1,2.38-.769V3.047H1.025V-7.925H2.263l.066.879a2.791,2.791,0,0,1,2.3-1.025,2.7,2.7,0,0,1,2.26,1.077A4.8,4.8,0,0,1,7.72-4ZM6.365-4.028a3.5,3.5,0,0,0-.571-2.117,1.84,1.84,0,0,0-1.567-.776A1.992,1.992,0,0,0,2.38-5.83v3.787A2,2,0,0,0,4.241-.959,1.832,1.832,0,0,0,5.79-1.732,3.822,3.822,0,0,0,6.365-4.028ZM14.333,0a2.846,2.846,0,0,1-.19-.835,3.023,3.023,0,0,1-2.256.981A2.8,2.8,0,0,1,9.965-.516,2.145,2.145,0,0,1,9.214-2.2a2.24,2.24,0,0,1,.941-1.923A4.437,4.437,0,0,1,12.8-4.8h1.318v-.623A1.522,1.522,0,0,0,13.7-6.559a1.707,1.707,0,0,0-1.252-.421,1.976,1.976,0,0,0-1.216.366,1.079,1.079,0,0,0-.491.886H9.375A1.87,1.87,0,0,1,9.8-6.874a2.874,2.874,0,0,1,1.143-.875,3.844,3.844,0,0,1,1.586-.322,3.133,3.133,0,0,1,2.146.685A2.47,2.47,0,0,1,15.476-5.5v3.647a4.459,4.459,0,0,0,.278,1.736V0ZM12.085-1.033a2.381,2.381,0,0,0,1.208-.33,1.994,1.994,0,0,0,.828-.857V-3.845H13.059q-2.49,0-2.49,1.458a1.234,1.234,0,0,0,.425,1A1.633,1.633,0,0,0,12.085-1.033Zm9.346-5.676a4.061,4.061,0,0,0-.667-.051,1.786,1.786,0,0,0-1.809,1.135V0H17.6V-7.925h1.318l.022.916a2.11,2.11,0,0,1,1.89-1.062,1.384,1.384,0,0,1,.6.1ZM27.275,0a2.846,2.846,0,0,1-.19-.835,3.023,3.023,0,0,1-2.256.981,2.8,2.8,0,0,1-1.923-.663A2.145,2.145,0,0,1,22.156-2.2,2.24,2.24,0,0,1,23.1-4.12,4.437,4.437,0,0,1,25.745-4.8h1.318v-.623a1.522,1.522,0,0,0-.425-1.132,1.707,1.707,0,0,0-1.252-.421,1.976,1.976,0,0,0-1.216.366,1.079,1.079,0,0,0-.491.886H22.317a1.87,1.87,0,0,1,.421-1.146,2.874,2.874,0,0,1,1.143-.875,3.844,3.844,0,0,1,1.586-.322,3.133,3.133,0,0,1,2.146.685A2.47,2.47,0,0,1,28.418-5.5v3.647A4.459,4.459,0,0,0,28.7-.117V0ZM25.027-1.033a2.381,2.381,0,0,0,1.208-.33,1.994,1.994,0,0,0,.828-.857V-3.845H26q-2.49,0-2.49,1.458a1.234,1.234,0,0,0,.425,1A1.633,1.633,0,0,0,25.027-1.033Zm8.87-3a4.681,4.681,0,0,1,.458-2.095,3.415,3.415,0,0,1,1.274-1.436,3.469,3.469,0,0,1,1.864-.505,3.342,3.342,0,0,1,2.618,1.121,4.311,4.311,0,0,1,1,2.981v.1A4.722,4.722,0,0,1,40.668-1.8,3.365,3.365,0,0,1,39.4-.366a3.509,3.509,0,0,1-1.893.513A3.334,3.334,0,0,1,34.9-.974a4.29,4.29,0,0,1-1-2.966Zm1.362.161a3.39,3.39,0,0,0,.612,2.117,1.957,1.957,0,0,0,1.637.8,1.945,1.945,0,0,0,1.641-.809,3.707,3.707,0,0,0,.608-2.267,3.384,3.384,0,0,0-.619-2.113,1.968,1.968,0,0,0-1.644-.809,1.946,1.946,0,0,0-1.619.8A3.68,3.68,0,0,0,35.259-3.875ZM45.989-.959A1.952,1.952,0,0,0,47.256-1.4a1.546,1.546,0,0,0,.6-1.1h1.282a2.457,2.457,0,0,1-.469,1.3,3.087,3.087,0,0,1-1.154.981,3.329,3.329,0,0,1-1.527.366,3.265,3.265,0,0,1-2.574-1.08,4.3,4.3,0,0,1-.956-2.955v-.227a4.771,4.771,0,0,1,.425-2.058,3.236,3.236,0,0,1,1.219-1.4,3.464,3.464,0,0,1,1.879-.5,3.178,3.178,0,0,1,2.216.8A2.853,2.853,0,0,1,49.138-5.2H47.856a1.867,1.867,0,0,0-.582-1.263,1.811,1.811,0,0,0-1.293-.494,1.9,1.9,0,0,0-1.6.743,3.491,3.491,0,0,0-.568,2.15v.256A3.422,3.422,0,0,0,44.377-1.7,1.906,1.906,0,0,0,45.989-.959Zm9.565.176a2.878,2.878,0,0,1-2.322.93A2.464,2.464,0,0,1,51.3-.59a3.186,3.186,0,0,1-.67-2.179V-7.925h1.355v5.12q0,1.8,1.465,1.8a2.028,2.028,0,0,0,2.065-1.157V-7.925h1.355V0H55.583ZM60.4,0H59.048V-11.25H60.4Zm4.006-9.844v1.919h1.479v1.047H64.409v4.921a1.1,1.1,0,0,0,.2.715A.832.832,0,0,0,65.281-1a3.281,3.281,0,0,0,.645-.088V0a3.951,3.951,0,0,1-1.04.146A1.687,1.687,0,0,1,63.516-.4a2.36,2.36,0,0,1-.461-1.56V-6.877H61.611V-7.925h1.443V-9.844ZM72.363,0a2.846,2.846,0,0,1-.19-.835,3.023,3.023,0,0,1-2.256.981,2.8,2.8,0,0,1-1.923-.663A2.145,2.145,0,0,1,67.244-2.2a2.24,2.24,0,0,1,.941-1.923A4.437,4.437,0,0,1,70.833-4.8h1.318v-.623a1.522,1.522,0,0,0-.425-1.132,1.707,1.707,0,0,0-1.252-.421,1.976,1.976,0,0,0-1.216.366,1.079,1.079,0,0,0-.491.886H67.4a1.87,1.87,0,0,1,.421-1.146,2.874,2.874,0,0,1,1.143-.875,3.844,3.844,0,0,1,1.586-.322,3.133,3.133,0,0,1,2.146.685A2.47,2.47,0,0,1,73.506-5.5v3.647a4.459,4.459,0,0,0,.278,1.736V0ZM70.115-1.033a2.381,2.381,0,0,0,1.208-.33,1.994,1.994,0,0,0,.828-.857V-3.845H71.089q-2.49,0-2.49,1.458a1.234,1.234,0,0,0,.425,1A1.633,1.633,0,0,0,70.115-1.033ZM79.46-6.709a4.061,4.061,0,0,0-.667-.051,1.786,1.786,0,0,0-1.809,1.135V0H75.63V-7.925h1.318l.022.916a2.11,2.11,0,0,1,1.89-1.062,1.384,1.384,0,0,1,.6.1ZM89.033-2.1a1,1,0,0,0-.414-.853,3.983,3.983,0,0,0-1.443-.524,6.822,6.822,0,0,1-1.633-.527,2.324,2.324,0,0,1-.894-.732A1.752,1.752,0,0,1,84.36-5.75,2.056,2.056,0,0,1,85.184-7.4a3.218,3.218,0,0,1,2.106-.674,3.311,3.311,0,0,1,2.186.7,2.21,2.21,0,0,1,.839,1.78H88.953a1.223,1.223,0,0,0-.472-.959,1.77,1.77,0,0,0-1.19-.4,1.852,1.852,0,0,0-1.157.322,1.014,1.014,0,0,0-.417.842.822.822,0,0,0,.388.74,4.776,4.776,0,0,0,1.4.476,7.308,7.308,0,0,1,1.644.542,2.4,2.4,0,0,1,.934.758,1.864,1.864,0,0,1,.3,1.08,2.028,2.028,0,0,1-.85,1.7,3.564,3.564,0,0,1-2.2.641A3.991,3.991,0,0,1,85.649-.19,2.74,2.74,0,0,1,84.5-1.132a2.268,2.268,0,0,1-.414-1.307h1.355a1.4,1.4,0,0,0,.546,1.08,2.117,2.117,0,0,0,1.344.4,2.185,2.185,0,0,0,1.234-.311A.956.956,0,0,0,89.033-2.1ZM97.046-.784a2.878,2.878,0,0,1-2.322.93,2.464,2.464,0,0,1-1.93-.736,3.186,3.186,0,0,1-.67-2.179V-7.925h1.355v5.12q0,1.8,1.465,1.8a2.028,2.028,0,0,0,2.065-1.157V-7.925h1.355V0H97.075ZM108.75-2.1a1,1,0,0,0-.414-.853,3.983,3.983,0,0,0-1.443-.524,6.822,6.822,0,0,1-1.633-.527,2.324,2.324,0,0,1-.894-.732,1.752,1.752,0,0,1-.289-1.011A2.056,2.056,0,0,1,104.9-7.4a3.218,3.218,0,0,1,2.106-.674,3.311,3.311,0,0,1,2.186.7,2.21,2.21,0,0,1,.839,1.78h-1.362a1.223,1.223,0,0,0-.472-.959,1.77,1.77,0,0,0-1.19-.4,1.852,1.852,0,0,0-1.157.322,1.014,1.014,0,0,0-.417.842.822.822,0,0,0,.388.74,4.776,4.776,0,0,0,1.4.476,7.308,7.308,0,0,1,1.644.542,2.4,2.4,0,0,1,.934.758,1.864,1.864,0,0,1,.3,1.08,2.028,2.028,0,0,1-.85,1.7,3.564,3.564,0,0,1-2.2.641,3.991,3.991,0,0,1-1.685-.337,2.74,2.74,0,0,1-1.146-.941,2.268,2.268,0,0,1-.414-1.307h1.355a1.4,1.4,0,0,0,.546,1.08,2.117,2.117,0,0,0,1.344.4,2.185,2.185,0,0,0,1.234-.311A.956.956,0,0,0,108.75-2.1ZM113.342,0h-1.355V-7.925h1.355Zm-1.465-10.027a.809.809,0,0,1,.2-.557.756.756,0,0,1,.6-.227.768.768,0,0,1,.6.227.8.8,0,0,1,.205.557.774.774,0,0,1-.205.549.782.782,0,0,1-.6.22.77.77,0,0,1-.6-.22A.782.782,0,0,1,111.877-10.027Zm3.311,6a4.658,4.658,0,0,1,.857-2.948,2.741,2.741,0,0,1,2.271-1.095,2.726,2.726,0,0,1,2.263,1.025l.066-.879h1.238V-.19a3.224,3.224,0,0,1-.912,2.424,3.365,3.365,0,0,1-2.45.886,4.076,4.076,0,0,1-1.677-.366,2.887,2.887,0,0,1-1.252-1l.7-.813a2.65,2.65,0,0,0,2.131,1.077,2.076,2.076,0,0,0,1.542-.557A2.128,2.128,0,0,0,120.52-.11V-.791A2.785,2.785,0,0,1,118.3.146a2.707,2.707,0,0,1-2.252-1.121A4.9,4.9,0,0,1,115.188-4.028Zm1.362.154a3.553,3.553,0,0,0,.549,2.106A1.785,1.785,0,0,0,118.638-1a1.985,1.985,0,0,0,1.882-1.165V-5.786a2.008,2.008,0,0,0-1.868-1.135,1.8,1.8,0,0,0-1.545.769A3.87,3.87,0,0,0,116.55-3.875Zm8.657-4.05.044,1a2.888,2.888,0,0,1,2.373-1.143q2.512,0,2.534,2.834V0H128.8V-5.244a1.824,1.824,0,0,0-.392-1.267,1.57,1.57,0,0,0-1.2-.41,1.956,1.956,0,0,0-1.157.352,2.387,2.387,0,0,0-.776.923V0h-1.355V-7.925ZM133.674,0h-1.355V-7.925h1.355Zm-1.465-10.027a.809.809,0,0,1,.2-.557.756.756,0,0,1,.6-.227.768.768,0,0,1,.6.227.8.8,0,0,1,.205.557.774.774,0,0,1-.205.549.782.782,0,0,1-.6.22.77.77,0,0,1-.6-.22A.782.782,0,0,1,132.209-10.027ZM136.3,0V-6.877h-1.252V-7.925H136.3V-8.6a2.753,2.753,0,0,1,.758-2.065,2.94,2.94,0,0,1,2.142-.74,6.451,6.451,0,0,1,2.073.447l-.227,1.143a4.7,4.7,0,0,0-1.743-.366,1.705,1.705,0,0,0-1.256.392,1.615,1.615,0,0,0-.385,1.176v.688h1.619v1.047h-1.619V0Zm5.647,0h-1.362V-7.925h1.362Zm5.383-.959a1.952,1.952,0,0,0,1.267-.439,1.546,1.546,0,0,0,.6-1.1h1.282a2.457,2.457,0,0,1-.469,1.3,3.087,3.087,0,0,1-1.154.981,3.329,3.329,0,0,1-1.527.366,3.265,3.265,0,0,1-2.574-1.08,4.3,4.3,0,0,1-.956-2.955v-.227a4.771,4.771,0,0,1,.425-2.058,3.236,3.236,0,0,1,1.219-1.4,3.464,3.464,0,0,1,1.879-.5,3.178,3.178,0,0,1,2.216.8,2.853,2.853,0,0,1,.941,2.073h-1.282a1.867,1.867,0,0,0-.582-1.263,1.811,1.811,0,0,0-1.293-.494,1.9,1.9,0,0,0-1.6.743,3.491,3.491,0,0,0-.568,2.15v.256a3.422,3.422,0,0,0,.564,2.109A1.906,1.906,0,0,0,147.327-.959ZM156.892,0a2.846,2.846,0,0,1-.19-.835,3.023,3.023,0,0,1-2.256.981,2.8,2.8,0,0,1-1.923-.663,2.145,2.145,0,0,1-.751-1.681,2.24,2.24,0,0,1,.941-1.923,4.437,4.437,0,0,1,2.648-.685h1.318v-.623a1.522,1.522,0,0,0-.425-1.132A1.707,1.707,0,0,0,155-6.98a1.976,1.976,0,0,0-1.216.366,1.079,1.079,0,0,0-.491.886h-1.362a1.87,1.87,0,0,1,.421-1.146,2.874,2.874,0,0,1,1.143-.875,3.844,3.844,0,0,1,1.586-.322,3.133,3.133,0,0,1,2.146.685,2.47,2.47,0,0,1,.806,1.886v3.647a4.459,4.459,0,0,0,.278,1.736V0Zm-2.249-1.033a2.381,2.381,0,0,0,1.208-.33,1.994,1.994,0,0,0,.828-.857V-3.845h-1.062q-2.49,0-2.49,1.458a1.234,1.234,0,0,0,.425,1A1.633,1.633,0,0,0,154.644-1.033Zm5.186-3a4.642,4.642,0,0,1,.864-2.933,2.733,2.733,0,0,1,2.263-1.11,2.748,2.748,0,0,1,2.2.952V-11.25h1.355V0h-1.245l-.066-.85a2.759,2.759,0,0,1-2.263,1A2.707,2.707,0,0,1,160.7-.981a4.7,4.7,0,0,1-.868-2.944Zm1.355.154a3.515,3.515,0,0,0,.557,2.109A1.8,1.8,0,0,0,163.279-1a1.977,1.977,0,0,0,1.882-1.157V-5.8a1.992,1.992,0,0,0-1.868-1.121,1.808,1.808,0,0,0-1.553.769A3.87,3.87,0,0,0,161.184-3.875Zm7.075-.161a4.681,4.681,0,0,1,.458-2.095,3.415,3.415,0,0,1,1.274-1.436,3.469,3.469,0,0,1,1.864-.505,3.342,3.342,0,0,1,2.618,1.121,4.311,4.311,0,0,1,1,2.981v.1a4.722,4.722,0,0,1-.443,2.076,3.365,3.365,0,0,1-1.267,1.432,3.509,3.509,0,0,1-1.893.513,3.334,3.334,0,0,1-2.611-1.121,4.29,4.29,0,0,1-1-2.966Zm1.362.161a3.39,3.39,0,0,0,.612,2.117,1.957,1.957,0,0,0,1.637.8,1.945,1.945,0,0,0,1.641-.809,3.707,3.707,0,0,0,.608-2.267,3.384,3.384,0,0,0-.619-2.113,1.968,1.968,0,0,0-1.644-.809,1.946,1.946,0,0,0-1.619.8A3.68,3.68,0,0,0,169.622-3.875Z" transform="translate(-5872.689 -8110.48)"/><g transform="translate(-6198 -8352)"><g clip-path="url(#a)"><path d="M882.625,184.134V128.216L867.7,120.88H652.889V176.8l14.922,7.335Z" fill="#e7defc"/><path d="M882.625,184.134V128.216L867.7,120.88H652.889V176.8l14.922,7.335Z" fill="none" stroke="#5c379b" stroke-miterlimit="10" stroke-width="2"/></g></g><path d="M4.38-4.753A6.612,6.612,0,0,1,1.747-6.031,2.442,2.442,0,0,1,.923-7.9,2.58,2.58,0,0,1,1.93-9.987a4,4,0,0,1,2.618-.824,4.369,4.369,0,0,1,1.959.425A3.222,3.222,0,0,1,7.841-9.214a3,3,0,0,1,.472,1.633H6.9a1.95,1.95,0,0,0-.615-1.525,2.5,2.5,0,0,0-1.736-.555A2.561,2.561,0,0,0,2.926-9.2a1.53,1.53,0,0,0-.582,1.273,1.376,1.376,0,0,0,.553,1.1A5.424,5.424,0,0,0,4.779-6a8.734,8.734,0,0,1,2.08.825A3.157,3.157,0,0,1,7.972-4.124,2.683,2.683,0,0,1,8.335-2.71,2.492,2.492,0,0,1,7.324-.634a4.31,4.31,0,0,1-2.7.78A5.013,5.013,0,0,1,2.571-.275,3.451,3.451,0,0,1,1.1-1.428,2.815,2.815,0,0,1,.586-3.091H2a1.837,1.837,0,0,0,.714,1.527A3.007,3.007,0,0,0,4.622-1a2.764,2.764,0,0,0,1.707-.454A1.475,1.475,0,0,0,6.921-2.7a1.448,1.448,0,0,0-.549-1.212A6.333,6.333,0,0,0,4.38-4.753Zm8.833,4.9A3.463,3.463,0,0,1,10.591-.912,3.928,3.928,0,0,1,9.58-3.743v-.249a4.756,4.756,0,0,1,.45-2.106,3.514,3.514,0,0,1,1.26-1.45,3.167,3.167,0,0,1,1.754-.524,2.968,2.968,0,0,1,2.4,1.018A4.408,4.408,0,0,1,16.3-4.138v.564H10.935a2.817,2.817,0,0,0,.685,1.893,2.153,2.153,0,0,0,1.666.721A2.36,2.36,0,0,0,14.5-1.252a3.055,3.055,0,0,0,.872-.776l.828.645A3.328,3.328,0,0,1,13.213.146Zm-.168-7.1a1.807,1.807,0,0,0-1.377.6,2.9,2.9,0,0,0-.688,1.674h3.97v-.1a2.581,2.581,0,0,0-.557-1.6A1.7,1.7,0,0,0,13.044-6.958ZM26.477-.784a2.878,2.878,0,0,1-2.322.93,2.464,2.464,0,0,1-1.93-.736,3.186,3.186,0,0,1-.67-2.179V-7.925H22.91v5.12q0,1.8,1.465,1.8A2.028,2.028,0,0,0,26.44-2.161V-7.925H27.8V0H26.506Zm5.215-9.06v1.919h1.479v1.047H31.692v4.921a1.1,1.1,0,0,0,.2.715A.832.832,0,0,0,32.563-1a3.281,3.281,0,0,0,.645-.088V0a3.951,3.951,0,0,1-1.04.146A1.687,1.687,0,0,1,30.8-.4a2.36,2.36,0,0,1-.461-1.56V-6.877H28.894V-7.925h1.443V-9.844ZM36.226,0H34.871V-7.925h1.355ZM34.761-10.027a.809.809,0,0,1,.2-.557.756.756,0,0,1,.6-.227.768.768,0,0,1,.6.227.8.8,0,0,1,.205.557.774.774,0,0,1-.205.549.782.782,0,0,1-.6.22.77.77,0,0,1-.6-.22A.782.782,0,0,1,34.761-10.027ZM39.866,0H38.511V-11.25h1.355Zm3.64,0H42.151V-7.925h1.355ZM42.041-10.027a.809.809,0,0,1,.2-.557.756.756,0,0,1,.6-.227.768.768,0,0,1,.6.227.8.8,0,0,1,.205.557.774.774,0,0,1-.205.549.782.782,0,0,1-.6.22.77.77,0,0,1-.6-.22A.782.782,0,0,1,42.041-10.027Zm4.907,8.921h4.636V0H45.293V-1L49.666-6.8H45.359V-7.925h6.006v.959ZM58,0a2.846,2.846,0,0,1-.19-.835,3.023,3.023,0,0,1-2.256.981,2.8,2.8,0,0,1-1.923-.663A2.145,2.145,0,0,1,52.881-2.2a2.24,2.24,0,0,1,.941-1.923A4.437,4.437,0,0,1,56.47-4.8h1.318v-.623a1.522,1.522,0,0,0-.425-1.132,1.707,1.707,0,0,0-1.252-.421,1.976,1.976,0,0,0-1.216.366,1.079,1.079,0,0,0-.491.886H53.042a1.87,1.87,0,0,1,.421-1.146,2.874,2.874,0,0,1,1.143-.875,3.844,3.844,0,0,1,1.586-.322,3.133,3.133,0,0,1,2.146.685A2.47,2.47,0,0,1,59.143-5.5v3.647a4.459,4.459,0,0,0,.278,1.736V0ZM55.752-1.033a2.381,2.381,0,0,0,1.208-.33,1.994,1.994,0,0,0,.828-.857V-3.845H56.726q-2.49,0-2.49,1.458a1.234,1.234,0,0,0,.425,1A1.633,1.633,0,0,0,55.752-1.033Zm12.407.073A1.952,1.952,0,0,0,69.426-1.4a1.546,1.546,0,0,0,.6-1.1h1.282a2.457,2.457,0,0,1-.469,1.3,3.087,3.087,0,0,1-1.154.981,3.329,3.329,0,0,1-1.527.366,3.265,3.265,0,0,1-2.574-1.08,4.3,4.3,0,0,1-.956-2.955v-.227a4.771,4.771,0,0,1,.425-2.058,3.236,3.236,0,0,1,1.219-1.4,3.464,3.464,0,0,1,1.879-.5,3.178,3.178,0,0,1,2.216.8A2.853,2.853,0,0,1,71.309-5.2H70.027a1.867,1.867,0,0,0-.582-1.263,1.811,1.811,0,0,0-1.293-.494,1.9,1.9,0,0,0-1.6.743,3.491,3.491,0,0,0-.568,2.15v.256A3.422,3.422,0,0,0,66.548-1.7,1.906,1.906,0,0,0,68.159-.959Zm4.314-3.076a4.681,4.681,0,0,1,.458-2.095,3.415,3.415,0,0,1,1.274-1.436,3.469,3.469,0,0,1,1.864-.505,3.342,3.342,0,0,1,2.618,1.121,4.311,4.311,0,0,1,1,2.981v.1A4.722,4.722,0,0,1,79.244-1.8,3.365,3.365,0,0,1,77.977-.366a3.509,3.509,0,0,1-1.893.513A3.334,3.334,0,0,1,73.473-.974a4.29,4.29,0,0,1-1-2.966Zm1.362.161a3.39,3.39,0,0,0,.612,2.117,1.957,1.957,0,0,0,1.637.8,1.945,1.945,0,0,0,1.641-.809,3.707,3.707,0,0,0,.608-2.267,3.384,3.384,0,0,0-.619-2.113,1.968,1.968,0,0,0-1.644-.809,1.946,1.946,0,0,0-1.619.8A3.68,3.68,0,0,0,73.835-3.875Zm8.826-4.05.037.879a2.927,2.927,0,0,1,2.351-1.025A2.266,2.266,0,0,1,87.312-6.8a3,3,0,0,1,1.029-.923,3.039,3.039,0,0,1,1.5-.352q2.607,0,2.651,2.761V0H91.135V-5.229A1.82,1.82,0,0,0,90.747-6.5a1.71,1.71,0,0,0-1.3-.421,1.8,1.8,0,0,0-1.252.45,1.827,1.827,0,0,0-.579,1.212V0H86.25V-5.193a1.512,1.512,0,0,0-1.692-1.729,1.813,1.813,0,0,0-1.824,1.135V0H81.379V-7.925ZM94.175-4.036a4.681,4.681,0,0,1,.458-2.095,3.415,3.415,0,0,1,1.274-1.436,3.469,3.469,0,0,1,1.864-.505,3.342,3.342,0,0,1,2.618,1.121,4.311,4.311,0,0,1,1,2.981v.1a4.722,4.722,0,0,1-.443,2.076A3.365,3.365,0,0,1,99.679-.366a3.509,3.509,0,0,1-1.893.513A3.334,3.334,0,0,1,95.175-.974a4.29,4.29,0,0,1-1-2.966Zm1.362.161a3.39,3.39,0,0,0,.612,2.117,1.957,1.957,0,0,0,1.637.8,1.945,1.945,0,0,0,1.641-.809,3.707,3.707,0,0,0,.608-2.267,3.384,3.384,0,0,0-.619-2.113,1.968,1.968,0,0,0-1.644-.809,1.946,1.946,0,0,0-1.619.8A3.68,3.68,0,0,0,95.537-3.875ZM111.416-2.1A1,1,0,0,0,111-2.955a3.983,3.983,0,0,0-1.443-.524,6.822,6.822,0,0,1-1.633-.527,2.324,2.324,0,0,1-.894-.732,1.752,1.752,0,0,1-.289-1.011,2.056,2.056,0,0,1,.824-1.648,3.218,3.218,0,0,1,2.106-.674,3.311,3.311,0,0,1,2.186.7A2.21,2.21,0,0,1,112.7-5.6h-1.362a1.223,1.223,0,0,0-.472-.959,1.77,1.77,0,0,0-1.19-.4,1.852,1.852,0,0,0-1.157.322,1.014,1.014,0,0,0-.417.842.822.822,0,0,0,.388.74,4.776,4.776,0,0,0,1.4.476,7.308,7.308,0,0,1,1.644.542,2.4,2.4,0,0,1,.934.758,1.864,1.864,0,0,1,.3,1.08,2.028,2.028,0,0,1-.85,1.7,3.564,3.564,0,0,1-2.2.641,3.991,3.991,0,0,1-1.685-.337,2.74,2.74,0,0,1-1.146-.941,2.268,2.268,0,0,1-.414-1.307h1.355a1.4,1.4,0,0,0,.546,1.08,2.117,2.117,0,0,0,1.344.4,2.185,2.185,0,0,0,1.234-.311A.956.956,0,0,0,111.416-2.1ZM116.008,0h-1.355V-7.925h1.355Zm-1.465-10.027a.809.809,0,0,1,.2-.557.756.756,0,0,1,.6-.227.768.768,0,0,1,.6.227.8.8,0,0,1,.205.557.774.774,0,0,1-.205.549.782.782,0,0,1-.6.22.77.77,0,0,1-.6-.22A.782.782,0,0,1,114.543-10.027Zm4.915,2.1.044,1a2.888,2.888,0,0,1,2.373-1.143q2.512,0,2.534,2.834V0h-1.355V-5.244a1.824,1.824,0,0,0-.392-1.267,1.57,1.57,0,0,0-1.2-.41,1.956,1.956,0,0,0-1.157.352,2.387,2.387,0,0,0-.776.923V0h-1.355V-7.925Zm6.636,3.889a4.681,4.681,0,0,1,.458-2.095,3.415,3.415,0,0,1,1.274-1.436,3.469,3.469,0,0,1,1.864-.505,3.342,3.342,0,0,1,2.618,1.121,4.311,4.311,0,0,1,1,2.981v.1a4.722,4.722,0,0,1-.443,2.076A3.365,3.365,0,0,1,131.6-.366,3.509,3.509,0,0,1,129.7.146a3.334,3.334,0,0,1-2.611-1.121,4.29,4.29,0,0,1-1-2.966Zm1.362.161a3.39,3.39,0,0,0,.612,2.117,1.957,1.957,0,0,0,1.637.8,1.945,1.945,0,0,0,1.641-.809,3.707,3.707,0,0,0,.608-2.267,3.384,3.384,0,0,0-.619-2.113,1.968,1.968,0,0,0-1.644-.809,1.946,1.946,0,0,0-1.619.8A3.68,3.68,0,0,0,127.456-3.875Zm2.849-7.375h1.641L129.983-9.1l-1.091,0Zm5.984,3.325.044,1a2.888,2.888,0,0,1,2.373-1.143q2.512,0,2.534,2.834V0h-1.355V-5.244a1.824,1.824,0,0,0-.392-1.267,1.57,1.57,0,0,0-1.2-.41,1.956,1.956,0,0,0-1.157.352,2.387,2.387,0,0,0-.776.923V0h-1.355V-7.925ZM144.756,0H143.4V-7.925h1.355Zm-1.465-10.027a.809.809,0,0,1,.2-.557.756.756,0,0,1,.6-.227.768.768,0,0,1,.6.227.8.8,0,0,1,.205.557.774.774,0,0,1-.205.549.782.782,0,0,1-.6.22.77.77,0,0,1-.6-.22A.782.782,0,0,1,143.291-10.027Zm4.907,2.1.037.879a2.927,2.927,0,0,1,2.351-1.025A2.266,2.266,0,0,1,152.849-6.8a3,3,0,0,1,1.029-.923,3.039,3.039,0,0,1,1.5-.352q2.607,0,2.651,2.761V0h-1.355V-5.229a1.82,1.82,0,0,0-.388-1.271,1.71,1.71,0,0,0-1.3-.421,1.8,1.8,0,0,0-1.252.45,1.827,1.827,0,0,0-.579,1.212V0h-1.362V-5.193A1.512,1.512,0,0,0,150.1-6.921a1.813,1.813,0,0,0-1.824,1.135V0h-1.355V-7.925Zm11.514,3.889a4.681,4.681,0,0,1,.458-2.095,3.415,3.415,0,0,1,1.274-1.436,3.469,3.469,0,0,1,1.864-.505,3.342,3.342,0,0,1,2.618,1.121,4.311,4.311,0,0,1,1,2.981v.1a4.722,4.722,0,0,1-.443,2.076,3.365,3.365,0,0,1-1.267,1.432,3.509,3.509,0,0,1-1.893.513,3.334,3.334,0,0,1-2.611-1.121,4.29,4.29,0,0,1-1-2.966Zm1.362.161a3.39,3.39,0,0,0,.612,2.117,1.957,1.957,0,0,0,1.637.8,1.945,1.945,0,0,0,1.641-.809,3.707,3.707,0,0,0,.608-2.267,3.384,3.384,0,0,0-.619-2.113,1.968,1.968,0,0,0-1.644-.809,1.946,1.946,0,0,0-1.619.8A3.68,3.68,0,0,0,161.074-3.875Z" transform="translate(-5513.256 -8204.32)"/><path d="M.7-4.028A4.642,4.642,0,0,1,1.56-6.962a2.733,2.733,0,0,1,2.263-1.11,2.748,2.748,0,0,1,2.2.952V-11.25H7.383V0H6.138L6.072-.85a2.759,2.759,0,0,1-2.263,1A2.707,2.707,0,0,1,1.564-.981,4.7,4.7,0,0,1,.7-3.926Zm1.355.154a3.515,3.515,0,0,0,.557,2.109A1.8,1.8,0,0,0,4.146-1,1.977,1.977,0,0,0,6.028-2.161V-5.8A1.992,1.992,0,0,0,4.16-6.921a1.808,1.808,0,0,0-1.553.769A3.87,3.87,0,0,0,2.051-3.875ZM12.773.146A3.463,3.463,0,0,1,10.151-.912,3.928,3.928,0,0,1,9.141-3.743v-.249A4.756,4.756,0,0,1,9.591-6.1a3.514,3.514,0,0,1,1.26-1.45A3.167,3.167,0,0,1,12.6-8.071a2.968,2.968,0,0,1,2.4,1.018,4.408,4.408,0,0,1,.857,2.915v.564H10.5a2.817,2.817,0,0,0,.685,1.893,2.153,2.153,0,0,0,1.666.721,2.36,2.36,0,0,0,1.216-.293,3.055,3.055,0,0,0,.872-.776l.828.645A3.328,3.328,0,0,1,12.773.146Zm-.168-7.1a1.807,1.807,0,0,0-1.377.6,2.9,2.9,0,0,0-.688,1.674h3.97v-.1a2.581,2.581,0,0,0-.557-1.6A1.7,1.7,0,0,0,12.6-6.958ZM22.983-9.844v1.919h1.479v1.047H22.983v4.921a1.1,1.1,0,0,0,.2.715A.832.832,0,0,0,23.855-1a3.281,3.281,0,0,0,.645-.088V0a3.951,3.951,0,0,1-1.04.146A1.687,1.687,0,0,1,22.09-.4a2.36,2.36,0,0,1-.461-1.56V-6.877H20.186V-7.925h1.443V-9.844Zm6.35,9.99A3.463,3.463,0,0,1,26.711-.912,3.928,3.928,0,0,1,25.7-3.743v-.249a4.756,4.756,0,0,1,.45-2.106,3.514,3.514,0,0,1,1.26-1.45,3.167,3.167,0,0,1,1.754-.524,2.968,2.968,0,0,1,2.4,1.018,4.408,4.408,0,0,1,.857,2.915v.564H27.056a2.817,2.817,0,0,0,.685,1.893,2.153,2.153,0,0,0,1.666.721,2.36,2.36,0,0,0,1.216-.293,3.055,3.055,0,0,0,.872-.776l.828.645A3.328,3.328,0,0,1,29.333.146Zm-.168-7.1a1.807,1.807,0,0,0-1.377.6A2.9,2.9,0,0,0,27.1-4.687h3.97v-.1a2.581,2.581,0,0,0-.557-1.6A1.7,1.7,0,0,0,29.165-6.958ZM36.65-5.032l1.758-2.893H39.99L37.4-4.006,40.071,0H38.5L36.672-2.966,34.841,0H33.267L35.94-4.006,33.347-7.925h1.567Zm6.614-4.812v1.919h1.479v1.047H43.264v4.921a1.1,1.1,0,0,0,.2.715A.832.832,0,0,0,44.136-1a3.281,3.281,0,0,0,.645-.088V0a3.951,3.951,0,0,1-1.04.146A1.687,1.687,0,0,1,42.371-.4a2.36,2.36,0,0,1-.461-1.56V-6.877H40.466V-7.925h1.443V-9.844ZM45.82-4.036a4.681,4.681,0,0,1,.458-2.095,3.415,3.415,0,0,1,1.274-1.436,3.469,3.469,0,0,1,1.864-.505,3.342,3.342,0,0,1,2.618,1.121,4.311,4.311,0,0,1,1,2.981v.1A4.722,4.722,0,0,1,52.592-1.8,3.365,3.365,0,0,1,51.324-.366a3.509,3.509,0,0,1-1.893.513A3.334,3.334,0,0,1,46.82-.974a4.29,4.29,0,0,1-1-2.966Zm1.362.161a3.39,3.39,0,0,0,.612,2.117,1.957,1.957,0,0,0,1.637.8,1.945,1.945,0,0,0,1.641-.809,3.707,3.707,0,0,0,.608-2.267,3.384,3.384,0,0,0-.619-2.113,1.968,1.968,0,0,0-1.644-.809,1.946,1.946,0,0,0-1.619.8A3.68,3.68,0,0,0,47.183-3.875ZM61.626-.959A1.952,1.952,0,0,0,62.893-1.4a1.546,1.546,0,0,0,.6-1.1h1.282a2.457,2.457,0,0,1-.469,1.3,3.087,3.087,0,0,1-1.154.981,3.329,3.329,0,0,1-1.527.366,3.265,3.265,0,0,1-2.574-1.08A4.3,4.3,0,0,1,58.1-3.889v-.227a4.771,4.771,0,0,1,.425-2.058,3.236,3.236,0,0,1,1.219-1.4,3.464,3.464,0,0,1,1.879-.5,3.178,3.178,0,0,1,2.216.8A2.853,2.853,0,0,1,64.775-5.2H63.494a1.867,1.867,0,0,0-.582-1.263,1.811,1.811,0,0,0-1.293-.494,1.9,1.9,0,0,0-1.6.743,3.491,3.491,0,0,0-.568,2.15v.256A3.422,3.422,0,0,0,60.015-1.7,1.906,1.906,0,0,0,61.626-.959ZM67.771,0H66.416V-7.925h1.355ZM66.306-10.027a.809.809,0,0,1,.2-.557.756.756,0,0,1,.6-.227.768.768,0,0,1,.6.227.8.8,0,0,1,.205.557.774.774,0,0,1-.205.549.782.782,0,0,1-.6.22.77.77,0,0,1-.6-.22A.782.782,0,0,1,66.306-10.027ZM70.605,0V-6.877H69.353V-7.925h1.252v-.813a2.7,2.7,0,0,1,.681-1.97,2.573,2.573,0,0,1,1.926-.7,3.578,3.578,0,0,1,.93.124l-.073,1.092a3.892,3.892,0,0,0-.732-.066,1.322,1.322,0,0,0-1.018.386,1.564,1.564,0,0,0-.359,1.106v.838h1.692v1.047H71.96V0Zm8.372-6.709a4.061,4.061,0,0,0-.667-.051A1.786,1.786,0,0,0,76.5-5.625V0H75.146V-7.925h1.318l.022.916a2.11,2.11,0,0,1,1.89-1.062,1.384,1.384,0,0,1,.6.1ZM84.822,0a2.846,2.846,0,0,1-.19-.835,3.023,3.023,0,0,1-2.256.981,2.8,2.8,0,0,1-1.923-.663A2.145,2.145,0,0,1,79.7-2.2a2.24,2.24,0,0,1,.941-1.923A4.437,4.437,0,0,1,83.291-4.8h1.318v-.623a1.522,1.522,0,0,0-.425-1.132,1.707,1.707,0,0,0-1.252-.421,1.976,1.976,0,0,0-1.216.366,1.079,1.079,0,0,0-.491.886H79.863a1.87,1.87,0,0,1,.421-1.146,2.874,2.874,0,0,1,1.143-.875,3.844,3.844,0,0,1,1.586-.322,3.133,3.133,0,0,1,2.146.685A2.47,2.47,0,0,1,85.964-5.5v3.647a4.459,4.459,0,0,0,.278,1.736V0ZM82.573-1.033a2.381,2.381,0,0,0,1.208-.33,1.994,1.994,0,0,0,.828-.857V-3.845H83.547q-2.49,0-2.49,1.458a1.234,1.234,0,0,0,.425,1A1.633,1.633,0,0,0,82.573-1.033Zm5.186-3a4.642,4.642,0,0,1,.864-2.933,2.733,2.733,0,0,1,2.263-1.11,2.748,2.748,0,0,1,2.2.952V-11.25h1.355V0H93.2l-.066-.85a2.759,2.759,0,0,1-2.263,1A2.707,2.707,0,0,1,88.627-.981a4.7,4.7,0,0,1-.868-2.944Zm1.355.154a3.515,3.515,0,0,0,.557,2.109A1.8,1.8,0,0,0,91.208-1a1.977,1.977,0,0,0,1.882-1.157V-5.8a1.992,1.992,0,0,0-1.868-1.121,1.808,1.808,0,0,0-1.553.769A3.87,3.87,0,0,0,89.114-3.875Zm7.075-.161a4.681,4.681,0,0,1,.458-2.095,3.415,3.415,0,0,1,1.274-1.436,3.469,3.469,0,0,1,1.864-.505A3.342,3.342,0,0,1,102.4-6.951a4.311,4.311,0,0,1,1,2.981v.1A4.722,4.722,0,0,1,102.96-1.8a3.365,3.365,0,0,1-1.267,1.432A3.509,3.509,0,0,1,99.8.146,3.334,3.334,0,0,1,97.189-.974a4.29,4.29,0,0,1-1-2.966Zm1.362.161a3.39,3.39,0,0,0,.612,2.117,1.957,1.957,0,0,0,1.637.8,1.945,1.945,0,0,0,1.641-.809,3.707,3.707,0,0,0,.608-2.267,3.384,3.384,0,0,0-.619-2.113,1.968,1.968,0,0,0-1.644-.809,1.946,1.946,0,0,0-1.619.8A3.68,3.68,0,0,0,97.551-3.875Z" transform="translate(-5481.637 -8186.32)"/><g transform="translate(-6198 -8352)"><g clip-path="url(#a)"><path d="M882.625,301.854V245.936L867.7,238.6H652.889v55.919l14.922,7.335Z" fill="#e7defc"/><path d="M882.625,301.854V245.936L867.7,238.6H652.889v55.919l14.922,7.335Z" fill="none" stroke="#5c379b" stroke-miterlimit="10" stroke-width="2"/></g></g><path d="M9.082-3.384A3.923,3.923,0,0,1,7.833-.773,4.093,4.093,0,0,1,5.039.146,3.758,3.758,0,0,1,2.01-1.208,5.451,5.451,0,0,1,.872-4.834V-5.859A6.076,6.076,0,0,1,1.4-8.474a3.966,3.966,0,0,1,1.505-1.732,4.191,4.191,0,0,1,2.256-.6,3.853,3.853,0,0,1,2.725.948A3.971,3.971,0,0,1,9.082-7.236H7.668a3.064,3.064,0,0,0-.795-1.851,2.4,2.4,0,0,0-1.71-.573,2.516,2.516,0,0,0-2.113,1,4.577,4.577,0,0,0-.765,2.837v1.034A4.7,4.7,0,0,0,3.01-2.03,2.343,2.343,0,0,0,5.039-1a2.706,2.706,0,0,0,1.8-.531,2.947,2.947,0,0,0,.831-1.849Zm5.537-3.325a4.061,4.061,0,0,0-.667-.051,1.786,1.786,0,0,0-1.809,1.135V0H10.789V-7.925h1.318l.022.916a2.11,2.11,0,0,1,1.89-1.062,1.384,1.384,0,0,1,.6.1ZM17.336,0H15.981V-7.925h1.355ZM15.872-10.027a.809.809,0,0,1,.2-.557.756.756,0,0,1,.6-.227.768.768,0,0,1,.6.227.8.8,0,0,1,.205.557.774.774,0,0,1-.205.549.782.782,0,0,1-.6.22.77.77,0,0,1-.6-.22A.782.782,0,0,1,15.872-10.027ZM26.2-3.875a4.745,4.745,0,0,1-.828,2.915A2.653,2.653,0,0,1,23.13.146a2.906,2.906,0,0,1-2.271-.916V3.047H19.5V-7.925h1.238l.066.879a2.791,2.791,0,0,1,2.3-1.025,2.7,2.7,0,0,1,2.26,1.077A4.8,4.8,0,0,1,26.2-4Zm-1.355-.154a3.5,3.5,0,0,0-.571-2.117,1.84,1.84,0,0,0-1.567-.776A1.992,1.992,0,0,0,20.859-5.83v3.787A2,2,0,0,0,22.72-.959a1.832,1.832,0,0,0,1.549-.773A3.822,3.822,0,0,0,24.844-4.028Zm4.915-5.815v1.919h1.479v1.047H29.758v4.921a1.1,1.1,0,0,0,.2.715A.832.832,0,0,0,30.63-1a3.281,3.281,0,0,0,.645-.088V0a3.951,3.951,0,0,1-1.04.146A1.687,1.687,0,0,1,28.865-.4a2.36,2.36,0,0,1-.461-1.56V-6.877H26.96V-7.925H28.4V-9.844Zm2.556,5.808a4.681,4.681,0,0,1,.458-2.095,3.415,3.415,0,0,1,1.274-1.436,3.469,3.469,0,0,1,1.864-.505,3.342,3.342,0,0,1,2.618,1.121,4.311,4.311,0,0,1,1,2.981v.1A4.722,4.722,0,0,1,39.086-1.8,3.365,3.365,0,0,1,37.819-.366a3.509,3.509,0,0,1-1.893.513A3.334,3.334,0,0,1,33.314-.974a4.29,4.29,0,0,1-1-2.966Zm1.362.161a3.39,3.39,0,0,0,.612,2.117,1.957,1.957,0,0,0,1.637.8,1.945,1.945,0,0,0,1.641-.809,3.707,3.707,0,0,0,.608-2.267,3.384,3.384,0,0,0-.619-2.113,1.968,1.968,0,0,0-1.644-.809,1.946,1.946,0,0,0-1.619.8A3.68,3.68,0,0,0,33.677-3.875Zm7.229-.154a4.658,4.658,0,0,1,.857-2.948,2.741,2.741,0,0,1,2.271-1.095A2.726,2.726,0,0,1,46.3-7.046l.066-.879H47.6V-.19a3.224,3.224,0,0,1-.912,2.424,3.365,3.365,0,0,1-2.45.886,4.076,4.076,0,0,1-1.677-.366,2.887,2.887,0,0,1-1.252-1l.7-.813a2.65,2.65,0,0,0,2.131,1.077,2.076,2.076,0,0,0,1.542-.557A2.128,2.128,0,0,0,46.238-.11V-.791a2.785,2.785,0,0,1-2.219.938A2.707,2.707,0,0,1,41.766-.974,4.9,4.9,0,0,1,40.906-4.028Zm1.362.154a3.553,3.553,0,0,0,.549,2.106A1.785,1.785,0,0,0,44.355-1a1.985,1.985,0,0,0,1.882-1.165V-5.786A2.008,2.008,0,0,0,44.37-6.921a1.8,1.8,0,0,0-1.545.769A3.87,3.87,0,0,0,42.268-3.875ZM53.474-6.709a4.061,4.061,0,0,0-.667-.051A1.786,1.786,0,0,0,51-5.625V0H49.644V-7.925h1.318l.022.916a2.11,2.11,0,0,1,1.89-1.062,1.384,1.384,0,0,1,.6.1ZM59.319,0a2.846,2.846,0,0,1-.19-.835,3.023,3.023,0,0,1-2.256.981A2.8,2.8,0,0,1,54.95-.516,2.145,2.145,0,0,1,54.2-2.2,2.24,2.24,0,0,1,55.14-4.12,4.437,4.437,0,0,1,57.788-4.8h1.318v-.623a1.522,1.522,0,0,0-.425-1.132,1.707,1.707,0,0,0-1.252-.421,1.976,1.976,0,0,0-1.216.366,1.079,1.079,0,0,0-.491.886H54.36a1.87,1.87,0,0,1,.421-1.146,2.874,2.874,0,0,1,1.143-.875,3.844,3.844,0,0,1,1.586-.322,3.133,3.133,0,0,1,2.146.685A2.47,2.47,0,0,1,60.461-5.5v3.647A4.459,4.459,0,0,0,60.74-.117V0ZM57.07-1.033a2.381,2.381,0,0,0,1.208-.33,1.994,1.994,0,0,0,.828-.857V-3.845H58.044q-2.49,0-2.49,1.458a1.234,1.234,0,0,0,.425,1A1.633,1.633,0,0,0,57.07-1.033Zm6.79-6.892.037.879a2.927,2.927,0,0,1,2.351-1.025A2.266,2.266,0,0,1,68.511-6.8,3,3,0,0,1,69.54-7.72a3.039,3.039,0,0,1,1.5-.352q2.607,0,2.651,2.761V0H72.334V-5.229A1.82,1.82,0,0,0,71.946-6.5a1.71,1.71,0,0,0-1.3-.421,1.8,1.8,0,0,0-1.252.45,1.827,1.827,0,0,0-.579,1.212V0H67.449V-5.193a1.512,1.512,0,0,0-1.692-1.729,1.813,1.813,0,0,0-1.824,1.135V0H62.578V-7.925ZM80.625,0a2.846,2.846,0,0,1-.19-.835,3.023,3.023,0,0,1-2.256.981,2.8,2.8,0,0,1-1.923-.663A2.145,2.145,0,0,1,75.505-2.2a2.24,2.24,0,0,1,.941-1.923A4.437,4.437,0,0,1,79.094-4.8h1.318v-.623a1.522,1.522,0,0,0-.425-1.132,1.707,1.707,0,0,0-1.252-.421,1.976,1.976,0,0,0-1.216.366,1.079,1.079,0,0,0-.491.886H75.667a1.87,1.87,0,0,1,.421-1.146,2.874,2.874,0,0,1,1.143-.875,3.844,3.844,0,0,1,1.586-.322,3.133,3.133,0,0,1,2.146.685A2.47,2.47,0,0,1,81.768-5.5v3.647a4.459,4.459,0,0,0,.278,1.736V0ZM78.376-1.033a2.381,2.381,0,0,0,1.208-.33,1.994,1.994,0,0,0,.828-.857V-3.845H79.351q-2.49,0-2.49,1.458a1.234,1.234,0,0,0,.425,1A1.633,1.633,0,0,0,78.376-1.033Zm5.471,3.157L83.079,1.6A3.534,3.534,0,0,0,83.8-.381V-1.6h1.326V-.542A3.336,3.336,0,0,1,84.76.938,3.464,3.464,0,0,1,83.848,2.124ZM93.838.146A3.463,3.463,0,0,1,91.216-.912a3.928,3.928,0,0,1-1.011-2.831v-.249a4.756,4.756,0,0,1,.45-2.106,3.514,3.514,0,0,1,1.26-1.45,3.167,3.167,0,0,1,1.754-.524,2.968,2.968,0,0,1,2.4,1.018,4.408,4.408,0,0,1,.857,2.915v.564H91.56a2.817,2.817,0,0,0,.685,1.893,2.153,2.153,0,0,0,1.666.721,2.36,2.36,0,0,0,1.216-.293A3.055,3.055,0,0,0,96-2.029l.828.645A3.328,3.328,0,0,1,93.838.146Zm-.168-7.1a1.807,1.807,0,0,0-1.377.6A2.9,2.9,0,0,0,91.6-4.687h3.97v-.1a2.581,2.581,0,0,0-.557-1.6A1.7,1.7,0,0,0,93.669-6.958Zm6.108-.967.044,1a2.888,2.888,0,0,1,2.373-1.143q2.512,0,2.534,2.834V0h-1.355V-5.244a1.824,1.824,0,0,0-.392-1.267,1.57,1.57,0,0,0-1.2-.41,1.956,1.956,0,0,0-1.157.352,2.387,2.387,0,0,0-.776.923V0H98.5V-7.925Zm14.539,1.216a4.061,4.061,0,0,0-.667-.051,1.786,1.786,0,0,0-1.809,1.135V0h-1.355V-7.925H111.8l.022.916a2.11,2.11,0,0,1,1.89-1.062,1.384,1.384,0,0,1,.6.1ZM118.745.146a3.463,3.463,0,0,1-2.622-1.058,3.928,3.928,0,0,1-1.011-2.831v-.249a4.756,4.756,0,0,1,.45-2.106,3.514,3.514,0,0,1,1.26-1.45,3.167,3.167,0,0,1,1.754-.524,2.968,2.968,0,0,1,2.4,1.018,4.408,4.408,0,0,1,.857,2.915v.564h-5.369a2.817,2.817,0,0,0,.685,1.893,2.153,2.153,0,0,0,1.666.721,2.36,2.36,0,0,0,1.216-.293,3.055,3.055,0,0,0,.872-.776l.828.645A3.328,3.328,0,0,1,118.745.146Zm-.168-7.1a1.807,1.807,0,0,0-1.377.6,2.9,2.9,0,0,0-.688,1.674h3.97v-.1a2.581,2.581,0,0,0-.557-1.6A1.7,1.7,0,0,0,118.577-6.958ZM124.07,0V-6.877h-1.252V-7.925h1.252v-.813a2.7,2.7,0,0,1,.681-1.97,2.573,2.573,0,0,1,1.926-.7,3.578,3.578,0,0,1,.93.124l-.073,1.092a3.892,3.892,0,0,0-.732-.066,1.322,1.322,0,0,0-1.018.386,1.564,1.564,0,0,0-.359,1.106v.838h1.692v1.047h-1.692V0Zm7.665.146a3.463,3.463,0,0,1-2.622-1.058A3.928,3.928,0,0,1,128.1-3.743v-.249a4.756,4.756,0,0,1,.45-2.106,3.514,3.514,0,0,1,1.26-1.45,3.167,3.167,0,0,1,1.754-.524,2.968,2.968,0,0,1,2.4,1.018,4.408,4.408,0,0,1,.857,2.915v.564h-5.369a2.817,2.817,0,0,0,.685,1.893,2.153,2.153,0,0,0,1.666.721,2.36,2.36,0,0,0,1.216-.293,3.055,3.055,0,0,0,.872-.776l.828.645A3.328,3.328,0,0,1,131.734.146Zm-.168-7.1a1.807,1.807,0,0,0-1.377.6,2.9,2.9,0,0,0-.688,1.674h3.97v-.1a2.581,2.581,0,0,0-.557-1.6A1.7,1.7,0,0,0,131.566-6.958Zm8.657.249a4.061,4.061,0,0,0-.667-.051,1.786,1.786,0,0,0-1.809,1.135V0h-1.355V-7.925h1.318l.022.916a2.11,2.11,0,0,1,1.89-1.062,1.384,1.384,0,0,1,.6.1ZM144.637.146a3.463,3.463,0,0,1-2.622-1.058A3.928,3.928,0,0,1,141-3.743v-.249a4.756,4.756,0,0,1,.45-2.106,3.514,3.514,0,0,1,1.26-1.45,3.167,3.167,0,0,1,1.754-.524,2.968,2.968,0,0,1,2.4,1.018,4.408,4.408,0,0,1,.857,2.915v.564h-5.369a2.817,2.817,0,0,0,.685,1.893,2.153,2.153,0,0,0,1.666.721,2.36,2.36,0,0,0,1.216-.293,3.055,3.055,0,0,0,.872-.776l.828.645A3.328,3.328,0,0,1,144.637.146Zm-.168-7.1a1.807,1.807,0,0,0-1.377.6,2.9,2.9,0,0,0-.688,1.674h3.97v-.1a2.581,2.581,0,0,0-.557-1.6A1.7,1.7,0,0,0,144.468-6.958Zm6.108-.967.044,1a2.888,2.888,0,0,1,2.373-1.143q2.512,0,2.534,2.834V0h-1.355V-5.244a1.824,1.824,0,0,0-.392-1.267,1.57,1.57,0,0,0-1.2-.41,1.956,1.956,0,0,0-1.157.352,2.387,2.387,0,0,0-.776.923V0H149.3V-7.925ZM160.75-.959a1.952,1.952,0,0,0,1.267-.439,1.546,1.546,0,0,0,.6-1.1H163.9a2.457,2.457,0,0,1-.469,1.3,3.087,3.087,0,0,1-1.154.981,3.329,3.329,0,0,1-1.527.366,3.265,3.265,0,0,1-2.574-1.08,4.3,4.3,0,0,1-.956-2.955v-.227a4.771,4.771,0,0,1,.425-2.058,3.236,3.236,0,0,1,1.219-1.4,3.464,3.464,0,0,1,1.879-.5,3.178,3.178,0,0,1,2.216.8A2.853,2.853,0,0,1,163.9-5.2h-1.282a1.867,1.867,0,0,0-.582-1.263,1.811,1.811,0,0,0-1.293-.494,1.9,1.9,0,0,0-1.6.743,3.491,3.491,0,0,0-.568,2.15v.256a3.422,3.422,0,0,0,.564,2.109A1.906,1.906,0,0,0,160.75-.959ZM166.9,0H165.54V-7.925H166.9ZM165.43-10.027a.809.809,0,0,1,.2-.557.756.756,0,0,1,.6-.227.768.768,0,0,1,.6.227.8.8,0,0,1,.205.557.774.774,0,0,1-.205.549.782.782,0,0,1-.6.22.77.77,0,0,1-.6-.22A.782.782,0,0,1,165.43-10.027ZM173.956,0a2.846,2.846,0,0,1-.19-.835,3.023,3.023,0,0,1-2.256.981,2.8,2.8,0,0,1-1.923-.663,2.145,2.145,0,0,1-.751-1.681,2.24,2.24,0,0,1,.941-1.923,4.437,4.437,0,0,1,2.648-.685h1.318v-.623a1.522,1.522,0,0,0-.425-1.132,1.707,1.707,0,0,0-1.252-.421,1.976,1.976,0,0,0-1.216.366,1.079,1.079,0,0,0-.491.886H169a1.87,1.87,0,0,1,.421-1.146,2.874,2.874,0,0,1,1.143-.875,3.844,3.844,0,0,1,1.586-.322,3.133,3.133,0,0,1,2.146.685A2.47,2.47,0,0,1,175.1-5.5v3.647a4.459,4.459,0,0,0,.278,1.736V0Zm-2.249-1.033a2.381,2.381,0,0,0,1.208-.33,1.994,1.994,0,0,0,.828-.857V-3.845h-1.062q-2.49,0-2.49,1.458a1.234,1.234,0,0,0,.425,1A1.633,1.633,0,0,0,171.707-1.033ZM185.828,0a2.846,2.846,0,0,1-.19-.835,3.023,3.023,0,0,1-2.256.981,2.8,2.8,0,0,1-1.923-.663,2.145,2.145,0,0,1-.751-1.681,2.24,2.24,0,0,1,.941-1.923A4.437,4.437,0,0,1,184.3-4.8h1.318v-.623a1.522,1.522,0,0,0-.425-1.132,1.707,1.707,0,0,0-1.252-.421,1.976,1.976,0,0,0-1.216.366,1.079,1.079,0,0,0-.491.886H180.87a1.87,1.87,0,0,1,.421-1.146,2.874,2.874,0,0,1,1.143-.875,3.844,3.844,0,0,1,1.586-.322,3.133,3.133,0,0,1,2.146.685,2.47,2.47,0,0,1,.806,1.886v3.647a4.459,4.459,0,0,0,.278,1.736V0ZM183.58-1.033a2.381,2.381,0,0,0,1.208-.33,1.994,1.994,0,0,0,.828-.857V-3.845h-1.062q-2.49,0-2.49,1.458a1.234,1.234,0,0,0,.425,1A1.633,1.633,0,0,0,183.58-1.033Z" transform="translate(-5523.188 -8086.787)"/><path d="M2.5,0H1.143V-11.25H2.5ZM9.558,0a2.846,2.846,0,0,1-.19-.835A3.023,3.023,0,0,1,7.112.146,2.8,2.8,0,0,1,5.189-.516,2.145,2.145,0,0,1,4.438-2.2,2.24,2.24,0,0,1,5.38-4.12,4.437,4.437,0,0,1,8.027-4.8H9.346v-.623a1.522,1.522,0,0,0-.425-1.132A1.707,1.707,0,0,0,7.668-6.98a1.976,1.976,0,0,0-1.216.366,1.079,1.079,0,0,0-.491.886H4.6a1.87,1.87,0,0,1,.421-1.146,2.874,2.874,0,0,1,1.143-.875,3.844,3.844,0,0,1,1.586-.322A3.133,3.133,0,0,1,9.9-7.386,2.47,2.47,0,0,1,10.7-5.5v3.647a4.459,4.459,0,0,0,.278,1.736V0ZM7.31-1.033a2.381,2.381,0,0,0,1.208-.33,1.994,1.994,0,0,0,.828-.857V-3.845H8.284q-2.49,0-2.49,1.458a1.234,1.234,0,0,0,.425,1A1.633,1.633,0,0,0,7.31-1.033ZM17.2,0V-6.877H15.952V-7.925H17.2v-.813a2.7,2.7,0,0,1,.681-1.97,2.573,2.573,0,0,1,1.926-.7,3.578,3.578,0,0,1,.93.124l-.073,1.092a3.892,3.892,0,0,0-.732-.066,1.322,1.322,0,0,0-1.018.386,1.564,1.564,0,0,0-.359,1.106v.838h1.692v1.047H18.56V0Zm4.182-4.036a4.681,4.681,0,0,1,.458-2.095,3.415,3.415,0,0,1,1.274-1.436,3.469,3.469,0,0,1,1.864-.505A3.342,3.342,0,0,1,27.6-6.951a4.311,4.311,0,0,1,1,2.981v.1A4.722,4.722,0,0,1,28.158-1.8,3.365,3.365,0,0,1,26.891-.366,3.509,3.509,0,0,1,25,.146,3.334,3.334,0,0,1,22.386-.974a4.29,4.29,0,0,1-1-2.966Zm1.362.161a3.39,3.39,0,0,0,.612,2.117A1.957,1.957,0,0,0,25-.959a1.945,1.945,0,0,0,1.641-.809,3.707,3.707,0,0,0,.608-2.267,3.384,3.384,0,0,0-.619-2.113,1.968,1.968,0,0,0-1.644-.809,1.946,1.946,0,0,0-1.619.8A3.68,3.68,0,0,0,22.749-3.875ZM34.131-6.709a4.061,4.061,0,0,0-.667-.051,1.786,1.786,0,0,0-1.809,1.135V0H30.3V-7.925h1.318l.022.916a2.11,2.11,0,0,1,1.89-1.062,1.384,1.384,0,0,1,.6.1Zm2.52-1.216.037.879a2.927,2.927,0,0,1,2.351-1.025A2.266,2.266,0,0,1,41.3-6.8,3,3,0,0,1,42.33-7.72a3.039,3.039,0,0,1,1.5-.352q2.607,0,2.651,2.761V0H45.125V-5.229A1.82,1.82,0,0,0,44.736-6.5a1.71,1.71,0,0,0-1.3-.421,1.8,1.8,0,0,0-1.252.45A1.827,1.827,0,0,0,41.6-5.259V0H40.239V-5.193a1.512,1.512,0,0,0-1.692-1.729,1.813,1.813,0,0,0-1.824,1.135V0H35.369V-7.925ZM53.416,0a2.846,2.846,0,0,1-.19-.835,3.023,3.023,0,0,1-2.256.981,2.8,2.8,0,0,1-1.923-.663A2.145,2.145,0,0,1,48.3-2.2a2.24,2.24,0,0,1,.941-1.923A4.437,4.437,0,0,1,51.885-4.8H53.2v-.623a1.522,1.522,0,0,0-.425-1.132,1.707,1.707,0,0,0-1.252-.421,1.976,1.976,0,0,0-1.216.366,1.079,1.079,0,0,0-.491.886H48.457a1.87,1.87,0,0,1,.421-1.146,2.874,2.874,0,0,1,1.143-.875,3.844,3.844,0,0,1,1.586-.322,3.133,3.133,0,0,1,2.146.685A2.47,2.47,0,0,1,54.558-5.5v3.647a4.459,4.459,0,0,0,.278,1.736V0ZM51.167-1.033a2.381,2.381,0,0,0,1.208-.33,1.994,1.994,0,0,0,.828-.857V-3.845H52.141q-2.49,0-2.49,1.458a1.234,1.234,0,0,0,.425,1A1.633,1.633,0,0,0,51.167-1.033Zm12.407.073A1.952,1.952,0,0,0,64.841-1.4a1.546,1.546,0,0,0,.6-1.1h1.282a2.457,2.457,0,0,1-.469,1.3A3.087,3.087,0,0,1,65.1-.22a3.329,3.329,0,0,1-1.527.366A3.265,3.265,0,0,1,61-.934a4.3,4.3,0,0,1-.956-2.955v-.227a4.771,4.771,0,0,1,.425-2.058,3.236,3.236,0,0,1,1.219-1.4,3.464,3.464,0,0,1,1.879-.5,3.178,3.178,0,0,1,2.216.8A2.853,2.853,0,0,1,66.724-5.2H65.442a1.867,1.867,0,0,0-.582-1.263,1.811,1.811,0,0,0-1.293-.494,1.9,1.9,0,0,0-1.6.743,3.491,3.491,0,0,0-.568,2.15v.256A3.422,3.422,0,0,0,61.963-1.7,1.906,1.906,0,0,0,63.574-.959ZM69.719,0H68.364V-7.925h1.355ZM68.254-10.027a.809.809,0,0,1,.2-.557.756.756,0,0,1,.6-.227.768.768,0,0,1,.6.227.8.8,0,0,1,.205.557.774.774,0,0,1-.205.549.782.782,0,0,1-.6.22.77.77,0,0,1-.6-.22A.782.782,0,0,1,68.254-10.027ZM72.554,0V-6.877H71.3V-7.925h1.252v-.813a2.7,2.7,0,0,1,.681-1.97,2.573,2.573,0,0,1,1.926-.7,3.578,3.578,0,0,1,.93.124l-.073,1.092a3.892,3.892,0,0,0-.732-.066,1.322,1.322,0,0,0-1.018.386,1.564,1.564,0,0,0-.359,1.106v.838H75.6v1.047H73.909V0Zm8.372-6.709a4.061,4.061,0,0,0-.667-.051A1.786,1.786,0,0,0,78.45-5.625V0H77.095V-7.925h1.318l.022.916a2.11,2.11,0,0,1,1.89-1.062,1.384,1.384,0,0,1,.6.1ZM86.77,0a2.846,2.846,0,0,1-.19-.835,3.023,3.023,0,0,1-2.256.981A2.8,2.8,0,0,1,82.4-.516,2.145,2.145,0,0,1,81.65-2.2a2.24,2.24,0,0,1,.941-1.923A4.437,4.437,0,0,1,85.239-4.8h1.318v-.623a1.522,1.522,0,0,0-.425-1.132A1.707,1.707,0,0,0,84.88-6.98a1.976,1.976,0,0,0-1.216.366,1.079,1.079,0,0,0-.491.886H81.812a1.87,1.87,0,0,1,.421-1.146,2.874,2.874,0,0,1,1.143-.875,3.844,3.844,0,0,1,1.586-.322,3.133,3.133,0,0,1,2.146.685A2.47,2.47,0,0,1,87.913-5.5v3.647a4.459,4.459,0,0,0,.278,1.736V0ZM84.521-1.033a2.381,2.381,0,0,0,1.208-.33,1.994,1.994,0,0,0,.828-.857V-3.845H85.5q-2.49,0-2.49,1.458a1.234,1.234,0,0,0,.425,1A1.633,1.633,0,0,0,84.521-1.033Zm5.186-3a4.642,4.642,0,0,1,.864-2.933,2.733,2.733,0,0,1,2.263-1.11,2.748,2.748,0,0,1,2.2.952V-11.25h1.355V0H95.149l-.066-.85a2.759,2.759,0,0,1-2.263,1A2.707,2.707,0,0,1,90.575-.981a4.7,4.7,0,0,1-.868-2.944Zm1.355.154a3.515,3.515,0,0,0,.557,2.109A1.8,1.8,0,0,0,93.157-1a1.977,1.977,0,0,0,1.882-1.157V-5.8a1.992,1.992,0,0,0-1.868-1.121,1.808,1.808,0,0,0-1.553.769A3.87,3.87,0,0,0,91.062-3.875ZM103.389,0a2.846,2.846,0,0,1-.19-.835,3.023,3.023,0,0,1-2.256.981A2.8,2.8,0,0,1,99.02-.516,2.145,2.145,0,0,1,98.269-2.2,2.24,2.24,0,0,1,99.21-4.12a4.437,4.437,0,0,1,2.648-.685h1.318v-.623a1.522,1.522,0,0,0-.425-1.132A1.707,1.707,0,0,0,101.5-6.98a1.976,1.976,0,0,0-1.216.366,1.079,1.079,0,0,0-.491.886H98.43a1.87,1.87,0,0,1,.421-1.146,2.874,2.874,0,0,1,1.143-.875,3.844,3.844,0,0,1,1.586-.322,3.133,3.133,0,0,1,2.146.685,2.47,2.47,0,0,1,.806,1.886v3.647a4.459,4.459,0,0,0,.278,1.736V0ZM101.14-1.033a2.381,2.381,0,0,0,1.208-.33,1.994,1.994,0,0,0,.828-.857V-3.845h-1.062q-2.49,0-2.49,1.458a1.234,1.234,0,0,0,.425,1A1.633,1.633,0,0,0,101.14-1.033Zm8.9-3a4.642,4.642,0,0,1,.864-2.933,2.733,2.733,0,0,1,2.263-1.11,2.748,2.748,0,0,1,2.2.952V-11.25h1.355V0h-1.245l-.066-.85a2.759,2.759,0,0,1-2.263,1,2.707,2.707,0,0,1-2.245-1.128,4.7,4.7,0,0,1-.868-2.944Zm1.355.154a3.515,3.515,0,0,0,.557,2.109A1.8,1.8,0,0,0,113.489-1a1.977,1.977,0,0,0,1.882-1.157V-5.8A1.992,1.992,0,0,0,113.5-6.921a1.808,1.808,0,0,0-1.553.769A3.87,3.87,0,0,0,111.394-3.875ZM122.117.146a3.463,3.463,0,0,1-2.622-1.058,3.928,3.928,0,0,1-1.011-2.831v-.249a4.756,4.756,0,0,1,.45-2.106,3.514,3.514,0,0,1,1.26-1.45,3.167,3.167,0,0,1,1.754-.524,2.968,2.968,0,0,1,2.4,1.018,4.408,4.408,0,0,1,.857,2.915v.564h-5.369a2.817,2.817,0,0,0,.685,1.893,2.153,2.153,0,0,0,1.666.721,2.36,2.36,0,0,0,1.216-.293,3.055,3.055,0,0,0,.872-.776l.828.645A3.328,3.328,0,0,1,122.117.146Zm-.168-7.1a1.807,1.807,0,0,0-1.377.6,2.9,2.9,0,0,0-.688,1.674h3.97v-.1a2.581,2.581,0,0,0-.557-1.6A1.7,1.7,0,0,0,121.948-6.958ZM128.247,0h-1.355V-11.25h1.355ZM135.4-7.925l.037.879a2.927,2.927,0,0,1,2.351-1.025A2.266,2.266,0,0,1,140.054-6.8a3,3,0,0,1,1.029-.923,3.039,3.039,0,0,1,1.5-.352q2.607,0,2.651,2.761V0h-1.355V-5.229a1.82,1.82,0,0,0-.388-1.271,1.71,1.71,0,0,0-1.3-.421,1.8,1.8,0,0,0-1.252.45,1.827,1.827,0,0,0-.579,1.212V0h-1.362V-5.193A1.512,1.512,0,0,0,137.3-6.921a1.813,1.813,0,0,0-1.824,1.135V0h-1.355V-7.925ZM150.564.146a3.463,3.463,0,0,1-2.622-1.058,3.928,3.928,0,0,1-1.011-2.831v-.249a4.756,4.756,0,0,1,.45-2.106,3.514,3.514,0,0,1,1.26-1.45,3.167,3.167,0,0,1,1.754-.524,2.968,2.968,0,0,1,2.4,1.018,4.408,4.408,0,0,1,.857,2.915v.564h-5.369a2.817,2.817,0,0,0,.685,1.893,2.153,2.153,0,0,0,1.666.721,2.36,2.36,0,0,0,1.216-.293,3.055,3.055,0,0,0,.872-.776l.828.645A3.328,3.328,0,0,1,150.564.146Zm-.168-7.1a1.807,1.807,0,0,0-1.377.6,2.9,2.9,0,0,0-.688,1.674h3.97v-.1a2.581,2.581,0,0,0-.557-1.6A1.7,1.7,0,0,0,150.4-6.958Zm6.108-.967.044,1a2.888,2.888,0,0,1,2.373-1.143q2.512,0,2.534,2.834V0H160.1V-5.244a1.824,1.824,0,0,0-.392-1.267,1.57,1.57,0,0,0-1.2-.41,1.956,1.956,0,0,0-1.157.352,2.387,2.387,0,0,0-.776.923V0h-1.355V-7.925ZM168.113-2.1a1,1,0,0,0-.414-.853,3.983,3.983,0,0,0-1.443-.524,6.822,6.822,0,0,1-1.633-.527,2.324,2.324,0,0,1-.894-.732,1.752,1.752,0,0,1-.289-1.011,2.056,2.056,0,0,1,.824-1.648,3.218,3.218,0,0,1,2.106-.674,3.311,3.311,0,0,1,2.186.7,2.21,2.21,0,0,1,.839,1.78h-1.362a1.223,1.223,0,0,0-.472-.959,1.77,1.77,0,0,0-1.19-.4,1.852,1.852,0,0,0-1.157.322,1.014,1.014,0,0,0-.417.842.822.822,0,0,0,.388.74,4.776,4.776,0,0,0,1.4.476,7.308,7.308,0,0,1,1.644.542,2.4,2.4,0,0,1,.934.758,1.864,1.864,0,0,1,.3,1.08,2.028,2.028,0,0,1-.85,1.7,3.564,3.564,0,0,1-2.2.641,3.991,3.991,0,0,1-1.685-.337,2.74,2.74,0,0,1-1.146-.941,2.268,2.268,0,0,1-.414-1.307h1.355a1.4,1.4,0,0,0,.546,1.08,2.117,2.117,0,0,0,1.344.4,2.185,2.185,0,0,0,1.234-.311A.956.956,0,0,0,168.113-2.1ZM176.125,0a2.846,2.846,0,0,1-.19-.835,3.023,3.023,0,0,1-2.256.981,2.8,2.8,0,0,1-1.923-.663,2.145,2.145,0,0,1-.751-1.681,2.24,2.24,0,0,1,.941-1.923,4.437,4.437,0,0,1,2.648-.685h1.318v-.623a1.522,1.522,0,0,0-.425-1.132,1.707,1.707,0,0,0-1.252-.421,1.976,1.976,0,0,0-1.216.366,1.079,1.079,0,0,0-.491.886h-1.362a1.87,1.87,0,0,1,.421-1.146,2.874,2.874,0,0,1,1.143-.875,3.844,3.844,0,0,1,1.586-.322,3.133,3.133,0,0,1,2.146.685,2.47,2.47,0,0,1,.806,1.886v3.647a4.459,4.459,0,0,0,.278,1.736V0Zm-2.249-1.033a2.381,2.381,0,0,0,1.208-.33,1.994,1.994,0,0,0,.828-.857V-3.845h-1.062q-2.49,0-2.49,1.458a1.234,1.234,0,0,0,.425,1A1.633,1.633,0,0,0,173.877-1.033Zm6.914-6.892V.916q0,2.285-2.073,2.285a2.528,2.528,0,0,1-.828-.131V1.992a2.62,2.62,0,0,0,.615.059.921.921,0,0,0,.692-.246,1.214,1.214,0,0,0,.238-.854V-7.925Zm-1.494-2.1a.812.812,0,0,1,.2-.553.741.741,0,0,1,.59-.231.768.768,0,0,1,.6.227.8.8,0,0,1,.205.557.774.774,0,0,1-.205.549.782.782,0,0,1-.6.22.758.758,0,0,1-.593-.22A.791.791,0,0,1,179.3-10.027ZM186.262.146A3.463,3.463,0,0,1,183.64-.912a3.928,3.928,0,0,1-1.011-2.831v-.249a4.756,4.756,0,0,1,.45-2.106,3.514,3.514,0,0,1,1.26-1.45,3.167,3.167,0,0,1,1.754-.524,2.968,2.968,0,0,1,2.4,1.018,4.408,4.408,0,0,1,.857,2.915v.564h-5.369a2.817,2.817,0,0,0,.685,1.893,2.153,2.153,0,0,0,1.666.721,2.36,2.36,0,0,0,1.216-.293,3.055,3.055,0,0,0,.872-.776l.828.645A3.328,3.328,0,0,1,186.262.146Zm-.168-7.1a1.807,1.807,0,0,0-1.377.6,2.9,2.9,0,0,0-.688,1.674H188v-.1a2.581,2.581,0,0,0-.557-1.6A1.7,1.7,0,0,0,186.094-6.958Z" transform="translate(-5524.808 -8068.787)"/><g transform="translate(-6198 -8352)"><g clip-path="url(#a)"><line y2="54.36" transform="translate(770.771 184.187)" fill="none" stroke="#5c379b" stroke-miterlimit="10" stroke-width="2"/><line y2="25.2" transform="translate(770.771 95.627)" fill="none" stroke="#5c379b" stroke-miterlimit="10" stroke-width="2"/></g></g><path d="M0,0H883.625V302.854H0Z" transform="translate(-6198 -8352)" fill="none"/></g></svg>