<svg xmlns="http://www.w3.org/2000/svg" xmlns:xlink="http://www.w3.org/1999/xlink" width="489.962" height="157.66" viewBox="0 0 489.962 157.66"><defs><clipPath id="a"><rect width="489.962" height="157.66" fill="none"/></clipPath></defs><g clip-path="url(#a)"><path d="M56.66,42.154H4.166A4.179,4.179,0,0,0,0,46.32v82.074a4.178,4.178,0,0,0,4.166,4.166h65.2a4.178,4.178,0,0,0,4.166-4.166V59.027Z" fill="#d2b7ff"/><path d="M82.907,118.812V50.486L64.992,32.572H13.54a4.177,4.177,0,0,0-4.166,4.166v82.074a4.178,4.178,0,0,0,4.166,4.166h65.2a4.179,4.179,0,0,0,4.166-4.166" fill="#f2f2f2"/><path d="M64.993,47.362a3.289,3.289,0,0,0,3.332,3.333H82.908L64.993,32.572Z" fill="#cdd6e0"/><path d="M262.554,42.154H210.06a4.179,4.179,0,0,0-4.166,4.166v82.074a4.178,4.178,0,0,0,4.166,4.166h65.2a4.178,4.178,0,0,0,4.166-4.166V59.027Z" fill="#d2b7ff"/><path d="M288.8,118.812V50.486L270.887,32.572H219.435a4.177,4.177,0,0,0-4.166,4.166v82.074a4.178,4.178,0,0,0,4.166,4.166h65.2a4.179,4.179,0,0,0,4.167-4.166" fill="#f2f2f2"/><path d="M270.887,47.362a3.29,3.29,0,0,0,3.333,3.333H288.8L270.887,32.572Z" fill="#cdd6e0"/><path d="M463.715,42.154H411.221a4.179,4.179,0,0,0-4.166,4.166v82.074a4.178,4.178,0,0,0,4.166,4.166h65.2a4.178,4.178,0,0,0,4.166-4.166V59.027Z" fill="#d2b7ff"/><path d="M489.962,118.812V50.486L472.047,32.572H420.6a4.177,4.177,0,0,0-4.166,4.166v82.074a4.178,4.178,0,0,0,4.166,4.166h65.2a4.179,4.179,0,0,0,4.166-4.166" fill="#f2f2f2"/><path d="M472.048,47.362a3.29,3.29,0,0,0,3.333,3.333h14.582L472.048,32.572Z" fill="#cdd6e0"/><line x2="107.188" transform="translate(91.509 84.045)" fill="none" stroke="#0071bc" stroke-linecap="round" stroke-linejoin="round" stroke-width="1" stroke-dasharray="2 5"/><path d="M195.383,88.135,194.7,87.4l3.612-3.357L194.7,80.689l.682-.733,4.4,4.09Z" fill="#0071bc"/><path d="M145.011,114.307a1.544,1.544,0,0,0,2.209.008l5.39-5.367a.987.987,0,0,0,.171-.608l.026-23.827a14.228,14.228,0,1,0-13.278-.015l0,2.369a.5.5,0,0,0,.169.367l3.183,2.652a.481.481,0,0,1,0,.735l-2.92,2.419a.49.49,0,0,0-.169.368.484.484,0,0,0,.169.367l2.914,2.427a.48.48,0,0,1,0,.734l-2.92,2.42a.484.484,0,0,0,0,.735l2.919,2.443a.472.472,0,0,1,0,.723l-3.2,2.667a.467.467,0,0,0-.165.362l.031,2.248a.791.791,0,0,0,.229.537Zm-2.617-48.079a3.794,3.794,0,1,1,3.79,3.8,3.792,3.792,0,0,1-3.79-3.8" fill="#f29c1f"/><path d="M146.255,114.775l.049-44.759a3.785,3.785,0,0,0,.009-7.566l0-4.759c.5.006,1,.039,1.519.095a14.23,14.23,0,0,1,4.97,26.727l-.026,23.827a.987.987,0,0,1-.171.608l-5.39,5.368a1.564,1.564,0,0,1-.965.459" fill="#f0c419"/><path d="M148.466,84.656a.775.775,0,0,1,1.323.55l-.019,17.072a.775.775,0,1,1-1.55,0l.018-17.073a.774.774,0,0,1,.228-.548" fill="#fff"/><path d="M148.338,105.589a.775.775,0,1,0,0-1.1.774.774,0,0,0,0,1.1" fill="#fff"/><line x2="107.187" transform="translate(294.445 84.045)" fill="none" stroke="#0071bc" stroke-linecap="round" stroke-linejoin="round" stroke-width="1" stroke-dasharray="2 5"/><path d="M398.318,88.135l-.682-.732,3.612-3.357-3.612-3.357.682-.733,4.4,4.09Z" fill="#0071bc"/><path d="M347.947,114.307a1.544,1.544,0,0,0,2.209.008l5.39-5.367a.987.987,0,0,0,.171-.608l.026-23.827a14.228,14.228,0,1,0-13.278-.015l0,2.369a.5.5,0,0,0,.169.367l3.183,2.652a.481.481,0,0,1,0,.735l-2.92,2.419a.49.49,0,0,0-.169.368.484.484,0,0,0,.169.367l2.914,2.427a.48.48,0,0,1,0,.734l-2.92,2.42a.484.484,0,0,0,0,.735l2.919,2.443a.472.472,0,0,1,0,.723l-3.2,2.667a.467.467,0,0,0-.165.362l.031,2.248a.792.792,0,0,0,.229.537ZM345.33,66.228a3.794,3.794,0,1,1,3.79,3.8,3.792,3.792,0,0,1-3.79-3.8" fill="#f29c1f"/><path d="M349.191,114.775l.049-44.759a3.785,3.785,0,0,0,.009-7.566l.005-4.759c.5.006,1,.039,1.519.095a14.23,14.23,0,0,1,4.97,26.727l-.026,23.827a.987.987,0,0,1-.171.608l-5.39,5.368a1.567,1.567,0,0,1-.965.459" fill="#f0c419"/><path d="M351.4,84.656a.775.775,0,0,1,1.323.55l-.019,17.072a.775.775,0,1,1-1.55,0l.018-17.073a.774.774,0,0,1,.228-.548" fill="#fff"/><path d="M351.274,105.589a.775.775,0,1,0,0-1.1.774.774,0,0,0,0,1.1" fill="#fff"/><path d="M169.131,10.378h-3.267l-1.065,2.3h-2.722L167.952.846h2.91l1.154,11.832h-2.731Zm-2.292-2.113h2.153l-.26-3.957-.048-.009Z" fill="#5c379b"/><path d="M177.4,10.207a.628.628,0,0,0-.236-.585,2.825,2.825,0,0,0-1.129-.455,4.009,4.009,0,0,1-2.008-.935,1.878,1.878,0,0,1-.455-1.73,3.016,3.016,0,0,1,1.227-1.991,4.222,4.222,0,0,1,2.625-.788,3.587,3.587,0,0,1,2.479.792,2.024,2.024,0,0,1,.65,2.019l-.016.049h-2.649a1.154,1.154,0,0,0-.09-.8.743.743,0,0,0-.666-.26.987.987,0,0,0-.63.24.938.938,0,0,0-.354.6.629.629,0,0,0,.208.6,2.768,2.768,0,0,0,1.15.434,4.144,4.144,0,0,1,2.076.947,1.957,1.957,0,0,1,.435,1.784,2.881,2.881,0,0,1-1.3,1.978,4.791,4.791,0,0,1-2.754.745,3.252,3.252,0,0,1-2.479-.919,2.2,2.2,0,0,1-.65-2.024l.016-.049h2.462a1.089,1.089,0,0,0,.163.907,1.113,1.113,0,0,0,.845.272,1.162,1.162,0,0,0,.732-.22.925.925,0,0,0,.349-.609" fill="#5c379b"/><path d="M184.7,8.639l.049.008,2.2-4.762h2.893l-5.242,10.1a6.432,6.432,0,0,1-1.32,1.613,3.061,3.061,0,0,1-2.052.63,2.657,2.657,0,0,1-.549-.049c-.148-.032-.372-.087-.67-.162l.723-1.951.138.036a.511.511,0,0,0,.13.013,1.725,1.725,0,0,0,.89-.2,1.354,1.354,0,0,0,.524-.568l.3-.556-1.024-8.907h2.885Z" fill="#5c379b"/><path d="M192.974,4.941a3.463,3.463,0,0,1,1.13-.906,3.086,3.086,0,0,1,1.389-.313,1.921,1.921,0,0,1,1.154.345,1.7,1.7,0,0,1,.642,1.036,3.539,3.539,0,0,1,1.166-1.027,3.054,3.054,0,0,1,1.467-.354,1.8,1.8,0,0,1,1.654.9,3.867,3.867,0,0,1,.183,2.7l-1.073,5.355h-2.73l1.072-5.355a2.193,2.193,0,0,0,.029-1.2.629.629,0,0,0-.614-.284,1.329,1.329,0,0,0-.593.138,1.822,1.822,0,0,0-.52.382c-.011.076-.023.151-.037.228s-.025.151-.036.227l-1.17,5.867h-2.715l1.073-5.355a2.18,2.18,0,0,0,.028-1.2.644.644,0,0,0-.629-.284,1.263,1.263,0,0,0-.561.134,1.921,1.921,0,0,0-.52.377l-1.268,6.331h-2.714l1.755-8.793h2.552Z" fill="#5c379b"/><path d="M206.342,4.941a3.463,3.463,0,0,1,1.13-.906,3.086,3.086,0,0,1,1.389-.313,1.921,1.921,0,0,1,1.154.345,1.7,1.7,0,0,1,.642,1.036,3.539,3.539,0,0,1,1.166-1.027,3.054,3.054,0,0,1,1.467-.354,1.8,1.8,0,0,1,1.654.9,3.867,3.867,0,0,1,.183,2.7l-1.073,5.355h-2.73L212.4,7.322a2.193,2.193,0,0,0,.029-1.2.629.629,0,0,0-.614-.284,1.329,1.329,0,0,0-.593.138,1.822,1.822,0,0,0-.52.382c-.011.076-.023.151-.037.228s-.025.151-.036.227l-1.17,5.867H206.74l1.073-5.355a2.18,2.18,0,0,0,.028-1.2.643.643,0,0,0-.629-.284,1.263,1.263,0,0,0-.561.134,1.921,1.921,0,0,0-.52.377l-1.268,6.331h-2.714L203.9,3.884h2.552Z" fill="#5c379b"/><path d="M219.41,12.849a3.154,3.154,0,0,1-2.686-1.228,3.849,3.849,0,0,1-.63-3.047l.049-.309a6.089,6.089,0,0,1,1.5-3.32,3.955,3.955,0,0,1,3.027-1.222A2.837,2.837,0,0,1,223.1,4.8a3.722,3.722,0,0,1,.524,2.9l-.227,1.439H218.8l-.016.041a1.619,1.619,0,0,0,.292,1.125,1.238,1.238,0,0,0,1.041.426,4.5,4.5,0,0,0,1.146-.126,9.882,9.882,0,0,0,1.178-.418l.366,1.674a5.379,5.379,0,0,1-1.508.7,6.352,6.352,0,0,1-1.889.281m.926-7.014a.968.968,0,0,0-.809.423,3.024,3.024,0,0,0-.475,1.13l.024.04h1.935l.04-.211a1.863,1.863,0,0,0-.057-1.04.654.654,0,0,0-.658-.342" fill="#5c379b"/><path d="M229.178,1.7l-.439,2.186h1.341l-.374,1.9h-1.349l-.8,4.031a1.009,1.009,0,0,0,.028.695A.465.465,0,0,0,228,10.7a3.3,3.3,0,0,0,.369-.017c.1-.01.218-.032.37-.064l-.219,2.031c-.3.07-.573.12-.809.15a6.7,6.7,0,0,1-.833.045,2.1,2.1,0,0,1-1.784-.74,2.782,2.782,0,0,1-.247-2.275l.8-4.047h-1.113l.374-1.9h1.121l.439-2.186Z" fill="#5c379b"/><path d="M235.524,6.307l-.967-.008a1.355,1.355,0,0,0-.658.154,1.376,1.376,0,0,0-.48.439l-1.154,5.786h-2.714l1.755-8.793h2.56l-.146,1.121.041.025a2.818,2.818,0,0,1,.808-.971,1.694,1.694,0,0,1,1.012-.337,2.62,2.62,0,0,1,.37.028,2.191,2.191,0,0,1,.329.069Z" fill="#5c379b"/><path d="M238.23,12.678h-2.722l1.755-8.793h2.723ZM240.4,1.845h-2.722L238.043,0h2.723Z" fill="#5c379b"/><path d="M243.765,10.735a.915.915,0,0,0,.727-.3,1.759,1.759,0,0,0,.362-.886h2.47l.017.049a3.561,3.561,0,0,1-1.3,2.377,4.035,4.035,0,0,1-2.613.874,3,3,0,0,1-2.662-1.256,4.3,4.3,0,0,1-.54-3.213l.024-.188a5.775,5.775,0,0,1,1.524-3.258,4.153,4.153,0,0,1,3.084-1.211,2.921,2.921,0,0,1,2.336.943,2.921,2.921,0,0,1,.533,2.544l-.025.04H245.22a2.065,2.065,0,0,0-.053-1.04.614.614,0,0,0-.638-.374,1.151,1.151,0,0,0-1.024.65,4.817,4.817,0,0,0-.544,1.706l-.025.188a4.486,4.486,0,0,0-.028,1.754.781.781,0,0,0,.857.6" fill="#5c379b"/><path d="M259.823,7.615h-4.234L255,10.564h5l-.423,2.113h-7.72L254.224.845h7.736l-.422,2.113h-5.014L256.012,5.5h4.233Z" fill="#5c379b"/><path d="M264.731,5.022a3.808,3.808,0,0,1,1.17-.963,2.938,2.938,0,0,1,1.365-.337,1.831,1.831,0,0,1,1.658.853,3.674,3.674,0,0,1,.187,2.649l-1.089,5.453h-2.714L266.4,7.216a1.522,1.522,0,0,0-.041-1.092.853.853,0,0,0-.747-.29,1.282,1.282,0,0,0-.569.135,1.776,1.776,0,0,0-.5.369l-1.268,6.339h-2.706l1.755-8.793h2.552Z" fill="#5c379b"/><path d="M273.386,10.735a.915.915,0,0,0,.727-.3,1.759,1.759,0,0,0,.362-.886h2.47l.017.049a3.561,3.561,0,0,1-1.3,2.377,4.035,4.035,0,0,1-2.613.874,3,3,0,0,1-2.662-1.256,4.3,4.3,0,0,1-.54-3.213l.024-.188A5.775,5.775,0,0,1,271.4,4.933a4.153,4.153,0,0,1,3.084-1.211,2.921,2.921,0,0,1,2.336.943,2.921,2.921,0,0,1,.533,2.544l-.025.04h-2.486a2.065,2.065,0,0,0-.053-1.04.614.614,0,0,0-.638-.374,1.151,1.151,0,0,0-1.024.65,4.817,4.817,0,0,0-.544,1.706l-.025.188a4.486,4.486,0,0,0-.028,1.754.781.781,0,0,0,.857.6" fill="#5c379b"/><path d="M283.373,6.307l-.967-.008a1.355,1.355,0,0,0-.658.154,1.376,1.376,0,0,0-.48.439l-1.154,5.786H277.4l1.755-8.793h2.56l-.146,1.121.041.025a2.818,2.818,0,0,1,.808-.971,1.694,1.694,0,0,1,1.012-.337,2.619,2.619,0,0,1,.37.028,2.19,2.19,0,0,1,.329.069Z" fill="#5c379b"/><path d="M287.4,8.639l.049.008,2.2-4.762h2.893l-5.242,10.1a6.432,6.432,0,0,1-1.32,1.613,3.061,3.061,0,0,1-2.052.63,2.657,2.657,0,0,1-.549-.049c-.148-.032-.372-.087-.67-.162l.723-1.951.138.036a.511.511,0,0,0,.13.013,1.725,1.725,0,0,0,.89-.2,1.353,1.353,0,0,0,.524-.568l.3-.556L284.4,3.885h2.885Z" fill="#5c379b"/><path d="M299.96,8.631a6.66,6.66,0,0,1-1.382,3.165,3.2,3.2,0,0,1-2.495,1.053,2.39,2.39,0,0,1-1-.207,2.026,2.026,0,0,1-.76-.606l-.8,4.023H290.8l2.43-12.174h2.543l-.073.739a3.238,3.238,0,0,1,.89-.666,2.216,2.216,0,0,1,1-.235A2.242,2.242,0,0,1,299.7,5.088a5.141,5.141,0,0,1,.292,3.372Zm-2.674-.171a5.62,5.62,0,0,0,.114-1.922c-.082-.469-.325-.7-.732-.7a1.2,1.2,0,0,0-.686.224,2.258,2.258,0,0,0-.6.622l-.747,3.746a.73.73,0,0,0,.378.235,2.257,2.257,0,0,0,.629.073,1.2,1.2,0,0,0,1-.54,4.011,4.011,0,0,0,.609-1.564Z" fill="#5c379b"/><path d="M305.648,1.7l-.439,2.186h1.341l-.374,1.9h-1.349l-.8,4.031a1.009,1.009,0,0,0,.028.695.465.465,0,0,0,.419.191,3.3,3.3,0,0,0,.369-.017c.1-.01.218-.032.37-.064l-.219,2.031c-.3.07-.573.12-.809.15a6.7,6.7,0,0,1-.833.045,2.1,2.1,0,0,1-1.784-.74,2.782,2.782,0,0,1-.247-2.275l.8-4.047h-1.113l.374-1.9H302.5l.439-2.186Z" fill="#5c379b"/><path d="M308.858,12.678h-2.722l1.755-8.793h2.723Zm2.17-10.833h-2.722L308.671,0h2.723Z" fill="#5c379b"/><path d="M310.939,8.2a5.689,5.689,0,0,1,1.552-3.267,4.29,4.29,0,0,1,3.145-1.21,3.074,3.074,0,0,1,2.7,1.258,4.269,4.269,0,0,1,.573,3.219l-.024.171a5.717,5.717,0,0,1-1.56,3.271,4.278,4.278,0,0,1-3.129,1.207,3.1,3.1,0,0,1-2.714-1.256,4.229,4.229,0,0,1-.569-3.222Zm2.69.171a4.082,4.082,0,0,0-.012,1.759.843.843,0,0,0,.914.6A1.211,1.211,0,0,0,315.6,10.1a4.75,4.75,0,0,0,.577-1.727L316.2,8.2a4.213,4.213,0,0,0,0-1.743.827.827,0,0,0-.894-.622,1.23,1.23,0,0,0-1.081.654,4.567,4.567,0,0,0-.569,1.711Z" fill="#5c379b"/><path d="M323.34,5.022a3.808,3.808,0,0,1,1.17-.963,2.938,2.938,0,0,1,1.365-.337,1.831,1.831,0,0,1,1.658.853,3.674,3.674,0,0,1,.187,2.649l-1.089,5.453h-2.714l1.089-5.461a1.522,1.522,0,0,0-.041-1.092.853.853,0,0,0-.747-.29,1.282,1.282,0,0,0-.569.135,1.777,1.777,0,0,0-.5.369l-1.268,6.339h-2.706l1.755-8.793h2.552Z" fill="#5c379b"/><path d="M117.5,37.987h-4.234l-.585,2.949h5l-.423,2.113h-7.72L111.9,31.217h7.736l-.422,2.113H114.2l-.512,2.544h4.233Z" fill="#4d4d4d"/><path d="M122.407,35.394a3.808,3.808,0,0,1,1.17-.963,2.938,2.938,0,0,1,1.365-.337,1.831,1.831,0,0,1,1.658.853,3.674,3.674,0,0,1,.187,2.649L125.7,43.049h-2.714l1.089-5.461a1.522,1.522,0,0,0-.041-1.092.853.853,0,0,0-.747-.29,1.282,1.282,0,0,0-.569.135,1.776,1.776,0,0,0-.5.369l-1.268,6.339h-2.706l1.755-8.793h2.552Z" fill="#4d4d4d"/><path d="M131.062,41.107a.915.915,0,0,0,.727-.3,1.759,1.759,0,0,0,.362-.886h2.47l.017.049a3.561,3.561,0,0,1-1.3,2.377,4.035,4.035,0,0,1-2.613.874,3,3,0,0,1-2.662-1.256,4.3,4.3,0,0,1-.54-3.213l.024-.188a5.775,5.775,0,0,1,1.524-3.258,4.153,4.153,0,0,1,3.084-1.211,2.718,2.718,0,0,1,2.869,3.487l-.025.04h-2.486a2.065,2.065,0,0,0-.053-1.04.614.614,0,0,0-.638-.374,1.152,1.152,0,0,0-1.024.65,4.817,4.817,0,0,0-.544,1.706l-.025.188a4.486,4.486,0,0,0-.028,1.754.781.781,0,0,0,.857.6" fill="#4d4d4d"/><path d="M141.049,36.679l-.967-.008a1.355,1.355,0,0,0-.658.154,1.376,1.376,0,0,0-.48.439L137.79,43.05h-2.714l1.755-8.793h2.56l-.146,1.121.041.025a2.818,2.818,0,0,1,.808-.971,1.7,1.7,0,0,1,1.012-.337,2.619,2.619,0,0,1,.37.028,2.19,2.19,0,0,1,.329.069Z" fill="#4d4d4d"/><path d="M145.08,39.011l.049.008,2.2-4.762h2.893l-5.242,10.1a6.432,6.432,0,0,1-1.32,1.613,3.061,3.061,0,0,1-2.052.63,2.657,2.657,0,0,1-.549-.049c-.148-.032-.372-.087-.67-.162l.723-1.951.138.036a.511.511,0,0,0,.13.013,1.725,1.725,0,0,0,.89-.2,1.354,1.354,0,0,0,.524-.568l.3-.556-1.024-8.907h2.885Z" fill="#4d4d4d"/><path d="M157.636,39a6.66,6.66,0,0,1-1.382,3.165,3.2,3.2,0,0,1-2.495,1.053,2.39,2.39,0,0,1-1-.207,2.026,2.026,0,0,1-.76-.606l-.805,4.023h-2.714l2.43-12.174h2.543l-.073.739a3.238,3.238,0,0,1,.89-.666,2.216,2.216,0,0,1,1-.235,2.242,2.242,0,0,1,2.113,1.365,5.141,5.141,0,0,1,.292,3.372Zm-2.674-.171a5.62,5.62,0,0,0,.114-1.922c-.082-.469-.325-.7-.732-.7a1.2,1.2,0,0,0-.686.224,2.258,2.258,0,0,0-.6.622l-.747,3.746a.73.73,0,0,0,.378.235,2.257,2.257,0,0,0,.629.073,1.2,1.2,0,0,0,1-.54A4.011,4.011,0,0,0,154.929,39Z" fill="#4d4d4d"/><path d="M163.324,32.071l-.439,2.186h1.341l-.374,1.9H162.5l-.8,4.031a1.009,1.009,0,0,0,.028.695.465.465,0,0,0,.419.191,3.3,3.3,0,0,0,.369-.017c.1-.01.218-.032.37-.064l-.219,2.031c-.3.07-.573.12-.809.15a6.7,6.7,0,0,1-.833.045,2.1,2.1,0,0,1-1.784-.74,2.782,2.782,0,0,1-.247-2.275l.8-4.047h-1.113l.374-1.9h1.121l.439-2.186Z" fill="#4d4d4d"/><path d="M166.534,43.05h-2.722l1.755-8.793h2.723Zm2.17-10.833h-2.722l.365-1.845h2.723Z" fill="#4d4d4d"/><path d="M168.614,38.572a5.689,5.689,0,0,1,1.552-3.267,4.29,4.29,0,0,1,3.145-1.21,3.074,3.074,0,0,1,2.7,1.258,4.269,4.269,0,0,1,.573,3.219l-.024.171A5.717,5.717,0,0,1,175,42.014a4.278,4.278,0,0,1-3.129,1.207,3.1,3.1,0,0,1-2.714-1.256,4.229,4.229,0,0,1-.569-3.222Zm2.69.171a4.082,4.082,0,0,0-.012,1.759.843.843,0,0,0,.914.6,1.211,1.211,0,0,0,1.065-.637,4.75,4.75,0,0,0,.577-1.727l.024-.171a4.213,4.213,0,0,0,0-1.743.827.827,0,0,0-.894-.622,1.23,1.23,0,0,0-1.081.654,4.567,4.567,0,0,0-.569,1.711Z" fill="#4d4d4d"/><path d="M181.016,35.394a3.8,3.8,0,0,1,1.17-.963,2.932,2.932,0,0,1,1.364-.337,1.83,1.83,0,0,1,1.658.853A3.669,3.669,0,0,1,185.4,37.6l-1.089,5.453h-2.714l1.089-5.461a1.529,1.529,0,0,0-.04-1.092.856.856,0,0,0-.748-.29,1.285,1.285,0,0,0-.569.135,1.79,1.79,0,0,0-.5.369l-1.268,6.339h-2.706l1.756-8.793h2.551Z" fill="#4d4d4d"/><path d="M6.45,149.633l-.8,4.055H2.923l2.365-11.832H9.831a3.7,3.7,0,0,1,2.856,1.093,3.015,3.015,0,0,1,.671,2.8,4.576,4.576,0,0,1-1.719,2.868,5.417,5.417,0,0,1-3.36,1.016Zm.423-2.113H8.7a1.77,1.77,0,0,0,1.26-.5,2.324,2.324,0,0,0,.683-1.256,1.8,1.8,0,0,0-.138-1.311,1.189,1.189,0,0,0-1.1-.485H7.588Z" fill="#4d4d4d"/><path d="M15.934,153.688H13.212l2.535-12.678H18.47Z" fill="#4d4d4d"/><path d="M22.151,153.68a3.657,3.657,0,0,1-.106-.468A4.016,4.016,0,0,1,22,152.7a3.715,3.715,0,0,1-1.012.849,2.521,2.521,0,0,1-1.255.313,2.133,2.133,0,0,1-1.715-.735,2.156,2.156,0,0,1-.39-1.914,3.047,3.047,0,0,1,1.3-2.061,5.326,5.326,0,0,1,2.922-.67h.845l.13-.626a1.38,1.38,0,0,0-.041-.886.645.645,0,0,0-.617-.276.83.83,0,0,0-.6.228,1.233,1.233,0,0,0-.317.69l-2.624-.008-.017-.049a2.993,2.993,0,0,1,1.337-2.051,4.854,4.854,0,0,1,2.8-.768,3.084,3.084,0,0,1,2.271.824,2.39,2.39,0,0,1,.532,2.313l-.658,3.315a6.909,6.909,0,0,0-.158,1.324,6.139,6.139,0,0,0,.109,1.179Zm-1.195-1.78a1.4,1.4,0,0,0,.618-.15,1.9,1.9,0,0,0,.536-.386l.284-1.422h-.82a1.076,1.076,0,0,0-.813.32,1.531,1.531,0,0,0-.4.8.715.715,0,0,0,.081.618.609.609,0,0,0,.512.219" fill="#4d4d4d"/><path d="M28.62,153.688H25.9l1.755-8.793h2.723Zm2.17-10.833H28.068l.365-1.845h2.723Z" fill="#4d4d4d"/><path d="M34.3,146.033a3.807,3.807,0,0,1,1.17-.963,2.938,2.938,0,0,1,1.365-.337,1.831,1.831,0,0,1,1.658.853,3.674,3.674,0,0,1,.187,2.649l-1.089,5.453H34.877l1.089-5.461a1.522,1.522,0,0,0-.041-1.092.853.853,0,0,0-.747-.29,1.282,1.282,0,0,0-.569.135,1.776,1.776,0,0,0-.5.369l-1.268,6.339H30.131l1.755-8.793h2.552Z" fill="#4d4d4d"/><path d="M48.3,142.71l-.439,2.186H49.2l-.374,1.9H47.481l-.8,4.031a1.009,1.009,0,0,0,.028.695.465.465,0,0,0,.419.191,3.3,3.3,0,0,0,.369-.017c.1-.01.218-.032.37-.064l-.219,2.031c-.3.07-.573.12-.809.15a6.7,6.7,0,0,1-.833.045,2.1,2.1,0,0,1-1.784-.74,2.782,2.782,0,0,1-.247-2.275l.8-4.047H43.662l.374-1.9h1.121l.439-2.186Z" fill="#4d4d4d"/><path d="M52.577,153.86a3.154,3.154,0,0,1-2.686-1.228,3.849,3.849,0,0,1-.63-3.047l.049-.309a6.089,6.089,0,0,1,1.5-3.32,3.955,3.955,0,0,1,3.027-1.222,2.837,2.837,0,0,1,2.426,1.08,3.722,3.722,0,0,1,.524,2.9l-.227,1.439H51.967l-.016.041a1.619,1.619,0,0,0,.292,1.125,1.238,1.238,0,0,0,1.041.426,4.5,4.5,0,0,0,1.146-.126,9.88,9.88,0,0,0,1.178-.418l.366,1.674a5.379,5.379,0,0,1-1.508.7,6.352,6.352,0,0,1-1.889.281m.926-7.014a.968.968,0,0,0-.809.423,3.024,3.024,0,0,0-.475,1.13l.024.04h1.935l.04-.211a1.863,1.863,0,0,0-.057-1.04.654.654,0,0,0-.658-.342" fill="#4d4d4d"/><path d="M61.386,147.471l.049.008,1.333-2.584h3.039l-3.031,4.347,1.7,4.446H61.435l-.528-2.657-.049-.008-1.4,2.665H56.421l3.128-4.446L57.9,144.9h3.023Z" fill="#4d4d4d"/><path d="M70.431,142.71l-.439,2.186h1.341l-.374,1.9H69.61l-.8,4.031a1.009,1.009,0,0,0,.028.695.465.465,0,0,0,.419.191,3.3,3.3,0,0,0,.369-.017c.1-.01.218-.032.37-.064l-.219,2.031c-.3.07-.573.12-.809.15a6.7,6.7,0,0,1-.833.045,2.1,2.1,0,0,1-1.784-.74,2.782,2.782,0,0,1-.247-2.275l.8-4.047H65.791l.374-1.9h1.121l.439-2.186Z" fill="#4d4d4d"/><path d="M25.9,59.586a2.534,2.534,0,0,1,2.008.937,2.57,2.57,0,0,1,.529,2.292l-.282,1.393a4.026,4.026,0,0,1-1.21,2.314,3.2,3.2,0,0,1-2.2.808H21.9l1.548-7.744Zm-.947,1.383-1,4.979H24.9a1.152,1.152,0,0,0,.941-.458,2.953,2.953,0,0,0,.532-1.282l.282-1.4a1.763,1.763,0,0,0-.162-1.338,1.108,1.108,0,0,0-.992-.5Z" fill="#4d4d4d"/><path d="M31.035,67.441a2.064,2.064,0,0,1-1.758-.8,2.515,2.515,0,0,1-.412-1.994l.032-.2a3.979,3.979,0,0,1,.981-2.173,2.591,2.591,0,0,1,1.981-.8,1.86,1.86,0,0,1,1.588.707,2.441,2.441,0,0,1,.343,1.9l-.149.941h-3l-.011.026a1.055,1.055,0,0,0,.192.737.809.809,0,0,0,.68.279,2.936,2.936,0,0,0,.75-.082,6.44,6.44,0,0,0,.772-.274l.239,1.095a3.5,3.5,0,0,1-.987.46,4.133,4.133,0,0,1-1.236.184m.606-4.59a.633.633,0,0,0-.529.276,1.987,1.987,0,0,0-.311.74l.016.027h1.266l.026-.139a1.225,1.225,0,0,0-.037-.68.428.428,0,0,0-.431-.224" fill="#4d4d4d"/><path d="M36.96,67.325a2.585,2.585,0,0,1-.1-.644,2.462,2.462,0,0,1-.662.556,1.654,1.654,0,0,1-.822.2,1.4,1.4,0,0,1-1.122-.481A1.411,1.411,0,0,1,34,65.708a2,2,0,0,1,.849-1.349,3.484,3.484,0,0,1,1.912-.438h.553l.085-.409a.9.9,0,0,0-.027-.581.42.42,0,0,0-.4-.18.546.546,0,0,0-.393.148.81.81,0,0,0-.208.452l-1.718,0-.01-.033a1.952,1.952,0,0,1,.875-1.342,3.175,3.175,0,0,1,1.832-.5,2.015,2.015,0,0,1,1.486.54,1.561,1.561,0,0,1,.349,1.512l-.431,2.171a4.6,4.6,0,0,0-.1.866,4.088,4.088,0,0,0,.072.772Zm-.782-1.165a.908.908,0,0,0,.4-.1,1.194,1.194,0,0,0,.351-.253l.187-.93h-.538a.7.7,0,0,0-.532.21,1.006,1.006,0,0,0-.26.524.47.47,0,0,0,.053.4.4.4,0,0,0,.335.144" fill="#4d4d4d"/><path d="M43.246,63.16l-.633-.005a.883.883,0,0,0-.431.1.9.9,0,0,0-.314.287l-.755,3.787H39.337l1.149-5.755h1.675l-.1.734.027.016a1.855,1.855,0,0,1,.529-.636,1.117,1.117,0,0,1,.662-.22,1.625,1.625,0,0,1,.242.018,1.462,1.462,0,0,1,.216.045Z" fill="#4d4d4d"/><path d="M50.443,59.586h1.771L51.15,64.9a3.041,3.041,0,0,1-1.09,1.9,3.11,3.11,0,0,1-1.952.645,2.28,2.28,0,0,1-1.712-.616,1.854,1.854,0,0,1-.346-1.787l.01-.027H47.8a1.051,1.051,0,0,0,.053.822.633.633,0,0,0,.532.226.832.832,0,0,0,.587-.309,1.685,1.685,0,0,0,.407-.851Z" fill="#4d4d4d"/><path d="M52.039,64.4a3.715,3.715,0,0,1,1.015-2.138,2.811,2.811,0,0,1,2.059-.793,2.013,2.013,0,0,1,1.768.824,2.793,2.793,0,0,1,.375,2.107l-.016.111a3.748,3.748,0,0,1-1.021,2.142,2.8,2.8,0,0,1-2.048.789A2.025,2.025,0,0,1,52.4,66.62a2.766,2.766,0,0,1-.372-2.109Zm1.76.111a2.674,2.674,0,0,0-.008,1.152.552.552,0,0,0,.6.4.791.791,0,0,0,.7-.417,3.081,3.081,0,0,0,.378-1.131l.016-.111a2.755,2.755,0,0,0,0-1.141.542.542,0,0,0-.585-.407.8.8,0,0,0-.708.429,2.977,2.977,0,0,0-.372,1.119Z" fill="#4d4d4d"/><path d="M60.208,62.2a2.254,2.254,0,0,1,.681-.546,1.717,1.717,0,0,1,.782-.188,1.253,1.253,0,0,1,1.157.632,2.783,2.783,0,0,1,.119,1.92l-.659,3.309H60.511l.665-3.319a1.681,1.681,0,0,0,.019-.933.5.5,0,0,0-.492-.227.951.951,0,0,0-.373.073,1.021,1.021,0,0,0-.308.2l-.84,4.2H57.4l1.66-8.3h1.776Z" fill="#4d4d4d"/><path d="M65.915,62.32a2.5,2.5,0,0,1,.766-.631,1.925,1.925,0,0,1,.893-.221,1.2,1.2,0,0,1,1.085.559,2.4,2.4,0,0,1,.123,1.733l-.713,3.57H66.293L67,63.756a1,1,0,0,0-.026-.715.561.561,0,0,0-.49-.19.853.853,0,0,0-.372.088,1.209,1.209,0,0,0-.33.242l-.829,4.149H63.186l1.149-5.755H66Z" fill="#4d4d4d"/><path d="M25.126,73.216l-.287,1.431h.877l-.244,1.244h-.883l-.527,2.638a.666.666,0,0,0,.019.456.3.3,0,0,0,.274.125A2.227,2.227,0,0,0,24.6,79.1c.062-.008.142-.022.242-.043l-.144,1.33c-.2.046-.375.078-.529.1a4.515,4.515,0,0,1-.545.029,1.376,1.376,0,0,1-1.168-.484,1.825,1.825,0,0,1-.162-1.489l.527-2.649h-.729l.245-1.244h.734l.287-1.431Z" fill="#4d4d4d"/><path d="M28.12,75.274a2.254,2.254,0,0,1,.681-.546,1.717,1.717,0,0,1,.782-.188,1.253,1.253,0,0,1,1.157.632,2.783,2.783,0,0,1,.119,1.92L30.2,80.4H28.423l.665-3.319a1.681,1.681,0,0,0,.019-.933.5.5,0,0,0-.492-.227.951.951,0,0,0-.373.073,1.02,1.02,0,0,0-.308.2l-.84,4.2H25.317l1.66-8.3h1.776Z" fill="#4d4d4d"/><path d="M32.987,80.4H31.2l1.149-5.755h1.782Zm1.42-7.09H32.625l.24-1.207h1.781Z" fill="#4d4d4d"/><path d="M37.1,78.784a.412.412,0,0,0-.154-.383,1.867,1.867,0,0,0-.74-.3,2.625,2.625,0,0,1-1.313-.611,1.228,1.228,0,0,1-.3-1.133,1.974,1.974,0,0,1,.8-1.3,2.768,2.768,0,0,1,1.718-.515,2.351,2.351,0,0,1,1.622.518,1.327,1.327,0,0,1,.426,1.323l-.011.031H37.422a.758.758,0,0,0-.059-.522.485.485,0,0,0-.436-.169.645.645,0,0,0-.412.157.612.612,0,0,0-.231.39.408.408,0,0,0,.136.391,1.8,1.8,0,0,0,.752.285,2.708,2.708,0,0,1,1.359.619,1.283,1.283,0,0,1,.285,1.168,1.889,1.889,0,0,1-.851,1.295,3.15,3.15,0,0,1-1.8.487,2.13,2.13,0,0,1-1.622-.6,1.438,1.438,0,0,1-.425-1.324l.01-.033h1.612a.712.712,0,0,0,.106.593.728.728,0,0,0,.554.179.758.758,0,0,0,.478-.144.6.6,0,0,0,.229-.4" fill="#4d4d4d"/><path d="M43.7,80.4H41.917l1.149-5.755h1.782Zm1.42-7.09H43.337l.24-1.207h1.781Z" fill="#4d4d4d"/><path d="M47.815,78.784a.412.412,0,0,0-.154-.383,1.867,1.867,0,0,0-.74-.3,2.625,2.625,0,0,1-1.313-.611,1.228,1.228,0,0,1-.3-1.133,1.974,1.974,0,0,1,.8-1.3,2.769,2.769,0,0,1,1.718-.515,2.351,2.351,0,0,1,1.622.518,1.327,1.327,0,0,1,.426,1.323l-.011.031H48.134a.758.758,0,0,0-.059-.522.485.485,0,0,0-.436-.169.645.645,0,0,0-.412.157.612.612,0,0,0-.231.39.408.408,0,0,0,.136.391,1.8,1.8,0,0,0,.752.285,2.708,2.708,0,0,1,1.359.619,1.283,1.283,0,0,1,.285,1.168,1.889,1.889,0,0,1-.851,1.295,3.15,3.15,0,0,1-1.8.487,2.13,2.13,0,0,1-1.622-.6,1.438,1.438,0,0,1-.425-1.324l.01-.033h1.612a.712.712,0,0,0,.106.593.728.728,0,0,0,.554.179.758.758,0,0,0,.478-.144.6.6,0,0,0,.229-.4" fill="#4d4d4d"/><path d="M55.3,75.338a2.279,2.279,0,0,1,.739-.593,2.036,2.036,0,0,1,.91-.205,1.249,1.249,0,0,1,.755.227,1.109,1.109,0,0,1,.42.677,2.318,2.318,0,0,1,.764-.672,1.994,1.994,0,0,1,.959-.232,1.178,1.178,0,0,1,1.083.588,2.529,2.529,0,0,1,.12,1.769l-.7,3.5H58.564l.7-3.5a1.438,1.438,0,0,0,.018-.788.411.411,0,0,0-.4-.186.871.871,0,0,0-.389.091,1.189,1.189,0,0,0-.34.25c-.007.05-.015.1-.024.148s-.017.1-.024.15L57.341,80.4H55.565l.7-3.5a1.428,1.428,0,0,0,.018-.788.422.422,0,0,0-.412-.186.828.828,0,0,0-.367.088,1.237,1.237,0,0,0-.34.247l-.83,4.143H52.56l1.148-5.754h1.67Z" fill="#4d4d4d"/><path d="M63.931,77.758l.032.006L65.4,74.647H67.3l-3.431,6.611A4.2,4.2,0,0,1,63,82.314a2.006,2.006,0,0,1-1.343.412,1.809,1.809,0,0,1-.359-.031c-.1-.022-.244-.057-.439-.107l.474-1.277.09.024a.382.382,0,0,0,.085.008,1.135,1.135,0,0,0,.582-.131.889.889,0,0,0,.343-.372l.2-.364-.67-5.829h1.888Z" fill="#4d4d4d"/><path d="M22.331,91.968H20.193l-.7,1.5H17.714l3.846-7.744h1.9l.755,7.744H22.432Zm-1.5-1.383H22.24l-.17-2.591-.032-.005Z" fill="#4d4d4d"/><path d="M25.144,94.138h-1.25L28,85.729h1.25Z" fill="#4d4d4d"/><path d="M34.516,90.755l.016.032a3.948,3.948,0,0,1-1.106,2.09,3.028,3.028,0,0,1-2.112.707,2.515,2.515,0,0,1-2.548-3.175l.325-1.617a4.28,4.28,0,0,1,1.178-2.348,3.035,3.035,0,0,1,2.167-.827,2.627,2.627,0,0,1,2.029.766A2.432,2.432,0,0,1,35,88.463l-.011.026H33.25a1.658,1.658,0,0,0-.1-1.117A.938.938,0,0,0,32.277,87a1.093,1.093,0,0,0-.87.492,3.075,3.075,0,0,0-.54,1.289l-.324,1.628a2.125,2.125,0,0,0,.051,1.327.828.828,0,0,0,.821.465,1.128,1.128,0,0,0,.872-.356,2.377,2.377,0,0,0,.5-1.09Z" fill="#4d4d4d"/><path d="M40.069,88.463a2.5,2.5,0,0,1,.766-.631,1.925,1.925,0,0,1,.893-.221,1.2,1.2,0,0,1,1.085.559,2.4,2.4,0,0,1,.123,1.733l-.713,3.57H40.447l.712-3.574a1,1,0,0,0-.026-.715.561.561,0,0,0-.49-.19.853.853,0,0,0-.372.088,1.209,1.209,0,0,0-.33.242l-.829,4.149H37.34l1.149-5.755h1.67Z" fill="#4d4d4d"/><path d="M46.424,93.473l.021-.617a2.2,2.2,0,0,1-.726.545,2.069,2.069,0,0,1-.875.183A1.3,1.3,0,0,1,43.679,93a2.388,2.388,0,0,1-.143-1.77l.7-3.511h1.771l-.7,3.522a1.261,1.261,0,0,0,0,.739.406.406,0,0,0,.4.223,1.186,1.186,0,0,0,.431-.078,1.139,1.139,0,0,0,.372-.231l.83-4.175h1.777l-1.149,5.755Z" fill="#4d4d4d"/><path d="M51.642,88.409a2.279,2.279,0,0,1,.739-.593,2.036,2.036,0,0,1,.91-.205,1.249,1.249,0,0,1,.755.227,1.109,1.109,0,0,1,.42.677,2.318,2.318,0,0,1,.764-.672,1.994,1.994,0,0,1,.959-.232,1.178,1.178,0,0,1,1.083.588,2.529,2.529,0,0,1,.12,1.769l-.7,3.5H54.9l.7-3.5a1.438,1.438,0,0,0,.018-.788.411.411,0,0,0-.4-.186.871.871,0,0,0-.389.091,1.189,1.189,0,0,0-.34.25c-.007.05-.015.1-.024.148s-.017.1-.024.15l-.766,3.839H51.9l.7-3.5a1.428,1.428,0,0,0,.018-.788.422.422,0,0,0-.412-.186.828.828,0,0,0-.367.088,1.237,1.237,0,0,0-.34.247l-.83,4.143H48.9l1.148-5.754h1.67Z" fill="#4d4d4d"/><path d="M63.194,90.824a4.488,4.488,0,0,1-.888,2.082,2.092,2.092,0,0,1-1.649.678,1.537,1.537,0,0,1-.739-.175,1.382,1.382,0,0,1-.527-.506l-.207.57H57.641l1.66-8.3h1.776l-.59,2.946a2,2,0,0,1,.545-.378,1.535,1.535,0,0,1,2.016.753,3.444,3.444,0,0,1,.167,2.215Zm-1.75-.112a4.3,4.3,0,0,0,.106-1.284.46.46,0,0,0-.516-.434.783.783,0,0,0-.446.144,1.4,1.4,0,0,0-.383.4l-.5,2.457a.46.46,0,0,0,.245.159,1.414,1.414,0,0,0,.409.048.777.777,0,0,0,.679-.338,2.861,2.861,0,0,0,.38-1.039Z" fill="#4d4d4d"/><path d="M65.955,93.584a2.064,2.064,0,0,1-1.758-.8,2.515,2.515,0,0,1-.412-1.994l.032-.2a3.979,3.979,0,0,1,.981-2.173,2.591,2.591,0,0,1,1.981-.8,1.86,1.86,0,0,1,1.588.707,2.441,2.441,0,0,1,.343,1.9l-.149.941h-3l-.011.026a1.055,1.055,0,0,0,.192.737.809.809,0,0,0,.68.279,2.936,2.936,0,0,0,.75-.082,6.44,6.44,0,0,0,.772-.274l.239,1.1a3.5,3.5,0,0,1-.987.46,4.133,4.133,0,0,1-1.236.184m.606-4.59a.633.633,0,0,0-.529.276,1.987,1.987,0,0,0-.311.74l.016.027H67l.026-.139a1.225,1.225,0,0,0-.037-.68.428.428,0,0,0-.431-.224" fill="#4d4d4d"/><path d="M72.741,89.3l-.633-.005a.883.883,0,0,0-.431.1.9.9,0,0,0-.314.287l-.755,3.787H68.832l1.149-5.755h1.675l-.1.734.027.016a1.855,1.855,0,0,1,.529-.636,1.117,1.117,0,0,1,.662-.22,1.625,1.625,0,0,1,.242.018,1.461,1.461,0,0,1,.216.045Z" fill="#4d4d4d"/><path d="M21.812,100.183a9.43,9.43,0,0,0-1.877,2.551,16.771,16.771,0,0,0-1.032,3.06l-.2.75H16.929l.192-.75a13.508,13.508,0,0,1,1.146-3.079,10.455,10.455,0,0,1,1.843-2.532H16.573L16.8,98.8h5.239Z" fill="#4d4d4d"/><path d="M24.051,105.272a1.144,1.144,0,0,0,.833-.39,1.94,1.94,0,0,0,.492-1.062l.042-.276a1.9,1.9,0,0,1-.609.433,1.66,1.66,0,0,1-.678.147,1.547,1.547,0,0,1-1.409-.724,2.759,2.759,0,0,1-.261-1.946,3.38,3.38,0,0,1,1.021-1.981,2.763,2.763,0,0,1,1.963-.785,1.907,1.907,0,0,1,1.654.854,3.093,3.093,0,0,1,.362,2.316l-.293,1.84a3.465,3.465,0,0,1-1.157,2.176,3.277,3.277,0,0,1-2.178.781,3.377,3.377,0,0,1-.747-.09,3.518,3.518,0,0,1-.726-.245l.383-1.281a3.688,3.688,0,0,0,.625.178,3.786,3.786,0,0,0,.683.055m.681-2.441a1.087,1.087,0,0,0,.468-.1,1.319,1.319,0,0,0,.394-.279l.133-.813a2.485,2.485,0,0,0-.024-1.178.5.5,0,0,0-.482-.386.771.771,0,0,0-.619.425,2.435,2.435,0,0,0-.365.958,2.234,2.234,0,0,0,.014,1.019.47.47,0,0,0,.481.358" fill="#4d4d4d"/><path d="M33.705,100.183a9.43,9.43,0,0,0-1.877,2.551,16.771,16.771,0,0,0-1.032,3.06l-.2.75H28.822l.192-.75a13.509,13.509,0,0,1,1.146-3.079A10.455,10.455,0,0,1,32,100.183H28.466l.223-1.383h5.239Z" fill="#4d4d4d"/><path d="M38.572,103.517h.686l-.282,1.383H38.29l-.325,1.643H36.189l.324-1.643H33.774l.117-1.1,3.84-4.976.006-.027h1.776Zm-3.048,0h1.271l.468-2.329-.032-.017-.138.17Z" fill="#4d4d4d"/><path d="M41.709,102.406l.011-.043.069-.441h.8a.926.926,0,0,0,.67-.263,1.278,1.278,0,0,0,.351-.721.858.858,0,0,0-.1-.625.6.6,0,0,0-.54-.242.894.894,0,0,0-.547.2.779.779,0,0,0-.314.521H40.385l-.006-.032a2.1,2.1,0,0,1,.918-1.518,3.114,3.114,0,0,1,1.827-.556,2.573,2.573,0,0,1,1.787.582,1.7,1.7,0,0,1,.479,1.63,2.015,2.015,0,0,1-.463.992,2.575,2.575,0,0,1-.931.689,1.64,1.64,0,0,1,.787.7,1.684,1.684,0,0,1,.16,1.1,2.444,2.444,0,0,1-1.032,1.694,3.54,3.54,0,0,1-2.064.587,2.533,2.533,0,0,1-1.678-.574,1.619,1.619,0,0,1-.492-1.654l.016-.032h1.739a.754.754,0,0,0,.141.633.688.688,0,0,0,.556.244.982.982,0,0,0,.686-.268,1.125,1.125,0,0,0,.357-.667,1.055,1.055,0,0,0-.115-.833.835.835,0,0,0-.678-.247h-.8Z" fill="#4d4d4d"/><path d="M47.836,105.272a1.144,1.144,0,0,0,.833-.39,1.94,1.94,0,0,0,.492-1.062l.042-.276a1.9,1.9,0,0,1-.609.433,1.66,1.66,0,0,1-.678.147,1.547,1.547,0,0,1-1.409-.724,2.759,2.759,0,0,1-.261-1.946,3.38,3.38,0,0,1,1.021-1.981,2.763,2.763,0,0,1,1.963-.785,1.907,1.907,0,0,1,1.654.854,3.093,3.093,0,0,1,.362,2.316l-.293,1.84a3.465,3.465,0,0,1-1.157,2.176,3.277,3.277,0,0,1-2.178.781,3.377,3.377,0,0,1-.747-.09,3.518,3.518,0,0,1-.726-.245l.383-1.281a3.688,3.688,0,0,0,.625.178,3.786,3.786,0,0,0,.683.055m.681-2.441a1.087,1.087,0,0,0,.468-.1,1.319,1.319,0,0,0,.394-.279l.133-.813a2.485,2.485,0,0,0-.024-1.178.5.5,0,0,0-.482-.386.771.771,0,0,0-.619.425,2.435,2.435,0,0,0-.365.958,2.234,2.234,0,0,0,.014,1.019.47.47,0,0,0,.481.358" fill="#4d4d4d"/><path d="M56.495,106.544H51.4l.186-1.17,2.734-2.617a6.5,6.5,0,0,0,.776-.968,2.128,2.128,0,0,0,.319-.739,1.094,1.094,0,0,0-.074-.721.572.572,0,0,0-.543-.258.728.728,0,0,0-.585.346,1.988,1.988,0,0,0-.34.872H52.139l-.011-.032a2.967,2.967,0,0,1,.95-1.843,2.774,2.774,0,0,1,1.938-.725,2.3,2.3,0,0,1,1.761.632,1.928,1.928,0,0,1,.425,1.713,2.717,2.717,0,0,1-.553,1.3,21.476,21.476,0,0,1-1.595,1.67l-1.075,1.122.016.032h2.723Z" fill="#4d4d4d"/><path d="M63.308,100.869a2.374,2.374,0,0,1-.481,1.056,2.471,2.471,0,0,1-.9.684,1.713,1.713,0,0,1,.7.747,1.668,1.668,0,0,1,.111,1.055,2.565,2.565,0,0,1-1.016,1.7,3.336,3.336,0,0,1-1.946.544,2.333,2.333,0,0,1-1.678-.589,1.684,1.684,0,0,1-.407-1.655,2.372,2.372,0,0,1,.537-1.125,2.733,2.733,0,0,1,1.016-.725,1.557,1.557,0,0,1-.625-.7,1.6,1.6,0,0,1-.083-.987,2.524,2.524,0,0,1,.969-1.643,3.085,3.085,0,0,1,1.85-.537,2.114,2.114,0,0,1,1.58.579,1.685,1.685,0,0,1,.367,1.6m-2.3,3.4a1.065,1.065,0,0,0-.056-.747.542.542,0,0,0-.5-.248.812.812,0,0,0-.591.269,1.357,1.357,0,0,0-.351.726,1.05,1.05,0,0,0,.045.75.544.544,0,0,0,.508.255.8.8,0,0,0,.585-.271,1.438,1.438,0,0,0,.362-.734m.516-3.3a1.126,1.126,0,0,0-.021-.67.415.415,0,0,0-.415-.224.631.631,0,0,0-.49.24,1.378,1.378,0,0,0-.287.654,1.165,1.165,0,0,0,.011.691.409.409,0,0,0,.415.234.618.618,0,0,0,.489-.25,1.544,1.544,0,0,0,.3-.675" fill="#4d4d4d"/><path d="M65.494,102.406l.011-.043.069-.441h.8a.926.926,0,0,0,.67-.263,1.278,1.278,0,0,0,.351-.721.858.858,0,0,0-.1-.625.6.6,0,0,0-.54-.242.894.894,0,0,0-.547.2.779.779,0,0,0-.314.521H64.17l-.006-.032a2.1,2.1,0,0,1,.918-1.518,3.114,3.114,0,0,1,1.827-.556,2.573,2.573,0,0,1,1.787.582,1.7,1.7,0,0,1,.479,1.63,2.015,2.015,0,0,1-.463.992,2.575,2.575,0,0,1-.931.689,1.64,1.64,0,0,1,.787.7,1.684,1.684,0,0,1,.16,1.1,2.444,2.444,0,0,1-1.032,1.694,3.54,3.54,0,0,1-2.064.587,2.533,2.533,0,0,1-1.678-.574,1.619,1.619,0,0,1-.492-1.654l.016-.032h1.739a.754.754,0,0,0,.141.633.688.688,0,0,0,.556.244A.982.982,0,0,0,66.6,105a1.125,1.125,0,0,0,.357-.667,1.056,1.056,0,0,0-.115-.833.835.835,0,0,0-.678-.247h-.8Z" fill="#4d4d4d"/><path d="M74.823,103.485a4.352,4.352,0,0,1-1.154,2.423,2.866,2.866,0,0,1-2,.747,1.874,1.874,0,0,1-1.654-.814,3.052,3.052,0,0,1-.25-2.356l.324-1.627a4.353,4.353,0,0,1,1.146-2.42,2.867,2.867,0,0,1,2.013-.75,1.867,1.867,0,0,1,1.649.817,3.062,3.062,0,0,1,.256,2.353Zm-1.42-1.75a2.966,2.966,0,0,0,.067-1.3.439.439,0,0,0-.492-.327l-.032-.006a.718.718,0,0,0-.615.37,3.356,3.356,0,0,0-.449,1.263L71.51,103.6a2.982,2.982,0,0,0-.078,1.319.437.437,0,0,0,.5.319l.032.006a.7.7,0,0,0,.609-.364,3.505,3.505,0,0,0,.46-1.28Z" fill="#4d4d4d"/><path d="M434.135,59.586a2.534,2.534,0,0,1,2.008.937,2.57,2.57,0,0,1,.529,2.292l-.281,1.393a4.033,4.033,0,0,1-1.211,2.314,3.2,3.2,0,0,1-2.2.808h-2.847l1.549-7.744Zm-.946,1.383-1,4.979h.942a1.152,1.152,0,0,0,.941-.458,2.93,2.93,0,0,0,.532-1.282l.283-1.4a1.763,1.763,0,0,0-.163-1.338,1.106,1.106,0,0,0-.992-.5Z" fill="#4d4d4d"/><path d="M439.273,67.441a2.064,2.064,0,0,1-1.758-.8,2.515,2.515,0,0,1-.412-1.994l.032-.2a3.979,3.979,0,0,1,.981-2.173,2.591,2.591,0,0,1,1.981-.8,1.86,1.86,0,0,1,1.588.707,2.441,2.441,0,0,1,.343,1.9l-.149.941h-3.005l-.011.026a1.055,1.055,0,0,0,.192.737.809.809,0,0,0,.68.279,2.936,2.936,0,0,0,.75-.082,6.437,6.437,0,0,0,.772-.274L441.5,66.8a3.5,3.5,0,0,1-.987.46,4.133,4.133,0,0,1-1.236.184m.606-4.59a.633.633,0,0,0-.529.276,1.987,1.987,0,0,0-.311.74l.016.027h1.266l.026-.139a1.225,1.225,0,0,0-.037-.68.428.428,0,0,0-.431-.224" fill="#4d4d4d"/><path d="M445.2,67.325a2.586,2.586,0,0,1-.1-.644,2.461,2.461,0,0,1-.662.556,1.654,1.654,0,0,1-.822.2,1.4,1.4,0,0,1-1.122-.481,1.411,1.411,0,0,1-.256-1.252,2,2,0,0,1,.849-1.349A3.483,3.483,0,0,1,445,63.921h.553l.085-.409a.9.9,0,0,0-.027-.581.42.42,0,0,0-.4-.18.546.546,0,0,0-.393.148.81.81,0,0,0-.208.452l-1.718,0-.01-.033a1.952,1.952,0,0,1,.875-1.342,3.175,3.175,0,0,1,1.832-.5,2.014,2.014,0,0,1,1.486.54,1.56,1.56,0,0,1,.349,1.512l-.431,2.171a4.6,4.6,0,0,0-.1.866,4.088,4.088,0,0,0,.072.772Zm-.782-1.165a.908.908,0,0,0,.4-.1,1.194,1.194,0,0,0,.351-.253l.187-.93h-.538a.7.7,0,0,0-.532.21,1.006,1.006,0,0,0-.26.524.47.47,0,0,0,.053.4.4.4,0,0,0,.335.144" fill="#4d4d4d"/><path d="M451.485,63.16l-.633-.005a.883.883,0,0,0-.431.1.9.9,0,0,0-.314.287l-.755,3.787h-1.776l1.149-5.755H450.4l-.1.734.027.016a1.855,1.855,0,0,1,.529-.636,1.117,1.117,0,0,1,.662-.22,1.626,1.626,0,0,1,.242.018,1.462,1.462,0,0,1,.216.045Z" fill="#4d4d4d"/><path d="M458.681,59.586h1.771L459.388,64.9a3.041,3.041,0,0,1-1.09,1.9,3.11,3.11,0,0,1-1.952.645,2.28,2.28,0,0,1-1.712-.616,1.854,1.854,0,0,1-.346-1.787l.01-.027h1.74a1.051,1.051,0,0,0,.053.822.633.633,0,0,0,.532.226.832.832,0,0,0,.587-.309,1.685,1.685,0,0,0,.407-.851Z" fill="#4d4d4d"/><path d="M460.277,64.4a3.715,3.715,0,0,1,1.015-2.138,2.811,2.811,0,0,1,2.059-.793,2.013,2.013,0,0,1,1.768.824,2.793,2.793,0,0,1,.375,2.107l-.016.111a3.748,3.748,0,0,1-1.021,2.142,2.8,2.8,0,0,1-2.048.789,2.025,2.025,0,0,1-1.776-.822,2.766,2.766,0,0,1-.372-2.109Zm1.76.111a2.674,2.674,0,0,0-.008,1.152.552.552,0,0,0,.6.4.791.791,0,0,0,.7-.417,3.081,3.081,0,0,0,.378-1.131l.016-.111a2.755,2.755,0,0,0,0-1.141.542.542,0,0,0-.585-.407.8.8,0,0,0-.708.429,2.977,2.977,0,0,0-.372,1.119Z" fill="#4d4d4d"/><path d="M468.446,62.2a2.253,2.253,0,0,1,.681-.546,1.716,1.716,0,0,1,.782-.188,1.253,1.253,0,0,1,1.157.632,2.783,2.783,0,0,1,.119,1.92l-.659,3.309h-1.777l.665-3.319a1.681,1.681,0,0,0,.019-.933.5.5,0,0,0-.492-.227.951.951,0,0,0-.373.073,1.02,1.02,0,0,0-.308.2l-.84,4.2h-1.777l1.66-8.3h1.776Z" fill="#4d4d4d"/><path d="M474.153,62.32a2.5,2.5,0,0,1,.766-.631,1.925,1.925,0,0,1,.893-.221,1.2,1.2,0,0,1,1.085.559,2.4,2.4,0,0,1,.123,1.733l-.713,3.57h-1.776l.712-3.574a1,1,0,0,0-.026-.715.561.561,0,0,0-.49-.19.853.853,0,0,0-.372.088,1.209,1.209,0,0,0-.33.242L473.2,67.33h-1.772l1.149-5.755h1.67Z" fill="#4d4d4d"/><path d="M433.364,73.216l-.287,1.431h.877l-.244,1.244h-.883l-.527,2.638a.666.666,0,0,0,.019.456.3.3,0,0,0,.274.125,2.227,2.227,0,0,0,.242-.011c.062-.008.142-.022.242-.043l-.144,1.33c-.2.046-.375.078-.529.1a4.514,4.514,0,0,1-.545.029,1.376,1.376,0,0,1-1.168-.484,1.824,1.824,0,0,1-.162-1.489l.527-2.649h-.729l.245-1.244h.734l.287-1.431Z" fill="#4d4d4d"/><path d="M436.358,75.274a2.253,2.253,0,0,1,.681-.546,1.717,1.717,0,0,1,.782-.188,1.253,1.253,0,0,1,1.157.632,2.783,2.783,0,0,1,.119,1.92l-.659,3.309h-1.777l.665-3.319a1.68,1.68,0,0,0,.019-.933.5.5,0,0,0-.492-.227.95.95,0,0,0-.373.073,1.021,1.021,0,0,0-.308.2l-.84,4.2h-1.777l1.66-8.3h1.776Z" fill="#4d4d4d"/><path d="M441.225,80.4h-1.782l1.149-5.755h1.782Zm1.42-7.09h-1.782l.24-1.207h1.781Z" fill="#4d4d4d"/><path d="M445.342,78.784a.412.412,0,0,0-.154-.383,1.867,1.867,0,0,0-.74-.3,2.625,2.625,0,0,1-1.313-.611,1.228,1.228,0,0,1-.3-1.133,1.974,1.974,0,0,1,.8-1.3,2.768,2.768,0,0,1,1.718-.515,2.351,2.351,0,0,1,1.622.518,1.328,1.328,0,0,1,.426,1.323l-.011.031h-1.734a.758.758,0,0,0-.059-.522.485.485,0,0,0-.436-.169.645.645,0,0,0-.412.157.612.612,0,0,0-.231.39.408.408,0,0,0,.136.391,1.8,1.8,0,0,0,.752.285,2.708,2.708,0,0,1,1.359.619,1.283,1.283,0,0,1,.285,1.168,1.889,1.889,0,0,1-.851,1.295,3.15,3.15,0,0,1-1.8.487,2.13,2.13,0,0,1-1.622-.6,1.438,1.438,0,0,1-.425-1.324l.01-.033h1.612a.712.712,0,0,0,.106.593.728.728,0,0,0,.554.179.758.758,0,0,0,.478-.144.6.6,0,0,0,.229-.4" fill="#4d4d4d"/><path d="M451.937,80.4h-1.782l1.149-5.755h1.782Zm1.42-7.09h-1.782l.24-1.207H453.6Z" fill="#4d4d4d"/><path d="M456.054,78.784a.412.412,0,0,0-.154-.383,1.867,1.867,0,0,0-.74-.3,2.625,2.625,0,0,1-1.313-.611,1.228,1.228,0,0,1-.3-1.133,1.974,1.974,0,0,1,.8-1.3,2.769,2.769,0,0,1,1.718-.515,2.351,2.351,0,0,1,1.622.518,1.327,1.327,0,0,1,.426,1.323l-.011.031h-1.734a.758.758,0,0,0-.059-.522.485.485,0,0,0-.436-.169.645.645,0,0,0-.412.157.612.612,0,0,0-.231.39.408.408,0,0,0,.136.391,1.8,1.8,0,0,0,.752.285,2.708,2.708,0,0,1,1.359.619,1.283,1.283,0,0,1,.285,1.168,1.889,1.889,0,0,1-.851,1.295,3.15,3.15,0,0,1-1.8.487,2.13,2.13,0,0,1-1.622-.6,1.438,1.438,0,0,1-.425-1.324l.01-.033h1.612a.712.712,0,0,0,.106.593.728.728,0,0,0,.554.179.758.758,0,0,0,.478-.144.6.6,0,0,0,.229-.4" fill="#4d4d4d"/><path d="M463.542,75.338a2.279,2.279,0,0,1,.739-.593,2.036,2.036,0,0,1,.91-.205,1.249,1.249,0,0,1,.755.227,1.109,1.109,0,0,1,.42.677,2.318,2.318,0,0,1,.764-.672,1.994,1.994,0,0,1,.959-.232,1.178,1.178,0,0,1,1.083.588,2.529,2.529,0,0,1,.12,1.769l-.7,3.5H466.8l.7-3.5a1.438,1.438,0,0,0,.018-.788.411.411,0,0,0-.4-.186.871.871,0,0,0-.389.091,1.189,1.189,0,0,0-.34.25c-.007.05-.015.1-.024.148s-.017.1-.024.15l-.766,3.839H463.8l.7-3.5a1.428,1.428,0,0,0,.018-.788.422.422,0,0,0-.412-.186.828.828,0,0,0-.367.088,1.238,1.238,0,0,0-.34.247l-.83,4.143H460.8l1.148-5.754h1.67Z" fill="#4d4d4d"/><path d="M472.169,77.758l.032.006,1.441-3.117h1.894l-3.431,6.611a4.2,4.2,0,0,1-.864,1.056,2.006,2.006,0,0,1-1.343.412,1.809,1.809,0,0,1-.359-.031c-.1-.022-.244-.057-.439-.107l.474-1.277.09.024a.382.382,0,0,0,.085.008,1.135,1.135,0,0,0,.582-.131.889.889,0,0,0,.343-.372l.2-.364-.67-5.829h1.888Z" fill="#4d4d4d"/><path d="M430.569,91.968h-2.138l-.7,1.5h-1.782l3.846-7.744h1.9l.755,7.744H430.67Zm-1.5-1.383h1.409l-.17-2.591-.032-.005Z" fill="#4d4d4d"/><path d="M433.383,94.138h-1.25l4.1-8.409h1.25Z" fill="#4d4d4d"/><path d="M442.754,90.755l.016.032a3.948,3.948,0,0,1-1.106,2.09,3.028,3.028,0,0,1-2.112.707A2.515,2.515,0,0,1,437,90.409l.325-1.617a4.28,4.28,0,0,1,1.178-2.348,3.035,3.035,0,0,1,2.167-.827,2.627,2.627,0,0,1,2.029.766,2.432,2.432,0,0,1,.535,2.08l-.011.026h-1.739a1.658,1.658,0,0,0-.1-1.117.938.938,0,0,0-.877-.372,1.093,1.093,0,0,0-.87.492,3.075,3.075,0,0,0-.54,1.289l-.324,1.628a2.125,2.125,0,0,0,.051,1.327.828.828,0,0,0,.821.465,1.128,1.128,0,0,0,.872-.356,2.377,2.377,0,0,0,.5-1.09Z" fill="#4d4d4d"/><path d="M448.307,88.463a2.5,2.5,0,0,1,.766-.631,1.925,1.925,0,0,1,.893-.221,1.2,1.2,0,0,1,1.085.559,2.4,2.4,0,0,1,.123,1.733l-.713,3.57h-1.776L449.4,89.9a1,1,0,0,0-.026-.715.561.561,0,0,0-.49-.19.853.853,0,0,0-.372.088,1.209,1.209,0,0,0-.33.242l-.829,4.149h-1.772l1.149-5.755h1.67Z" fill="#4d4d4d"/><path d="M454.663,93.473l.021-.617a2.2,2.2,0,0,1-.726.545,2.069,2.069,0,0,1-.875.183A1.3,1.3,0,0,1,451.918,93a2.388,2.388,0,0,1-.143-1.77l.7-3.511h1.771l-.7,3.522a1.262,1.262,0,0,0,0,.739.406.406,0,0,0,.4.223,1.186,1.186,0,0,0,.431-.078,1.139,1.139,0,0,0,.372-.231l.83-4.175h1.777l-1.149,5.755Z" fill="#4d4d4d"/><path d="M459.88,88.409a2.279,2.279,0,0,1,.739-.593,2.036,2.036,0,0,1,.91-.205,1.249,1.249,0,0,1,.755.227,1.109,1.109,0,0,1,.42.677,2.318,2.318,0,0,1,.764-.672,1.994,1.994,0,0,1,.959-.232,1.178,1.178,0,0,1,1.083.588,2.529,2.529,0,0,1,.12,1.769l-.7,3.5H463.14l.7-3.5a1.438,1.438,0,0,0,.018-.788.411.411,0,0,0-.4-.186.871.871,0,0,0-.389.091,1.189,1.189,0,0,0-.34.25c-.007.05-.015.1-.024.148s-.017.1-.024.15l-.766,3.839h-1.776l.7-3.5a1.428,1.428,0,0,0,.018-.788.422.422,0,0,0-.412-.186.828.828,0,0,0-.367.088,1.237,1.237,0,0,0-.34.247l-.83,4.143h-1.776l1.148-5.754h1.67Z" fill="#4d4d4d"/><path d="M471.433,90.824a4.489,4.489,0,0,1-.888,2.082,2.092,2.092,0,0,1-1.649.678,1.537,1.537,0,0,1-.739-.175,1.382,1.382,0,0,1-.527-.506l-.207.57H465.88l1.66-8.3h1.776l-.59,2.946a2,2,0,0,1,.545-.378,1.535,1.535,0,0,1,2.016.753,3.444,3.444,0,0,1,.167,2.215Zm-1.75-.112a4.3,4.3,0,0,0,.106-1.284.46.46,0,0,0-.516-.434.783.783,0,0,0-.446.144,1.4,1.4,0,0,0-.383.4l-.495,2.457a.46.46,0,0,0,.245.159,1.414,1.414,0,0,0,.409.048.777.777,0,0,0,.679-.338,2.861,2.861,0,0,0,.38-1.039Z" fill="#4d4d4d"/><path d="M474.193,93.584a2.064,2.064,0,0,1-1.758-.8,2.515,2.515,0,0,1-.412-1.994l.032-.2a3.979,3.979,0,0,1,.981-2.173,2.591,2.591,0,0,1,1.981-.8,1.86,1.86,0,0,1,1.588.707,2.441,2.441,0,0,1,.343,1.9l-.149.941h-3.005l-.011.026a1.055,1.055,0,0,0,.192.737.809.809,0,0,0,.68.279,2.936,2.936,0,0,0,.75-.082,6.439,6.439,0,0,0,.772-.274l.239,1.1a3.5,3.5,0,0,1-.987.46,4.133,4.133,0,0,1-1.236.184m.606-4.59a.633.633,0,0,0-.529.276,1.987,1.987,0,0,0-.311.74l.016.027h1.266l.026-.139a1.225,1.225,0,0,0-.037-.68.428.428,0,0,0-.431-.224" fill="#4d4d4d"/><path d="M480.98,89.3l-.633-.005a.883.883,0,0,0-.431.1.9.9,0,0,0-.314.287l-.755,3.787h-1.776l1.149-5.755h1.675l-.1.734.027.016a1.855,1.855,0,0,1,.529-.636,1.117,1.117,0,0,1,.662-.22,1.625,1.625,0,0,1,.242.018,1.461,1.461,0,0,1,.216.045Z" fill="#4d4d4d"/><path d="M430.051,100.183a9.43,9.43,0,0,0-1.877,2.551,16.769,16.769,0,0,0-1.032,3.06l-.2.75h-1.777l.192-.75a13.508,13.508,0,0,1,1.146-3.079,10.455,10.455,0,0,1,1.843-2.532h-3.537l.223-1.383h5.239Z" fill="#4d4d4d"/><path d="M432.289,105.272a1.144,1.144,0,0,0,.833-.39,1.94,1.94,0,0,0,.492-1.062l.042-.276a1.9,1.9,0,0,1-.609.433,1.66,1.66,0,0,1-.678.147,1.547,1.547,0,0,1-1.409-.724,2.759,2.759,0,0,1-.261-1.946,3.38,3.38,0,0,1,1.021-1.981,2.763,2.763,0,0,1,1.963-.785,1.907,1.907,0,0,1,1.654.854,3.093,3.093,0,0,1,.362,2.316l-.293,1.84a3.465,3.465,0,0,1-1.157,2.176,3.277,3.277,0,0,1-2.178.781,3.377,3.377,0,0,1-.747-.09,3.518,3.518,0,0,1-.726-.245l.383-1.281a3.688,3.688,0,0,0,.625.178,3.786,3.786,0,0,0,.683.055m.681-2.441a1.087,1.087,0,0,0,.468-.1,1.319,1.319,0,0,0,.394-.279l.133-.813a2.485,2.485,0,0,0-.024-1.178.5.5,0,0,0-.482-.386.771.771,0,0,0-.619.425,2.435,2.435,0,0,0-.365.958,2.234,2.234,0,0,0,.014,1.019.47.47,0,0,0,.481.358" fill="#4d4d4d"/><path d="M441.943,100.183a9.43,9.43,0,0,0-1.877,2.551,16.769,16.769,0,0,0-1.032,3.06l-.2.75H437.06l.192-.75a13.508,13.508,0,0,1,1.146-3.079,10.455,10.455,0,0,1,1.843-2.532H436.7l.223-1.383h5.239Z" fill="#4d4d4d"/><path d="M446.81,103.517h.686l-.282,1.383h-.686l-.325,1.643h-1.776l.324-1.643h-2.739l.117-1.1,3.84-4.976.006-.027h1.776Zm-3.048,0h1.271l.468-2.329-.032-.017-.138.17Z" fill="#4d4d4d"/><path d="M449.948,102.406l.011-.043.069-.441h.8a.927.927,0,0,0,.67-.263,1.278,1.278,0,0,0,.351-.721.858.858,0,0,0-.1-.625.6.6,0,0,0-.54-.242.894.894,0,0,0-.547.2.779.779,0,0,0-.314.521h-1.723l-.006-.032a2.1,2.1,0,0,1,.918-1.518,3.114,3.114,0,0,1,1.827-.556,2.573,2.573,0,0,1,1.787.582,1.7,1.7,0,0,1,.479,1.63,2.015,2.015,0,0,1-.463.992,2.575,2.575,0,0,1-.931.689,1.64,1.64,0,0,1,.787.7,1.684,1.684,0,0,1,.16,1.1,2.444,2.444,0,0,1-1.032,1.694,3.54,3.54,0,0,1-2.064.587,2.533,2.533,0,0,1-1.678-.574,1.619,1.619,0,0,1-.492-1.654l.016-.032h1.739a.754.754,0,0,0,.141.633.688.688,0,0,0,.556.244.982.982,0,0,0,.686-.268,1.125,1.125,0,0,0,.357-.667,1.055,1.055,0,0,0-.115-.833.835.835,0,0,0-.678-.247h-.8Z" fill="#4d4d4d"/><path d="M456.075,105.272a1.144,1.144,0,0,0,.833-.39,1.94,1.94,0,0,0,.492-1.062l.042-.276a1.9,1.9,0,0,1-.609.433,1.661,1.661,0,0,1-.678.147,1.547,1.547,0,0,1-1.409-.724,2.76,2.76,0,0,1-.261-1.946,3.38,3.38,0,0,1,1.021-1.981,2.763,2.763,0,0,1,1.963-.785,1.907,1.907,0,0,1,1.654.854,3.093,3.093,0,0,1,.362,2.316l-.293,1.84a3.465,3.465,0,0,1-1.157,2.176,3.277,3.277,0,0,1-2.178.781,3.377,3.377,0,0,1-.747-.09,3.518,3.518,0,0,1-.726-.245l.383-1.281a3.688,3.688,0,0,0,.625.178,3.786,3.786,0,0,0,.683.055m.681-2.441a1.087,1.087,0,0,0,.468-.1,1.319,1.319,0,0,0,.394-.279l.133-.813a2.484,2.484,0,0,0-.024-1.178.5.5,0,0,0-.482-.386.771.771,0,0,0-.619.425,2.435,2.435,0,0,0-.365.958,2.235,2.235,0,0,0,.014,1.019.47.47,0,0,0,.481.358" fill="#4d4d4d"/><path d="M464.734,106.544h-5.1l.186-1.17,2.734-2.617a6.5,6.5,0,0,0,.776-.968,2.128,2.128,0,0,0,.319-.739,1.094,1.094,0,0,0-.074-.721.572.572,0,0,0-.543-.258.728.728,0,0,0-.585.346,1.988,1.988,0,0,0-.34.872h-1.734l-.011-.032a2.967,2.967,0,0,1,.95-1.843,2.774,2.774,0,0,1,1.938-.725,2.3,2.3,0,0,1,1.761.632,1.928,1.928,0,0,1,.425,1.713,2.717,2.717,0,0,1-.553,1.3,21.474,21.474,0,0,1-1.6,1.67l-1.075,1.122.016.032h2.723Z" fill="#4d4d4d"/><path d="M471.547,100.869a2.375,2.375,0,0,1-.481,1.056,2.471,2.471,0,0,1-.9.684,1.713,1.713,0,0,1,.7.747,1.668,1.668,0,0,1,.111,1.055,2.565,2.565,0,0,1-1.016,1.7,3.336,3.336,0,0,1-1.946.544,2.333,2.333,0,0,1-1.678-.589,1.684,1.684,0,0,1-.407-1.655,2.372,2.372,0,0,1,.537-1.125,2.733,2.733,0,0,1,1.016-.725,1.557,1.557,0,0,1-.625-.7,1.6,1.6,0,0,1-.083-.987,2.524,2.524,0,0,1,.969-1.643,3.085,3.085,0,0,1,1.85-.537,2.114,2.114,0,0,1,1.58.579,1.685,1.685,0,0,1,.367,1.6m-2.3,3.4a1.065,1.065,0,0,0-.056-.747.542.542,0,0,0-.5-.248.812.812,0,0,0-.591.269,1.357,1.357,0,0,0-.351.726,1.05,1.05,0,0,0,.045.75.544.544,0,0,0,.508.255.8.8,0,0,0,.585-.271,1.438,1.438,0,0,0,.362-.734m.516-3.3a1.126,1.126,0,0,0-.021-.67.415.415,0,0,0-.415-.224.631.631,0,0,0-.49.24,1.378,1.378,0,0,0-.287.654,1.165,1.165,0,0,0,.011.691.409.409,0,0,0,.415.234.618.618,0,0,0,.489-.25,1.543,1.543,0,0,0,.3-.675" fill="#4d4d4d"/><path d="M473.733,102.406l.011-.043.069-.441h.8a.927.927,0,0,0,.67-.263,1.278,1.278,0,0,0,.351-.721.858.858,0,0,0-.1-.625.6.6,0,0,0-.54-.242.894.894,0,0,0-.547.2.779.779,0,0,0-.314.521h-1.723l-.006-.032a2.1,2.1,0,0,1,.918-1.518,3.114,3.114,0,0,1,1.827-.556,2.573,2.573,0,0,1,1.787.582,1.7,1.7,0,0,1,.479,1.63,2.015,2.015,0,0,1-.463.992,2.575,2.575,0,0,1-.931.689,1.64,1.64,0,0,1,.787.7,1.684,1.684,0,0,1,.16,1.1,2.444,2.444,0,0,1-1.032,1.694,3.54,3.54,0,0,1-2.064.587,2.533,2.533,0,0,1-1.678-.574,1.619,1.619,0,0,1-.492-1.654l.016-.032h1.739a.754.754,0,0,0,.141.633.688.688,0,0,0,.556.244.982.982,0,0,0,.686-.268,1.125,1.125,0,0,0,.357-.667,1.056,1.056,0,0,0-.115-.833.835.835,0,0,0-.678-.247h-.8Z" fill="#4d4d4d"/><path d="M483.062,103.485a4.352,4.352,0,0,1-1.154,2.423,2.866,2.866,0,0,1-2,.747,1.874,1.874,0,0,1-1.654-.814,3.052,3.052,0,0,1-.25-2.356l.324-1.627a4.353,4.353,0,0,1,1.146-2.42,2.867,2.867,0,0,1,2.013-.75,1.867,1.867,0,0,1,1.649.817,3.063,3.063,0,0,1,.256,2.353Zm-1.42-1.75a2.967,2.967,0,0,0,.067-1.3.439.439,0,0,0-.492-.327l-.032-.006a.718.718,0,0,0-.615.37,3.356,3.356,0,0,0-.449,1.263l-.372,1.862a2.983,2.983,0,0,0-.078,1.319.437.437,0,0,0,.5.319l.032.006a.7.7,0,0,0,.609-.364,3.506,3.506,0,0,0,.46-1.28Z" fill="#4d4d4d"/><path d="M231.209,66.262a4.253,4.253,0,0,1-1.242.827,4.348,4.348,0,0,1-1.832.354,2.352,2.352,0,0,1-1.96-.9,2.669,2.669,0,0,1-.428-2.279l.324-1.617a4,4,0,0,1,1.274-2.335,3.391,3.391,0,0,1,2.284-.84,2.394,2.394,0,0,1,1.92.707,2.322,2.322,0,0,1,.463,1.878l-.011.026h-1.675a1.515,1.515,0,0,0-.165-.92.83.83,0,0,0-.75-.308,1.3,1.3,0,0,0-.96.5,2.636,2.636,0,0,0-.609,1.276l-.324,1.628a2.092,2.092,0,0,0,.056,1.327.849.849,0,0,0,.837.465,2.451,2.451,0,0,0,.67-.079,1.388,1.388,0,0,0,.447-.213l.245-1.224H228.72l.239-1.191h2.835Z" fill="#4d4d4d"/><path d="M235.214,67.331l.021-.617a2.2,2.2,0,0,1-.726.545,2.069,2.069,0,0,1-.875.183,1.3,1.3,0,0,1-1.165-.585,2.388,2.388,0,0,1-.143-1.77l.7-3.511H234.8l-.7,3.522a1.262,1.262,0,0,0,0,.739.406.406,0,0,0,.4.223,1.186,1.186,0,0,0,.431-.078,1.139,1.139,0,0,0,.372-.231l.83-4.175h1.777l-1.149,5.755Z" fill="#4d4d4d"/><path d="M240.974,67.331l.021-.617a2.2,2.2,0,0,1-.726.545,2.069,2.069,0,0,1-.875.183,1.3,1.3,0,0,1-1.165-.585,2.388,2.388,0,0,1-.143-1.77l.7-3.511h1.771l-.7,3.522a1.262,1.262,0,0,0,0,.739.406.406,0,0,0,.4.223,1.186,1.186,0,0,0,.431-.078,1.139,1.139,0,0,0,.372-.231l.83-4.175h1.777l-1.149,5.755Z" fill="#4d4d4d"/><path d="M245.3,67.331h-1.782l1.149-5.755h1.782Zm1.42-7.09h-1.782l.24-1.207h1.781Z" fill="#4d4d4d"/><path d="M249.069,62.2a2.253,2.253,0,0,1,.681-.546,1.717,1.717,0,0,1,.782-.188,1.253,1.253,0,0,1,1.157.632,2.783,2.783,0,0,1,.119,1.92l-.659,3.309h-1.777l.665-3.319a1.681,1.681,0,0,0,.019-.933.5.5,0,0,0-.492-.227.951.951,0,0,0-.373.073,1.021,1.021,0,0,0-.308.2l-.84,4.2h-1.777l1.66-8.3H249.7Z" fill="#4d4d4d"/><path d="M253.935,67.331h-1.782l1.149-5.755h1.782Zm1.42-7.09h-1.782l.24-1.207h1.781Z" fill="#4d4d4d"/><path d="M255.308,67.331l.9-4.511h-.755l.244-1.244h.761l.122-.6a2.466,2.466,0,0,1,.865-1.555,2.753,2.753,0,0,1,1.72-.5,2.551,2.551,0,0,1,.386.032c.136.022.281.048.433.08l-.393,1.324c-.086-.017-.163-.031-.232-.04a2.211,2.211,0,0,0-.252-.013.71.71,0,0,0-.482.178.838.838,0,0,0-.263.5l-.122.6h1.01l-.244,1.244h-1.016l-.9,4.511Z" fill="#4d4d4d"/><path d="M261.472,62.2a2.254,2.254,0,0,1,.681-.546,1.716,1.716,0,0,1,.782-.188,1.253,1.253,0,0,1,1.157.632,2.783,2.783,0,0,1,.119,1.92l-.659,3.309h-1.777l.665-3.319a1.681,1.681,0,0,0,.019-.933.5.5,0,0,0-.492-.227.951.951,0,0,0-.373.073,1.02,1.02,0,0,0-.308.2l-.84,4.2h-1.777l1.66-8.3h1.776Z" fill="#4d4d4d"/><path d="M264.823,64.4a3.715,3.715,0,0,1,1.015-2.138,2.811,2.811,0,0,1,2.059-.793,2.013,2.013,0,0,1,1.768.824,2.793,2.793,0,0,1,.375,2.107l-.016.111A3.748,3.748,0,0,1,269,66.654a2.8,2.8,0,0,1-2.048.789,2.025,2.025,0,0,1-1.776-.822,2.766,2.766,0,0,1-.372-2.109Zm1.76.111a2.673,2.673,0,0,0-.008,1.152.552.552,0,0,0,.6.4.791.791,0,0,0,.7-.417,3.08,3.08,0,0,0,.378-1.131l.016-.111a2.755,2.755,0,0,0,0-1.141.542.542,0,0,0-.585-.407.8.8,0,0,0-.708.429A2.978,2.978,0,0,0,266.6,64.4Z" fill="#4d4d4d"/><path d="M270.594,67.331l.9-4.511h-.755l.244-1.244h.761l.123-.6a2.473,2.473,0,0,1,.863-1.555,2.76,2.76,0,0,1,1.721-.5,2.551,2.551,0,0,1,.386.032c.136.022.281.048.433.08l-.394,1.324c-.085-.017-.162-.031-.231-.04a2.211,2.211,0,0,0-.252-.013.71.71,0,0,0-.482.178.838.838,0,0,0-.263.5l-.121.6h1.009l-.244,1.244h-1.015l-.9,4.511Z" fill="#4d4d4d"/><path d="M276.7,62.321a2.5,2.5,0,0,1,.766-.631,1.925,1.925,0,0,1,.893-.221,1.2,1.2,0,0,1,1.085.559,2.4,2.4,0,0,1,.123,1.733l-.713,3.57h-1.776l.712-3.574a1,1,0,0,0-.026-.715.561.561,0,0,0-.49-.19.853.853,0,0,0-.372.088,1.209,1.209,0,0,0-.33.242l-.829,4.149h-1.772l1.149-5.755h1.67Z" fill="#4d4d4d"/><path d="M230.743,78.115h-.229l-.457,2.287H228.28l1.66-8.3h1.776l-.931,4.654h.192l1.468-2.112h1.994l.016.027-2.116,2.558,1.255,3.17h-2.021Z" fill="#4d4d4d"/><path d="M239.477,77.753a4.488,4.488,0,0,1-.888,2.082,2.092,2.092,0,0,1-1.649.678,1.537,1.537,0,0,1-.739-.175,1.382,1.382,0,0,1-.527-.506l-.207.57h-1.543l1.66-8.3h1.776l-.59,2.946a2,2,0,0,1,.545-.378,1.535,1.535,0,0,1,2.016.753,3.444,3.444,0,0,1,.167,2.215Zm-1.75-.112a4.3,4.3,0,0,0,.106-1.284.46.46,0,0,0-.516-.434.783.783,0,0,0-.446.144,1.4,1.4,0,0,0-.383.4l-.5,2.457a.46.46,0,0,0,.245.159,1.414,1.414,0,0,0,.409.048.777.777,0,0,0,.679-.338,2.861,2.861,0,0,0,.38-1.039Z" fill="#4d4d4d"/><path d="M241.54,80.4h-1.782l1.149-5.755h1.782Zm1.42-7.09h-1.782l.24-1.207H243.2Z" fill="#4d4d4d"/><path d="M242.913,80.4l.9-4.511h-.754l.243-1.244h.761l.123-.6a2.47,2.47,0,0,1,.864-1.555,2.755,2.755,0,0,1,1.72-.5,2.54,2.54,0,0,1,.386.032c.136.022.282.048.433.08l-.394,1.324c-.084-.017-.162-.031-.231-.04a2.21,2.21,0,0,0-.252-.013.706.706,0,0,0-.481.178.839.839,0,0,0-.264.5l-.121.6h1.01l-.245,1.244h-1.015l-.9,4.511Z" fill="#4d4d4d"/><path d="M248.79,78.115h-.229L248.1,80.4h-1.777l1.66-8.3h1.776l-.931,4.654h.192l1.468-2.112h1.994l.016.027-2.116,2.558,1.255,3.17H249.62Z" fill="#4d4d4d"/><path d="M252.321,80.4l.9-4.511h-.755l.244-1.244h.761l.122-.6a2.47,2.47,0,0,1,.864-1.555,2.758,2.758,0,0,1,1.721-.5,2.551,2.551,0,0,1,.386.032c.136.022.281.048.433.08l-.393,1.324c-.086-.017-.163-.031-.232-.04a2.21,2.21,0,0,0-.252-.013.71.71,0,0,0-.482.178.838.838,0,0,0-.263.5l-.122.6h1.01l-.244,1.244H255l-.9,4.511Z" fill="#4d4d4d"/><path d="M258.432,75.392a2.5,2.5,0,0,1,.766-.631,1.925,1.925,0,0,1,.893-.221,1.2,1.2,0,0,1,1.085.559,2.4,2.4,0,0,1,.123,1.733l-.713,3.57H258.81l.712-3.574a1,1,0,0,0-.026-.715.561.561,0,0,0-.49-.19.853.853,0,0,0-.372.088,1.209,1.209,0,0,0-.33.242l-.829,4.149H255.7l1.149-5.755h1.67Z" fill="#4d4d4d"/><path d="M264.193,75.392a2.5,2.5,0,0,1,.766-.631,1.925,1.925,0,0,1,.893-.221,1.2,1.2,0,0,1,1.085.559,2.4,2.4,0,0,1,.123,1.733l-.713,3.57h-1.776l.712-3.574a1,1,0,0,0-.026-.715.561.561,0,0,0-.49-.19.853.853,0,0,0-.372.088,1.209,1.209,0,0,0-.33.242l-.829,4.149h-1.772l1.149-5.755h1.67Z" fill="#4d4d4d"/><path d="M267.607,80.4l.9-4.511h-.755l.244-1.244h.761l.122-.6a2.47,2.47,0,0,1,.864-1.555,2.758,2.758,0,0,1,1.721-.5,2.551,2.551,0,0,1,.386.032c.136.022.281.048.433.08l-.394,1.324c-.085-.017-.162-.031-.231-.04a2.21,2.21,0,0,0-.252-.013.71.71,0,0,0-.482.178.838.838,0,0,0-.263.5l-.122.6h1.01l-.244,1.244h-1.016l-.9,4.511Z" fill="#4d4d4d"/><path d="M273.484,78.115h-.229L272.8,80.4h-1.777l1.66-8.3h1.776l-.931,4.654h.192l1.468-2.112h1.994l.016.027-2.116,2.558,1.255,3.17h-2.021Z" fill="#4d4d4d"/><path d="M236.533,93.474h-1.776l-1.532-4.755-.032,0-.952,4.75h-1.782l1.548-7.744h1.782l1.531,4.755.032,0,.952-4.75h1.777Z" fill="#4d4d4d"/><path d="M240.032,91.186H239.8l-.457,2.287h-1.777l1.66-8.3h1.776l-.931,4.654h.192l1.468-2.112h1.994l.016.027L241.628,90.3l1.255,3.17h-2.021Z" fill="#4d4d4d"/><path d="M245.069,93.474h-1.782l1.66-8.3h1.781Z" fill="#4d4d4d"/><path d="M248.691,92.2a.6.6,0,0,0,.476-.2,1.162,1.162,0,0,0,.237-.58h1.617l.01.032a2.332,2.332,0,0,1-.848,1.556,2.645,2.645,0,0,1-1.71.571,1.964,1.964,0,0,1-1.742-.821,2.819,2.819,0,0,1-.354-2.1l.016-.122a3.779,3.779,0,0,1,1-2.133,2.717,2.717,0,0,1,2.018-.793,1.779,1.779,0,0,1,1.878,2.282l-.016.027h-1.628a1.341,1.341,0,0,0-.035-.681.4.4,0,0,0-.417-.245.753.753,0,0,0-.67.426,3.131,3.131,0,0,0-.356,1.117l-.016.122a2.942,2.942,0,0,0-.019,1.148.512.512,0,0,0,.561.394" fill="#4d4d4d"/><path d="M253.175,93.474h-1.782l1.149-5.755h1.782Zm1.42-7.09h-1.782l.24-1.207h1.781Z" fill="#4d4d4d"/><path d="M256.946,88.41a2.278,2.278,0,0,1,.739-.593,2.036,2.036,0,0,1,.91-.205,1.249,1.249,0,0,1,.755.227,1.109,1.109,0,0,1,.42.677,2.318,2.318,0,0,1,.764-.672,1.994,1.994,0,0,1,.959-.232,1.178,1.178,0,0,1,1.083.588,2.529,2.529,0,0,1,.12,1.769l-.7,3.5h-1.787l.7-3.5a1.438,1.438,0,0,0,.018-.788.411.411,0,0,0-.4-.186.871.871,0,0,0-.389.091,1.189,1.189,0,0,0-.34.25c-.007.05-.015.1-.024.148s-.017.1-.024.15l-.766,3.839h-1.776l.7-3.5a1.428,1.428,0,0,0,.018-.788.422.422,0,0,0-.412-.186.828.828,0,0,0-.367.088,1.237,1.237,0,0,0-.34.247l-.83,4.143H254.2l1.148-5.754h1.67Z" fill="#4d4d4d"/><path d="M264.8,93.474H263.02l1.149-5.755h1.782Zm1.42-7.09H264.44l.24-1.207h1.781Z" fill="#4d4d4d"/><path d="M268.573,88.41a2.265,2.265,0,0,1,.738-.593,2.039,2.039,0,0,1,.91-.205,1.252,1.252,0,0,1,.756.227,1.108,1.108,0,0,1,.419.677,2.318,2.318,0,0,1,.764-.672,2,2,0,0,1,.96-.232,1.178,1.178,0,0,1,1.082.588,2.528,2.528,0,0,1,.121,1.769l-.7,3.5h-1.788l.7-3.5a1.428,1.428,0,0,0,.018-.788.411.411,0,0,0-.4-.186.871.871,0,0,0-.389.091,1.189,1.189,0,0,0-.34.25c-.006.05-.014.1-.023.148s-.017.1-.025.15l-.766,3.839h-1.776l.7-3.5a1.418,1.418,0,0,0,.018-.788.422.422,0,0,0-.412-.186.824.824,0,0,0-.366.088,1.209,1.209,0,0,0-.34.247l-.831,4.143h-1.776l1.149-5.754h1.669Z" fill="#4d4d4d"/><path d="M232.971,104.365h-.718l-.766,2.18H230.45l.766-2.18h-1.085l.2-.974h1.229l.494-1.4h-1.074l.2-.973H232.4l.776-2.213h1.032l-.776,2.213h.723l.782-2.213h1.037l-.782,2.213h1.133l-.2.973h-1.276l-.495,1.4h1.122l-.2.974h-1.271l-.766,2.18h-1.038Zm.346-.974.495-1.4h-.729l-.489,1.4Z" fill="#4d4d4d"/><path d="M241.428,99.766l-.027.116-1.383,0-.521-.67-.792.67-1.362,0,.032-.137,1.777-1.275h.994Z" fill="#4d4d4d"/><path d="M243.79,103.678h-1.755l.3-1.51h1.755Z" fill="#4d4d4d"/><path d="M246.322,102.466a3.964,3.964,0,0,1-.335-.875,2.018,2.018,0,0,1-.027-.812,2.46,2.46,0,0,1,.806-1.523,2.353,2.353,0,0,1,1.6-.566,1.436,1.436,0,0,1,1.2.549,1.621,1.621,0,0,1,.308,1.312,2.393,2.393,0,0,1-.377.978,2.656,2.656,0,0,1-.74.735l-.457.3.926,1.436a3.3,3.3,0,0,0,.343-.625,3.076,3.076,0,0,0,.2-.705h1.245a6.388,6.388,0,0,1-.378,1.394,3.831,3.831,0,0,1-.665,1.085l.9,1.393H248.9l-.277-.426a4.311,4.311,0,0,1-.909.4,3.279,3.279,0,0,1-.942.132,2.085,2.085,0,0,1-1.614-.614,1.773,1.773,0,0,1-.407-1.577,2.05,2.05,0,0,1,.466-1.058,6.34,6.34,0,0,1,1.093-.93Zm.787,2.808a1.858,1.858,0,0,0,.409-.048,2.1,2.1,0,0,0,.426-.144l-1.032-1.59-.016.011a2.337,2.337,0,0,0-.229.406,1.884,1.884,0,0,0-.122.434.908.908,0,0,0,.1.676.53.53,0,0,0,.46.255m.388-4.516a.911.911,0,0,0,.019.412,1.84,1.84,0,0,0,.194.444l.266-.165a1.365,1.365,0,0,0,.422-.372,1.007,1.007,0,0,0,.157-.4.623.623,0,0,0-.071-.426.369.369,0,0,0-.338-.181.557.557,0,0,0-.428.2.9.9,0,0,0-.221.489" fill="#4d4d4d"/><path d="M252.156,103.4a8.556,8.556,0,0,1,1.3-3.548A4.6,4.6,0,0,1,255.5,98.04l.032,0,.176.84a4.484,4.484,0,0,0-1.277,1.617,9.612,9.612,0,0,0-.862,2.883l-.026.17a8.392,8.392,0,0,0-.075,2.917,2.9,2.9,0,0,0,.777,1.583l-.452.846h-.032a2.933,2.933,0,0,1-1.447-1.846,7.161,7.161,0,0,1-.181-3.511Z" fill="#4d4d4d"/><path d="M257.789,103.678h-1.755l.3-1.51h1.755Z" fill="#4d4d4d"/><path d="M261.794,103.545a8.288,8.288,0,0,1-1.34,3.508,4.753,4.753,0,0,1-2.123,1.848l-.031,0-.181-.84a4.67,4.67,0,0,0,1.271-1.62,9.529,9.529,0,0,0,.872-2.88l.027-.17a8.373,8.373,0,0,0,.066-2.912,2.955,2.955,0,0,0-.774-1.588l.458-.846h.032a3.028,3.028,0,0,1,1.513,1.889,6.817,6.817,0,0,1,.236,3.468Z" fill="#4d4d4d"/><path d="M265.958,107.88h-4.489l.266-1.335h4.489Z" fill="#4d4d4d"/><path d="M267.453,103.4a8.556,8.556,0,0,1,1.3-3.548,4.6,4.6,0,0,1,2.042-1.808l.032,0,.176.84a4.484,4.484,0,0,0-1.277,1.617,9.612,9.612,0,0,0-.862,2.883l-.026.17a8.393,8.393,0,0,0-.075,2.917,2.9,2.9,0,0,0,.777,1.583l-.452.846h-.032a2.933,2.933,0,0,1-1.447-1.846,7.161,7.161,0,0,1-.181-3.511Z" fill="#4d4d4d"/><path d="M274.2,107.88h-4.489l.266-1.335h4.489Z" fill="#4d4d4d"/><path d="M215.984,150.127l.024.049a6.034,6.034,0,0,1-1.69,3.193,4.625,4.625,0,0,1-3.226,1.081A3.844,3.844,0,0,1,207.2,149.6l.5-2.471a6.543,6.543,0,0,1,1.8-3.588,4.633,4.633,0,0,1,3.312-1.264,4.019,4.019,0,0,1,3.1,1.17,3.722,3.722,0,0,1,.817,3.178l-.017.041H214.05a2.54,2.54,0,0,0-.146-1.707,1.437,1.437,0,0,0-1.341-.568,1.666,1.666,0,0,0-1.329.751,4.7,4.7,0,0,0-.825,1.97l-.5,2.488a3.249,3.249,0,0,0,.078,2.027,1.268,1.268,0,0,0,1.255.711,1.733,1.733,0,0,0,1.333-.544,3.654,3.654,0,0,0,.764-1.666Z" fill="#4d4d4d"/><path d="M219.235,154.279h-2.722l1.755-8.793h2.723Zm2.17-10.833h-2.722l.365-1.845h2.723Z" fill="#4d4d4d"/><path d="M229.28,150.232A6.66,6.66,0,0,1,227.9,153.4a3.2,3.2,0,0,1-2.495,1.053,2.389,2.389,0,0,1-1-.207,2.026,2.026,0,0,1-.76-.606l-.8,4.023h-2.714l2.43-12.174h2.543l-.073.739a3.238,3.238,0,0,1,.89-.666,2.216,2.216,0,0,1,1-.235,2.242,2.242,0,0,1,2.113,1.365,5.141,5.141,0,0,1,.292,3.372Zm-2.674-.171a5.62,5.62,0,0,0,.114-1.922c-.082-.469-.325-.7-.732-.7a1.2,1.2,0,0,0-.686.224,2.259,2.259,0,0,0-.6.622l-.747,3.746a.73.73,0,0,0,.378.235,2.258,2.258,0,0,0,.629.073,1.2,1.2,0,0,0,1-.54,4.011,4.011,0,0,0,.609-1.564Z" fill="#4d4d4d"/><path d="M233.8,146.445a3.413,3.413,0,0,1,1.039-.833,2.612,2.612,0,0,1,1.195-.288,1.912,1.912,0,0,1,1.767.967,4.246,4.246,0,0,1,.183,2.933l-1.008,5.055H234.26l1.016-5.071a2.562,2.562,0,0,0,.029-1.426.77.77,0,0,0-.752-.346,1.433,1.433,0,0,0-.569.111,1.5,1.5,0,0,0-.471.312l-1.284,6.42h-2.715L232.05,141.6h2.714Z" fill="#4d4d4d"/><path d="M242.3,154.45a3.154,3.154,0,0,1-2.686-1.228,3.849,3.849,0,0,1-.63-3.047l.049-.309a6.089,6.089,0,0,1,1.5-3.32,3.955,3.955,0,0,1,3.027-1.222,2.837,2.837,0,0,1,2.426,1.08,3.722,3.722,0,0,1,.524,2.9l-.227,1.439h-4.592l-.016.041a1.619,1.619,0,0,0,.292,1.125,1.238,1.238,0,0,0,1.041.426,4.5,4.5,0,0,0,1.146-.126,9.883,9.883,0,0,0,1.178-.418l.366,1.674a5.379,5.379,0,0,1-1.508.7,6.352,6.352,0,0,1-1.889.281m.926-7.014a.968.968,0,0,0-.809.423,3.024,3.024,0,0,0-.475,1.13l.024.04H243.9l.04-.211a1.863,1.863,0,0,0-.057-1.04.654.654,0,0,0-.658-.342" fill="#4d4d4d"/><path d="M252.667,147.908l-.967-.008a1.355,1.355,0,0,0-.658.154,1.376,1.376,0,0,0-.48.439l-1.154,5.786h-2.714l1.755-8.793h2.56l-.146,1.121.041.025a2.818,2.818,0,0,1,.808-.971,1.694,1.694,0,0,1,1.012-.337,2.618,2.618,0,0,1,.37.028,2.189,2.189,0,0,1,.329.069Z" fill="#4d4d4d"/><path d="M261.859,143.3l-.439,2.186h1.341l-.374,1.9h-1.349l-.8,4.031a1.009,1.009,0,0,0,.028.695.465.465,0,0,0,.419.191,3.3,3.3,0,0,0,.369-.017c.1-.01.218-.032.37-.064l-.219,2.031c-.3.07-.573.12-.809.15a6.7,6.7,0,0,1-.833.045,2.1,2.1,0,0,1-1.784-.74,2.782,2.782,0,0,1-.247-2.275l.8-4.047h-1.113l.374-1.9h1.121l.439-2.186Z" fill="#4d4d4d"/><path d="M266.133,154.45a3.154,3.154,0,0,1-2.686-1.228,3.849,3.849,0,0,1-.63-3.047l.049-.309a6.089,6.089,0,0,1,1.5-3.32,3.955,3.955,0,0,1,3.027-1.222,2.837,2.837,0,0,1,2.426,1.08,3.722,3.722,0,0,1,.524,2.9l-.227,1.439h-4.592l-.016.041a1.619,1.619,0,0,0,.292,1.125,1.238,1.238,0,0,0,1.041.426,4.5,4.5,0,0,0,1.146-.126,9.884,9.884,0,0,0,1.178-.418l.366,1.674a5.379,5.379,0,0,1-1.508.7,6.352,6.352,0,0,1-1.889.281m.926-7.014a.968.968,0,0,0-.809.423,3.024,3.024,0,0,0-.475,1.13l.024.04h1.935l.04-.211a1.863,1.863,0,0,0-.057-1.04.654.654,0,0,0-.658-.342" fill="#4d4d4d"/><path d="M274.942,148.062l.049.008,1.333-2.584h3.039l-3.031,4.347,1.7,4.446h-3.039l-.528-2.657-.049-.008-1.4,2.665h-3.039l3.128-4.446-1.649-4.347h3.023Z" fill="#4d4d4d"/><path d="M283.987,143.3l-.439,2.186h1.341l-.374,1.9h-1.349l-.8,4.031a1.008,1.008,0,0,0,.028.695.465.465,0,0,0,.419.191,3.3,3.3,0,0,0,.369-.017c.1-.01.218-.032.37-.064l-.219,2.031c-.3.07-.573.12-.809.15a6.7,6.7,0,0,1-.833.045,2.1,2.1,0,0,1-1.784-.74,2.782,2.782,0,0,1-.247-2.275l.8-4.047h-1.113l.374-1.9h1.121l.439-2.186Z" fill="#4d4d4d"/><path d="M415.7,150.224l-.8,4.055h-2.723l2.365-11.832h4.543a3.7,3.7,0,0,1,2.856,1.093,3.015,3.015,0,0,1,.671,2.8,4.576,4.576,0,0,1-1.719,2.868,5.417,5.417,0,0,1-3.36,1.016Zm.423-2.113h1.828a1.77,1.77,0,0,0,1.26-.5,2.324,2.324,0,0,0,.683-1.256,1.8,1.8,0,0,0-.138-1.311,1.189,1.189,0,0,0-1.1-.485h-1.82Z" fill="#4d4d4d"/><path d="M425.188,154.279h-2.722L425,141.6h2.723Z" fill="#4d4d4d"/><path d="M431.4,154.271a3.652,3.652,0,0,1-.106-.468,4.016,4.016,0,0,1-.049-.515,3.715,3.715,0,0,1-1.012.849,2.521,2.521,0,0,1-1.255.313,2.133,2.133,0,0,1-1.715-.735,2.156,2.156,0,0,1-.39-1.914,3.047,3.047,0,0,1,1.3-2.061,5.326,5.326,0,0,1,2.922-.67h.845l.13-.626a1.38,1.38,0,0,0-.041-.886.645.645,0,0,0-.617-.276.83.83,0,0,0-.6.228,1.233,1.233,0,0,0-.317.69l-2.624-.008-.017-.049a2.993,2.993,0,0,1,1.337-2.051,4.854,4.854,0,0,1,2.8-.768,3.084,3.084,0,0,1,2.271.824,2.39,2.39,0,0,1,.532,2.313l-.658,3.315a6.911,6.911,0,0,0-.158,1.324,6.14,6.14,0,0,0,.109,1.179Zm-1.2-1.78a1.4,1.4,0,0,0,.618-.15,1.9,1.9,0,0,0,.536-.386l.284-1.422h-.82a1.076,1.076,0,0,0-.813.32,1.531,1.531,0,0,0-.4.8.715.715,0,0,0,.081.618.609.609,0,0,0,.512.219" fill="#4d4d4d"/><path d="M437.873,154.279h-2.722l1.755-8.793h2.723Zm2.17-10.833h-2.722l.365-1.845h2.723Z" fill="#4d4d4d"/><path d="M443.554,146.624a3.808,3.808,0,0,1,1.17-.963,2.938,2.938,0,0,1,1.365-.337,1.831,1.831,0,0,1,1.658.853,3.674,3.674,0,0,1,.187,2.649l-1.089,5.453h-2.714l1.089-5.461a1.522,1.522,0,0,0-.041-1.092.853.853,0,0,0-.747-.29,1.282,1.282,0,0,0-.569.135,1.776,1.776,0,0,0-.5.369l-1.268,6.339h-2.706l1.755-8.793h2.552Z" fill="#4d4d4d"/><path d="M457.556,143.3l-.439,2.186h1.341l-.374,1.9h-1.349l-.8,4.031a1.008,1.008,0,0,0,.028.695.465.465,0,0,0,.419.191,3.3,3.3,0,0,0,.369-.017c.1-.01.218-.032.37-.064l-.219,2.031c-.3.07-.573.12-.809.15a6.7,6.7,0,0,1-.833.045,2.1,2.1,0,0,1-1.784-.74,2.782,2.782,0,0,1-.247-2.275l.8-4.047h-1.113l.374-1.9h1.121l.439-2.186Z" fill="#4d4d4d"/><path d="M461.831,154.45a3.154,3.154,0,0,1-2.686-1.228,3.849,3.849,0,0,1-.63-3.047l.049-.309a6.089,6.089,0,0,1,1.5-3.32,3.955,3.955,0,0,1,3.027-1.222,2.837,2.837,0,0,1,2.426,1.08,3.722,3.722,0,0,1,.524,2.9l-.227,1.439h-4.592l-.016.041a1.619,1.619,0,0,0,.292,1.125,1.238,1.238,0,0,0,1.041.426,4.5,4.5,0,0,0,1.146-.126,9.884,9.884,0,0,0,1.178-.418l.366,1.674a5.379,5.379,0,0,1-1.508.7,6.352,6.352,0,0,1-1.889.281m.926-7.014a.968.968,0,0,0-.809.423,3.024,3.024,0,0,0-.475,1.13l.024.04h1.935l.04-.211a1.863,1.863,0,0,0-.057-1.04.654.654,0,0,0-.658-.342" fill="#4d4d4d"/><path d="M470.639,148.062l.049.008,1.333-2.584h3.039l-3.031,4.347,1.7,4.446h-3.039l-.528-2.657-.049-.008-1.4,2.665h-3.039l3.128-4.446-1.649-4.347h3.023Z" fill="#4d4d4d"/><path d="M479.684,143.3l-.439,2.186h1.341l-.374,1.9h-1.349l-.8,4.031a1.008,1.008,0,0,0,.028.695.465.465,0,0,0,.419.191,3.3,3.3,0,0,0,.369-.017c.1-.01.218-.032.37-.064l-.219,2.031c-.3.07-.573.12-.809.15a6.7,6.7,0,0,1-.833.045,2.1,2.1,0,0,1-1.784-.74,2.782,2.782,0,0,1-.247-2.275l.8-4.047h-1.113l.374-1.9h1.121l.439-2.186Z" fill="#4d4d4d"/><path d="M325.477,31.218a3.869,3.869,0,0,1,3.067,1.429,3.927,3.927,0,0,1,.809,3.5l-.431,2.129a6.14,6.14,0,0,1-1.849,3.535,4.888,4.888,0,0,1-3.36,1.236h-4.348l2.365-11.832ZM324.03,33.33l-1.52,7.606h1.439a1.761,1.761,0,0,0,1.438-.7,4.519,4.519,0,0,0,.813-1.959l.43-2.145a2.7,2.7,0,0,0-.247-2.044,1.694,1.694,0,0,0-1.516-.76Z" fill="#4d4d4d"/><path d="M333.327,43.221a3.154,3.154,0,0,1-2.686-1.228,3.849,3.849,0,0,1-.63-3.047l.049-.309a6.089,6.089,0,0,1,1.5-3.32,3.955,3.955,0,0,1,3.027-1.222,2.837,2.837,0,0,1,2.426,1.08,3.722,3.722,0,0,1,.524,2.9l-.227,1.439h-4.592l-.016.041a1.619,1.619,0,0,0,.292,1.125,1.238,1.238,0,0,0,1.041.426,4.5,4.5,0,0,0,1.146-.126,9.882,9.882,0,0,0,1.178-.418l.366,1.674a5.379,5.379,0,0,1-1.508.7,6.352,6.352,0,0,1-1.889.281m.926-7.014a.968.968,0,0,0-.809.423,3.024,3.024,0,0,0-.475,1.13l.024.04h1.935l.04-.211a1.863,1.863,0,0,0-.057-1.04.654.654,0,0,0-.658-.342" fill="#4d4d4d"/><path d="M341.7,41.107a.915.915,0,0,0,.727-.3,1.759,1.759,0,0,0,.362-.886h2.47l.017.049a3.561,3.561,0,0,1-1.3,2.377,4.035,4.035,0,0,1-2.613.874,3,3,0,0,1-2.662-1.256,4.3,4.3,0,0,1-.54-3.213l.024-.188a5.775,5.775,0,0,1,1.524-3.258,4.153,4.153,0,0,1,3.084-1.211,2.717,2.717,0,0,1,2.869,3.487l-.025.04h-2.486a2.065,2.065,0,0,0-.053-1.04.614.614,0,0,0-.638-.374,1.151,1.151,0,0,0-1.024.65,4.817,4.817,0,0,0-.544,1.706l-.025.188a4.486,4.486,0,0,0-.028,1.754.781.781,0,0,0,.857.6" fill="#4d4d4d"/><path d="M351.685,36.679l-.967-.008a1.355,1.355,0,0,0-.658.154,1.376,1.376,0,0,0-.48.439l-1.154,5.786h-2.714l1.755-8.793h2.56l-.146,1.121.041.025a2.817,2.817,0,0,1,.808-.971,1.694,1.694,0,0,1,1.012-.337,2.62,2.62,0,0,1,.37.028,2.191,2.191,0,0,1,.329.069Z" fill="#4d4d4d"/><path d="M355.715,39.011l.049.008,2.2-4.762h2.893l-5.242,10.1a6.433,6.433,0,0,1-1.32,1.613,3.061,3.061,0,0,1-2.052.63,2.657,2.657,0,0,1-.549-.049c-.148-.032-.372-.087-.67-.162l.723-1.951.138.036a.511.511,0,0,0,.13.013,1.725,1.725,0,0,0,.89-.2,1.354,1.354,0,0,0,.524-.568l.3-.556-1.024-8.907h2.885Z" fill="#4d4d4d"/><path d="M368.271,39a6.66,6.66,0,0,1-1.382,3.165,3.2,3.2,0,0,1-2.495,1.053,2.39,2.39,0,0,1-1-.207,2.026,2.026,0,0,1-.76-.606l-.805,4.023h-2.714l2.43-12.174h2.543l-.073.739a3.237,3.237,0,0,1,.89-.666,2.216,2.216,0,0,1,1-.235,2.242,2.242,0,0,1,2.113,1.365,5.141,5.141,0,0,1,.292,3.372Zm-2.674-.171a5.62,5.62,0,0,0,.114-1.922c-.082-.469-.325-.7-.732-.7a1.2,1.2,0,0,0-.686.224,2.258,2.258,0,0,0-.6.622l-.747,3.746a.73.73,0,0,0,.378.235,2.257,2.257,0,0,0,.629.073,1.2,1.2,0,0,0,1-.54A4.01,4.01,0,0,0,365.564,39Z" fill="#4d4d4d"/><path d="M373.959,32.071l-.439,2.186h1.341l-.374,1.9h-1.349l-.8,4.031a1.009,1.009,0,0,0,.028.695.465.465,0,0,0,.419.191,3.3,3.3,0,0,0,.369-.017c.1-.01.218-.032.37-.064l-.219,2.031c-.3.07-.573.12-.809.15a6.7,6.7,0,0,1-.833.045,2.1,2.1,0,0,1-1.784-.74,2.782,2.782,0,0,1-.247-2.275l.8-4.047h-1.113l.374-1.9h1.121l.439-2.186Z" fill="#4d4d4d"/><path d="M377.169,43.05h-2.722l1.755-8.793h2.723Zm2.17-10.833h-2.722l.365-1.845H379.7Z" fill="#4d4d4d"/><path d="M379.25,38.572a5.689,5.689,0,0,1,1.552-3.267,4.29,4.29,0,0,1,3.145-1.21,3.074,3.074,0,0,1,2.7,1.258,4.269,4.269,0,0,1,.573,3.219l-.024.171a5.717,5.717,0,0,1-1.56,3.271,4.278,4.278,0,0,1-3.129,1.207,3.1,3.1,0,0,1-2.714-1.256,4.229,4.229,0,0,1-.569-3.222Zm2.69.171a4.082,4.082,0,0,0-.012,1.759.843.843,0,0,0,.914.6,1.211,1.211,0,0,0,1.065-.637,4.75,4.75,0,0,0,.577-1.727l.024-.171a4.213,4.213,0,0,0,0-1.743.827.827,0,0,0-.894-.622,1.23,1.23,0,0,0-1.081.654,4.567,4.567,0,0,0-.569,1.711Z" fill="#4d4d4d"/><path d="M391.651,35.394a3.807,3.807,0,0,1,1.17-.963,2.938,2.938,0,0,1,1.365-.337,1.831,1.831,0,0,1,1.658.853,3.674,3.674,0,0,1,.187,2.649l-1.089,5.453h-2.714l1.089-5.461a1.522,1.522,0,0,0-.041-1.092.853.853,0,0,0-.747-.29,1.282,1.282,0,0,0-.569.135,1.777,1.777,0,0,0-.5.369l-1.268,6.339h-2.706l1.755-8.793h2.552Z" fill="#4d4d4d"/></g></svg>