<svg xmlns="http://www.w3.org/2000/svg" xmlns:xlink="http://www.w3.org/1999/xlink" width="445.86" height="153.148" viewBox="0 0 445.86 153.148"><defs><clipPath id="a"><rect width="445.86" height="153.148" fill="none"/></clipPath></defs><path d="M187.928,12.847h-2.706l.951-4.762h-3.852l-.951,4.762h-2.723l2.365-11.832h2.723l-.992,4.957H186.6l.992-4.957h2.706Z" fill="#5c379b"/><g clip-path="url(#a)"><path d="M194.17,12.839a3.66,3.66,0,0,1-.106-.468,4.016,4.016,0,0,1-.049-.515A3.715,3.715,0,0,1,193,12.7a2.521,2.521,0,0,1-1.255.313,2.133,2.133,0,0,1-1.715-.735,2.156,2.156,0,0,1-.39-1.914,3.047,3.047,0,0,1,1.3-2.061,5.326,5.326,0,0,1,2.922-.67h.845l.13-.626a1.38,1.38,0,0,0-.041-.886.645.645,0,0,0-.617-.276.83.83,0,0,0-.6.228,1.233,1.233,0,0,0-.317.69l-2.624-.008-.017-.049a2.993,2.993,0,0,1,1.337-2.051,4.854,4.854,0,0,1,2.8-.768,3.084,3.084,0,0,1,2.271.824,2.391,2.391,0,0,1,.532,2.313l-.658,3.315a6.909,6.909,0,0,0-.158,1.324,6.138,6.138,0,0,0,.109,1.179Zm-1.195-1.78a1.4,1.4,0,0,0,.618-.15,1.9,1.9,0,0,0,.536-.386l.284-1.422h-.82a1.076,1.076,0,0,0-.813.32,1.531,1.531,0,0,0-.4.8.715.715,0,0,0,.081.618.609.609,0,0,0,.512.219" fill="#5c379b"/><path d="M202.532,10.376a.628.628,0,0,0-.236-.584,2.825,2.825,0,0,0-1.129-.455,4.009,4.009,0,0,1-2.008-.935,1.879,1.879,0,0,1-.455-1.73,3.02,3.02,0,0,1,1.227-1.992,4.221,4.221,0,0,1,2.625-.787,3.587,3.587,0,0,1,2.479.792,2.024,2.024,0,0,1,.65,2.019l-.016.049H203.02a1.154,1.154,0,0,0-.09-.8.743.743,0,0,0-.666-.261.983.983,0,0,0-.63.241.938.938,0,0,0-.354.6.629.629,0,0,0,.208.6,2.756,2.756,0,0,0,1.15.433,4.136,4.136,0,0,1,2.076.948,1.956,1.956,0,0,1,.435,1.784,2.879,2.879,0,0,1-1.3,1.977,4.783,4.783,0,0,1-2.754.746,3.252,3.252,0,0,1-2.479-.919,2.2,2.2,0,0,1-.65-2.024l.016-.049h2.462a1.09,1.09,0,0,0,.163.907,1.113,1.113,0,0,0,.845.272,1.161,1.161,0,0,0,.732-.22.929.929,0,0,0,.349-.61" fill="#5c379b"/><path d="M210.024,5.013a3.429,3.429,0,0,1,1.04-.833,2.612,2.612,0,0,1,1.2-.288,1.912,1.912,0,0,1,1.767.967,4.246,4.246,0,0,1,.183,2.933L213.2,12.847h-2.714L211.5,7.776a2.563,2.563,0,0,0,.029-1.426A.77.77,0,0,0,210.78,6a1.433,1.433,0,0,0-.569.111,1.5,1.5,0,0,0-.471.312l-1.284,6.42h-2.715L208.277.169h2.714Z" fill="#5c379b"/><path d="M219.11,12.847l1.373-6.892h-1.154l.374-1.9h1.162l.187-.91A3.778,3.778,0,0,1,222.373.767,4.209,4.209,0,0,1,225,0a3.78,3.78,0,0,1,.589.049q.312.048.662.121l-.6,2.024c-.13-.027-.248-.047-.354-.061a3.013,3.013,0,0,0-.386-.02,1.081,1.081,0,0,0-.735.272,1.27,1.27,0,0,0-.4.76l-.187.91h1.544l-.374,1.9h-1.552l-1.374,6.892Z" fill="#5c379b"/><path d="M229.357,12.847l.032-.942a3.385,3.385,0,0,1-1.109.833,3.193,3.193,0,0,1-1.337.28,1.979,1.979,0,0,1-1.779-.895,3.657,3.657,0,0,1-.22-2.706l1.073-5.363h2.706l-1.073,5.38a1.938,1.938,0,0,0,0,1.13.621.621,0,0,0,.618.341,1.788,1.788,0,0,0,1.227-.472l1.268-6.379h2.714l-1.755,8.793Z" fill="#5c379b"/><path d="M237.248,5.192a3.808,3.808,0,0,1,1.17-.963,2.939,2.939,0,0,1,1.365-.337,1.831,1.831,0,0,1,1.658.853,3.674,3.674,0,0,1,.187,2.649l-1.089,5.453h-2.714l1.089-5.461a1.522,1.522,0,0,0-.041-1.092.853.853,0,0,0-.747-.29,1.282,1.282,0,0,0-.569.135,1.776,1.776,0,0,0-.5.369l-1.268,6.339h-2.706l1.755-8.793h2.552Z" fill="#5c379b"/><path d="M245.9,10.9a.915.915,0,0,0,.727-.3,1.759,1.759,0,0,0,.362-.886h2.47l.017.049a3.561,3.561,0,0,1-1.3,2.377,4.035,4.035,0,0,1-2.613.874,3,3,0,0,1-2.662-1.256,4.3,4.3,0,0,1-.54-3.213l.024-.188A5.775,5.775,0,0,1,243.916,5.1,4.153,4.153,0,0,1,247,3.892a2.921,2.921,0,0,1,2.336.943,2.921,2.921,0,0,1,.533,2.544l-.025.04h-2.486a2.065,2.065,0,0,0-.053-1.04.614.614,0,0,0-.638-.374,1.151,1.151,0,0,0-1.024.65,4.817,4.817,0,0,0-.544,1.706l-.025.188a4.486,4.486,0,0,0-.028,1.754.781.781,0,0,0,.857.6" fill="#5c379b"/><path d="M255.289,1.869l-.439,2.186h1.341l-.374,1.9h-1.349l-.8,4.031a1.009,1.009,0,0,0,.028.695.465.465,0,0,0,.419.191,3.3,3.3,0,0,0,.369-.017c.1-.01.218-.032.37-.064l-.219,2.031c-.3.07-.573.12-.809.15a6.7,6.7,0,0,1-.833.045,2.1,2.1,0,0,1-1.784-.74A2.782,2.782,0,0,1,250.958,10l.8-4.047h-1.113l.374-1.9h1.121l.439-2.186Z" fill="#5c379b"/><path d="M258.5,12.847h-2.722l1.755-8.793h2.723Zm2.17-10.833h-2.722l.365-1.845h2.723Z" fill="#5c379b"/><path d="M260.579,8.37A5.688,5.688,0,0,1,262.131,5.1a4.29,4.29,0,0,1,3.145-1.21,3.074,3.074,0,0,1,2.7,1.258,4.269,4.269,0,0,1,.573,3.219l-.024.171a5.717,5.717,0,0,1-1.56,3.271,4.278,4.278,0,0,1-3.129,1.207,3.1,3.1,0,0,1-2.714-1.256,4.229,4.229,0,0,1-.569-3.222Zm2.69.171a4.082,4.082,0,0,0-.012,1.759.843.843,0,0,0,.914.6,1.211,1.211,0,0,0,1.065-.637,4.75,4.75,0,0,0,.577-1.727l.024-.171a4.214,4.214,0,0,0,0-1.743.827.827,0,0,0-.894-.622,1.23,1.23,0,0,0-1.081.654,4.567,4.567,0,0,0-.569,1.711Z" fill="#5c379b"/><path d="M272.981,5.192a3.808,3.808,0,0,1,1.17-.963,2.938,2.938,0,0,1,1.365-.337,1.831,1.831,0,0,1,1.658.853,3.674,3.674,0,0,1,.187,2.649l-1.089,5.453h-2.714l1.089-5.461a1.522,1.522,0,0,0-.041-1.092.853.853,0,0,0-.747-.29,1.282,1.282,0,0,0-.569.135,1.776,1.776,0,0,0-.5.369l-1.268,6.339h-2.706l1.755-8.793h2.552Z" fill="#5c379b"/><path d="M192.248,70.087h-2.706l.951-4.762h-3.852l-.951,4.762h-2.723l2.365-11.832h2.723l-.992,4.957h3.852l.992-4.957h2.706Z" fill="#666"/><path d="M198.49,70.079a3.655,3.655,0,0,1-.106-.468,4.014,4.014,0,0,1-.049-.515,3.715,3.715,0,0,1-1.012.849,2.521,2.521,0,0,1-1.255.313,2.133,2.133,0,0,1-1.715-.735,2.156,2.156,0,0,1-.39-1.914,3.047,3.047,0,0,1,1.3-2.061,5.326,5.326,0,0,1,2.922-.67h.845l.13-.626a1.38,1.38,0,0,0-.041-.886.645.645,0,0,0-.617-.276.83.83,0,0,0-.6.228,1.233,1.233,0,0,0-.317.69L194.955,64l-.017-.049a2.993,2.993,0,0,1,1.337-2.051,4.854,4.854,0,0,1,2.8-.768,3.084,3.084,0,0,1,2.271.824,2.391,2.391,0,0,1,.532,2.313l-.658,3.315a6.909,6.909,0,0,0-.158,1.324,6.139,6.139,0,0,0,.109,1.179Zm-1.2-1.78a1.4,1.4,0,0,0,.618-.15,1.9,1.9,0,0,0,.536-.386l.284-1.422h-.82a1.076,1.076,0,0,0-.813.32,1.531,1.531,0,0,0-.4.8.715.715,0,0,0,.081.618.609.609,0,0,0,.512.219" fill="#666"/><path d="M206.852,67.617a.628.628,0,0,0-.236-.585,2.824,2.824,0,0,0-1.129-.455,4.008,4.008,0,0,1-2.008-.935,1.878,1.878,0,0,1-.455-1.73,3.016,3.016,0,0,1,1.227-1.991,4.222,4.222,0,0,1,2.625-.788,3.587,3.587,0,0,1,2.479.792,2.024,2.024,0,0,1,.65,2.019l-.016.049H207.34a1.154,1.154,0,0,0-.09-.8.743.743,0,0,0-.666-.26.987.987,0,0,0-.63.24.938.938,0,0,0-.354.6.629.629,0,0,0,.208.6,2.768,2.768,0,0,0,1.15.434,4.144,4.144,0,0,1,2.076.947,1.957,1.957,0,0,1,.435,1.784,2.881,2.881,0,0,1-1.3,1.978,4.79,4.79,0,0,1-2.754.745,3.252,3.252,0,0,1-2.479-.919,2.2,2.2,0,0,1-.65-2.024l.016-.049h2.462a1.089,1.089,0,0,0,.163.907,1.113,1.113,0,0,0,.845.272,1.161,1.161,0,0,0,.732-.22.925.925,0,0,0,.349-.609" fill="#666"/><path d="M214.344,62.253a3.41,3.41,0,0,1,1.04-.832,2.613,2.613,0,0,1,1.195-.289,1.912,1.912,0,0,1,1.767.967,4.248,4.248,0,0,1,.183,2.934l-1.008,5.055h-2.714l1.016-5.072a2.563,2.563,0,0,0,.029-1.426.77.77,0,0,0-.752-.346,1.451,1.451,0,0,0-.569.111,1.517,1.517,0,0,0-.471.312l-1.284,6.421h-2.715L212.6,57.41h2.714Z" fill="#666"/><path d="M223.43,70.087l1.373-6.892h-1.154l.374-1.9h1.162l.187-.91a3.784,3.784,0,0,1,1.321-2.377,4.209,4.209,0,0,1,2.629-.768,3.906,3.906,0,0,1,.589.049c.208.032.429.072.662.122l-.6,2.023c-.13-.027-.248-.047-.354-.061a3.034,3.034,0,0,0-.386-.019,1.08,1.08,0,0,0-.735.271,1.27,1.27,0,0,0-.4.76l-.187.91h1.544l-.374,1.9h-1.552l-1.374,6.892Z" fill="#666"/><path d="M233.678,70.087l.032-.941a3.416,3.416,0,0,1-1.11.833,3.207,3.207,0,0,1-1.336.279,1.98,1.98,0,0,1-1.78-.9,3.654,3.654,0,0,1-.22-2.705l1.073-5.364h2.707l-1.073,5.38a1.937,1.937,0,0,0,0,1.13.62.62,0,0,0,.618.342,1.8,1.8,0,0,0,1.226-.472l1.268-6.38H237.8l-1.756,8.793Z" fill="#666"/><path d="M241.568,62.432a3.808,3.808,0,0,1,1.17-.963,2.938,2.938,0,0,1,1.365-.337,1.831,1.831,0,0,1,1.658.853,3.674,3.674,0,0,1,.187,2.649l-1.089,5.453h-2.714l1.089-5.461a1.522,1.522,0,0,0-.041-1.092.853.853,0,0,0-.747-.29,1.282,1.282,0,0,0-.569.135,1.776,1.776,0,0,0-.5.369L240.1,70.087H237.4l1.755-8.793h2.552Z" fill="#666"/><path d="M250.223,68.145a.915.915,0,0,0,.727-.3,1.759,1.759,0,0,0,.362-.886h2.47l.017.049a3.561,3.561,0,0,1-1.3,2.377,4.035,4.035,0,0,1-2.613.874A3,3,0,0,1,247.228,69a4.3,4.3,0,0,1-.54-3.213l.024-.188a5.775,5.775,0,0,1,1.524-3.258,4.153,4.153,0,0,1,3.084-1.211,2.717,2.717,0,0,1,2.869,3.487l-.025.04h-2.486a2.065,2.065,0,0,0-.053-1.04.614.614,0,0,0-.638-.374,1.152,1.152,0,0,0-1.024.65,4.816,4.816,0,0,0-.544,1.706l-.025.188a4.486,4.486,0,0,0-.028,1.754.781.781,0,0,0,.857.6" fill="#666"/><path d="M259.609,59.109l-.439,2.186h1.341l-.374,1.9h-1.349l-.8,4.031a1.009,1.009,0,0,0,.028.695.465.465,0,0,0,.419.191,3.3,3.3,0,0,0,.369-.017c.1-.01.218-.032.37-.064l-.219,2.031c-.3.07-.573.12-.809.15a6.7,6.7,0,0,1-.833.045,2.1,2.1,0,0,1-1.784-.74,2.782,2.782,0,0,1-.247-2.275l.8-4.047h-1.113l.374-1.9h1.121l.439-2.186Z" fill="#666"/><path d="M262.819,70.087H260.1l1.755-8.793h2.723Zm2.17-10.833h-2.722l.365-1.845h2.723Z" fill="#666"/><path d="M264.9,65.61a5.689,5.689,0,0,1,1.552-3.267,4.29,4.29,0,0,1,3.145-1.21,3.074,3.074,0,0,1,2.7,1.258,4.269,4.269,0,0,1,.573,3.219l-.024.171a5.717,5.717,0,0,1-1.56,3.271,4.278,4.278,0,0,1-3.129,1.207A3.1,3.1,0,0,1,265.444,69a4.229,4.229,0,0,1-.569-3.222Zm2.69.171a4.082,4.082,0,0,0-.012,1.759.843.843,0,0,0,.914.6,1.211,1.211,0,0,0,1.065-.637,4.75,4.75,0,0,0,.577-1.727l.024-.171a4.214,4.214,0,0,0,0-1.743.827.827,0,0,0-.894-.622,1.23,1.23,0,0,0-1.081.654,4.567,4.567,0,0,0-.569,1.711Z" fill="#666"/><path d="M277.3,62.432a3.808,3.808,0,0,1,1.17-.963,2.938,2.938,0,0,1,1.365-.337,1.831,1.831,0,0,1,1.658.853,3.674,3.674,0,0,1,.187,2.649l-1.089,5.453h-2.714l1.089-5.461a1.522,1.522,0,0,0-.041-1.092.853.853,0,0,0-.747-.29,1.282,1.282,0,0,0-.569.135,1.776,1.776,0,0,0-.5.369l-1.268,6.339h-2.706l1.755-8.793h2.552Z" fill="#666"/><path d="M32.381,145.712l-.8,4.055H28.854l2.365-11.832h4.543a3.7,3.7,0,0,1,2.856,1.093,3.015,3.015,0,0,1,.671,2.8A4.576,4.576,0,0,1,37.57,144.7a5.417,5.417,0,0,1-3.36,1.016ZM32.8,143.6h1.828a1.77,1.77,0,0,0,1.26-.5,2.324,2.324,0,0,0,.683-1.256,1.8,1.8,0,0,0-.138-1.311,1.189,1.189,0,0,0-1.1-.485h-1.82Z" fill="#666"/><path d="M41.865,149.767H39.143l2.535-12.678H44.4Z" fill="#666"/><path d="M48.082,149.759a3.656,3.656,0,0,1-.106-.468,4.016,4.016,0,0,1-.049-.515,3.715,3.715,0,0,1-1.012.849,2.521,2.521,0,0,1-1.255.313,2.133,2.133,0,0,1-1.715-.735,2.156,2.156,0,0,1-.39-1.914,3.047,3.047,0,0,1,1.3-2.061,5.326,5.326,0,0,1,2.922-.67h.845l.13-.626a1.38,1.38,0,0,0-.041-.886.645.645,0,0,0-.617-.276.83.83,0,0,0-.6.228,1.233,1.233,0,0,0-.317.69l-2.624-.008-.017-.049a2.993,2.993,0,0,1,1.337-2.051,4.854,4.854,0,0,1,2.8-.768,3.084,3.084,0,0,1,2.271.824,2.391,2.391,0,0,1,.532,2.313l-.658,3.315a6.909,6.909,0,0,0-.158,1.324,6.139,6.139,0,0,0,.109,1.179Zm-1.195-1.78a1.4,1.4,0,0,0,.618-.15,1.9,1.9,0,0,0,.536-.386l.284-1.422h-.82a1.076,1.076,0,0,0-.813.32,1.531,1.531,0,0,0-.4.8.715.715,0,0,0,.081.618.609.609,0,0,0,.512.219" fill="#666"/><path d="M54.55,149.767H51.828l1.755-8.793h2.723Zm2.17-10.833H54l.365-1.845h2.723Z" fill="#666"/><path d="M60.231,142.112a3.808,3.808,0,0,1,1.17-.963,2.938,2.938,0,0,1,1.365-.337,1.831,1.831,0,0,1,1.658.853,3.674,3.674,0,0,1,.187,2.649l-1.089,5.453H60.808l1.089-5.461a1.522,1.522,0,0,0-.041-1.092.853.853,0,0,0-.747-.29,1.282,1.282,0,0,0-.569.135,1.776,1.776,0,0,0-.5.369l-1.268,6.339H56.062l1.755-8.793h2.552Z" fill="#666"/><path d="M74.233,138.789l-.439,2.186h1.341l-.374,1.9H73.412l-.8,4.031a1.009,1.009,0,0,0,.028.7.465.465,0,0,0,.419.191,3.3,3.3,0,0,0,.369-.017c.095-.01.218-.032.37-.064l-.219,2.031c-.3.07-.573.12-.809.15a6.7,6.7,0,0,1-.833.045,2.1,2.1,0,0,1-1.784-.74,2.782,2.782,0,0,1-.247-2.275l.8-4.047H69.593l.374-1.9h1.121l.439-2.186Z" fill="#666"/><path d="M78.508,149.938a3.154,3.154,0,0,1-2.686-1.228,3.849,3.849,0,0,1-.63-3.047l.049-.309a6.089,6.089,0,0,1,1.5-3.32,3.955,3.955,0,0,1,3.027-1.222,2.837,2.837,0,0,1,2.426,1.08,3.722,3.722,0,0,1,.524,2.9l-.227,1.439H77.9l-.016.041a1.619,1.619,0,0,0,.292,1.125,1.238,1.238,0,0,0,1.041.426,4.5,4.5,0,0,0,1.146-.126,9.88,9.88,0,0,0,1.178-.418l.366,1.674a5.379,5.379,0,0,1-1.508.7,6.352,6.352,0,0,1-1.889.281m.926-7.014a.967.967,0,0,0-.809.423,3.024,3.024,0,0,0-.475,1.13l.024.04h1.935l.04-.211a1.863,1.863,0,0,0-.057-1.04.654.654,0,0,0-.658-.342" fill="#666"/><path d="M87.316,143.55l.049.008,1.333-2.584h3.039l-3.031,4.347,1.7,4.446H87.365l-.528-2.657-.049-.008-1.4,2.665H82.351l3.128-4.446-1.649-4.347h3.023Z" fill="#666"/><path d="M96.361,138.789l-.439,2.186h1.341l-.374,1.9H95.54l-.8,4.031a1.009,1.009,0,0,0,.028.7.465.465,0,0,0,.419.191,3.3,3.3,0,0,0,.369-.017c.1-.01.218-.032.37-.064l-.219,2.031c-.3.07-.573.12-.809.15a6.7,6.7,0,0,1-.833.045,2.1,2.1,0,0,1-1.784-.74,2.782,2.782,0,0,1-.247-2.275l.8-4.047H91.721l.374-1.9h1.121l.439-2.186Z" fill="#666"/><path d="M368.744,145.615l.024.049a6.034,6.034,0,0,1-1.69,3.193,4.625,4.625,0,0,1-3.226,1.081,3.844,3.844,0,0,1-3.893-4.851l.5-2.471a6.543,6.543,0,0,1,1.8-3.588,4.633,4.633,0,0,1,3.312-1.264,4.02,4.02,0,0,1,3.1,1.17,3.722,3.722,0,0,1,.817,3.178l-.017.041H366.81a2.54,2.54,0,0,0-.146-1.707,1.437,1.437,0,0,0-1.341-.568,1.666,1.666,0,0,0-1.329.751,4.7,4.7,0,0,0-.825,1.97l-.5,2.488a3.249,3.249,0,0,0,.078,2.027,1.268,1.268,0,0,0,1.255.711,1.733,1.733,0,0,0,1.333-.544,3.655,3.655,0,0,0,.764-1.666Z" fill="#666"/><path d="M371.995,149.767h-2.722l1.755-8.793h2.722Zm2.17-10.833h-2.722l.365-1.845h2.723Z" fill="#666"/><path d="M382.04,145.72a6.66,6.66,0,0,1-1.382,3.165,3.2,3.2,0,0,1-2.495,1.053,2.39,2.39,0,0,1-1-.207,2.026,2.026,0,0,1-.76-.606l-.8,4.023h-2.714l2.43-12.174h2.544l-.074.739a3.238,3.238,0,0,1,.89-.666,2.216,2.216,0,0,1,1-.235,2.242,2.242,0,0,1,2.113,1.365,5.141,5.141,0,0,1,.292,3.372Zm-2.674-.171a5.62,5.62,0,0,0,.114-1.922c-.082-.469-.325-.7-.732-.7a1.2,1.2,0,0,0-.686.224,2.259,2.259,0,0,0-.6.622l-.747,3.746a.73.73,0,0,0,.378.235,2.258,2.258,0,0,0,.629.073,1.2,1.2,0,0,0,1-.54,4.011,4.011,0,0,0,.61-1.564Z" fill="#666"/><path d="M386.557,141.933a3.429,3.429,0,0,1,1.04-.833,2.612,2.612,0,0,1,1.2-.288,1.912,1.912,0,0,1,1.767.967,4.246,4.246,0,0,1,.183,2.933l-1.008,5.055H387.02l1.016-5.071a2.563,2.563,0,0,0,.029-1.426.77.77,0,0,0-.752-.346,1.433,1.433,0,0,0-.569.111,1.5,1.5,0,0,0-.471.312l-1.284,6.42h-2.714l2.535-12.678h2.714Z" fill="#666"/><path d="M395.058,149.938a3.154,3.154,0,0,1-2.686-1.228,3.849,3.849,0,0,1-.63-3.047l.049-.309a6.089,6.089,0,0,1,1.5-3.32,3.955,3.955,0,0,1,3.027-1.222,2.837,2.837,0,0,1,2.426,1.08,3.722,3.722,0,0,1,.524,2.9l-.227,1.439h-4.592l-.016.041a1.619,1.619,0,0,0,.292,1.125,1.238,1.238,0,0,0,1.041.426,4.5,4.5,0,0,0,1.146-.126,9.879,9.879,0,0,0,1.178-.418l.366,1.674a5.379,5.379,0,0,1-1.508.7,6.352,6.352,0,0,1-1.889.281m.926-7.014a.968.968,0,0,0-.809.423,3.024,3.024,0,0,0-.475,1.13l.024.04h1.935l.04-.211a1.863,1.863,0,0,0-.057-1.04.654.654,0,0,0-.658-.342" fill="#666"/><path d="M405.427,143.4l-.967-.008a1.355,1.355,0,0,0-.658.154,1.376,1.376,0,0,0-.48.439l-1.154,5.786h-2.714l1.755-8.793h2.56l-.146,1.121.041.025a2.818,2.818,0,0,1,.808-.971,1.7,1.7,0,0,1,1.012-.337,2.62,2.62,0,0,1,.37.028,2.192,2.192,0,0,1,.329.069Z" fill="#666"/><path d="M414.618,138.789l-.439,2.186h1.341l-.374,1.9H413.8l-.8,4.031a1.009,1.009,0,0,0,.028.7.464.464,0,0,0,.419.191,3.312,3.312,0,0,0,.369-.017c.1-.01.218-.032.37-.064l-.219,2.031c-.3.07-.573.12-.809.15a6.7,6.7,0,0,1-.833.045,2.1,2.1,0,0,1-1.784-.74,2.785,2.785,0,0,1-.248-2.275l.8-4.047h-1.113l.373-1.9h1.122l.439-2.186Z" fill="#666"/><path d="M418.892,149.938a3.153,3.153,0,0,1-2.685-1.228,3.849,3.849,0,0,1-.63-3.047l.049-.309a6.089,6.089,0,0,1,1.5-3.32,3.955,3.955,0,0,1,3.027-1.222,2.837,2.837,0,0,1,2.426,1.08,3.722,3.722,0,0,1,.524,2.9l-.227,1.439h-4.592l-.016.041a1.619,1.619,0,0,0,.292,1.125,1.237,1.237,0,0,0,1.041.426,4.5,4.5,0,0,0,1.146-.126,9.944,9.944,0,0,0,1.178-.418l.365,1.674a5.359,5.359,0,0,1-1.507.7,6.354,6.354,0,0,1-1.89.281m.927-7.014a.966.966,0,0,0-.809.423,3.024,3.024,0,0,0-.475,1.13l.024.04h1.935l.04-.211a1.872,1.872,0,0,0-.057-1.04.654.654,0,0,0-.658-.342" fill="#666"/><path d="M427.7,143.55l.049.008,1.333-2.584h3.039l-3.031,4.347,1.7,4.446h-3.039l-.528-2.657-.049-.008-1.4,2.665h-3.039l3.128-4.446-1.649-4.347h3.023Z" fill="#666"/><path d="M436.747,138.789l-.439,2.186h1.341l-.374,1.9h-1.349l-.8,4.031a1.009,1.009,0,0,0,.028.7.464.464,0,0,0,.419.191,3.312,3.312,0,0,0,.369-.017c.1-.01.218-.032.37-.064l-.219,2.031c-.3.07-.573.12-.809.15a6.7,6.7,0,0,1-.833.045,2.1,2.1,0,0,1-1.784-.74,2.785,2.785,0,0,1-.248-2.275l.8-4.047h-1.113l.373-1.9H433.6l.439-2.186Z" fill="#666"/><line x2="197.991" transform="translate(139.68 82.774)" fill="none" stroke="#0071bc" stroke-linecap="round" stroke-linejoin="round" stroke-width="2" stroke-dasharray="2 5"/><path d="M331.044,90.954l-1.364-1.465,7.223-6.713-7.223-6.715,1.364-1.464,8.8,8.179Z" fill="#0071bc"/><path d="M125.063,117.292A13.35,13.35,0,0,1,114.81,122.1H13.35A13.35,13.35,0,0,1,3.1,117.292l48.967-40.8,5.073,3.471a12.221,12.221,0,0,0,13.884,0L76.1,76.494Z" fill="#b3b3b3"/><path d="M125.81,42.479,76.1,76.5l-5.073,3.471a12.225,12.225,0,0,1-13.884,0L52.065,76.5,2.35,42.425a13.407,13.407,0,0,1,11-5.767H114.81a13.174,13.174,0,0,1,11,5.821" fill="#e6e6e6"/><path d="M52.065,76.494,3.1,117.292A13.292,13.292,0,0,1,0,108.748V50.008a13.161,13.161,0,0,1,2.35-7.583Z" fill="#ccc"/><path d="M128.16,50.008v58.74a13.3,13.3,0,0,1-3.1,8.544L76.1,76.494,125.81,42.479a13.106,13.106,0,0,1,2.35,7.529" fill="#ccc"/><path d="M420.164,87.68h-7V49.58a16.264,16.264,0,1,0-32.527,0v38.1h-7V49.58a23.264,23.264,0,1,1,46.527,0Z" fill="#263238"/><path d="M443.507,122.046a10.141,10.141,0,0,1-7.79,3.652H358.624a10.141,10.141,0,0,1-7.79-3.652l37.207-31,3.855,2.637a9.287,9.287,0,0,0,10.549,0l3.855-2.637Z" fill="#b3b3b3"/><path d="M444.075,65.2,406.3,91.047l-3.855,2.638a9.287,9.287,0,0,1-10.549,0l-3.855-2.638L350.266,65.16a10.189,10.189,0,0,1,8.358-4.382h77.093a10.013,10.013,0,0,1,8.358,4.423" fill="#e6e6e6"/><path d="M388.041,91.047l-37.207,31a10.1,10.1,0,0,1-2.354-6.492V70.922a10,10,0,0,1,1.786-5.762Z" fill="#ccc"/><path d="M445.86,70.922v44.632a10.1,10.1,0,0,1-2.353,6.492l-37.208-31L444.075,65.2a9.966,9.966,0,0,1,1.785,5.721" fill="#ccc"/></g></svg>