<svg id="Grupo_147391" data-name="Grupo 147391" xmlns="http://www.w3.org/2000/svg" xmlns:xlink="http://www.w3.org/1999/xlink" width="215.641" height="215.641" viewBox="0 0 215.641 215.641">
  <defs>
    <clipPath id="clip-path">
      <rect id="Rectángulo_40036" data-name="Rectángulo 40036" width="215.641" height="215.641" fill="none"/>
    </clipPath>
  </defs>
  <g id="Grupo_147390" data-name="Grupo 147390" clip-path="url(#clip-path)">
    <path id="Trazado_209186" data-name="Trazado 209186" d="M192.474,37.778H23.167a3.55,3.55,0,0,0-3.55,3.549V58.338l.806.355H195.491l.532-.355V41.327A3.549,3.549,0,0,0,192.474,37.778Z" fill="#d2b7ff"/>
    <path id="Trazado_209187" data-name="Trazado 209187" d="M41.091,58.339V41.328a3.549,3.549,0,0,1,3.549-3.549H23.167a3.549,3.549,0,0,0-3.55,3.549V58.339Z" fill="#a7f"/>
    <path id="Trazado_209188" data-name="Trazado 209188" d="M192.474,172.653H23.167a3.55,3.55,0,0,1-3.55-3.549V58.338H196.023V169.1a3.549,3.549,0,0,1-3.549,3.549" fill="#e8edf2"/>
    <path id="Trazado_209189" data-name="Trazado 209189" d="M41.091,169.1V58.339H19.617V169.1a3.549,3.549,0,0,0,3.55,3.549H44.64a3.549,3.549,0,0,1-3.549-3.549" fill="#d9e7ec"/>
    <path id="Trazado_209190" data-name="Trazado 209190" d="M30.181,45.293A2.584,2.584,0,1,1,27.6,47.877a2.584,2.584,0,0,1,2.584-2.584" fill="#fe646f"/>
    <path id="Trazado_209191" data-name="Trazado 209191" d="M39.139,45.293a2.584,2.584,0,1,1-2.584,2.584,2.584,2.584,0,0,1,2.584-2.584" fill="#fed402"/>
    <path id="Trazado_209192" data-name="Trazado 209192" d="M48.1,45.293a2.584,2.584,0,1,1-2.584,2.584A2.584,2.584,0,0,1,48.1,45.293" fill="#00c27a"/>
    <path id="Trazado_209193" data-name="Trazado 209193" d="M173.662,156.682H41.978a3.549,3.549,0,0,1-3.549-3.549v-5.325a3.549,3.549,0,0,1,3.549-3.549H173.662a3.549,3.549,0,0,1,3.549,3.549v5.325a3.549,3.549,0,0,1-3.549,3.549" fill="#00c27a"/>
    <path id="Trazado_209194" data-name="Trazado 209194" d="M150.413,153.133v-5.324a3.549,3.549,0,0,1,3.549-3.55H140.12v12.423h13.842a3.549,3.549,0,0,1-3.549-3.549" fill="#08b865"/>
    <path id="Trazado_209195" data-name="Trazado 209195" d="M140.12,144.259H41.979a3.549,3.549,0,0,0-3.55,3.549v5.325a3.549,3.549,0,0,0,3.55,3.549H140.12Z" fill="#d2b7ff"/>
    <path id="Trazado_209196" data-name="Trazado 209196" d="M54.934,153.133v-5.324a3.549,3.549,0,0,1,3.549-3.55H41.978a3.549,3.549,0,0,0-3.549,3.55v5.324a3.549,3.549,0,0,0,3.549,3.549H58.483a3.549,3.549,0,0,1-3.549-3.549" fill="#8f52f5"/>
    <path id="Trazado_209197" data-name="Trazado 209197" d="M47.3,89.343H38.43a2.584,2.584,0,0,1,0-5.168H47.3a2.584,2.584,0,1,1,0,5.168" fill="#c5d3dd"/>
    <path id="Trazado_209198" data-name="Trazado 209198" d="M177.211,89.343H157.867a2.584,2.584,0,0,1,0-5.168h19.344a2.584,2.584,0,1,1,0,5.168" fill="#c5d3dd"/>
    <path id="Trazado_209199" data-name="Trazado 209199" d="M81.168,86.547c0-.787.022-1.579.058-2.373H56a2.584,2.584,0,0,0,0,5.168H81.244C81.2,88.415,81.168,87.483,81.168,86.547Z" fill="#c5d3dd"/>
    <path id="Trazado_209200" data-name="Trazado 209200" d="M148.639,84.175H134.416c.034.793.057,1.586.057,2.373,0,.936-.03,1.867-.076,2.8h14.242a2.584,2.584,0,1,0,0-5.168" fill="#c5d3dd"/>
    <path id="Trazado_209201" data-name="Trazado 209201" d="M58.306,101.056H38.429a2.584,2.584,0,1,1,0-5.168H58.306a2.584,2.584,0,0,1,0,5.168" fill="#8f52f5"/>
    <path id="Trazado_209202" data-name="Trazado 209202" d="M177.211,101.056H152.542a2.584,2.584,0,1,1,0-5.168h24.669a2.584,2.584,0,1,1,0,5.168" fill="#c5d3dd"/>
    <path id="Trazado_209203" data-name="Trazado 209203" d="M81.964,95.888H67a2.584,2.584,0,1,0,0,5.168H83.109q-.694-2.544-1.145-5.168" fill="#8f52f5"/>
    <path id="Trazado_209204" data-name="Trazado 209204" d="M132.532,101.056h10.782a2.584,2.584,0,1,0,0-5.168h-9.638q-.447,2.622-1.144,5.168" fill="#8f52f5"/>
    <path id="Trazado_209205" data-name="Trazado 209205" d="M47.3,112.769H38.43a2.584,2.584,0,1,1,0-5.168H47.3a2.584,2.584,0,0,1,0,5.168" fill="#8f52f5"/>
    <path id="Trazado_209206" data-name="Trazado 209206" d="M177.211,112.769h-8.7a2.584,2.584,0,0,1,0-5.168h8.7a2.584,2.584,0,1,1,0,5.168" fill="#8f52f5"/>
    <path id="Trazado_209207" data-name="Trazado 209207" d="M85.351,107.6H56a2.584,2.584,0,0,0,0,5.168h30.17a2.57,2.57,0,0,0,1.427-.431q-1.236-2.31-2.245-4.737" fill="#8f52f5"/>
    <path id="Trazado_209208" data-name="Trazado 209208" d="M159.287,107.6H143.3a15.107,15.107,0,0,1,3.3,5.168h12.686a2.584,2.584,0,1,0,0-5.168" fill="#8f52f5"/>
    <path id="Trazado_209209" data-name="Trazado 209209" d="M63.807,124.482H38.429a2.584,2.584,0,1,1,0-5.168H63.807a2.584,2.584,0,0,1,0,5.168Z" fill="#8f52f5"/>
    <path id="Trazado_209210" data-name="Trazado 209210" d="M177.211,124.482h-14.02a2.584,2.584,0,0,1,0-5.168h14.02a2.584,2.584,0,0,1,0,5.168Z" fill="#8f52f5"/>
    <path id="Trazado_209211" data-name="Trazado 209211" d="M92.042,119.314H72.5a2.584,2.584,0,1,0,0,5.168H96.452A54.268,54.268,0,0,1,92.042,119.314Z" fill="#8f52f5"/>
    <path id="Trazado_209212" data-name="Trazado 209212" d="M153.963,119.314h-6.431a14.951,14.951,0,0,1-1.361,5.168h7.792a2.584,2.584,0,0,0,0-5.168" fill="#8f52f5"/>
    <path id="Trazado_209213" data-name="Trazado 209213" d="M117.419,118.118a15.1,15.1,0,0,1,14.876-15.077,55.133,55.133,0,0,0,2.164-22.757,2.031,2.031,0,0,0-2.019-1.795h-5.768a2.023,2.023,0,0,1-1.077-.31L108.9,67.72a2.033,2.033,0,0,0-2.155,0l-16.7,10.459a2.026,2.026,0,0,1-1.078.31H83.2a2.03,2.03,0,0,0-2.019,1.795,55,55,0,0,0,25.547,52.948,2.057,2.057,0,0,0,2.183,0,55.281,55.281,0,0,0,10.191-8.2,14.993,14.993,0,0,1-1.684-6.912" fill="#fed402"/>
    <path id="Trazado_209214" data-name="Trazado 209214" d="M91.805,83.419a55.1,55.1,0,0,1,.359-6.263,1.914,1.914,0,0,1,.073-.349l-2.191,1.372a2.032,2.032,0,0,1-1.078.31H83.2a2.031,2.031,0,0,0-2.019,1.795,55,55,0,0,0,25.548,52.948,2.055,2.055,0,0,0,2.182,0,55.177,55.177,0,0,0,6.43-4.7,54.932,54.932,0,0,1-23.537-45.11" fill="#fac600"/>
    <path id="Trazado_209215" data-name="Trazado 209215" d="M107.82,109.048a2.584,2.584,0,0,1-2.584-2.584v-21.3a2.584,2.584,0,0,1,5.168,0v21.3a2.584,2.584,0,0,1-2.584,2.584" fill="#465a61"/>
    <path id="Trazado_209216" data-name="Trazado 209216" d="M107.82,111.614a2.584,2.584,0,1,1-2.584,2.584,2.584,2.584,0,0,1,2.584-2.584" fill="#465a61"/>
    <path id="Trazado_209217" data-name="Trazado 209217" d="M132.5,102.691a15.427,15.427,0,1,1-15.427,15.427A15.427,15.427,0,0,1,132.5,102.691" fill="#00c27a"/>
    <path id="Trazado_209218" data-name="Trazado 209218" d="M128.078,118.118A15.43,15.43,0,0,1,138,103.705a15.427,15.427,0,1,0,0,28.826,15.43,15.43,0,0,1-9.925-14.413" fill="#08b865"/>
    <path id="Trazado_209219" data-name="Trazado 209219" d="M131.644,125.214a2.573,2.573,0,0,1-1.827-.757l-5.638-5.638a2.584,2.584,0,0,1,3.654-3.654l3.811,3.811,5.526-5.527a2.584,2.584,0,0,1,3.655,3.654l-7.354,7.354A2.575,2.575,0,0,1,131.644,125.214Z" fill="#fff"/>
    <path id="Trazado_209220" data-name="Trazado 209220" d="M173.663,159.266H41.979a6.142,6.142,0,0,1-6.135-6.134v-5.324a6.141,6.141,0,0,1,6.135-6.133H173.661a6.141,6.141,0,0,1,6.135,6.133v5.324a6.14,6.14,0,0,1-6.133,6.134M41.979,146.843a.966.966,0,0,0-.965.965v5.325a.966.966,0,0,0,.965.965H173.661a.967.967,0,0,0,.967-.965v-5.325a.967.967,0,0,0-.967-.965Z" fill="#7a8c98"/>
  </g>
</svg>
