<svg xmlns="http://www.w3.org/2000/svg" xmlns:xlink="http://www.w3.org/1999/xlink" width="774.88" height="698.16" viewBox="0 0 774.88 698.16">
  <defs>
    <clipPath id="clip-path">
      <rect id="Rectángulo_41008" data-name="Rectángulo 41008" width="774.88" height="698.16" fill="none"/>
    </clipPath>
  </defs>
  <g id="Grupo_148955" data-name="Grupo 148955" transform="translate(-412.56 -398.92)">
    <g id="Grupo_148920" data-name="Grupo 148920" transform="translate(412.56 398.92)">
      <line id="Línea_444" data-name="Línea 444" x2="26.695" transform="translate(20.387 283)" fill="none" stroke="#8f52f5" stroke-width="1.5"/>
      <path id="Trazado_213671" data-name="Trazado 213671" d="M20.015,230.718V663H56.44" fill="none" stroke="#8f52f5" stroke-width="1.5"/>
      <line id="Línea_445" data-name="Línea 445" x2="26.695" transform="translate(20.387 346.84)" fill="none" stroke="#8f52f5" stroke-width="1.5"/>
      <line id="Línea_446" data-name="Línea 446" x2="26.695" transform="translate(20.387 544.48)" fill="none" stroke="#8f52f5" stroke-width="1.5"/>
      <path id="Trazado_213672" data-name="Trazado 213672" d="M173.76,0V36.281L192.9,50.014H573.76V13.9L555.023,0Z" fill="#500c75"/>
      <path id="Trazado_213673" data-name="Trazado 213673" d="M0,177v38.968l14.115,14.75H295V191.932L281.183,177Z" fill="#8f52f5"/>
      <path id="Trazado_213674" data-name="Trazado 213674" d="M479.88,177v38.968l14.115,14.75H774.88V191.932L761.063,177Z" fill="#8f52f5"/>
      <rect id="Rectángulo_40990" data-name="Rectángulo 40990" width="163" height="46" transform="translate(47 260)" fill="#e9dcfd"/>
      <rect id="Rectángulo_40991" data-name="Rectángulo 40991" width="211" height="46" transform="translate(547.88 260)" fill="#e9dcfd"/>
      <rect id="Rectángulo_40992" data-name="Rectángulo 40992" width="211" height="46" transform="translate(547.88 339)" fill="#e9dcfd"/>
      <rect id="Rectángulo_40993" data-name="Rectángulo 40993" width="162" height="56" transform="translate(132.5 383.98)" fill="none" stroke="#500c75" stroke-width="1"/>
      <rect id="Rectángulo_40994" data-name="Rectángulo 40994" width="162" height="56" transform="translate(132.5 456.98)" fill="none" stroke="#500c75" stroke-width="1"/>
      <path id="Trazado_213675" data-name="Trazado 213675" d="M93.831,366.48V487.768H132.3" fill="none" stroke="#500c75" stroke-width="1"/>
      <line id="Línea_447" data-name="Línea 447" x1="37.856" transform="translate(94.144 411.98)" fill="none" stroke="#500c75" stroke-width="1"/>
      <line id="Línea_448" data-name="Línea 448" x1="36.425" transform="translate(511.455 283)" fill="none" stroke="#500c75" stroke-width="1"/>
      <line id="Línea_449" data-name="Línea 449" x1="36.425" transform="translate(511.455 362)" fill="none" stroke="#500c75" stroke-width="1"/>
      <path id="Trazado_213676" data-name="Trazado 213676" d="M216.762,114.44l412.173.514v62.58" fill="none" stroke="#500c75" stroke-width="1.5"/>
      <path id="Trazado_213677" data-name="Trazado 213677" d="M558.375,114.44l-412.173.514v62.58" fill="none" stroke="#500c75" stroke-width="1.5"/>
      <line id="Línea_450" data-name="Línea 450" y2="131.702" transform="translate(511.455 230.718)" fill="none" stroke="#500c75" stroke-width="1.5"/>
      <g id="Grupo_148924" data-name="Grupo 148924">
        <g id="Grupo_148923" data-name="Grupo 148923" clip-path="url(#clip-path)">
          <path id="Trazado_213678" data-name="Trazado 213678" d="M278.138,23.568V28.4h-2.424V16.313H279.9a5.01,5.01,0,0,1,3.233.943,3.187,3.187,0,0,1,1.166,2.627,2.651,2.651,0,0,1-.494,1.606,3.443,3.443,0,0,1-1.439,1.092,2.6,2.6,0,0,1,1.539,1.054,3.346,3.346,0,0,1,.468,1.826v.887a4.364,4.364,0,0,0,.138,1.059,1.451,1.451,0,0,0,.469.818V28.4h-2.5a1.344,1.344,0,0,1-.427-.88,7.806,7.806,0,0,1-.1-1.186v-.856a1.923,1.923,0,0,0-.494-1.407,1.871,1.871,0,0,0-1.4-.5Zm0-1.868h1.718a2.271,2.271,0,0,0,1.519-.432,1.6,1.6,0,0,0,.5-1.277,1.757,1.757,0,0,0-.5-1.32,2.031,2.031,0,0,0-1.473-.491h-1.76Z" fill="#fff"/>
          <path id="Trazado_213679" data-name="Trazado 213679" d="M290.256,28.573a4.034,4.034,0,0,1-3.136-1.232,4.516,4.516,0,0,1-1.129-3.175v-.332a4.92,4.92,0,0,1,1.1-3.3,3.726,3.726,0,0,1,3.013-1.278,3.485,3.485,0,0,1,2.776,1.108,4.38,4.38,0,0,1,.967,2.985V24.6h-5.353l-.026.049a2.423,2.423,0,0,0,.561,1.494,1.877,1.877,0,0,0,1.49.573,4.974,4.974,0,0,0,1.382-.166,5.732,5.732,0,0,0,1.175-.506l.656,1.494a4.516,4.516,0,0,1-1.461.738,6.462,6.462,0,0,1-2.01.3M290.1,21.12a1.346,1.346,0,0,0-1.125.5,2.521,2.521,0,0,0-.478,1.332l.018.041h2.955v-.182a2.1,2.1,0,0,0-.324-1.241,1.2,1.2,0,0,0-1.046-.452" fill="#fff"/>
          <path id="Trazado_213680" data-name="Trazado 213680" d="M303.356,24.158a5.159,5.159,0,0,1-.922,3.2,3.045,3.045,0,0,1-2.572,1.211,2.881,2.881,0,0,1-1.254-.261,2.589,2.589,0,0,1-.938-.768v4.308h-2.416V19.419h2.184l.14,1.062a2.876,2.876,0,0,1,.959-.909,2.594,2.594,0,0,1,1.307-.319,2.986,2.986,0,0,1,2.59,1.3,5.808,5.808,0,0,1,.922,3.428Zm-2.424-.174a4.337,4.337,0,0,0-.424-2.059,1.38,1.38,0,0,0-1.295-.789,1.831,1.831,0,0,0-.933.225,1.593,1.593,0,0,0-.61.639v3.935a1.487,1.487,0,0,0,.61.58,2.053,2.053,0,0,0,.951.2,1.394,1.394,0,0,0,1.29-.688,3.636,3.636,0,0,0,.411-1.868Z" fill="#fff"/>
          <path id="Trazado_213681" data-name="Trazado 213681" d="M304.477,23.825a4.821,4.821,0,0,1,1.12-3.291,3.909,3.909,0,0,1,3.105-1.282,3.949,3.949,0,0,1,3.121,1.278,4.794,4.794,0,0,1,1.129,3.3V24a4.8,4.8,0,0,1-1.125,3.3,4.443,4.443,0,0,1-6.226,0,4.8,4.8,0,0,1-1.124-3.3Zm2.415.175a3.906,3.906,0,0,0,.432,1.972,1.659,1.659,0,0,0,2.768,0A3.891,3.891,0,0,0,310.528,24v-.175a3.843,3.843,0,0,0-.44-1.95,1.489,1.489,0,0,0-1.386-.755,1.472,1.472,0,0,0-1.374.759,3.882,3.882,0,0,0-.436,1.946Z" fill="#fff"/>
          <path id="Trazado_213682" data-name="Trazado 213682" d="M319.168,21.5l-.888-.024a1.623,1.623,0,0,0-.887.223,1.429,1.429,0,0,0-.532.631V28.4h-2.416V19.418h2.25l.108,1.328a2.813,2.813,0,0,1,.817-1.1,1.908,1.908,0,0,1,1.494-.366c.1.02.206.043.312.071Z" fill="#fff"/>
          <path id="Trazado_213683" data-name="Trazado 213683" d="M323.477,17.218v2.2H325v1.7h-1.519v4.574a1.044,1.044,0,0,0,.22.747.773.773,0,0,0,.577.224,2.44,2.44,0,0,0,.332-.021,2.641,2.641,0,0,0,.323-.071l.2,1.752a5.072,5.072,0,0,1-.709.187,4.281,4.281,0,0,1-.752.061,2.583,2.583,0,0,1-1.929-.688,3.02,3.02,0,0,1-.676-2.183V21.12h-1.313v-1.7h1.313v-2.2Z" fill="#fff"/>
          <path id="Trazado_213684" data-name="Trazado 213684" d="M330.383,28.573a4.034,4.034,0,0,1-3.136-1.232,4.516,4.516,0,0,1-1.129-3.175v-.332a4.92,4.92,0,0,1,1.1-3.3,3.726,3.726,0,0,1,3.013-1.278A3.485,3.485,0,0,1,333,20.36a4.38,4.38,0,0,1,.967,2.985V24.6h-5.353l-.026.049a2.423,2.423,0,0,0,.561,1.494,1.877,1.877,0,0,0,1.49.573,4.974,4.974,0,0,0,1.382-.166,5.731,5.731,0,0,0,1.175-.506l.656,1.494a4.517,4.517,0,0,1-1.461.738,6.462,6.462,0,0,1-2.01.3m-.157-7.453a1.346,1.346,0,0,0-1.125.5,2.521,2.521,0,0,0-.478,1.332l.018.041H331.6v-.182a2.1,2.1,0,0,0-.324-1.241,1.2,1.2,0,0,0-1.046-.452" fill="#fff"/>
          <path id="Trazado_213685" data-name="Trazado 213685" d="M340.236,25.909a.834.834,0,0,0-.386-.685,3.916,3.916,0,0,0-1.431-.5,5.706,5.706,0,0,1-2.4-.955,2.083,2.083,0,0,1-.817-1.735,2.475,2.475,0,0,1,.978-1.967,3.956,3.956,0,0,1,2.608-.813,4.263,4.263,0,0,1,2.726.813,2.378,2.378,0,0,1,.984,2.026l-.017.049h-2.341a1.174,1.174,0,0,0-.348-.879,1.632,1.632,0,0,0-1.926-.05.9.9,0,0,0-.34.714.805.805,0,0,0,.352.676,3.948,3.948,0,0,0,1.432.469,5.825,5.825,0,0,1,2.461.976,2.136,2.136,0,0,1,.81,1.771,2.371,2.371,0,0,1-1.038,1.985,4.484,4.484,0,0,1-2.74.771,4.167,4.167,0,0,1-2.834-.908,2.545,2.545,0,0,1-.992-2.071l.017-.05h2.216a1.261,1.261,0,0,0,.473,1.046,1.96,1.96,0,0,0,1.171.323,1.662,1.662,0,0,0,1.024-.27.871.871,0,0,0,.353-.734" fill="#fff"/>
          <path id="Trazado_213686" data-name="Trazado 213686" d="M351.616,24.631l.1.5h.049l1.719-5.711h2.606l-3.644,10.326a4.765,4.765,0,0,1-1.038,1.623,2.661,2.661,0,0,1-1.967.66,3.051,3.051,0,0,1-.568-.049q-.262-.051-.635-.142l.281-1.768.233.033a1.746,1.746,0,0,0,.224.017,1.321,1.321,0,0,0,.922-.3,1.959,1.959,0,0,0,.5-.734l.282-.7-3.188-8.974H350.1Z" fill="#fff"/>
          <path id="Trazado_213687" data-name="Trazado 213687" d="M360.922,23.983a5.839,5.839,0,0,1,.917-3.428,2.978,2.978,0,0,1,2.585-1.3,2.517,2.517,0,0,1,1.213.29,2.907,2.907,0,0,1,.945.83V15.45h2.433V28.4h-2.068l-.207-1.1a3.016,3.016,0,0,1-1,.95,2.649,2.649,0,0,1-1.328.327,3.036,3.036,0,0,1-2.569-1.211,5.183,5.183,0,0,1-.917-3.2Zm2.415.174a3.664,3.664,0,0,0,.4,1.855,1.387,1.387,0,0,0,1.3.677,1.872,1.872,0,0,0,.913-.212,1.673,1.673,0,0,0,.639-.618V22.032a1.861,1.861,0,0,0-.635-.659,1.681,1.681,0,0,0-.9-.237,1.368,1.368,0,0,0-1.3.789,4.45,4.45,0,0,0-.411,2.058Z" fill="#fff"/>
          <path id="Trazado_213688" data-name="Trazado 213688" d="M370.518,23.825a4.821,4.821,0,0,1,1.12-3.291,3.909,3.909,0,0,1,3.105-1.282,3.949,3.949,0,0,1,3.121,1.278,4.794,4.794,0,0,1,1.129,3.3V24a4.8,4.8,0,0,1-1.125,3.3,4.443,4.443,0,0,1-6.226,0,4.8,4.8,0,0,1-1.124-3.3Zm2.415.175a3.906,3.906,0,0,0,.432,1.972,1.659,1.659,0,0,0,2.768,0A3.891,3.891,0,0,0,376.569,24v-.175a3.843,3.843,0,0,0-.44-1.95,1.489,1.489,0,0,0-1.386-.755,1.472,1.472,0,0,0-1.374.759,3.883,3.883,0,0,0-.436,1.946Z" fill="#fff"/>
          <path id="Trazado_213689" data-name="Trazado 213689" d="M384.239,26.714a1.345,1.345,0,0,0,1-.377,1.369,1.369,0,0,0,.374-1.009h2.208l.017.05a2.811,2.811,0,0,1-1.013,2.278,3.785,3.785,0,0,1-2.59.917,3.827,3.827,0,0,1-3.08-1.273,4.844,4.844,0,0,1-1.087-3.258v-.25a4.879,4.879,0,0,1,1.083-3.258,3.8,3.8,0,0,1,3.067-1.282,3.706,3.706,0,0,1,2.648.946,3.163,3.163,0,0,1,.972,2.491l-.017.049h-2.208a1.8,1.8,0,0,0-.369-1.158,1.244,1.244,0,0,0-1.026-.46,1.383,1.383,0,0,0-1.332.751,4.132,4.132,0,0,0-.394,1.921v.25a4.113,4.113,0,0,0,.394,1.934,1.4,1.4,0,0,0,1.349.738" fill="#fff"/>
          <path id="Trazado_213690" data-name="Trazado 213690" d="M394.756,27.071a3.059,3.059,0,0,1-1.055,1.113,2.8,2.8,0,0,1-1.486.389,2.729,2.729,0,0,1-2.22-.963,4.617,4.617,0,0,1-.8-2.988v-5.2h2.416V24.64a2.906,2.906,0,0,0,.319,1.615,1.152,1.152,0,0,0,.992.435,2.4,2.4,0,0,0,1-.187,1.677,1.677,0,0,0,.681-.552V19.419h2.424V28.4h-2.009Z" fill="#fff"/>
          <path id="Trazado_213691" data-name="Trazado 213691" d="M401.1,19.418l.1,1.187a3,3,0,0,1,1.083-1,3.1,3.1,0,0,1,1.506-.353,2.736,2.736,0,0,1,1.477.382,2.348,2.348,0,0,1,.93,1.154,3.1,3.1,0,0,1,1.08-1.129,2.928,2.928,0,0,1,1.56-.407,2.56,2.56,0,0,1,2.1.942,4.5,4.5,0,0,1,.768,2.876V28.4h-2.424V23.062a2.519,2.519,0,0,0-.332-1.5,1.179,1.179,0,0,0-.989-.424,1.622,1.622,0,0,0-1.494.863c0,.106,0,.195.009.271s.009.15.009.227v5.9h-2.416V23.062a2.518,2.518,0,0,0-.332-1.49,1.174,1.174,0,0,0-1-.436,1.878,1.878,0,0,0-.86.187,1.631,1.631,0,0,0-.609.528V28.4h-2.416V19.418Z" fill="#fff"/>
          <path id="Trazado_213692" data-name="Trazado 213692" d="M417.449,28.573a4.034,4.034,0,0,1-3.136-1.232,4.516,4.516,0,0,1-1.129-3.175v-.332a4.92,4.92,0,0,1,1.1-3.3,3.726,3.726,0,0,1,3.013-1.278,3.485,3.485,0,0,1,2.776,1.108,4.38,4.38,0,0,1,.967,2.985V24.6h-5.353l-.026.049a2.423,2.423,0,0,0,.561,1.494,1.877,1.877,0,0,0,1.49.573,4.974,4.974,0,0,0,1.382-.166,5.731,5.731,0,0,0,1.175-.506l.656,1.494a4.517,4.517,0,0,1-1.461.738,6.462,6.462,0,0,1-2.01.3m-.157-7.453a1.346,1.346,0,0,0-1.125.5,2.521,2.521,0,0,0-.478,1.332l.018.041h2.955v-.182a2.1,2.1,0,0,0-.324-1.241,1.2,1.2,0,0,0-1.046-.452" fill="#fff"/>
          <path id="Trazado_213693" data-name="Trazado 213693" d="M424.664,19.418l.107,1.286a3.293,3.293,0,0,1,1.1-1.07,2.865,2.865,0,0,1,1.47-.382,2.671,2.671,0,0,1,2.125.876,4.157,4.157,0,0,1,.763,2.768v5.5H427.8V22.9a2.152,2.152,0,0,0-.336-1.365,1.241,1.241,0,0,0-1.008-.4,2.113,2.113,0,0,0-.951.2,1.863,1.863,0,0,0-.676.559v6.5h-2.424V19.418Z" fill="#fff"/>
          <path id="Trazado_213694" data-name="Trazado 213694" d="M434.949,17.218v2.2h1.519v1.7h-1.519v4.574a1.044,1.044,0,0,0,.22.747.773.773,0,0,0,.577.224,2.44,2.44,0,0,0,.332-.021,2.644,2.644,0,0,0,.323-.071l.2,1.752a5.072,5.072,0,0,1-.709.187,4.281,4.281,0,0,1-.752.061,2.583,2.583,0,0,1-1.929-.688,3.02,3.02,0,0,1-.676-2.183V21.12h-1.313v-1.7h1.313v-2.2Z" fill="#fff"/>
          <path id="Trazado_213695" data-name="Trazado 213695" d="M443.257,28.4a5.126,5.126,0,0,1-.229-.646,4.508,4.508,0,0,1-.136-.7,3.318,3.318,0,0,1-.988,1.086,2.467,2.467,0,0,1-1.461.432,3.029,3.029,0,0,1-2.175-.726,2.6,2.6,0,0,1-.764-1.979,2.37,2.37,0,0,1,1.017-2.047,5.079,5.079,0,0,1,2.967-.727h1.362v-.711a1.4,1.4,0,0,0-.34-1,1.329,1.329,0,0,0-1.013-.357,1.316,1.316,0,0,0-.909.285,1,1,0,0,0-.319.785h-2.333l-.016-.049a2.28,2.28,0,0,1,.991-1.964,4.3,4.3,0,0,1,2.743-.825,4.021,4.021,0,0,1,2.619.812,2.832,2.832,0,0,1,1,2.332v3.711a7.115,7.115,0,0,0,.1,1.189,6.006,6.006,0,0,0,.3,1.1Zm-2.216-1.619a2.06,2.06,0,0,0,1.129-.314,1.707,1.707,0,0,0,.68-.731V24.466h-1.362a1.618,1.618,0,0,0-1.166.38,1.261,1.261,0,0,0-.394.938.932.932,0,0,0,.295.726,1.163,1.163,0,0,0,.818.27" fill="#fff"/>
          <path id="Trazado_213696" data-name="Trazado 213696" d="M450.844,26.714a1.344,1.344,0,0,0,1-.377,1.369,1.369,0,0,0,.374-1.009h2.208l.017.05a2.811,2.811,0,0,1-1.013,2.278,3.785,3.785,0,0,1-2.59.917,3.827,3.827,0,0,1-3.08-1.273,4.844,4.844,0,0,1-1.087-3.258v-.25a4.879,4.879,0,0,1,1.083-3.258,3.8,3.8,0,0,1,3.067-1.282,3.706,3.706,0,0,1,2.648.946,3.163,3.163,0,0,1,.972,2.491l-.017.049h-2.208a1.8,1.8,0,0,0-.369-1.158,1.244,1.244,0,0,0-1.026-.46,1.383,1.383,0,0,0-1.332.751,4.132,4.132,0,0,0-.394,1.921v.25a4.113,4.113,0,0,0,.394,1.934,1.4,1.4,0,0,0,1.349.738" fill="#fff"/>
          <path id="Trazado_213697" data-name="Trazado 213697" d="M458.407,17.269h-2.424V15.451h2.424Zm0,11.131h-2.424V19.419h2.424Z" fill="#fff"/>
          <path id="Trazado_213698" data-name="Trazado 213698" d="M460.026,23.825a4.821,4.821,0,0,1,1.12-3.291,4.425,4.425,0,0,1,6.226,0,4.794,4.794,0,0,1,1.129,3.3V24a4.8,4.8,0,0,1-1.125,3.3,4.443,4.443,0,0,1-6.226,0,4.8,4.8,0,0,1-1.124-3.3Zm2.415.175a3.906,3.906,0,0,0,.432,1.972,1.659,1.659,0,0,0,2.768,0A3.891,3.891,0,0,0,466.077,24v-.175a3.843,3.843,0,0,0-.44-1.95,1.487,1.487,0,0,0-1.386-.755,1.472,1.472,0,0,0-1.374.759,3.882,3.882,0,0,0-.436,1.946Zm2.3-8.417h2.7l.017.05-2.3,2.158h-2.066Z" fill="#fff"/>
          <path id="Trazado_213699" data-name="Trazado 213699" d="M472.211,19.418l.107,1.286a3.293,3.293,0,0,1,1.1-1.07,2.865,2.865,0,0,1,1.47-.382,2.671,2.671,0,0,1,2.125.876,4.157,4.157,0,0,1,.763,2.768v5.5h-2.432V22.9a2.152,2.152,0,0,0-.336-1.365,1.241,1.241,0,0,0-1.008-.4,2.113,2.113,0,0,0-.951.2,1.862,1.862,0,0,0-.676.559v6.5h-2.424V19.418Z" fill="#fff"/>
          <rect id="Rectángulo_40995" data-name="Rectángulo 40995" width="122.4" height="36.72" transform="translate(312.522 94.76)" fill="#fff"/>
          <rect id="Rectángulo_40996" data-name="Rectángulo 40996" width="123" height="38" transform="translate(312.26 94.5)" fill="none" stroke="#500c75" stroke-width="1"/>
          <rect id="Rectángulo_40997" data-name="Rectángulo 40997" width="1.644" height="12.086" transform="translate(327.113 106.314)"/>
          <path id="Trazado_213700" data-name="Trazado 213700" d="M332.991,109.418l.115,1.337a3.246,3.246,0,0,1,1.125-1.108,3,3,0,0,1,1.54-.4,2.926,2.926,0,0,1,2.249.851,3.731,3.731,0,0,1,.8,2.627V118.4h-1.635v-5.636a2.433,2.433,0,0,0-.468-1.685,1.88,1.88,0,0,0-1.432-.5,2.535,2.535,0,0,0-1.283.3,2.2,2.2,0,0,0-.834.85V118.4H331.53v-8.981Z"/>
          <path id="Trazado_213701" data-name="Trazado 213701" d="M343.466,107.251v2.167h1.7v1.212h-1.7v5.453a1.225,1.225,0,0,0,.262.889.944.944,0,0,0,.693.258,1.469,1.469,0,0,0,.316-.039,2.021,2.021,0,0,0,.29-.079l.224,1.121a1.45,1.45,0,0,1-.539.246,2.753,2.753,0,0,1-.706.094,2.117,2.117,0,0,1-1.585-.6,2.616,2.616,0,0,1-.59-1.889V110.63H340.4v-1.212h1.428v-2.167Z"/>
          <path id="Trazado_213702" data-name="Trazado 213702" d="M351.169,110.862l-.839-.049a1.872,1.872,0,0,0-1.092.308,1.954,1.954,0,0,0-.684.863V118.4h-1.635v-8.981h1.461l.157,1.31a3.134,3.134,0,0,1,.943-1.087,2.207,2.207,0,0,1,1.291-.389,2.041,2.041,0,0,1,.347.028,2.746,2.746,0,0,1,.275.062Z"/>
          <path id="Trazado_213703" data-name="Trazado 213703" d="M352.322,113.825a4.946,4.946,0,0,1,1.08-3.282,3.619,3.619,0,0,1,2.93-1.291,3.656,3.656,0,0,1,2.951,1.286,4.932,4.932,0,0,1,1.083,3.287v.184a4.917,4.917,0,0,1-1.079,3.287,4.019,4.019,0,0,1-5.881,0,4.91,4.91,0,0,1-1.084-3.282Zm1.636.184a4.254,4.254,0,0,0,.6,2.357,2.173,2.173,0,0,0,3.565,0,4.238,4.238,0,0,0,.605-2.357v-.184a4.227,4.227,0,0,0-.609-2.348,2,2,0,0,0-1.789-.939,1.974,1.974,0,0,0-1.772.939,4.26,4.26,0,0,0-.6,2.348Z"/>
          <path id="Trazado_213704" data-name="Trazado 213704" d="M361.993,114.075a6,6,0,0,1,.926-3.495,2.98,2.98,0,0,1,2.594-1.328,3.223,3.223,0,0,1,1.4.29,2.872,2.872,0,0,1,1.042.848v-4.94h1.635V118.4h-1.253l-.249-1.136a2.91,2.91,0,0,1-1.088.978,3.234,3.234,0,0,1-1.5.332,3.081,3.081,0,0,1-2.573-1.19,4.95,4.95,0,0,1-.93-3.134Zm1.636.174a3.812,3.812,0,0,0,.556,2.179,1.941,1.941,0,0,0,1.726.817,2.16,2.16,0,0,0,1.229-.332,2.47,2.47,0,0,0,.813-.93v-4.191a2.513,2.513,0,0,0-.817-.884,2.157,2.157,0,0,0-1.208-.328,1.867,1.867,0,0,0-1.739.972,5.013,5.013,0,0,0-.56,2.523Z"/>
          <path id="Trazado_213705" data-name="Trazado 213705" d="M377.732,117.071a3.049,3.049,0,0,1-1.087,1.113,2.987,2.987,0,0,1-1.536.389,2.886,2.886,0,0,1-2.291-.938,4.352,4.352,0,0,1-.821-2.921v-5.295h1.634v5.312a3.336,3.336,0,0,0,.424,1.975,1.574,1.574,0,0,0,1.32.539,2.691,2.691,0,0,0,1.44-.352,2.206,2.206,0,0,0,.859-1v-6.474h1.635v8.98H377.84Z"/>
          <path id="Trazado_213706" data-name="Trazado 213706" d="M385.26,117.3a1.922,1.922,0,0,0,1.32-.5,1.587,1.587,0,0,0,.565-1.232h1.477l.025.049a2.581,2.581,0,0,1-1,2.063,3.808,3.808,0,0,1-5.313-.386,4.972,4.972,0,0,1-1.029-3.2v-.349a4.942,4.942,0,0,1,1.034-3.191,3.523,3.523,0,0,1,2.917-1.291,3.391,3.391,0,0,1,2.462.93,2.949,2.949,0,0,1,.925,2.282l-.016.051h-1.486a1.987,1.987,0,0,0-.535-1.4,1.767,1.767,0,0,0-1.35-.577,1.888,1.888,0,0,0-1.755.935,4.367,4.367,0,0,0-.552,2.261v.349a4.46,4.46,0,0,0,.543,2.283,1.891,1.891,0,0,0,1.764.93"/>
          <path id="Trazado_213707" data-name="Trazado 213707" d="M394.159,117.3a1.92,1.92,0,0,0,1.319-.5,1.587,1.587,0,0,0,.565-1.232h1.478l.025.049a2.579,2.579,0,0,1-1,2.063,3.808,3.808,0,0,1-5.313-.386,4.972,4.972,0,0,1-1.029-3.2v-.349a4.942,4.942,0,0,1,1.034-3.191,3.525,3.525,0,0,1,2.918-1.291,3.39,3.39,0,0,1,2.461.93,2.95,2.95,0,0,1,.926,2.282l-.017.051h-1.486a1.983,1.983,0,0,0-.535-1.4,1.765,1.765,0,0,0-1.349-.577,1.887,1.887,0,0,0-1.755.935,4.357,4.357,0,0,0-.552,2.261v.349a4.46,4.46,0,0,0,.543,2.283,1.89,1.89,0,0,0,1.764.93"/>
          <path id="Trazado_213708" data-name="Trazado 213708" d="M401.256,107.118h-1.635V105.45h1.635Zm0,11.282h-1.635v-8.981h1.635Z"/>
          <path id="Trazado_213709" data-name="Trazado 213709" d="M403.389,113.826a4.939,4.939,0,0,1,1.08-3.282,3.613,3.613,0,0,1,2.929-1.291,3.653,3.653,0,0,1,2.951,1.286,4.931,4.931,0,0,1,1.083,3.287v.183a4.922,4.922,0,0,1-1.079,3.288,4.017,4.017,0,0,1-5.88,0,4.91,4.91,0,0,1-1.084-3.283Zm1.635.183a4.255,4.255,0,0,0,.6,2.358,2.173,2.173,0,0,0,3.565,0,4.231,4.231,0,0,0,.606-2.358v-.183a4.221,4.221,0,0,0-.61-2.349,2,2,0,0,0-1.789-.938,1.973,1.973,0,0,0-1.772.938,4.261,4.261,0,0,0-.6,2.349Zm3.179-8.4h1.91l.016.049-2.233,2.158h-1.228Z"/>
          <path id="Trazado_213710" data-name="Trazado 213710" d="M414.895,109.418l.115,1.337a3.246,3.246,0,0,1,1.125-1.108,3,3,0,0,1,1.54-.4,2.926,2.926,0,0,1,2.249.851,3.731,3.731,0,0,1,.8,2.627V118.4h-1.635v-5.636a2.434,2.434,0,0,0-.468-1.685,1.88,1.88,0,0,0-1.432-.5,2.535,2.535,0,0,0-1.283.3,2.2,2.2,0,0,0-.834.85V118.4h-1.635v-8.981Z"/>
          <path id="Trazado_213711" data-name="Trazado 213711" d="M636.93,277.16h-3.984v10.8h-1.635v-10.8h-3.936v-1.287h9.555Z"/>
          <path id="Trazado_213712" data-name="Trazado 213712" d="M640.193,276.678h-1.635V275.01h1.635Zm0,11.281h-1.635v-8.981h1.635Z"/>
          <path id="Trazado_213713" data-name="Trazado 213713" d="M650.361,283.809a4.95,4.95,0,0,1-.93,3.134,3.072,3.072,0,0,1-2.564,1.19,3.57,3.57,0,0,1-1.457-.277,2.8,2.8,0,0,1-1.067-.834v4.39h-1.635V278.978h1.253l.257,1.162a2.961,2.961,0,0,1,1.1-.987,3.258,3.258,0,0,1,1.527-.341,2.984,2.984,0,0,1,2.595,1.324,5.991,5.991,0,0,1,.925,3.5Zm-1.635-.174a4.744,4.744,0,0,0-.6-2.512,1.951,1.951,0,0,0-1.772-.983,2.182,2.182,0,0,0-1.2.319,2.39,2.39,0,0,0-.8.876v4.341a2.327,2.327,0,0,0,.8.868,2.265,2.265,0,0,0,1.221.312,2.011,2.011,0,0,0,1.759-.852,3.731,3.731,0,0,0,.6-2.2Z"/>
          <path id="Trazado_213714" data-name="Trazado 213714" d="M651.987,283.385a4.946,4.946,0,0,1,1.08-3.282,3.619,3.619,0,0,1,2.93-1.291,3.656,3.656,0,0,1,2.951,1.286,4.933,4.933,0,0,1,1.083,3.287v.184a4.917,4.917,0,0,1-1.079,3.287,4.019,4.019,0,0,1-5.881,0,4.91,4.91,0,0,1-1.084-3.282Zm1.636.184a4.254,4.254,0,0,0,.6,2.357,2.173,2.173,0,0,0,3.565,0,4.238,4.238,0,0,0,.605-2.357v-.184a4.228,4.228,0,0,0-.609-2.348A2,2,0,0,0,656,280.1a1.974,1.974,0,0,0-1.772.939,4.26,4.26,0,0,0-.6,2.348Z"/>
          <path id="Trazado_213715" data-name="Trazado 213715" d="M667.253,285.543a1.089,1.089,0,0,0-.411-.879,3.95,3.95,0,0,0-1.556-.6,6.521,6.521,0,0,1-2.436-.955,1.925,1.925,0,0,1-.851-1.643,2.366,2.366,0,0,1,.934-1.876,4.12,4.12,0,0,1,4.892.05,2.381,2.381,0,0,1,.906,1.934l-.017.049h-1.561a1.416,1.416,0,0,0-.51-1.054,1.826,1.826,0,0,0-1.29-.473,1.864,1.864,0,0,0-1.291.39,1.216,1.216,0,0,0-.428.93.987.987,0,0,0,.369.822,4.107,4.107,0,0,0,1.523.532,6.429,6.429,0,0,1,2.507.987,1.986,1.986,0,0,1,.855,1.669,2.366,2.366,0,0,1-.967,1.95,3.986,3.986,0,0,1-2.527.755,3.945,3.945,0,0,1-2.706-.871,2.487,2.487,0,0,1-.939-2.033l.018-.051h1.56a1.511,1.511,0,0,0,.647,1.274,2.5,2.5,0,0,0,1.42.4,2.236,2.236,0,0,0,1.365-.37,1.128,1.128,0,0,0,.494-.942"/>
          <path id="Trazado_213716" data-name="Trazado 213716" d="M82.575,286.332a3.881,3.881,0,0,1-1.5,1.236,5.9,5.9,0,0,1-2.768.565,4.666,4.666,0,0,1-3.462-1.386,4.884,4.884,0,0,1-1.37-3.586v-2.49a4.986,4.986,0,0,1,1.321-3.586,5.05,5.05,0,0,1,6.59-.312,3.451,3.451,0,0,1,1.138,2.736l-.017.05H80.94a2.532,2.532,0,0,0-.714-1.839,2.692,2.692,0,0,0-2.025-.735,2.74,2.74,0,0,0-2.233,1.038,4.023,4.023,0,0,0-.846,2.631v2.507a3.924,3.924,0,0,0,.9,2.652,2.888,2.888,0,0,0,2.291,1.042,4.257,4.257,0,0,0,1.7-.278,2.432,2.432,0,0,0,.933-.66v-2.723H78.2v-1.278h4.374Z"/>
          <path id="Trazado_213717" data-name="Trazado 213717" d="M88.893,288.133a3.8,3.8,0,0,1-3.018-1.236,4.76,4.76,0,0,1-1.084-3.254v-.365a4.665,4.665,0,0,1,1.117-3.2,3.505,3.505,0,0,1,2.727-1.265,3.261,3.261,0,0,1,2.7,1.12,4.616,4.616,0,0,1,.9,2.98v.864H86.493l-.024.041a3.708,3.708,0,0,0,.6,2.2,2.086,2.086,0,0,0,1.826.843,4.1,4.1,0,0,0,1.456-.237,3.253,3.253,0,0,0,1.075-.652l.639,1.063a3.941,3.941,0,0,1-1.27.784,5.055,5.055,0,0,1-1.9.319m-.258-8.035a1.779,1.779,0,0,0-1.415.66,3.114,3.114,0,0,0-.685,1.69l.016.041H90.6v-.133a2.611,2.611,0,0,0-.481-1.618,1.741,1.741,0,0,0-1.486-.64"/>
          <path id="Trazado_213718" data-name="Trazado 213718" d="M95.534,278.978l.115,1.337a3.246,3.246,0,0,1,1.125-1.108,3,3,0,0,1,1.54-.395,2.926,2.926,0,0,1,2.249.851,3.731,3.731,0,0,1,.8,2.627v5.669H99.725v-5.636a2.434,2.434,0,0,0-.468-1.685,1.88,1.88,0,0,0-1.432-.5,2.535,2.535,0,0,0-1.283.3,2.2,2.2,0,0,0-.834.85v6.666H94.073v-8.981Z"/>
          <path id="Trazado_213719" data-name="Trazado 213719" d="M107.454,288.133a3.8,3.8,0,0,1-3.018-1.236,4.76,4.76,0,0,1-1.084-3.254v-.365a4.665,4.665,0,0,1,1.117-3.2,3.505,3.505,0,0,1,2.727-1.265,3.261,3.261,0,0,1,2.7,1.12,4.616,4.616,0,0,1,.9,2.98v.864h-5.745l-.024.041a3.708,3.708,0,0,0,.6,2.2,2.086,2.086,0,0,0,1.826.843,4.1,4.1,0,0,0,1.456-.237,3.253,3.253,0,0,0,1.075-.652l.639,1.063a3.941,3.941,0,0,1-1.27.784,5.055,5.055,0,0,1-1.9.319M107.2,280.1a1.779,1.779,0,0,0-1.415.66,3.115,3.115,0,0,0-.685,1.69l.016.041h4.051v-.133a2.611,2.611,0,0,0-.481-1.618,1.741,1.741,0,0,0-1.486-.64"/>
          <path id="Trazado_213720" data-name="Trazado 213720" d="M116.883,280.422l-.839-.05a1.872,1.872,0,0,0-1.092.308,1.96,1.96,0,0,0-.684.863v6.416h-1.635v-8.981h1.461l.157,1.311a3.129,3.129,0,0,1,.943-1.088,2.207,2.207,0,0,1,1.291-.389,1.943,1.943,0,0,1,.347.029,2.517,2.517,0,0,1,.275.061Z"/>
          <path id="Trazado_213721" data-name="Trazado 213721" d="M124.1,287.959q-.084-.407-.129-.717a5.487,5.487,0,0,1-.054-.627,3.806,3.806,0,0,1-1.191,1.083,3.039,3.039,0,0,1-1.581.435,2.935,2.935,0,0,1-2.138-.718,2.641,2.641,0,0,1-.734-1.979,2.319,2.319,0,0,1,1.042-2.013,4.864,4.864,0,0,1,2.826-.726h1.776v-.888a1.65,1.65,0,0,0-.481-1.25,1.894,1.894,0,0,0-1.362-.461,1.981,1.981,0,0,0-1.287.4,1.2,1.2,0,0,0-.489.956l-1.552.016-.017-.05a2.15,2.15,0,0,1,.918-1.793,3.8,3.8,0,0,1,2.519-.813,3.711,3.711,0,0,1,2.457.776,2.753,2.753,0,0,1,.93,2.237v4.325a8.446,8.446,0,0,0,.049.929,4.812,4.812,0,0,0,.183.88Zm-2.715-1.2a2.907,2.907,0,0,0,1.6-.457,2.165,2.165,0,0,0,.929-1.045V283.8h-1.835a2.381,2.381,0,0,0-1.581.5,1.49,1.49,0,0,0-.593,1.17,1.229,1.229,0,0,0,.373.946,1.564,1.564,0,0,0,1.1.349"/>
          <rect id="Rectángulo_40998" data-name="Rectángulo 40998" width="1.635" height="12.949" transform="translate(128.064 275.01)"/>
          <path id="Trazado_213722" data-name="Trazado 213722" d="M133.982,276.678h-1.635V275.01h1.635Zm0,11.281h-1.635v-8.981h1.635Z"/>
          <path id="Trazado_213723" data-name="Trazado 213723" d="M136.123,283.635a6,6,0,0,1,.926-3.495,2.98,2.98,0,0,1,2.594-1.328,3.223,3.223,0,0,1,1.4.29,2.872,2.872,0,0,1,1.042.848v-4.94h1.635v12.949h-1.253l-.249-1.136a2.91,2.91,0,0,1-1.088.978,3.234,3.234,0,0,1-1.5.332,3.081,3.081,0,0,1-2.573-1.19,4.95,4.95,0,0,1-.93-3.134Zm1.636.174a3.812,3.812,0,0,0,.556,2.179,1.941,1.941,0,0,0,1.726.817,2.16,2.16,0,0,0,1.229-.332,2.47,2.47,0,0,0,.813-.93v-4.191a2.513,2.513,0,0,0-.817-.884,2.157,2.157,0,0,0-1.208-.328,1.867,1.867,0,0,0-1.739.972,5.013,5.013,0,0,0-.56,2.523Z"/>
          <path id="Trazado_213724" data-name="Trazado 213724" d="M151.679,287.959q-.084-.407-.129-.717a5.486,5.486,0,0,1-.054-.627A3.806,3.806,0,0,1,150.3,287.7a3.039,3.039,0,0,1-1.581.435,2.935,2.935,0,0,1-2.138-.718,2.641,2.641,0,0,1-.734-1.979,2.319,2.319,0,0,1,1.042-2.013,4.864,4.864,0,0,1,2.826-.726H151.5v-.888a1.65,1.65,0,0,0-.481-1.25,1.894,1.894,0,0,0-1.362-.461,1.981,1.981,0,0,0-1.287.4,1.2,1.2,0,0,0-.489.956l-1.552.016-.017-.05a2.15,2.15,0,0,1,.918-1.793,3.8,3.8,0,0,1,2.519-.813,3.711,3.711,0,0,1,2.457.776,2.753,2.753,0,0,1,.93,2.237v4.325a8.447,8.447,0,0,0,.049.929,4.813,4.813,0,0,0,.183.88Zm-2.715-1.2a2.907,2.907,0,0,0,1.6-.457,2.165,2.165,0,0,0,.929-1.045V283.8h-1.835a2.381,2.381,0,0,0-1.581.5,1.49,1.49,0,0,0-.593,1.17,1.229,1.229,0,0,0,.373.946,1.564,1.564,0,0,0,1.1.349"/>
          <path id="Trazado_213725" data-name="Trazado 213725" d="M155.132,283.635a6,6,0,0,1,.926-3.495,2.98,2.98,0,0,1,2.594-1.328,3.223,3.223,0,0,1,1.4.29,2.872,2.872,0,0,1,1.042.848v-4.94h1.635v12.949h-1.253l-.249-1.136a2.91,2.91,0,0,1-1.088.978,3.234,3.234,0,0,1-1.5.332,3.081,3.081,0,0,1-2.573-1.19,4.95,4.95,0,0,1-.93-3.134Zm1.636.174a3.812,3.812,0,0,0,.556,2.179,1.941,1.941,0,0,0,1.726.817,2.16,2.16,0,0,0,1.229-.332,2.47,2.47,0,0,0,.813-.93v-4.191a2.513,2.513,0,0,0-.817-.884,2.157,2.157,0,0,0-1.208-.328,1.867,1.867,0,0,0-1.739.972,5.013,5.013,0,0,0-.56,2.523Z"/>
          <path id="Trazado_213726" data-name="Trazado 213726" d="M168.887,288.133a3.8,3.8,0,0,1-3.018-1.236,4.76,4.76,0,0,1-1.084-3.254v-.365a4.665,4.665,0,0,1,1.117-3.2,3.505,3.505,0,0,1,2.727-1.265,3.261,3.261,0,0,1,2.7,1.12,4.616,4.616,0,0,1,.9,2.98v.864h-5.745l-.024.041a3.708,3.708,0,0,0,.6,2.2,2.086,2.086,0,0,0,1.826.843,4.1,4.1,0,0,0,1.456-.237,3.252,3.252,0,0,0,1.075-.652l.639,1.063a3.941,3.941,0,0,1-1.27.784,5.055,5.055,0,0,1-1.9.319m-.258-8.035a1.779,1.779,0,0,0-1.415.66,3.114,3.114,0,0,0-.685,1.69l.016.041H170.6v-.133a2.611,2.611,0,0,0-.481-1.618,1.741,1.741,0,0,0-1.486-.64"/>
          <path id="Trazado_213727" data-name="Trazado 213727" d="M179.288,285.543a1.09,1.09,0,0,0-.412-.879,3.944,3.944,0,0,0-1.556-.6,6.515,6.515,0,0,1-2.435-.955,1.923,1.923,0,0,1-.852-1.643,2.366,2.366,0,0,1,.934-1.876,4.12,4.12,0,0,1,4.892.05,2.384,2.384,0,0,1,.907,1.934l-.017.049h-1.561a1.416,1.416,0,0,0-.51-1.054,1.83,1.83,0,0,0-1.291-.473,1.868,1.868,0,0,0-1.291.39,1.218,1.218,0,0,0-.427.93.987.987,0,0,0,.369.822,4.1,4.1,0,0,0,1.523.532,6.435,6.435,0,0,1,2.507.987,1.986,1.986,0,0,1,.855,1.669,2.366,2.366,0,0,1-.967,1.95,3.987,3.987,0,0,1-2.528.755,3.943,3.943,0,0,1-2.7-.871,2.488,2.488,0,0,1-.94-2.033l.018-.051h1.56a1.511,1.511,0,0,0,.647,1.274,2.508,2.508,0,0,0,1.42.4,2.241,2.241,0,0,0,1.366-.37,1.131,1.131,0,0,0,.494-.942"/>
          <path id="Trazado_213728" data-name="Trazado 213728" d="M162.557,412.612l.018.05a3.633,3.633,0,0,1-1.2,2.847,4.567,4.567,0,0,1-3.246,1.145,4.26,4.26,0,0,1-3.341-1.452,5.346,5.346,0,0,1-1.291-3.686v-2.149a5.365,5.365,0,0,1,1.291-3.691,4.26,4.26,0,0,1,3.341-1.456,4.694,4.694,0,0,1,3.262,1.091,3.616,3.616,0,0,1,1.18,2.894l-.018.049h-1.568a2.7,2.7,0,0,0-.747-2.008,2.87,2.87,0,0,0-2.109-.739,2.576,2.576,0,0,0-2.183,1.1,4.488,4.488,0,0,0-.813,2.738v2.167a4.52,4.52,0,0,0,.813,2.756,2.577,2.577,0,0,0,2.183,1.105,2.877,2.877,0,0,0,2.109-.736,2.715,2.715,0,0,0,.747-2.029Z"/>
          <rect id="Rectángulo_40999" data-name="Rectángulo 40999" width="1.635" height="12.949" transform="translate(164.608 403.531)"/>
          <path id="Trazado_213729" data-name="Trazado 213729" d="M174.278,416.479q-.084-.406-.129-.717a5.486,5.486,0,0,1-.054-.627,3.806,3.806,0,0,1-1.191,1.083,3.039,3.039,0,0,1-1.581.435,2.935,2.935,0,0,1-2.138-.718,2.641,2.641,0,0,1-.734-1.979,2.319,2.319,0,0,1,1.042-2.013,4.864,4.864,0,0,1,2.826-.726H174.1v-.888a1.65,1.65,0,0,0-.481-1.25,1.894,1.894,0,0,0-1.362-.461,1.981,1.981,0,0,0-1.287.4,1.2,1.2,0,0,0-.489.956l-1.552.016-.017-.05a2.15,2.15,0,0,1,.918-1.793,3.8,3.8,0,0,1,2.519-.813,3.711,3.711,0,0,1,2.457.776,2.753,2.753,0,0,1,.93,2.237v4.325a8.446,8.446,0,0,0,.049.929,4.812,4.812,0,0,0,.183.88Zm-2.715-1.2a2.907,2.907,0,0,0,1.6-.457,2.165,2.165,0,0,0,.929-1.045v-1.461H172.26a2.381,2.381,0,0,0-1.581.5,1.49,1.49,0,0,0-.593,1.17,1.229,1.229,0,0,0,.373.946,1.564,1.564,0,0,0,1.1.349"/>
          <path id="Trazado_213730" data-name="Trazado 213730" d="M180.977,413.831l.141.631h.05l.158-.631,2.067-6.333h1.668l-3.3,8.981H180.52l-3.345-8.981h1.677Z"/>
          <path id="Trazado_213731" data-name="Trazado 213731" d="M190.141,416.653a3.8,3.8,0,0,1-3.018-1.236,4.76,4.76,0,0,1-1.084-3.254V411.8a4.665,4.665,0,0,1,1.117-3.2,3.505,3.505,0,0,1,2.727-1.265,3.261,3.261,0,0,1,2.7,1.12,4.616,4.616,0,0,1,.9,2.98v.864h-5.745l-.024.041a3.708,3.708,0,0,0,.6,2.2,2.086,2.086,0,0,0,1.826.843,4.1,4.1,0,0,0,1.456-.237,3.252,3.252,0,0,0,1.075-.652l.639,1.063a3.941,3.941,0,0,1-1.27.784,5.056,5.056,0,0,1-1.9.319m-.258-8.035a1.779,1.779,0,0,0-1.415.66,3.114,3.114,0,0,0-.685,1.69l.016.041h4.051v-.133a2.611,2.611,0,0,0-.481-1.618,1.741,1.741,0,0,0-1.486-.64"/>
          <path id="Trazado_213732" data-name="Trazado 213732" d="M205.066,416.479q-.084-.406-.129-.717a5.489,5.489,0,0,1-.054-.627,3.806,3.806,0,0,1-1.191,1.083,3.039,3.039,0,0,1-1.581.435,2.935,2.935,0,0,1-2.138-.718,2.641,2.641,0,0,1-.734-1.979,2.319,2.319,0,0,1,1.042-2.013,4.864,4.864,0,0,1,2.826-.726h1.776v-.888a1.65,1.65,0,0,0-.481-1.25,1.894,1.894,0,0,0-1.362-.461,1.981,1.981,0,0,0-1.287.4,1.2,1.2,0,0,0-.489.956l-1.552.016-.017-.05a2.15,2.15,0,0,1,.918-1.793,3.8,3.8,0,0,1,2.519-.813,3.712,3.712,0,0,1,2.457.776,2.753,2.753,0,0,1,.93,2.237v4.325a8.45,8.45,0,0,0,.049.929,4.811,4.811,0,0,0,.183.88Zm-2.715-1.2a2.907,2.907,0,0,0,1.6-.457,2.165,2.165,0,0,0,.929-1.045v-1.461h-1.835a2.381,2.381,0,0,0-1.581.5,1.49,1.49,0,0,0-.593,1.17,1.229,1.229,0,0,0,.373.946,1.564,1.564,0,0,0,1.1.349"/>
          <path id="Trazado_213733" data-name="Trazado 213733" d="M214.114,414.064a1.089,1.089,0,0,0-.411-.879,3.951,3.951,0,0,0-1.556-.6,6.521,6.521,0,0,1-2.436-.955,1.925,1.925,0,0,1-.851-1.643,2.366,2.366,0,0,1,.934-1.876,4.12,4.12,0,0,1,4.892.05,2.381,2.381,0,0,1,.906,1.934l-.017.049h-1.561a1.416,1.416,0,0,0-.51-1.054,1.826,1.826,0,0,0-1.29-.473,1.864,1.864,0,0,0-1.291.39,1.216,1.216,0,0,0-.428.93.986.986,0,0,0,.369.822,4.106,4.106,0,0,0,1.523.532,6.428,6.428,0,0,1,2.507.987,1.986,1.986,0,0,1,.855,1.669,2.366,2.366,0,0,1-.967,1.95,3.986,3.986,0,0,1-2.527.755,3.945,3.945,0,0,1-2.706-.871,2.487,2.487,0,0,1-.939-2.033l.018-.051h1.56a1.511,1.511,0,0,0,.647,1.274,2.5,2.5,0,0,0,1.42.4,2.236,2.236,0,0,0,1.365-.37,1.128,1.128,0,0,0,.494-.942"/>
          <path id="Trazado_213734" data-name="Trazado 213734" d="M219.551,405.2h-1.635V403.53h1.635Zm0,11.282h-1.635V407.5h1.635Z"/>
          <path id="Trazado_213735" data-name="Trazado 213735" d="M223.528,407.5l.115,1.179a3.057,3.057,0,0,1,1.117-.992,3.347,3.347,0,0,1,1.573-.353,2.787,2.787,0,0,1,1.54.415,2.51,2.51,0,0,1,.967,1.245,3.36,3.36,0,0,1,1.125-1.216,2.938,2.938,0,0,1,1.623-.444,2.691,2.691,0,0,1,2.167.942,4.3,4.3,0,0,1,.8,2.834v5.371h-1.635v-5.386a3,3,0,0,0-.456-1.881,1.667,1.667,0,0,0-1.362-.552,1.731,1.731,0,0,0-1.357.581,2.524,2.524,0,0,0-.61,1.469v5.769h-1.644v-5.386a2.947,2.947,0,0,0-.469-1.848,1.627,1.627,0,0,0-1.349-.585,2.247,2.247,0,0,0-1.229.308,1.985,1.985,0,0,0-.738.863v6.648h-1.635V407.5Z"/>
          <path id="Trazado_213736" data-name="Trazado 213736" d="M240.643,416.654a3.8,3.8,0,0,1-3.018-1.237,4.755,4.755,0,0,1-1.084-3.254V411.8a4.663,4.663,0,0,1,1.117-3.2,3.5,3.5,0,0,1,2.727-1.266,3.263,3.263,0,0,1,2.7,1.12,4.627,4.627,0,0,1,.9,2.981v.863h-5.744l-.024.041a3.719,3.719,0,0,0,.6,2.2,2.091,2.091,0,0,0,1.827.842,4.109,4.109,0,0,0,1.456-.237,3.25,3.25,0,0,0,1.075-.651l.638,1.062a3.919,3.919,0,0,1-1.269.784,5.055,5.055,0,0,1-1.9.32m-.258-8.036a1.776,1.776,0,0,0-1.415.661,3.111,3.111,0,0,0-.685,1.689l.016.041h4.051v-.133a2.621,2.621,0,0,0-.481-1.618,1.741,1.741,0,0,0-1.486-.64M241,403.68h1.909l.017.05-2.234,2.158h-1.228Z"/>
          <path id="Trazado_213737" data-name="Trazado 213737" d="M248.1,405.331V407.5h1.7v1.212h-1.7v5.453a1.225,1.225,0,0,0,.262.889.944.944,0,0,0,.693.258,1.469,1.469,0,0,0,.316-.039,2.015,2.015,0,0,0,.29-.079l.224,1.121a1.45,1.45,0,0,1-.539.246,2.753,2.753,0,0,1-.706.094,2.117,2.117,0,0,1-1.585-.6,2.616,2.616,0,0,1-.59-1.889V408.71h-1.428V407.5h1.428v-2.167Z"/>
          <path id="Trazado_213738" data-name="Trazado 213738" d="M255.8,408.943l-.839-.05a1.872,1.872,0,0,0-1.092.308,1.96,1.96,0,0,0-.684.863v6.416h-1.635V407.5h1.461l.157,1.311a3.129,3.129,0,0,1,.943-1.088,2.207,2.207,0,0,1,1.291-.389,1.943,1.943,0,0,1,.347.029,2.524,2.524,0,0,1,.275.061Z"/>
          <path id="Trazado_213739" data-name="Trazado 213739" d="M259.27,405.2h-1.635V403.53h1.635Zm0,11.282h-1.635V407.5h1.635Z"/>
          <path id="Trazado_213740" data-name="Trazado 213740" d="M265.354,415.376a1.922,1.922,0,0,0,1.32-.5,1.587,1.587,0,0,0,.565-1.232h1.477l.025.049a2.581,2.581,0,0,1-1,2.063,3.808,3.808,0,0,1-5.313-.386,4.972,4.972,0,0,1-1.029-3.2v-.349a4.942,4.942,0,0,1,1.034-3.191,3.523,3.523,0,0,1,2.917-1.291,3.391,3.391,0,0,1,2.462.93,2.949,2.949,0,0,1,.925,2.282l-.016.051h-1.486a1.988,1.988,0,0,0-.535-1.4,1.767,1.767,0,0,0-1.35-.577,1.888,1.888,0,0,0-1.755.935,4.367,4.367,0,0,0-.552,2.261v.349a4.46,4.46,0,0,0,.543,2.283,1.891,1.891,0,0,0,1.764.93"/>
          <path id="Trazado_213741" data-name="Trazado 213741" d="M276.2,416.479q-.084-.406-.129-.717a5.489,5.489,0,0,1-.054-.627,3.805,3.805,0,0,1-1.191,1.083,3.039,3.039,0,0,1-1.581.435,2.935,2.935,0,0,1-2.138-.718,2.641,2.641,0,0,1-.734-1.979,2.319,2.319,0,0,1,1.042-2.013,4.864,4.864,0,0,1,2.826-.726h1.776v-.888a1.65,1.65,0,0,0-.481-1.25,1.894,1.894,0,0,0-1.362-.461,1.981,1.981,0,0,0-1.287.4,1.2,1.2,0,0,0-.489.956l-1.552.016-.017-.05a2.15,2.15,0,0,1,.918-1.793,3.8,3.8,0,0,1,2.519-.813,3.711,3.711,0,0,1,2.457.776,2.753,2.753,0,0,1,.93,2.237v4.325a8.45,8.45,0,0,0,.049.929,4.812,4.812,0,0,0,.183.88Zm-2.715-1.2a2.907,2.907,0,0,0,1.6-.457,2.165,2.165,0,0,0,.929-1.045v-1.461h-1.835a2.381,2.381,0,0,0-1.581.5,1.49,1.49,0,0,0-.593,1.17,1.229,1.229,0,0,0,.373.946,1.564,1.564,0,0,0,1.1.349"/>
          <path id="Trazado_213742" data-name="Trazado 213742" d="M167.23,488.211l.018.05a3.633,3.633,0,0,1-1.2,2.847,4.567,4.567,0,0,1-3.246,1.145,4.26,4.26,0,0,1-3.341-1.452,5.346,5.346,0,0,1-1.291-3.686v-2.149a5.365,5.365,0,0,1,1.291-3.691,4.26,4.26,0,0,1,3.341-1.456,4.694,4.694,0,0,1,3.262,1.091,3.615,3.615,0,0,1,1.18,2.894l-.018.049h-1.568a2.7,2.7,0,0,0-.747-2.008,2.87,2.87,0,0,0-2.109-.739,2.576,2.576,0,0,0-2.183,1.1,4.488,4.488,0,0,0-.813,2.738v2.167a4.52,4.52,0,0,0,.813,2.756,2.577,2.577,0,0,0,2.183,1.105,2.877,2.877,0,0,0,2.109-.736,2.715,2.715,0,0,0,.747-2.029Z"/>
          <rect id="Rectángulo_41000" data-name="Rectángulo 41000" width="1.635" height="12.949" transform="translate(169.281 479.13)"/>
          <path id="Trazado_213743" data-name="Trazado 213743" d="M178.952,492.079q-.084-.406-.129-.717a5.486,5.486,0,0,1-.054-.627,3.806,3.806,0,0,1-1.191,1.083,3.039,3.039,0,0,1-1.581.435,2.935,2.935,0,0,1-2.138-.718,2.641,2.641,0,0,1-.734-1.979,2.319,2.319,0,0,1,1.042-2.013,4.864,4.864,0,0,1,2.826-.726h1.776v-.888a1.65,1.65,0,0,0-.481-1.25,1.894,1.894,0,0,0-1.362-.461,1.981,1.981,0,0,0-1.287.4,1.2,1.2,0,0,0-.489.956l-1.552.016-.017-.05a2.15,2.15,0,0,1,.918-1.793,3.8,3.8,0,0,1,2.519-.813,3.712,3.712,0,0,1,2.457.776,2.753,2.753,0,0,1,.93,2.237v4.325a8.45,8.45,0,0,0,.049.929,4.813,4.813,0,0,0,.183.88Zm-2.715-1.2a2.907,2.907,0,0,0,1.6-.457,2.165,2.165,0,0,0,.929-1.045v-1.461h-1.835a2.381,2.381,0,0,0-1.581.5,1.49,1.49,0,0,0-.593,1.17,1.229,1.229,0,0,0,.373.946,1.564,1.564,0,0,0,1.1.349"/>
          <path id="Trazado_213744" data-name="Trazado 213744" d="M185.65,489.431l.141.631h.05l.158-.631,2.067-6.333h1.668l-3.3,8.981h-1.237l-3.345-8.981h1.677Z"/>
          <path id="Trazado_213745" data-name="Trazado 213745" d="M194.815,492.253a3.8,3.8,0,0,1-3.018-1.236,4.76,4.76,0,0,1-1.084-3.254V487.4a4.665,4.665,0,0,1,1.117-3.2,3.505,3.505,0,0,1,2.727-1.265,3.261,3.261,0,0,1,2.7,1.12,4.616,4.616,0,0,1,.9,2.98v.864h-5.745l-.024.041a3.708,3.708,0,0,0,.6,2.2,2.086,2.086,0,0,0,1.826.843,4.1,4.1,0,0,0,1.456-.237,3.252,3.252,0,0,0,1.075-.652l.639,1.063a3.941,3.941,0,0,1-1.27.784,5.055,5.055,0,0,1-1.9.319m-.258-8.035a1.779,1.779,0,0,0-1.415.66,3.115,3.115,0,0,0-.685,1.69l.016.041h4.051v-.133a2.611,2.611,0,0,0-.481-1.618,1.741,1.741,0,0,0-1.486-.64"/>
          <path id="Trazado_213746" data-name="Trazado 213746" d="M209.44,489.663a1.089,1.089,0,0,0-.411-.879,3.951,3.951,0,0,0-1.556-.6,6.52,6.52,0,0,1-2.436-.955,1.925,1.925,0,0,1-.851-1.643,2.366,2.366,0,0,1,.934-1.876,4.12,4.12,0,0,1,4.892.05,2.381,2.381,0,0,1,.906,1.934l-.017.049H209.34a1.416,1.416,0,0,0-.51-1.054,1.826,1.826,0,0,0-1.29-.473,1.864,1.864,0,0,0-1.291.39,1.216,1.216,0,0,0-.428.93.986.986,0,0,0,.369.822,4.106,4.106,0,0,0,1.523.532,6.428,6.428,0,0,1,2.507.987,1.986,1.986,0,0,1,.855,1.669,2.366,2.366,0,0,1-.967,1.95,3.986,3.986,0,0,1-2.527.755,3.945,3.945,0,0,1-2.706-.871,2.487,2.487,0,0,1-.939-2.033l.018-.051h1.56a1.511,1.511,0,0,0,.647,1.274,2.5,2.5,0,0,0,1.42.4,2.236,2.236,0,0,0,1.365-.37,1.129,1.129,0,0,0,.494-.942"/>
          <path id="Trazado_213747" data-name="Trazado 213747" d="M214.877,480.8h-1.635V479.13h1.635Zm0,11.281h-1.635V483.1h1.635Z"/>
          <path id="Trazado_213748" data-name="Trazado 213748" d="M218.854,483.1l.115,1.179a3.057,3.057,0,0,1,1.117-.992,3.347,3.347,0,0,1,1.573-.353,2.787,2.787,0,0,1,1.54.415,2.51,2.51,0,0,1,.967,1.245,3.359,3.359,0,0,1,1.125-1.216,2.938,2.938,0,0,1,1.623-.444,2.691,2.691,0,0,1,2.167.942,4.3,4.3,0,0,1,.8,2.834v5.371h-1.635v-5.386a3,3,0,0,0-.456-1.881,1.667,1.667,0,0,0-1.362-.552,1.731,1.731,0,0,0-1.357.581,2.524,2.524,0,0,0-.61,1.469v5.769h-1.644v-5.386a2.947,2.947,0,0,0-.469-1.848,1.627,1.627,0,0,0-1.349-.585,2.247,2.247,0,0,0-1.229.308,1.985,1.985,0,0,0-.738.863v6.648h-1.635V483.1Z"/>
          <path id="Trazado_213749" data-name="Trazado 213749" d="M235.969,492.253a3.8,3.8,0,0,1-3.018-1.237,4.76,4.76,0,0,1-1.084-3.254V487.4a4.663,4.663,0,0,1,1.117-3.2,3.5,3.5,0,0,1,2.727-1.266,3.261,3.261,0,0,1,2.7,1.12,4.627,4.627,0,0,1,.9,2.981v.863h-5.744l-.024.041a3.719,3.719,0,0,0,.6,2.2,2.091,2.091,0,0,0,1.827.842,4.109,4.109,0,0,0,1.456-.237,3.25,3.25,0,0,0,1.075-.651l.638,1.062a3.919,3.919,0,0,1-1.269.784,5.055,5.055,0,0,1-1.9.32m-.258-8.036a1.776,1.776,0,0,0-1.415.661,3.111,3.111,0,0,0-.685,1.689l.016.041h4.051v-.133a2.621,2.621,0,0,0-.481-1.618,1.739,1.739,0,0,0-1.486-.64m.615-4.938h1.908l.017.05-2.234,2.158h-1.228Z"/>
          <path id="Trazado_213750" data-name="Trazado 213750" d="M243.422,480.931V483.1h1.7v1.212h-1.7v5.453a1.225,1.225,0,0,0,.262.889.944.944,0,0,0,.693.258,1.469,1.469,0,0,0,.316-.039,2.019,2.019,0,0,0,.29-.079l.224,1.121a1.45,1.45,0,0,1-.539.246,2.754,2.754,0,0,1-.706.094,2.117,2.117,0,0,1-1.585-.6,2.616,2.616,0,0,1-.59-1.889V484.31h-1.428V483.1h1.428v-2.167Z"/>
          <path id="Trazado_213751" data-name="Trazado 213751" d="M251.127,484.542l-.839-.05a1.872,1.872,0,0,0-1.092.308,1.96,1.96,0,0,0-.684.863v6.416h-1.635V483.1h1.461l.157,1.311a3.128,3.128,0,0,1,.943-1.088,2.207,2.207,0,0,1,1.291-.389,1.943,1.943,0,0,1,.347.029,2.524,2.524,0,0,1,.275.061Z"/>
          <path id="Trazado_213752" data-name="Trazado 213752" d="M254.6,480.8h-1.635V479.13H254.6Zm0,11.281h-1.635V483.1H254.6Z"/>
          <path id="Trazado_213753" data-name="Trazado 213753" d="M260.68,490.976a1.922,1.922,0,0,0,1.32-.5,1.587,1.587,0,0,0,.565-1.232h1.477l.025.049a2.581,2.581,0,0,1-1,2.063,3.808,3.808,0,0,1-5.313-.386,4.972,4.972,0,0,1-1.029-3.2v-.349a4.942,4.942,0,0,1,1.034-3.191,3.523,3.523,0,0,1,2.917-1.291,3.391,3.391,0,0,1,2.462.93,2.949,2.949,0,0,1,.925,2.282l-.016.051h-1.486a1.988,1.988,0,0,0-.535-1.4,1.767,1.767,0,0,0-1.35-.577,1.888,1.888,0,0,0-1.755.935,4.367,4.367,0,0,0-.552,2.261v.349a4.46,4.46,0,0,0,.543,2.283,1.891,1.891,0,0,0,1.764.93"/>
          <path id="Trazado_213754" data-name="Trazado 213754" d="M271.53,492.079q-.084-.406-.129-.717a5.489,5.489,0,0,1-.054-.627,3.806,3.806,0,0,1-1.191,1.083,3.039,3.039,0,0,1-1.581.435,2.935,2.935,0,0,1-2.138-.718,2.641,2.641,0,0,1-.734-1.979,2.319,2.319,0,0,1,1.042-2.013,4.864,4.864,0,0,1,2.826-.726h1.776v-.888a1.65,1.65,0,0,0-.481-1.25,1.894,1.894,0,0,0-1.362-.461,1.981,1.981,0,0,0-1.287.4,1.2,1.2,0,0,0-.489.956l-1.552.016-.017-.05a2.15,2.15,0,0,1,.918-1.793,3.8,3.8,0,0,1,2.519-.813,3.711,3.711,0,0,1,2.457.776,2.753,2.753,0,0,1,.93,2.237v4.325a8.443,8.443,0,0,0,.049.929,4.813,4.813,0,0,0,.183.88Zm-2.715-1.2a2.907,2.907,0,0,0,1.6-.457,2.165,2.165,0,0,0,.929-1.045v-1.461h-1.835a2.381,2.381,0,0,0-1.581.5,1.49,1.49,0,0,0-.593,1.17,1.229,1.229,0,0,0,.373.946,1.564,1.564,0,0,0,1.1.349"/>
          <rect id="Rectángulo_41001" data-name="Rectángulo 41001" width="190.102" height="56" transform="translate(132.5 580.1)" fill="none" stroke="#500c75" stroke-width="1"/>
          <path id="Trazado_213755" data-name="Trazado 213755" d="M93.831,545.48v65.408H132.3" fill="none" stroke="#500c75" stroke-width="1"/>
          <path id="Trazado_213756" data-name="Trazado 213756" d="M149.518,611.331l.018.05a3.633,3.633,0,0,1-1.2,2.847,4.567,4.567,0,0,1-3.246,1.145,4.26,4.26,0,0,1-3.341-1.452,5.346,5.346,0,0,1-1.291-3.686v-2.149a5.364,5.364,0,0,1,1.291-3.691,4.26,4.26,0,0,1,3.341-1.456,4.694,4.694,0,0,1,3.262,1.091,3.615,3.615,0,0,1,1.18,2.894l-.018.049H147.95a2.7,2.7,0,0,0-.747-2.008,2.87,2.87,0,0,0-2.109-.739,2.576,2.576,0,0,0-2.183,1.1,4.488,4.488,0,0,0-.813,2.738v2.167a4.521,4.521,0,0,0,.813,2.756,2.577,2.577,0,0,0,2.183,1.1,2.877,2.877,0,0,0,2.109-.736,2.715,2.715,0,0,0,.747-2.029Z"/>
          <path id="Trazado_213757" data-name="Trazado 213757" d="M153.2,603.918h-1.635V602.25H153.2Zm0,11.281h-1.635v-8.981H153.2Z"/>
          <path id="Trazado_213758" data-name="Trazado 213758" d="M156.4,615.2v-7.77H155v-1.211h1.4V605.08a3.081,3.081,0,0,1,.752-2.22,2.764,2.764,0,0,1,2.1-.784,3.647,3.647,0,0,1,.568.045c.191.03.4.073.635.129l-.2,1.245a3.3,3.3,0,0,0-.361-.058,3.707,3.707,0,0,0-.444-.025,1.289,1.289,0,0,0-1.063.428,1.922,1.922,0,0,0-.348,1.24v1.138h1.627v1.211h-1.627v7.77Z"/>
          <path id="Trazado_213759" data-name="Trazado 213759" d="M165.565,607.662l-.839-.05a1.872,1.872,0,0,0-1.092.308,1.96,1.96,0,0,0-.684.863V615.2h-1.635v-8.981h1.461l.157,1.311a3.129,3.129,0,0,1,.943-1.088,2.207,2.207,0,0,1,1.291-.389,1.94,1.94,0,0,1,.347.029,2.5,2.5,0,0,1,.275.061Z"/>
          <path id="Trazado_213760" data-name="Trazado 213760" d="M172.786,615.2q-.084-.406-.129-.717a5.486,5.486,0,0,1-.054-.627,3.806,3.806,0,0,1-1.191,1.083,3.039,3.039,0,0,1-1.581.435,2.935,2.935,0,0,1-2.138-.718,2.641,2.641,0,0,1-.734-1.979A2.319,2.319,0,0,1,168,610.663a4.864,4.864,0,0,1,2.826-.726H172.6v-.888a1.65,1.65,0,0,0-.481-1.25,1.894,1.894,0,0,0-1.362-.461,1.981,1.981,0,0,0-1.287.4,1.2,1.2,0,0,0-.489.956l-1.552.016-.017-.05a2.15,2.15,0,0,1,.918-1.793,3.8,3.8,0,0,1,2.519-.813,3.711,3.711,0,0,1,2.457.776,2.753,2.753,0,0,1,.93,2.237v4.325a8.449,8.449,0,0,0,.049.929,4.812,4.812,0,0,0,.183.88ZM170.071,614a2.907,2.907,0,0,0,1.6-.457,2.165,2.165,0,0,0,.929-1.045v-1.461h-1.835a2.38,2.38,0,0,0-1.581.5,1.49,1.49,0,0,0-.593,1.17,1.23,1.23,0,0,0,.373.946,1.565,1.565,0,0,0,1.1.349"/>
          <path id="Trazado_213761" data-name="Trazado 213761" d="M176.238,610.875a6,6,0,0,1,.926-3.495,2.98,2.98,0,0,1,2.594-1.328,3.223,3.223,0,0,1,1.4.29,2.872,2.872,0,0,1,1.042.848v-4.94h1.635V615.2H182.58l-.249-1.136a2.909,2.909,0,0,1-1.088.978,3.234,3.234,0,0,1-1.5.332,3.081,3.081,0,0,1-2.573-1.19,4.95,4.95,0,0,1-.93-3.134Zm1.636.174a3.812,3.812,0,0,0,.556,2.179,1.941,1.941,0,0,0,1.726.817,2.16,2.16,0,0,0,1.229-.332,2.47,2.47,0,0,0,.813-.93v-4.191a2.513,2.513,0,0,0-.817-.884,2.157,2.157,0,0,0-1.208-.328,1.867,1.867,0,0,0-1.739.972,5.013,5.013,0,0,0-.56,2.523Z"/>
          <path id="Trazado_213762" data-name="Trazado 213762" d="M185.892,610.625a4.946,4.946,0,0,1,1.08-3.282,3.619,3.619,0,0,1,2.93-1.291,3.656,3.656,0,0,1,2.951,1.286,4.932,4.932,0,0,1,1.083,3.287v.184a4.917,4.917,0,0,1-1.079,3.287,4.019,4.019,0,0,1-5.881-.005,4.91,4.91,0,0,1-1.084-3.282Zm1.636.184a4.254,4.254,0,0,0,.6,2.357,2.173,2.173,0,0,0,3.565,0,4.238,4.238,0,0,0,.6-2.357v-.184a4.228,4.228,0,0,0-.609-2.348,2,2,0,0,0-1.789-.939,1.973,1.973,0,0,0-1.772.939,4.26,4.26,0,0,0-.6,2.348Z"/>
          <path id="Trazado_213763" data-name="Trazado 213763" d="M202.91,611.871,203.2,613h.051l2.207-6.782h1.818L203.5,616.577a4.652,4.652,0,0,1-.975,1.577,2.248,2.248,0,0,1-1.715.672,3.625,3.625,0,0,1-.505-.045,4.567,4.567,0,0,1-.473-.088l.166-1.286a2.045,2.045,0,0,1,.294.017c.229.016.375.025.436.025a1.011,1.011,0,0,0,.855-.465,4.787,4.787,0,0,0,.556-1.029l.39-.938-3.337-8.8h1.826Z"/>
          <path id="Trazado_213764" data-name="Trazado 213764" d="M216.505,614.1a1.922,1.922,0,0,0,1.32-.5,1.587,1.587,0,0,0,.565-1.232h1.477l.025.049a2.581,2.581,0,0,1-1,2.063,3.808,3.808,0,0,1-5.313-.386,4.972,4.972,0,0,1-1.029-3.2v-.349a4.942,4.942,0,0,1,1.034-3.191,3.523,3.523,0,0,1,2.917-1.291,3.391,3.391,0,0,1,2.462.93,2.949,2.949,0,0,1,.925,2.282l-.016.051H218.39a1.988,1.988,0,0,0-.535-1.4,1.767,1.767,0,0,0-1.35-.577,1.888,1.888,0,0,0-1.755.935,4.367,4.367,0,0,0-.552,2.261v.349a4.46,4.46,0,0,0,.543,2.283,1.891,1.891,0,0,0,1.764.93"/>
          <path id="Trazado_213765" data-name="Trazado 213765" d="M226.085,607.662l-.839-.05a1.872,1.872,0,0,0-1.092.308,1.96,1.96,0,0,0-.684.863V615.2h-1.635v-8.981H223.3l.157,1.311a3.129,3.129,0,0,1,.943-1.088,2.207,2.207,0,0,1,1.291-.389,1.94,1.94,0,0,1,.347.029,2.5,2.5,0,0,1,.275.061Z"/>
          <path id="Trazado_213766" data-name="Trazado 213766" d="M229.555,603.918H227.92V602.25h1.635Zm0,11.281H227.92v-8.981h1.635Z"/>
          <path id="Trazado_213767" data-name="Trazado 213767" d="M239.723,611.049a4.95,4.95,0,0,1-.93,3.134,3.072,3.072,0,0,1-2.564,1.19,3.57,3.57,0,0,1-1.457-.277,2.8,2.8,0,0,1-1.067-.834v4.39H232.07V606.218h1.253l.257,1.162a2.961,2.961,0,0,1,1.1-.987,3.258,3.258,0,0,1,1.527-.341,2.984,2.984,0,0,1,2.6,1.324,5.991,5.991,0,0,1,.925,3.5Zm-1.635-.174a4.744,4.744,0,0,0-.6-2.512,1.951,1.951,0,0,0-1.772-.983,2.182,2.182,0,0,0-1.2.319,2.391,2.391,0,0,0-.8.876v4.341a2.328,2.328,0,0,0,.8.868,2.265,2.265,0,0,0,1.221.312,2.011,2.011,0,0,0,1.759-.852,3.731,3.731,0,0,0,.6-2.2Z"/>
          <path id="Trazado_213768" data-name="Trazado 213768" d="M244.006,604.051v2.167h1.7v1.212h-1.7v5.453a1.225,1.225,0,0,0,.262.889.944.944,0,0,0,.693.258,1.469,1.469,0,0,0,.316-.039,2.027,2.027,0,0,0,.29-.079l.224,1.121a1.45,1.45,0,0,1-.539.246,2.754,2.754,0,0,1-.706.094,2.117,2.117,0,0,1-1.585-.6,2.616,2.616,0,0,1-.59-1.889V607.43h-1.428v-1.212h1.428v-2.167Z"/>
          <path id="Trazado_213769" data-name="Trazado 213769" d="M247.076,610.625a4.946,4.946,0,0,1,1.08-3.282,3.619,3.619,0,0,1,2.93-1.291,3.656,3.656,0,0,1,2.951,1.286,4.932,4.932,0,0,1,1.083,3.287v.184a4.917,4.917,0,0,1-1.079,3.287,4.019,4.019,0,0,1-5.881-.005,4.91,4.91,0,0,1-1.084-3.282Zm1.636.184a4.254,4.254,0,0,0,.6,2.357,2.173,2.173,0,0,0,3.565,0,4.238,4.238,0,0,0,.6-2.357v-.184a4.228,4.228,0,0,0-.609-2.348,2,2,0,0,0-1.789-.939,1.974,1.974,0,0,0-1.772.939,4.26,4.26,0,0,0-.6,2.348Z"/>
          <path id="Trazado_213770" data-name="Trazado 213770" d="M262.641,615.2q-.084-.406-.129-.717a5.482,5.482,0,0,1-.054-.627,3.806,3.806,0,0,1-1.191,1.083,3.039,3.039,0,0,1-1.581.435,2.935,2.935,0,0,1-2.138-.718,2.641,2.641,0,0,1-.734-1.979,2.319,2.319,0,0,1,1.042-2.013,4.864,4.864,0,0,1,2.826-.726h1.776v-.888a1.65,1.65,0,0,0-.481-1.25,1.894,1.894,0,0,0-1.362-.461,1.981,1.981,0,0,0-1.287.4,1.2,1.2,0,0,0-.489.956l-1.552.016-.017-.05a2.15,2.15,0,0,1,.918-1.793,3.8,3.8,0,0,1,2.519-.813,3.711,3.711,0,0,1,2.457.776,2.753,2.753,0,0,1,.93,2.237v4.325a8.442,8.442,0,0,0,.049.929,4.812,4.812,0,0,0,.183.88ZM259.926,614a2.907,2.907,0,0,0,1.6-.457,2.165,2.165,0,0,0,.929-1.045v-1.461h-1.835a2.38,2.38,0,0,0-1.581.5,1.49,1.49,0,0,0-.593,1.17,1.23,1.23,0,0,0,.373.946,1.565,1.565,0,0,0,1.1.349"/>
          <path id="Trazado_213771" data-name="Trazado 213771" d="M267.93,606.218l.115,1.337a3.245,3.245,0,0,1,1.125-1.108,3,3,0,0,1,1.54-.4,2.927,2.927,0,0,1,2.249.851,3.731,3.731,0,0,1,.8,2.627V615.2h-1.635v-5.636a2.434,2.434,0,0,0-.468-1.685,1.88,1.88,0,0,0-1.432-.5,2.535,2.535,0,0,0-1.283.3,2.2,2.2,0,0,0-.834.85V615.2h-1.635v-8.981Z"/>
          <path id="Trazado_213772" data-name="Trazado 213772" d="M281.651,615.2c-.056-.271-.1-.511-.129-.718a5.27,5.27,0,0,1-.054-.627,3.805,3.805,0,0,1-1.191,1.083,3.044,3.044,0,0,1-1.582.436,2.934,2.934,0,0,1-2.137-.718,2.639,2.639,0,0,1-.735-1.979,2.32,2.32,0,0,1,1.042-2.013,4.869,4.869,0,0,1,2.827-.727h1.776v-.887a1.644,1.644,0,0,0-.482-1.25,1.89,1.89,0,0,0-1.361-.461,1.975,1.975,0,0,0-1.287.4,1.2,1.2,0,0,0-.489.955l-1.552.017-.018-.05a2.153,2.153,0,0,1,.918-1.793,3.807,3.807,0,0,1,2.52-.813,3.706,3.706,0,0,1,2.457.776,2.751,2.751,0,0,1,.93,2.236v4.325a8.465,8.465,0,0,0,.048.93,4.814,4.814,0,0,0,.184.88ZM278.936,614a2.912,2.912,0,0,0,1.6-.457,2.172,2.172,0,0,0,.93-1.045v-1.461h-1.835a2.379,2.379,0,0,0-1.581.5,1.487,1.487,0,0,0-.593,1.17,1.231,1.231,0,0,0,.373.946,1.566,1.566,0,0,0,1.1.349m1.4-11.6h1.909l.017.049-2.234,2.158H278.8Z"/>
          <rect id="Rectángulo_41002" data-name="Rectángulo 41002" width="1.635" height="12.949" transform="translate(285.609 602.25)"/>
          <path id="Trazado_213773" data-name="Trazado 213773" d="M291.528,603.918h-1.635V602.25h1.635Zm0,11.281h-1.635v-8.981h1.635Z"/>
          <path id="Trazado_213774" data-name="Trazado 213774" d="M299.264,612.783a1.089,1.089,0,0,0-.411-.879,3.95,3.95,0,0,0-1.556-.6,6.522,6.522,0,0,1-2.436-.955,1.925,1.925,0,0,1-.851-1.643,2.366,2.366,0,0,1,.934-1.876,4.12,4.12,0,0,1,4.892.05,2.38,2.38,0,0,1,.906,1.934l-.017.049h-1.561a1.416,1.416,0,0,0-.51-1.054,1.826,1.826,0,0,0-1.29-.473,1.864,1.864,0,0,0-1.291.39,1.216,1.216,0,0,0-.428.93.986.986,0,0,0,.369.822,4.106,4.106,0,0,0,1.523.532,6.428,6.428,0,0,1,2.507.987,1.986,1.986,0,0,1,.855,1.669,2.366,2.366,0,0,1-.967,1.95,3.986,3.986,0,0,1-2.527.755,3.945,3.945,0,0,1-2.706-.871,2.487,2.487,0,0,1-.939-2.033l.018-.051h1.56a1.511,1.511,0,0,0,.647,1.274,2.5,2.5,0,0,0,1.42.4,2.236,2.236,0,0,0,1.365-.37,1.128,1.128,0,0,0,.494-.942"/>
          <path id="Trazado_213775" data-name="Trazado 213775" d="M304.7,603.918h-1.635V602.25H304.7Zm0,11.281h-1.635v-8.981H304.7Z"/>
          <path id="Trazado_213776" data-name="Trazado 213776" d="M312.438,612.783a1.089,1.089,0,0,0-.411-.879,3.95,3.95,0,0,0-1.556-.6,6.522,6.522,0,0,1-2.436-.955,1.925,1.925,0,0,1-.851-1.643,2.366,2.366,0,0,1,.934-1.876,4.12,4.12,0,0,1,4.892.05,2.381,2.381,0,0,1,.906,1.934l-.017.049h-1.561a1.416,1.416,0,0,0-.51-1.054,1.826,1.826,0,0,0-1.29-.473,1.864,1.864,0,0,0-1.291.39,1.216,1.216,0,0,0-.428.93.986.986,0,0,0,.369.822,4.106,4.106,0,0,0,1.523.532,6.428,6.428,0,0,1,2.507.987,1.986,1.986,0,0,1,.855,1.669,2.366,2.366,0,0,1-.967,1.95,3.986,3.986,0,0,1-2.527.755,3.945,3.945,0,0,1-2.706-.871,2.487,2.487,0,0,1-.939-2.033l.018-.051h1.56a1.511,1.511,0,0,0,.647,1.274,2.5,2.5,0,0,0,1.42.4,2.236,2.236,0,0,0,1.365-.37,1.128,1.128,0,0,0,.494-.942"/>
          <rect id="Rectángulo_41003" data-name="Rectángulo 41003" width="163" height="46" transform="translate(47 323.84)" fill="#e9dcfd"/>
          <path id="Trazado_213777" data-name="Trazado 213777" d="M80.805,341H76.821v10.8H75.186V341H71.25v-1.287h9.555Z"/>
          <path id="Trazado_213778" data-name="Trazado 213778" d="M84.068,340.518H82.433V338.85h1.635Zm0,11.281H82.433v-8.98h1.635Z"/>
          <path id="Trazado_213779" data-name="Trazado 213779" d="M94.236,347.649a4.955,4.955,0,0,1-.93,3.135,3.074,3.074,0,0,1-2.564,1.189,3.57,3.57,0,0,1-1.457-.277,2.786,2.786,0,0,1-1.067-.834v4.39H86.583V342.819h1.253l.257,1.162a2.964,2.964,0,0,1,1.1-.988,3.27,3.27,0,0,1,1.527-.34,2.984,2.984,0,0,1,2.595,1.324,5.99,5.99,0,0,1,.925,3.5Zm-1.635-.174a4.746,4.746,0,0,0-.6-2.512,1.952,1.952,0,0,0-1.772-.982,2.181,2.181,0,0,0-1.2.318,2.394,2.394,0,0,0-.805.877v4.34a2.338,2.338,0,0,0,.805.869,2.265,2.265,0,0,0,1.221.311A2.008,2.008,0,0,0,92,349.844a3.728,3.728,0,0,0,.6-2.2Z"/>
          <path id="Trazado_213780" data-name="Trazado 213780" d="M95.862,347.224a4.941,4.941,0,0,1,1.08-3.281,3.617,3.617,0,0,1,2.93-1.291,3.655,3.655,0,0,1,2.951,1.285,4.936,4.936,0,0,1,1.083,3.287v.184a4.914,4.914,0,0,1-1.079,3.287,4.02,4.02,0,0,1-5.881,0,4.913,4.913,0,0,1-1.084-3.283Zm1.636.184a4.252,4.252,0,0,0,.6,2.357,2.173,2.173,0,0,0,3.565,0,4.236,4.236,0,0,0,.6-2.357v-.184a4.226,4.226,0,0,0-.609-2.347,2,2,0,0,0-1.789-.94,1.974,1.974,0,0,0-1.772.94,4.258,4.258,0,0,0-.6,2.347Z"/>
          <path id="Trazado_213781" data-name="Trazado 213781" d="M111.128,349.383a1.089,1.089,0,0,0-.411-.879,3.982,3.982,0,0,0-1.556-.6,6.487,6.487,0,0,1-2.436-.955,1.923,1.923,0,0,1-.851-1.642,2.37,2.37,0,0,1,.934-1.877,3.645,3.645,0,0,1,2.42-.779,3.6,3.6,0,0,1,2.472.83,2.377,2.377,0,0,1,.906,1.933l-.017.049h-1.561a1.412,1.412,0,0,0-.51-1.053,1.823,1.823,0,0,0-1.29-.474,1.864,1.864,0,0,0-1.291.39,1.216,1.216,0,0,0-.428.93.984.984,0,0,0,.369.822,4.088,4.088,0,0,0,1.523.532,6.428,6.428,0,0,1,2.507.988,1.986,1.986,0,0,1,.855,1.668,2.368,2.368,0,0,1-.967,1.951,3.985,3.985,0,0,1-2.527.754,3.94,3.94,0,0,1-2.706-.871,2.484,2.484,0,0,1-.939-2.033l.018-.051h1.56a1.514,1.514,0,0,0,.647,1.275,2.51,2.51,0,0,0,1.42.4,2.236,2.236,0,0,0,1.365-.369,1.13,1.13,0,0,0,.494-.943"/>
          <path id="Trazado_213782" data-name="Trazado 213782" d="M121.77,348.471l.29,1.129h.051l2.207-6.781h1.818l-3.777,10.359a4.638,4.638,0,0,1-.975,1.576,2.244,2.244,0,0,1-1.715.672,3.476,3.476,0,0,1-.5-.045,4.08,4.08,0,0,1-.473-.088l.166-1.285a2.074,2.074,0,0,1,.294.016c.229.017.375.025.436.025a1.009,1.009,0,0,0,.855-.465,4.764,4.764,0,0,0,.556-1.029l.39-.938-3.337-8.8h1.826Z"/>
          <path id="Trazado_213783" data-name="Trazado 213783" d="M135.366,350.7a1.926,1.926,0,0,0,1.32-.5,1.59,1.59,0,0,0,.565-1.232h1.477l.025.048a2.578,2.578,0,0,1-1,2.063,3.809,3.809,0,0,1-5.313-.385,4.973,4.973,0,0,1-1.029-3.2v-.348a4.94,4.94,0,0,1,1.034-3.191,3.52,3.52,0,0,1,2.917-1.291,3.387,3.387,0,0,1,2.462.93,2.947,2.947,0,0,1,.925,2.281l-.016.051h-1.486a1.985,1.985,0,0,0-.535-1.4,1.768,1.768,0,0,0-1.35-.578,1.889,1.889,0,0,0-1.755.936,4.362,4.362,0,0,0-.552,2.261v.348a4.457,4.457,0,0,0,.543,2.283,1.891,1.891,0,0,0,1.764.93"/>
          <path id="Trazado_213784" data-name="Trazado 213784" d="M142.463,340.518h-1.635V338.85h1.635Zm0,11.281h-1.635v-8.98h1.635Z"/>
          <path id="Trazado_213785" data-name="Trazado 213785" d="M145.659,351.8v-7.77h-1.4v-1.21h1.4V341.68a3.077,3.077,0,0,1,.752-2.219,2.764,2.764,0,0,1,2.1-.785,3.766,3.766,0,0,1,.568.045c.191.031.4.074.635.129l-.2,1.246a3.058,3.058,0,0,0-.361-.059,3.714,3.714,0,0,0-.444-.025,1.289,1.289,0,0,0-1.063.428,1.924,1.924,0,0,0-.348,1.24v1.139h1.627v1.21h-1.627v7.77Z"/>
          <path id="Trazado_213786" data-name="Trazado 213786" d="M154.824,344.262l-.839-.049a1.871,1.871,0,0,0-1.092.307,1.965,1.965,0,0,0-.684.863V351.8h-1.635v-8.98h1.461l.157,1.31a3.138,3.138,0,0,1,.943-1.088,2.207,2.207,0,0,1,1.291-.388,1.94,1.94,0,0,1,.347.029,2.545,2.545,0,0,1,.275.06Z"/>
          <path id="Trazado_213787" data-name="Trazado 213787" d="M162.044,351.8c-.056-.271-.1-.509-.129-.716a5.529,5.529,0,0,1-.054-.627,3.791,3.791,0,0,1-1.191,1.082,3.039,3.039,0,0,1-1.581.435,2.935,2.935,0,0,1-2.138-.717,2.642,2.642,0,0,1-.734-1.98,2.318,2.318,0,0,1,1.042-2.012,4.864,4.864,0,0,1,2.826-.726h1.776v-.889a1.653,1.653,0,0,0-.481-1.25,1.894,1.894,0,0,0-1.362-.461,1.981,1.981,0,0,0-1.287.4,1.2,1.2,0,0,0-.489.956l-1.552.017-.017-.051a2.153,2.153,0,0,1,.918-1.793,3.807,3.807,0,0,1,2.519-.812,3.711,3.711,0,0,1,2.457.775,2.754,2.754,0,0,1,.93,2.237v4.326a8.46,8.46,0,0,0,.049.929,4.784,4.784,0,0,0,.183.879Zm-2.715-1.2a2.907,2.907,0,0,0,1.6-.457,2.161,2.161,0,0,0,.929-1.045v-1.461h-1.835a2.38,2.38,0,0,0-1.581.5,1.492,1.492,0,0,0-.593,1.17,1.232,1.232,0,0,0,.373.947,1.564,1.564,0,0,0,1.1.348"/>
          <path id="Trazado_213788" data-name="Trazado 213788" d="M165.5,347.475a5.99,5.99,0,0,1,.926-3.494,2.978,2.978,0,0,1,2.594-1.328,3.223,3.223,0,0,1,1.4.289,2.882,2.882,0,0,1,1.042.848v-4.94h1.635V351.8H171.84l-.249-1.136a2.91,2.91,0,0,1-1.088.978,3.221,3.221,0,0,1-1.5.332,3.083,3.083,0,0,1-2.573-1.189,4.955,4.955,0,0,1-.93-3.135Zm1.636.174a3.813,3.813,0,0,0,.556,2.18,1.941,1.941,0,0,0,1.726.816,2.152,2.152,0,0,0,1.229-.332,2.47,2.47,0,0,0,.813-.93v-4.191a2.51,2.51,0,0,0-.817-.883,2.157,2.157,0,0,0-1.208-.328,1.866,1.866,0,0,0-1.739.971,5.013,5.013,0,0,0-.56,2.523Z"/>
          <path id="Trazado_213789" data-name="Trazado 213789" d="M175.152,347.224a4.941,4.941,0,0,1,1.079-3.281,3.619,3.619,0,0,1,2.93-1.291,3.657,3.657,0,0,1,2.952,1.285,4.936,4.936,0,0,1,1.082,3.287v.184a4.913,4.913,0,0,1-1.078,3.287,4.02,4.02,0,0,1-5.881,0,4.913,4.913,0,0,1-1.084-3.283Zm1.636.184a4.26,4.26,0,0,0,.6,2.357,2.173,2.173,0,0,0,3.565,0,4.228,4.228,0,0,0,.605-2.357v-.184a4.234,4.234,0,0,0-.608-2.347,2,2,0,0,0-1.79-.94,1.975,1.975,0,0,0-1.772.94,4.267,4.267,0,0,0-.6,2.347Z"/>
          <path id="Trazado_213790" data-name="Trazado 213790" d="M190.417,349.383a1.089,1.089,0,0,0-.411-.879,3.982,3.982,0,0,0-1.556-.6,6.487,6.487,0,0,1-2.436-.955,1.923,1.923,0,0,1-.851-1.642,2.37,2.37,0,0,1,.934-1.877,3.645,3.645,0,0,1,2.42-.779,3.6,3.6,0,0,1,2.472.83,2.377,2.377,0,0,1,.906,1.933l-.017.049h-1.561a1.412,1.412,0,0,0-.51-1.053,1.823,1.823,0,0,0-1.29-.474,1.864,1.864,0,0,0-1.291.39,1.216,1.216,0,0,0-.428.93.984.984,0,0,0,.369.822,4.088,4.088,0,0,0,1.523.532,6.428,6.428,0,0,1,2.507.988,1.986,1.986,0,0,1,.855,1.668,2.368,2.368,0,0,1-.967,1.951,3.986,3.986,0,0,1-2.527.754,3.94,3.94,0,0,1-2.706-.871,2.484,2.484,0,0,1-.939-2.033l.018-.051h1.56a1.514,1.514,0,0,0,.647,1.275,2.51,2.51,0,0,0,1.42.4,2.236,2.236,0,0,0,1.365-.369,1.13,1.13,0,0,0,.494-.943"/>
          <rect id="Rectángulo_41004" data-name="Rectángulo 41004" width="163" height="46" transform="translate(47 521.48)" fill="#e9dcfd"/>
          <path id="Trazado_213791" data-name="Trazado 213791" d="M90.583,549.44H88.947V544.1H83.079v5.338H81.443V537.354h1.636v5.462h5.868v-5.462h1.636Z"/>
          <path id="Trazado_213792" data-name="Trazado 213792" d="M96.9,549.613a3.8,3.8,0,0,1-3.018-1.236,4.76,4.76,0,0,1-1.084-3.254v-.365a4.665,4.665,0,0,1,1.117-3.2,3.505,3.505,0,0,1,2.727-1.265,3.261,3.261,0,0,1,2.7,1.12,4.617,4.617,0,0,1,.9,2.98v.864H94.5l-.024.041a3.708,3.708,0,0,0,.6,2.2,2.086,2.086,0,0,0,1.826.843,4.1,4.1,0,0,0,1.456-.237,3.253,3.253,0,0,0,1.075-.652l.639,1.063a3.942,3.942,0,0,1-1.27.784,5.055,5.055,0,0,1-1.9.319m-.258-8.035a1.779,1.779,0,0,0-1.415.66,3.115,3.115,0,0,0-.685,1.69l.016.041h4.051v-.133a2.611,2.611,0,0,0-.481-1.618,1.741,1.741,0,0,0-1.486-.64"/>
          <path id="Trazado_213793" data-name="Trazado 213793" d="M106.329,541.9l-.839-.05a1.872,1.872,0,0,0-1.092.308,1.959,1.959,0,0,0-.684.863v6.416h-1.635v-8.981h1.461l.157,1.311a3.128,3.128,0,0,1,.943-1.088,2.207,2.207,0,0,1,1.291-.389,1.94,1.94,0,0,1,.347.029,2.517,2.517,0,0,1,.275.061Z"/>
          <path id="Trazado_213794" data-name="Trazado 213794" d="M112.282,541.9l-.839-.05a1.872,1.872,0,0,0-1.092.308,1.96,1.96,0,0,0-.684.863v6.416h-1.635v-8.981h1.461l.157,1.311a3.128,3.128,0,0,1,.943-1.088,2.207,2.207,0,0,1,1.291-.389,1.94,1.94,0,0,1,.347.029,2.517,2.517,0,0,1,.275.061Z"/>
          <path id="Trazado_213795" data-name="Trazado 213795" d="M119.5,549.439q-.084-.406-.129-.717a5.486,5.486,0,0,1-.054-.627,3.805,3.805,0,0,1-1.191,1.083,3.039,3.039,0,0,1-1.581.435,2.935,2.935,0,0,1-2.138-.718,2.641,2.641,0,0,1-.734-1.979,2.319,2.319,0,0,1,1.042-2.013,4.864,4.864,0,0,1,2.826-.726h1.776v-.888a1.65,1.65,0,0,0-.481-1.25,1.894,1.894,0,0,0-1.362-.461,1.981,1.981,0,0,0-1.287.4,1.2,1.2,0,0,0-.489.956l-1.552.016-.017-.05a2.15,2.15,0,0,1,.918-1.793,3.8,3.8,0,0,1,2.519-.813,3.712,3.712,0,0,1,2.457.776,2.753,2.753,0,0,1,.93,2.237v4.325a8.449,8.449,0,0,0,.049.929,4.813,4.813,0,0,0,.183.88Zm-2.715-1.2a2.907,2.907,0,0,0,1.6-.457,2.165,2.165,0,0,0,.929-1.045v-1.461h-1.835a2.381,2.381,0,0,0-1.581.5,1.49,1.49,0,0,0-.593,1.17,1.229,1.229,0,0,0,.373.946,1.565,1.565,0,0,0,1.1.349"/>
          <path id="Trazado_213796" data-name="Trazado 213796" d="M124.79,540.458l.115,1.179a3.057,3.057,0,0,1,1.117-.992,3.347,3.347,0,0,1,1.573-.353,2.787,2.787,0,0,1,1.54.415,2.51,2.51,0,0,1,.967,1.245,3.359,3.359,0,0,1,1.125-1.216,2.938,2.938,0,0,1,1.623-.444,2.691,2.691,0,0,1,2.167.942,4.3,4.3,0,0,1,.8,2.834v5.371h-1.635v-5.386a3,3,0,0,0-.456-1.881,1.667,1.667,0,0,0-1.362-.552A1.731,1.731,0,0,0,131,542.2a2.524,2.524,0,0,0-.61,1.469v5.769h-1.644v-5.386a2.946,2.946,0,0,0-.469-1.848,1.627,1.627,0,0,0-1.349-.585,2.247,2.247,0,0,0-1.229.308,1.986,1.986,0,0,0-.738.863v6.648h-1.635v-8.981Z"/>
          <path id="Trazado_213797" data-name="Trazado 213797" d="M139.956,538.158h-1.635V536.49h1.635Zm0,11.282h-1.635v-8.981h1.635Z"/>
          <path id="Trazado_213798" data-name="Trazado 213798" d="M146.191,549.613a3.8,3.8,0,0,1-3.018-1.236,4.76,4.76,0,0,1-1.084-3.254v-.365a4.665,4.665,0,0,1,1.117-3.2,3.505,3.505,0,0,1,2.727-1.265,3.261,3.261,0,0,1,2.7,1.12,4.617,4.617,0,0,1,.9,2.98v.864h-5.745l-.024.041a3.708,3.708,0,0,0,.6,2.2,2.086,2.086,0,0,0,1.826.843,4.1,4.1,0,0,0,1.456-.237,3.253,3.253,0,0,0,1.075-.652l.639,1.063a3.942,3.942,0,0,1-1.27.784,5.055,5.055,0,0,1-1.9.319m-.258-8.035a1.779,1.779,0,0,0-1.415.66,3.115,3.115,0,0,0-.685,1.69l.016.041H147.9v-.133a2.611,2.611,0,0,0-.481-1.618,1.741,1.741,0,0,0-1.486-.64"/>
          <path id="Trazado_213799" data-name="Trazado 213799" d="M152.831,540.458l.115,1.337a3.246,3.246,0,0,1,1.125-1.108,3,3,0,0,1,1.54-.4,2.926,2.926,0,0,1,2.249.851,3.731,3.731,0,0,1,.8,2.627v5.669h-1.635V543.8a2.434,2.434,0,0,0-.468-1.685,1.88,1.88,0,0,0-1.432-.5,2.535,2.535,0,0,0-1.283.3,2.2,2.2,0,0,0-.834.85v6.666H151.37v-8.981Z"/>
          <path id="Trazado_213800" data-name="Trazado 213800" d="M163.306,538.291v2.167h1.7v1.212h-1.7v5.453a1.225,1.225,0,0,0,.262.889.944.944,0,0,0,.693.258,1.469,1.469,0,0,0,.316-.039,2.019,2.019,0,0,0,.29-.079l.224,1.121a1.45,1.45,0,0,1-.539.246,2.754,2.754,0,0,1-.706.094,2.117,2.117,0,0,1-1.585-.6,2.616,2.616,0,0,1-.59-1.889V541.67h-1.428v-1.212h1.428v-2.167Z"/>
          <path id="Trazado_213801" data-name="Trazado 213801" d="M172.279,549.439q-.084-.406-.129-.717a5.489,5.489,0,0,1-.054-.627,3.805,3.805,0,0,1-1.191,1.083,3.039,3.039,0,0,1-1.581.435,2.935,2.935,0,0,1-2.138-.718,2.641,2.641,0,0,1-.734-1.979,2.319,2.319,0,0,1,1.042-2.013,4.864,4.864,0,0,1,2.826-.726H172.1v-.888a1.65,1.65,0,0,0-.481-1.25,1.894,1.894,0,0,0-1.362-.461,1.981,1.981,0,0,0-1.287.4,1.2,1.2,0,0,0-.489.956l-1.552.016-.017-.05a2.15,2.15,0,0,1,.918-1.793,3.8,3.8,0,0,1,2.519-.813,3.712,3.712,0,0,1,2.457.776,2.753,2.753,0,0,1,.93,2.237v4.325a8.447,8.447,0,0,0,.049.929,4.813,4.813,0,0,0,.183.88Zm-2.715-1.2a2.907,2.907,0,0,0,1.6-.457,2.165,2.165,0,0,0,.929-1.045v-1.461h-1.835a2.381,2.381,0,0,0-1.581.5,1.49,1.49,0,0,0-.593,1.17,1.229,1.229,0,0,0,.373.946,1.564,1.564,0,0,0,1.1.349"/>
          <path id="Trazado_213802" data-name="Trazado 213802" d="M181.327,547.024a1.089,1.089,0,0,0-.411-.879,3.951,3.951,0,0,0-1.556-.6,6.52,6.52,0,0,1-2.436-.955,1.925,1.925,0,0,1-.851-1.643,2.366,2.366,0,0,1,.934-1.876,4.12,4.12,0,0,1,4.892.05,2.381,2.381,0,0,1,.906,1.934l-.017.049h-1.561a1.416,1.416,0,0,0-.51-1.054,1.826,1.826,0,0,0-1.29-.473,1.864,1.864,0,0,0-1.291.39,1.216,1.216,0,0,0-.428.93.987.987,0,0,0,.369.822,4.107,4.107,0,0,0,1.523.532,6.429,6.429,0,0,1,2.507.987,1.986,1.986,0,0,1,.855,1.669,2.366,2.366,0,0,1-.967,1.95,3.986,3.986,0,0,1-2.527.755,3.945,3.945,0,0,1-2.706-.871,2.487,2.487,0,0,1-.939-2.033l.018-.051h1.56a1.511,1.511,0,0,0,.647,1.274,2.5,2.5,0,0,0,1.42.4,2.236,2.236,0,0,0,1.365-.37,1.129,1.129,0,0,0,.494-.942"/>
          <rect id="Rectángulo_41005" data-name="Rectángulo 41005" width="163" height="46" transform="translate(47 652.16)" fill="#e9dcfd"/>
          <path id="Trazado_213803" data-name="Trazado 213803" d="M79.077,674.774h-5.1v5.346H72.346V668.034h7.579v1.287H73.981v4.166h5.1Z"/>
          <path id="Trazado_213804" data-name="Trazado 213804" d="M83.27,668.838H81.635V667.17H83.27Zm0,11.281H81.635v-8.981H83.27Z"/>
          <path id="Trazado_213805" data-name="Trazado 213805" d="M90.035,672.582l-.839-.05a1.872,1.872,0,0,0-1.092.308,1.959,1.959,0,0,0-.684.863v6.416H85.785v-8.981h1.461l.157,1.311a3.128,3.128,0,0,1,.943-1.088,2.207,2.207,0,0,1,1.291-.389,1.946,1.946,0,0,1,.347.029,2.531,2.531,0,0,1,.275.061Z"/>
          <path id="Trazado_213806" data-name="Trazado 213806" d="M93.2,671.138l.115,1.179a3.057,3.057,0,0,1,1.117-.992A3.347,3.347,0,0,1,96,670.972a2.787,2.787,0,0,1,1.54.415,2.51,2.51,0,0,1,.967,1.245,3.359,3.359,0,0,1,1.125-1.216,2.938,2.938,0,0,1,1.623-.444,2.691,2.691,0,0,1,2.167.942,4.3,4.3,0,0,1,.8,2.834v5.371h-1.635v-5.386a3,3,0,0,0-.456-1.881,1.667,1.667,0,0,0-1.362-.552,1.731,1.731,0,0,0-1.357.581,2.524,2.524,0,0,0-.61,1.469v5.769H97.158v-5.386a2.947,2.947,0,0,0-.469-1.848,1.627,1.627,0,0,0-1.349-.585,2.247,2.247,0,0,0-1.229.308,1.985,1.985,0,0,0-.738.863v6.648H91.738v-8.981Z"/>
          <path id="Trazado_213807" data-name="Trazado 213807" d="M112.115,680.119q-.084-.406-.129-.717a5.488,5.488,0,0,1-.054-.627,3.806,3.806,0,0,1-1.191,1.083,3.039,3.039,0,0,1-1.581.435,2.935,2.935,0,0,1-2.138-.718,2.641,2.641,0,0,1-.734-1.979,2.319,2.319,0,0,1,1.042-2.013,4.864,4.864,0,0,1,2.826-.726h1.776v-.888a1.65,1.65,0,0,0-.481-1.25,1.894,1.894,0,0,0-1.362-.461,1.981,1.981,0,0,0-1.287.4,1.2,1.2,0,0,0-.489.956l-1.552.016-.017-.05a2.15,2.15,0,0,1,.918-1.793,3.8,3.8,0,0,1,2.519-.813,3.712,3.712,0,0,1,2.457.776,2.753,2.753,0,0,1,.93,2.237v4.325a8.449,8.449,0,0,0,.049.929,4.812,4.812,0,0,0,.183.88Zm-2.715-1.2a2.907,2.907,0,0,0,1.6-.457,2.165,2.165,0,0,0,.929-1.045v-1.461H110.1a2.381,2.381,0,0,0-1.581.5,1.491,1.491,0,0,0-.593,1.17,1.229,1.229,0,0,0,.373.946,1.565,1.565,0,0,0,1.1.349"/>
          <path id="Trazado_213808" data-name="Trazado 213808" d="M121.163,677.7a1.089,1.089,0,0,0-.411-.879,3.95,3.95,0,0,0-1.556-.6,6.52,6.52,0,0,1-2.436-.955,1.925,1.925,0,0,1-.851-1.643,2.366,2.366,0,0,1,.934-1.876,4.12,4.12,0,0,1,4.892.05,2.381,2.381,0,0,1,.906,1.934l-.017.049h-1.561a1.416,1.416,0,0,0-.51-1.054,1.826,1.826,0,0,0-1.29-.473,1.864,1.864,0,0,0-1.291.39,1.216,1.216,0,0,0-.428.93.987.987,0,0,0,.369.822,4.107,4.107,0,0,0,1.523.532,6.428,6.428,0,0,1,2.507.987,1.986,1.986,0,0,1,.855,1.669,2.366,2.366,0,0,1-.967,1.95,3.986,3.986,0,0,1-2.527.755,3.945,3.945,0,0,1-2.706-.871,2.487,2.487,0,0,1-.939-2.033l.018-.051h1.56a1.511,1.511,0,0,0,.647,1.274,2.5,2.5,0,0,0,1.42.4,2.236,2.236,0,0,0,1.365-.37,1.129,1.129,0,0,0,.494-.942"/>
          <path id="Trazado_213809" data-name="Trazado 213809" d="M128.684,675.795a6,6,0,0,1,.926-3.495,2.98,2.98,0,0,1,2.594-1.328,3.222,3.222,0,0,1,1.4.29,2.872,2.872,0,0,1,1.042.848v-4.94h1.635v12.949h-1.253l-.249-1.136a2.909,2.909,0,0,1-1.088.978,3.234,3.234,0,0,1-1.5.332,3.081,3.081,0,0,1-2.573-1.19,4.95,4.95,0,0,1-.93-3.134Zm1.636.174a3.812,3.812,0,0,0,.556,2.179,1.941,1.941,0,0,0,1.726.817,2.16,2.16,0,0,0,1.229-.332,2.47,2.47,0,0,0,.813-.93v-4.191a2.513,2.513,0,0,0-.817-.884,2.157,2.157,0,0,0-1.208-.328,1.867,1.867,0,0,0-1.739.972,5.013,5.013,0,0,0-.56,2.523Z"/>
          <path id="Trazado_213810" data-name="Trazado 213810" d="M140.488,668.838h-1.635V667.17h1.635Zm0,11.281h-1.635v-8.981h1.635Z"/>
          <path id="Trazado_213811" data-name="Trazado 213811" d="M142.712,675.795a6,6,0,0,1,.926-3.495,2.973,2.973,0,0,1,2.586-1.328,3.149,3.149,0,0,1,1.5.345,3.018,3.018,0,0,1,1.088.992l.2-1.171h1.3v9.031a3.431,3.431,0,0,1-1,2.653,4.129,4.129,0,0,1-2.9.924,6.065,6.065,0,0,1-1.4-.177,5.5,5.5,0,0,1-1.324-.487l.249-1.269a4.713,4.713,0,0,0,1.141.4,5.832,5.832,0,0,0,1.316.154,2.379,2.379,0,0,0,1.739-.544,2.255,2.255,0,0,0,.544-1.656v-1.02a2.9,2.9,0,0,1-1.055.854,3.28,3.28,0,0,1-1.42.29,3.069,3.069,0,0,1-2.568-1.19,4.967,4.967,0,0,1-.926-3.134Zm1.635.174a3.816,3.816,0,0,0,.557,2.175,1.929,1.929,0,0,0,1.718.821,2.154,2.154,0,0,0,1.237-.336,2.557,2.557,0,0,0,.822-.95v-4.134a2.547,2.547,0,0,0-.822-.909,2.158,2.158,0,0,0-1.221-.336,1.861,1.861,0,0,0-1.73.972,5,5,0,0,0-.561,2.523Z"/>
          <path id="Trazado_213812" data-name="Trazado 213812" d="M154.433,668.838H152.8V667.17h1.635Zm0,11.281H152.8v-8.981h1.635Z"/>
          <path id="Trazado_213813" data-name="Trazado 213813" d="M159.222,668.971v2.167h1.7v1.212h-1.7V677.8a1.225,1.225,0,0,0,.262.889.944.944,0,0,0,.693.258,1.469,1.469,0,0,0,.316-.039,2.011,2.011,0,0,0,.29-.079l.224,1.121a1.45,1.45,0,0,1-.539.246,2.751,2.751,0,0,1-.706.094,2.117,2.117,0,0,1-1.585-.6,2.616,2.616,0,0,1-.59-1.889V672.35h-1.428v-1.212h1.428v-2.167Z"/>
          <path id="Trazado_213814" data-name="Trazado 213814" d="M168.2,680.119q-.084-.406-.129-.717a5.489,5.489,0,0,1-.054-.627,3.806,3.806,0,0,1-1.191,1.083,3.039,3.039,0,0,1-1.581.435,2.935,2.935,0,0,1-2.138-.718,2.641,2.641,0,0,1-.734-1.979,2.319,2.319,0,0,1,1.042-2.013,4.864,4.864,0,0,1,2.826-.726h1.776v-.888a1.65,1.65,0,0,0-.481-1.25,1.894,1.894,0,0,0-1.362-.461,1.981,1.981,0,0,0-1.287.4,1.2,1.2,0,0,0-.489.956l-1.552.016-.017-.05a2.15,2.15,0,0,1,.918-1.793,3.8,3.8,0,0,1,2.519-.813,3.712,3.712,0,0,1,2.457.776,2.753,2.753,0,0,1,.93,2.237v4.325a8.447,8.447,0,0,0,.049.929,4.811,4.811,0,0,0,.183.88Zm-2.715-1.2a2.907,2.907,0,0,0,1.6-.457,2.165,2.165,0,0,0,.929-1.045v-1.461h-1.835a2.381,2.381,0,0,0-1.581.5,1.491,1.491,0,0,0-.593,1.17,1.229,1.229,0,0,0,.373.946,1.564,1.564,0,0,0,1.1.349"/>
          <rect id="Rectángulo_41006" data-name="Rectángulo 41006" width="1.635" height="12.949" transform="translate(172.155 667.17)"/>
          <path id="Trazado_213815" data-name="Trazado 213815" d="M180.025,680.293a3.8,3.8,0,0,1-3.018-1.236,4.76,4.76,0,0,1-1.084-3.254v-.365a4.665,4.665,0,0,1,1.117-3.2,3.505,3.505,0,0,1,2.727-1.265,3.261,3.261,0,0,1,2.7,1.12,4.617,4.617,0,0,1,.9,2.98v.864h-5.745l-.024.041a3.708,3.708,0,0,0,.6,2.2,2.086,2.086,0,0,0,1.826.843,4.1,4.1,0,0,0,1.456-.237,3.253,3.253,0,0,0,1.075-.652l.639,1.063a3.941,3.941,0,0,1-1.27.784,5.055,5.055,0,0,1-1.9.319m-.258-8.035a1.779,1.779,0,0,0-1.415.66,3.114,3.114,0,0,0-.685,1.69l.016.041h4.051v-.133a2.611,2.611,0,0,0-.481-1.618,1.741,1.741,0,0,0-1.486-.64"/>
          <path id="Trazado_213816" data-name="Trazado 213816" d="M190.425,677.7a1.089,1.089,0,0,0-.411-.879,3.95,3.95,0,0,0-1.556-.6,6.52,6.52,0,0,1-2.436-.955,1.925,1.925,0,0,1-.851-1.643,2.366,2.366,0,0,1,.934-1.876,4.12,4.12,0,0,1,4.892.05,2.381,2.381,0,0,1,.906,1.934l-.017.049h-1.561a1.416,1.416,0,0,0-.51-1.054,1.826,1.826,0,0,0-1.29-.473,1.864,1.864,0,0,0-1.291.39,1.216,1.216,0,0,0-.428.93.987.987,0,0,0,.369.822,4.107,4.107,0,0,0,1.523.532,6.428,6.428,0,0,1,2.507.987,1.986,1.986,0,0,1,.855,1.669,2.366,2.366,0,0,1-.967,1.95,3.986,3.986,0,0,1-2.527.755,3.945,3.945,0,0,1-2.706-.871,2.487,2.487,0,0,1-.939-2.033l.018-.051h1.56a1.511,1.511,0,0,0,.647,1.274,2.5,2.5,0,0,0,1.42.4,2.236,2.236,0,0,0,1.365-.37,1.129,1.129,0,0,0,.494-.942"/>
          <path id="Trazado_213817" data-name="Trazado 213817" d="M616.282,361.2h-4.963v4.326h5.811V366.8h-7.447V354.714h7.355V356h-5.719v3.91h4.963Z"/>
          <rect id="Rectángulo_41007" data-name="Rectángulo 41007" width="1.635" height="12.949" transform="translate(618.972 353.85)"/>
          <path id="Trazado_213818" data-name="Trazado 213818" d="M626.841,366.973a3.8,3.8,0,0,1-3.018-1.236,4.758,4.758,0,0,1-1.084-3.254v-.365a4.663,4.663,0,0,1,1.117-3.2,3.505,3.505,0,0,1,2.727-1.265,3.261,3.261,0,0,1,2.7,1.119,4.618,4.618,0,0,1,.9,2.98v.864h-5.745l-.024.041a3.714,3.714,0,0,0,.6,2.2,2.088,2.088,0,0,0,1.826.842,4.082,4.082,0,0,0,1.456-.237,3.252,3.252,0,0,0,1.075-.652l.639,1.063a3.925,3.925,0,0,1-1.27.785,5.057,5.057,0,0,1-1.9.318m-.258-8.035a1.779,1.779,0,0,0-1.415.66,3.121,3.121,0,0,0-.685,1.69l.016.041h4.051V361.2a2.607,2.607,0,0,0-.481-1.617,1.741,1.741,0,0,0-1.486-.641"/>
          <path id="Trazado_213819" data-name="Trazado 213819" d="M633.482,357.819,633.6,359a3.066,3.066,0,0,1,1.117-.992,3.359,3.359,0,0,1,1.573-.352,2.8,2.8,0,0,1,1.54.414,2.513,2.513,0,0,1,.967,1.246,3.37,3.37,0,0,1,1.125-1.217,2.946,2.946,0,0,1,1.623-.443,2.693,2.693,0,0,1,2.167.941,4.306,4.306,0,0,1,.8,2.834V366.8H642.87v-5.386a3,3,0,0,0-.456-1.881,1.67,1.67,0,0,0-1.362-.551,1.733,1.733,0,0,0-1.357.58,2.527,2.527,0,0,0-.61,1.469V366.8h-1.644v-5.386a2.947,2.947,0,0,0-.469-1.848,1.629,1.629,0,0,0-1.349-.584,2.247,2.247,0,0,0-1.229.307,1.991,1.991,0,0,0-.738.863V366.8h-1.635v-8.98Z"/>
          <path id="Trazado_213820" data-name="Trazado 213820" d="M650.6,366.973a3.8,3.8,0,0,1-3.018-1.236,4.758,4.758,0,0,1-1.084-3.254v-.365a4.663,4.663,0,0,1,1.117-3.2,3.506,3.506,0,0,1,2.727-1.265,3.261,3.261,0,0,1,2.7,1.119,4.618,4.618,0,0,1,.9,2.98v.864H648.2l-.024.041a3.714,3.714,0,0,0,.6,2.2,2.088,2.088,0,0,0,1.826.842,4.083,4.083,0,0,0,1.456-.237,3.253,3.253,0,0,0,1.075-.652l.639,1.063a3.926,3.926,0,0,1-1.27.785,5.056,5.056,0,0,1-1.9.318m-.258-8.035a1.779,1.779,0,0,0-1.415.66,3.121,3.121,0,0,0-.685,1.69l.016.041h4.051V361.2a2.608,2.608,0,0,0-.481-1.617,1.741,1.741,0,0,0-1.486-.641"/>
          <path id="Trazado_213821" data-name="Trazado 213821" d="M657.239,357.819l.115,1.336a3.234,3.234,0,0,1,1.125-1.107,2.992,2.992,0,0,1,1.54-.395,2.93,2.93,0,0,1,2.249.85,3.733,3.733,0,0,1,.8,2.627V366.8H661.43v-5.636a2.431,2.431,0,0,0-.468-1.684,1.88,1.88,0,0,0-1.432-.5,2.525,2.525,0,0,0-1.283.3,2.189,2.189,0,0,0-.834.849V366.8h-1.635v-8.98Z"/>
          <path id="Trazado_213822" data-name="Trazado 213822" d="M667.713,355.651v2.168h1.7v1.211h-1.7v5.453a1.223,1.223,0,0,0,.262.889.945.945,0,0,0,.693.258,1.462,1.462,0,0,0,.316-.038,2.012,2.012,0,0,0,.29-.08l.224,1.121a1.466,1.466,0,0,1-.539.247,2.8,2.8,0,0,1-.706.093,2.113,2.113,0,0,1-1.585-.6,2.613,2.613,0,0,1-.59-1.889V359.03H664.65v-1.211h1.428v-2.168Z"/>
          <path id="Trazado_213823" data-name="Trazado 213823" d="M670.784,362.224a4.941,4.941,0,0,1,1.08-3.281,3.616,3.616,0,0,1,2.93-1.291,3.655,3.655,0,0,1,2.951,1.285,4.936,4.936,0,0,1,1.083,3.287v.184a4.914,4.914,0,0,1-1.079,3.287,4.02,4.02,0,0,1-5.881,0,4.913,4.913,0,0,1-1.084-3.283Zm1.636.184a4.252,4.252,0,0,0,.6,2.357,2.173,2.173,0,0,0,3.565,0,4.235,4.235,0,0,0,.605-2.357v-.184a4.226,4.226,0,0,0-.609-2.347,2,2,0,0,0-1.789-.94,1.974,1.974,0,0,0-1.772.94,4.259,4.259,0,0,0-.6,2.347Z"/>
          <path id="Trazado_213824" data-name="Trazado 213824" d="M686.05,364.383a1.089,1.089,0,0,0-.411-.879,3.982,3.982,0,0,0-1.556-.6,6.487,6.487,0,0,1-2.436-.955,1.923,1.923,0,0,1-.851-1.642,2.37,2.37,0,0,1,.934-1.877,3.645,3.645,0,0,1,2.42-.779,3.6,3.6,0,0,1,2.472.83,2.378,2.378,0,0,1,.906,1.933l-.017.049H685.95a1.412,1.412,0,0,0-.51-1.053,1.823,1.823,0,0,0-1.29-.474,1.864,1.864,0,0,0-1.291.39,1.216,1.216,0,0,0-.428.93.984.984,0,0,0,.369.822,4.088,4.088,0,0,0,1.523.532,6.428,6.428,0,0,1,2.507.988,1.986,1.986,0,0,1,.855,1.668,2.368,2.368,0,0,1-.967,1.951,3.986,3.986,0,0,1-2.527.754,3.94,3.94,0,0,1-2.706-.871,2.484,2.484,0,0,1-.939-2.033l.018-.051h1.56a1.514,1.514,0,0,0,.647,1.275,2.51,2.51,0,0,0,1.42.4,2.236,2.236,0,0,0,1.365-.369,1.13,1.13,0,0,0,.494-.943"/>
          <path id="Trazado_213825" data-name="Trazado 213825" d="M110.762,205.251l.018.05a3.633,3.633,0,0,1-1.2,2.847,4.567,4.567,0,0,1-3.246,1.145A4.26,4.26,0,0,1,103,207.841a5.346,5.346,0,0,1-1.291-3.686v-2.149A5.364,5.364,0,0,1,103,198.315a4.26,4.26,0,0,1,3.341-1.456,4.694,4.694,0,0,1,3.262,1.091,3.616,3.616,0,0,1,1.18,2.894l-.018.049h-1.568a2.7,2.7,0,0,0-.747-2.008,2.87,2.87,0,0,0-2.109-.739,2.576,2.576,0,0,0-2.183,1.1,4.488,4.488,0,0,0-.813,2.738v2.167a4.52,4.52,0,0,0,.813,2.756,2.577,2.577,0,0,0,2.183,1.105,2.877,2.877,0,0,0,2.109-.736,2.715,2.715,0,0,0,.747-2.029Z" fill="#fff"/>
          <path id="Trazado_213826" data-name="Trazado 213826" d="M116.93,201.582l-.839-.05a1.872,1.872,0,0,0-1.092.308,1.96,1.96,0,0,0-.684.863v6.416H112.68v-8.981h1.461l.157,1.311a3.128,3.128,0,0,1,.943-1.088,2.207,2.207,0,0,1,1.291-.389,1.941,1.941,0,0,1,.347.029,2.521,2.521,0,0,1,.275.061Z" fill="#fff"/>
          <path id="Trazado_213827" data-name="Trazado 213827" d="M120.4,197.838h-1.635V196.17H120.4Zm0,11.281h-1.635v-8.981H120.4Z" fill="#fff"/>
          <path id="Trazado_213828" data-name="Trazado 213828" d="M130.568,204.969a4.95,4.95,0,0,1-.93,3.134,3.072,3.072,0,0,1-2.564,1.19,3.57,3.57,0,0,1-1.457-.277,2.8,2.8,0,0,1-1.067-.834v4.39h-1.635V200.138h1.253l.257,1.162a2.961,2.961,0,0,1,1.1-.987,3.258,3.258,0,0,1,1.527-.341,2.984,2.984,0,0,1,2.6,1.324,5.991,5.991,0,0,1,.925,3.5Zm-1.635-.174a4.743,4.743,0,0,0-.6-2.512,1.951,1.951,0,0,0-1.772-.983,2.182,2.182,0,0,0-1.2.319,2.391,2.391,0,0,0-.805.876v4.341a2.328,2.328,0,0,0,.805.868,2.265,2.265,0,0,0,1.221.312,2.011,2.011,0,0,0,1.759-.852,3.731,3.731,0,0,0,.6-2.2Z" fill="#fff"/>
          <path id="Trazado_213829" data-name="Trazado 213829" d="M134.851,197.971v2.167h1.7v1.212h-1.7V206.8a1.225,1.225,0,0,0,.262.889.944.944,0,0,0,.693.258,1.469,1.469,0,0,0,.316-.039,2.021,2.021,0,0,0,.29-.079l.224,1.121a1.451,1.451,0,0,1-.539.246,2.754,2.754,0,0,1-.706.094,2.117,2.117,0,0,1-1.585-.6,2.616,2.616,0,0,1-.59-1.889V201.35h-1.428v-1.212h1.428v-2.167Z" fill="#fff"/>
          <path id="Trazado_213830" data-name="Trazado 213830" d="M137.922,204.545a4.946,4.946,0,0,1,1.08-3.282,3.619,3.619,0,0,1,2.93-1.291,3.656,3.656,0,0,1,2.951,1.286,4.933,4.933,0,0,1,1.083,3.287v.184a4.917,4.917,0,0,1-1.079,3.287,4.019,4.019,0,0,1-5.881-.005,4.91,4.91,0,0,1-1.084-3.282Zm1.636.184a4.254,4.254,0,0,0,.6,2.357,2.173,2.173,0,0,0,3.565,0,4.238,4.238,0,0,0,.6-2.357v-.184a4.227,4.227,0,0,0-.609-2.348,2,2,0,0,0-1.789-.939,1.974,1.974,0,0,0-1.772.939,4.259,4.259,0,0,0-.6,2.348Z" fill="#fff"/>
          <path id="Trazado_213831" data-name="Trazado 213831" d="M147.676,204.795a6,6,0,0,1,.926-3.495,2.973,2.973,0,0,1,2.586-1.328,3.15,3.15,0,0,1,1.5.345,3.019,3.019,0,0,1,1.088.992l.2-1.171h1.3v9.031a3.43,3.43,0,0,1-1,2.653,4.129,4.129,0,0,1-2.9.924,6.066,6.066,0,0,1-1.4-.177,5.5,5.5,0,0,1-1.324-.487l.249-1.269a4.711,4.711,0,0,0,1.141.4,5.83,5.83,0,0,0,1.316.154,2.378,2.378,0,0,0,1.739-.544,2.255,2.255,0,0,0,.544-1.656v-1.02a2.9,2.9,0,0,1-1.055.854,3.28,3.28,0,0,1-1.42.29,3.069,3.069,0,0,1-2.568-1.19,4.967,4.967,0,0,1-.926-3.134Zm1.635.174a3.816,3.816,0,0,0,.557,2.175,1.929,1.929,0,0,0,1.718.821,2.154,2.154,0,0,0,1.237-.336,2.556,2.556,0,0,0,.822-.95v-4.134a2.546,2.546,0,0,0-.822-.909,2.158,2.158,0,0,0-1.221-.336,1.861,1.861,0,0,0-1.73.972,5,5,0,0,0-.561,2.523Z" fill="#fff"/>
          <path id="Trazado_213832" data-name="Trazado 213832" d="M161.879,201.582l-.839-.05a1.872,1.872,0,0,0-1.092.308,1.959,1.959,0,0,0-.684.863v6.416h-1.635v-8.981h1.461l.157,1.311a3.128,3.128,0,0,1,.943-1.088,2.207,2.207,0,0,1,1.291-.389,1.941,1.941,0,0,1,.347.029,2.52,2.52,0,0,1,.275.061Z" fill="#fff"/>
          <path id="Trazado_213833" data-name="Trazado 213833" d="M169.1,209.119q-.084-.406-.129-.717a5.485,5.485,0,0,1-.054-.627,3.806,3.806,0,0,1-1.191,1.083,3.039,3.039,0,0,1-1.581.435,2.935,2.935,0,0,1-2.138-.718,2.641,2.641,0,0,1-.734-1.979,2.319,2.319,0,0,1,1.042-2.013,4.864,4.864,0,0,1,2.826-.726h1.776v-.888a1.65,1.65,0,0,0-.481-1.25,1.894,1.894,0,0,0-1.362-.461,1.981,1.981,0,0,0-1.287.4,1.2,1.2,0,0,0-.489.956l-1.552.016-.017-.05a2.15,2.15,0,0,1,.918-1.793,3.8,3.8,0,0,1,2.519-.813,3.711,3.711,0,0,1,2.457.776,2.753,2.753,0,0,1,.93,2.237v4.325a8.446,8.446,0,0,0,.049.929,4.811,4.811,0,0,0,.183.88Zm-2.715-1.2a2.907,2.907,0,0,0,1.6-.457,2.165,2.165,0,0,0,.929-1.045v-1.461h-1.835a2.38,2.38,0,0,0-1.581.5,1.49,1.49,0,0,0-.593,1.17,1.229,1.229,0,0,0,.373.946,1.564,1.564,0,0,0,1.1.349" fill="#fff"/>
          <path id="Trazado_213834" data-name="Trazado 213834" d="M173.608,209.119v-7.77h-1.4v-1.211h1.4V199a3.081,3.081,0,0,1,.752-2.22,2.764,2.764,0,0,1,2.1-.784,3.643,3.643,0,0,1,.568.045c.191.03.4.073.635.129l-.2,1.245a3.306,3.306,0,0,0-.361-.058,3.714,3.714,0,0,0-.444-.025,1.289,1.289,0,0,0-1.063.428,1.923,1.923,0,0,0-.348,1.24v1.138h1.627v1.211h-1.627v7.77Z" fill="#fff"/>
          <path id="Trazado_213835" data-name="Trazado 213835" d="M180.239,209.119H178.6v-8.981h1.636Zm-.024-12.617h1.908l.018.05-2.234,2.158h-1.228Z" fill="#fff"/>
          <path id="Trazado_213836" data-name="Trazado 213836" d="M188.317,209.119q-.084-.406-.129-.717a5.485,5.485,0,0,1-.054-.627,3.806,3.806,0,0,1-1.191,1.083,3.039,3.039,0,0,1-1.581.435,2.935,2.935,0,0,1-2.138-.718,2.641,2.641,0,0,1-.734-1.979,2.319,2.319,0,0,1,1.042-2.013,4.864,4.864,0,0,1,2.826-.726h1.776v-.888a1.65,1.65,0,0,0-.481-1.25,1.894,1.894,0,0,0-1.362-.461,1.981,1.981,0,0,0-1.287.4,1.2,1.2,0,0,0-.489.956l-1.552.016-.017-.05a2.15,2.15,0,0,1,.918-1.793,3.8,3.8,0,0,1,2.519-.813,3.711,3.711,0,0,1,2.457.776,2.753,2.753,0,0,1,.93,2.237v4.325a8.446,8.446,0,0,0,.049.929,4.813,4.813,0,0,0,.183.88Zm-2.715-1.2a2.907,2.907,0,0,0,1.6-.457,2.165,2.165,0,0,0,.929-1.045v-1.461H186.3a2.381,2.381,0,0,0-1.581.5,1.49,1.49,0,0,0-.593,1.17,1.229,1.229,0,0,0,.373.946,1.564,1.564,0,0,0,1.1.349" fill="#fff"/>
          <path id="Trazado_213837" data-name="Trazado 213837" d="M589.764,203.881v5.238h-1.636V197.041h4.134a4.587,4.587,0,0,1,3.029.881,3.151,3.151,0,0,1,1.047,2.557,2.735,2.735,0,0,1-.486,1.618,3.292,3.292,0,0,1-1.415,1.1,2.469,2.469,0,0,1,1.431,1.049,3.428,3.428,0,0,1,.437,1.8v1.138a3.792,3.792,0,0,0,.124,1.013,1.514,1.514,0,0,0,.432.73v.2h-1.685a1.35,1.35,0,0,1-.416-.83,6.947,6.947,0,0,1-.091-1.129v-1.1a2.181,2.181,0,0,0-.573-1.578,2.024,2.024,0,0,0-1.535-.6Zm0-1.286H592.1a3.037,3.037,0,0,0,2-.527,2.009,2.009,0,0,0,.61-1.607,2.074,2.074,0,0,0-.593-1.581,2.618,2.618,0,0,0-1.847-.559h-2.5Z" fill="#fff"/>
          <path id="Trazado_213838" data-name="Trazado 213838" d="M602.44,209.293a3.8,3.8,0,0,1-3.018-1.236,4.76,4.76,0,0,1-1.084-3.254v-.365a4.665,4.665,0,0,1,1.117-3.2,3.505,3.505,0,0,1,2.727-1.265,3.261,3.261,0,0,1,2.7,1.12,4.616,4.616,0,0,1,.9,2.98v.864H600.04l-.024.041a3.709,3.709,0,0,0,.6,2.2,2.086,2.086,0,0,0,1.826.843,4.1,4.1,0,0,0,1.456-.237,3.252,3.252,0,0,0,1.075-.652l.639,1.063a3.941,3.941,0,0,1-1.27.784,5.056,5.056,0,0,1-1.9.319m-.258-8.035a1.779,1.779,0,0,0-1.415.66,3.115,3.115,0,0,0-.685,1.69l.016.041h4.051v-.133a2.611,2.611,0,0,0-.481-1.618,1.741,1.741,0,0,0-1.486-.64" fill="#fff"/>
          <path id="Trazado_213839" data-name="Trazado 213839" d="M615.272,204.969a4.95,4.95,0,0,1-.93,3.134,3.072,3.072,0,0,1-2.564,1.19,3.57,3.57,0,0,1-1.457-.277,2.8,2.8,0,0,1-1.067-.834v4.39h-1.635V200.138h1.253l.257,1.162a2.96,2.96,0,0,1,1.1-.987,3.259,3.259,0,0,1,1.527-.341,2.984,2.984,0,0,1,2.595,1.324,5.991,5.991,0,0,1,.925,3.5Zm-1.635-.174a4.743,4.743,0,0,0-.6-2.512,1.951,1.951,0,0,0-1.772-.983,2.182,2.182,0,0,0-1.2.319,2.39,2.39,0,0,0-.8.876v4.341a2.327,2.327,0,0,0,.8.868,2.265,2.265,0,0,0,1.221.312,2.011,2.011,0,0,0,1.759-.852,3.731,3.731,0,0,0,.6-2.2Z" fill="#fff"/>
          <path id="Trazado_213840" data-name="Trazado 213840" d="M616.9,204.545a4.945,4.945,0,0,1,1.08-3.282,3.619,3.619,0,0,1,2.93-1.291,3.656,3.656,0,0,1,2.951,1.286,4.933,4.933,0,0,1,1.083,3.287v.184a4.917,4.917,0,0,1-1.079,3.287,4.019,4.019,0,0,1-5.881-.005,4.91,4.91,0,0,1-1.084-3.282Zm1.636.184a4.254,4.254,0,0,0,.6,2.357,2.173,2.173,0,0,0,3.565,0,4.238,4.238,0,0,0,.605-2.357v-.184a4.227,4.227,0,0,0-.609-2.348,2,2,0,0,0-1.789-.939,1.974,1.974,0,0,0-1.772.939,4.26,4.26,0,0,0-.6,2.348Z" fill="#fff"/>
          <path id="Trazado_213841" data-name="Trazado 213841" d="M631.194,201.582l-.839-.05a1.872,1.872,0,0,0-1.092.308,1.96,1.96,0,0,0-.684.863v6.416h-1.635v-8.981h1.461l.157,1.311a3.128,3.128,0,0,1,.943-1.088,2.207,2.207,0,0,1,1.291-.389,1.941,1.941,0,0,1,.347.029,2.524,2.524,0,0,1,.275.061Z" fill="#fff"/>
          <path id="Trazado_213842" data-name="Trazado 213842" d="M635.309,197.971v2.167h1.7v1.212h-1.7V206.8a1.225,1.225,0,0,0,.262.889.944.944,0,0,0,.693.258,1.469,1.469,0,0,0,.316-.039,2.022,2.022,0,0,0,.29-.079l.224,1.121a1.451,1.451,0,0,1-.539.246,2.754,2.754,0,0,1-.706.094,2.117,2.117,0,0,1-1.585-.6,2.616,2.616,0,0,1-.59-1.889V201.35h-1.428v-1.212h1.428v-2.167Z" fill="#fff"/>
          <path id="Trazado_213843" data-name="Trazado 213843" d="M642.483,209.293a3.8,3.8,0,0,1-3.018-1.236,4.76,4.76,0,0,1-1.084-3.254v-.365a4.666,4.666,0,0,1,1.117-3.2,3.505,3.505,0,0,1,2.727-1.265,3.261,3.261,0,0,1,2.7,1.12,4.616,4.616,0,0,1,.9,2.98v.864h-5.745l-.024.041a3.709,3.709,0,0,0,.6,2.2,2.086,2.086,0,0,0,1.826.843,4.105,4.105,0,0,0,1.456-.237,3.252,3.252,0,0,0,1.075-.652l.639,1.063a3.942,3.942,0,0,1-1.27.784,5.056,5.056,0,0,1-1.9.319m-.258-8.035a1.779,1.779,0,0,0-1.415.66,3.114,3.114,0,0,0-.685,1.69l.016.041h4.051v-.133a2.611,2.611,0,0,0-.481-1.618,1.741,1.741,0,0,0-1.486-.64" fill="#fff"/>
          <path id="Trazado_213844" data-name="Trazado 213844" d="M652.883,206.7a1.089,1.089,0,0,0-.411-.879,3.95,3.95,0,0,0-1.556-.6,6.521,6.521,0,0,1-2.436-.955,1.925,1.925,0,0,1-.851-1.643,2.366,2.366,0,0,1,.934-1.876,4.12,4.12,0,0,1,4.892.05,2.381,2.381,0,0,1,.906,1.934l-.017.049h-1.561a1.416,1.416,0,0,0-.51-1.054,1.826,1.826,0,0,0-1.29-.473,1.864,1.864,0,0,0-1.291.39,1.216,1.216,0,0,0-.428.93.987.987,0,0,0,.369.822,4.107,4.107,0,0,0,1.523.532,6.428,6.428,0,0,1,2.507.987,1.986,1.986,0,0,1,.855,1.669,2.366,2.366,0,0,1-.967,1.95,3.986,3.986,0,0,1-2.527.755,3.945,3.945,0,0,1-2.706-.871,2.487,2.487,0,0,1-.939-2.033l.018-.051h1.56a1.511,1.511,0,0,0,.647,1.274,2.5,2.5,0,0,0,1.42.4,2.236,2.236,0,0,0,1.365-.37,1.128,1.128,0,0,0,.494-.942" fill="#fff"/>
          <line id="Línea_451" data-name="Línea 451" y2="45.09" transform="translate(374.442 49.58)" fill="none" stroke="#500c75" stroke-width="1.5"/>
        </g>
      </g>
    </g>
  </g>
</svg>
